<svg xmlns="http://www.w3.org/2000/svg"
 viewBox="0 0 153.43252871081657 153.43252871081657"
width="153.43252871081657mm" height="153.43252871081657mm">
<defs><style>.seam{stroke: #000; stroke-width:1px; fill:white} .sewinguide{stroke-width:1px;}</style></defs>
<g><path class="seam" d="M 0.11073953835456896,153.32181700129786 1.3607396204656248,153.3218169387812 2.610739765093321,153.32181688519552 3.8607396239306615,153.32181683160982 5.110739768558358,153.32181677802413 6.360739913186054,153.32181672443843 7.61074005781375,153.32181667085274 8.860740202441447,153.32181661726707 10.110740347069141,153.32181656368138 11.360740491696838,153.3218165100957 12.610739493163113,153.32181645651 13.86073963779081,153.3218164029243 15.110739782418506,153.3218163493386 16.3607399270462,153.3218162957529 17.6107400716739,153.32181624216722 18.860740216301593,153.32181618858152 20.110740360929288,153.3218161260649 20.11073807460645,152.12485435773965 20.11073807460645,150.92789261620726 20.11073807460645,149.73093087467484 20.11073807460645,148.5339688473521 20.11073807460645,147.33700682002936 20.11073807460645,146.14004536428732 20.11073807460645,144.94308390854528 20.11073807460645,143.7461218812225 20.11073807460645,142.54915985389977 20.11073807460645,141.352197826577 20.11073807460645,140.15523694241568 20.11073807460645,138.95827491509291 20.11073807460645,137.76131288777017 20.11073807460645,136.56435200360883 20.11073807460645,135.3673899762861 20.11073807460645,134.17042794896335 20.11073807460645,132.97346477847915 20.11073807460645,131.77650389431784 20.11073807460645,130.5795430101565 20.11073807460645,129.38257983967233 20.11073807460645,128.185618955511 20.11073807460645,126.98865807134966 20.11073807460645,125.7916949008655 20.110735788283606,124.59473401670417 20.110733501960762,123.39777313254282 20.110733501960762,122.20080996205866 20.110733501960762,121.00384907789733 20.110733501960762,119.806888193736 20.110733501960762,118.60992502325182 20.110733501960762,117.41296413909049 20.110733501960762,116.21600325492916 20.110733501960762,115.01904008444498 20.110733501960762,113.82207691396081 20.110733501960762,112.62511374347663 20.110733501960762,111.42815057299246 20.110733501960762,110.23119197515398 20.110733501960762,109.03423337731549 20.110733501960762,107.83727020683132 20.110733501960762,106.64030703634714 20.11073121563792,105.44334386586297 20.110728929315076,104.24638069537879 20.110728929315076,103.0494220975403 20.110728929315076,101.85246349970181 20.110728929315076,100.65550032921765 20.110728929315076,99.45853715873348 20.110728929315076,98.2615739882493 20.110728929315076,97.06461081776513 20.110728929315076,95.86765221992664 20.110728929315076,94.67069362208815 20.110728929315076,93.47373045160397 20.110728929315076,92.2767672811198 20.110728929315076,91.07980411063562 20.110728929315076,89.88284094015145 20.110728929315076,88.68588234231296 20.110728929315076,87.48892374447448 20.110726642992233,86.29196057399031 20.11072435666939,85.09499740350613 20.11072435666939,83.89803423302196 20.11072435666939,82.70107106253778 20.11072435666939,81.50411246469929 20.11072435666939,80.3071538668608 20.11072435666939,79.11019069637663 20.11072435666939,77.91322752589245 20.11072435666939,76.71626435540828 20.11072435666939,75.51930118492412 20.11072435666939,74.32233801443994 20.11072435666939,73.12537484395577 20.11072435666939,71.92841167347159 20.11072435666939,70.73144850298742 20.11072435666939,69.53448533250324 20.11072435666939,68.33753130731044 20.110722070346547,67.14056813682626 20.110719784023704,65.9436049663421 20.110719784023704,64.74665094114928 20.110719784023704,63.549687770665116 20.110719784023704,62.35272460018094 20.110719784023704,61.15576142969677 20.110719784023704,59.95879825921259 20.110719784023704,58.761835088728425 20.110719784023704,57.56487191824425 20.110719784023704,56.367908747760076 20.110719784023704,55.1709455772759 20.110719784023704,53.97398240679173 20.110719784023704,52.77701923630755 20.110719784023704,51.58005606582338 20.110719784023704,50.38309289533921 20.110719784023704,49.1861388701464 20.110719784023704,47.98917569966223 20.110719784023704,46.79221252917806 20.110719784023704,45.59525850398526 20.110719784023704,44.39829533350108 20.110719784023704,43.20133216301691 20.110719784023704,42.00436899253273 20.110719784023704,40.80740582204856 20.110719784023704,39.610442651564384 20.11071749770086,38.413479481080216 20.110715211378018,37.21651631059604 20.110715211378018,36.01955314011187 20.110715211378018,34.82258996962769 20.110715211378018,33.62562679914352 20.110715211378018,32.42866362865934 20.110715211378018,31.231700458175172 20.110715211378018,30.03474643298237 20.110715211378018,28.837783262498196 20.110715211378018,27.64082009201402 20.110715211378018,26.44386606682122 20.110715211378018,25.246902896337044 20.110715211378018,24.04993972585287 20.110715211378018,22.8529765553687 20.110715211378018,21.656013384884524 20.110715211378018,20.45905021440035 20.110715211378018,19.26208704391618 20.110715211378018,18.065123873432004 20.110715211378018,16.86816070294783 20.110715211378018,15.671206677755027 20.110715211378018,14.474243507270852 20.110715211378018,13.27728033678668 20.110715211378018,12.080326311593877 20.110715211378018,10.883363141109703 20.11071292505518,9.68639997062553 20.110710638732336,8.489436800141355 20.110710638732336,7.292473629657183 20.110710638732336,6.095510459173009 20.110710638732336,4.898547288688835 20.110710638732336,3.7015841182046616 20.110710638732336,2.504620947720488 20.110710638732336,1.3076669225276851 20.110710638732336,0.11070375204351154 18.860710494104637,0.11071289733488235 17.610710349476943,0.11071289733488235 16.360710204849248,0.11071289733488235 15.11071006022155,0.11071289733488235 13.860709915593853,0.11071289733488235 12.610709770966158,0.11071289733488235 11.360710769499883,0.11071289733488235 10.110710624872187,0.11071289733488235 8.86071048024449,0.11071289733488235 7.610710335616795,0.11071289733488235 6.360710190989098,0.11071289733488235 5.110710617942114,0.11071289733488235 3.860710473314417,0.11071289733488235 2.6107106144770764,0.11071289733488235 1.360710612744558,0.11071289733488235 0.11071057528824522,0.11071289733488235 0.11071080749290894,1.307676067819056 0.11071103076662404,2.5046392383032297 0.11071125404033916,3.7016024087874033 0.11071148624500286,4.898565579271577 0.11071170951871798,6.095528749755751 0.11071193279243308,7.292491920239924 0.1107121649970968,8.489445945432728 0.1107123882708119,9.6864091159169 0.11071261154452701,10.883372286401073 0.11071284374919071,12.080326311593877 0.11071306702290583,13.27728948207805 0.11071329029662093,14.474252652562225 0.11071352250128465,15.671215823046397 0.11071374577499975,16.86817899353057 0.11071396904871486,18.065142164014745 0.11071420125337857,19.26210533449892 0.11071442452709368,20.45906850498309 0.11071464780080878,21.656031675467265 0.1107148800054725,22.852985700660067 0.1107151032791876,24.04994887114424 0.11071532655290271,25.246912041628416 0.11071555875756642,26.44386606682122 0.11071578203128153,27.640829237305393 0.11071600530499663,28.837792407789564 0.11071623750966035,30.03475557827374 0.11071646078337545,31.231718748757913 0.11071668405709056,32.42868191924209 0.11071691626175427,33.62564508972626 0.11071713953546938,34.82260826021044 0.11071736280918448,36.019571430694604 0.1107175950138482,37.21652545588741 0.1107178182875633,38.41348862637158 0.11071804156127842,39.610451796855756 0.11071827376594212,40.80740582204856 0.11071849703965723,42.00436899253273 0.11071872031337235,43.20133216301691 0.11071895251803605,44.39829533350108 0.11071917579175117,45.59525850398526 0.11071939906546627,46.79222167446943 0.11071963127012999,47.9891848449536 0.11071985454384509,49.18614801543777 0.1107200778175602,50.38311118592195 0.1107203100222239,51.58006521111475 0.11072053329593902,52.777028381598925 0.11072075656965412,53.9739915520831 0.11072098877431784,55.1709455772759 0.11072121204803294,56.367908747760076 0.11072143532174805,57.56487191824425 0.11072166752641176,58.761835088728425 0.11072189080012687,59.95879825921259 0.11072211407384197,61.15576142969677 0.11072234627850569,62.35272460018094 0.11072256955222079,63.549687770665116 0.1107227928259359,64.74665094114928 0.11072302503059961,65.9436049663421 0.11072324830431472,67.14056813682626 0.11072347157802982,68.33753130731044 0.11072370378269354,69.53448533250324 0.11072392705640864,70.73144850298742 0.11072415033012376,71.92841167347159 0.11072438253478746,73.12537484395577 0.11072460580850257,74.32233801443994 0.11072482908221767,75.51930118492412 0.1107250612868814,76.71626435540828 0.11072528456059649,77.91322752589245 0.1107255078343116,79.11019069637663 0.11072574003897531,80.3071538668608 0.11072596331269043,81.50411246469929 0.11072618658640554,82.70107106253778 0.11072641879106924,83.89803423302196 0.11072664206478436,85.09499740350613 0.11072686533849946,86.29196057399031 0.11072709754316318,87.48892374447448 0.11072732081687828,88.68588234231296 0.11072754409059339,89.88284094015145 0.1107277762952571,91.07980411063562 0.11072799956897221,92.2767672811198 0.11072822284268731,93.47373045160397 0.11072845504735103,94.67069362208815 0.11072867832106613,95.86765221992664 0.11072890159478124,97.06461081776513 0.11072913379944495,98.2615739882493 0.11072935707316006,99.45853715873348 0.11072958034687516,100.65550032921765 0.11072981255153888,101.85246349970181 0.11073003582525398,103.0494220975403 0.1107302590989691,104.24638069537879 0.1107304913036328,105.44334386586297 0.11073071457734791,106.64030703634714 0.11073093785106301,107.83727020683132 0.11073117005572673,109.03423337731549 0.11073139332944183,110.23119197515398 0.11073161660315695,111.42815057299246 0.11073184880782065,112.62511374347663 0.11073207208153577,113.82207691396081 0.11073229535525086,115.01904008444498 0.11073252755991458,116.21600325492916 0.11073275083362968,117.41296413909049 0.1107329741073448,118.60992502325182 0.1107332063120085,119.806888193736 0.11073342958572362,121.00384907789733 0.11073365285943873,122.20080996205866 0.11073388506410244,123.39777313254282 0.11073410833781755,124.59473401670417 0.11073433161153265,125.7916949008655 0.11073456381619637,126.98865807134966 0.11073478708991147,128.185618955511 0.11073501036362658,129.38257983967233 0.11073524256829029,130.5795430101565 0.1107354658420054,131.77650389431784 0.1107356891157205,132.97346477847915 0.11073592132038422,134.17042794896335 0.11073614459409932,135.3673899762861 0.11073636786781443,136.56435200360883 0.11073660007247814,137.7613140309316 0.11073682334619325,138.95827605825434 0.11073704661990835,140.1552380855771 0.11073727882457207,141.35220011289985 0.11073750209828717,142.5491609970612 0.11073772537200229,143.74612302438393 0.11073795757666599,144.94308505170667 0.1107381808503811,146.14004650744872 0.1107384041240962,147.33700796319076 0.11073863632875992,148.53396999051353 0.11073885960247502,149.73093173204592 0.11073908287619014,150.9278934735783 0.11073931508085384,152.1248552151107 0.11073953835456896,153.32181700129786 "/><text x="10.076123116034841px" y="76.98133383385078px" style="font-family:'Consolas', 'Courier New';font-size:30.0px;">A</text>
</g>
</svg>