  0
SECTION
  2
HEADER
  9
$ACADVER
  1
AC1024
  9
$ACADMAINTVER
 70
6
  9
$DWGCODEPAGE
  3
ANSI_1252
  9
$LASTSAVEDBY
  1
ezdxf
  9
$INSBASE
 10
0.0
 20
0.0
 30
0.0
  9
$EXTMIN
 10
1e+20
 20
1e+20
 30
1e+20
  9
$EXTMAX
 10
-1e+20
 20
-1e+20
 30
-1e+20
  9
$LIMMIN
 10
0.0
 20
0.0
  9
$LIMMAX
 10
420.0
 20
297.0
  9
$ORTHOMODE
 70
0
  9
$REGENMODE
 70
1
  9
$FILLMODE
 70
1
  9
$QTEXTMODE
 70
0
  9
$MIRRTEXT
 70
1
  9
$LTSCALE
 40
1.0
  9
$ATTMODE
 70
1
  9
$TEXTSIZE
 40
2.5
  9
$TRACEWID
 40
1.0
  9
$TEXTSTYLE
  7
OpenSans
  9
$CLAYER
  8
0
  9
$CELTYPE
  6
ByLayer
  9
$CECOLOR
 62
256
  9
$CELTSCALE
 40
1.0
  9
$DISPSILH
 70
0
  9
$DIMSCALE
 40
1.0
  9
$DIMASZ
 40
0.175
  9
$DIMEXO
 40
0.125
  9
$DIMDLI
 40
3.75
  9
$DIMRND
 40
0.0
  9
$DIMDLE
 40
0.0
  9
$DIMEXE
 40
0.375
  9
$DIMTP
 40
0.0
  9
$DIMTM
 40
0.0
  9
$DIMTXT
 40
0.25
  9
$DIMCEN
 40
2.5
  9
$DIMTSZ
 40
0.0
  9
$DIMTOL
 70
0
  9
$DIMLIM
 70
0
  9
$DIMTIH
 70
0
  9
$DIMTOH
 70
0
  9
$DIMSE1
 70
0
  9
$DIMSE2
 70
0
  9
$DIMTAD
 70
1
  9
$DIMZIN
 70
12
  9
$DIMBLK
  1
ARCHTICK
  9
$DIMASO
 70
1
  9
$DIMSHO
 70
1
  9
$DIMPOST
  1

  9
$DIMAPOST
  1

  9
$DIMALT
 70
0
  9
$DIMALTD
 70
3
  9
$DIMALTF
 40
0.03937007874
  9
$DIMLFAC
 40
100.0
  9
$DIMTOFL
 70
1
  9
$DIMTVP
 40
0.0
  9
$DIMTIX
 70
0
  9
$DIMSOXD
 70
0
  9
$DIMSAH
 70
0
  9
$DIMBLK1
  1

  9
$DIMBLK2
  1

  9
$DIMSTYLE
  2
EZDXF
  9
$DIMCLRD
 70
0
  9
$DIMCLRE
 70
0
  9
$DIMCLRT
 70
0
  9
$DIMTFAC
 40
0.5
  9
$DIMGAP
 40
0.1
  9
$DIMJUST
 70
0
  9
$DIMSD1
 70
0
  9
$DIMSD2
 70
0
  9
$DIMTOLJ
 70
0
  9
$DIMTZIN
 70
8
  9
$DIMALTZ
 70
0
  9
$DIMALTTZ
 70
0
  9
$DIMUPT
 70
1
  9
$DIMDEC
 70
2
  9
$DIMTDEC
 70
2
  9
$DIMALTU
 70
2
  9
$DIMALTTD
 70
3
  9
$DIMTXSTY
  7
OpenSansCondensed-Light
  9
$DIMAUNIT
 70
0
  9
$DIMADEC
 70
2
  9
$DIMALTRND
 40
0.0
  9
$DIMAZIN
 70
3
  9
$DIMDSEP
 70
46
  9
$DIMATFIT
 70
3
  9
$DIMFRAC
 70
0
  9
$DIMLDRBLK
  1

  9
$DIMLUNIT
 70
2
  9
$DIMLWD
 70
-2
  9
$DIMLWE
 70
-2
  9
$DIMTMOVE
 70
2
  9
$DIMFXL
 40
1.0
  9
$DIMFXLON
 70
0
  9
$DIMJOGANG
 40
0.785398163397
  9
$DIMTFILL
 70
0
  9
$DIMTFILLCLR
 70
0
  9
$DIMARCSYM
 70
0
  9
$DIMLTYPE
  6

  9
$DIMLTEX1
  6

  9
$DIMLTEX2
  6

  9
$DIMTXTDIRECTION
 70
0
  9
$LUNITS
 70
2
  9
$LUPREC
 70
4
  9
$SKETCHINC
 40
1.0
  9
$FILLETRAD
 40
10.0
  9
$AUNITS
 70
0
  9
$AUPREC
 70
2
  9
$MENU
  1
.
  9
$ELEVATION
 40
0.0
  9
$PELEVATION
 40
0.0
  9
$THICKNESS
 40
0.0
  9
$LIMCHECK
 70
0
  9
$CHAMFERA
 40
0.0
  9
$CHAMFERB
 40
0.0
  9
$CHAMFERC
 40
0.0
  9
$CHAMFERD
 40
0.0
  9
$SKPOLY
 70
0
  9
$TDCREATE
 40
2461248.6948958333
  9
$TDUCREATE
 40
2458532.153996898
  9
$TDUPDATE
 40
2461248.6948958333
  9
$TDUUPDATE
 40
2458532.1544311
  9
$TDINDWG
 40
0.0
  9
$TDUSRTIMER
 40
0.0
  9
$USRTIMER
 70
1
  9
$ANGBASE
 50
0.0
  9
$ANGDIR
 70
0
  9
$PDMODE
 70
0
  9
$PDSIZE
 40
0.0
  9
$PLINEWID
 40
0.0
  9
$SPLFRAME
 70
0
  9
$SPLINETYPE
 70
6
  9
$SPLINESEGS
 70
8
  9
$HANDSEED
  5
A3
  9
$SURFTAB1
 70
6
  9
$SURFTAB2
 70
6
  9
$SURFTYPE
 70
6
  9
$SURFU
 70
6
  9
$SURFV
 70
6
  9
$UCSBASE
  2

  9
$UCSNAME
  2

  9
$UCSORG
 10
0.0
 20
0.0
 30
0.0
  9
$UCSXDIR
 10
1.0
 20
0.0
 30
0.0
  9
$UCSYDIR
 10
0.0
 20
1.0
 30
0.0
  9
$UCSORTHOREF
  2

  9
$UCSORTHOVIEW
 70
0
  9
$UCSORGTOP
 10
0.0
 20
0.0
 30
0.0
  9
$UCSORGBOTTOM
 10
0.0
 20
0.0
 30
0.0
  9
$UCSORGLEFT
 10
0.0
 20
0.0
 30
0.0
  9
$UCSORGRIGHT
 10
0.0
 20
0.0
 30
0.0
  9
$UCSORGFRONT
 10
0.0
 20
0.0
 30
0.0
  9
$UCSORGBACK
 10
0.0
 20
0.0
 30
0.0
  9
$PUCSBASE
  2

  9
$PUCSNAME
  2

  9
$PUCSORG
 10
0.0
 20
0.0
 30
0.0
  9
$PUCSXDIR
 10
1.0
 20
0.0
 30
0.0
  9
$PUCSYDIR
 10
0.0
 20
1.0
 30
0.0
  9
$PUCSORTHOREF
  2

  9
$PUCSORTHOVIEW
 70
0
  9
$PUCSORGTOP
 10
0.0
 20
0.0
 30
0.0
  9
$PUCSORGBOTTOM
 10
0.0
 20
0.0
 30
0.0
  9
$PUCSORGLEFT
 10
0.0
 20
0.0
 30
0.0
  9
$PUCSORGRIGHT
 10
0.0
 20
0.0
 30
0.0
  9
$PUCSORGFRONT
 10
0.0
 20
0.0
 30
0.0
  9
$PUCSORGBACK
 10
0.0
 20
0.0
 30
0.0
  9
$USERI1
 70
0
  9
$USERI2
 70
0
  9
$USERI3
 70
0
  9
$USERI4
 70
0
  9
$USERI5
 70
0
  9
$USERR1
 40
0.0
  9
$USERR2
 40
0.0
  9
$USERR3
 40
0.0
  9
$USERR4
 40
0.0
  9
$USERR5
 40
0.0
  9
$WORLDVIEW
 70
1
  9
$SHADEDGE
 70
3
  9
$SHADEDIF
 70
70
  9
$TILEMODE
 70
1
  9
$MAXACTVP
 70
64
  9
$PINSBASE
 10
0.0
 20
0.0
 30
0.0
  9
$PLIMCHECK
 70
0
  9
$PEXTMIN
 10
1e+20
 20
1e+20
 30
1e+20
  9
$PEXTMAX
 10
-1e+20
 20
-1e+20
 30
-1e+20
  9
$PLIMMIN
 10
0.0
 20
0.0
  9
$PLIMMAX
 10
420.0
 20
297.0
  9
$UNITMODE
 70
0
  9
$VISRETAIN
 70
1
  9
$PLINEGEN
 70
0
  9
$PSLTSCALE
 70
1
  9
$TREEDEPTH
 70
3020
  9
$CMLSTYLE
  2
Standard
  9
$CMLJUST
 70
0
  9
$CMLSCALE
 40
20.0
  9
$PROXYGRAPHICS
 70
1
  9
$MEASUREMENT
 70
1
  9
$CELWEIGHT
370
-1
  9
$ENDCAPS
280
0
  9
$JOINSTYLE
280
0
  9
$LWDISPLAY
290
0
  9
$INSUNITS
 70
4
  9
$HYPERLINKBASE
  1

  9
$STYLESHEET
  1

  9
$XEDIT
290
1
  9
$CEPSNTYPE
380
0
  9
$PSTYLEMODE
290
1
  9
$FINGERPRINTGUID
  2
{83AE4E09-76BA-4130-BF39-D21F824FF3AB}
  9
$VERSIONGUID
  2
{8AABD78A-F43E-45CD-84BC-FB6B69ECE785}
  9
$EXTNAMES
290
1
  9
$PSVPSCALE
 40
0.0
  9
$OLESTARTUP
290
0
  9
$SORTENTS
280
127
  9
$INDEXCTL
280
0
  9
$HIDETEXT
280
1
  9
$XCLIPFRAME
280
1
  9
$HALOGAP
280
0
  9
$OBSCOLOR
 70
257
  9
$OBSLTYPE
280
0
  9
$INTERSECTIONDISPLAY
280
0
  9
$INTERSECTIONCOLOR
 70
257
  9
$DIMASSOC
280
2
  9
$PROJECTNAME
  1

  9
$CAMERADISPLAY
290
0
  9
$LENSLENGTH
 40
50.0
  9
$CAMERAHEIGHT
 40
0.0
  9
$STEPSPERSEC
 40
24.0
  9
$STEPSIZE
 40
100.0
  9
$3DDWFPREC
 40
2.0
  9
$PSOLWIDTH
 40
0.005
  9
$PSOLHEIGHT
 40
0.08
  9
$LOFTANG1
 40
1.570796326795
  9
$LOFTANG2
 40
1.570796326795
  9
$LOFTMAG1
 40
0.0
  9
$LOFTMAG2
 40
0.0
  9
$LOFTPARAM
 70
7
  9
$LOFTNORMALS
280
1
  9
$LATITUDE
 40
37.795
  9
$LONGITUDE
 40
-122.394
  9
$NORTHDIRECTION
 40
0.0
  9
$TIMEZONE
 70
-8000
  9
$LIGHTGLYPHDISPLAY
280
1
  9
$TILEMODELIGHTSYNCH
280
1
  9
$CMATERIAL
347
20
  9
$SOLIDHIST
280
0
  9
$SHOWHIST
280
1
  9
$DWFFRAME
280
2
  9
$DGNFRAME
280
2
  9
$REALWORLDSCALE
290
1
  9
$INTERFERECOLOR
 62
256
  9
$CSHADOW
280
0
  9
$SHADOWPLANELOCATION
 40
0.0
  0
ENDSEC
  0
SECTION
  2
CLASSES
  0
CLASS
  1
ACDBDICTIONARYWDFLT
  2
AcDbDictionaryWithDefault
  3
ObjectDBX Classes
 90
0
 91
0
280
0
281
0
  0
CLASS
  1
SUN
  2
AcDbSun
  3
SCENEOE
 90
1153
 91
0
280
0
281
0
  0
CLASS
  1
VISUALSTYLE
  2
AcDbVisualStyle
  3
ObjectDBX Classes
 90
4095
 91
0
280
0
281
0
  0
CLASS
  1
MATERIAL
  2
AcDbMaterial
  3
ObjectDBX Classes
 90
1153
 91
0
280
0
281
0
  0
CLASS
  1
SCALE
  2
AcDbScale
  3
ObjectDBX Classes
 90
1153
 91
0
280
0
281
0
  0
CLASS
  1
TABLESTYLE
  2
AcDbTableStyle
  3
ObjectDBX Classes
 90
4095
 91
0
280
0
281
0
  0
CLASS
  1
MLEADERSTYLE
  2
AcDbMLeaderStyle
  3
ACDB_MLEADERSTYLE_CLASS
 90
4095
 91
0
280
0
281
0
  0
CLASS
  1
DICTIONARYVAR
  2
AcDbDictionaryVar
  3
ObjectDBX Classes
 90
0
 91
0
280
0
281
0
  0
CLASS
  1
CELLSTYLEMAP
  2
AcDbCellStyleMap
  3
ObjectDBX Classes
 90
1152
 91
0
280
0
281
0
  0
CLASS
  1
MENTALRAYRENDERSETTINGS
  2
AcDbMentalRayRenderSettings
  3
SCENEOE
 90
1024
 91
0
280
0
281
0
  0
CLASS
  1
ACDBDETAILVIEWSTYLE
  2
AcDbDetailViewStyle
  3
ObjectDBX Classes
 90
1025
 91
0
280
0
281
0
  0
CLASS
  1
ACDBSECTIONVIEWSTYLE
  2
AcDbSectionViewStyle
  3
ObjectDBX Classes
 90
1025
 91
0
280
0
281
0
  0
CLASS
  1
RASTERVARIABLES
  2
AcDbRasterVariables
  3
ISM
 90
0
 91
0
280
0
281
0
  0
CLASS
  1
ACDBPLACEHOLDER
  2
AcDbPlaceHolder
  3
ObjectDBX Classes
 90
0
 91
0
280
0
281
0
  0
CLASS
  1
LAYOUT
  2
AcDbLayout
  3
ObjectDBX Classes
 90
0
 91
0
280
0
281
0
  0
ENDSEC
  0
SECTION
  2
TABLES
  0
TABLE
  2
VPORT
  5
8
330
0
100
AcDbSymbolTable
 70
1
  0
VPORT
  5
23
330
8
100
AcDbSymbolTableRecord
100
AcDbViewportTableRecord
  2
*Active
 70
0
 10
0.0
 20
0.0
 11
1.0
 21
1.0
 12
0.0
 22
0.0
 13
0.0
 23
0.0
 14
0.5
 24
0.5
 15
0.5
 25
0.5
 16
0.0
 26
0.0
 36
1.0
 17
0.0
 27
0.0
 37
0.0
 40
1000.0
 41
1.34
 42
50.0
 43
0.0
 44
0.0
 50
0.0
 51
0.0
 71
0
 72
1000
 73
1
 74
3
 75
0
 76
0
 77
0
 78
0
281
0
 65
0
146
0.0
  0
ENDTAB
  0
TABLE
  2
LTYPE
  5
2
330
0
100
AcDbSymbolTable
 70
21
  0
LTYPE
  5
24
330
2
100
AcDbSymbolTableRecord
100
AcDbLinetypeTableRecord
  2
ByBlock
 70
0
  3

 72
65
 73
0
 40
0.0
  0
LTYPE
  5
25
330
2
100
AcDbSymbolTableRecord
100
AcDbLinetypeTableRecord
  2
ByLayer
 70
0
  3

 72
65
 73
0
 40
0.0
  0
LTYPE
  5
26
330
2
100
AcDbSymbolTableRecord
100
AcDbLinetypeTableRecord
  2
Continuous
 70
0
  3

 72
65
 73
0
 40
0.0
  0
LTYPE
  5
2F
330
2
100
AcDbSymbolTableRecord
100
AcDbLinetypeTableRecord
  2
CENTER
 70
0
  3
Center ____ _ ____ _ ____ _ ____ _ ____ _ ____
 72
65
 73
4
 40
5.08
 49
3.175
 74
0
 49
-0.635
 74
0
 49
0.635
 74
0
 49
-0.635
 74
0
  0
LTYPE
  5
30
330
2
100
AcDbSymbolTableRecord
100
AcDbLinetypeTableRecord
  2
CENTERX2
 70
0
  3
Center (2x) ________  __  ________  __  ________
 72
65
 73
4
 40
8.89
 49
6.35
 74
0
 49
-0.635
 74
0
 49
1.27
 74
0
 49
-0.635
 74
0
  0
LTYPE
  5
31
330
2
100
AcDbSymbolTableRecord
100
AcDbLinetypeTableRecord
  2
CENTER2
 70
0
  3
Center (.5x) ____ _ ____ _ ____ _ ____ _ ____
 72
65
 73
4
 40
2.54
 49
1.587
 74
0
 49
-0.318
 74
0
 49
0.318
 74
0
 49
-0.318
 74
0
  0
LTYPE
  5
32
330
2
100
AcDbSymbolTableRecord
100
AcDbLinetypeTableRecord
  2
DASHED
 70
0
  3
Dashed __ __ __ __ __ __ __ __ __ __ __ __ __ _
 72
65
 73
2
 40
1.524
 49
1.27
 74
0
 49
-0.254
 74
0
  0
LTYPE
  5
33
330
2
100
AcDbSymbolTableRecord
100
AcDbLinetypeTableRecord
  2
DASHEDX2
 70
0
  3
Dashed (2x) ____  ____  ____  ____  ____  ____
 72
65
 73
2
 40
3.048
 49
2.54
 74
0
 49
-0.508
 74
0
  0
LTYPE
  5
34
330
2
100
AcDbSymbolTableRecord
100
AcDbLinetypeTableRecord
  2
DASHED2
 70
0
  3
Dashed (.5x) _ _ _ _ _ _ _ _ _ _ _ _ _ _
 72
65
 73
2
 40
0.762
 49
0.635
 74
0
 49
-0.127
 74
0
  0
LTYPE
  5
35
330
2
100
AcDbSymbolTableRecord
100
AcDbLinetypeTableRecord
  2
PHANTOM
 70
0
  3
Phantom ______  __  __  ______  __  __  ______
 72
65
 73
6
 40
6.35
 49
3.175
 74
0
 49
-0.635
 74
0
 49
0.635
 74
0
 49
-0.635
 74
0
 49
0.635
 74
0
 49
-0.635
 74
0
  0
LTYPE
  5
36
330
2
100
AcDbSymbolTableRecord
100
AcDbLinetypeTableRecord
  2
PHANTOMX2
 70
0
  3
Phantom (2x)____________    ____    ____    ____________
 72
65
 73
6
 40
10.795
 49
6.35
 74
0
 49
-0.635
 74
0
 49
1.27
 74
0
 49
-0.635
 74
0
 49
1.27
 74
0
 49
-0.635
 74
0
  0
LTYPE
  5
37
330
2
100
AcDbSymbolTableRecord
100
AcDbLinetypeTableRecord
  2
PHANTOM2
 70
0
  3
Phantom (.5x) ___ _ _ ___ _ _ ___ _ _ ___ _ _ ___
 72
65
 73
6
 40
3.175
 49
1.587
 74
0
 49
-0.318
 74
0
 49
0.318
 74
0
 49
-0.318
 74
0
 49
0.318
 74
0
 49
-0.318
 74
0
  0
LTYPE
  5
38
330
2
100
AcDbSymbolTableRecord
100
AcDbLinetypeTableRecord
  2
DASHDOT
 70
0
  3
Dash dot __ . __ . __ . __ . __ . __ . __ . __
 72
65
 73
4
 40
3.556
 49
2.54
 74
0
 49
-0.508
 74
0
 49
0.0
 74
0
 49
-0.508
 74
0
  0
LTYPE
  5
39
330
2
100
AcDbSymbolTableRecord
100
AcDbLinetypeTableRecord
  2
DASHDOTX2
 70
0
  3
Dash dot (2x) ____  .  ____  .  ____  .  ____
 72
65
 73
4
 40
6.096
 49
5.08
 74
0
 49
-0.508
 74
0
 49
0.0
 74
0
 49
-0.508
 74
0
  0
LTYPE
  5
3A
330
2
100
AcDbSymbolTableRecord
100
AcDbLinetypeTableRecord
  2
DASHDOT2
 70
0
  3
Dash dot (.5x) _ . _ . _ . _ . _ . _ . _ . _
 72
65
 73
4
 40
1.778
 49
1.27
 74
0
 49
-0.254
 74
0
 49
0.0
 74
0
 49
-0.254
 74
0
  0
LTYPE
  5
3B
330
2
100
AcDbSymbolTableRecord
100
AcDbLinetypeTableRecord
  2
DOT
 70
0
  3
Dot .  .  .  .  .  .  .  .  .  .  .  .  .  .  .  .
 72
65
 73
2
 40
0.508
 49
0.0
 74
0
 49
-0.508
 74
0
  0
LTYPE
  5
3C
330
2
100
AcDbSymbolTableRecord
100
AcDbLinetypeTableRecord
  2
DOTX2
 70
0
  3
Dot (2x) .    .    .    .    .    .    .    . 
 72
65
 73
2
 40
1.016
 49
0.0
 74
0
 49
-1.016
 74
0
  0
LTYPE
  5
3D
330
2
100
AcDbSymbolTableRecord
100
AcDbLinetypeTableRecord
  2
DOT2
 70
0
  3
Dot (.5) . . . . . . . . . . . . . . . . . . . 
 72
65
 73
2
 40
0.254
 49
0.0
 74
0
 49
-0.254
 74
0
  0
LTYPE
  5
3E
330
2
100
AcDbSymbolTableRecord
100
AcDbLinetypeTableRecord
  2
DIVIDE
 70
0
  3
Divide __ . . __ . . __ . . __ . . __ . . __
 72
65
 73
6
 40
4.064
 49
2.54
 74
0
 49
-0.508
 74
0
 49
0.0
 74
0
 49
-0.508
 74
0
 49
0.0
 74
0
 49
-0.508
 74
0
  0
LTYPE
  5
3F
330
2
100
AcDbSymbolTableRecord
100
AcDbLinetypeTableRecord
  2
DIVIDEX2
 70
0
  3
Divide (2x) ____  . .  ____  . .  ____  . .  ____
 72
65
 73
6
 40
6.604
 49
5.08
 74
0
 49
-0.508
 74
0
 49
0.0
 74
0
 49
-0.508
 74
0
 49
0.0
 74
0
 49
-0.508
 74
0
  0
LTYPE
  5
40
330
2
100
AcDbSymbolTableRecord
100
AcDbLinetypeTableRecord
  2
DIVIDE2
 70
0
  3
Divide(.5x) _ . _ . _ . _ . _ . _ . _ . _
 72
65
 73
6
 40
2.032
 49
1.27
 74
0
 49
-0.254
 74
0
 49
0.0
 74
0
 49
-0.254
 74
0
 49
0.0
 74
0
 49
-0.254
 74
0
  0
ENDTAB
  0
TABLE
  2
LAYER
  5
1
330
0
100
AcDbSymbolTable
 70
5
  0
LAYER
  5
27
330
1
100
AcDbSymbolTableRecord
100
AcDbLayerTableRecord
  2
0
 70
0
 62
7
  6
Continuous
370
-3
390
13
347
21
  0
LAYER
  5
28
330
1
100
AcDbSymbolTableRecord
100
AcDbLayerTableRecord
  2
Defpoints
 70
0
 62
7
  6
Continuous
290
0
370
-3
390
13
347
21
  0
LAYER
  5
8A
330
1
100
AcDbSymbolTableRecord
100
AcDbLayerTableRecord
  2
CUT
 70
0
 62
7
  6
Continuous
370
-3
390
13
347
21
  0
LAYER
  5
8B
330
1
100
AcDbSymbolTableRecord
100
AcDbLayerTableRecord
  2
STITCH
 70
0
 62
1
  6
DASHED
370
-3
390
13
347
21
  0
LAYER
  5
8C
330
1
100
AcDbSymbolTableRecord
100
AcDbLayerTableRecord
  2
LABEL
 70
0
 62
3
  6
Continuous
370
-3
390
13
347
21
  0
ENDTAB
  0
TABLE
  2
STYLE
  5
5
330
0
100
AcDbSymbolTable
 70
26
  0
STYLE
  5
29
330
5
100
AcDbSymbolTableRecord
100
AcDbTextStyleTableRecord
  2
Standard
 70
0
 40
0.0
 41
1.0
 50
0.0
 71
0
 42
2.5
  3
txt
  4

  0
STYLE
  5
41
330
5
100
AcDbSymbolTableRecord
100
AcDbTextStyleTableRecord
  2
OpenSans-Light
 70
0
 40
0.0
 41
1.0
 50
0.0
 71
0
 42
2.5
  3
OpenSans-Light.ttf
  4

  0
STYLE
  5
42
330
5
100
AcDbSymbolTableRecord
100
AcDbTextStyleTableRecord
  2
OpenSans-Light-Italic
 70
0
 40
0.0
 41
1.0
 50
0.0
 71
0
 42
2.5
  3
OpenSans-LightItalic.ttf
  4

  0
STYLE
  5
43
330
5
100
AcDbSymbolTableRecord
100
AcDbTextStyleTableRecord
  2
OpenSans
 70
0
 40
0.0
 41
1.0
 50
0.0
 71
0
 42
2.5
  3
OpenSans-Regular.ttf
  4

  0
STYLE
  5
44
330
5
100
AcDbSymbolTableRecord
100
AcDbTextStyleTableRecord
  2
OpenSans-Italic
 70
0
 40
0.0
 41
1.0
 50
0.0
 71
0
 42
2.5
  3
OpenSans-Italic.ttf
  4

  0
STYLE
  5
45
330
5
100
AcDbSymbolTableRecord
100
AcDbTextStyleTableRecord
  2
OpenSans-SemiBold
 70
0
 40
0.0
 41
1.0
 50
0.0
 71
0
 42
2.5
  3
OpenSans-SemiBold.ttf
  4

  0
STYLE
  5
46
330
5
100
AcDbSymbolTableRecord
100
AcDbTextStyleTableRecord
  2
OpenSans-SemiBoldItalic
 70
0
 40
0.0
 41
1.0
 50
0.0
 71
0
 42
2.5
  3
OpenSans-SemiBoldItalic.ttf
  4

  0
STYLE
  5
47
330
5
100
AcDbSymbolTableRecord
100
AcDbTextStyleTableRecord
  2
OpenSans-Bold
 70
0
 40
0.0
 41
1.0
 50
0.0
 71
0
 42
2.5
  3
OpenSans-Bold.ttf
  4

  0
STYLE
  5
48
330
5
100
AcDbSymbolTableRecord
100
AcDbTextStyleTableRecord
  2
OpenSans-BoldItalic
 70
0
 40
0.0
 41
1.0
 50
0.0
 71
0
 42
2.5
  3
OpenSans-BoldItalic.ttf
  4

  0
STYLE
  5
49
330
5
100
AcDbSymbolTableRecord
100
AcDbTextStyleTableRecord
  2
OpenSans-ExtraBold
 70
0
 40
0.0
 41
1.0
 50
0.0
 71
0
 42
2.5
  3
OpenSans-ExtraBold.ttf
  4

  0
STYLE
  5
4A
330
5
100
AcDbSymbolTableRecord
100
AcDbTextStyleTableRecord
  2
OpenSans-ExtraBoldItalic
 70
0
 40
0.0
 41
1.0
 50
0.0
 71
0
 42
2.5
  3
OpenSans-ExtraBoldItalic.ttf
  4

  0
STYLE
  5
4B
330
5
100
AcDbSymbolTableRecord
100
AcDbTextStyleTableRecord
  2
OpenSansCondensed-Bold
 70
0
 40
0.0
 41
1.0
 50
0.0
 71
0
 42
2.5
  3
OpenSansCondensed-Bold.ttf
  4

  0
STYLE
  5
4C
330
5
100
AcDbSymbolTableRecord
100
AcDbTextStyleTableRecord
  2
OpenSansCondensed-Light
 70
0
 40
0.0
 41
1.0
 50
0.0
 71
0
 42
2.5
  3
OpenSansCondensed-Light.ttf
  4

  0
STYLE
  5
4D
330
5
100
AcDbSymbolTableRecord
100
AcDbTextStyleTableRecord
  2
OpenSansCondensed-Italic
 70
0
 40
0.0
 41
1.0
 50
0.0
 71
0
 42
2.5
  3
OpenSansCondensed-LightItalic.ttf
  4

  0
STYLE
  5
4E
330
5
100
AcDbSymbolTableRecord
100
AcDbTextStyleTableRecord
  2
LiberationSans
 70
0
 40
0.0
 41
1.0
 50
0.0
 71
0
 42
2.5
  3
LiberationSans-Regular.ttf
  4

  0
STYLE
  5
4F
330
5
100
AcDbSymbolTableRecord
100
AcDbTextStyleTableRecord
  2
LiberationSans-Bold
 70
0
 40
0.0
 41
1.0
 50
0.0
 71
0
 42
2.5
  3
LiberationSans-Bold.ttf
  4

  0
STYLE
  5
50
330
5
100
AcDbSymbolTableRecord
100
AcDbTextStyleTableRecord
  2
LiberationSans-BoldItalic
 70
0
 40
0.0
 41
1.0
 50
0.0
 71
0
 42
2.5
  3
LiberationSans-BoldItalic.ttf
  4

  0
STYLE
  5
51
330
5
100
AcDbSymbolTableRecord
100
AcDbTextStyleTableRecord
  2
LiberationSans-Italic
 70
0
 40
0.0
 41
1.0
 50
0.0
 71
0
 42
2.5
  3
LiberationSans-Italic.ttf
  4

  0
STYLE
  5
52
330
5
100
AcDbSymbolTableRecord
100
AcDbTextStyleTableRecord
  2
LiberationSerif
 70
0
 40
0.0
 41
1.0
 50
0.0
 71
0
 42
2.5
  3
LiberationSerif-Regular.ttf
  4

  0
STYLE
  5
53
330
5
100
AcDbSymbolTableRecord
100
AcDbTextStyleTableRecord
  2
LiberationSerif-Bold
 70
0
 40
0.0
 41
1.0
 50
0.0
 71
0
 42
2.5
  3
LiberationSerif-Bold.ttf
  4

  0
STYLE
  5
54
330
5
100
AcDbSymbolTableRecord
100
AcDbTextStyleTableRecord
  2
LiberationSerif-BoldItalic
 70
0
 40
0.0
 41
1.0
 50
0.0
 71
0
 42
2.5
  3
LiberationSerif-BoldItalic.ttf
  4

  0
STYLE
  5
55
330
5
100
AcDbSymbolTableRecord
100
AcDbTextStyleTableRecord
  2
LiberationSerif-Italic
 70
0
 40
0.0
 41
1.0
 50
0.0
 71
0
 42
2.5
  3
LiberationSerif-Italic.ttf
  4

  0
STYLE
  5
56
330
5
100
AcDbSymbolTableRecord
100
AcDbTextStyleTableRecord
  2
LiberationMono
 70
0
 40
0.0
 41
1.0
 50
0.0
 71
0
 42
2.5
  3
LiberationMono-Regular.ttf
  4

  0
STYLE
  5
57
330
5
100
AcDbSymbolTableRecord
100
AcDbTextStyleTableRecord
  2
LiberationMono-Bold
 70
0
 40
0.0
 41
1.0
 50
0.0
 71
0
 42
2.5
  3
LiberationMono-Bold.ttf
  4

  0
STYLE
  5
58
330
5
100
AcDbSymbolTableRecord
100
AcDbTextStyleTableRecord
  2
LiberationMono-BoldItalic
 70
0
 40
0.0
 41
1.0
 50
0.0
 71
0
 42
2.5
  3
LiberationMono-BoldItalic.ttf
  4

  0
STYLE
  5
59
330
5
100
AcDbSymbolTableRecord
100
AcDbTextStyleTableRecord
  2
LiberationMono-Italic
 70
0
 40
0.0
 41
1.0
 50
0.0
 71
0
 42
2.5
  3
LiberationMono-Italic.ttf
  4

  0
ENDTAB
  0
TABLE
  2
VIEW
  5
7
330
0
100
AcDbSymbolTable
 70
0
  0
ENDTAB
  0
TABLE
  2
UCS
  5
6
330
0
100
AcDbSymbolTable
 70
0
  0
ENDTAB
  0
TABLE
  2
APPID
  5
3
330
0
100
AcDbSymbolTable
 70
3
  0
APPID
  5
2A
330
3
100
AcDbSymbolTableRecord
100
AcDbRegAppTableRecord
  2
ACAD
 70
0
  0
APPID
  5
A0
330
3
100
AcDbSymbolTableRecord
100
AcDbRegAppTableRecord
  2
HATCHBACKGROUNDCOLOR
 70
0
  0
APPID
  5
A1
330
3
100
AcDbSymbolTableRecord
100
AcDbRegAppTableRecord
  2
EZDXF
 70
0
  0
ENDTAB
  0
TABLE
  2
DIMSTYLE
  5
4
330
0
100
AcDbSymbolTable
 70
12
100
AcDbDimStyleTable
  0
DIMSTYLE
105
2B
330
4
100
AcDbSymbolTableRecord
100
AcDbDimStyleTableRecord
  2
Standard
 70
0
 40
1.0
 41
2.5
 42
0.625
 43
3.75
 44
1.25
 45
0.0
 46
0.0
 47
0.0
 48
0.0
 49
2.5
140
2.5
141
2.5
142
0.0
143
0.03937007874
144
1.0
145
0.0
146
1.0
147
0.625
148
0.0
 69
0
 70
0
 71
0
 72
0
 73
0
 74
0
 75
0
 76
0
 77
1
 78
8
 79
3
170
0
171
3
172
1
173
0
174
0
175
0
176
0
177
0
178
0
179
2
271
2
272
2
273
2
274
3
275
0
276
0
277
2
278
44
279
0
280
0
281
0
282
0
283
0
284
8
285
0
286
0
288
0
289
3
290
0
371
-2
372
-2
  0
DIMSTYLE
105
73
330
4
100
AcDbSymbolTableRecord
100
AcDbDimStyleTableRecord
  2
EZDXF
 70
0
 40
1.0
 41
0.175
 42
0.125
 43
3.75
 44
0.375
 45
0.0
 46
0.0
 47
0.0
 48
0.0
 49
2.5
140
0.25
141
2.5
142
0.0
143
0.03937007874
144
100.0
145
0.0
146
0.5
147
0.1
148
0.0
 69
0
 70
0
 71
0
 72
0
 73
0
 74
0
 75
0
 76
0
 77
1
 78
12
 79
3
170
0
171
3
172
1
173
0
174
0
175
0
176
0
177
0
178
0
179
2
271
2
272
2
273
2
274
3
275
0
276
0
277
2
278
46
279
2
280
0
281
0
282
0
283
0
284
8
285
0
286
0
288
1
289
3
290
0
340
4C
342
74
371
-2
372
-2
  0
DIMSTYLE
105
7C
330
4
100
AcDbSymbolTableRecord
100
AcDbDimStyleTableRecord
  2
EZ_M_100_H25_CM
 70
0
 40
1.0
 41
0.25
 42
0.125
 43
3.75
 44
0.375
 45
0.0
 46
0.0
 47
0.0
 48
0.0
 49
2.5
140
0.25
141
2.5
142
0.125
143
0.03937007874
144
100.0
145
0.0
146
0.5
147
0.1
148
0.0
 69
0
 70
0
 71
0
 72
0
 73
0
 74
0
 75
0
 76
0
 77
1
 78
12
 79
3
170
0
171
3
172
1
173
0
174
0
175
0
176
0
177
0
178
0
179
2
271
2
272
2
273
2
274
3
275
0
276
0
277
2
278
46
279
2
280
0
281
0
282
0
283
0
284
8
285
0
286
0
288
1
289
3
290
0
340
4C
371
-2
372
-2
  0
DIMSTYLE
105
7D
330
4
100
AcDbSymbolTableRecord
100
AcDbDimStyleTableRecord
  2
EZ_M_50_H25_CM
 70
0
 40
1.0
 41
0.125
 42
0.0625
 43
3.75
 44
0.1875
 45
0.0
 46
0.0
 47
0.0
 48
0.0
 49
2.5
140
0.125
141
2.5
142
0.0625
143
0.03937007874
144
100.0
145
0.0
146
0.5
147
0.05
148
0.0
 69
0
 70
0
 71
0
 72
0
 73
0
 74
0
 75
0
 76
0
 77
1
 78
12
 79
3
170
0
171
3
172
1
173
0
174
0
175
0
176
0
177
0
178
0
179
2
271
2
272
2
273
2
274
3
275
0
276
0
277
2
278
46
279
2
280
0
281
0
282
0
283
0
284
8
285
0
286
0
288
1
289
3
290
0
340
4C
371
-2
372
-2
  0
DIMSTYLE
105
7E
330
4
100
AcDbSymbolTableRecord
100
AcDbDimStyleTableRecord
  2
EZ_M_25_H25_CM
 70
0
 40
1.0
 41
0.0625
 42
0.03125
 43
3.75
 44
0.09375
 45
0.0
 46
0.0
 47
0.0
 48
0.0
 49
2.5
140
0.0625
141
2.5
142
0.03125
143
0.03937007874
144
100.0
145
0.0
146
0.5
147
0.025
148
0.0
 69
0
 70
0
 71
0
 72
0
 73
0
 74
0
 75
0
 76
0
 77
1
 78
12
 79
3
170
0
171
3
172
1
173
0
174
0
175
0
176
0
177
0
178
0
179
2
271
2
272
2
273
2
274
3
275
0
276
0
277
2
278
46
279
2
280
0
281
0
282
0
283
0
284
8
285
0
286
0
288
1
289
3
290
0
340
4C
371
-2
372
-2
  0
DIMSTYLE
105
7F
330
4
100
AcDbSymbolTableRecord
100
AcDbDimStyleTableRecord
  2
EZ_M_20_H25_CM
 70
0
 40
1.0
 41
0.05
 42
0.025
 43
3.75
 44
0.07500000000000001
 45
0.0
 46
0.0
 47
0.0
 48
0.0
 49
2.5
140
0.05
141
2.5
142
0.025
143
0.03937007874
144
100.0
145
0.0
146
0.5
147
0.020000000000000004
148
0.0
 69
0
 70
0
 71
0
 72
0
 73
0
 74
0
 75
0
 76
0
 77
1
 78
12
 79
3
170
0
171
3
172
1
173
0
174
0
175
0
176
0
177
0
178
0
179
2
271
2
272
2
273
2
274
3
275
0
276
0
277
2
278
46
279
2
280
0
281
0
282
0
283
0
284
8
285
0
286
0
288
1
289
3
290
0
340
4C
371
-2
372
-2
  0
DIMSTYLE
105
80
330
4
100
AcDbSymbolTableRecord
100
AcDbDimStyleTableRecord
  2
EZ_M_10_H25_CM
 70
0
 40
1.0
 41
0.025
 42
0.0125
 43
3.75
 44
0.037500000000000006
 45
0.0
 46
0.0
 47
0.0
 48
0.0
 49
2.5
140
0.025
141
2.5
142
0.0125
143
0.03937007874
144
100.0
145
0.0
146
0.5
147
0.010000000000000002
148
0.0
 69
0
 70
0
 71
0
 72
0
 73
0
 74
0
 75
0
 76
0
 77
1
 78
12
 79
3
170
0
171
3
172
1
173
0
174
0
175
0
176
0
177
0
178
0
179
2
271
2
272
2
273
2
274
3
275
0
276
0
277
2
278
46
279
2
280
0
281
0
282
0
283
0
284
8
285
0
286
0
288
1
289
3
290
0
340
4C
371
-2
372
-2
  0
DIMSTYLE
105
81
330
4
100
AcDbSymbolTableRecord
100
AcDbDimStyleTableRecord
  2
EZ_M_5_H25_CM
 70
0
 40
1.0
 41
0.0125
 42
0.00625
 43
3.75
 44
0.018750000000000003
 45
0.0
 46
0.0
 47
0.0
 48
0.0
 49
2.5
140
0.0125
141
2.5
142
0.00625
143
0.03937007874
144
100.0
145
0.0
146
0.5
147
0.005000000000000001
148
0.0
 69
0
 70
0
 71
0
 72
0
 73
0
 74
0
 75
0
 76
0
 77
1
 78
12
 79
3
170
0
171
3
172
1
173
0
174
0
175
0
176
0
177
0
178
0
179
2
271
2
272
2
273
2
274
3
275
0
276
0
277
2
278
46
279
2
280
0
281
0
282
0
283
0
284
8
285
0
286
0
288
1
289
3
290
0
340
4C
371
-2
372
-2
  0
DIMSTYLE
105
82
330
4
100
AcDbSymbolTableRecord
100
AcDbDimStyleTableRecord
  2
EZ_M_1_H25_CM
 70
0
 40
1.0
 41
0.0025
 42
0.00125
 43
3.75
 44
0.00375
 45
0.0
 46
0.0
 47
0.0
 48
0.0
 49
2.5
140
0.0025
141
2.5
142
0.00125
143
0.03937007874
144
100.0
145
0.0
146
0.5
147
0.001
148
0.0
 69
0
 70
0
 71
0
 72
0
 73
0
 74
0
 75
0
 76
0
 77
1
 78
12
 79
3
170
0
171
3
172
1
173
0
174
0
175
0
176
0
177
0
178
0
179
2
271
2
272
2
273
2
274
3
275
0
276
0
277
2
278
46
279
2
280
0
281
0
282
0
283
0
284
8
285
0
286
0
288
1
289
3
290
0
340
4C
371
-2
372
-2
  0
DIMSTYLE
105
83
330
4
100
AcDbSymbolTableRecord
100
AcDbDimStyleTableRecord
  2
EZ_RADIUS
 70
0
 40
1.0
 41
0.25
 42
0.125
 43
3.75
 44
0.375
 45
0.0
 46
0.0
 47
0.0
 48
0.0
 49
2.5
140
0.25
141
0.0
142
0.0
143
0.03937007874
144
100.0
145
0.0
146
0.5
147
0.1
148
0.0
 69
0
 70
0
 71
0
 72
0
 73
0
 74
0
 75
0
 76
0
 77
1
 78
12
 79
3
170
0
171
3
172
0
173
0
174
0
175
0
176
0
177
0
178
0
179
2
271
2
272
2
273
2
274
3
275
0
276
0
277
2
278
46
279
1
280
0
281
0
282
0
283
0
284
8
285
0
286
0
288
1
289
3
290
0
340
4C
342
84
371
-2
372
-2
  0
DIMSTYLE
105
88
330
4
100
AcDbSymbolTableRecord
100
AcDbDimStyleTableRecord
  2
EZ_RADIUS_INSIDE
 70
0
 40
1.0
 41
0.25
 42
0.125
 43
3.75
 44
0.375
 45
0.0
 46
0.0
 47
0.0
 48
0.0
 49
2.5
140
0.25
141
0.0
142
0.0
143
0.03937007874
144
100.0
145
0.0
146
0.5
147
0.1
148
0.0
 69
0
 70
0
 71
0
 72
0
 73
0
 74
0
 75
0
 76
0
 77
0
 78
12
 79
3
170
0
171
3
172
0
173
0
174
1
175
0
176
0
177
0
178
0
179
2
271
2
272
2
273
2
274
3
275
0
276
0
277
2
278
46
279
0
280
0
281
0
282
0
283
0
284
8
285
0
286
0
288
1
289
0
290
0
340
4C
342
84
371
-2
372
-2
  0
DIMSTYLE
105
89
330
4
100
AcDbSymbolTableRecord
100
AcDbDimStyleTableRecord
  2
EZ_CURVED
 70
0
 40
1.0
 41
0.25
 42
0.125
 43
3.75
 44
0.375
 45
0.0
 46
0.0
 47
0.0
 48
0.0
 49
2.5
140
0.25
141
2.5
142
0.0
143
0.03937007874
144
100.0
145
0.0
146
0.5
147
0.1
148
0.0
 69
0
 70
0
 71
0
 72
0
 73
0
 74
0
 75
0
 76
0
 77
1
 78
12
 79
2
 90
2
170
0
171
3
172
1
173
0
174
0
175
0
176
0
177
0
178
0
179
2
271
2
272
2
273
2
274
3
275
0
276
0
277
2
278
46
279
2
280
0
281
0
282
0
283
0
284
8
285
0
286
0
288
1
289
3
290
0
340
4C
371
-2
372
-2
  0
ENDTAB
  0
TABLE
  2
BLOCK_RECORD
  5
9
330
0
100
AcDbSymbolTable
 70
5
  0
BLOCK_RECORD
  5
17
330
9
100
AcDbSymbolTableRecord
100
AcDbBlockTableRecord
  2
*Model_Space
340
1A
 70
0
280
1
281
0
  0
BLOCK_RECORD
  5
1B
330
9
100
AcDbSymbolTableRecord
100
AcDbBlockTableRecord
  2
*Paper_Space
340
1E
 70
0
280
1
281
0
  0
BLOCK_RECORD
  5
74
330
9
100
AcDbSymbolTableRecord
100
AcDbBlockTableRecord
  2
_ARCHTICK
340
0
 70
0
280
1
281
0
  0
BLOCK_RECORD
  5
78
330
9
100
AcDbSymbolTableRecord
100
AcDbBlockTableRecord
  2
_CLOSEDFILLED
340
0
 70
0
280
1
281
0
  0
BLOCK_RECORD
  5
84
330
9
100
AcDbSymbolTableRecord
100
AcDbBlockTableRecord
  2
_CLOSEDBLANK
340
0
 70
0
280
1
281
0
  0
ENDTAB
  0
ENDSEC
  0
SECTION
  2
BLOCKS
  0
BLOCK
  5
18
330
17
100
AcDbEntity
  8
0
100
AcDbBlockBegin
  2
*Model_Space
 70
0
 10
0.0
 20
0.0
 30
0.0
  3
*Model_Space
  1

  0
ENDBLK
  5
19
330
17
100
AcDbEntity
  8
0
100
AcDbBlockEnd
  0
BLOCK
  5
1C
330
1B
100
AcDbEntity
  8
0
100
AcDbBlockBegin
  2
*Paper_Space
 70
0
 10
0.0
 20
0.0
 30
0.0
  3
*Paper_Space
  1

  0
ENDBLK
  5
1D
330
1B
100
AcDbEntity
  8
0
100
AcDbBlockEnd
  0
BLOCK
  5
75
330
74
100
AcDbEntity
  8
0
100
AcDbBlockBegin
  2
_ARCHTICK
 70
0
 10
0.0
 20
0.0
 30
0.0
  3
_ARCHTICK
  1

  0
LWPOLYLINE
  5
77
330
74
100
AcDbEntity
  8
0
  6
BYBLOCK
 62
0
100
AcDbPolyline
 90
2
 70
0
 43
0.15
 10
-0.5
 20
-0.5
 10
0.5
 20
0.5
  0
ENDBLK
  5
76
330
74
100
AcDbEntity
  8
0
100
AcDbBlockEnd
  0
BLOCK
  5
79
330
78
100
AcDbEntity
  8
0
100
AcDbBlockBegin
  2
_CLOSEDFILLED
 70
0
 10
0.0
 20
0.0
 30
0.0
  3
_CLOSEDFILLED
  1

  0
SOLID
  5
7B
330
78
100
AcDbEntity
  8
0
  6
BYBLOCK
 62
0
100
AcDbTrace
 10
-1.0
 20
0.16439898372402537
 30
0.0
 11
0.0
 21
0.0
 31
0.0
 12
-1.0
 22
-0.16439898372402537
 32
0.0
 13
-1.0
 23
-0.16439898372402537
 33
0.0
  0
ENDBLK
  5
7A
330
78
100
AcDbEntity
  8
0
100
AcDbBlockEnd
  0
BLOCK
  5
85
330
84
100
AcDbEntity
  8
0
100
AcDbBlockBegin
  2
_CLOSEDBLANK
 70
0
 10
0.0
 20
0.0
 30
0.0
  3
_CLOSEDBLANK
  1

  0
LWPOLYLINE
  5
87
330
84
100
AcDbEntity
  8
0
  6
BYBLOCK
 62
0
100
AcDbPolyline
 90
3
 70
1
 10
-1.0
 20
0.16439898372402537
 10
0.0
 20
0.0
 10
-1.0
 20
-0.16439898372402537
  0
ENDBLK
  5
86
330
84
100
AcDbEntity
  8
0
100
AcDbBlockEnd
  0
ENDSEC
  0
SECTION
  2
ENTITIES
  0
LWPOLYLINE
  5
8D
330
17
100
AcDbEntity
  8
LABEL
100
AcDbPolyline
 90
4
 70
1
 10
0.0
 20
297.12
 10
1371.6
 20
297.12
 10
1371.6
 20
0.0
 10
0.0
 20
0.0
  0
LWPOLYLINE
  5
8E
330
17
100
AcDbEntity
  8
CUT
100
AcDbPolyline
 90
234
 70
1
 10
410.99199999999996
 20
297.117
 10
405.313
 20
297.118
 10
401.061
 20
297.118
 10
396.831
 20
297.119
 10
392.346
 20
297.119
 10
387.884
 20
297.119
 10
382.977
 20
297.119
 10
378.097
 20
297.12
 10
372.647
 20
297.12
 10
367.226
 20
297.12
 10
363.181
 20
297.12
 10
359.167
 20
297.12
 10
355.154
 20
297.12
 10
350.698
 20
297.12
 10
346.277
 20
297.12
 10
341.85699999999997
 20
297.12
 10
337.007
 20
297.12
 10
332.196
 20
297.12
 10
327.385
 20
297.12
 10
322.177
 20
297.12
 10
317.01
 20
297.12
 10
311.844
 20
297.12
 10
306.327
 20
297.12
 10
300.85299999999995
 20
297.12
 10
295.379
 20
297.12
 10
289.611
 20
297.12
 10
283.889
 20
297.12
 10
278.16700000000003
 20
297.12
 10
272.21500000000003
 20
297.12
 10
266.311
 20
297.12
 10
260.406
 20
297.12
 10
255.846
 20
297.12
 10
251.333
 20
297.12
 10
246.821
 20
297.12
 10
242.309
 20
297.12
 10
237.72
 20
297.12
 10
233.17999999999998
 20
297.12
 10
228.64
 20
297.12
 10
224.1
 20
297.12
 10
215.027
 20
297.12
 10
210.515
 20
297.12
 10
206.003
 20
297.12
 10
200.051
 20
297.12
 10
194.14600000000002
 20
297.12
 10
188.24200000000002
 20
297.12
 10
182.474
 20
297.12
 10
176.752
 20
297.12
 10
171.02999999999997
 20
297.12
 10
165.512
 20
297.12
 10
160.038
 20
297.12
 10
154.565
 20
297.12
 10
149.35699999999997
 20
297.12
 10
144.19
 20
297.12
 10
139.024
 20
297.12
 10
134.17399999999998
 20
297.12
 10
129.363
 20
297.12
 10
124.55199999999996
 20
297.12
 10
120.096
 20
297.12
 10
115.67599999999999
 20
297.12
 10
111.255
 20
297.12
 10
107.209
 20
297.12
 10
103.19599999999997
 20
297.12
 10
99.18299999999999
 20
297.12
 10
93.733
 20
297.12
 10
88.31299999999999
 20
297.12
 10
83.406
 20
297.12
 10
78.52499999999998
 20
297.12
 10
74.03999999999996
 20
297.12
 10
69.57799999999997
 20
297.12
 10
65.32599999999996
 20
297.12
 10
61.09699999999998
 20
297.12
 10
55.40300000000002
 20
297.12
 10
49.70799999999997
 20
297.12
 10
44.01299999999998
 20
297.12
 10
38.317999999999984
 20
297.12
 10
32.62399999999997
 20
297.12
 10
26.928999999999974
 20
297.12
 10
21.23399999999998
 20
297.12
 10
15.341999999999985
 20
297.12
 10
10.045000000000016
 20
297.12
 10
9.063999999999965
 20
297.072
 10
8.093999999999994
 20
296.928
 10
7.141999999999996
 20
296.689
 10
6.218000000000018
 20
296.359
 10
5.331000000000017
 20
295.939
 10
4.488999999999976
 20
295.435
 10
3.700999999999965
 20
294.85
 10
2.9739999999999895
 20
294.19100000000003
 10
2.3149999999999977
 20
293.464
 10
1.7300000000000182
 20
292.676
 10
1.224999999999966
 20
291.834
 10
0.8059999999999832
 20
290.947
 10
0.4749999999999659
 20
290.023
 10
0.23699999999996635
 20
289.071
 10
0.09300000000001774
 20
288.1
 10
0.045000000000015916
 20
287.12
 10
0.045000000000015916
 20
281.551
 10
0.045000000000015916
 20
275.781
 10
0.045000000000015916
 20
270.012
 10
0.045000000000015916
 20
264.243
 10
0.045000000000015916
 20
258.473
 10
0.045000000000015916
 20
252.704
 10
0.045000000000015916
 20
246.935
 10
0.045000000000015916
 20
241.185
 10
0.022999999999967713
 20
235.615
 10
0.022999999999967713
 20
235.58100000000002
 10
0.021000000000015007
 20
229.83100000000002
 10
0.016000000000019554
 20
224.07999999999998
 10
0.009000000000014552
 20
218.325
 10
0.0
 20
212.563
 10
0.04599999999999227
 20
211.582
 10
0.18899999999996453
 20
210.611
 10
0.4259999999999877
 20
209.65800000000002
 10
0.7549999999999955
 20
208.733
 10
1.1739999999999782
 20
207.845
 10
1.676999999999964
 20
207.003
 10
2.2609999999999673
 20
206.21300000000002
 10
2.9189999999999827
 20
205.485
 10
3.644999999999982
 20
204.825
 10
4.432999999999993
 20
204.239
 10
5.274000000000001
 20
203.733
 10
6.161000000000001
 20
203.312
 10
7.0849999999999795
 20
202.98000000000002
 10
8.036999999999978
 20
202.74099999999999
 10
9.007999999999981
 20
202.595
 10
9.988
 20
202.546
 10
15.663999999999987
 20
202.539
 10
21.341999999999985
 20
202.534
 10
27.019999999999982
 20
202.531
 10
32.69900000000001
 20
202.52800000000002
 10
38.377999999999986
 20
202.526
 10
44.05799999999999
 20
202.524
 10
49.736999999999966
 20
202.52300000000002
 10
55.41699999999997
 20
202.522
 10
61.096000000000004
 20
202.52100000000002
 10
65.34800000000001
 20
202.52100000000002
 10
69.57799999999997
 20
202.52
 10
74.06299999999999
 20
202.52
 10
78.52499999999998
 20
202.52
 10
83.43200000000002
 20
202.519
 10
88.31200000000001
 20
202.519
 10
93.762
 20
202.519
 10
99.18299999999999
 20
202.519
 10
103.22800000000001
 20
202.519
 10
107.24200000000002
 20
202.519
 10
111.255
 20
202.519
 10
115.71100000000001
 20
202.519
 10
120.132
 20
202.519
 10
124.55199999999996
 20
202.519
 10
129.402
 20
202.519
 10
134.21299999999997
 20
202.519
 10
144.23199999999997
 20
202.519
 10
149.39799999999997
 20
202.519
 10
154.565
 20
202.519
 10
160.082
 20
202.519
 10
165.55599999999998
 20
202.519
 10
171.02999999999997
 20
202.519
 10
176.798
 20
202.519
 10
182.51999999999998
 20
202.519
 10
188.24200000000002
 20
202.519
 10
194.19400000000002
 20
202.519
 10
200.098
 20
202.519
 10
206.003
 20
202.519
 10
210.563
 20
202.519
 10
219.588
 20
202.519
 10
224.1
 20
202.519
 10
228.689
 20
202.519
 10
237.769
 20
202.519
 10
242.309
 20
202.519
 10
246.87
 20
202.519
 10
317.052
 20
202.519
 10
322.21799999999996
 20
202.519
 10
337.046
 20
202.519
 10
341.85699999999997
 20
202.519
 10
401.082
 20
202.519
 10
405.312
 20
202.519
 10
411.006
 20
202.519
 10
416.701
 20
202.519
 10
422.396
 20
202.519
 10
445.175
 20
202.519
 10
451.067
 20
202.519
 10
456.364
 20
202.519
 10
457.344
 20
202.567
 10
458.315
 20
202.711
 10
459.267
 20
202.95
 10
460.191
 20
203.28
 10
461.078
 20
203.7
 10
461.92
 20
204.204
 10
462.70799999999997
 20
204.789
 10
463.435
 20
205.448
 10
464.094
 20
206.175
 10
464.679
 20
206.96300000000002
 10
465.183
 20
207.805
 10
465.603
 20
208.692
 10
465.93399999999997
 20
209.61599999999999
 10
466.17199999999997
 20
210.56799999999998
 10
466.316
 20
211.539
 10
466.364
 20
212.519
 10
466.364
 20
218.08800000000002
 10
466.364
 20
223.858
 10
466.364
 20
229.627
 10
466.364
 20
235.39600000000002
 10
466.364
 20
241.166
 10
466.364
 20
252.704
 10
466.364
 20
258.454
 10
466.38599999999997
 20
264.024
 10
466.38599999999997
 20
264.057
 10
466.388
 20
269.808
 10
466.393
 20
275.559
 10
466.399
 20
281.314
 10
466.409
 20
287.076
 10
466.36199999999997
 20
288.057
 10
466.21999999999997
 20
289.028
 10
465.983
 20
289.981
 10
465.654
 20
290.90500000000003
 10
465.235
 20
291.794
 10
464.73199999999997
 20
292.636
 10
464.14799999999997
 20
293.426
 10
463.49
 20
294.154
 10
462.764
 20
294.814
 10
461.976
 20
295.4
 10
461.135
 20
295.906
 10
460.248
 20
296.327
 10
459.324
 20
296.659
 10
458.372
 20
296.898
 10
457.401
 20
297.044
 10
456.421
 20
297.093
 10
450.74399999999997
 20
297.1
 10
445.067
 20
297.105
 10
439.389
 20
297.108
 10
433.71
 20
297.111
 10
428.031
 20
297.113
 10
422.351
 20
297.115
 10
416.67199999999997
 20
297.116
  0
LWPOLYLINE
  5
8F
330
17
100
AcDbEntity
  8
STITCH
100
AcDbPolyline
 90
202
 70
1
 10
410.991
 20
287.117
 10
416.67
 20
287.116
 10
422.349
 20
287.115
 10
428.028
 20
287.113
 10
433.706
 20
287.111
 10
439.384
 20
287.108
 10
445.06
 20
287.105
 10
450.736
 20
287.1
 10
456.409
 20
287.093
 10
456.399
 20
281.32800000000003
 10
456.393
 20
275.569
 10
456.388
 20
269.814
 10
456.38599999999997
 20
264.062
 10
456.364
 20
258.473
 10
456.364
 20
252.704
 10
456.364
 20
246.935
 10
456.364
 20
241.16500000000002
 10
456.364
 20
235.39600000000002
 10
456.364
 20
229.627
 10
456.364
 20
223.858
 10
456.364
 20
218.08800000000002
 10
456.364
 20
212.519
 10
451.067
 20
212.519
 10
445.175
 20
212.519
 10
439.48
 20
212.519
 10
433.78499999999997
 20
212.519
 10
428.091
 20
212.519
 10
422.396
 20
212.519
 10
416.701
 20
212.519
 10
411.006
 20
212.519
 10
405.312
 20
212.519
 10
401.082
 20
212.519
 10
396.831
 20
212.519
 10
392.36899999999997
 20
212.519
 10
387.884
 20
212.519
 10
383.003
 20
212.519
 10
378.096
 20
212.519
 10
372.676
 20
212.519
 10
367.226
 20
212.519
 10
363.21299999999997
 20
212.519
 10
359.199
 20
212.519
 10
355.154
 20
212.519
 10
350.733
 20
212.519
 10
346.313
 20
212.519
 10
341.85699999999997
 20
212.519
 10
337.046
 20
212.519
 10
332.235
 20
212.519
 10
327.385
 20
212.519
 10
322.21799999999996
 20
212.519
 10
317.052
 20
212.519
 10
311.844
 20
212.519
 10
306.37
 20
212.519
 10
300.897
 20
212.519
 10
295.379
 20
212.519
 10
289.657
 20
212.519
 10
283.935
 20
212.519
 10
278.16700000000003
 20
212.519
 10
272.26300000000003
 20
212.519
 10
266.358
 20
212.519
 10
260.406
 20
212.519
 10
255.894
 20
212.519
 10
251.382
 20
212.519
 10
246.87
 20
212.519
 10
242.309
 20
212.519
 10
237.769
 20
212.519
 10
233.22899999999998
 20
212.519
 10
228.688
 20
212.519
 10
224.1
 20
212.519
 10
219.588
 20
212.519
 10
215.075
 20
212.519
 10
210.563
 20
212.519
 10
206.003
 20
212.519
 10
200.098
 20
212.519
 10
194.19400000000002
 20
212.519
 10
188.24200000000002
 20
212.519
 10
182.51999999999998
 20
212.519
 10
176.798
 20
212.519
 10
171.02999999999997
 20
212.519
 10
165.55599999999998
 20
212.519
 10
160.082
 20
212.519
 10
154.565
 20
212.519
 10
149.39799999999997
 20
212.519
 10
144.23199999999997
 20
212.519
 10
139.024
 20
212.519
 10
134.21299999999997
 20
212.519
 10
129.402
 20
212.519
 10
124.55199999999996
 20
212.519
 10
120.132
 20
212.519
 10
115.71100000000001
 20
212.519
 10
111.255
 20
212.519
 10
107.24200000000002
 20
212.519
 10
103.22800000000001
 20
212.519
 10
99.18299999999999
 20
212.519
 10
93.762
 20
212.519
 10
88.31299999999999
 20
212.519
 10
83.43200000000002
 20
212.519
 10
78.52499999999998
 20
212.52
 10
74.06399999999996
 20
212.52
 10
69.57799999999997
 20
212.52
 10
65.34899999999999
 20
212.52100000000002
 10
61.09699999999998
 20
212.52100000000002
 10
55.418000000000006
 20
212.522
 10
49.738999999999976
 20
212.52300000000002
 10
44.06
 20
212.524
 10
38.38099999999997
 20
212.526
 10
32.702999999999975
 20
212.52800000000002
 10
27.024999999999977
 20
212.531
 10
21.34899999999999
 20
212.534
 10
15.673000000000002
 20
212.539
 10
10.0
 20
212.546
 10
10.009000000000015
 20
218.311
 10
10.01600000000002
 20
224.07
 10
10.021000000000015
 20
229.825
 10
10.022999999999968
 20
235.577
 10
10.045000000000016
 20
241.16500000000002
 10
10.045000000000016
 20
246.935
 10
10.045000000000016
 20
252.704
 10
10.045000000000016
 20
258.473
 10
10.045000000000016
 20
264.243
 10
10.045000000000016
 20
270.012
 10
10.045000000000016
 20
275.781
 10
10.045000000000016
 20
281.551
 10
10.045000000000016
 20
287.12
 10
15.341999999999985
 20
287.12
 10
21.23399999999998
 20
287.12
 10
26.928999999999974
 20
287.12
 10
32.62399999999997
 20
287.12
 10
38.317999999999984
 20
287.12
 10
44.01299999999998
 20
287.12
 10
49.70799999999997
 20
287.12
 10
55.40300000000002
 20
287.12
 10
61.09699999999998
 20
287.12
 10
65.32599999999996
 20
287.12
 10
69.57799999999997
 20
287.12
 10
74.03999999999996
 20
287.12
 10
78.52499999999998
 20
287.12
 10
83.406
 20
287.12
 10
88.31299999999999
 20
287.12
 10
93.733
 20
287.12
 10
99.18299999999999
 20
287.12
 10
103.19599999999997
 20
287.12
 10
107.209
 20
287.12
 10
111.255
 20
287.12
 10
115.67599999999999
 20
287.12
 10
120.096
 20
287.12
 10
124.55199999999996
 20
287.12
 10
129.363
 20
287.12
 10
134.17399999999998
 20
287.12
 10
139.024
 20
287.12
 10
144.19
 20
287.12
 10
149.35699999999997
 20
287.12
 10
154.565
 20
287.12
 10
160.038
 20
287.12
 10
165.512
 20
287.12
 10
171.02999999999997
 20
287.12
 10
176.752
 20
287.12
 10
182.474
 20
287.12
 10
188.24200000000002
 20
287.12
 10
194.14600000000002
 20
287.12
 10
200.051
 20
287.12
 10
206.003
 20
287.12
 10
210.515
 20
287.12
 10
215.027
 20
287.12
 10
219.539
 20
287.12
 10
224.1
 20
287.12
 10
228.64
 20
287.12
 10
233.17999999999998
 20
287.12
 10
237.72
 20
287.12
 10
242.309
 20
287.12
 10
246.821
 20
287.12
 10
251.333
 20
287.12
 10
255.846
 20
287.12
 10
260.406
 20
287.12
 10
266.311
 20
287.12
 10
272.21500000000003
 20
287.12
 10
278.16700000000003
 20
287.12
 10
283.889
 20
287.12
 10
289.611
 20
287.12
 10
295.379
 20
287.12
 10
300.85299999999995
 20
287.12
 10
306.327
 20
287.12
 10
311.844
 20
287.12
 10
317.01
 20
287.12
 10
322.177
 20
287.12
 10
327.385
 20
287.12
 10
332.196
 20
287.12
 10
337.007
 20
287.12
 10
341.85699999999997
 20
287.12
 10
346.277
 20
287.12
 10
350.698
 20
287.12
 10
355.154
 20
287.12
 10
359.167
 20
287.12
 10
363.181
 20
287.12
 10
367.226
 20
287.12
 10
372.647
 20
287.12
 10
378.096
 20
287.12
 10
382.977
 20
287.119
 10
387.884
 20
287.119
 10
392.345
 20
287.119
 10
396.831
 20
287.119
 10
401.06
 20
287.118
 10
405.312
 20
287.118
  0
TEXT
  5
90
330
17
100
AcDbEntity
  8
LABEL
100
AcDbText
 10
233.2045
 20
249.8195
 30
0.0
 40
10.0
  1
A piece-1
 72
1
 11
233.2045
 21
249.8195
 31
0.0
100
AcDbText
 73
2
  0
LWPOLYLINE
  5
91
330
17
100
AcDbEntity
  8
CUT
100
AcDbPolyline
 90
984
 70
1
 10
0.0
 20
171.768
 10
0.0
 20
169.518
 10
0.04800000000000182
 20
168.537
 10
0.19200000000000728
 20
167.567
 10
0.43000000000006366
 20
166.615
 10
0.7609999999999673
 20
165.691
 10
1.1800000000000637
 20
164.804
 10
1.6849999999999454
 20
163.962
 10
2.269999999999982
 20
163.174
 10
2.92899999999986
 20
162.447
 10
3.655999999999949
 20
161.788
 10
4.44399999999996
 20
161.203
 10
5.286000000000058
 20
160.698
 10
6.173000000000002
 20
160.279
 10
7.09699999999998
 20
159.948
 10
8.048999999999978
 20
159.71
 10
9.019999999999982
 20
159.566
 10
10.0
 20
159.518
 10
12.14799999999991
 20
159.518
 10
14.297000000000025
 20
159.518
 10
16.444999999999936
 20
159.518
 10
18.592999999999847
 20
159.518
 10
20.741999999999962
 20
159.518
 10
22.889999999999873
 20
159.518
 10
25.038999999999987
 20
159.518
 10
27.186999999999898
 20
159.518
 10
29.336000000000013
 20
159.518
 10
31.483999999999924
 20
159.518
 10
33.63300000000004
 20
159.518
 10
35.78099999999995
 20
159.518
 10
37.92899999999986
 20
159.518
 10
40.077999999999975
 20
159.518
 10
42.225999999999885
 20
159.518
 10
44.375
 20
159.518
 10
46.52299999999991
 20
159.518
 10
48.672000000000025
 20
159.518
 10
50.819999999999936
 20
159.518
 10
52.96900000000005
 20
159.518
 10
55.11699999999996
 20
159.518
 10
57.26499999999987
 20
159.518
 10
59.41399999999999
 20
159.518
 10
61.5619999999999
 20
159.518
 10
63.71100000000001
 20
159.518
 10
65.85899999999992
 20
159.518
 10
68.00800000000004
 20
159.518
 10
70.15599999999995
 20
159.518
 10
72.30399999999986
 20
159.518
 10
74.45299999999997
 20
159.518
 10
76.60099999999989
 20
159.518
 10
78.75
 20
159.518
 10
80.89799999999991
 20
159.518
 10
83.04700000000003
 20
159.518
 10
85.19499999999994
 20
159.518
 10
87.34400000000005
 20
159.518
 10
89.49199999999996
 20
159.518
 10
91.63999999999987
 20
159.518
 10
93.78899999999999
 20
159.518
 10
95.9369999999999
 20
159.518
 10
98.0859999999999
 20
159.518
 10
100.23399999999992
 20
159.518
 10
102.38299999999992
 20
159.518
 10
106.67999999999995
 20
159.518
 10
108.82799999999997
 20
159.518
 10
110.976
 20
159.518
 10
113.125
 20
159.518
 10
115.27299999999991
 20
159.518
 10
117.42199999999991
 20
159.518
 10
119.56999999999994
 20
159.518
 10
121.71899999999994
 20
159.518
 10
123.86699999999996
 20
159.518
 10
126.01599999999996
 20
159.518
 10
128.164
 20
159.518
 10
130.3119999999999
 20
159.518
 10
132.4609999999999
 20
159.518
 10
134.60899999999992
 20
159.518
 10
136.75799999999992
 20
159.518
 10
138.90599999999995
 20
159.518
 10
141.05499999999995
 20
159.518
 10
143.20299999999997
 20
159.518
 10
145.35199999999998
 20
159.518
 10
147.5
 20
159.518
 10
149.6479999999999
 20
159.518
 10
151.7969999999999
 20
159.518
 10
153.94499999999994
 20
159.518
 10
156.09399999999994
 20
159.518
 10
158.24199999999996
 20
159.518
 10
160.39099999999996
 20
159.518
 10
162.539
 20
159.518
 10
164.688
 20
159.518
 10
166.8359999999999
 20
159.518
 10
168.98399999999992
 20
159.518
 10
171.13299999999992
 20
159.518
 10
173.28099999999995
 20
159.518
 10
175.42999999999995
 20
159.518
 10
177.57799999999997
 20
159.518
 10
179.72699999999998
 20
159.518
 10
181.875
 20
159.518
 10
184.0229999999999
 20
159.518
 10
186.1719999999999
 20
159.518
 10
188.31999999999994
 20
159.518
 10
190.46899999999994
 20
159.518
 10
192.61699999999996
 20
159.518
 10
194.76599999999996
 20
159.518
 10
196.914
 20
159.518
 10
199.063
 20
159.518
 10
201.2109999999999
 20
159.518
 10
203.35899999999992
 20
159.518
 10
205.50799999999992
 20
159.518
 10
207.65599999999995
 20
159.518
 10
209.80499999999995
 20
159.518
 10
211.95299999999997
 20
159.518
 10
214.10199999999998
 20
159.518
 10
216.25
 20
159.518
 10
218.399
 20
159.518
 10
220.5469999999999
 20
159.518
 10
222.69499999999994
 20
159.518
 10
224.84399999999994
 20
159.518
 10
226.99199999999996
 20
159.518
 10
229.14099999999996
 20
159.518
 10
231.289
 20
159.518
 10
233.438
 20
159.518
 10
235.5859999999999
 20
159.518
 10
237.7349999999999
 20
159.518
 10
239.88299999999992
 20
159.518
 10
242.03099999999995
 20
159.518
 10
244.17999999999995
 20
159.518
 10
246.32799999999997
 20
159.518
 10
248.47699999999998
 20
159.518
 10
250.625
 20
159.518
 10
252.774
 20
159.518
 10
254.9219999999999
 20
159.518
 10
257.06999999999994
 20
159.518
 10
259.21899999999994
 20
159.518
 10
261.36699999999996
 20
159.518
 10
263.51599999999996
 20
159.518
 10
265.664
 20
159.518
 10
269.9609999999999
 20
159.518
 10
272.1099999999999
 20
159.518
 10
274.2579999999999
 20
159.518
 10
276.40599999999995
 20
159.518
 10
278.55499999999995
 20
159.518
 10
280.703
 20
159.518
 10
282.852
 20
159.518
 10
285.0
 20
159.518
 10
287.149
 20
159.518
 10
289.2969999999999
 20
159.518
 10
291.4459999999999
 20
159.518
 10
293.59399999999994
 20
159.518
 10
295.74199999999996
 20
159.518
 10
297.89099999999996
 20
159.518
 10
300.039
 20
159.518
 10
302.188
 20
159.518
 10
304.3359999999999
 20
159.518
 10
306.4849999999999
 20
159.518
 10
308.6329999999999
 20
159.518
 10
310.7819999999999
 20
159.518
 10
312.92999999999995
 20
159.518
 10
315.078
 20
159.518
 10
317.227
 20
159.518
 10
319.375
 20
159.518
 10
321.524
 20
159.518
 10
323.6719999999999
 20
159.518
 10
325.8209999999999
 20
159.518
 10
327.96899999999994
 20
159.518
 10
330.11699999999996
 20
159.518
 10
332.26599999999996
 20
159.518
 10
334.414
 20
159.518
 10
336.563
 20
159.518
 10
338.7109999999999
 20
159.518
 10
340.8599999999999
 20
159.518
 10
343.0079999999999
 20
159.518
 10
347.30499999999995
 20
159.518
 10
349.453
 20
159.518
 10
351.602
 20
159.518
 10
353.75
 20
159.518
 10
355.899
 20
159.518
 10
358.0469999999999
 20
159.518
 10
360.1959999999999
 20
159.518
 10
362.34399999999994
 20
159.518
 10
364.49299999999994
 20
159.518
 10
366.64099999999996
 20
159.518
 10
368.789
 20
159.518
 10
370.938
 20
159.518
 10
373.0859999999999
 20
159.518
 10
375.2349999999999
 20
159.518
 10
377.3829999999999
 20
159.518
 10
379.5319999999999
 20
159.518
 10
381.67999999999995
 20
159.518
 10
383.82899999999995
 20
159.518
 10
385.977
 20
159.518
 10
390.274
 20
159.518
 10
392.4219999999999
 20
159.518
 10
394.5709999999999
 20
159.518
 10
396.71899999999994
 20
159.518
 10
398.86799999999994
 20
159.518
 10
401.01599999999996
 20
159.518
 10
403.16499999999996
 20
159.518
 10
405.313
 20
159.518
 10
407.4609999999999
 20
159.518
 10
409.6099999999999
 20
159.518
 10
411.7579999999999
 20
159.518
 10
413.9069999999999
 20
159.518
 10
416.05499999999995
 20
159.518
 10
418.20399999999995
 20
159.518
 10
420.352
 20
159.518
 10
422.501
 20
159.518
 10
424.649
 20
159.518
 10
426.7969999999999
 20
159.518
 10
428.9459999999999
 20
159.518
 10
431.09399999999994
 20
159.518
 10
433.24299999999994
 20
159.518
 10
435.39099999999996
 20
159.518
 10
437.53999999999996
 20
159.518
 10
439.688
 20
159.518
 10
441.837
 20
159.518
 10
443.9849999999999
 20
159.518
 10
446.1329999999999
 20
159.518
 10
448.2819999999999
 20
159.518
 10
450.42999999999995
 20
159.518
 10
452.57899999999995
 20
159.518
 10
454.727
 20
159.518
 10
456.876
 20
159.518
 10
459.024
 20
159.518
 10
461.173
 20
159.518
 10
463.3209999999999
 20
159.518
 10
465.46899999999994
 20
159.518
 10
467.61799999999994
 20
159.518
 10
469.76599999999996
 20
159.518
 10
471.91499999999996
 20
159.518
 10
474.063
 20
159.518
 10
476.212
 20
159.518
 10
478.3599999999999
 20
159.518
 10
480.5089999999999
 20
159.518
 10
482.6569999999999
 20
159.518
 10
484.80499999999995
 20
159.518
 10
486.95399999999995
 20
159.518
 10
489.102
 20
159.518
 10
491.251
 20
159.518
 10
493.399
 20
159.518
 10
495.548
 20
159.518
 10
497.6959999999999
 20
159.518
 10
499.84399999999994
 20
159.518
 10
501.99299999999994
 20
159.518
 10
504.14099999999996
 20
159.518
 10
506.28999999999996
 20
159.518
 10
510.587
 20
159.518
 10
512.7349999999999
 20
159.518
 10
514.8839999999999
 20
159.518
 10
517.0319999999999
 20
159.518
 10
519.18
 20
159.518
 10
521.329
 20
159.518
 10
523.477
 20
159.518
 10
525.626
 20
159.518
 10
527.774
 20
159.518
 10
529.923
 20
159.518
 10
532.0709999999999
 20
159.518
 10
534.2199999999999
 20
159.518
 10
536.3679999999999
 20
159.518
 10
538.516
 20
159.518
 10
540.665
 20
159.518
 10
542.813
 20
159.518
 10
544.962
 20
159.518
 10
547.1099999999999
 20
159.518
 10
549.2589999999999
 20
159.518
 10
553.555
 20
159.518
 10
555.704
 20
159.518
 10
557.852
 20
159.518
 10
560.001
 20
159.518
 10
562.149
 20
159.518
 10
564.298
 20
159.518
 10
566.4459999999999
 20
159.518
 10
568.5949999999999
 20
159.518
 10
570.7429999999999
 20
159.518
 10
572.8919999999999
 20
159.518
 10
575.04
 20
159.518
 10
577.188
 20
159.518
 10
579.337
 20
159.518
 10
581.4849999999999
 20
159.518
 10
583.6339999999999
 20
159.518
 10
585.7819999999999
 20
159.518
 10
587.9309999999999
 20
159.518
 10
590.079
 20
159.518
 10
592.227
 20
159.518
 10
594.376
 20
159.518
 10
596.524
 20
159.518
 10
598.673
 20
159.518
 10
600.8209999999999
 20
159.518
 10
602.9699999999999
 20
159.518
 10
605.1179999999999
 20
159.518
 10
607.2669999999999
 20
159.518
 10
609.415
 20
159.518
 10
611.5629999999999
 20
159.518
 10
613.712
 20
159.518
 10
615.8599999999999
 20
159.518
 10
618.009
 20
159.518
 10
620.1569999999999
 20
159.518
 10
622.3059999999999
 20
159.518
 10
624.454
 20
159.518
 10
626.603
 20
159.518
 10
628.751
 20
159.518
 10
630.8989999999999
 20
159.518
 10
633.048
 20
159.518
 10
635.1959999999999
 20
159.518
 10
637.345
 20
159.518
 10
639.4929999999999
 20
159.518
 10
641.6419999999999
 20
159.518
 10
645.939
 20
159.518
 10
648.087
 20
159.518
 10
650.2349999999999
 20
159.518
 10
652.384
 20
159.518
 10
654.5319999999999
 20
159.518
 10
656.6809999999999
 20
159.518
 10
658.829
 20
159.518
 10
660.978
 20
159.518
 10
663.126
 20
159.518
 10
665.275
 20
159.518
 10
667.423
 20
159.518
 10
669.5709999999999
 20
159.518
 10
671.72
 20
159.518
 10
673.8679999999999
 20
159.518
 10
676.0169999999999
 20
159.518
 10
678.165
 20
159.518
 10
680.314
 20
159.518
 10
682.462
 20
159.518
 10
684.6099999999999
 20
159.518
 10
686.759
 20
159.518
 10
688.9069999999999
 20
159.518
 10
691.0559999999999
 20
159.518
 10
693.204
 20
159.518
 10
695.353
 20
159.518
 10
697.501
 20
159.518
 10
699.65
 20
159.518
 10
701.798
 20
159.518
 10
703.9459999999999
 20
159.518
 10
706.095
 20
159.518
 10
708.2429999999999
 20
159.518
 10
710.3919999999999
 20
159.519
 10
712.54
 20
159.519
 10
714.689
 20
159.519
 10
716.837
 20
159.519
 10
718.9849999999999
 20
159.519
 10
721.134
 20
159.519
 10
723.2819999999999
 20
159.519
 10
725.4309999999999
 20
159.519
 10
727.579
 20
159.519
 10
729.728
 20
159.519
 10
731.876
 20
159.519
 10
734.025
 20
159.519
 10
736.173
 20
159.519
 10
738.3209999999999
 20
159.519
 10
740.47
 20
159.519
 10
742.6179999999999
 20
159.519
 10
744.7669999999999
 20
159.519
 10
746.915
 20
159.519
 10
749.064
 20
159.519
 10
751.212
 20
159.519
 10
753.3609999999999
 20
159.519
 10
755.509
 20
159.519
 10
757.6569999999999
 20
159.519
 10
759.8059999999999
 20
159.519
 10
761.954
 20
159.519
 10
764.103
 20
159.519
 10
766.251
 20
159.519
 10
768.4
 20
159.519
 10
770.548
 20
159.519
 10
772.6969999999999
 20
159.519
 10
774.845
 20
159.519
 10
776.9929999999999
 20
159.519
 10
779.1419999999999
 20
159.519
 10
781.29
 20
159.519
 10
783.439
 20
159.519
 10
785.587
 20
159.519
 10
787.7359999999999
 20
159.519
 10
789.884
 20
159.519
 10
794.1809999999999
 20
159.519
 10
796.329
 20
159.519
 10
798.478
 20
159.519
 10
800.626
 20
159.519
 10
802.775
 20
159.519
 10
804.923
 20
159.519
 10
807.0719999999999
 20
159.519
 10
809.22
 20
159.519
 10
811.3689999999999
 20
159.519
 10
813.5169999999999
 20
159.519
 10
815.665
 20
159.519
 10
817.814
 20
159.519
 10
819.962
 20
159.519
 10
822.1109999999999
 20
159.519
 10
824.259
 20
159.519
 10
826.4079999999999
 20
159.519
 10
828.5559999999999
 20
159.519
 10
830.7049999999999
 20
159.519
 10
832.853
 20
159.519
 10
835.001
 20
159.519
 10
837.15
 20
159.519
 10
839.298
 20
159.519
 10
841.4469999999999
 20
159.519
 10
843.595
 20
159.519
 10
845.7439999999999
 20
159.519
 10
847.8919999999999
 20
159.519
 10
850.0409999999999
 20
159.519
 10
852.189
 20
159.519
 10
856.4859999999999
 20
159.519
 10
858.634
 20
159.519
 10
860.7829999999999
 20
159.519
 10
862.9309999999999
 20
159.519
 10
865.0799999999999
 20
159.519
 10
867.228
 20
159.519
 10
869.376
 20
159.519
 10
871.525
 20
159.519
 10
873.673
 20
159.519
 10
875.8219999999999
 20
159.519
 10
877.9699999999999
 20
159.519
 10
880.1189999999999
 20
159.519
 10
882.2669999999999
 20
159.519
 10
884.4159999999999
 20
159.519
 10
886.564
 20
159.519
 10
888.712
 20
159.519
 10
890.861
 20
159.519
 10
893.009
 20
159.519
 10
895.1579999999999
 20
159.519
 10
897.3059999999999
 20
159.519
 10
899.4549999999999
 20
159.519
 10
901.603
 20
159.519
 10
903.752
 20
159.519
 10
905.9
 20
159.519
 10
908.048
 20
159.519
 10
910.1969999999999
 20
159.519
 10
912.3449999999999
 20
159.519
 10
914.4939999999999
 20
159.519
 10
916.6419999999999
 20
159.519
 10
918.7909999999999
 20
159.519
 10
920.939
 20
159.519
 10
923.088
 20
159.519
 10
925.236
 20
159.519
 10
927.384
 20
159.519
 10
929.5329999999999
 20
159.519
 10
931.6809999999999
 20
159.519
 10
933.8299999999999
 20
159.519
 10
935.978
 20
159.519
 10
938.127
 20
159.519
 10
940.275
 20
159.519
 10
942.424
 20
159.519
 10
944.5719999999999
 20
159.519
 10
946.7199999999999
 20
159.519
 10
948.8689999999999
 20
159.519
 10
951.0169999999999
 20
159.519
 10
953.1659999999999
 20
159.519
 10
955.314
 20
159.519
 10
957.463
 20
159.519
 10
959.611
 20
159.519
 10
961.76
 20
159.519
 10
963.9079999999999
 20
159.519
 10
966.0559999999999
 20
159.519
 10
968.2049999999999
 20
159.519
 10
972.502
 20
159.519
 10
974.65
 20
159.519
 10
976.799
 20
159.519
 10
978.9469999999999
 20
159.519
 10
981.096
 20
159.519
 10
983.2439999999999
 20
159.519
 10
985.3919999999999
 20
159.519
 10
987.5409999999999
 20
159.519
 10
989.689
 20
159.519
 10
991.838
 20
159.519
 10
993.986
 20
159.519
 10
996.135
 20
159.519
 10
998.2829999999999
 20
159.519
 10
1000.4309999999999
 20
159.519
 10
1002.5799999999999
 20
159.519
 10
1004.728
 20
159.519
 10
1006.877
 20
159.519
 10
1009.025
 20
159.519
 10
1011.174
 20
159.519
 10
1013.3219999999999
 20
159.519
 10
1015.471
 20
159.519
 10
1017.6189999999999
 20
159.519
 10
1019.7679999999999
 20
159.519
 10
1021.9159999999999
 20
159.519
 10
1024.0639999999999
 20
159.519
 10
1026.213
 20
159.519
 10
1028.3609999999999
 20
159.519
 10
1030.51
 20
159.519
 10
1032.658
 20
159.519
 10
1034.807
 20
159.519
 10
1036.955
 20
159.519
 10
1039.103
 20
159.519
 10
1041.252
 20
159.519
 10
1043.3999999999999
 20
159.519
 10
1045.549
 20
159.519
 10
1047.697
 20
159.519
 10
1049.846
 20
159.519
 10
1051.994
 20
159.519
 10
1054.143
 20
159.519
 10
1056.291
 20
159.519
 10
1058.4389999999999
 20
159.519
 10
1060.588
 20
159.519
 10
1062.7359999999999
 20
159.519
 10
1064.885
 20
159.519
 10
1067.033
 20
159.519
 10
1069.182
 20
159.519
 10
1071.33
 20
159.519
 10
1073.479
 20
159.519
 10
1075.627
 20
159.519
 10
1077.7749999999999
 20
159.519
 10
1079.924
 20
159.519
 10
1082.072
 20
159.519
 10
1084.221
 20
159.519
 10
1086.369
 20
159.519
 10
1088.518
 20
159.519
 10
1092.815
 20
159.519
 10
1094.963
 20
159.519
 10
1097.1109999999999
 20
159.519
 10
1099.26
 20
159.519
 10
1101.408
 20
159.519
 10
1103.557
 20
159.519
 10
1105.705
 20
159.519
 10
1107.854
 20
159.519
 10
1110.002
 20
159.519
 10
1110.982
 20
159.567
 10
1111.953
 20
159.711
 10
1112.905
 20
159.95
 10
1113.829
 20
160.28
 10
1114.716
 20
160.7
 10
1115.558
 20
161.204
 10
1116.346
 20
161.78900000000002
 10
1117.0729999999999
 20
162.448
 10
1117.732
 20
163.175
 10
1118.317
 20
163.96300000000002
 10
1118.821
 20
164.805
 10
1119.241
 20
165.692
 10
1119.571
 20
166.616
 10
1119.81
 20
167.568
 10
1119.954
 20
168.53900000000002
 10
1120.002
 20
169.519
 10
1120.002
 20
187.519
 10
1119.954
 20
188.49900000000002
 10
1119.81
 20
189.47
 10
1119.571
 20
190.42200000000003
 10
1119.241
 20
191.346
 10
1118.821
 20
192.233
 10
1118.317
 20
193.075
 10
1117.732
 20
193.863
 10
1117.0729999999999
 20
194.59
 10
1116.346
 20
195.24900000000002
 10
1115.558
 20
195.834
 10
1114.716
 20
196.33800000000002
 10
1113.829
 20
196.758
 10
1112.905
 20
197.08800000000002
 10
1111.953
 20
197.327
 10
1110.982
 20
197.471
 10
1110.002
 20
197.519
 10
1107.854
 20
197.519
 10
1105.705
 20
197.519
 10
1103.557
 20
197.519
 10
1094.963
 20
197.519
 10
1092.815
 20
197.519
 10
1088.518
 20
197.519
 10
1086.369
 20
197.519
 10
1082.072
 20
197.519
 10
1079.924
 20
197.519
 10
1077.7749999999999
 20
197.519
 10
1075.627
 20
197.519
 10
1073.479
 20
197.519
 10
1071.33
 20
197.519
 10
1069.182
 20
197.519
 10
1067.033
 20
197.519
 10
1064.885
 20
197.519
 10
1062.7359999999999
 20
197.519
 10
1060.588
 20
197.519
 10
1058.4389999999999
 20
197.519
 10
1056.291
 20
197.519
 10
1054.143
 20
197.519
 10
1051.994
 20
197.519
 10
1049.846
 20
197.519
 10
1047.697
 20
197.519
 10
1045.549
 20
197.519
 10
1043.3999999999999
 20
197.519
 10
1041.252
 20
197.519
 10
1036.955
 20
197.519
 10
1034.807
 20
197.519
 10
1030.51
 20
197.519
 10
1028.3609999999999
 20
197.519
 10
1026.213
 20
197.519
 10
1024.0639999999999
 20
197.519
 10
1021.9159999999999
 20
197.519
 10
1019.7669999999999
 20
197.519
 10
1017.6189999999999
 20
197.519
 10
1013.3219999999999
 20
197.519
 10
1011.174
 20
197.519
 10
1009.025
 20
197.519
 10
1004.728
 20
197.519
 10
1002.5799999999999
 20
197.519
 10
1000.4309999999999
 20
197.519
 10
998.2829999999999
 20
197.519
 10
996.135
 20
197.519
 10
993.986
 20
197.519
 10
991.838
 20
197.519
 10
985.3919999999999
 20
197.519
 10
983.2439999999999
 20
197.519
 10
981.0949999999999
 20
197.519
 10
978.9469999999999
 20
197.519
 10
976.799
 20
197.519
 10
974.65
 20
197.519
 10
972.502
 20
197.519
 10
968.2049999999999
 20
197.519
 10
966.0559999999999
 20
197.519
 10
961.76
 20
197.519
 10
959.611
 20
197.519
 10
955.314
 20
197.519
 10
953.1659999999999
 20
197.519
 10
951.0169999999999
 20
197.519
 10
948.8689999999999
 20
197.519
 10
946.7199999999999
 20
197.519
 10
944.5719999999999
 20
197.519
 10
942.423
 20
197.519
 10
940.275
 20
197.519
 10
935.978
 20
197.519
 10
933.8299999999999
 20
197.519
 10
931.6809999999999
 20
197.519
 10
929.5329999999999
 20
197.519
 10
927.384
 20
197.519
 10
925.236
 20
197.519
 10
923.088
 20
197.519
 10
920.939
 20
197.519
 10
916.6419999999999
 20
197.519
 10
914.4939999999999
 20
197.519
 10
912.3449999999999
 20
197.519
 10
910.1969999999999
 20
197.519
 10
908.048
 20
197.519
 10
905.9
 20
197.519
 10
903.752
 20
197.519
 10
901.603
 20
197.519
 10
899.4549999999999
 20
197.519
 10
897.3059999999999
 20
197.519
 10
895.1579999999999
 20
197.519
 10
893.009
 20
197.519
 10
890.861
 20
197.519
 10
888.712
 20
197.519
 10
886.564
 20
197.519
 10
884.4159999999999
 20
197.519
 10
882.2669999999999
 20
197.519
 10
880.1189999999999
 20
197.519
 10
875.8219999999999
 20
197.519
 10
873.673
 20
197.519
 10
871.525
 20
197.519
 10
869.376
 20
197.519
 10
867.228
 20
197.519
 10
865.0799999999999
 20
197.519
 10
862.9309999999999
 20
197.519
 10
860.7829999999999
 20
197.519
 10
858.634
 20
197.519
 10
856.4859999999999
 20
197.519
 10
852.189
 20
197.519
 10
850.04
 20
197.519
 10
847.8919999999999
 20
197.519
 10
845.7439999999999
 20
197.519
 10
841.4469999999999
 20
197.519
 10
839.298
 20
197.519
 10
832.853
 20
197.519
 10
830.7049999999999
 20
197.519
 10
828.5559999999999
 20
197.519
 10
826.4079999999999
 20
197.519
 10
824.259
 20
197.519
 10
822.1109999999999
 20
197.519
 10
819.962
 20
197.519
 10
817.814
 20
197.519
 10
815.665
 20
197.519
 10
813.5169999999999
 20
197.519
 10
811.3679999999999
 20
197.519
 10
809.22
 20
197.519
 10
807.0719999999999
 20
197.519
 10
804.923
 20
197.519
 10
802.775
 20
197.519
 10
800.626
 20
197.519
 10
798.478
 20
197.519
 10
796.329
 20
197.519
 10
794.1809999999999
 20
197.519
 10
789.884
 20
197.519
 10
787.7359999999999
 20
197.519
 10
783.439
 20
197.519
 10
781.29
 20
197.519
 10
779.1419999999999
 20
197.519
 10
776.9929999999999
 20
197.519
 10
774.845
 20
197.519
 10
772.6969999999999
 20
197.519
 10
770.548
 20
197.519
 10
768.4
 20
197.519
 10
764.103
 20
197.519
 10
761.954
 20
197.519
 10
759.8059999999999
 20
197.519
 10
757.6569999999999
 20
197.519
 10
755.509
 20
197.519
 10
753.3609999999999
 20
197.519
 10
751.212
 20
197.519
 10
749.064
 20
197.519
 10
746.915
 20
197.519
 10
744.7669999999999
 20
197.519
 10
742.6179999999999
 20
197.519
 10
738.3209999999999
 20
197.519
 10
736.173
 20
197.519
 10
731.876
 20
197.519
 10
729.728
 20
197.519
 10
727.579
 20
197.519
 10
725.4309999999999
 20
197.519
 10
723.2819999999999
 20
197.519
 10
721.134
 20
197.519
 10
718.9849999999999
 20
197.519
 10
716.837
 20
197.519
 10
712.54
 20
197.519
 10
710.3919999999999
 20
197.519
 10
706.095
 20
197.519
 10
703.9459999999999
 20
197.519
 10
701.798
 20
197.519
 10
699.65
 20
197.519
 10
697.501
 20
197.519
 10
695.353
 20
197.518
 10
693.204
 20
197.518
 10
691.0559999999999
 20
197.518
 10
686.759
 20
197.518
 10
684.6099999999999
 20
197.518
 10
682.462
 20
197.518
 10
680.314
 20
197.518
 10
678.165
 20
197.518
 10
676.0169999999999
 20
197.518
 10
673.8679999999999
 20
197.518
 10
671.72
 20
197.518
 10
669.5709999999999
 20
197.518
 10
667.423
 20
197.518
 10
665.2739999999999
 20
197.518
 10
658.829
 20
197.518
 10
656.6809999999999
 20
197.518
 10
654.5319999999999
 20
197.518
 10
652.384
 20
197.518
 10
650.2349999999999
 20
197.518
 10
648.087
 20
197.518
 10
645.939
 20
197.518
 10
643.79
 20
197.518
 10
641.6419999999999
 20
197.518
 10
639.4929999999999
 20
197.518
 10
637.345
 20
197.518
 10
635.1959999999999
 20
197.518
 10
633.048
 20
197.518
 10
628.751
 20
197.518
 10
626.603
 20
197.518
 10
624.454
 20
197.518
 10
622.3059999999999
 20
197.518
 10
620.1569999999999
 20
197.518
 10
618.009
 20
197.518
 10
615.8599999999999
 20
197.518
 10
613.712
 20
197.518
 10
611.5629999999999
 20
197.518
 10
609.415
 20
197.518
 10
607.2669999999999
 20
197.518
 10
605.1179999999999
 20
197.518
 10
602.9699999999999
 20
197.518
 10
600.8209999999999
 20
197.518
 10
598.673
 20
197.518
 10
596.524
 20
197.518
 10
592.227
 20
197.518
 10
590.079
 20
197.518
 10
587.9309999999999
 20
197.518
 10
585.7819999999999
 20
197.518
 10
583.6339999999999
 20
197.518
 10
581.4849999999999
 20
197.518
 10
579.337
 20
197.518
 10
572.891
 20
197.518
 10
570.7429999999999
 20
197.518
 10
566.4459999999999
 20
197.518
 10
564.298
 20
197.518
 10
557.852
 20
197.518
 10
555.704
 20
197.518
 10
553.555
 20
197.518
 10
549.2589999999999
 20
197.518
 10
547.1099999999999
 20
197.518
 10
544.962
 20
197.518
 10
542.813
 20
197.518
 10
540.665
 20
197.518
 10
538.516
 20
197.518
 10
536.3679999999999
 20
197.518
 10
534.2189999999999
 20
197.518
 10
532.0709999999999
 20
197.518
 10
529.923
 20
197.518
 10
527.774
 20
197.518
 10
523.477
 20
197.518
 10
521.329
 20
197.518
 10
519.18
 20
197.518
 10
514.8839999999999
 20
197.518
 10
512.7349999999999
 20
197.518
 10
510.587
 20
197.518
 10
506.28999999999996
 20
197.518
 10
504.14099999999996
 20
197.518
 10
501.99299999999994
 20
197.518
 10
497.6959999999999
 20
197.518
 10
495.548
 20
197.518
 10
493.399
 20
197.518
 10
491.251
 20
197.518
 10
489.102
 20
197.518
 10
480.5079999999999
 20
197.518
 10
478.3599999999999
 20
197.518
 10
476.212
 20
197.518
 10
471.91499999999996
 20
197.518
 10
469.76599999999996
 20
197.518
 10
467.61799999999994
 20
197.518
 10
463.3209999999999
 20
197.518
 10
461.1719999999999
 20
197.518
 10
459.024
 20
197.518
 10
456.876
 20
197.518
 10
454.727
 20
197.518
 10
452.57899999999995
 20
197.518
 10
450.42999999999995
 20
197.518
 10
446.1329999999999
 20
197.518
 10
443.9849999999999
 20
197.518
 10
441.8359999999999
 20
197.518
 10
437.53999999999996
 20
197.518
 10
435.39099999999996
 20
197.518
 10
433.24299999999994
 20
197.518
 10
428.9459999999999
 20
197.518
 10
426.7969999999999
 20
197.518
 10
424.649
 20
197.518
 10
420.352
 20
197.518
 10
418.20399999999995
 20
197.518
 10
416.05499999999995
 20
197.518
 10
413.9069999999999
 20
197.518
 10
411.7579999999999
 20
197.518
 10
407.4609999999999
 20
197.518
 10
405.313
 20
197.518
 10
403.16499999999996
 20
197.518
 10
401.01599999999996
 20
197.518
 10
398.86799999999994
 20
197.518
 10
394.5709999999999
 20
197.518
 10
392.4219999999999
 20
197.518
 10
390.274
 20
197.518
 10
385.977
 20
197.518
 10
383.82899999999995
 20
197.518
 10
381.67999999999995
 20
197.518
 10
377.3829999999999
 20
197.518
 10
375.2349999999999
 20
197.518
 10
373.0859999999999
 20
197.518
 10
370.938
 20
197.518
 10
368.789
 20
197.518
 10
366.64099999999996
 20
197.518
 10
364.49299999999994
 20
197.518
 10
362.34399999999994
 20
197.518
 10
360.1959999999999
 20
197.518
 10
355.899
 20
197.518
 10
353.75
 20
197.518
 10
351.602
 20
197.518
 10
349.453
 20
197.518
 10
347.30499999999995
 20
197.518
 10
343.0079999999999
 20
197.518
 10
340.8599999999999
 20
197.518
 10
338.7109999999999
 20
197.518
 10
336.563
 20
197.518
 10
334.414
 20
197.518
 10
332.26599999999996
 20
197.518
 10
330.11699999999996
 20
197.518
 10
325.8209999999999
 20
197.518
 10
323.6719999999999
 20
197.518
 10
321.524
 20
197.518
 10
317.227
 20
197.518
 10
315.078
 20
197.518
 10
312.92999999999995
 20
197.518
 10
310.78099999999995
 20
197.518
 10
308.6329999999999
 20
197.518
 10
304.3359999999999
 20
197.518
 10
302.188
 20
197.518
 10
300.039
 20
197.518
 10
297.89099999999996
 20
197.518
 10
295.74199999999996
 20
197.518
 10
291.4459999999999
 20
197.518
 10
289.2969999999999
 20
197.518
 10
287.149
 20
197.518
 10
285.0
 20
197.518
 10
282.852
 20
197.518
 10
274.2579999999999
 20
197.518
 10
272.1099999999999
 20
197.518
 10
267.813
 20
197.518
 10
265.664
 20
197.518
 10
263.51599999999996
 20
197.518
 10
261.36699999999996
 20
197.518
 10
254.9219999999999
 20
197.518
 10
252.774
 20
197.518
 10
250.625
 20
197.518
 10
248.47699999999998
 20
197.518
 10
246.32799999999997
 20
197.518
 10
244.17999999999995
 20
197.518
 10
242.03099999999995
 20
197.518
 10
239.88299999999992
 20
197.518
 10
231.289
 20
197.518
 10
229.14099999999996
 20
197.518
 10
222.69499999999994
 20
197.518
 10
220.5469999999999
 20
197.518
 10
218.3979999999999
 20
197.518
 10
216.25
 20
197.518
 10
214.10199999999998
 20
197.518
 10
211.95299999999997
 20
197.518
 10
203.35899999999992
 20
197.518
 10
201.2109999999999
 20
197.518
 10
199.063
 20
197.518
 10
196.914
 20
197.518
 10
192.61699999999996
 20
197.518
 10
190.46899999999994
 20
197.518
 10
186.1719999999999
 20
197.518
 10
184.0229999999999
 20
197.518
 10
181.875
 20
197.518
 10
179.72699999999998
 20
197.518
 10
177.57799999999997
 20
197.518
 10
175.42999999999995
 20
197.518
 10
173.28099999999995
 20
197.518
 10
171.13299999999992
 20
197.518
 10
162.539
 20
197.518
 10
160.39099999999996
 20
197.518
 10
153.94499999999994
 20
197.518
 10
151.7969999999999
 20
197.518
 10
149.6479999999999
 20
197.518
 10
141.05499999999995
 20
197.518
 10
138.90599999999995
 20
197.518
 10
130.3119999999999
 20
197.518
 10
128.164
 20
197.518
 10
121.71899999999994
 20
197.518
 10
119.56999999999994
 20
197.518
 10
117.42199999999991
 20
197.518
 10
115.27299999999991
 20
197.518
 10
110.976
 20
197.518
 10
108.82799999999997
 20
197.518
 10
106.67999999999995
 20
197.518
 10
104.53099999999995
 20
197.518
 10
95.9369999999999
 20
197.518
 10
93.78899999999999
 20
197.518
 10
87.34400000000005
 20
197.518
 10
85.19499999999994
 20
197.518
 10
83.04700000000003
 20
197.518
 10
78.75
 20
197.518
 10
76.60099999999989
 20
197.518
 10
74.45299999999997
 20
197.518
 10
72.30399999999986
 20
197.518
 10
68.00800000000004
 20
197.518
 10
65.85899999999992
 20
197.518
 10
63.71100000000001
 20
197.518
 10
59.41399999999999
 20
197.518
 10
57.26499999999987
 20
197.518
 10
52.96799999999985
 20
197.518
 10
50.819999999999936
 20
197.518
 10
46.52299999999991
 20
197.518
 10
44.375
 20
197.518
 10
42.225999999999885
 20
197.518
 10
40.077999999999975
 20
197.518
 10
37.92899999999986
 20
197.518
 10
35.78099999999995
 20
197.518
 10
33.63200000000006
 20
197.518
 10
31.483999999999924
 20
197.518
 10
29.336000000000013
 20
197.518
 10
27.186999999999898
 20
197.518
 10
25.038999999999987
 20
197.518
 10
22.889999999999873
 20
197.518
 10
20.741999999999962
 20
197.518
 10
18.592999999999847
 20
197.518
 10
16.444999999999936
 20
197.518
 10
14.29600000000005
 20
197.518
 10
12.14799999999991
 20
197.518
 10
10.0
 20
197.518
 10
9.019000000000005
 20
197.47
 10
8.048999999999978
 20
197.32600000000002
 10
7.09699999999998
 20
197.087
 10
6.173000000000002
 20
196.756
 10
5.286000000000058
 20
196.337
 10
4.44399999999996
 20
195.832
 10
3.655999999999949
 20
195.248
 10
2.92899999999986
 20
194.589
 10
2.2690000000000055
 20
193.86200000000002
 10
1.6849999999999454
 20
193.073
 10
1.1800000000000637
 20
192.232
 10
0.7609999999999673
 20
191.344
 10
0.43000000000006366
 20
190.42000000000002
 10
0.19200000000000728
 20
189.469
 10
0.04800000000000182
 20
188.498
 10
0.0
 20
187.518
 10
0.0
 20
185.268
 10
0.0
 20
183.018
 10
0.0
 20
180.768
 10
0.0
 20
178.518
 10
0.0
 20
176.268
 10
0.0
 20
174.018
  0
LWPOLYLINE
  5
92
330
17
100
AcDbEntity
  8
STITCH
100
AcDbPolyline
 90
1040
 70
1
 10
10.0
 20
171.768
 10
10.0
 20
174.018
 10
10.0
 20
176.268
 10
10.0
 20
178.518
 10
10.0
 20
180.768
 10
10.0
 20
183.018
 10
10.0
 20
185.268
 10
10.0
 20
187.518
 10
12.14799999999991
 20
187.518
 10
14.29600000000005
 20
187.518
 10
16.444999999999936
 20
187.518
 10
18.592999999999847
 20
187.518
 10
20.741999999999962
 20
187.518
 10
22.889999999999873
 20
187.518
 10
25.038999999999987
 20
187.518
 10
27.186999999999898
 20
187.518
 10
29.336000000000013
 20
187.518
 10
31.483999999999924
 20
187.518
 10
33.63200000000006
 20
187.518
 10
35.78099999999995
 20
187.518
 10
37.92899999999986
 20
187.518
 10
40.077999999999975
 20
187.518
 10
42.225999999999885
 20
187.518
 10
44.375
 20
187.518
 10
46.52299999999991
 20
187.518
 10
48.672000000000025
 20
187.518
 10
50.819999999999936
 20
187.518
 10
52.96799999999985
 20
187.518
 10
55.11699999999996
 20
187.518
 10
57.26499999999987
 20
187.518
 10
59.41399999999999
 20
187.518
 10
61.5619999999999
 20
187.518
 10
63.71100000000001
 20
187.518
 10
65.85899999999992
 20
187.518
 10
68.00800000000004
 20
187.518
 10
70.15599999999995
 20
187.518
 10
72.30399999999986
 20
187.518
 10
74.45299999999997
 20
187.518
 10
76.60099999999989
 20
187.518
 10
78.75
 20
187.518
 10
80.89799999999991
 20
187.518
 10
83.04700000000003
 20
187.518
 10
85.19499999999994
 20
187.518
 10
87.34400000000005
 20
187.518
 10
89.49199999999996
 20
187.518
 10
91.63999999999987
 20
187.518
 10
93.78899999999999
 20
187.518
 10
95.9369999999999
 20
187.518
 10
98.0859999999999
 20
187.518
 10
100.23399999999992
 20
187.518
 10
102.38299999999992
 20
187.518
 10
104.53099999999995
 20
187.518
 10
106.67999999999995
 20
187.518
 10
108.82799999999997
 20
187.518
 10
110.976
 20
187.518
 10
113.125
 20
187.518
 10
115.27299999999991
 20
187.518
 10
117.42199999999991
 20
187.518
 10
119.56999999999994
 20
187.518
 10
121.71899999999994
 20
187.518
 10
123.86699999999996
 20
187.518
 10
126.01499999999999
 20
187.518
 10
128.164
 20
187.518
 10
130.3119999999999
 20
187.518
 10
132.4609999999999
 20
187.518
 10
134.60899999999992
 20
187.518
 10
136.75799999999992
 20
187.518
 10
138.90599999999995
 20
187.518
 10
141.05499999999995
 20
187.518
 10
143.20299999999997
 20
187.518
 10
145.351
 20
187.518
 10
147.5
 20
187.518
 10
149.6479999999999
 20
187.518
 10
151.7969999999999
 20
187.518
 10
153.94499999999994
 20
187.518
 10
156.09399999999994
 20
187.518
 10
158.24199999999996
 20
187.518
 10
160.39099999999996
 20
187.518
 10
162.539
 20
187.518
 10
164.6869999999999
 20
187.518
 10
166.8359999999999
 20
187.518
 10
168.98399999999992
 20
187.518
 10
171.13299999999992
 20
187.518
 10
173.28099999999995
 20
187.518
 10
175.42999999999995
 20
187.518
 10
177.57799999999997
 20
187.518
 10
179.72699999999998
 20
187.518
 10
181.875
 20
187.518
 10
184.0229999999999
 20
187.518
 10
186.1719999999999
 20
187.518
 10
188.31999999999994
 20
187.518
 10
190.46899999999994
 20
187.518
 10
192.61699999999996
 20
187.518
 10
194.76599999999996
 20
187.518
 10
196.914
 20
187.518
 10
199.063
 20
187.518
 10
201.2109999999999
 20
187.518
 10
203.35899999999992
 20
187.518
 10
205.50799999999992
 20
187.518
 10
207.65599999999995
 20
187.518
 10
209.80499999999995
 20
187.518
 10
211.95299999999997
 20
187.518
 10
214.10199999999998
 20
187.518
 10
216.25
 20
187.518
 10
218.399
 20
187.518
 10
220.5469999999999
 20
187.518
 10
222.69499999999994
 20
187.518
 10
224.84399999999994
 20
187.518
 10
226.99199999999996
 20
187.518
 10
229.14099999999996
 20
187.518
 10
231.289
 20
187.518
 10
233.438
 20
187.518
 10
235.5859999999999
 20
187.518
 10
237.73399999999992
 20
187.518
 10
239.88299999999992
 20
187.518
 10
242.03099999999995
 20
187.518
 10
244.17999999999995
 20
187.518
 10
246.32799999999997
 20
187.518
 10
248.47699999999998
 20
187.518
 10
250.625
 20
187.518
 10
252.774
 20
187.518
 10
254.9219999999999
 20
187.518
 10
257.06999999999994
 20
187.518
 10
259.21899999999994
 20
187.518
 10
261.36699999999996
 20
187.518
 10
263.51599999999996
 20
187.518
 10
265.664
 20
187.518
 10
267.813
 20
187.518
 10
269.9609999999999
 20
187.518
 10
272.1099999999999
 20
187.518
 10
274.2579999999999
 20
187.518
 10
276.40599999999995
 20
187.518
 10
278.55499999999995
 20
187.518
 10
280.703
 20
187.518
 10
282.852
 20
187.518
 10
285.0
 20
187.518
 10
287.149
 20
187.518
 10
289.2969999999999
 20
187.518
 10
291.4459999999999
 20
187.518
 10
293.59399999999994
 20
187.518
 10
295.74199999999996
 20
187.518
 10
297.89099999999996
 20
187.518
 10
300.039
 20
187.518
 10
302.188
 20
187.518
 10
304.3359999999999
 20
187.518
 10
306.4849999999999
 20
187.518
 10
308.6329999999999
 20
187.518
 10
310.7819999999999
 20
187.518
 10
312.92999999999995
 20
187.518
 10
315.078
 20
187.518
 10
317.227
 20
187.518
 10
319.375
 20
187.518
 10
321.524
 20
187.518
 10
323.6719999999999
 20
187.518
 10
325.8209999999999
 20
187.518
 10
327.96899999999994
 20
187.518
 10
330.11699999999996
 20
187.518
 10
332.26599999999996
 20
187.518
 10
334.414
 20
187.518
 10
336.563
 20
187.518
 10
338.7109999999999
 20
187.518
 10
340.8599999999999
 20
187.518
 10
343.0079999999999
 20
187.518
 10
345.1569999999999
 20
187.518
 10
347.30499999999995
 20
187.518
 10
349.453
 20
187.518
 10
351.602
 20
187.518
 10
353.75
 20
187.518
 10
355.899
 20
187.518
 10
358.0469999999999
 20
187.518
 10
360.1959999999999
 20
187.518
 10
362.34399999999994
 20
187.518
 10
364.49299999999994
 20
187.518
 10
366.64099999999996
 20
187.518
 10
368.789
 20
187.518
 10
370.938
 20
187.518
 10
373.0859999999999
 20
187.518
 10
375.2349999999999
 20
187.518
 10
377.3829999999999
 20
187.518
 10
379.5319999999999
 20
187.518
 10
381.67999999999995
 20
187.518
 10
383.82899999999995
 20
187.518
 10
385.977
 20
187.518
 10
388.125
 20
187.518
 10
390.274
 20
187.518
 10
392.4219999999999
 20
187.518
 10
394.5709999999999
 20
187.518
 10
396.71899999999994
 20
187.518
 10
398.86799999999994
 20
187.518
 10
401.01599999999996
 20
187.518
 10
403.16499999999996
 20
187.518
 10
405.313
 20
187.518
 10
407.4609999999999
 20
187.518
 10
409.6099999999999
 20
187.518
 10
411.7579999999999
 20
187.518
 10
413.9069999999999
 20
187.518
 10
416.05499999999995
 20
187.518
 10
418.20399999999995
 20
187.518
 10
420.352
 20
187.518
 10
422.501
 20
187.518
 10
424.649
 20
187.518
 10
426.7969999999999
 20
187.518
 10
428.9459999999999
 20
187.518
 10
431.09399999999994
 20
187.518
 10
433.24299999999994
 20
187.518
 10
435.39099999999996
 20
187.518
 10
437.53999999999996
 20
187.518
 10
439.688
 20
187.518
 10
441.837
 20
187.518
 10
443.9849999999999
 20
187.518
 10
446.1329999999999
 20
187.518
 10
448.2819999999999
 20
187.518
 10
450.42999999999995
 20
187.518
 10
452.57899999999995
 20
187.518
 10
454.727
 20
187.518
 10
456.876
 20
187.518
 10
459.024
 20
187.518
 10
461.173
 20
187.518
 10
463.3209999999999
 20
187.518
 10
465.46899999999994
 20
187.518
 10
467.61799999999994
 20
187.518
 10
469.76599999999996
 20
187.518
 10
471.91499999999996
 20
187.518
 10
474.063
 20
187.518
 10
476.212
 20
187.518
 10
478.3599999999999
 20
187.518
 10
480.5089999999999
 20
187.518
 10
482.6569999999999
 20
187.518
 10
484.80499999999995
 20
187.518
 10
486.95399999999995
 20
187.518
 10
489.102
 20
187.518
 10
491.251
 20
187.518
 10
493.399
 20
187.518
 10
495.548
 20
187.518
 10
497.6959999999999
 20
187.518
 10
499.84399999999994
 20
187.518
 10
501.99299999999994
 20
187.518
 10
504.14099999999996
 20
187.518
 10
506.28999999999996
 20
187.518
 10
508.438
 20
187.518
 10
510.587
 20
187.518
 10
512.7349999999999
 20
187.518
 10
514.8839999999999
 20
187.518
 10
517.0319999999999
 20
187.518
 10
519.18
 20
187.518
 10
521.329
 20
187.518
 10
523.477
 20
187.518
 10
525.626
 20
187.518
 10
527.774
 20
187.518
 10
529.923
 20
187.518
 10
532.0709999999999
 20
187.518
 10
534.2199999999999
 20
187.518
 10
536.3679999999999
 20
187.518
 10
538.516
 20
187.518
 10
540.665
 20
187.518
 10
542.813
 20
187.518
 10
544.962
 20
187.518
 10
547.1099999999999
 20
187.518
 10
549.2589999999999
 20
187.518
 10
551.4069999999999
 20
187.518
 10
553.555
 20
187.518
 10
555.704
 20
187.518
 10
557.852
 20
187.518
 10
560.001
 20
187.518
 10
562.149
 20
187.518
 10
564.298
 20
187.518
 10
566.4459999999999
 20
187.518
 10
568.5949999999999
 20
187.518
 10
570.7429999999999
 20
187.518
 10
572.8919999999999
 20
187.518
 10
575.04
 20
187.518
 10
577.188
 20
187.518
 10
579.337
 20
187.518
 10
581.4849999999999
 20
187.518
 10
583.6339999999999
 20
187.518
 10
585.7819999999999
 20
187.518
 10
587.9309999999999
 20
187.518
 10
590.079
 20
187.518
 10
592.227
 20
187.518
 10
594.376
 20
187.518
 10
596.524
 20
187.518
 10
598.673
 20
187.518
 10
600.8209999999999
 20
187.518
 10
602.9699999999999
 20
187.518
 10
605.1179999999999
 20
187.518
 10
607.2669999999999
 20
187.518
 10
609.415
 20
187.518
 10
611.5629999999999
 20
187.518
 10
613.712
 20
187.518
 10
615.8599999999999
 20
187.518
 10
618.009
 20
187.518
 10
620.1569999999999
 20
187.518
 10
622.3059999999999
 20
187.518
 10
624.454
 20
187.518
 10
626.603
 20
187.518
 10
628.751
 20
187.518
 10
630.8989999999999
 20
187.518
 10
633.048
 20
187.518
 10
635.1959999999999
 20
187.518
 10
637.345
 20
187.518
 10
639.4929999999999
 20
187.518
 10
641.6419999999999
 20
187.518
 10
643.79
 20
187.518
 10
645.939
 20
187.518
 10
648.087
 20
187.518
 10
650.2349999999999
 20
187.518
 10
652.384
 20
187.518
 10
654.5319999999999
 20
187.518
 10
656.6809999999999
 20
187.518
 10
658.829
 20
187.518
 10
660.978
 20
187.518
 10
663.126
 20
187.518
 10
665.275
 20
187.518
 10
667.423
 20
187.518
 10
669.5709999999999
 20
187.518
 10
671.72
 20
187.518
 10
673.8679999999999
 20
187.518
 10
676.0169999999999
 20
187.518
 10
678.165
 20
187.518
 10
680.314
 20
187.518
 10
682.462
 20
187.518
 10
684.6099999999999
 20
187.518
 10
686.759
 20
187.518
 10
688.9069999999999
 20
187.518
 10
691.0559999999999
 20
187.518
 10
693.204
 20
187.518
 10
695.353
 20
187.518
 10
697.501
 20
187.519
 10
699.65
 20
187.519
 10
701.798
 20
187.519
 10
703.9459999999999
 20
187.519
 10
706.095
 20
187.519
 10
708.2429999999999
 20
187.519
 10
710.3919999999999
 20
187.519
 10
712.54
 20
187.519
 10
714.689
 20
187.519
 10
716.837
 20
187.519
 10
718.9849999999999
 20
187.519
 10
721.134
 20
187.519
 10
723.2819999999999
 20
187.519
 10
725.4309999999999
 20
187.519
 10
727.579
 20
187.519
 10
729.728
 20
187.519
 10
731.876
 20
187.519
 10
734.025
 20
187.519
 10
736.173
 20
187.519
 10
738.3209999999999
 20
187.519
 10
740.47
 20
187.519
 10
742.6179999999999
 20
187.519
 10
744.7669999999999
 20
187.519
 10
746.915
 20
187.519
 10
749.064
 20
187.519
 10
751.212
 20
187.519
 10
753.3609999999999
 20
187.519
 10
755.509
 20
187.519
 10
757.6569999999999
 20
187.519
 10
759.8059999999999
 20
187.519
 10
761.954
 20
187.519
 10
764.103
 20
187.519
 10
766.251
 20
187.519
 10
768.4
 20
187.519
 10
770.548
 20
187.519
 10
772.6969999999999
 20
187.519
 10
774.845
 20
187.519
 10
776.9929999999999
 20
187.519
 10
779.1419999999999
 20
187.519
 10
781.29
 20
187.519
 10
783.439
 20
187.519
 10
785.587
 20
187.519
 10
787.7359999999999
 20
187.519
 10
789.884
 20
187.519
 10
792.0329999999999
 20
187.519
 10
794.1809999999999
 20
187.519
 10
796.329
 20
187.519
 10
798.478
 20
187.519
 10
800.626
 20
187.519
 10
802.775
 20
187.519
 10
804.923
 20
187.519
 10
807.0719999999999
 20
187.519
 10
809.22
 20
187.519
 10
811.3679999999999
 20
187.519
 10
813.5169999999999
 20
187.519
 10
815.665
 20
187.519
 10
817.814
 20
187.519
 10
819.962
 20
187.519
 10
822.1109999999999
 20
187.519
 10
824.259
 20
187.519
 10
826.4079999999999
 20
187.519
 10
828.5559999999999
 20
187.519
 10
830.7049999999999
 20
187.519
 10
832.853
 20
187.519
 10
835.001
 20
187.519
 10
837.15
 20
187.519
 10
839.298
 20
187.519
 10
841.4469999999999
 20
187.519
 10
843.595
 20
187.519
 10
845.7439999999999
 20
187.519
 10
847.8919999999999
 20
187.519
 10
850.04
 20
187.519
 10
852.189
 20
187.519
 10
854.337
 20
187.519
 10
856.4859999999999
 20
187.519
 10
858.634
 20
187.519
 10
860.7829999999999
 20
187.519
 10
862.9309999999999
 20
187.519
 10
865.0799999999999
 20
187.519
 10
867.228
 20
187.519
 10
869.376
 20
187.519
 10
871.525
 20
187.519
 10
873.673
 20
187.519
 10
875.8219999999999
 20
187.519
 10
877.9699999999999
 20
187.519
 10
880.1189999999999
 20
187.519
 10
882.2669999999999
 20
187.519
 10
884.4159999999999
 20
187.519
 10
886.564
 20
187.519
 10
888.712
 20
187.519
 10
890.861
 20
187.519
 10
893.009
 20
187.519
 10
895.1579999999999
 20
187.519
 10
897.3059999999999
 20
187.519
 10
899.4549999999999
 20
187.519
 10
901.603
 20
187.519
 10
903.752
 20
187.519
 10
905.9
 20
187.519
 10
908.048
 20
187.519
 10
910.1969999999999
 20
187.519
 10
912.3449999999999
 20
187.519
 10
914.4939999999999
 20
187.519
 10
916.6419999999999
 20
187.519
 10
918.7909999999999
 20
187.519
 10
920.939
 20
187.519
 10
923.088
 20
187.519
 10
925.236
 20
187.519
 10
927.384
 20
187.519
 10
929.5329999999999
 20
187.519
 10
931.6809999999999
 20
187.519
 10
933.8299999999999
 20
187.519
 10
935.978
 20
187.519
 10
938.127
 20
187.519
 10
940.275
 20
187.519
 10
942.423
 20
187.519
 10
944.5719999999999
 20
187.519
 10
946.7199999999999
 20
187.519
 10
948.8689999999999
 20
187.519
 10
951.0169999999999
 20
187.519
 10
953.1659999999999
 20
187.519
 10
955.314
 20
187.519
 10
957.463
 20
187.519
 10
959.611
 20
187.519
 10
961.76
 20
187.519
 10
963.9079999999999
 20
187.519
 10
966.0559999999999
 20
187.519
 10
968.2049999999999
 20
187.519
 10
970.353
 20
187.519
 10
972.502
 20
187.519
 10
974.65
 20
187.519
 10
976.799
 20
187.519
 10
978.9469999999999
 20
187.519
 10
981.0949999999999
 20
187.519
 10
983.2439999999999
 20
187.519
 10
985.3919999999999
 20
187.519
 10
987.5409999999999
 20
187.519
 10
989.689
 20
187.519
 10
991.838
 20
187.519
 10
993.986
 20
187.519
 10
996.135
 20
187.519
 10
998.2829999999999
 20
187.519
 10
1000.4309999999999
 20
187.519
 10
1002.5799999999999
 20
187.519
 10
1004.728
 20
187.519
 10
1006.877
 20
187.519
 10
1009.025
 20
187.519
 10
1011.174
 20
187.519
 10
1013.3219999999999
 20
187.519
 10
1015.471
 20
187.519
 10
1017.6189999999999
 20
187.519
 10
1019.7669999999999
 20
187.519
 10
1021.9159999999999
 20
187.519
 10
1024.0639999999999
 20
187.519
 10
1026.213
 20
187.519
 10
1028.3609999999999
 20
187.519
 10
1030.51
 20
187.519
 10
1032.658
 20
187.519
 10
1034.807
 20
187.519
 10
1036.955
 20
187.519
 10
1039.103
 20
187.519
 10
1041.252
 20
187.519
 10
1043.3999999999999
 20
187.519
 10
1045.549
 20
187.519
 10
1047.697
 20
187.519
 10
1049.846
 20
187.519
 10
1051.994
 20
187.519
 10
1054.143
 20
187.519
 10
1056.291
 20
187.519
 10
1058.4389999999999
 20
187.519
 10
1060.588
 20
187.519
 10
1062.7359999999999
 20
187.519
 10
1064.885
 20
187.519
 10
1067.033
 20
187.519
 10
1069.182
 20
187.519
 10
1071.33
 20
187.519
 10
1073.479
 20
187.519
 10
1075.627
 20
187.519
 10
1077.7749999999999
 20
187.519
 10
1079.924
 20
187.519
 10
1082.072
 20
187.519
 10
1084.221
 20
187.519
 10
1086.369
 20
187.519
 10
1088.518
 20
187.519
 10
1090.666
 20
187.519
 10
1092.815
 20
187.519
 10
1094.963
 20
187.519
 10
1097.1109999999999
 20
187.519
 10
1099.26
 20
187.519
 10
1101.408
 20
187.519
 10
1103.557
 20
187.519
 10
1105.705
 20
187.519
 10
1107.854
 20
187.519
 10
1110.002
 20
187.519
 10
1110.002
 20
185.269
 10
1110.002
 20
183.019
 10
1110.002
 20
180.769
 10
1110.002
 20
178.519
 10
1110.002
 20
176.269
 10
1110.002
 20
174.019
 10
1110.002
 20
171.769
 10
1110.002
 20
169.519
 10
1107.854
 20
169.519
 10
1105.705
 20
169.519
 10
1103.557
 20
169.519
 10
1101.408
 20
169.519
 10
1099.26
 20
169.519
 10
1097.1109999999999
 20
169.519
 10
1094.963
 20
169.519
 10
1092.815
 20
169.519
 10
1090.666
 20
169.519
 10
1088.518
 20
169.519
 10
1086.369
 20
169.519
 10
1084.221
 20
169.519
 10
1082.072
 20
169.519
 10
1079.924
 20
169.519
 10
1077.7749999999999
 20
169.519
 10
1075.627
 20
169.519
 10
1073.479
 20
169.519
 10
1071.33
 20
169.519
 10
1069.182
 20
169.519
 10
1067.033
 20
169.519
 10
1064.885
 20
169.519
 10
1062.7359999999999
 20
169.519
 10
1060.588
 20
169.519
 10
1058.4389999999999
 20
169.519
 10
1056.291
 20
169.519
 10
1054.143
 20
169.519
 10
1051.994
 20
169.519
 10
1049.846
 20
169.519
 10
1047.697
 20
169.519
 10
1045.549
 20
169.519
 10
1043.3999999999999
 20
169.519
 10
1041.252
 20
169.519
 10
1039.103
 20
169.519
 10
1036.955
 20
169.519
 10
1034.807
 20
169.519
 10
1032.658
 20
169.519
 10
1030.51
 20
169.519
 10
1028.3609999999999
 20
169.519
 10
1026.213
 20
169.519
 10
1024.0639999999999
 20
169.519
 10
1021.9159999999999
 20
169.519
 10
1019.7669999999999
 20
169.519
 10
1017.6189999999999
 20
169.519
 10
1015.471
 20
169.519
 10
1013.3219999999999
 20
169.519
 10
1011.174
 20
169.519
 10
1009.025
 20
169.519
 10
1006.877
 20
169.519
 10
1004.728
 20
169.519
 10
1002.5799999999999
 20
169.519
 10
1000.4309999999999
 20
169.519
 10
998.2829999999999
 20
169.519
 10
996.135
 20
169.519
 10
993.986
 20
169.519
 10
991.838
 20
169.519
 10
989.689
 20
169.519
 10
987.5409999999999
 20
169.519
 10
985.3919999999999
 20
169.519
 10
983.2439999999999
 20
169.519
 10
981.0949999999999
 20
169.519
 10
978.9469999999999
 20
169.519
 10
976.799
 20
169.519
 10
974.65
 20
169.519
 10
972.502
 20
169.519
 10
970.353
 20
169.519
 10
968.2049999999999
 20
169.519
 10
966.0559999999999
 20
169.519
 10
963.9079999999999
 20
169.519
 10
961.76
 20
169.519
 10
959.611
 20
169.519
 10
957.463
 20
169.519
 10
955.314
 20
169.519
 10
953.1659999999999
 20
169.519
 10
951.0169999999999
 20
169.519
 10
948.8689999999999
 20
169.519
 10
946.7199999999999
 20
169.519
 10
944.5719999999999
 20
169.519
 10
942.423
 20
169.519
 10
940.275
 20
169.519
 10
938.127
 20
169.519
 10
935.978
 20
169.519
 10
933.8299999999999
 20
169.519
 10
931.6809999999999
 20
169.519
 10
929.5329999999999
 20
169.519
 10
927.384
 20
169.519
 10
925.236
 20
169.519
 10
923.088
 20
169.519
 10
920.939
 20
169.519
 10
918.7909999999999
 20
169.519
 10
916.6419999999999
 20
169.519
 10
914.4939999999999
 20
169.519
 10
912.3449999999999
 20
169.519
 10
910.1969999999999
 20
169.519
 10
908.048
 20
169.519
 10
905.9
 20
169.519
 10
903.752
 20
169.519
 10
901.603
 20
169.519
 10
899.4549999999999
 20
169.519
 10
897.3059999999999
 20
169.519
 10
895.1579999999999
 20
169.519
 10
893.009
 20
169.519
 10
890.861
 20
169.519
 10
888.712
 20
169.519
 10
886.564
 20
169.519
 10
884.4159999999999
 20
169.519
 10
882.2669999999999
 20
169.519
 10
880.1189999999999
 20
169.519
 10
877.9699999999999
 20
169.519
 10
875.8219999999999
 20
169.519
 10
873.673
 20
169.519
 10
871.525
 20
169.519
 10
869.376
 20
169.519
 10
867.228
 20
169.519
 10
865.0799999999999
 20
169.519
 10
862.9309999999999
 20
169.519
 10
860.7829999999999
 20
169.519
 10
858.634
 20
169.519
 10
856.4859999999999
 20
169.519
 10
854.337
 20
169.519
 10
852.189
 20
169.519
 10
850.04
 20
169.519
 10
847.8919999999999
 20
169.519
 10
845.7439999999999
 20
169.519
 10
843.595
 20
169.519
 10
841.4469999999999
 20
169.519
 10
839.298
 20
169.519
 10
837.15
 20
169.519
 10
835.001
 20
169.519
 10
832.853
 20
169.519
 10
830.7049999999999
 20
169.519
 10
828.5559999999999
 20
169.519
 10
826.4079999999999
 20
169.519
 10
824.259
 20
169.519
 10
822.1109999999999
 20
169.519
 10
819.962
 20
169.519
 10
817.814
 20
169.519
 10
815.665
 20
169.519
 10
813.5169999999999
 20
169.519
 10
811.3679999999999
 20
169.519
 10
809.22
 20
169.519
 10
807.0719999999999
 20
169.519
 10
804.923
 20
169.519
 10
802.775
 20
169.519
 10
800.626
 20
169.519
 10
798.478
 20
169.519
 10
796.329
 20
169.519
 10
794.1809999999999
 20
169.519
 10
792.0329999999999
 20
169.519
 10
789.884
 20
169.519
 10
787.7359999999999
 20
169.519
 10
785.587
 20
169.519
 10
783.439
 20
169.519
 10
781.29
 20
169.519
 10
779.1419999999999
 20
169.519
 10
776.9929999999999
 20
169.519
 10
774.845
 20
169.519
 10
772.6969999999999
 20
169.519
 10
770.548
 20
169.519
 10
768.4
 20
169.519
 10
766.251
 20
169.519
 10
764.103
 20
169.519
 10
761.954
 20
169.519
 10
759.8059999999999
 20
169.519
 10
757.6569999999999
 20
169.519
 10
755.509
 20
169.519
 10
753.3609999999999
 20
169.519
 10
751.212
 20
169.519
 10
749.064
 20
169.519
 10
746.915
 20
169.519
 10
744.7669999999999
 20
169.519
 10
742.6179999999999
 20
169.519
 10
740.47
 20
169.519
 10
738.3209999999999
 20
169.519
 10
736.173
 20
169.519
 10
734.025
 20
169.519
 10
731.876
 20
169.519
 10
729.728
 20
169.519
 10
727.579
 20
169.519
 10
725.4309999999999
 20
169.519
 10
723.2819999999999
 20
169.519
 10
721.134
 20
169.519
 10
718.9849999999999
 20
169.519
 10
716.837
 20
169.519
 10
714.689
 20
169.519
 10
712.54
 20
169.519
 10
710.3919999999999
 20
169.519
 10
708.2429999999999
 20
169.518
 10
706.095
 20
169.518
 10
703.9459999999999
 20
169.518
 10
701.798
 20
169.518
 10
699.65
 20
169.518
 10
697.501
 20
169.518
 10
695.353
 20
169.518
 10
693.204
 20
169.518
 10
691.0559999999999
 20
169.518
 10
688.9069999999999
 20
169.518
 10
686.759
 20
169.518
 10
684.6099999999999
 20
169.518
 10
682.462
 20
169.518
 10
680.314
 20
169.518
 10
678.165
 20
169.518
 10
676.0169999999999
 20
169.518
 10
673.8679999999999
 20
169.518
 10
671.72
 20
169.518
 10
669.5709999999999
 20
169.518
 10
667.423
 20
169.518
 10
665.275
 20
169.518
 10
663.126
 20
169.518
 10
660.978
 20
169.518
 10
658.829
 20
169.518
 10
656.6809999999999
 20
169.518
 10
654.5319999999999
 20
169.518
 10
652.384
 20
169.518
 10
650.2349999999999
 20
169.518
 10
648.087
 20
169.518
 10
645.939
 20
169.518
 10
643.79
 20
169.518
 10
641.6419999999999
 20
169.518
 10
639.4929999999999
 20
169.518
 10
637.345
 20
169.518
 10
635.1959999999999
 20
169.518
 10
633.048
 20
169.518
 10
630.8989999999999
 20
169.518
 10
628.751
 20
169.518
 10
626.603
 20
169.518
 10
624.454
 20
169.518
 10
622.3059999999999
 20
169.518
 10
620.1569999999999
 20
169.518
 10
618.009
 20
169.518
 10
615.8599999999999
 20
169.518
 10
613.712
 20
169.518
 10
611.5629999999999
 20
169.518
 10
609.415
 20
169.518
 10
607.2669999999999
 20
169.518
 10
605.1179999999999
 20
169.518
 10
602.9699999999999
 20
169.518
 10
600.8209999999999
 20
169.518
 10
598.673
 20
169.518
 10
596.524
 20
169.518
 10
594.376
 20
169.518
 10
592.227
 20
169.518
 10
590.079
 20
169.518
 10
587.9309999999999
 20
169.518
 10
585.7819999999999
 20
169.518
 10
583.6339999999999
 20
169.518
 10
581.4849999999999
 20
169.518
 10
579.337
 20
169.518
 10
577.188
 20
169.518
 10
575.04
 20
169.518
 10
572.8919999999999
 20
169.518
 10
570.7429999999999
 20
169.518
 10
568.5949999999999
 20
169.518
 10
566.4459999999999
 20
169.518
 10
564.298
 20
169.518
 10
562.149
 20
169.518
 10
560.001
 20
169.518
 10
557.852
 20
169.518
 10
555.704
 20
169.518
 10
553.555
 20
169.518
 10
551.4069999999999
 20
169.518
 10
549.2589999999999
 20
169.518
 10
547.1099999999999
 20
169.518
 10
544.962
 20
169.518
 10
542.813
 20
169.518
 10
540.665
 20
169.518
 10
538.516
 20
169.518
 10
536.3679999999999
 20
169.518
 10
534.2199999999999
 20
169.518
 10
532.0709999999999
 20
169.518
 10
529.923
 20
169.518
 10
527.774
 20
169.518
 10
525.626
 20
169.518
 10
523.477
 20
169.518
 10
521.329
 20
169.518
 10
519.18
 20
169.518
 10
517.0319999999999
 20
169.518
 10
514.8839999999999
 20
169.518
 10
512.7349999999999
 20
169.518
 10
510.587
 20
169.518
 10
508.438
 20
169.518
 10
506.28999999999996
 20
169.518
 10
504.14099999999996
 20
169.518
 10
501.99299999999994
 20
169.518
 10
499.84399999999994
 20
169.518
 10
497.6959999999999
 20
169.518
 10
495.548
 20
169.518
 10
493.399
 20
169.518
 10
491.251
 20
169.518
 10
489.102
 20
169.518
 10
486.95399999999995
 20
169.518
 10
484.80499999999995
 20
169.518
 10
482.6569999999999
 20
169.518
 10
480.5089999999999
 20
169.518
 10
478.3599999999999
 20
169.518
 10
476.212
 20
169.518
 10
474.063
 20
169.518
 10
471.91499999999996
 20
169.518
 10
469.76599999999996
 20
169.518
 10
467.61799999999994
 20
169.518
 10
465.46899999999994
 20
169.518
 10
463.3209999999999
 20
169.518
 10
461.173
 20
169.518
 10
459.024
 20
169.518
 10
456.876
 20
169.518
 10
454.727
 20
169.518
 10
452.57899999999995
 20
169.518
 10
450.42999999999995
 20
169.518
 10
448.2819999999999
 20
169.518
 10
446.1329999999999
 20
169.518
 10
443.9849999999999
 20
169.518
 10
441.837
 20
169.518
 10
439.688
 20
169.518
 10
437.53999999999996
 20
169.518
 10
435.39099999999996
 20
169.518
 10
433.24299999999994
 20
169.518
 10
431.09399999999994
 20
169.518
 10
428.9459999999999
 20
169.518
 10
426.7969999999999
 20
169.518
 10
424.649
 20
169.518
 10
422.501
 20
169.518
 10
420.352
 20
169.518
 10
418.20399999999995
 20
169.518
 10
416.05499999999995
 20
169.518
 10
413.9069999999999
 20
169.518
 10
411.7579999999999
 20
169.518
 10
409.6099999999999
 20
169.518
 10
407.4609999999999
 20
169.518
 10
405.313
 20
169.518
 10
403.16499999999996
 20
169.518
 10
401.01599999999996
 20
169.518
 10
398.86799999999994
 20
169.518
 10
396.71899999999994
 20
169.518
 10
394.5709999999999
 20
169.518
 10
392.4219999999999
 20
169.518
 10
390.274
 20
169.518
 10
388.125
 20
169.518
 10
385.977
 20
169.518
 10
383.82899999999995
 20
169.518
 10
381.67999999999995
 20
169.518
 10
379.5319999999999
 20
169.518
 10
377.3829999999999
 20
169.518
 10
375.2349999999999
 20
169.518
 10
373.0859999999999
 20
169.518
 10
370.938
 20
169.518
 10
368.789
 20
169.518
 10
366.64099999999996
 20
169.518
 10
364.49299999999994
 20
169.518
 10
362.34399999999994
 20
169.518
 10
360.1959999999999
 20
169.518
 10
358.0469999999999
 20
169.518
 10
355.899
 20
169.518
 10
353.75
 20
169.518
 10
351.602
 20
169.518
 10
349.453
 20
169.518
 10
347.30499999999995
 20
169.518
 10
345.1569999999999
 20
169.518
 10
343.0079999999999
 20
169.518
 10
340.8599999999999
 20
169.518
 10
338.7109999999999
 20
169.518
 10
336.563
 20
169.518
 10
334.414
 20
169.518
 10
332.26599999999996
 20
169.518
 10
330.11699999999996
 20
169.518
 10
327.96899999999994
 20
169.518
 10
325.8209999999999
 20
169.518
 10
323.6719999999999
 20
169.518
 10
321.524
 20
169.518
 10
319.375
 20
169.518
 10
317.227
 20
169.518
 10
315.078
 20
169.518
 10
312.92999999999995
 20
169.518
 10
310.7819999999999
 20
169.518
 10
308.6329999999999
 20
169.518
 10
306.4849999999999
 20
169.518
 10
304.3359999999999
 20
169.518
 10
302.188
 20
169.518
 10
300.039
 20
169.518
 10
297.89099999999996
 20
169.518
 10
295.74199999999996
 20
169.518
 10
293.59399999999994
 20
169.518
 10
291.4459999999999
 20
169.518
 10
289.2969999999999
 20
169.518
 10
287.149
 20
169.518
 10
285.0
 20
169.518
 10
282.852
 20
169.518
 10
280.703
 20
169.518
 10
278.55499999999995
 20
169.518
 10
276.40599999999995
 20
169.518
 10
274.2579999999999
 20
169.518
 10
272.1099999999999
 20
169.518
 10
269.9609999999999
 20
169.518
 10
267.813
 20
169.518
 10
265.664
 20
169.518
 10
263.51599999999996
 20
169.518
 10
261.36699999999996
 20
169.518
 10
259.21899999999994
 20
169.518
 10
257.06999999999994
 20
169.518
 10
254.9219999999999
 20
169.518
 10
252.774
 20
169.518
 10
250.625
 20
169.518
 10
248.47699999999998
 20
169.518
 10
246.32799999999997
 20
169.518
 10
244.17999999999995
 20
169.518
 10
242.03099999999995
 20
169.518
 10
239.88299999999992
 20
169.518
 10
237.7349999999999
 20
169.518
 10
235.5859999999999
 20
169.518
 10
233.438
 20
169.518
 10
231.289
 20
169.518
 10
229.14099999999996
 20
169.518
 10
226.99199999999996
 20
169.518
 10
224.84399999999994
 20
169.518
 10
222.69499999999994
 20
169.518
 10
220.5469999999999
 20
169.518
 10
218.399
 20
169.518
 10
216.25
 20
169.518
 10
214.10199999999998
 20
169.518
 10
211.95299999999997
 20
169.518
 10
209.80499999999995
 20
169.518
 10
207.65599999999995
 20
169.518
 10
205.50799999999992
 20
169.518
 10
203.35899999999992
 20
169.518
 10
201.2109999999999
 20
169.518
 10
199.063
 20
169.518
 10
196.914
 20
169.518
 10
194.76599999999996
 20
169.518
 10
192.61699999999996
 20
169.518
 10
190.46899999999994
 20
169.518
 10
188.31999999999994
 20
169.518
 10
186.1719999999999
 20
169.518
 10
184.0229999999999
 20
169.518
 10
181.875
 20
169.518
 10
179.72699999999998
 20
169.518
 10
177.57799999999997
 20
169.518
 10
175.42999999999995
 20
169.518
 10
173.28099999999995
 20
169.518
 10
171.13299999999992
 20
169.518
 10
168.98399999999992
 20
169.518
 10
166.8359999999999
 20
169.518
 10
164.6869999999999
 20
169.518
 10
162.539
 20
169.518
 10
160.39099999999996
 20
169.518
 10
158.24199999999996
 20
169.518
 10
156.09399999999994
 20
169.518
 10
153.94499999999994
 20
169.518
 10
151.7969999999999
 20
169.518
 10
149.6479999999999
 20
169.518
 10
147.5
 20
169.518
 10
145.35199999999998
 20
169.518
 10
143.20299999999997
 20
169.518
 10
141.05499999999995
 20
169.518
 10
138.90599999999995
 20
169.518
 10
136.75799999999992
 20
169.518
 10
134.60899999999992
 20
169.518
 10
132.4609999999999
 20
169.518
 10
130.3119999999999
 20
169.518
 10
128.164
 20
169.518
 10
126.01599999999996
 20
169.518
 10
123.86699999999996
 20
169.518
 10
121.71899999999994
 20
169.518
 10
119.56999999999994
 20
169.518
 10
117.42199999999991
 20
169.518
 10
115.27299999999991
 20
169.518
 10
113.125
 20
169.518
 10
110.976
 20
169.518
 10
108.82799999999997
 20
169.518
 10
106.67999999999995
 20
169.518
 10
104.53099999999995
 20
169.518
 10
102.38299999999992
 20
169.518
 10
100.23399999999992
 20
169.518
 10
98.0859999999999
 20
169.518
 10
95.9369999999999
 20
169.518
 10
93.78899999999999
 20
169.518
 10
91.63999999999987
 20
169.518
 10
89.49199999999996
 20
169.518
 10
87.34400000000005
 20
169.518
 10
85.19499999999994
 20
169.518
 10
83.04700000000003
 20
169.518
 10
80.89799999999991
 20
169.518
 10
78.75
 20
169.518
 10
76.60099999999989
 20
169.518
 10
74.45299999999997
 20
169.518
 10
72.30399999999986
 20
169.518
 10
70.15599999999995
 20
169.518
 10
68.00800000000004
 20
169.518
 10
65.85899999999992
 20
169.518
 10
63.71100000000001
 20
169.518
 10
61.5619999999999
 20
169.518
 10
59.41399999999999
 20
169.518
 10
57.26499999999987
 20
169.518
 10
55.11699999999996
 20
169.518
 10
52.96900000000005
 20
169.518
 10
50.819999999999936
 20
169.518
 10
48.672000000000025
 20
169.518
 10
46.52299999999991
 20
169.518
 10
44.375
 20
169.518
 10
42.225999999999885
 20
169.518
 10
40.077999999999975
 20
169.518
 10
37.92899999999986
 20
169.518
 10
35.78099999999995
 20
169.518
 10
33.63300000000004
 20
169.518
 10
31.483999999999924
 20
169.518
 10
29.336000000000013
 20
169.518
 10
27.186999999999898
 20
169.518
 10
25.038999999999987
 20
169.518
 10
22.889999999999873
 20
169.518
 10
20.741999999999962
 20
169.518
 10
18.592999999999847
 20
169.518
 10
16.444999999999936
 20
169.518
 10
14.297000000000025
 20
169.518
 10
12.14799999999991
 20
169.518
 10
10.0
 20
169.518
  0
TEXT
  5
93
330
17
100
AcDbEntity
  8
LABEL
100
AcDbText
 10
560.001
 20
178.51850000000002
 30
0.0
 40
10.0
  1
E piece-5
 72
1
 11
560.001
 21
178.51850000000002
 31
0.0
100
AcDbText
 73
2
  0
LWPOLYLINE
  5
94
330
17
100
AcDbEntity
  8
CUT
100
AcDbPolyline
 90
210
 70
1
 10
0.049
 20
76.411
 10
0.62
 20
70.76600000000002
 10
1.187
 20
65.13299999999998
 10
1.751
 20
59.506
 10
2.313
 20
53.881
 10
2.317
 20
53.84899999999999
 10
2.871
 20
48.478999999999985
 10
3.433
 20
42.829999999999984
 10
3.997
 20
37.16399999999999
 10
4.587
 20
31.239000000000033
 10
5.11
 20
25.979000000000042
 10
5.256
 20
25.00200000000001
 10
5.499
 20
24.043999999999983
 10
5.834
 20
23.114000000000033
 10
6.259
 20
22.223000000000013
 10
6.771
 20
21.37700000000001
 10
7.363
 20
20.586000000000013
 10
8.031
 20
19.858000000000004
 10
8.767
 20
19.19799999999998
 10
9.565
 20
18.61500000000001
 10
10.416
 20
18.114000000000033
 10
11.313
 20
17.69799999999998
 10
12.246
 20
17.374000000000024
 10
13.207
 20
17.14300000000003
 10
18.89
 20
16.071000000000026
 10
24.721
 20
14.971000000000004
 10
30.551
 20
13.870999999999981
 10
36.38
 20
12.770999999999958
 10
36.502
 20
12.74799999999999
 10
42.331
 20
11.72399999999999
 10
48.162
 20
10.699000000000012
 10
53.992
 20
9.673999999999978
 10
59.82
 20
8.649000000000001
 10
60.059
 20
8.610000000000014
 10
65.886
 20
7.730000000000018
 10
71.717
 20
6.850000000000023
 10
77.547
 20
5.970000000000027
 10
83.374
 20
5.090000000000032
 10
83.716
 20
5.043999999999983
 10
89.543
 20
4.369000000000028
 10
95.373
 20
3.69399999999996
 10
101.203
 20
3.0190000000000055
 10
107.029
 20
2.343999999999994
 10
107.454
 20
2.3039999999999736
 10
113.28
 20
1.879000000000019
 10
119.11
 20
1.455000000000041
 10
124.941
 20
1.0299999999999727
 10
130.766
 20
0.6059999999999945
 10
131.244
 20
0.58299999999997
 10
137.07
 20
0.4379999999999882
 10
142.9
 20
0.29300000000000637
 10
148.73
 20
0.14800000000002456
 10
154.555
 20
0.004000000000019099
 10
155.052
 20
0.004000000000019099
 10
160.877
 20
0.14800000000002456
 10
166.708
 20
0.29300000000000637
 10
172.538
 20
0.4379999999999882
 10
178.363
 20
0.58299999999997
 10
178.841
 20
0.6059999999999945
 10
184.667
 20
1.0299999999999727
 10
190.497
 20
1.455000000000041
 10
196.328
 20
1.879000000000019
 10
202.154
 20
2.3039999999999736
 10
202.578
 20
2.343999999999994
 10
208.404
 20
3.018000000000029
 10
214.234
 20
3.69399999999996
 10
220.065
 20
4.369000000000028
 10
225.892
 20
5.043999999999983
 10
226.234
 20
5.090000000000032
 10
232.061
 20
5.970000000000027
 10
237.891
 20
6.850000000000023
 10
243.721
 20
7.730000000000018
 10
249.549
 20
8.610000000000014
 10
249.788
 20
8.649000000000001
 10
255.616
 20
9.673999999999978
 10
261.446
 20
10.699000000000012
 10
267.276
 20
11.72399999999999
 10
273.105
 20
12.74799999999999
 10
273.228
 20
12.770999999999958
 10
279.057
 20
13.870999999999981
 10
284.887
 20
14.971000000000004
 10
290.717
 20
16.071000000000026
 10
296.401
 20
17.14300000000003
 10
297.361
 20
17.374000000000024
 10
298.295
 20
17.69799999999998
 10
299.191
 20
18.114000000000033
 10
300.043
 20
18.61500000000001
 10
300.84
 20
19.19799999999998
 10
301.577
 20
19.858000000000004
 10
302.244
 20
20.586000000000013
 10
302.837
 20
21.37700000000001
 10
303.348
 20
22.223000000000013
 10
303.774
 20
23.114000000000033
 10
304.109
 20
24.043999999999983
 10
304.351
 20
25.00200000000001
 10
304.497
 20
25.979000000000042
 10
305.021
 20
31.239000000000033
 10
305.61
 20
37.16399999999999
 10
306.174
 20
42.829999999999984
 10
306.738
 20
48.497000000000014
 10
307.272
 20
53.857
 10
307.83
 20
59.47399999999999
 10
308.389
 20
65.09100000000001
 10
308.948
 20
70.708
 10
309.555
 20
76.80799999999999
 10
309.603
 20
77.97800000000001
 10
309.513
 20
79.14600000000002
 10
308.741
 20
84.82300000000001
 10
308.376
 20
87.5
 10
308.225
 20
88.34
 10
308.003
 20
89.16399999999999
 10
307.712
 20
89.96600000000001
 10
306.016
 20
94.078
 10
304.318
 20
98.19299999999998
 10
303.841
 20
99.19
 10
303.256
 20
100.12799999999999
 10
300.455
 20
104.114
 10
297.652
 20
108.10300000000001
 10
297.097
 20
108.821
 10
296.479
 20
109.487
 10
292.615
 20
113.28300000000002
 10
288.749
 20
117.082
 10
287.629
 20
118.03200000000001
 10
284.389
 20
120.393
 10
281.136
 20
122.762
 10
277.894
 20
125.125
 10
276.884
 20
125.77199999999999
 10
273.025
 20
127.929
 10
269.156
 20
130.091
 10
265.296
 20
132.249
 10
264.4
 20
132.693
 10
259.984
 20
134.61
 10
255.56
 20
136.531
 10
251.143
 20
138.449
 10
250.344
 20
138.756
 10
245.442
 20
140.403
 10
240.531
 20
142.053
 10
235.628
 20
143.7
 10
234.907
 20
143.912
 10
229.595
 20
145.263
 10
224.276
 20
146.615
 10
218.964
 20
147.965
 10
218.301
 20
148.11
 10
212.664
 20
149.142
 10
207.02
 20
150.175
 10
201.383
 20
151.207
 10
200.761
 20
151.301
 10
194.888
 20
151.998
 10
189.009
 20
152.696
 10
183.136
 20
153.394
 10
182.54
 20
153.446
 10
178.029
 20
153.71
 10
173.513
 20
153.974
 10
168.996
 20
154.237
 10
164.486
 20
154.501
 10
163.903
 20
154.518
 10
159.356
 20
154.518
 10
154.804
 20
154.518
 10
150.251
 20
154.518
 10
145.705
 20
154.518
 10
145.122
 20
154.501
 10
140.611
 20
154.237
 10
136.095
 20
153.974
 10
131.578
 20
153.71
 10
127.068
 20
153.446
 10
126.472
 20
153.394
 10
120.599
 20
152.696
 10
114.72
 20
151.998
 10
108.847
 20
151.301
 10
108.225
 20
151.207
 10
102.587
 20
150.175
 10
96.944
 20
149.142
 10
91.307
 20
148.11
 10
90.644
 20
147.965
 10
85.331
 20
146.615
 10
80.012
 20
145.263
 10
74.701
 20
143.912
 10
73.98
 20
143.7
 10
69.076
 20
142.053
 10
64.166
 20
140.403
 10
59.263
 20
138.756
 10
58.465
 20
138.449
 10
54.048
 20
136.531
 10
49.623
 20
134.61
 10
45.208
 20
132.693
 10
44.312
 20
132.249
 10
40.451
 20
130.091
 10
36.582
 20
127.929
 10
32.724
 20
125.77199999999999
 10
31.714
 20
125.125
 10
28.471
 20
122.762
 10
25.219
 20
120.393
 10
21.978
 20
118.03200000000001
 10
20.858
 20
117.082
 10
16.992
 20
113.28300000000002
 10
13.129
 20
109.487
 10
12.511
 20
108.821
 10
11.956
 20
108.10300000000001
 10
9.152
 20
104.114
 10
6.352
 20
100.12799999999999
 10
5.767
 20
99.19
 10
5.289
 20
98.19200000000001
 10
4.249
 20
95.67000000000002
 10
1.956
 20
90.113
 10
1.664
 20
89.31
 10
1.442
 20
88.48500000000001
 10
1.291
 20
87.644
 10
0.652
 20
82.935
 10
0.088
 20
78.75400000000002
 10
0.0
 20
77.584
  0
LWPOLYLINE
  5
95
330
17
100
AcDbEntity
  8
STITCH
100
AcDbPolyline
 90
136
 70
1
 10
9.999
 20
77.417
 10
10.562
 20
81.59800000000001
 10
11.2
 20
86.299
 10
13.493
 20
91.856
 10
14.534
 20
94.37899999999999
 10
17.334
 20
98.36500000000001
 10
20.138
 20
102.35399999999998
 10
24.001
 20
106.15
 10
27.867
 20
109.94900000000001
 10
31.108
 20
112.311
 10
34.36
 20
114.68
 10
37.603
 20
117.043
 10
41.461
 20
119.19999999999999
 10
45.33
 20
121.362
 10
49.191
 20
123.52000000000001
 10
53.606
 20
125.43700000000001
 10
58.031
 20
127.35900000000001
 10
62.448
 20
129.277
 10
67.35
 20
130.924
 10
72.261
 20
132.573
 10
77.164
 20
134.221
 10
82.476
 20
135.571
 10
87.795
 20
136.923
 10
93.108
 20
138.274
 10
98.745
 20
139.306
 10
104.388
 20
140.339
 10
110.026
 20
141.371
 10
115.898
 20
142.068
 10
121.778
 20
142.766
 10
127.651
 20
143.463
 10
132.161
 20
143.727
 10
136.678
 20
143.991
 10
141.194
 20
144.254
 10
145.705
 20
144.518
 10
150.251
 20
144.518
 10
154.804
 20
144.518
 10
159.356
 20
144.518
 10
163.903
 20
144.518
 10
168.413
 20
144.255
 10
172.93
 20
143.991
 10
177.446
 20
143.727
 10
181.957
 20
143.463
 10
187.83
 20
142.766
 10
193.709
 20
142.068
 10
199.582
 20
141.371
 10
205.22
 20
140.339
 10
210.863
 20
139.306
 10
216.5
 20
138.274
 10
221.812
 20
136.923
 10
227.132
 20
135.571
 10
232.443
 20
134.221
 10
237.347
 20
132.573
 10
242.257
 20
130.924
 10
247.16
 20
129.277
 10
251.577
 20
127.35900000000001
 10
256.001
 20
125.43700000000001
 10
260.417
 20
123.52000000000001
 10
264.277
 20
121.362
 10
268.146
 20
119.19999999999999
 10
272.005
 20
117.043
 10
275.247
 20
114.68
 10
278.5
 20
112.311
 10
281.74
 20
109.94900000000001
 10
285.606
 20
106.15
 10
289.47
 20
102.35399999999998
 10
292.273
 20
98.36500000000001
 10
295.074
 20
94.37899999999999
 10
296.771
 20
90.26400000000001
 10
298.468
 20
86.15199999999999
 10
298.832
 20
83.475
 10
299.605
 20
77.798
 10
298.997
 20
71.69800000000001
 10
298.439
 20
66.08100000000002
 10
297.88
 20
60.464
 10
297.321
 20
54.84699999999998
 10
296.787
 20
49.486999999999995
 10
296.223
 20
43.821
 10
295.66
 20
38.153999999999996
 10
295.07
 20
32.23000000000002
 10
294.547
 20
26.968999999999994
 10
288.863
 20
25.89699999999999
 10
283.033
 20
24.797000000000025
 10
277.203
 20
23.697000000000003
 10
271.374
 20
22.59699999999998
 10
265.545
 20
21.57299999999998
 10
259.714
 20
20.548000000000002
 10
253.884
 20
19.523000000000025
 10
248.056
 20
18.49799999999999
 10
242.228
 20
17.617999999999995
 10
236.398
 20
16.738
 10
230.568
 20
15.858000000000004
 10
224.741
 20
14.978000000000009
 10
218.914
 20
14.302999999999997
 10
213.084
 20
13.62700000000001
 10
207.253
 20
12.951999999999998
 10
201.427
 20
12.276999999999987
 10
195.601
 20
11.853000000000009
 10
189.771
 20
11.427999999999997
 10
183.941
 20
11.004000000000019
 10
178.115
 20
10.579000000000008
 10
172.29
 20
10.435000000000002
 10
166.459
 20
10.289999999999964
 10
160.629
 20
10.144999999999982
 10
154.804
 20
10.0
 10
148.978
 20
10.144999999999982
 10
143.148
 20
10.289999999999964
 10
137.318
 20
10.435000000000002
 10
131.493
 20
10.579000000000008
 10
125.667
 20
11.004000000000019
 10
119.837
 20
11.427999999999997
 10
114.006
 20
11.853000000000009
 10
108.18
 20
12.276999999999987
 10
102.354
 20
12.951999999999998
 10
96.524
 20
13.62700000000001
 10
90.694
 20
14.302999999999997
 10
84.867
 20
14.978000000000009
 10
79.04
 20
15.858000000000004
 10
73.21
 20
16.738
 10
67.379
 20
17.617999999999995
 10
61.551
 20
18.49799999999999
 10
55.723
 20
19.523000000000025
 10
49.893
 20
20.548000000000002
 10
44.063
 20
21.57299999999998
 10
38.234
 20
22.59699999999998
 10
32.405
 20
23.697000000000003
 10
26.574
 20
24.797000000000025
 10
20.744
 20
25.89699999999999
 10
15.061
 20
26.968999999999994
 10
14.538
 20
32.23000000000002
 10
13.948
 20
38.153999999999996
 10
13.384
 20
43.821
 10
12.82
 20
49.486999999999995
 10
12.264
 20
54.876000000000005
 10
11.702
 20
60.50200000000001
 10
11.137
 20
66.13299999999998
 10
10.57
 20
71.76999999999998
  0
TEXT
  5
96
330
17
100
AcDbEntity
  8
LABEL
100
AcDbText
 10
154.8015
 20
77.26100000000002
 30
0.0
 40
10.0
  1
B piece-2
 72
1
 11
154.8015
 21
77.26100000000002
 31
0.0
100
AcDbText
 73
2
  0
LWPOLYLINE
  5
97
330
17
100
AcDbEntity
  8
CUT
100
AcDbPolyline
 90
210
 70
1
 10
587.8199999999999
 20
12.773000000000025
 10
593.649
 20
13.87299999999999
 10
599.48
 20
14.973000000000013
 10
605.31
 20
16.07299999999998
 10
610.9929999999999
 20
17.144999999999982
 10
611.953
 20
17.375999999999976
 10
612.887
 20
17.701000000000022
 10
613.784
 20
18.115999999999985
 10
614.635
 20
18.617999999999995
 10
615.433
 20
19.201000000000022
 10
616.169
 20
19.860000000000014
 10
616.836
 20
20.589
 10
617.4290000000001
 20
21.379999999999995
 10
617.94
 20
22.225000000000023
 10
618.366
 20
23.116999999999962
 10
618.701
 20
24.045999999999992
 10
618.943
 20
25.00400000000002
 10
619.09
 20
25.98199999999997
 10
619.613
 20
31.24200000000002
 10
620.203
 20
37.166
 10
621.3299999999999
 20
48.498999999999995
 10
621.864
 20
53.85899999999998
 10
622.423
 20
59.474999999999994
 10
622.981
 20
65.09199999999998
 10
623.54
 20
70.709
 10
624.1469999999999
 20
76.809
 10
624.1949999999999
 20
77.97899999999998
 10
624.105
 20
79.14699999999999
 10
623.3330000000001
 20
84.82400000000001
 10
622.969
 20
87.50200000000001
 10
622.818
 20
88.34100000000001
 10
622.596
 20
89.16500000000002
 10
622.3040000000001
 20
89.96699999999998
 10
620.608
 20
94.07900000000001
 10
618.9100000000001
 20
98.19400000000002
 10
618.433
 20
99.191
 10
617.848
 20
100.12899999999999
 10
615.047
 20
104.11500000000001
 10
612.244
 20
108.10399999999998
 10
611.6890000000001
 20
108.822
 10
611.071
 20
109.488
 10
607.2080000000001
 20
113.28399999999999
 10
603.342
 20
117.083
 10
602.222
 20
118.03200000000001
 10
598.981
 20
120.393
 10
595.729
 20
122.763
 10
592.486
 20
125.126
 10
591.476
 20
125.773
 10
587.6179999999999
 20
127.929
 10
583.749
 20
130.092
 10
579.889
 20
132.249
 10
578.9929999999999
 20
132.693
 10
574.577
 20
134.61
 10
570.153
 20
136.532
 10
565.736
 20
138.449
 10
564.938
 20
138.756
 10
560.035
 20
140.403
 10
555.125
 20
142.053
 10
550.221
 20
143.7
 10
549.5
 20
143.913
 10
544.1890000000001
 20
145.263
 10
538.87
 20
146.615
 10
533.558
 20
147.965
 10
532.895
 20
148.11
 10
527.258
 20
149.142
 10
521.614
 20
150.175
 10
515.977
 20
151.207
 10
515.355
 20
151.301
 10
509.48199999999997
 20
151.998
 10
503.603
 20
152.696
 10
497.73
 20
153.394
 10
497.135
 20
153.446
 10
492.624
 20
153.71
 10
488.108
 20
153.974
 10
483.591
 20
154.237
 10
479.081
 20
154.501
 10
478.49800000000005
 20
154.518
 10
473.951
 20
154.518
 10
469.399
 20
154.518
 10
464.847
 20
154.518
 10
460.3
 20
154.518
 10
459.717
 20
154.501
 10
455.207
 20
154.237
 10
450.69
 20
153.974
 10
446.174
 20
153.71
 10
441.663
 20
153.446
 10
441.068
 20
153.394
 10
435.195
 20
152.696
 10
429.31600000000003
 20
151.998
 10
423.443
 20
151.301
 10
422.821
 20
151.207
 10
417.184
 20
150.175
 10
411.54
 20
149.142
 10
405.903
 20
148.11
 10
405.24
 20
147.965
 10
399.928
 20
146.615
 10
394.60900000000004
 20
145.263
 10
389.298
 20
143.913
 10
388.577
 20
143.7
 10
383.673
 20
142.053
 10
378.76300000000003
 20
140.403
 10
373.86
 20
138.756
 10
373.062
 20
138.449
 10
368.645
 20
136.532
 10
364.221
 20
134.61
 10
359.805
 20
132.693
 10
358.909
 20
132.249
 10
355.049
 20
130.092
 10
351.18
 20
127.929
 10
347.321
 20
125.773
 10
346.312
 20
125.126
 10
343.069
 20
122.763
 10
339.817
 20
120.393
 10
336.576
 20
118.03200000000001
 10
335.456
 20
117.083
 10
331.59000000000003
 20
113.28399999999999
 10
327.72700000000003
 20
109.487
 10
327.10900000000004
 20
108.822
 10
326.55400000000003
 20
108.10399999999998
 10
323.75100000000003
 20
104.11500000000001
 10
320.95
 20
100.12899999999999
 10
320.365
 20
99.191
 10
319.88800000000003
 20
98.19400000000002
 10
318.847
 20
95.67099999999999
 10
316.494
 20
89.96699999999998
 10
316.202
 20
89.16500000000002
 10
315.98
 20
88.34199999999998
 10
315.829
 20
87.50200000000001
 10
315.062
 20
81.86000000000001
 10
314.693
 20
79.14699999999999
 10
314.603
 20
77.97899999999998
 10
314.651
 20
76.809
 10
315.212
 20
71.166
 10
315.776
 20
65.499
 10
316.34000000000003
 20
59.831999999999994
 10
316.904
 20
54.166
 10
317.468
 20
48.498999999999995
 10
318.032
 20
42.833
 10
318.595
 20
37.166
 10
319.159
 20
31.499000000000024
 10
319.161
 20
31.478999999999985
 10
319.718
 20
26.000999999999976
 10
319.866
 20
25.02199999999999
 10
320.111
 20
24.062999999999988
 10
320.449
 20
23.133000000000038
 10
320.878
 20
22.24000000000001
 10
321.39300000000003
 20
21.394999999999982
 10
321.98900000000003
 20
20.604000000000042
 10
322.66
 20
19.875999999999976
 10
323.40000000000003
 20
19.21799999999996
 10
324.201
 20
18.637
 10
325.056
 20
18.138000000000034
 10
325.956
 20
17.725000000000023
 10
326.892
 20
17.403999999999996
 10
327.856
 20
17.17700000000002
 10
333.51
 20
16.135999999999967
 10
339.303
 20
15.02800000000002
 10
345.13100000000003
 20
13.913000000000011
 10
350.957
 20
12.798999999999978
 10
351.128
 20
12.768000000000029
 10
356.96000000000004
 20
11.757000000000005
 10
362.793
 20
10.747000000000014
 10
368.577
 20
9.745000000000005
 10
374.348
 20
8.686000000000035
 10
374.623
 20
8.639999999999986
 10
380.447
 20
7.7379999999999995
 10
380.483
 20
7.733000000000004
 10
386.314
 20
6.853000000000009
 10
392.144
 20
5.97199999999998
 10
397.971
 20
5.092999999999961
 10
398.313
 20
5.0470000000000255
 10
404.139
 20
4.372000000000014
 10
409.97
 20
3.6970000000000027
 10
415.8
 20
3.020999999999958
 10
421.626
 20
2.3460000000000036
 10
422.05
 20
2.30600000000004
 10
427.876
 20
1.882000000000005
 10
433.706
 20
1.45799999999997
 10
439.536
 20
1.0330000000000155
 10
445.36199999999997
 20
0.6090000000000373
 10
445.84000000000003
 20
0.5850000000000364
 10
451.665
 20
0.4410000000000309
 10
457.495
 20
0.29599999999999227
 10
463.32500000000005
 20
0.15100000000001046
 10
469.151
 20
0.005999999999971806
 10
469.64700000000005
 20
0.005999999999971806
 10
475.472
 20
0.15100000000001046
 10
481.303
 20
0.29599999999999227
 10
487.13300000000004
 20
0.4410000000000309
 10
492.95799999999997
 20
0.5850000000000364
 10
493.43600000000004
 20
0.6090000000000373
 10
499.262
 20
1.0330000000000155
 10
505.092
 20
1.45799999999997
 10
510.922
 20
1.882000000000005
 10
516.748
 20
2.30600000000004
 10
517.172
 20
2.3460000000000036
 10
522.998
 20
3.020999999999958
 10
528.828
 20
3.6970000000000027
 10
534.659
 20
4.372000000000014
 10
540.485
 20
5.0470000000000255
 10
540.827
 20
5.092999999999961
 10
546.654
 20
5.97199999999998
 10
552.484
 20
6.853000000000009
 10
558.3140000000001
 20
7.733000000000004
 10
564.142
 20
8.613
 10
564.381
 20
8.651999999999987
 10
570.428
 20
9.715000000000032
 10
576.235
 20
10.73599999999999
 10
582.042
 20
11.757000000000005
 10
587.6980000000001
 20
12.750999999999976
  0
LWPOLYLINE
  5
98
330
17
100
AcDbEntity
  8
STITCH
100
AcDbPolyline
 90
136
 70
1
 10
585.966
 20
22.600000000000023
 10
580.31
 20
21.605999999999995
 10
574.5029999999999
 20
20.585000000000036
 10
568.697
 20
19.563999999999965
 10
562.649
 20
18.500999999999976
 10
556.822
 20
17.62099999999998
 10
550.991
 20
16.740999999999985
 10
545.1610000000001
 20
15.860000000000014
 10
539.3340000000001
 20
14.980999999999995
 10
533.508
 20
14.30600000000004
 10
527.678
 20
13.629999999999995
 10
521.847
 20
12.955000000000041
 10
516.022
 20
12.279999999999973
 10
510.196
 20
11.855999999999995
 10
504.365
 20
11.43100000000004
 10
498.53499999999997
 20
11.007000000000005
 10
492.71000000000004
 20
10.581999999999994
 10
486.884
 20
10.437999999999988
 10
481.054
 20
10.293000000000006
 10
475.22400000000005
 20
10.148000000000025
 10
469.399
 20
10.003000000000043
 10
463.574
 20
10.148000000000025
 10
457.744
 20
10.293000000000006
 10
451.913
 20
10.437999999999988
 10
446.088
 20
10.581999999999994
 10
440.26300000000003
 20
11.007000000000005
 10
434.432
 20
11.43100000000004
 10
428.602
 20
11.855999999999995
 10
422.776
 20
12.279999999999973
 10
416.95
 20
12.955000000000041
 10
411.12
 20
13.629999999999995
 10
405.29
 20
14.30600000000004
 10
399.463
 20
14.980999999999995
 10
393.637
 20
15.860000000000014
 10
387.807
 20
16.740999999999985
 10
381.976
 20
17.62099999999998
 10
376.153
 20
18.52199999999999
 10
370.333
 20
19.590000000000032
 10
364.5
 20
20.600000000000023
 10
358.66700000000003
 20
21.61099999999999
 10
352.83500000000004
 20
22.62099999999998
 10
347.009
 20
23.735000000000014
 10
341.182
 20
24.850000000000023
 10
335.354
 20
25.964
 10
329.666
 20
27.010999999999967
 10
329.11
 20
32.49000000000001
 10
328.546
 20
38.156000000000006
 10
327.982
 20
43.82300000000001
 10
327.418
 20
49.489000000000004
 10
326.855
 20
55.156000000000006
 10
326.291
 20
60.82300000000001
 10
325.72700000000003
 20
66.489
 10
325.163
 20
72.156
 10
324.601
 20
77.799
 10
324.971
 20
80.512
 10
325.738
 20
86.154
 10
328.091
 20
91.857
 10
329.132
 20
94.38
 10
331.933
 20
98.36599999999999
 10
334.736
 20
102.35500000000002
 10
338.599
 20
106.15100000000001
 10
342.46500000000003
 20
109.94999999999999
 10
345.706
 20
112.311
 10
348.958
 20
114.68099999999998
 10
352.2
 20
117.04400000000001
 10
356.059
 20
119.19999999999999
 10
359.928
 20
121.363
 10
363.788
 20
123.52000000000001
 10
368.204
 20
125.43799999999999
 10
372.628
 20
127.35900000000001
 10
377.045
 20
129.277
 10
381.947
 20
130.924
 10
386.858
 20
132.574
 10
391.761
 20
134.221
 10
397.073
 20
135.571
 10
402.392
 20
136.923
 10
407.704
 20
138.274
 10
413.341
 20
139.306
 10
418.98400000000004
 20
140.339
 10
424.622
 20
141.371
 10
430.494
 20
142.068
 10
436.373
 20
142.766
 10
442.247
 20
143.463
 10
446.757
 20
143.727
 10
451.273
 20
143.991
 10
455.79
 20
144.254
 10
460.3
 20
144.518
 10
464.847
 20
144.518
 10
469.399
 20
144.518
 10
473.951
 20
144.518
 10
478.49800000000005
 20
144.518
 10
483.00800000000004
 20
144.254
 10
487.525
 20
143.991
 10
492.041
 20
143.727
 10
496.55100000000004
 20
143.463
 10
502.425
 20
142.766
 10
508.304
 20
142.068
 10
514.176
 20
141.371
 10
519.8140000000001
 20
140.339
 10
525.457
 20
139.306
 10
531.094
 20
138.274
 10
536.406
 20
136.923
 10
541.725
 20
135.571
 10
547.037
 20
134.221
 10
551.94
 20
132.574
 10
556.851
 20
130.924
 10
561.753
 20
129.277
 10
566.1700000000001
 20
127.35900000000001
 10
570.594
 20
125.43799999999999
 10
575.01
 20
123.52000000000001
 10
578.87
 20
121.363
 10
582.739
 20
119.19999999999999
 10
586.598
 20
117.04400000000001
 10
589.84
 20
114.68099999999998
 10
593.092
 20
112.311
 10
596.3330000000001
 20
109.94999999999999
 10
600.1990000000001
 20
106.15100000000001
 10
604.062
 20
102.35500000000002
 10
606.865
 20
98.36599999999999
 10
609.6659999999999
 20
94.38
 10
611.364
 20
90.26499999999999
 10
613.06
 20
86.154
 10
613.424
 20
83.476
 10
614.197
 20
77.799
 10
613.59
 20
71.69900000000001
 10
613.031
 20
66.082
 10
612.472
 20
60.46600000000001
 10
611.913
 20
54.84899999999999
 10
611.379
 20
49.489000000000004
 10
610.816
 20
43.82300000000001
 10
610.252
 20
38.156000000000006
 10
609.662
 20
32.23199999999997
 10
609.139
 20
26.97199999999998
 10
603.456
 20
25.899999999999977
 10
597.626
 20
24.80000000000001
 10
591.7950000000001
 20
23.69999999999999
  0
TEXT
  5
99
330
17
100
AcDbEntity
  8
LABEL
100
AcDbText
 10
469.399
 20
77.262
 30
0.0
 40
10.0
  1
C piece-3
 72
1
 11
469.399
 21
77.262
 31
0.0
100
AcDbText
 73
2
  0
LWPOLYLINE
  5
9A
330
17
100
AcDbEntity
  8
CUT
100
AcDbPolyline
 90
175
 70
1
 10
739.969
 20
202.519
 10
745.902
 20
202.519
 10
751.835
 20
202.519
 10
757.768
 20
202.519
 10
763.501
 20
202.519
 10
764.481
 20
202.567
 10
765.452
 20
202.711
 10
766.404
 20
202.95
 10
767.328
 20
203.28
 10
768.2149999999999
 20
203.7
 10
769.057
 20
204.204
 10
769.845
 20
204.789
 10
770.572
 20
205.448
 10
771.231
 20
206.175
 10
771.816
 20
206.96300000000002
 10
772.3209999999999
 20
207.805
 10
772.74
 20
208.692
 10
773.0709999999999
 20
209.61599999999999
 10
773.309
 20
210.56799999999998
 10
773.453
 20
211.539
 10
773.501
 20
212.519
 10
773.501
 20
217.894
 10
773.501
 20
223.858
 10
773.501
 20
229.627
 10
773.501
 20
235.37800000000001
 10
773.521
 20
240.911
 10
773.521
 20
240.943
 10
773.524
 20
246.67000000000002
 10
773.528
 20
252.4
 10
773.534
 20
258.135
 10
773.543
 20
263.878
 10
773.5550000000001
 20
269.632
 10
773.5709999999999
 20
275.401
 10
773.594
 20
281.192
 10
773.623
 20
287.022
 10
773.5799999999999
 20
288.005
 10
773.44
 20
288.979
 10
773.2049999999999
 20
289.934
 10
772.8779999999999
 20
290.861
 10
772.461
 20
291.752
 10
771.9590000000001
 20
292.598
 10
771.375
 20
293.39
 10
770.717
 20
294.121
 10
769.991
 20
294.784
 10
769.203
 20
295.372
 10
768.36
 20
295.88
 10
767.472
 20
296.303
 10
766.547
 20
296.636
 10
765.5930000000001
 20
296.877
 10
764.621
 20
297.023
 10
763.6379999999999
 20
297.073
 10
757.722
 20
297.082
 10
751.804
 20
297.088
 10
745.886
 20
297.091
 10
739.9929999999999
 20
297.092
 10
734.048
 20
297.12
 10
734.002
 20
297.12
 10
728.098
 20
297.12
 10
722.194
 20
297.12
 10
716.29
 20
297.12
 10
710.346
 20
297.12
 10
704.466
 20
297.12
 10
698.585
 20
297.12
 10
692.704
 20
297.12
 10
686.788
 20
297.12
 10
669.227
 20
297.12
 10
663.335
 20
297.12
 10
657.505
 20
297.12
 10
651.675
 20
297.12
 10
645.844
 20
297.12
 10
639.966
 20
297.12
 10
593.295
 20
297.12
 10
587.465
 20
297.12
 10
581.635
 20
297.12
 10
552.328
 20
297.12
 10
546.384
 20
297.12
 10
540.5029999999999
 20
297.12
 10
534.623
 20
297.12
 10
528.742
 20
297.12
 10
522.775
 20
297.12
 10
516.871
 20
297.12
 10
510.967
 20
297.12
 10
505.063
 20
297.12
 10
499.13
 20
297.12
 10
493.197
 20
297.12
 10
487.264
 20
297.12
 10
481.531
 20
297.12
 10
480.551
 20
297.072
 10
479.58
 20
296.928
 10
478.628
 20
296.689
 10
477.704
 20
296.359
 10
476.817
 20
295.939
 10
475.97499999999997
 20
295.435
 10
475.187
 20
294.85
 10
474.46
 20
294.19100000000003
 10
473.801
 20
293.464
 10
473.216
 20
292.676
 10
472.712
 20
291.834
 10
472.292
 20
290.947
 10
471.961
 20
290.023
 10
471.723
 20
289.071
 10
471.579
 20
288.1
 10
471.531
 20
287.12
 10
471.531
 20
281.745
 10
471.531
 20
275.781
 10
471.531
 20
270.012
 10
471.531
 20
264.261
 10
471.51099999999997
 20
258.728
 10
471.51099999999997
 20
258.696
 10
471.508
 20
252.969
 10
471.504
 20
247.239
 10
471.498
 20
241.50400000000002
 10
471.489
 20
235.761
 10
471.477
 20
230.007
 10
471.461
 20
224.238
 10
471.438
 20
218.447
 10
471.409
 20
212.61599999999999
 10
471.452
 20
211.63400000000001
 10
471.592
 20
210.66000000000003
 10
471.827
 20
209.70499999999998
 10
472.154
 20
208.77800000000002
 10
472.57099999999997
 20
207.887
 10
473.074
 20
207.041
 10
473.657
 20
206.24900000000002
 10
474.315
 20
205.518
 10
475.041
 20
204.85500000000002
 10
475.83
 20
204.267
 10
476.67199999999997
 20
203.75900000000001
 10
477.56
 20
203.336
 10
478.485
 20
203.003
 10
479.43899999999996
 20
202.762
 10
480.411
 20
202.61599999999999
 10
481.394
 20
202.566
 10
487.31
 20
202.55700000000002
 10
493.228
 20
202.551
 10
499.146
 20
202.548
 10
505.039
 20
202.546
 10
510.984
 20
202.519
 10
511.03
 20
202.519
 10
516.934
 20
202.519
 10
522.838
 20
202.519
 10
528.742
 20
202.519
 10
534.686
 20
202.519
 10
540.566
 20
202.519
 10
546.447
 20
202.519
 10
552.328
 20
202.519
 10
558.244
 20
202.519
 10
564.097
 20
202.519
 10
569.951
 20
202.519
 10
575.805
 20
202.519
 10
587.527
 20
202.519
 10
593.358
 20
202.519
 10
599.188
 20
202.519
 10
605.066
 20
202.519
 10
610.883
 20
202.519
 10
616.7
 20
202.519
 10
622.516
 20
202.519
 10
628.395
 20
202.519
 10
634.211
 20
202.519
 10
640.028
 20
202.519
 10
645.844
 20
202.519
 10
651.737
 20
202.519
 10
657.567
 20
202.519
 10
663.3969999999999
 20
202.519
 10
669.227
 20
202.519
 10
675.143
 20
202.519
 10
680.997
 20
202.519
 10
692.704
 20
202.519
 10
698.648
 20
202.519
 10
704.529
 20
202.519
 10
710.409
 20
202.519
 10
716.29
 20
202.519
 10
722.2570000000001
 20
202.519
 10
728.1610000000001
 20
202.519
 10
734.065
 20
202.519
  0
LWPOLYLINE
  5
9B
330
17
100
AcDbEntity
  8
STITCH
100
AcDbPolyline
 90
122
 70
1
 10
739.969
 20
212.519
 10
734.065
 20
212.519
 10
728.1610000000001
 20
212.519
 10
722.2570000000001
 20
212.519
 10
716.29
 20
212.519
 10
710.409
 20
212.519
 10
704.529
 20
212.519
 10
698.648
 20
212.519
 10
692.704
 20
212.519
 10
686.851
 20
212.519
 10
680.997
 20
212.519
 10
675.144
 20
212.519
 10
669.227
 20
212.519
 10
663.3969999999999
 20
212.519
 10
657.567
 20
212.519
 10
651.737
 20
212.519
 10
645.844
 20
212.519
 10
640.028
 20
212.519
 10
634.211
 20
212.519
 10
628.395
 20
212.519
 10
622.516
 20
212.519
 10
616.699
 20
212.519
 10
610.883
 20
212.519
 10
605.066
 20
212.519
 10
599.188
 20
212.519
 10
593.357
 20
212.519
 10
587.527
 20
212.519
 10
581.697
 20
212.519
 10
575.805
 20
212.519
 10
569.951
 20
212.519
 10
564.097
 20
212.519
 10
558.244
 20
212.519
 10
552.328
 20
212.519
 10
546.447
 20
212.519
 10
540.566
 20
212.519
 10
534.686
 20
212.519
 10
528.742
 20
212.519
 10
522.838
 20
212.519
 10
516.934
 20
212.519
 10
511.03
 20
212.519
 10
505.063
 20
212.546
 10
499.14799999999997
 20
212.548
 10
493.234
 20
212.551
 10
487.32
 20
212.55700000000002
 10
481.409
 20
212.566
 10
481.438
 20
218.402
 10
481.46
 20
224.20499999999998
 10
481.477
 20
229.982
 10
481.489
 20
235.743
 10
481.498
 20
241.491
 10
481.504
 20
247.23000000000002
 10
481.508
 20
252.96300000000002
 10
481.51099999999997
 20
258.692
 10
481.531
 20
264.243
 10
481.531
 20
270.012
 10
481.531
 20
275.781
 10
481.531
 20
281.745
 10
481.531
 20
287.12
 10
487.264
 20
287.12
 10
493.197
 20
287.12
 10
499.13
 20
287.12
 10
505.063
 20
287.12
 10
510.967
 20
287.12
 10
516.871
 20
287.12
 10
522.775
 20
287.12
 10
528.742
 20
287.12
 10
534.623
 20
287.12
 10
540.5029999999999
 20
287.12
 10
546.384
 20
287.12
 10
552.328
 20
287.12
 10
558.181
 20
287.12
 10
564.035
 20
287.12
 10
569.888
 20
287.12
 10
575.805
 20
287.12
 10
581.635
 20
287.12
 10
587.465
 20
287.12
 10
593.295
 20
287.12
 10
599.188
 20
287.12
 10
605.004
 20
287.12
 10
610.821
 20
287.12
 10
616.637
 20
287.12
 10
622.516
 20
287.12
 10
628.333
 20
287.12
 10
634.149
 20
287.12
 10
639.966
 20
287.12
 10
645.844
 20
287.12
 10
651.675
 20
287.12
 10
657.505
 20
287.12
 10
663.335
 20
287.12
 10
669.227
 20
287.12
 10
675.081
 20
287.12
 10
680.935
 20
287.12
 10
686.788
 20
287.12
 10
692.704
 20
287.12
 10
698.585
 20
287.12
 10
704.466
 20
287.12
 10
710.346
 20
287.12
 10
716.29
 20
287.12
 10
722.194
 20
287.12
 10
728.098
 20
287.12
 10
734.002
 20
287.12
 10
739.969
 20
287.092
 10
745.884
 20
287.091
 10
751.798
 20
287.088
 10
757.712
 20
287.082
 10
763.623
 20
287.073
 10
763.594
 20
281.237
 10
763.572
 20
275.434
 10
763.5550000000001
 20
269.656
 10
763.543
 20
263.896
 10
763.534
 20
258.148
 10
763.528
 20
252.409
 10
763.524
 20
246.676
 10
763.521
 20
240.947
 10
763.501
 20
235.39600000000002
 10
763.501
 20
229.627
 10
763.501
 20
223.858
 10
763.501
 20
217.894
 10
763.501
 20
212.519
 10
757.768
 20
212.519
 10
751.835
 20
212.519
 10
745.902
 20
212.519
  0
TEXT
  5
9C
330
17
100
AcDbEntity
  8
LABEL
100
AcDbText
 10
622.5160000000001
 20
249.8195
 30
0.0
 40
10.0
  1
D piece-4
 72
1
 11
622.5160000000001
 21
249.8195
 31
0.0
100
AcDbText
 73
2
  0
LWPOLYLINE
  5
9D
330
17
100
AcDbEntity
  8
CUT
100
AcDbPolyline
 90
194
 70
1
 10
778.623
 20
287.12
 10
778.623
 20
285.87
 10
778.623
 20
284.62
 10
778.623
 20
283.37
 10
778.623
 20
282.12
 10
778.623
 20
280.87
 10
778.623
 20
279.62
 10
778.623
 20
278.37
 10
778.623
 20
277.12
 10
778.623
 20
275.87
 10
778.623
 20
274.62
 10
778.623
 20
273.37
 10
778.623
 20
272.12
 10
778.623
 20
270.87
 10
778.623
 20
269.62
 10
778.623
 20
268.37
 10
778.623
 20
267.12
 10
778.671
 20
266.14
 10
778.815
 20
265.169
 10
779.053
 20
264.217
 10
779.384
 20
263.293
 10
779.804
 20
262.406
 10
780.308
 20
261.564
 10
780.893
 20
260.776
 10
781.552
 20
260.049
 10
782.279
 20
259.39
 10
783.067
 20
258.805
 10
783.909
 20
258.301
 10
784.796
 20
257.88100000000003
 10
785.72
 20
257.551
 10
786.672
 20
257.312
 10
787.643
 20
257.168
 10
788.623
 20
257.12
 10
789.845
 20
257.12
 10
945.024
 20
257.12
 10
946.004
 20
257.168
 10
946.975
 20
257.312
 10
947.927
 20
257.551
 10
948.851
 20
257.88100000000003
 10
949.738
 20
258.301
 10
950.58
 20
258.805
 10
951.368
 20
259.39
 10
952.095
 20
260.049
 10
952.754
 20
260.776
 10
953.339
 20
261.564
 10
953.843
 20
262.406
 10
954.263
 20
263.293
 10
954.593
 20
264.217
 10
954.832
 20
265.169
 10
954.976
 20
266.14
 10
955.024
 20
267.12
 10
955.024
 20
287.12
 10
954.976
 20
288.1
 10
954.832
 20
289.071
 10
954.593
 20
290.023
 10
954.263
 20
290.947
 10
953.843
 20
291.834
 10
953.339
 20
292.676
 10
952.754
 20
293.464
 10
952.095
 20
294.19100000000003
 10
951.368
 20
294.85
 10
950.58
 20
295.435
 10
949.738
 20
295.939
 10
948.851
 20
296.359
 10
947.927
 20
296.689
 10
946.975
 20
296.928
 10
946.004
 20
297.072
 10
945.024
 20
297.12
 10
943.802
 20
297.12
 10
942.58
 20
297.12
 10
941.358
 20
297.12
 10
940.136
 20
297.12
 10
938.915
 20
297.12
 10
937.693
 20
297.12
 10
936.471
 20
297.12
 10
934.027
 20
297.12
 10
932.805
 20
297.12
 10
931.583
 20
297.12
 10
929.14
 20
297.12
 10
927.918
 20
297.12
 10
926.696
 20
297.12
 10
924.252
 20
297.12
 10
923.03
 20
297.12
 10
921.808
 20
297.12
 10
920.586
 20
297.12
 10
919.364
 20
297.12
 10
918.143
 20
297.12
 10
916.921
 20
297.12
 10
914.477
 20
297.12
 10
913.255
 20
297.12
 10
912.033
 20
297.12
 10
910.811
 20
297.12
 10
909.5889999999999
 20
297.12
 10
908.367
 20
297.12
 10
907.146
 20
297.12
 10
905.924
 20
297.12
 10
904.702
 20
297.12
 10
903.48
 20
297.12
 10
902.258
 20
297.12
 10
901.0360000000001
 20
297.12
 10
899.814
 20
297.12
 10
898.592
 20
297.12
 10
897.371
 20
297.12
 10
896.149
 20
297.12
 10
894.927
 20
297.12
 10
893.705
 20
297.12
 10
892.483
 20
297.12
 10
891.261
 20
297.12
 10
890.039
 20
297.12
 10
888.817
 20
297.12
 10
887.595
 20
297.12
 10
886.374
 20
297.12
 10
885.152
 20
297.12
 10
883.9300000000001
 20
297.12
 10
882.708
 20
297.12
 10
880.264
 20
297.12
 10
879.042
 20
297.12
 10
877.82
 20
297.12
 10
875.377
 20
297.12
 10
874.155
 20
297.12
 10
872.933
 20
297.12
 10
871.711
 20
297.12
 10
870.489
 20
297.12
 10
869.267
 20
297.12
 10
868.045
 20
297.12
 10
866.823
 20
297.12
 10
865.602
 20
297.12
 10
863.158
 20
297.12
 10
861.936
 20
297.12
 10
860.7139999999999
 20
297.12
 10
859.492
 20
297.12
 10
858.27
 20
297.12
 10
855.826
 20
297.12
 10
854.605
 20
297.12
 10
853.383
 20
297.12
 10
852.1610000000001
 20
297.12
 10
850.939
 20
297.12
 10
849.717
 20
297.12
 10
848.495
 20
297.12
 10
846.051
 20
297.12
 10
844.83
 20
297.12
 10
843.608
 20
297.12
 10
842.386
 20
297.12
 10
841.164
 20
297.12
 10
838.72
 20
297.12
 10
837.498
 20
297.12
 10
836.276
 20
297.12
 10
835.054
 20
297.12
 10
833.833
 20
297.12
 10
831.389
 20
297.12
 10
830.167
 20
297.12
 10
828.945
 20
297.12
 10
827.723
 20
297.12
 10
824.057
 20
297.12
 10
821.614
 20
297.12
 10
820.392
 20
297.12
 10
819.17
 20
297.12
 10
817.948
 20
297.12
 10
816.726
 20
297.12
 10
815.504
 20
297.12
 10
814.282
 20
297.12
 10
810.617
 20
297.12
 10
809.395
 20
297.12
 10
808.173
 20
297.12
 10
806.951
 20
297.12
 10
804.5070000000001
 20
297.12
 10
803.285
 20
297.12
 10
802.064
 20
297.12
 10
800.842
 20
297.12
 10
799.62
 20
297.12
 10
798.398
 20
297.12
 10
797.1759999999999
 20
297.12
 10
795.954
 20
297.12
 10
794.732
 20
297.12
 10
793.51
 20
297.12
 10
792.288
 20
297.12
 10
791.067
 20
297.12
 10
789.845
 20
297.12
 10
788.623
 20
297.12
 10
787.643
 20
297.072
 10
786.672
 20
296.928
 10
785.72
 20
296.689
 10
784.796
 20
296.359
 10
783.909
 20
295.939
 10
783.067
 20
295.435
 10
782.279
 20
294.85
 10
781.552
 20
294.19100000000003
 10
780.893
 20
293.464
 10
780.308
 20
292.676
 10
779.804
 20
291.834
 10
779.384
 20
290.947
 10
779.053
 20
290.023
 10
778.815
 20
289.071
 10
778.671
 20
288.1
  0
LWPOLYLINE
  5
9E
330
17
100
AcDbEntity
  8
STITCH
100
AcDbPolyline
 90
288
 70
1
 10
788.623
 20
287.12
 10
789.845
 20
287.12
 10
791.067
 20
287.12
 10
792.288
 20
287.12
 10
793.51
 20
287.12
 10
794.732
 20
287.12
 10
795.954
 20
287.12
 10
797.1759999999999
 20
287.12
 10
798.398
 20
287.12
 10
799.62
 20
287.12
 10
800.842
 20
287.12
 10
802.064
 20
287.12
 10
803.285
 20
287.12
 10
804.5070000000001
 20
287.12
 10
805.729
 20
287.12
 10
806.951
 20
287.12
 10
808.173
 20
287.12
 10
809.395
 20
287.12
 10
810.617
 20
287.12
 10
811.8389999999999
 20
287.12
 10
813.061
 20
287.12
 10
814.282
 20
287.12
 10
815.504
 20
287.12
 10
816.726
 20
287.12
 10
817.948
 20
287.12
 10
819.17
 20
287.12
 10
820.392
 20
287.12
 10
821.614
 20
287.12
 10
822.836
 20
287.12
 10
824.057
 20
287.12
 10
825.279
 20
287.12
 10
826.501
 20
287.12
 10
827.723
 20
287.12
 10
828.945
 20
287.12
 10
830.167
 20
287.12
 10
831.389
 20
287.12
 10
832.611
 20
287.12
 10
833.833
 20
287.12
 10
835.054
 20
287.12
 10
836.276
 20
287.12
 10
837.498
 20
287.12
 10
838.72
 20
287.12
 10
839.942
 20
287.12
 10
841.164
 20
287.12
 10
842.386
 20
287.12
 10
843.608
 20
287.12
 10
844.83
 20
287.12
 10
846.051
 20
287.12
 10
847.273
 20
287.12
 10
848.495
 20
287.12
 10
849.717
 20
287.12
 10
850.939
 20
287.12
 10
852.1610000000001
 20
287.12
 10
853.383
 20
287.12
 10
854.605
 20
287.12
 10
855.826
 20
287.12
 10
857.048
 20
287.12
 10
858.27
 20
287.12
 10
859.492
 20
287.12
 10
860.7139999999999
 20
287.12
 10
861.936
 20
287.12
 10
863.158
 20
287.12
 10
864.38
 20
287.12
 10
865.602
 20
287.12
 10
866.823
 20
287.12
 10
868.045
 20
287.12
 10
869.267
 20
287.12
 10
870.489
 20
287.12
 10
871.711
 20
287.12
 10
872.933
 20
287.12
 10
874.155
 20
287.12
 10
875.377
 20
287.12
 10
876.598
 20
287.12
 10
877.82
 20
287.12
 10
879.042
 20
287.12
 10
880.264
 20
287.12
 10
881.486
 20
287.12
 10
882.708
 20
287.12
 10
883.9300000000001
 20
287.12
 10
885.152
 20
287.12
 10
886.374
 20
287.12
 10
887.595
 20
287.12
 10
888.817
 20
287.12
 10
890.039
 20
287.12
 10
891.261
 20
287.12
 10
892.483
 20
287.12
 10
893.705
 20
287.12
 10
894.927
 20
287.12
 10
896.149
 20
287.12
 10
897.371
 20
287.12
 10
898.592
 20
287.12
 10
899.814
 20
287.12
 10
901.0360000000001
 20
287.12
 10
902.258
 20
287.12
 10
903.48
 20
287.12
 10
904.702
 20
287.12
 10
905.924
 20
287.12
 10
907.146
 20
287.12
 10
908.367
 20
287.12
 10
909.5889999999999
 20
287.12
 10
910.811
 20
287.12
 10
912.033
 20
287.12
 10
913.255
 20
287.12
 10
914.477
 20
287.12
 10
915.699
 20
287.12
 10
916.921
 20
287.12
 10
918.143
 20
287.12
 10
919.364
 20
287.12
 10
920.586
 20
287.12
 10
921.808
 20
287.12
 10
923.03
 20
287.12
 10
924.252
 20
287.12
 10
925.474
 20
287.12
 10
926.696
 20
287.12
 10
927.918
 20
287.12
 10
929.14
 20
287.12
 10
930.361
 20
287.12
 10
931.583
 20
287.12
 10
932.805
 20
287.12
 10
934.027
 20
287.12
 10
935.249
 20
287.12
 10
936.471
 20
287.12
 10
937.693
 20
287.12
 10
938.915
 20
287.12
 10
940.136
 20
287.12
 10
941.358
 20
287.12
 10
942.58
 20
287.12
 10
943.802
 20
287.12
 10
945.024
 20
287.12
 10
945.024
 20
285.87
 10
945.024
 20
284.62
 10
945.024
 20
283.37
 10
945.024
 20
282.12
 10
945.024
 20
280.87
 10
945.024
 20
279.62
 10
945.024
 20
278.37
 10
945.024
 20
277.12
 10
945.024
 20
275.87
 10
945.024
 20
274.62
 10
945.024
 20
273.37
 10
945.024
 20
272.12
 10
945.024
 20
270.87
 10
945.024
 20
269.62
 10
945.024
 20
268.37
 10
945.024
 20
267.12
 10
943.802
 20
267.12
 10
942.58
 20
267.12
 10
941.358
 20
267.12
 10
940.136
 20
267.12
 10
938.915
 20
267.12
 10
937.693
 20
267.12
 10
936.471
 20
267.12
 10
935.249
 20
267.12
 10
934.027
 20
267.12
 10
932.805
 20
267.12
 10
931.583
 20
267.12
 10
930.361
 20
267.12
 10
929.14
 20
267.12
 10
927.918
 20
267.12
 10
926.696
 20
267.12
 10
925.474
 20
267.12
 10
924.252
 20
267.12
 10
923.03
 20
267.12
 10
921.808
 20
267.12
 10
920.586
 20
267.12
 10
919.364
 20
267.12
 10
918.143
 20
267.12
 10
916.921
 20
267.12
 10
915.699
 20
267.12
 10
914.477
 20
267.12
 10
913.255
 20
267.12
 10
912.033
 20
267.12
 10
910.811
 20
267.12
 10
909.5889999999999
 20
267.12
 10
908.367
 20
267.12
 10
907.146
 20
267.12
 10
905.924
 20
267.12
 10
904.702
 20
267.12
 10
903.48
 20
267.12
 10
902.258
 20
267.12
 10
901.0360000000001
 20
267.12
 10
899.814
 20
267.12
 10
898.592
 20
267.12
 10
897.371
 20
267.12
 10
896.149
 20
267.12
 10
894.927
 20
267.12
 10
893.705
 20
267.12
 10
892.483
 20
267.12
 10
891.261
 20
267.12
 10
890.039
 20
267.12
 10
888.817
 20
267.12
 10
887.595
 20
267.12
 10
886.374
 20
267.12
 10
885.152
 20
267.12
 10
883.9300000000001
 20
267.12
 10
882.708
 20
267.12
 10
881.486
 20
267.12
 10
880.264
 20
267.12
 10
879.042
 20
267.12
 10
877.82
 20
267.12
 10
876.598
 20
267.12
 10
875.377
 20
267.12
 10
874.155
 20
267.12
 10
872.933
 20
267.12
 10
871.711
 20
267.12
 10
870.489
 20
267.12
 10
869.267
 20
267.12
 10
868.045
 20
267.12
 10
866.823
 20
267.12
 10
865.602
 20
267.12
 10
864.38
 20
267.12
 10
863.158
 20
267.12
 10
861.936
 20
267.12
 10
860.7139999999999
 20
267.12
 10
859.492
 20
267.12
 10
858.27
 20
267.12
 10
857.048
 20
267.12
 10
855.826
 20
267.12
 10
854.605
 20
267.12
 10
853.383
 20
267.12
 10
852.1610000000001
 20
267.12
 10
850.939
 20
267.12
 10
849.717
 20
267.12
 10
848.495
 20
267.12
 10
847.273
 20
267.12
 10
846.051
 20
267.12
 10
844.83
 20
267.12
 10
843.608
 20
267.12
 10
842.386
 20
267.12
 10
841.164
 20
267.12
 10
839.942
 20
267.12
 10
838.72
 20
267.12
 10
837.498
 20
267.12
 10
836.276
 20
267.12
 10
835.054
 20
267.12
 10
833.833
 20
267.12
 10
832.611
 20
267.12
 10
831.389
 20
267.12
 10
830.167
 20
267.12
 10
828.945
 20
267.12
 10
827.723
 20
267.12
 10
826.501
 20
267.12
 10
825.279
 20
267.12
 10
824.057
 20
267.12
 10
822.836
 20
267.12
 10
821.614
 20
267.12
 10
820.392
 20
267.12
 10
819.17
 20
267.12
 10
817.948
 20
267.12
 10
816.726
 20
267.12
 10
815.504
 20
267.12
 10
814.282
 20
267.12
 10
813.061
 20
267.12
 10
811.8389999999999
 20
267.12
 10
810.617
 20
267.12
 10
809.395
 20
267.12
 10
808.173
 20
267.12
 10
806.951
 20
267.12
 10
805.729
 20
267.12
 10
804.5070000000001
 20
267.12
 10
803.285
 20
267.12
 10
802.064
 20
267.12
 10
800.842
 20
267.12
 10
799.62
 20
267.12
 10
798.398
 20
267.12
 10
797.1759999999999
 20
267.12
 10
795.954
 20
267.12
 10
794.732
 20
267.12
 10
793.51
 20
267.12
 10
792.288
 20
267.12
 10
791.067
 20
267.12
 10
789.845
 20
267.12
 10
788.623
 20
267.12
 10
788.623
 20
268.37
 10
788.623
 20
269.62
 10
788.623
 20
270.87
 10
788.623
 20
272.12
 10
788.623
 20
273.37
 10
788.623
 20
274.62
 10
788.623
 20
275.87
 10
788.623
 20
277.12
 10
788.623
 20
278.37
 10
788.623
 20
279.62
 10
788.623
 20
280.87
 10
788.623
 20
282.12
 10
788.623
 20
283.37
 10
788.623
 20
284.62
 10
788.623
 20
285.87
  0
TEXT
  5
9F
330
17
100
AcDbEntity
  8
LABEL
100
AcDbText
 10
866.8235
 20
277.12
 30
0.0
 40
10.0
  1
F piece-6
 72
1
 11
866.8235
 21
277.12
 31
0.0
100
AcDbText
 73
2
  0
ENDSEC
  0
SECTION
  2
OBJECTS
  0
DICTIONARY
  5
A
330
0
100
AcDbDictionary
281
1
  3
ACAD_COLOR
350
B
  3
ACAD_GROUP
350
C
  3
ACAD_LAYOUT
350
D
  3
ACAD_MATERIAL
350
E
  3
ACAD_MLEADERSTYLE
350
F
  3
ACAD_MLINESTYLE
350
10
  3
ACAD_PLOTSETTINGS
350
11
  3
ACAD_PLOTSTYLENAME
350
12
  3
ACAD_SCALELIST
350
14
  3
ACAD_TABLESTYLE
350
15
  3
ACAD_VISUALSTYLE
350
16
  3
EZDXF_META
350
2D
  0
DICTIONARY
  5
B
330
A
100
AcDbDictionary
281
1
  0
DICTIONARY
  5
C
330
A
100
AcDbDictionary
281
1
  0
DICTIONARY
  5
D
330
A
100
AcDbDictionary
281
1
  3
Model
350
1A
  3
Layout1
350
1E
  0
DICTIONARY
  5
E
330
A
100
AcDbDictionary
281
1
  3
ByBlock
350
1F
  3
ByLayer
350
20
  3
Global
350
21
  0
DICTIONARY
  5
F
330
A
100
AcDbDictionary
281
1
  3
Standard
350
2C
  0
DICTIONARY
  5
10
330
A
100
AcDbDictionary
281
1
  3
Standard
350
22
  0
DICTIONARY
  5
11
330
A
100
AcDbDictionary
281
1
  0
ACDBDICTIONARYWDFLT
  5
12
330
A
100
AcDbDictionary
281
1
  3
Normal
350
13
100
AcDbDictionaryWithDefault
340
13
  0
ACDBPLACEHOLDER
  5
13
330
12
  0
DICTIONARY
  5
14
330
A
100
AcDbDictionary
281
1
  0
DICTIONARY
  5
15
330
A
100
AcDbDictionary
281
1
  0
DICTIONARY
  5
16
330
A
100
AcDbDictionary
281
1
  3
2dWireframe
350
5A
  3
Basic
350
5B
  3
Brighten
350
5C
  3
ColorChange
350
5D
  3
Conceptual
350
5E
  3
Dim
350
5F
  3
EdgeColorOff
350
60
  3
Facepattern
350
61
  3
Flat
350
62
  3
FlatWithEdges
350
63
  3
Gouraud
350
64
  3
GouraudWithEdges
350
65
  3
Hidden
350
66
  3
JitterOff
350
67
  3
Linepattern
350
68
  3
Modeling
350
69
  3
OverhangOff
350
6A
  3
Realistic
350
6B
  3
Shaded
350
6C
  3
Shaded with edges
350
6D
  3
Shades of Gray
350
6E
  3
Sketchy
350
6F
  3
Thicken
350
70
  3
Wireframe
350
71
  3
X-Ray
350
72
  0
LAYOUT
  5
1A
330
D
100
AcDbPlotSettings
  1

  4
A3
  6

 40
7.5
 41
20.0
 42
7.5
 43
20.0
 44
420.0
 45
297.0
 46
0.0
 47
0.0
 48
0.0
 49
0.0
140
0.0
141
0.0
142
1.0
143
1.0
 70
1024
 72
1
 73
0
 74
5
  7

 75
16
 76
0
 77
2
 78
300
147
1.0
148
0.0
149
0.0
100
AcDbLayout
  1
Model
 70
1
 71
0
 10
0.0
 20
0.0
 11
420.0
 21
297.0
 12
0.0
 22
0.0
 32
0.0
 14
1e+20
 24
1e+20
 34
1e+20
 15
-1e+20
 25
-1e+20
 35
-1e+20
146
0.0
 13
0.0
 23
0.0
 33
0.0
 16
1.0
 26
0.0
 36
0.0
 17
0.0
 27
1.0
 37
0.0
 76
1
330
17
  0
LAYOUT
  5
1E
330
D
100
AcDbPlotSettings
  1

  4
A3
  6

 40
7.5
 41
20.0
 42
7.5
 43
20.0
 44
420.0
 45
297.0
 46
0.0
 47
0.0
 48
0.0
 49
0.0
140
0.0
141
0.0
142
1.0
143
1.0
 70
0
 72
1
 73
0
 74
5
  7

 75
16
 76
0
 77
2
 78
300
147
1.0
148
0.0
149
0.0
100
AcDbLayout
  1
Layout1
 70
1
 71
1
 10
0.0
 20
0.0
 11
420.0
 21
297.0
 12
0.0
 22
0.0
 32
0.0
 14
1e+20
 24
1e+20
 34
1e+20
 15
-1e+20
 25
-1e+20
 35
-1e+20
146
0.0
 13
0.0
 23
0.0
 33
0.0
 16
1.0
 26
0.0
 36
0.0
 17
0.0
 27
1.0
 37
0.0
 76
1
330
1B
  0
MATERIAL
  5
1F
102
{ACAD_REACTORS
330
E
102
}
330
E
100
AcDbMaterial
  1
ByBlock
  2

 70
0
 40
1.0
 71
1
 41
1.0
 91
-1023410177
 42
1.0
 72
1
  3

 73
1
 74
1
 75
1
 44
0.5
 73
0
 45
1.0
 46
1.0
 77
1
  4

 78
1
 79
1
170
1
 48
1.0
171
1
  6

172
1
173
1
174
1
140
1.0
141
1.0
175
1
  7

176
1
177
1
178
1
143
1.0
179
1
  8

270
1
271
1
272
1
145
1.0
146
1.0
273
1
  9

274
1
275
1
276
1
 42
1.0
 72
1
  3

 73
1
 74
1
 75
1
 94
63
  0
MATERIAL
  5
20
102
{ACAD_REACTORS
330
E
102
}
330
E
100
AcDbMaterial
  1
ByLayer
  2

 70
0
 40
1.0
 71
1
 41
1.0
 91
-1023410177
 42
1.0
 72
1
  3

 73
1
 74
1
 75
1
 44
0.5
 73
0
 45
1.0
 46
1.0
 77
1
  4

 78
1
 79
1
170
1
 48
1.0
171
1
  6

172
1
173
1
174
1
140
1.0
141
1.0
175
1
  7

176
1
177
1
178
1
143
1.0
179
1
  8

270
1
271
1
272
1
145
1.0
146
1.0
273
1
  9

274
1
275
1
276
1
 42
1.0
 72
1
  3

 73
1
 74
1
 75
1
 94
63
  0
MATERIAL
  5
21
102
{ACAD_REACTORS
330
E
102
}
330
E
100
AcDbMaterial
  1
Global
  2

 70
0
 40
1.0
 71
1
 41
1.0
 91
-1023410177
 42
1.0
 72
1
  3

 73
1
 74
1
 75
1
 44
0.5
 73
0
 45
1.0
 46
1.0
 77
1
  4

 78
1
 79
1
170
1
 48
1.0
171
1
  6

172
1
173
1
174
1
140
1.0
141
1.0
175
1
  7

176
1
177
1
178
1
143
1.0
179
1
  8

270
1
271
1
272
1
145
1.0
146
1.0
273
1
  9

274
1
275
1
276
1
 42
1.0
 72
1
  3

 73
1
 74
1
 75
1
 94
63
  0
MLINESTYLE
  5
22
102
{ACAD_REACTORS
330
10
102
}
330
10
100
AcDbMlineStyle
  2
Standard
 70
0
  3

 62
256
 51
90.0
 52
90.0
 71
2
 49
0.5
 62
256
  6
BYLAYER
 49
-0.5
 62
256
  6
BYLAYER
  0
MLEADERSTYLE
  5
2C
102
{ACAD_REACTORS
330
F
102
}
330
F
100
AcDbMLeaderStyle
179
2
170
2
171
1
172
0
 90
2
 40
0.0
 41
0.0
173
1
 91
-1056964608
 92
-2
290
1
 42
2.0
291
1
 43
8.0
  3
Standard
 44
4.0
300

342
29
174
1
175
1
176
0
178
1
 93
-1056964608
 45
4.0
292
0
297
0
 46
4.0
 94
-1056964608
 47
1.0
 49
1.0
140
1.0
294
1
141
0.0
177
0
142
1.0
295
0
296
0
143
3.75
271
0
272
9
273
9
  0
DICTIONARY
  5
2D
330
A
100
AcDbDictionary
280
1
281
1
  3
CREATED_BY_EZDXF
350
2E
  3
WRITTEN_BY_EZDXF
350
A2
  0
DICTIONARYVAR
  5
2E
330
2D
100
DictionaryVariables
280
0
  1
1.4.4 @ 2026-07-26T20:40:39.814083+00:00
  0
VISUALSTYLE
  5
5A
102
{ACAD_REACTORS
330
16
102
}
330
16
100
AcDbVisualStyle
  2
2dWireframe
 70
4
 90
0
 40
0.6
 62
7
290
0
291
0
  0
VISUALSTYLE
  5
5B
102
{ACAD_REACTORS
330
16
102
}
330
16
100
AcDbVisualStyle
  2
Basic
 70
7
 90
1
 40
0.6
 62
7
290
0
291
1
  0
VISUALSTYLE
  5
5C
102
{ACAD_REACTORS
330
16
102
}
330
16
100
AcDbVisualStyle
  2
Brighten
 70
12
 90
2
 40
0.6
 62
7
290
0
291
1
  0
VISUALSTYLE
  5
5D
102
{ACAD_REACTORS
330
16
102
}
330
16
100
AcDbVisualStyle
  2
ColorChange
 70
16
 90
2
 40
0.6
 62
8
290
0
291
1
  0
VISUALSTYLE
  5
5E
102
{ACAD_REACTORS
330
16
102
}
330
16
100
AcDbVisualStyle
  2
Conceptual
 70
9
 90
3
 40
0.6
 62
7
290
0
291
0
  0
VISUALSTYLE
  5
5F
102
{ACAD_REACTORS
330
16
102
}
330
16
100
AcDbVisualStyle
  2
Dim
 70
11
 90
2
 40
0.6
 62
7
290
0
291
1
  0
VISUALSTYLE
  5
60
102
{ACAD_REACTORS
330
16
102
}
330
16
100
AcDbVisualStyle
  2
EdgeColorOff
 70
22
 90
2
 40
0.6
 62
7
290
0
291
1
  0
VISUALSTYLE
  5
61
102
{ACAD_REACTORS
330
16
102
}
330
16
100
AcDbVisualStyle
  2
Facepattern
 70
15
 90
2
 40
0.6
 62
7
290
0
291
1
  0
VISUALSTYLE
  5
62
102
{ACAD_REACTORS
330
16
102
}
330
16
100
AcDbVisualStyle
  2
Flat
 70
0
 90
2
 40
0.6
 62
7
290
0
291
1
  0
VISUALSTYLE
  5
63
102
{ACAD_REACTORS
330
16
102
}
330
16
100
AcDbVisualStyle
  2
FlatWithEdges
 70
1
 90
2
 40
0.6
 62
7
290
0
291
1
  0
VISUALSTYLE
  5
64
102
{ACAD_REACTORS
330
16
102
}
330
16
100
AcDbVisualStyle
  2
Gouraud
 70
2
 90
2
 40
0.6
 62
7
290
0
291
1
  0
VISUALSTYLE
  5
65
102
{ACAD_REACTORS
330
16
102
}
330
16
100
AcDbVisualStyle
  2
GouraudWithEdges
 70
3
 90
2
 40
0.6
 62
7
290
0
291
1
  0
VISUALSTYLE
  5
66
102
{ACAD_REACTORS
330
16
102
}
330
16
100
AcDbVisualStyle
  2
Hidden
 70
6
 90
1
 40
0.6
 62
7
290
0
291
0
  0
VISUALSTYLE
  5
67
102
{ACAD_REACTORS
330
16
102
}
330
16
100
AcDbVisualStyle
  2
JitterOff
 70
20
 90
2
 40
0.6
 62
7
290
0
291
1
  0
VISUALSTYLE
  5
68
102
{ACAD_REACTORS
330
16
102
}
330
16
100
AcDbVisualStyle
  2
Linepattern
 70
14
 90
2
 40
0.6
 62
7
290
0
291
1
  0
VISUALSTYLE
  5
69
102
{ACAD_REACTORS
330
16
102
}
330
16
100
AcDbVisualStyle
  2
Modeling
 70
10
 90
2
 40
0.6
 62
7
290
0
291
0
  0
VISUALSTYLE
  5
6A
102
{ACAD_REACTORS
330
16
102
}
330
16
100
AcDbVisualStyle
  2
OverhangOff
 70
21
 90
2
 40
0.6
 62
7
290
0
291
1
  0
VISUALSTYLE
  5
6B
102
{ACAD_REACTORS
330
16
102
}
330
16
100
AcDbVisualStyle
  2
Realistic
 70
8
 90
2
 40
0.6
 62
7
290
0
291
0
  0
VISUALSTYLE
  5
6C
102
{ACAD_REACTORS
330
16
102
}
330
16
100
AcDbVisualStyle
  2
Shaded
 70
27
 90
2
 40
0.6
 62
7
290
0
291
0
  0
VISUALSTYLE
  5
6D
102
{ACAD_REACTORS
330
16
102
}
330
16
100
AcDbVisualStyle
  2
Shaded with edges
 70
26
 90
2
 40
0.6
 62
7
290
0
291
0
  0
VISUALSTYLE
  5
6E
102
{ACAD_REACTORS
330
16
102
}
330
16
100
AcDbVisualStyle
  2
Shades of Gray
 70
23
 90
2
 40
0.6
 62
7
290
0
291
0
  0
VISUALSTYLE
  5
6F
102
{ACAD_REACTORS
330
16
102
}
330
16
100
AcDbVisualStyle
  2
Sketchy
 70
24
 90
1
 40
0.6
 62
7
290
0
291
0
  0
VISUALSTYLE
  5
70
102
{ACAD_REACTORS
330
16
102
}
330
16
100
AcDbVisualStyle
  2
Thicken
 70
13
 90
2
 40
0.6
 62
7
290
0
291
1
  0
VISUALSTYLE
  5
71
102
{ACAD_REACTORS
330
16
102
}
330
16
100
AcDbVisualStyle
  2
Wireframe
 70
5
 90
0
 40
0.6
 62
7
290
0
291
0
  0
VISUALSTYLE
  5
72
102
{ACAD_REACTORS
330
16
102
}
330
16
100
AcDbVisualStyle
  2
X-Ray
 70
25
 90
2
 40
0.5
 62
7
290
0
291
0
  0
DICTIONARYVAR
  5
A2
330
2D
100
DictionaryVariables
280
0
  1
1.4.4 @ 2026-07-26T20:40:39.832946+00:00
  0
ENDSEC
  0
EOF
