  0
SECTION
  2
HEADER
  9
$ACADVER
  1
AC1024
  9
$ACADMAINTVER
 70
6
  9
$DWGCODEPAGE
  3
ANSI_1252
  9
$LASTSAVEDBY
  1
ezdxf
  9
$INSBASE
 10
0.0
 20
0.0
 30
0.0
  9
$EXTMIN
 10
1e+20
 20
1e+20
 30
1e+20
  9
$EXTMAX
 10
-1e+20
 20
-1e+20
 30
-1e+20
  9
$LIMMIN
 10
0.0
 20
0.0
  9
$LIMMAX
 10
420.0
 20
297.0
  9
$ORTHOMODE
 70
0
  9
$REGENMODE
 70
1
  9
$FILLMODE
 70
1
  9
$QTEXTMODE
 70
0
  9
$MIRRTEXT
 70
1
  9
$LTSCALE
 40
1.0
  9
$ATTMODE
 70
1
  9
$TEXTSIZE
 40
2.5
  9
$TRACEWID
 40
1.0
  9
$TEXTSTYLE
  7
OpenSans
  9
$CLAYER
  8
0
  9
$CELTYPE
  6
ByLayer
  9
$CECOLOR
 62
256
  9
$CELTSCALE
 40
1.0
  9
$DISPSILH
 70
0
  9
$DIMSCALE
 40
1.0
  9
$DIMASZ
 40
0.175
  9
$DIMEXO
 40
0.125
  9
$DIMDLI
 40
3.75
  9
$DIMRND
 40
0.0
  9
$DIMDLE
 40
0.0
  9
$DIMEXE
 40
0.375
  9
$DIMTP
 40
0.0
  9
$DIMTM
 40
0.0
  9
$DIMTXT
 40
0.25
  9
$DIMCEN
 40
2.5
  9
$DIMTSZ
 40
0.0
  9
$DIMTOL
 70
0
  9
$DIMLIM
 70
0
  9
$DIMTIH
 70
0
  9
$DIMTOH
 70
0
  9
$DIMSE1
 70
0
  9
$DIMSE2
 70
0
  9
$DIMTAD
 70
1
  9
$DIMZIN
 70
12
  9
$DIMBLK
  1
ARCHTICK
  9
$DIMASO
 70
1
  9
$DIMSHO
 70
1
  9
$DIMPOST
  1

  9
$DIMAPOST
  1

  9
$DIMALT
 70
0
  9
$DIMALTD
 70
3
  9
$DIMALTF
 40
0.03937007874
  9
$DIMLFAC
 40
100.0
  9
$DIMTOFL
 70
1
  9
$DIMTVP
 40
0.0
  9
$DIMTIX
 70
0
  9
$DIMSOXD
 70
0
  9
$DIMSAH
 70
0
  9
$DIMBLK1
  1

  9
$DIMBLK2
  1

  9
$DIMSTYLE
  2
EZDXF
  9
$DIMCLRD
 70
0
  9
$DIMCLRE
 70
0
  9
$DIMCLRT
 70
0
  9
$DIMTFAC
 40
0.5
  9
$DIMGAP
 40
0.1
  9
$DIMJUST
 70
0
  9
$DIMSD1
 70
0
  9
$DIMSD2
 70
0
  9
$DIMTOLJ
 70
0
  9
$DIMTZIN
 70
8
  9
$DIMALTZ
 70
0
  9
$DIMALTTZ
 70
0
  9
$DIMUPT
 70
1
  9
$DIMDEC
 70
2
  9
$DIMTDEC
 70
2
  9
$DIMALTU
 70
2
  9
$DIMALTTD
 70
3
  9
$DIMTXSTY
  7
OpenSansCondensed-Light
  9
$DIMAUNIT
 70
0
  9
$DIMADEC
 70
2
  9
$DIMALTRND
 40
0.0
  9
$DIMAZIN
 70
3
  9
$DIMDSEP
 70
46
  9
$DIMATFIT
 70
3
  9
$DIMFRAC
 70
0
  9
$DIMLDRBLK
  1

  9
$DIMLUNIT
 70
2
  9
$DIMLWD
 70
-2
  9
$DIMLWE
 70
-2
  9
$DIMTMOVE
 70
2
  9
$DIMFXL
 40
1.0
  9
$DIMFXLON
 70
0
  9
$DIMJOGANG
 40
0.785398163397
  9
$DIMTFILL
 70
0
  9
$DIMTFILLCLR
 70
0
  9
$DIMARCSYM
 70
0
  9
$DIMLTYPE
  6

  9
$DIMLTEX1
  6

  9
$DIMLTEX2
  6

  9
$DIMTXTDIRECTION
 70
0
  9
$LUNITS
 70
2
  9
$LUPREC
 70
4
  9
$SKETCHINC
 40
1.0
  9
$FILLETRAD
 40
10.0
  9
$AUNITS
 70
0
  9
$AUPREC
 70
2
  9
$MENU
  1
.
  9
$ELEVATION
 40
0.0
  9
$PELEVATION
 40
0.0
  9
$THICKNESS
 40
0.0
  9
$LIMCHECK
 70
0
  9
$CHAMFERA
 40
0.0
  9
$CHAMFERB
 40
0.0
  9
$CHAMFERC
 40
0.0
  9
$CHAMFERD
 40
0.0
  9
$SKPOLY
 70
0
  9
$TDCREATE
 40
2461248.6671990743
  9
$TDUCREATE
 40
2458532.153996898
  9
$TDUPDATE
 40
2461248.6671990743
  9
$TDUUPDATE
 40
2458532.1544311
  9
$TDINDWG
 40
0.0
  9
$TDUSRTIMER
 40
0.0
  9
$USRTIMER
 70
1
  9
$ANGBASE
 50
0.0
  9
$ANGDIR
 70
0
  9
$PDMODE
 70
0
  9
$PDSIZE
 40
0.0
  9
$PLINEWID
 40
0.0
  9
$SPLFRAME
 70
0
  9
$SPLINETYPE
 70
6
  9
$SPLINESEGS
 70
8
  9
$HANDSEED
  5
A3
  9
$SURFTAB1
 70
6
  9
$SURFTAB2
 70
6
  9
$SURFTYPE
 70
6
  9
$SURFU
 70
6
  9
$SURFV
 70
6
  9
$UCSBASE
  2

  9
$UCSNAME
  2

  9
$UCSORG
 10
0.0
 20
0.0
 30
0.0
  9
$UCSXDIR
 10
1.0
 20
0.0
 30
0.0
  9
$UCSYDIR
 10
0.0
 20
1.0
 30
0.0
  9
$UCSORTHOREF
  2

  9
$UCSORTHOVIEW
 70
0
  9
$UCSORGTOP
 10
0.0
 20
0.0
 30
0.0
  9
$UCSORGBOTTOM
 10
0.0
 20
0.0
 30
0.0
  9
$UCSORGLEFT
 10
0.0
 20
0.0
 30
0.0
  9
$UCSORGRIGHT
 10
0.0
 20
0.0
 30
0.0
  9
$UCSORGFRONT
 10
0.0
 20
0.0
 30
0.0
  9
$UCSORGBACK
 10
0.0
 20
0.0
 30
0.0
  9
$PUCSBASE
  2

  9
$PUCSNAME
  2

  9
$PUCSORG
 10
0.0
 20
0.0
 30
0.0
  9
$PUCSXDIR
 10
1.0
 20
0.0
 30
0.0
  9
$PUCSYDIR
 10
0.0
 20
1.0
 30
0.0
  9
$PUCSORTHOREF
  2

  9
$PUCSORTHOVIEW
 70
0
  9
$PUCSORGTOP
 10
0.0
 20
0.0
 30
0.0
  9
$PUCSORGBOTTOM
 10
0.0
 20
0.0
 30
0.0
  9
$PUCSORGLEFT
 10
0.0
 20
0.0
 30
0.0
  9
$PUCSORGRIGHT
 10
0.0
 20
0.0
 30
0.0
  9
$PUCSORGFRONT
 10
0.0
 20
0.0
 30
0.0
  9
$PUCSORGBACK
 10
0.0
 20
0.0
 30
0.0
  9
$USERI1
 70
0
  9
$USERI2
 70
0
  9
$USERI3
 70
0
  9
$USERI4
 70
0
  9
$USERI5
 70
0
  9
$USERR1
 40
0.0
  9
$USERR2
 40
0.0
  9
$USERR3
 40
0.0
  9
$USERR4
 40
0.0
  9
$USERR5
 40
0.0
  9
$WORLDVIEW
 70
1
  9
$SHADEDGE
 70
3
  9
$SHADEDIF
 70
70
  9
$TILEMODE
 70
1
  9
$MAXACTVP
 70
64
  9
$PINSBASE
 10
0.0
 20
0.0
 30
0.0
  9
$PLIMCHECK
 70
0
  9
$PEXTMIN
 10
1e+20
 20
1e+20
 30
1e+20
  9
$PEXTMAX
 10
-1e+20
 20
-1e+20
 30
-1e+20
  9
$PLIMMIN
 10
0.0
 20
0.0
  9
$PLIMMAX
 10
420.0
 20
297.0
  9
$UNITMODE
 70
0
  9
$VISRETAIN
 70
1
  9
$PLINEGEN
 70
0
  9
$PSLTSCALE
 70
1
  9
$TREEDEPTH
 70
3020
  9
$CMLSTYLE
  2
Standard
  9
$CMLJUST
 70
0
  9
$CMLSCALE
 40
20.0
  9
$PROXYGRAPHICS
 70
1
  9
$MEASUREMENT
 70
1
  9
$CELWEIGHT
370
-1
  9
$ENDCAPS
280
0
  9
$JOINSTYLE
280
0
  9
$LWDISPLAY
290
0
  9
$INSUNITS
 70
4
  9
$HYPERLINKBASE
  1

  9
$STYLESHEET
  1

  9
$XEDIT
290
1
  9
$CEPSNTYPE
380
0
  9
$PSTYLEMODE
290
1
  9
$FINGERPRINTGUID
  2
{F07F9389-295E-450D-A53A-5D63BDC9E1B1}
  9
$VERSIONGUID
  2
{FCAC8C21-D531-482C-8C43-2FC65FDF537C}
  9
$EXTNAMES
290
1
  9
$PSVPSCALE
 40
0.0
  9
$OLESTARTUP
290
0
  9
$SORTENTS
280
127
  9
$INDEXCTL
280
0
  9
$HIDETEXT
280
1
  9
$XCLIPFRAME
280
1
  9
$HALOGAP
280
0
  9
$OBSCOLOR
 70
257
  9
$OBSLTYPE
280
0
  9
$INTERSECTIONDISPLAY
280
0
  9
$INTERSECTIONCOLOR
 70
257
  9
$DIMASSOC
280
2
  9
$PROJECTNAME
  1

  9
$CAMERADISPLAY
290
0
  9
$LENSLENGTH
 40
50.0
  9
$CAMERAHEIGHT
 40
0.0
  9
$STEPSPERSEC
 40
24.0
  9
$STEPSIZE
 40
100.0
  9
$3DDWFPREC
 40
2.0
  9
$PSOLWIDTH
 40
0.005
  9
$PSOLHEIGHT
 40
0.08
  9
$LOFTANG1
 40
1.570796326795
  9
$LOFTANG2
 40
1.570796326795
  9
$LOFTMAG1
 40
0.0
  9
$LOFTMAG2
 40
0.0
  9
$LOFTPARAM
 70
7
  9
$LOFTNORMALS
280
1
  9
$LATITUDE
 40
37.795
  9
$LONGITUDE
 40
-122.394
  9
$NORTHDIRECTION
 40
0.0
  9
$TIMEZONE
 70
-8000
  9
$LIGHTGLYPHDISPLAY
280
1
  9
$TILEMODELIGHTSYNCH
280
1
  9
$CMATERIAL
347
20
  9
$SOLIDHIST
280
0
  9
$SHOWHIST
280
1
  9
$DWFFRAME
280
2
  9
$DGNFRAME
280
2
  9
$REALWORLDSCALE
290
1
  9
$INTERFERECOLOR
 62
256
  9
$CSHADOW
280
0
  9
$SHADOWPLANELOCATION
 40
0.0
  0
ENDSEC
  0
SECTION
  2
CLASSES
  0
CLASS
  1
ACDBDICTIONARYWDFLT
  2
AcDbDictionaryWithDefault
  3
ObjectDBX Classes
 90
0
 91
0
280
0
281
0
  0
CLASS
  1
SUN
  2
AcDbSun
  3
SCENEOE
 90
1153
 91
0
280
0
281
0
  0
CLASS
  1
VISUALSTYLE
  2
AcDbVisualStyle
  3
ObjectDBX Classes
 90
4095
 91
0
280
0
281
0
  0
CLASS
  1
MATERIAL
  2
AcDbMaterial
  3
ObjectDBX Classes
 90
1153
 91
0
280
0
281
0
  0
CLASS
  1
SCALE
  2
AcDbScale
  3
ObjectDBX Classes
 90
1153
 91
0
280
0
281
0
  0
CLASS
  1
TABLESTYLE
  2
AcDbTableStyle
  3
ObjectDBX Classes
 90
4095
 91
0
280
0
281
0
  0
CLASS
  1
MLEADERSTYLE
  2
AcDbMLeaderStyle
  3
ACDB_MLEADERSTYLE_CLASS
 90
4095
 91
0
280
0
281
0
  0
CLASS
  1
DICTIONARYVAR
  2
AcDbDictionaryVar
  3
ObjectDBX Classes
 90
0
 91
0
280
0
281
0
  0
CLASS
  1
CELLSTYLEMAP
  2
AcDbCellStyleMap
  3
ObjectDBX Classes
 90
1152
 91
0
280
0
281
0
  0
CLASS
  1
MENTALRAYRENDERSETTINGS
  2
AcDbMentalRayRenderSettings
  3
SCENEOE
 90
1024
 91
0
280
0
281
0
  0
CLASS
  1
ACDBDETAILVIEWSTYLE
  2
AcDbDetailViewStyle
  3
ObjectDBX Classes
 90
1025
 91
0
280
0
281
0
  0
CLASS
  1
ACDBSECTIONVIEWSTYLE
  2
AcDbSectionViewStyle
  3
ObjectDBX Classes
 90
1025
 91
0
280
0
281
0
  0
CLASS
  1
RASTERVARIABLES
  2
AcDbRasterVariables
  3
ISM
 90
0
 91
0
280
0
281
0
  0
CLASS
  1
ACDBPLACEHOLDER
  2
AcDbPlaceHolder
  3
ObjectDBX Classes
 90
0
 91
0
280
0
281
0
  0
CLASS
  1
LAYOUT
  2
AcDbLayout
  3
ObjectDBX Classes
 90
0
 91
0
280
0
281
0
  0
ENDSEC
  0
SECTION
  2
TABLES
  0
TABLE
  2
VPORT
  5
8
330
0
100
AcDbSymbolTable
 70
1
  0
VPORT
  5
23
330
8
100
AcDbSymbolTableRecord
100
AcDbViewportTableRecord
  2
*Active
 70
0
 10
0.0
 20
0.0
 11
1.0
 21
1.0
 12
0.0
 22
0.0
 13
0.0
 23
0.0
 14
0.5
 24
0.5
 15
0.5
 25
0.5
 16
0.0
 26
0.0
 36
1.0
 17
0.0
 27
0.0
 37
0.0
 40
1000.0
 41
1.34
 42
50.0
 43
0.0
 44
0.0
 50
0.0
 51
0.0
 71
0
 72
1000
 73
1
 74
3
 75
0
 76
0
 77
0
 78
0
281
0
 65
0
146
0.0
  0
ENDTAB
  0
TABLE
  2
LTYPE
  5
2
330
0
100
AcDbSymbolTable
 70
21
  0
LTYPE
  5
24
330
2
100
AcDbSymbolTableRecord
100
AcDbLinetypeTableRecord
  2
ByBlock
 70
0
  3

 72
65
 73
0
 40
0.0
  0
LTYPE
  5
25
330
2
100
AcDbSymbolTableRecord
100
AcDbLinetypeTableRecord
  2
ByLayer
 70
0
  3

 72
65
 73
0
 40
0.0
  0
LTYPE
  5
26
330
2
100
AcDbSymbolTableRecord
100
AcDbLinetypeTableRecord
  2
Continuous
 70
0
  3

 72
65
 73
0
 40
0.0
  0
LTYPE
  5
2F
330
2
100
AcDbSymbolTableRecord
100
AcDbLinetypeTableRecord
  2
CENTER
 70
0
  3
Center ____ _ ____ _ ____ _ ____ _ ____ _ ____
 72
65
 73
4
 40
5.08
 49
3.175
 74
0
 49
-0.635
 74
0
 49
0.635
 74
0
 49
-0.635
 74
0
  0
LTYPE
  5
30
330
2
100
AcDbSymbolTableRecord
100
AcDbLinetypeTableRecord
  2
CENTERX2
 70
0
  3
Center (2x) ________  __  ________  __  ________
 72
65
 73
4
 40
8.89
 49
6.35
 74
0
 49
-0.635
 74
0
 49
1.27
 74
0
 49
-0.635
 74
0
  0
LTYPE
  5
31
330
2
100
AcDbSymbolTableRecord
100
AcDbLinetypeTableRecord
  2
CENTER2
 70
0
  3
Center (.5x) ____ _ ____ _ ____ _ ____ _ ____
 72
65
 73
4
 40
2.54
 49
1.587
 74
0
 49
-0.318
 74
0
 49
0.318
 74
0
 49
-0.318
 74
0
  0
LTYPE
  5
32
330
2
100
AcDbSymbolTableRecord
100
AcDbLinetypeTableRecord
  2
DASHED
 70
0
  3
Dashed __ __ __ __ __ __ __ __ __ __ __ __ __ _
 72
65
 73
2
 40
1.524
 49
1.27
 74
0
 49
-0.254
 74
0
  0
LTYPE
  5
33
330
2
100
AcDbSymbolTableRecord
100
AcDbLinetypeTableRecord
  2
DASHEDX2
 70
0
  3
Dashed (2x) ____  ____  ____  ____  ____  ____
 72
65
 73
2
 40
3.048
 49
2.54
 74
0
 49
-0.508
 74
0
  0
LTYPE
  5
34
330
2
100
AcDbSymbolTableRecord
100
AcDbLinetypeTableRecord
  2
DASHED2
 70
0
  3
Dashed (.5x) _ _ _ _ _ _ _ _ _ _ _ _ _ _
 72
65
 73
2
 40
0.762
 49
0.635
 74
0
 49
-0.127
 74
0
  0
LTYPE
  5
35
330
2
100
AcDbSymbolTableRecord
100
AcDbLinetypeTableRecord
  2
PHANTOM
 70
0
  3
Phantom ______  __  __  ______  __  __  ______
 72
65
 73
6
 40
6.35
 49
3.175
 74
0
 49
-0.635
 74
0
 49
0.635
 74
0
 49
-0.635
 74
0
 49
0.635
 74
0
 49
-0.635
 74
0
  0
LTYPE
  5
36
330
2
100
AcDbSymbolTableRecord
100
AcDbLinetypeTableRecord
  2
PHANTOMX2
 70
0
  3
Phantom (2x)____________    ____    ____    ____________
 72
65
 73
6
 40
10.795
 49
6.35
 74
0
 49
-0.635
 74
0
 49
1.27
 74
0
 49
-0.635
 74
0
 49
1.27
 74
0
 49
-0.635
 74
0
  0
LTYPE
  5
37
330
2
100
AcDbSymbolTableRecord
100
AcDbLinetypeTableRecord
  2
PHANTOM2
 70
0
  3
Phantom (.5x) ___ _ _ ___ _ _ ___ _ _ ___ _ _ ___
 72
65
 73
6
 40
3.175
 49
1.587
 74
0
 49
-0.318
 74
0
 49
0.318
 74
0
 49
-0.318
 74
0
 49
0.318
 74
0
 49
-0.318
 74
0
  0
LTYPE
  5
38
330
2
100
AcDbSymbolTableRecord
100
AcDbLinetypeTableRecord
  2
DASHDOT
 70
0
  3
Dash dot __ . __ . __ . __ . __ . __ . __ . __
 72
65
 73
4
 40
3.556
 49
2.54
 74
0
 49
-0.508
 74
0
 49
0.0
 74
0
 49
-0.508
 74
0
  0
LTYPE
  5
39
330
2
100
AcDbSymbolTableRecord
100
AcDbLinetypeTableRecord
  2
DASHDOTX2
 70
0
  3
Dash dot (2x) ____  .  ____  .  ____  .  ____
 72
65
 73
4
 40
6.096
 49
5.08
 74
0
 49
-0.508
 74
0
 49
0.0
 74
0
 49
-0.508
 74
0
  0
LTYPE
  5
3A
330
2
100
AcDbSymbolTableRecord
100
AcDbLinetypeTableRecord
  2
DASHDOT2
 70
0
  3
Dash dot (.5x) _ . _ . _ . _ . _ . _ . _ . _
 72
65
 73
4
 40
1.778
 49
1.27
 74
0
 49
-0.254
 74
0
 49
0.0
 74
0
 49
-0.254
 74
0
  0
LTYPE
  5
3B
330
2
100
AcDbSymbolTableRecord
100
AcDbLinetypeTableRecord
  2
DOT
 70
0
  3
Dot .  .  .  .  .  .  .  .  .  .  .  .  .  .  .  .
 72
65
 73
2
 40
0.508
 49
0.0
 74
0
 49
-0.508
 74
0
  0
LTYPE
  5
3C
330
2
100
AcDbSymbolTableRecord
100
AcDbLinetypeTableRecord
  2
DOTX2
 70
0
  3
Dot (2x) .    .    .    .    .    .    .    . 
 72
65
 73
2
 40
1.016
 49
0.0
 74
0
 49
-1.016
 74
0
  0
LTYPE
  5
3D
330
2
100
AcDbSymbolTableRecord
100
AcDbLinetypeTableRecord
  2
DOT2
 70
0
  3
Dot (.5) . . . . . . . . . . . . . . . . . . . 
 72
65
 73
2
 40
0.254
 49
0.0
 74
0
 49
-0.254
 74
0
  0
LTYPE
  5
3E
330
2
100
AcDbSymbolTableRecord
100
AcDbLinetypeTableRecord
  2
DIVIDE
 70
0
  3
Divide __ . . __ . . __ . . __ . . __ . . __
 72
65
 73
6
 40
4.064
 49
2.54
 74
0
 49
-0.508
 74
0
 49
0.0
 74
0
 49
-0.508
 74
0
 49
0.0
 74
0
 49
-0.508
 74
0
  0
LTYPE
  5
3F
330
2
100
AcDbSymbolTableRecord
100
AcDbLinetypeTableRecord
  2
DIVIDEX2
 70
0
  3
Divide (2x) ____  . .  ____  . .  ____  . .  ____
 72
65
 73
6
 40
6.604
 49
5.08
 74
0
 49
-0.508
 74
0
 49
0.0
 74
0
 49
-0.508
 74
0
 49
0.0
 74
0
 49
-0.508
 74
0
  0
LTYPE
  5
40
330
2
100
AcDbSymbolTableRecord
100
AcDbLinetypeTableRecord
  2
DIVIDE2
 70
0
  3
Divide(.5x) _ . _ . _ . _ . _ . _ . _ . _
 72
65
 73
6
 40
2.032
 49
1.27
 74
0
 49
-0.254
 74
0
 49
0.0
 74
0
 49
-0.254
 74
0
 49
0.0
 74
0
 49
-0.254
 74
0
  0
ENDTAB
  0
TABLE
  2
LAYER
  5
1
330
0
100
AcDbSymbolTable
 70
5
  0
LAYER
  5
27
330
1
100
AcDbSymbolTableRecord
100
AcDbLayerTableRecord
  2
0
 70
0
 62
7
  6
Continuous
370
-3
390
13
347
21
  0
LAYER
  5
28
330
1
100
AcDbSymbolTableRecord
100
AcDbLayerTableRecord
  2
Defpoints
 70
0
 62
7
  6
Continuous
290
0
370
-3
390
13
347
21
  0
LAYER
  5
8A
330
1
100
AcDbSymbolTableRecord
100
AcDbLayerTableRecord
  2
CUT
 70
0
 62
7
  6
Continuous
370
-3
390
13
347
21
  0
LAYER
  5
8B
330
1
100
AcDbSymbolTableRecord
100
AcDbLayerTableRecord
  2
STITCH
 70
0
 62
1
  6
DASHED
370
-3
390
13
347
21
  0
LAYER
  5
8C
330
1
100
AcDbSymbolTableRecord
100
AcDbLayerTableRecord
  2
LABEL
 70
0
 62
3
  6
Continuous
370
-3
390
13
347
21
  0
ENDTAB
  0
TABLE
  2
STYLE
  5
5
330
0
100
AcDbSymbolTable
 70
26
  0
STYLE
  5
29
330
5
100
AcDbSymbolTableRecord
100
AcDbTextStyleTableRecord
  2
Standard
 70
0
 40
0.0
 41
1.0
 50
0.0
 71
0
 42
2.5
  3
txt
  4

  0
STYLE
  5
41
330
5
100
AcDbSymbolTableRecord
100
AcDbTextStyleTableRecord
  2
OpenSans-Light
 70
0
 40
0.0
 41
1.0
 50
0.0
 71
0
 42
2.5
  3
OpenSans-Light.ttf
  4

  0
STYLE
  5
42
330
5
100
AcDbSymbolTableRecord
100
AcDbTextStyleTableRecord
  2
OpenSans-Light-Italic
 70
0
 40
0.0
 41
1.0
 50
0.0
 71
0
 42
2.5
  3
OpenSans-LightItalic.ttf
  4

  0
STYLE
  5
43
330
5
100
AcDbSymbolTableRecord
100
AcDbTextStyleTableRecord
  2
OpenSans
 70
0
 40
0.0
 41
1.0
 50
0.0
 71
0
 42
2.5
  3
OpenSans-Regular.ttf
  4

  0
STYLE
  5
44
330
5
100
AcDbSymbolTableRecord
100
AcDbTextStyleTableRecord
  2
OpenSans-Italic
 70
0
 40
0.0
 41
1.0
 50
0.0
 71
0
 42
2.5
  3
OpenSans-Italic.ttf
  4

  0
STYLE
  5
45
330
5
100
AcDbSymbolTableRecord
100
AcDbTextStyleTableRecord
  2
OpenSans-SemiBold
 70
0
 40
0.0
 41
1.0
 50
0.0
 71
0
 42
2.5
  3
OpenSans-SemiBold.ttf
  4

  0
STYLE
  5
46
330
5
100
AcDbSymbolTableRecord
100
AcDbTextStyleTableRecord
  2
OpenSans-SemiBoldItalic
 70
0
 40
0.0
 41
1.0
 50
0.0
 71
0
 42
2.5
  3
OpenSans-SemiBoldItalic.ttf
  4

  0
STYLE
  5
47
330
5
100
AcDbSymbolTableRecord
100
AcDbTextStyleTableRecord
  2
OpenSans-Bold
 70
0
 40
0.0
 41
1.0
 50
0.0
 71
0
 42
2.5
  3
OpenSans-Bold.ttf
  4

  0
STYLE
  5
48
330
5
100
AcDbSymbolTableRecord
100
AcDbTextStyleTableRecord
  2
OpenSans-BoldItalic
 70
0
 40
0.0
 41
1.0
 50
0.0
 71
0
 42
2.5
  3
OpenSans-BoldItalic.ttf
  4

  0
STYLE
  5
49
330
5
100
AcDbSymbolTableRecord
100
AcDbTextStyleTableRecord
  2
OpenSans-ExtraBold
 70
0
 40
0.0
 41
1.0
 50
0.0
 71
0
 42
2.5
  3
OpenSans-ExtraBold.ttf
  4

  0
STYLE
  5
4A
330
5
100
AcDbSymbolTableRecord
100
AcDbTextStyleTableRecord
  2
OpenSans-ExtraBoldItalic
 70
0
 40
0.0
 41
1.0
 50
0.0
 71
0
 42
2.5
  3
OpenSans-ExtraBoldItalic.ttf
  4

  0
STYLE
  5
4B
330
5
100
AcDbSymbolTableRecord
100
AcDbTextStyleTableRecord
  2
OpenSansCondensed-Bold
 70
0
 40
0.0
 41
1.0
 50
0.0
 71
0
 42
2.5
  3
OpenSansCondensed-Bold.ttf
  4

  0
STYLE
  5
4C
330
5
100
AcDbSymbolTableRecord
100
AcDbTextStyleTableRecord
  2
OpenSansCondensed-Light
 70
0
 40
0.0
 41
1.0
 50
0.0
 71
0
 42
2.5
  3
OpenSansCondensed-Light.ttf
  4

  0
STYLE
  5
4D
330
5
100
AcDbSymbolTableRecord
100
AcDbTextStyleTableRecord
  2
OpenSansCondensed-Italic
 70
0
 40
0.0
 41
1.0
 50
0.0
 71
0
 42
2.5
  3
OpenSansCondensed-LightItalic.ttf
  4

  0
STYLE
  5
4E
330
5
100
AcDbSymbolTableRecord
100
AcDbTextStyleTableRecord
  2
LiberationSans
 70
0
 40
0.0
 41
1.0
 50
0.0
 71
0
 42
2.5
  3
LiberationSans-Regular.ttf
  4

  0
STYLE
  5
4F
330
5
100
AcDbSymbolTableRecord
100
AcDbTextStyleTableRecord
  2
LiberationSans-Bold
 70
0
 40
0.0
 41
1.0
 50
0.0
 71
0
 42
2.5
  3
LiberationSans-Bold.ttf
  4

  0
STYLE
  5
50
330
5
100
AcDbSymbolTableRecord
100
AcDbTextStyleTableRecord
  2
LiberationSans-BoldItalic
 70
0
 40
0.0
 41
1.0
 50
0.0
 71
0
 42
2.5
  3
LiberationSans-BoldItalic.ttf
  4

  0
STYLE
  5
51
330
5
100
AcDbSymbolTableRecord
100
AcDbTextStyleTableRecord
  2
LiberationSans-Italic
 70
0
 40
0.0
 41
1.0
 50
0.0
 71
0
 42
2.5
  3
LiberationSans-Italic.ttf
  4

  0
STYLE
  5
52
330
5
100
AcDbSymbolTableRecord
100
AcDbTextStyleTableRecord
  2
LiberationSerif
 70
0
 40
0.0
 41
1.0
 50
0.0
 71
0
 42
2.5
  3
LiberationSerif-Regular.ttf
  4

  0
STYLE
  5
53
330
5
100
AcDbSymbolTableRecord
100
AcDbTextStyleTableRecord
  2
LiberationSerif-Bold
 70
0
 40
0.0
 41
1.0
 50
0.0
 71
0
 42
2.5
  3
LiberationSerif-Bold.ttf
  4

  0
STYLE
  5
54
330
5
100
AcDbSymbolTableRecord
100
AcDbTextStyleTableRecord
  2
LiberationSerif-BoldItalic
 70
0
 40
0.0
 41
1.0
 50
0.0
 71
0
 42
2.5
  3
LiberationSerif-BoldItalic.ttf
  4

  0
STYLE
  5
55
330
5
100
AcDbSymbolTableRecord
100
AcDbTextStyleTableRecord
  2
LiberationSerif-Italic
 70
0
 40
0.0
 41
1.0
 50
0.0
 71
0
 42
2.5
  3
LiberationSerif-Italic.ttf
  4

  0
STYLE
  5
56
330
5
100
AcDbSymbolTableRecord
100
AcDbTextStyleTableRecord
  2
LiberationMono
 70
0
 40
0.0
 41
1.0
 50
0.0
 71
0
 42
2.5
  3
LiberationMono-Regular.ttf
  4

  0
STYLE
  5
57
330
5
100
AcDbSymbolTableRecord
100
AcDbTextStyleTableRecord
  2
LiberationMono-Bold
 70
0
 40
0.0
 41
1.0
 50
0.0
 71
0
 42
2.5
  3
LiberationMono-Bold.ttf
  4

  0
STYLE
  5
58
330
5
100
AcDbSymbolTableRecord
100
AcDbTextStyleTableRecord
  2
LiberationMono-BoldItalic
 70
0
 40
0.0
 41
1.0
 50
0.0
 71
0
 42
2.5
  3
LiberationMono-BoldItalic.ttf
  4

  0
STYLE
  5
59
330
5
100
AcDbSymbolTableRecord
100
AcDbTextStyleTableRecord
  2
LiberationMono-Italic
 70
0
 40
0.0
 41
1.0
 50
0.0
 71
0
 42
2.5
  3
LiberationMono-Italic.ttf
  4

  0
ENDTAB
  0
TABLE
  2
VIEW
  5
7
330
0
100
AcDbSymbolTable
 70
0
  0
ENDTAB
  0
TABLE
  2
UCS
  5
6
330
0
100
AcDbSymbolTable
 70
0
  0
ENDTAB
  0
TABLE
  2
APPID
  5
3
330
0
100
AcDbSymbolTable
 70
3
  0
APPID
  5
2A
330
3
100
AcDbSymbolTableRecord
100
AcDbRegAppTableRecord
  2
ACAD
 70
0
  0
APPID
  5
A0
330
3
100
AcDbSymbolTableRecord
100
AcDbRegAppTableRecord
  2
HATCHBACKGROUNDCOLOR
 70
0
  0
APPID
  5
A1
330
3
100
AcDbSymbolTableRecord
100
AcDbRegAppTableRecord
  2
EZDXF
 70
0
  0
ENDTAB
  0
TABLE
  2
DIMSTYLE
  5
4
330
0
100
AcDbSymbolTable
 70
12
100
AcDbDimStyleTable
  0
DIMSTYLE
105
2B
330
4
100
AcDbSymbolTableRecord
100
AcDbDimStyleTableRecord
  2
Standard
 70
0
 40
1.0
 41
2.5
 42
0.625
 43
3.75
 44
1.25
 45
0.0
 46
0.0
 47
0.0
 48
0.0
 49
2.5
140
2.5
141
2.5
142
0.0
143
0.03937007874
144
1.0
145
0.0
146
1.0
147
0.625
148
0.0
 69
0
 70
0
 71
0
 72
0
 73
0
 74
0
 75
0
 76
0
 77
1
 78
8
 79
3
170
0
171
3
172
1
173
0
174
0
175
0
176
0
177
0
178
0
179
2
271
2
272
2
273
2
274
3
275
0
276
0
277
2
278
44
279
0
280
0
281
0
282
0
283
0
284
8
285
0
286
0
288
0
289
3
290
0
371
-2
372
-2
  0
DIMSTYLE
105
73
330
4
100
AcDbSymbolTableRecord
100
AcDbDimStyleTableRecord
  2
EZDXF
 70
0
 40
1.0
 41
0.175
 42
0.125
 43
3.75
 44
0.375
 45
0.0
 46
0.0
 47
0.0
 48
0.0
 49
2.5
140
0.25
141
2.5
142
0.0
143
0.03937007874
144
100.0
145
0.0
146
0.5
147
0.1
148
0.0
 69
0
 70
0
 71
0
 72
0
 73
0
 74
0
 75
0
 76
0
 77
1
 78
12
 79
3
170
0
171
3
172
1
173
0
174
0
175
0
176
0
177
0
178
0
179
2
271
2
272
2
273
2
274
3
275
0
276
0
277
2
278
46
279
2
280
0
281
0
282
0
283
0
284
8
285
0
286
0
288
1
289
3
290
0
340
4C
342
74
371
-2
372
-2
  0
DIMSTYLE
105
7C
330
4
100
AcDbSymbolTableRecord
100
AcDbDimStyleTableRecord
  2
EZ_M_100_H25_CM
 70
0
 40
1.0
 41
0.25
 42
0.125
 43
3.75
 44
0.375
 45
0.0
 46
0.0
 47
0.0
 48
0.0
 49
2.5
140
0.25
141
2.5
142
0.125
143
0.03937007874
144
100.0
145
0.0
146
0.5
147
0.1
148
0.0
 69
0
 70
0
 71
0
 72
0
 73
0
 74
0
 75
0
 76
0
 77
1
 78
12
 79
3
170
0
171
3
172
1
173
0
174
0
175
0
176
0
177
0
178
0
179
2
271
2
272
2
273
2
274
3
275
0
276
0
277
2
278
46
279
2
280
0
281
0
282
0
283
0
284
8
285
0
286
0
288
1
289
3
290
0
340
4C
371
-2
372
-2
  0
DIMSTYLE
105
7D
330
4
100
AcDbSymbolTableRecord
100
AcDbDimStyleTableRecord
  2
EZ_M_50_H25_CM
 70
0
 40
1.0
 41
0.125
 42
0.0625
 43
3.75
 44
0.1875
 45
0.0
 46
0.0
 47
0.0
 48
0.0
 49
2.5
140
0.125
141
2.5
142
0.0625
143
0.03937007874
144
100.0
145
0.0
146
0.5
147
0.05
148
0.0
 69
0
 70
0
 71
0
 72
0
 73
0
 74
0
 75
0
 76
0
 77
1
 78
12
 79
3
170
0
171
3
172
1
173
0
174
0
175
0
176
0
177
0
178
0
179
2
271
2
272
2
273
2
274
3
275
0
276
0
277
2
278
46
279
2
280
0
281
0
282
0
283
0
284
8
285
0
286
0
288
1
289
3
290
0
340
4C
371
-2
372
-2
  0
DIMSTYLE
105
7E
330
4
100
AcDbSymbolTableRecord
100
AcDbDimStyleTableRecord
  2
EZ_M_25_H25_CM
 70
0
 40
1.0
 41
0.0625
 42
0.03125
 43
3.75
 44
0.09375
 45
0.0
 46
0.0
 47
0.0
 48
0.0
 49
2.5
140
0.0625
141
2.5
142
0.03125
143
0.03937007874
144
100.0
145
0.0
146
0.5
147
0.025
148
0.0
 69
0
 70
0
 71
0
 72
0
 73
0
 74
0
 75
0
 76
0
 77
1
 78
12
 79
3
170
0
171
3
172
1
173
0
174
0
175
0
176
0
177
0
178
0
179
2
271
2
272
2
273
2
274
3
275
0
276
0
277
2
278
46
279
2
280
0
281
0
282
0
283
0
284
8
285
0
286
0
288
1
289
3
290
0
340
4C
371
-2
372
-2
  0
DIMSTYLE
105
7F
330
4
100
AcDbSymbolTableRecord
100
AcDbDimStyleTableRecord
  2
EZ_M_20_H25_CM
 70
0
 40
1.0
 41
0.05
 42
0.025
 43
3.75
 44
0.07500000000000001
 45
0.0
 46
0.0
 47
0.0
 48
0.0
 49
2.5
140
0.05
141
2.5
142
0.025
143
0.03937007874
144
100.0
145
0.0
146
0.5
147
0.020000000000000004
148
0.0
 69
0
 70
0
 71
0
 72
0
 73
0
 74
0
 75
0
 76
0
 77
1
 78
12
 79
3
170
0
171
3
172
1
173
0
174
0
175
0
176
0
177
0
178
0
179
2
271
2
272
2
273
2
274
3
275
0
276
0
277
2
278
46
279
2
280
0
281
0
282
0
283
0
284
8
285
0
286
0
288
1
289
3
290
0
340
4C
371
-2
372
-2
  0
DIMSTYLE
105
80
330
4
100
AcDbSymbolTableRecord
100
AcDbDimStyleTableRecord
  2
EZ_M_10_H25_CM
 70
0
 40
1.0
 41
0.025
 42
0.0125
 43
3.75
 44
0.037500000000000006
 45
0.0
 46
0.0
 47
0.0
 48
0.0
 49
2.5
140
0.025
141
2.5
142
0.0125
143
0.03937007874
144
100.0
145
0.0
146
0.5
147
0.010000000000000002
148
0.0
 69
0
 70
0
 71
0
 72
0
 73
0
 74
0
 75
0
 76
0
 77
1
 78
12
 79
3
170
0
171
3
172
1
173
0
174
0
175
0
176
0
177
0
178
0
179
2
271
2
272
2
273
2
274
3
275
0
276
0
277
2
278
46
279
2
280
0
281
0
282
0
283
0
284
8
285
0
286
0
288
1
289
3
290
0
340
4C
371
-2
372
-2
  0
DIMSTYLE
105
81
330
4
100
AcDbSymbolTableRecord
100
AcDbDimStyleTableRecord
  2
EZ_M_5_H25_CM
 70
0
 40
1.0
 41
0.0125
 42
0.00625
 43
3.75
 44
0.018750000000000003
 45
0.0
 46
0.0
 47
0.0
 48
0.0
 49
2.5
140
0.0125
141
2.5
142
0.00625
143
0.03937007874
144
100.0
145
0.0
146
0.5
147
0.005000000000000001
148
0.0
 69
0
 70
0
 71
0
 72
0
 73
0
 74
0
 75
0
 76
0
 77
1
 78
12
 79
3
170
0
171
3
172
1
173
0
174
0
175
0
176
0
177
0
178
0
179
2
271
2
272
2
273
2
274
3
275
0
276
0
277
2
278
46
279
2
280
0
281
0
282
0
283
0
284
8
285
0
286
0
288
1
289
3
290
0
340
4C
371
-2
372
-2
  0
DIMSTYLE
105
82
330
4
100
AcDbSymbolTableRecord
100
AcDbDimStyleTableRecord
  2
EZ_M_1_H25_CM
 70
0
 40
1.0
 41
0.0025
 42
0.00125
 43
3.75
 44
0.00375
 45
0.0
 46
0.0
 47
0.0
 48
0.0
 49
2.5
140
0.0025
141
2.5
142
0.00125
143
0.03937007874
144
100.0
145
0.0
146
0.5
147
0.001
148
0.0
 69
0
 70
0
 71
0
 72
0
 73
0
 74
0
 75
0
 76
0
 77
1
 78
12
 79
3
170
0
171
3
172
1
173
0
174
0
175
0
176
0
177
0
178
0
179
2
271
2
272
2
273
2
274
3
275
0
276
0
277
2
278
46
279
2
280
0
281
0
282
0
283
0
284
8
285
0
286
0
288
1
289
3
290
0
340
4C
371
-2
372
-2
  0
DIMSTYLE
105
83
330
4
100
AcDbSymbolTableRecord
100
AcDbDimStyleTableRecord
  2
EZ_RADIUS
 70
0
 40
1.0
 41
0.25
 42
0.125
 43
3.75
 44
0.375
 45
0.0
 46
0.0
 47
0.0
 48
0.0
 49
2.5
140
0.25
141
0.0
142
0.0
143
0.03937007874
144
100.0
145
0.0
146
0.5
147
0.1
148
0.0
 69
0
 70
0
 71
0
 72
0
 73
0
 74
0
 75
0
 76
0
 77
1
 78
12
 79
3
170
0
171
3
172
0
173
0
174
0
175
0
176
0
177
0
178
0
179
2
271
2
272
2
273
2
274
3
275
0
276
0
277
2
278
46
279
1
280
0
281
0
282
0
283
0
284
8
285
0
286
0
288
1
289
3
290
0
340
4C
342
84
371
-2
372
-2
  0
DIMSTYLE
105
88
330
4
100
AcDbSymbolTableRecord
100
AcDbDimStyleTableRecord
  2
EZ_RADIUS_INSIDE
 70
0
 40
1.0
 41
0.25
 42
0.125
 43
3.75
 44
0.375
 45
0.0
 46
0.0
 47
0.0
 48
0.0
 49
2.5
140
0.25
141
0.0
142
0.0
143
0.03937007874
144
100.0
145
0.0
146
0.5
147
0.1
148
0.0
 69
0
 70
0
 71
0
 72
0
 73
0
 74
0
 75
0
 76
0
 77
0
 78
12
 79
3
170
0
171
3
172
0
173
0
174
1
175
0
176
0
177
0
178
0
179
2
271
2
272
2
273
2
274
3
275
0
276
0
277
2
278
46
279
0
280
0
281
0
282
0
283
0
284
8
285
0
286
0
288
1
289
0
290
0
340
4C
342
84
371
-2
372
-2
  0
DIMSTYLE
105
89
330
4
100
AcDbSymbolTableRecord
100
AcDbDimStyleTableRecord
  2
EZ_CURVED
 70
0
 40
1.0
 41
0.25
 42
0.125
 43
3.75
 44
0.375
 45
0.0
 46
0.0
 47
0.0
 48
0.0
 49
2.5
140
0.25
141
2.5
142
0.0
143
0.03937007874
144
100.0
145
0.0
146
0.5
147
0.1
148
0.0
 69
0
 70
0
 71
0
 72
0
 73
0
 74
0
 75
0
 76
0
 77
1
 78
12
 79
2
 90
2
170
0
171
3
172
1
173
0
174
0
175
0
176
0
177
0
178
0
179
2
271
2
272
2
273
2
274
3
275
0
276
0
277
2
278
46
279
2
280
0
281
0
282
0
283
0
284
8
285
0
286
0
288
1
289
3
290
0
340
4C
371
-2
372
-2
  0
ENDTAB
  0
TABLE
  2
BLOCK_RECORD
  5
9
330
0
100
AcDbSymbolTable
 70
5
  0
BLOCK_RECORD
  5
17
330
9
100
AcDbSymbolTableRecord
100
AcDbBlockTableRecord
  2
*Model_Space
340
1A
 70
0
280
1
281
0
  0
BLOCK_RECORD
  5
1B
330
9
100
AcDbSymbolTableRecord
100
AcDbBlockTableRecord
  2
*Paper_Space
340
1E
 70
0
280
1
281
0
  0
BLOCK_RECORD
  5
74
330
9
100
AcDbSymbolTableRecord
100
AcDbBlockTableRecord
  2
_ARCHTICK
340
0
 70
0
280
1
281
0
  0
BLOCK_RECORD
  5
78
330
9
100
AcDbSymbolTableRecord
100
AcDbBlockTableRecord
  2
_CLOSEDFILLED
340
0
 70
0
280
1
281
0
  0
BLOCK_RECORD
  5
84
330
9
100
AcDbSymbolTableRecord
100
AcDbBlockTableRecord
  2
_CLOSEDBLANK
340
0
 70
0
280
1
281
0
  0
ENDTAB
  0
ENDSEC
  0
SECTION
  2
BLOCKS
  0
BLOCK
  5
18
330
17
100
AcDbEntity
  8
0
100
AcDbBlockBegin
  2
*Model_Space
 70
0
 10
0.0
 20
0.0
 30
0.0
  3
*Model_Space
  1

  0
ENDBLK
  5
19
330
17
100
AcDbEntity
  8
0
100
AcDbBlockEnd
  0
BLOCK
  5
1C
330
1B
100
AcDbEntity
  8
0
100
AcDbBlockBegin
  2
*Paper_Space
 70
0
 10
0.0
 20
0.0
 30
0.0
  3
*Paper_Space
  1

  0
ENDBLK
  5
1D
330
1B
100
AcDbEntity
  8
0
100
AcDbBlockEnd
  0
BLOCK
  5
75
330
74
100
AcDbEntity
  8
0
100
AcDbBlockBegin
  2
_ARCHTICK
 70
0
 10
0.0
 20
0.0
 30
0.0
  3
_ARCHTICK
  1

  0
LWPOLYLINE
  5
77
330
74
100
AcDbEntity
  8
0
  6
BYBLOCK
 62
0
100
AcDbPolyline
 90
2
 70
0
 43
0.15
 10
-0.5
 20
-0.5
 10
0.5
 20
0.5
  0
ENDBLK
  5
76
330
74
100
AcDbEntity
  8
0
100
AcDbBlockEnd
  0
BLOCK
  5
79
330
78
100
AcDbEntity
  8
0
100
AcDbBlockBegin
  2
_CLOSEDFILLED
 70
0
 10
0.0
 20
0.0
 30
0.0
  3
_CLOSEDFILLED
  1

  0
SOLID
  5
7B
330
78
100
AcDbEntity
  8
0
  6
BYBLOCK
 62
0
100
AcDbTrace
 10
-1.0
 20
0.16439898372402537
 30
0.0
 11
0.0
 21
0.0
 31
0.0
 12
-1.0
 22
-0.16439898372402537
 32
0.0
 13
-1.0
 23
-0.16439898372402537
 33
0.0
  0
ENDBLK
  5
7A
330
78
100
AcDbEntity
  8
0
100
AcDbBlockEnd
  0
BLOCK
  5
85
330
84
100
AcDbEntity
  8
0
100
AcDbBlockBegin
  2
_CLOSEDBLANK
 70
0
 10
0.0
 20
0.0
 30
0.0
  3
_CLOSEDBLANK
  1

  0
LWPOLYLINE
  5
87
330
84
100
AcDbEntity
  8
0
  6
BYBLOCK
 62
0
100
AcDbPolyline
 90
3
 70
1
 10
-1.0
 20
0.16439898372402537
 10
0.0
 20
0.0
 10
-1.0
 20
-0.16439898372402537
  0
ENDBLK
  5
86
330
84
100
AcDbEntity
  8
0
100
AcDbBlockEnd
  0
ENDSEC
  0
SECTION
  2
ENTITIES
  0
LWPOLYLINE
  5
8D
330
17
100
AcDbEntity
  8
LABEL
100
AcDbPolyline
 90
4
 70
1
 10
0.0
 20
1120.0
 10
1371.6
 20
1120.0
 10
1371.6
 20
0.0
 10
0.0
 20
0.0
  0
LWPOLYLINE
  5
8E
330
17
100
AcDbEntity
  8
CUT
100
AcDbPolyline
 90
234
 70
1
 10
0.003
 20
1064.583
 10
0.002
 20
1058.904
 10
0.002
 20
1054.652
 10
0.001
 20
1050.422
 10
0.001
 20
1045.937
 10
0.001
 20
1041.475
 10
0.001
 20
1036.568
 10
0.0
 20
1031.688
 10
0.0
 20
1026.238
 10
0.0
 20
1020.817
 10
0.0
 20
1016.772
 10
0.0
 20
1012.758
 10
0.0
 20
1008.745
 10
0.0
 20
1004.289
 10
0.0
 20
999.8679999999999
 10
0.0
 20
995.448
 10
0.0
 20
990.598
 10
0.0
 20
985.787
 10
0.0
 20
980.976
 10
0.0
 20
975.768
 10
0.0
 20
970.601
 10
0.0
 20
965.435
 10
0.0
 20
959.918
 10
0.0
 20
954.444
 10
0.0
 20
948.97
 10
0.0
 20
943.202
 10
0.0
 20
937.48
 10
0.0
 20
931.758
 10
0.0
 20
925.806
 10
0.0
 20
919.902
 10
0.0
 20
913.9970000000001
 10
0.0
 20
909.437
 10
0.0
 20
904.924
 10
0.0
 20
900.412
 10
0.0
 20
895.9
 10
0.0
 20
891.311
 10
0.0
 20
886.771
 10
0.0
 20
882.231
 10
0.0
 20
877.691
 10
0.0
 20
868.6179999999999
 10
0.0
 20
864.106
 10
0.0
 20
859.594
 10
0.0
 20
853.642
 10
0.0
 20
847.7370000000001
 10
0.0
 20
841.8330000000001
 10
0.0
 20
836.065
 10
0.0
 20
830.3430000000001
 10
0.0
 20
824.621
 10
0.0
 20
819.1030000000001
 10
0.0
 20
813.629
 10
0.0
 20
808.156
 10
0.0
 20
802.948
 10
0.0
 20
797.781
 10
0.0
 20
792.615
 10
0.0
 20
787.765
 10
0.0
 20
782.954
 10
0.0
 20
778.143
 10
0.0
 20
773.687
 10
0.0
 20
769.267
 10
0.0
 20
764.846
 10
0.0
 20
760.8
 10
0.0
 20
756.787
 10
0.0
 20
752.774
 10
0.0
 20
747.3240000000001
 10
0.0
 20
741.904
 10
0.0
 20
736.9970000000001
 10
0.0
 20
732.116
 10
0.0
 20
727.631
 10
0.0
 20
723.169
 10
0.0
 20
718.9169999999999
 10
0.0
 20
714.688
 10
0.0
 20
708.994
 10
0.0
 20
703.299
 10
0.0
 20
697.604
 10
0.0
 20
691.909
 10
0.0
 20
686.2149999999999
 10
0.0
 20
680.52
 10
0.0
 20
674.825
 10
0.0
 20
668.933
 10
0.0
 20
663.636
 10
0.048
 20
662.655
 10
0.192
 20
661.685
 10
0.431
 20
660.733
 10
0.761
 20
659.809
 10
1.181
 20
658.922
 10
1.685
 20
658.0799999999999
 10
2.27
 20
657.2919999999999
 10
2.929
 20
656.565
 10
3.656
 20
655.906
 10
4.444
 20
655.321
 10
5.286
 20
654.816
 10
6.173
 20
654.3969999999999
 10
7.097
 20
654.066
 10
8.049
 20
653.828
 10
9.02
 20
653.684
 10
10.0
 20
653.636
 10
15.569
 20
653.636
 10
21.339
 20
653.636
 10
27.108
 20
653.636
 10
32.877
 20
653.636
 10
38.647
 20
653.636
 10
44.416
 20
653.636
 10
50.185
 20
653.636
 10
55.935
 20
653.636
 10
61.505
 20
653.614
 10
61.539
 20
653.614
 10
67.289
 20
653.6120000000001
 10
73.04
 20
653.607
 10
78.795
 20
653.6
 10
84.557
 20
653.591
 10
85.538
 20
653.637
 10
86.509
 20
653.78
 10
87.462
 20
654.017
 10
88.387
 20
654.346
 10
89.275
 20
654.765
 10
90.117
 20
655.268
 10
90.907
 20
655.852
 10
91.635
 20
656.51
 10
92.295
 20
657.236
 10
92.881
 20
658.024
 10
93.387
 20
658.865
 10
93.808
 20
659.752
 10
94.14
 20
660.6759999999999
 10
94.379
 20
661.6279999999999
 10
94.525
 20
662.5989999999999
 10
94.574
 20
663.579
 10
94.581
 20
669.255
 10
94.586
 20
674.933
 10
94.589
 20
680.611
 10
94.592
 20
686.29
 10
94.594
 20
691.969
 10
94.596
 20
697.649
 10
94.597
 20
703.328
 10
94.598
 20
709.008
 10
94.599
 20
714.687
 10
94.599
 20
718.9390000000001
 10
94.6
 20
723.169
 10
94.6
 20
727.654
 10
94.6
 20
732.116
 10
94.601
 20
737.023
 10
94.601
 20
741.903
 10
94.601
 20
747.3530000000001
 10
94.601
 20
752.774
 10
94.601
 20
756.819
 10
94.601
 20
760.8330000000001
 10
94.601
 20
764.846
 10
94.601
 20
769.302
 10
94.601
 20
773.723
 10
94.601
 20
778.143
 10
94.601
 20
782.9929999999999
 10
94.601
 20
787.804
 10
94.601
 20
797.823
 10
94.601
 20
802.989
 10
94.601
 20
808.156
 10
94.601
 20
813.673
 10
94.601
 20
819.1469999999999
 10
94.601
 20
824.621
 10
94.601
 20
830.389
 10
94.601
 20
836.111
 10
94.601
 20
841.8330000000001
 10
94.601
 20
847.7850000000001
 10
94.601
 20
853.6890000000001
 10
94.601
 20
859.594
 10
94.601
 20
864.154
 10
94.601
 20
873.179
 10
94.601
 20
877.691
 10
94.601
 20
882.28
 10
94.601
 20
891.36
 10
94.601
 20
895.9
 10
94.601
 20
900.461
 10
94.601
 20
970.643
 10
94.601
 20
975.809
 10
94.601
 20
990.637
 10
94.601
 20
995.448
 10
94.601
 20
1054.673
 10
94.601
 20
1058.903
 10
94.601
 20
1064.597
 10
94.601
 20
1070.292
 10
94.601
 20
1075.987
 10
94.601
 20
1098.766
 10
94.601
 20
1104.658
 10
94.601
 20
1109.955
 10
94.553
 20
1110.935
 10
94.409
 20
1111.906
 10
94.17
 20
1112.858
 10
93.84
 20
1113.782
 10
93.42
 20
1114.669
 10
92.916
 20
1115.511
 10
92.331
 20
1116.299
 10
91.672
 20
1117.026
 10
90.945
 20
1117.685
 10
90.157
 20
1118.27
 10
89.315
 20
1118.774
 10
88.428
 20
1119.194
 10
87.504
 20
1119.525
 10
86.552
 20
1119.763
 10
85.581
 20
1119.907
 10
84.601
 20
1119.955
 10
79.032
 20
1119.955
 10
73.262
 20
1119.955
 10
67.493
 20
1119.955
 10
61.724
 20
1119.955
 10
55.954
 20
1119.955
 10
44.416
 20
1119.955
 10
38.666
 20
1119.955
 10
33.096
 20
1119.977
 10
33.063
 20
1119.977
 10
27.312
 20
1119.979
 10
21.561
 20
1119.984
 10
15.806
 20
1119.99
 10
10.044
 20
1120.0
 10
9.063
 20
1119.953
 10
8.092
 20
1119.811
 10
7.139
 20
1119.574
 10
6.215
 20
1119.245
 10
5.326
 20
1118.826
 10
4.484
 20
1118.323
 10
3.694
 20
1117.739
 10
2.966
 20
1117.081
 10
2.306
 20
1116.355
 10
1.72
 20
1115.567
 10
1.214
 20
1114.726
 10
0.793
 20
1113.839
 10
0.461
 20
1112.915
 10
0.222
 20
1111.963
 10
0.076
 20
1110.992
 10
0.027
 20
1110.012
 10
0.02
 20
1104.335
 10
0.015
 20
1098.658
 10
0.012
 20
1092.98
 10
0.009
 20
1087.301
 10
0.007
 20
1081.622
 10
0.005
 20
1075.942
 10
0.004
 20
1070.263
  0
LWPOLYLINE
  5
8F
330
17
100
AcDbEntity
  8
STITCH
100
AcDbPolyline
 90
202
 70
1
 10
10.003
 20
1064.582
 10
10.004
 20
1070.261
 10
10.005
 20
1075.94
 10
10.007
 20
1081.619
 10
10.009
 20
1087.297
 10
10.012
 20
1092.975
 10
10.015
 20
1098.651
 10
10.02
 20
1104.327
 10
10.027
 20
1110.0
 10
15.792
 20
1109.99
 10
21.551
 20
1109.984
 10
27.306
 20
1109.979
 10
33.058
 20
1109.977
 10
38.647
 20
1109.955
 10
44.416
 20
1109.955
 10
50.185
 20
1109.955
 10
55.955
 20
1109.955
 10
61.724
 20
1109.955
 10
67.493
 20
1109.955
 10
73.262
 20
1109.955
 10
79.032
 20
1109.955
 10
84.601
 20
1109.955
 10
84.601
 20
1104.658
 10
84.601
 20
1098.766
 10
84.601
 20
1093.071
 10
84.601
 20
1087.376
 10
84.601
 20
1081.682
 10
84.601
 20
1075.987
 10
84.601
 20
1070.292
 10
84.601
 20
1064.597
 10
84.601
 20
1058.903
 10
84.601
 20
1054.673
 10
84.601
 20
1050.422
 10
84.601
 20
1045.96
 10
84.601
 20
1041.475
 10
84.601
 20
1036.594
 10
84.601
 20
1031.687
 10
84.601
 20
1026.267
 10
84.601
 20
1020.817
 10
84.601
 20
1016.804
 10
84.601
 20
1012.79
 10
84.601
 20
1008.745
 10
84.601
 20
1004.324
 10
84.601
 20
999.904
 10
84.601
 20
995.448
 10
84.601
 20
990.637
 10
84.601
 20
985.826
 10
84.601
 20
980.976
 10
84.601
 20
975.809
 10
84.601
 20
970.643
 10
84.601
 20
965.435
 10
84.601
 20
959.961
 10
84.601
 20
954.488
 10
84.601
 20
948.97
 10
84.601
 20
943.248
 10
84.601
 20
937.5260000000001
 10
84.601
 20
931.758
 10
84.601
 20
925.854
 10
84.601
 20
919.9490000000001
 10
84.601
 20
913.9970000000001
 10
84.601
 20
909.485
 10
84.601
 20
904.973
 10
84.601
 20
900.461
 10
84.601
 20
895.9
 10
84.601
 20
891.36
 10
84.601
 20
886.8199999999999
 10
84.601
 20
882.279
 10
84.601
 20
877.691
 10
84.601
 20
873.179
 10
84.601
 20
868.6659999999999
 10
84.601
 20
864.154
 10
84.601
 20
859.594
 10
84.601
 20
853.6890000000001
 10
84.601
 20
847.7850000000001
 10
84.601
 20
841.8330000000001
 10
84.601
 20
836.111
 10
84.601
 20
830.389
 10
84.601
 20
824.621
 10
84.601
 20
819.1469999999999
 10
84.601
 20
813.673
 10
84.601
 20
808.156
 10
84.601
 20
802.989
 10
84.601
 20
797.823
 10
84.601
 20
792.615
 10
84.601
 20
787.804
 10
84.601
 20
782.9929999999999
 10
84.601
 20
778.143
 10
84.601
 20
773.723
 10
84.601
 20
769.302
 10
84.601
 20
764.846
 10
84.601
 20
760.8330000000001
 10
84.601
 20
756.819
 10
84.601
 20
752.774
 10
84.601
 20
747.3530000000001
 10
84.601
 20
741.904
 10
84.601
 20
737.023
 10
84.6
 20
732.116
 10
84.6
 20
727.655
 10
84.6
 20
723.169
 10
84.599
 20
718.94
 10
84.599
 20
714.688
 10
84.598
 20
709.009
 10
84.597
 20
703.3299999999999
 10
84.596
 20
697.6510000000001
 10
84.594
 20
691.972
 10
84.592
 20
686.294
 10
84.589
 20
680.616
 10
84.586
 20
674.94
 10
84.581
 20
669.264
 10
84.574
 20
663.591
 10
78.809
 20
663.6
 10
73.05
 20
663.607
 10
67.295
 20
663.6120000000001
 10
61.543
 20
663.614
 10
55.955
 20
663.636
 10
50.185
 20
663.636
 10
44.416
 20
663.636
 10
38.647
 20
663.636
 10
32.877
 20
663.636
 10
27.108
 20
663.636
 10
21.339
 20
663.636
 10
15.569
 20
663.636
 10
10.0
 20
663.636
 10
10.0
 20
668.933
 10
10.0
 20
674.825
 10
10.0
 20
680.52
 10
10.0
 20
686.2149999999999
 10
10.0
 20
691.909
 10
10.0
 20
697.604
 10
10.0
 20
703.299
 10
10.0
 20
708.994
 10
10.0
 20
714.688
 10
10.0
 20
718.9169999999999
 10
10.0
 20
723.169
 10
10.0
 20
727.631
 10
10.0
 20
732.116
 10
10.0
 20
736.9970000000001
 10
10.0
 20
741.904
 10
10.0
 20
747.3240000000001
 10
10.0
 20
752.774
 10
10.0
 20
756.787
 10
10.0
 20
760.8
 10
10.0
 20
764.846
 10
10.0
 20
769.267
 10
10.0
 20
773.687
 10
10.0
 20
778.143
 10
10.0
 20
782.954
 10
10.0
 20
787.765
 10
10.0
 20
792.615
 10
10.0
 20
797.781
 10
10.0
 20
802.948
 10
10.0
 20
808.156
 10
10.0
 20
813.629
 10
10.0
 20
819.1030000000001
 10
10.0
 20
824.621
 10
10.0
 20
830.3430000000001
 10
10.0
 20
836.065
 10
10.0
 20
841.8330000000001
 10
10.0
 20
847.7370000000001
 10
10.0
 20
853.642
 10
10.0
 20
859.594
 10
10.0
 20
864.106
 10
10.0
 20
868.6179999999999
 10
10.0
 20
873.13
 10
10.0
 20
877.691
 10
10.0
 20
882.231
 10
10.0
 20
886.771
 10
10.0
 20
891.311
 10
10.0
 20
895.9
 10
10.0
 20
900.412
 10
10.0
 20
904.924
 10
10.0
 20
909.437
 10
10.0
 20
913.9970000000001
 10
10.0
 20
919.902
 10
10.0
 20
925.806
 10
10.0
 20
931.758
 10
10.0
 20
937.48
 10
10.0
 20
943.202
 10
10.0
 20
948.97
 10
10.0
 20
954.444
 10
10.0
 20
959.918
 10
10.0
 20
965.435
 10
10.0
 20
970.601
 10
10.0
 20
975.768
 10
10.0
 20
980.976
 10
10.0
 20
985.787
 10
10.0
 20
990.598
 10
10.0
 20
995.448
 10
10.0
 20
999.8679999999999
 10
10.0
 20
1004.289
 10
10.0
 20
1008.745
 10
10.0
 20
1012.758
 10
10.0
 20
1016.772
 10
10.0
 20
1020.817
 10
10.0
 20
1026.238
 10
10.0
 20
1031.687
 10
10.001
 20
1036.568
 10
10.001
 20
1041.475
 10
10.001
 20
1045.936
 10
10.001
 20
1050.422
 10
10.002
 20
1054.651
 10
10.002
 20
1058.903
  0
TEXT
  5
90
330
17
100
AcDbEntity
  8
LABEL
100
AcDbText
 10
47.3005
 20
886.7955
 30
0.0
 40
10.0
  1
A piece-1
 72
1
 11
47.3005
 21
886.7955
 31
0.0
100
AcDbText
 73
2
  0
LWPOLYLINE
  5
91
330
17
100
AcDbEntity
  8
CUT
100
AcDbPolyline
 90
984
 70
1
 10
125.352
 20
-0.0019999999999527063
 10
127.602
 20
-0.0019999999999527063
 10
128.583
 20
0.04600000000004911
 10
129.553
 20
0.19000000000005457
 10
130.505
 20
0.42800000000011096
 10
131.429
 20
0.7590000000000146
 10
132.316
 20
1.178000000000111
 10
133.15800000000002
 20
1.6829999999999927
 10
133.946
 20
2.268000000000029
 10
134.673
 20
2.9269999999999072
 10
135.332
 20
3.6539999999999964
 10
135.917
 20
4.442000000000007
 10
136.422
 20
5.2840000000001055
 10
136.841
 20
6.171000000000049
 10
137.172
 20
7.095000000000027
 10
137.41
 20
8.047000000000025
 10
137.554
 20
9.018000000000029
 10
137.602
 20
9.998000000000047
 10
137.602
 20
12.145999999999958
 10
137.602
 20
14.295000000000073
 10
137.602
 20
16.442999999999984
 10
137.602
 20
18.590999999999894
 10
137.602
 20
20.74000000000001
 10
137.602
 20
22.88799999999992
 10
137.602
 20
25.037000000000035
 10
137.602
 20
27.184999999999945
 10
137.602
 20
29.33400000000006
 10
137.602
 20
31.48199999999997
 10
137.602
 20
33.631000000000085
 10
137.602
 20
35.778999999999996
 10
137.602
 20
37.92699999999991
 10
137.602
 20
40.07600000000002
 10
137.602
 20
42.22399999999993
 10
137.602
 20
44.37300000000005
 10
137.602
 20
46.52099999999996
 10
137.602
 20
48.67000000000007
 10
137.602
 20
50.817999999999984
 10
137.602
 20
52.9670000000001
 10
137.602
 20
55.11500000000001
 10
137.602
 20
57.26299999999992
 10
137.602
 20
59.412000000000035
 10
137.602
 20
61.559999999999945
 10
137.602
 20
63.70900000000006
 10
137.602
 20
65.85699999999997
 10
137.602
 20
68.00600000000009
 10
137.602
 20
70.154
 10
137.602
 20
72.30199999999991
 10
137.602
 20
74.45100000000002
 10
137.602
 20
76.59899999999993
 10
137.602
 20
78.74800000000005
 10
137.602
 20
80.89599999999996
 10
137.602
 20
83.04500000000007
 10
137.602
 20
85.19299999999998
 10
137.602
 20
87.3420000000001
 10
137.602
 20
89.49000000000001
 10
137.602
 20
91.63799999999992
 10
137.602
 20
93.78700000000003
 10
137.602
 20
95.93499999999995
 10
137.602
 20
98.08399999999995
 10
137.602
 20
100.23199999999997
 10
137.602
 20
102.38099999999997
 10
137.602
 20
106.678
 10
137.602
 20
108.82600000000002
 10
137.602
 20
110.97400000000005
 10
137.602
 20
113.12300000000005
 10
137.602
 20
115.27099999999996
 10
137.602
 20
117.41999999999996
 10
137.602
 20
119.56799999999998
 10
137.602
 20
121.71699999999998
 10
137.602
 20
123.86500000000001
 10
137.602
 20
126.01400000000001
 10
137.602
 20
128.16200000000003
 10
137.602
 20
130.30999999999995
 10
137.602
 20
132.45899999999995
 10
137.602
 20
134.60699999999997
 10
137.602
 20
136.75599999999997
 10
137.602
 20
138.904
 10
137.602
 20
141.053
 10
137.602
 20
143.20100000000002
 10
137.602
 20
145.35000000000002
 10
137.602
 20
147.49800000000005
 10
137.602
 20
149.64599999999996
 10
137.602
 20
151.79499999999996
 10
137.602
 20
153.94299999999998
 10
137.602
 20
156.09199999999998
 10
137.602
 20
158.24
 10
137.602
 20
160.389
 10
137.602
 20
162.53700000000003
 10
137.602
 20
164.68600000000004
 10
137.602
 20
166.83399999999995
 10
137.602
 20
168.98199999999997
 10
137.602
 20
171.13099999999997
 10
137.602
 20
173.279
 10
137.602
 20
175.428
 10
137.602
 20
177.57600000000002
 10
137.602
 20
179.72500000000002
 10
137.602
 20
181.87300000000005
 10
137.602
 20
184.02099999999996
 10
137.602
 20
186.16999999999996
 10
137.602
 20
188.31799999999998
 10
137.602
 20
190.46699999999998
 10
137.602
 20
192.615
 10
137.602
 20
194.764
 10
137.602
 20
196.91200000000003
 10
137.602
 20
199.06100000000004
 10
137.602
 20
201.20899999999995
 10
137.602
 20
203.35699999999997
 10
137.602
 20
205.50599999999997
 10
137.602
 20
207.654
 10
137.602
 20
209.803
 10
137.602
 20
211.95100000000002
 10
137.602
 20
214.10000000000002
 10
137.602
 20
216.24800000000005
 10
137.602
 20
218.39700000000005
 10
137.602
 20
220.54499999999996
 10
137.602
 20
222.69299999999998
 10
137.602
 20
224.84199999999998
 10
137.602
 20
226.99
 10
137.602
 20
229.139
 10
137.602
 20
231.28700000000003
 10
137.602
 20
233.43600000000004
 10
137.602
 20
235.58399999999995
 10
137.602
 20
237.73299999999995
 10
137.602
 20
239.88099999999997
 10
137.602
 20
242.029
 10
137.602
 20
244.178
 10
137.602
 20
246.32600000000002
 10
137.602
 20
248.47500000000002
 10
137.602
 20
250.62300000000005
 10
137.602
 20
252.77200000000005
 10
137.602
 20
254.91999999999996
 10
137.602
 20
257.068
 10
137.602
 20
259.217
 10
137.602
 20
261.365
 10
137.602
 20
263.514
 10
137.602
 20
265.66200000000003
 10
137.602
 20
269.95899999999995
 10
137.602
 20
272.10799999999995
 10
137.602
 20
274.256
 10
137.602
 20
276.404
 10
137.602
 20
278.553
 10
137.602
 20
280.701
 10
137.602
 20
282.85
 10
137.602
 20
284.99800000000005
 10
137.602
 20
287.14700000000005
 10
137.602
 20
289.29499999999996
 10
137.602
 20
291.44399999999996
 10
137.602
 20
293.592
 10
137.602
 20
295.74
 10
137.602
 20
297.889
 10
137.602
 20
300.03700000000003
 10
137.602
 20
302.18600000000004
 10
137.602
 20
304.33399999999995
 10
137.602
 20
306.48299999999995
 10
137.602
 20
308.631
 10
137.602
 20
310.78
 10
137.602
 20
312.928
 10
137.602
 20
315.076
 10
137.602
 20
317.225
 10
137.602
 20
319.37300000000005
 10
137.602
 20
321.52200000000005
 10
137.602
 20
323.66999999999996
 10
137.602
 20
325.81899999999996
 10
137.602
 20
327.967
 10
137.602
 20
330.115
 10
137.602
 20
332.264
 10
137.602
 20
334.41200000000003
 10
137.602
 20
336.56100000000004
 10
137.602
 20
338.70899999999995
 10
137.602
 20
340.85799999999995
 10
137.602
 20
343.006
 10
137.602
 20
347.303
 10
137.602
 20
349.451
 10
137.602
 20
351.6
 10
137.602
 20
353.74800000000005
 10
137.602
 20
355.89700000000005
 10
137.602
 20
358.04499999999996
 10
137.602
 20
360.19399999999996
 10
137.602
 20
362.342
 10
137.602
 20
364.491
 10
137.602
 20
366.639
 10
137.602
 20
368.78700000000003
 10
137.602
 20
370.93600000000004
 10
137.602
 20
373.08399999999995
 10
137.602
 20
375.23299999999995
 10
137.602
 20
377.381
 10
137.602
 20
379.53
 10
137.602
 20
381.678
 10
137.602
 20
383.827
 10
137.602
 20
385.975
 10
137.602
 20
390.27200000000005
 10
137.602
 20
392.41999999999996
 10
137.602
 20
394.56899999999996
 10
137.602
 20
396.717
 10
137.602
 20
398.866
 10
137.602
 20
401.014
 10
137.602
 20
403.163
 10
137.602
 20
405.31100000000004
 10
137.602
 20
407.45899999999995
 10
137.602
 20
409.60799999999995
 10
137.602
 20
411.756
 10
137.602
 20
413.905
 10
137.602
 20
416.053
 10
137.602
 20
418.202
 10
137.602
 20
420.35
 10
137.602
 20
422.499
 10
137.602
 20
424.64700000000005
 10
137.602
 20
426.79499999999996
 10
137.602
 20
428.94399999999996
 10
137.602
 20
431.092
 10
137.602
 20
433.241
 10
137.602
 20
435.389
 10
137.602
 20
437.538
 10
137.602
 20
439.68600000000004
 10
137.602
 20
441.83500000000004
 10
137.602
 20
443.98299999999995
 10
137.602
 20
446.131
 10
137.602
 20
448.28
 10
137.602
 20
450.428
 10
137.602
 20
452.577
 10
137.602
 20
454.725
 10
137.602
 20
456.874
 10
137.602
 20
459.02200000000005
 10
137.602
 20
461.17100000000005
 10
137.602
 20
463.31899999999996
 10
137.602
 20
465.467
 10
137.602
 20
467.616
 10
137.602
 20
469.764
 10
137.602
 20
471.913
 10
137.602
 20
474.06100000000004
 10
137.602
 20
476.21000000000004
 10
137.602
 20
478.35799999999995
 10
137.602
 20
480.50699999999995
 10
137.602
 20
482.655
 10
137.602
 20
484.803
 10
137.602
 20
486.952
 10
137.602
 20
489.1
 10
137.602
 20
491.249
 10
137.602
 20
493.39700000000005
 10
137.602
 20
495.54600000000005
 10
137.602
 20
497.69399999999996
 10
137.602
 20
499.842
 10
137.602
 20
501.991
 10
137.602
 20
504.139
 10
137.602
 20
506.288
 10
137.602
 20
510.58500000000004
 10
137.602
 20
512.733
 10
137.602
 20
514.882
 10
137.602
 20
517.03
 10
137.602
 20
519.178
 10
137.602
 20
521.327
 10
137.602
 20
523.475
 10
137.602
 20
525.624
 10
137.602
 20
527.772
 10
137.602
 20
529.921
 10
137.602
 20
532.069
 10
137.602
 20
534.218
 10
137.602
 20
536.366
 10
137.602
 20
538.514
 10
137.602
 20
540.663
 10
137.602
 20
542.811
 10
137.602
 20
544.96
 10
137.602
 20
547.108
 10
137.602
 20
549.257
 10
137.602
 20
553.553
 10
137.602
 20
555.702
 10
137.602
 20
557.85
 10
137.602
 20
559.999
 10
137.602
 20
562.147
 10
137.602
 20
564.296
 10
137.602
 20
566.444
 10
137.602
 20
568.593
 10
137.602
 20
570.741
 10
137.602
 20
572.89
 10
137.602
 20
575.038
 10
137.602
 20
577.186
 10
137.602
 20
579.335
 10
137.602
 20
581.483
 10
137.602
 20
583.632
 10
137.602
 20
585.78
 10
137.602
 20
587.929
 10
137.602
 20
590.077
 10
137.602
 20
592.225
 10
137.602
 20
594.374
 10
137.602
 20
596.522
 10
137.602
 20
598.671
 10
137.602
 20
600.819
 10
137.602
 20
602.968
 10
137.602
 20
605.116
 10
137.602
 20
607.265
 10
137.602
 20
609.413
 10
137.602
 20
611.5609999999999
 10
137.602
 20
613.71
 10
137.602
 20
615.858
 10
137.602
 20
618.0070000000001
 10
137.602
 20
620.155
 10
137.602
 20
622.304
 10
137.602
 20
624.452
 10
137.602
 20
626.601
 10
137.602
 20
628.749
 10
137.602
 20
630.8969999999999
 10
137.602
 20
633.046
 10
137.602
 20
635.194
 10
137.602
 20
637.3430000000001
 10
137.602
 20
639.491
 10
137.602
 20
641.64
 10
137.602
 20
645.937
 10
137.602
 20
648.085
 10
137.602
 20
650.233
 10
137.602
 20
652.3820000000001
 10
137.602
 20
654.53
 10
137.602
 20
656.679
 10
137.602
 20
658.827
 10
137.602
 20
660.976
 10
137.602
 20
663.124
 10
137.602
 20
665.273
 10
137.602
 20
667.421
 10
137.602
 20
669.569
 10
137.602
 20
671.7180000000001
 10
137.602
 20
673.866
 10
137.602
 20
676.015
 10
137.602
 20
678.163
 10
137.602
 20
680.312
 10
137.602
 20
682.46
 10
137.602
 20
684.608
 10
137.602
 20
686.7570000000001
 10
137.602
 20
688.905
 10
137.602
 20
691.054
 10
137.602
 20
693.202
 10
137.602
 20
695.351
 10
137.602
 20
697.499
 10
137.602
 20
699.648
 10
137.602
 20
701.796
 10
137.602
 20
703.944
 10
137.602
 20
706.0930000000001
 10
137.602
 20
708.241
 10
137.601
 20
710.39
 10
137.601
 20
712.538
 10
137.601
 20
714.687
 10
137.601
 20
716.835
 10
137.601
 20
718.983
 10
137.601
 20
721.1320000000001
 10
137.601
 20
723.28
 10
137.601
 20
725.429
 10
137.601
 20
727.577
 10
137.601
 20
729.726
 10
137.601
 20
731.874
 10
137.601
 20
734.023
 10
137.601
 20
736.171
 10
137.601
 20
738.319
 10
137.601
 20
740.4680000000001
 10
137.601
 20
742.616
 10
137.601
 20
744.765
 10
137.601
 20
746.913
 10
137.601
 20
749.062
 10
137.601
 20
751.21
 10
137.601
 20
753.3589999999999
 10
137.601
 20
755.5070000000001
 10
137.601
 20
757.655
 10
137.601
 20
759.804
 10
137.601
 20
761.952
 10
137.601
 20
764.101
 10
137.601
 20
766.249
 10
137.601
 20
768.398
 10
137.601
 20
770.546
 10
137.601
 20
772.6949999999999
 10
137.601
 20
774.8430000000001
 10
137.601
 20
776.991
 10
137.601
 20
779.14
 10
137.601
 20
781.288
 10
137.601
 20
783.437
 10
137.601
 20
785.585
 10
137.601
 20
787.7339999999999
 10
137.601
 20
789.8820000000001
 10
137.601
 20
794.179
 10
137.601
 20
796.327
 10
137.601
 20
798.476
 10
137.601
 20
800.624
 10
137.601
 20
802.773
 10
137.601
 20
804.921
 10
137.601
 20
807.0699999999999
 10
137.601
 20
809.2180000000001
 10
137.601
 20
811.367
 10
137.601
 20
813.515
 10
137.601
 20
815.663
 10
137.601
 20
817.812
 10
137.601
 20
819.96
 10
137.601
 20
822.1089999999999
 10
137.601
 20
824.2570000000001
 10
137.601
 20
826.406
 10
137.601
 20
828.554
 10
137.601
 20
830.703
 10
137.601
 20
832.851
 10
137.601
 20
834.999
 10
137.601
 20
837.148
 10
137.601
 20
839.296
 10
137.601
 20
841.4449999999999
 10
137.601
 20
843.5930000000001
 10
137.601
 20
845.742
 10
137.601
 20
847.89
 10
137.601
 20
850.039
 10
137.601
 20
852.187
 10
137.601
 20
856.4839999999999
 10
137.601
 20
858.6320000000001
 10
137.601
 20
860.781
 10
137.601
 20
862.929
 10
137.601
 20
865.078
 10
137.601
 20
867.226
 10
137.601
 20
869.374
 10
137.601
 20
871.523
 10
137.601
 20
873.671
 10
137.601
 20
875.8199999999999
 10
137.601
 20
877.968
 10
137.601
 20
880.117
 10
137.601
 20
882.265
 10
137.601
 20
884.414
 10
137.601
 20
886.562
 10
137.601
 20
888.71
 10
137.601
 20
890.859
 10
137.601
 20
893.0070000000001
 10
137.601
 20
895.156
 10
137.601
 20
897.304
 10
137.601
 20
899.453
 10
137.601
 20
901.601
 10
137.601
 20
903.75
 10
137.601
 20
905.898
 10
137.601
 20
908.046
 10
137.601
 20
910.1949999999999
 10
137.601
 20
912.343
 10
137.601
 20
914.492
 10
137.601
 20
916.64
 10
137.601
 20
918.789
 10
137.601
 20
920.937
 10
137.601
 20
923.086
 10
137.601
 20
925.234
 10
137.601
 20
927.3820000000001
 10
137.601
 20
929.531
 10
137.601
 20
931.679
 10
137.601
 20
933.828
 10
137.601
 20
935.976
 10
137.601
 20
938.125
 10
137.601
 20
940.273
 10
137.601
 20
942.422
 10
137.601
 20
944.5699999999999
 10
137.601
 20
946.718
 10
137.601
 20
948.867
 10
137.601
 20
951.015
 10
137.601
 20
953.164
 10
137.601
 20
955.312
 10
137.601
 20
957.461
 10
137.601
 20
959.609
 10
137.601
 20
961.758
 10
137.601
 20
963.906
 10
137.601
 20
966.054
 10
137.601
 20
968.203
 10
137.601
 20
972.5
 10
137.601
 20
974.648
 10
137.601
 20
976.797
 10
137.601
 20
978.9449999999999
 10
137.601
 20
981.094
 10
137.601
 20
983.242
 10
137.601
 20
985.39
 10
137.601
 20
987.539
 10
137.601
 20
989.687
 10
137.601
 20
991.836
 10
137.601
 20
993.984
 10
137.601
 20
996.133
 10
137.601
 20
998.281
 10
137.601
 20
1000.429
 10
137.601
 20
1002.578
 10
137.601
 20
1004.726
 10
137.601
 20
1006.875
 10
137.601
 20
1009.023
 10
137.601
 20
1011.172
 10
137.601
 20
1013.3199999999999
 10
137.601
 20
1015.469
 10
137.601
 20
1017.617
 10
137.601
 20
1019.766
 10
137.601
 20
1021.914
 10
137.601
 20
1024.062
 10
137.601
 20
1026.211
 10
137.601
 20
1028.359
 10
137.601
 20
1030.508
 10
137.601
 20
1032.656
 10
137.601
 20
1034.805
 10
137.601
 20
1036.953
 10
137.601
 20
1039.101
 10
137.601
 20
1041.25
 10
137.601
 20
1043.398
 10
137.601
 20
1045.547
 10
137.601
 20
1047.695
 10
137.601
 20
1049.844
 10
137.601
 20
1051.992
 10
137.601
 20
1054.141
 10
137.601
 20
1056.289
 10
137.601
 20
1058.437
 10
137.601
 20
1060.586
 10
137.601
 20
1062.734
 10
137.601
 20
1064.883
 10
137.601
 20
1067.031
 10
137.601
 20
1069.18
 10
137.601
 20
1071.328
 10
137.601
 20
1073.477
 10
137.601
 20
1075.625
 10
137.601
 20
1077.773
 10
137.601
 20
1079.922
 10
137.601
 20
1082.07
 10
137.601
 20
1084.219
 10
137.601
 20
1086.367
 10
137.601
 20
1088.516
 10
137.601
 20
1092.813
 10
137.601
 20
1094.961
 10
137.601
 20
1097.109
 10
137.601
 20
1099.258
 10
137.601
 20
1101.406
 10
137.601
 20
1103.555
 10
137.601
 20
1105.703
 10
137.601
 20
1107.852
 10
137.601
 20
1110.0
 10
137.553
 20
1110.98
 10
137.409
 20
1111.951
 10
137.17000000000002
 20
1112.903
 10
136.84
 20
1113.827
 10
136.42000000000002
 20
1114.714
 10
135.916
 20
1115.556
 10
135.331
 20
1116.344
 10
134.672
 20
1117.071
 10
133.945
 20
1117.73
 10
133.15699999999998
 20
1118.315
 10
132.315
 20
1118.819
 10
131.428
 20
1119.239
 10
130.504
 20
1119.569
 10
129.552
 20
1119.808
 10
128.581
 20
1119.952
 10
127.601
 20
1120.0
 10
109.601
 20
1120.0
 10
108.621
 20
1119.952
 10
107.65
 20
1119.808
 10
106.698
 20
1119.569
 10
105.774
 20
1119.239
 10
104.887
 20
1118.819
 10
104.045
 20
1118.315
 10
103.257
 20
1117.73
 10
102.53
 20
1117.071
 10
101.871
 20
1116.344
 10
101.286
 20
1115.556
 10
100.782
 20
1114.714
 10
100.362
 20
1113.827
 10
100.032
 20
1112.903
 10
99.79299999999999
 20
1111.951
 10
99.649
 20
1110.98
 10
99.601
 20
1110.0
 10
99.601
 20
1107.852
 10
99.601
 20
1105.703
 10
99.601
 20
1103.555
 10
99.601
 20
1094.961
 10
99.601
 20
1092.813
 10
99.601
 20
1088.516
 10
99.601
 20
1086.367
 10
99.601
 20
1082.07
 10
99.601
 20
1079.922
 10
99.601
 20
1077.773
 10
99.601
 20
1075.625
 10
99.601
 20
1073.477
 10
99.601
 20
1071.328
 10
99.601
 20
1069.18
 10
99.601
 20
1067.031
 10
99.601
 20
1064.883
 10
99.601
 20
1062.734
 10
99.601
 20
1060.586
 10
99.601
 20
1058.437
 10
99.601
 20
1056.289
 10
99.601
 20
1054.141
 10
99.601
 20
1051.992
 10
99.601
 20
1049.844
 10
99.601
 20
1047.695
 10
99.601
 20
1045.547
 10
99.601
 20
1043.398
 10
99.601
 20
1041.25
 10
99.601
 20
1036.953
 10
99.601
 20
1034.805
 10
99.601
 20
1030.508
 10
99.601
 20
1028.359
 10
99.601
 20
1026.211
 10
99.601
 20
1024.062
 10
99.601
 20
1021.914
 10
99.601
 20
1019.765
 10
99.601
 20
1017.617
 10
99.601
 20
1013.3199999999999
 10
99.601
 20
1011.172
 10
99.601
 20
1009.023
 10
99.601
 20
1004.726
 10
99.601
 20
1002.578
 10
99.601
 20
1000.429
 10
99.601
 20
998.281
 10
99.601
 20
996.133
 10
99.601
 20
993.984
 10
99.601
 20
991.836
 10
99.601
 20
985.39
 10
99.601
 20
983.242
 10
99.601
 20
981.093
 10
99.601
 20
978.9449999999999
 10
99.601
 20
976.797
 10
99.601
 20
974.648
 10
99.601
 20
972.5
 10
99.601
 20
968.203
 10
99.601
 20
966.054
 10
99.601
 20
961.758
 10
99.601
 20
959.609
 10
99.601
 20
955.312
 10
99.601
 20
953.164
 10
99.601
 20
951.015
 10
99.601
 20
948.867
 10
99.601
 20
946.718
 10
99.601
 20
944.5699999999999
 10
99.601
 20
942.421
 10
99.601
 20
940.273
 10
99.601
 20
935.976
 10
99.601
 20
933.828
 10
99.601
 20
931.679
 10
99.601
 20
929.531
 10
99.601
 20
927.3820000000001
 10
99.601
 20
925.234
 10
99.601
 20
923.086
 10
99.601
 20
920.937
 10
99.601
 20
916.64
 10
99.601
 20
914.492
 10
99.601
 20
912.343
 10
99.601
 20
910.1949999999999
 10
99.601
 20
908.046
 10
99.601
 20
905.898
 10
99.601
 20
903.75
 10
99.601
 20
901.601
 10
99.601
 20
899.453
 10
99.601
 20
897.304
 10
99.601
 20
895.156
 10
99.601
 20
893.0070000000001
 10
99.601
 20
890.859
 10
99.601
 20
888.71
 10
99.601
 20
886.562
 10
99.601
 20
884.414
 10
99.601
 20
882.265
 10
99.601
 20
880.117
 10
99.601
 20
875.8199999999999
 10
99.601
 20
873.671
 10
99.601
 20
871.523
 10
99.601
 20
869.374
 10
99.601
 20
867.226
 10
99.601
 20
865.078
 10
99.601
 20
862.929
 10
99.601
 20
860.781
 10
99.601
 20
858.6320000000001
 10
99.601
 20
856.4839999999999
 10
99.601
 20
852.187
 10
99.601
 20
850.038
 10
99.601
 20
847.89
 10
99.601
 20
845.742
 10
99.601
 20
841.4449999999999
 10
99.601
 20
839.296
 10
99.601
 20
832.851
 10
99.601
 20
830.703
 10
99.601
 20
828.554
 10
99.601
 20
826.406
 10
99.601
 20
824.2570000000001
 10
99.601
 20
822.1089999999999
 10
99.601
 20
819.96
 10
99.601
 20
817.812
 10
99.601
 20
815.663
 10
99.601
 20
813.515
 10
99.601
 20
811.366
 10
99.601
 20
809.2180000000001
 10
99.601
 20
807.0699999999999
 10
99.601
 20
804.921
 10
99.601
 20
802.773
 10
99.601
 20
800.624
 10
99.601
 20
798.476
 10
99.601
 20
796.327
 10
99.601
 20
794.179
 10
99.601
 20
789.8820000000001
 10
99.601
 20
787.7339999999999
 10
99.601
 20
783.437
 10
99.601
 20
781.288
 10
99.601
 20
779.14
 10
99.601
 20
776.991
 10
99.601
 20
774.8430000000001
 10
99.601
 20
772.6949999999999
 10
99.601
 20
770.546
 10
99.601
 20
768.398
 10
99.601
 20
764.101
 10
99.601
 20
761.952
 10
99.601
 20
759.804
 10
99.601
 20
757.655
 10
99.601
 20
755.5070000000001
 10
99.601
 20
753.3589999999999
 10
99.601
 20
751.21
 10
99.601
 20
749.062
 10
99.601
 20
746.913
 10
99.601
 20
744.765
 10
99.601
 20
742.616
 10
99.601
 20
738.319
 10
99.601
 20
736.171
 10
99.601
 20
731.874
 10
99.601
 20
729.726
 10
99.601
 20
727.577
 10
99.601
 20
725.429
 10
99.601
 20
723.28
 10
99.601
 20
721.1320000000001
 10
99.601
 20
718.983
 10
99.601
 20
716.835
 10
99.601
 20
712.538
 10
99.601
 20
710.39
 10
99.601
 20
706.0930000000001
 10
99.601
 20
703.944
 10
99.601
 20
701.796
 10
99.601
 20
699.648
 10
99.601
 20
697.499
 10
99.602
 20
695.351
 10
99.602
 20
693.202
 10
99.602
 20
691.054
 10
99.602
 20
686.7570000000001
 10
99.602
 20
684.608
 10
99.602
 20
682.46
 10
99.602
 20
680.312
 10
99.602
 20
678.163
 10
99.602
 20
676.015
 10
99.602
 20
673.866
 10
99.602
 20
671.7180000000001
 10
99.602
 20
669.569
 10
99.602
 20
667.421
 10
99.602
 20
665.2719999999999
 10
99.602
 20
658.827
 10
99.602
 20
656.679
 10
99.602
 20
654.53
 10
99.602
 20
652.3820000000001
 10
99.602
 20
650.233
 10
99.602
 20
648.085
 10
99.602
 20
645.937
 10
99.602
 20
643.788
 10
99.602
 20
641.64
 10
99.602
 20
639.491
 10
99.602
 20
637.3430000000001
 10
99.602
 20
635.194
 10
99.602
 20
633.046
 10
99.602
 20
628.749
 10
99.602
 20
626.601
 10
99.602
 20
624.452
 10
99.602
 20
622.304
 10
99.602
 20
620.155
 10
99.602
 20
618.0070000000001
 10
99.602
 20
615.858
 10
99.602
 20
613.71
 10
99.602
 20
611.5609999999999
 10
99.602
 20
609.413
 10
99.602
 20
607.265
 10
99.602
 20
605.116
 10
99.602
 20
602.968
 10
99.602
 20
600.819
 10
99.602
 20
598.671
 10
99.602
 20
596.522
 10
99.602
 20
592.225
 10
99.602
 20
590.077
 10
99.602
 20
587.929
 10
99.602
 20
585.78
 10
99.602
 20
583.632
 10
99.602
 20
581.483
 10
99.602
 20
579.335
 10
99.602
 20
572.889
 10
99.602
 20
570.741
 10
99.602
 20
566.444
 10
99.602
 20
564.296
 10
99.602
 20
557.85
 10
99.602
 20
555.702
 10
99.602
 20
553.553
 10
99.602
 20
549.257
 10
99.602
 20
547.108
 10
99.602
 20
544.96
 10
99.602
 20
542.811
 10
99.602
 20
540.663
 10
99.602
 20
538.514
 10
99.602
 20
536.366
 10
99.602
 20
534.217
 10
99.602
 20
532.069
 10
99.602
 20
529.921
 10
99.602
 20
527.772
 10
99.602
 20
523.475
 10
99.602
 20
521.327
 10
99.602
 20
519.178
 10
99.602
 20
514.882
 10
99.602
 20
512.733
 10
99.602
 20
510.58500000000004
 10
99.602
 20
506.288
 10
99.602
 20
504.139
 10
99.602
 20
501.991
 10
99.602
 20
497.69399999999996
 10
99.602
 20
495.54600000000005
 10
99.602
 20
493.39700000000005
 10
99.602
 20
491.249
 10
99.602
 20
489.1
 10
99.602
 20
480.506
 10
99.602
 20
478.35799999999995
 10
99.602
 20
476.21000000000004
 10
99.602
 20
471.913
 10
99.602
 20
469.764
 10
99.602
 20
467.616
 10
99.602
 20
463.31899999999996
 10
99.602
 20
461.16999999999996
 10
99.602
 20
459.02200000000005
 10
99.602
 20
456.874
 10
99.602
 20
454.725
 10
99.602
 20
452.577
 10
99.602
 20
450.428
 10
99.602
 20
446.131
 10
99.602
 20
443.98299999999995
 10
99.602
 20
441.83399999999995
 10
99.602
 20
437.538
 10
99.602
 20
435.389
 10
99.602
 20
433.241
 10
99.602
 20
428.94399999999996
 10
99.602
 20
426.79499999999996
 10
99.602
 20
424.64700000000005
 10
99.602
 20
420.35
 10
99.602
 20
418.202
 10
99.602
 20
416.053
 10
99.602
 20
413.905
 10
99.602
 20
411.756
 10
99.602
 20
407.45899999999995
 10
99.602
 20
405.31100000000004
 10
99.602
 20
403.163
 10
99.602
 20
401.014
 10
99.602
 20
398.866
 10
99.602
 20
394.56899999999996
 10
99.602
 20
392.41999999999996
 10
99.602
 20
390.27200000000005
 10
99.602
 20
385.975
 10
99.602
 20
383.827
 10
99.602
 20
381.678
 10
99.602
 20
377.381
 10
99.602
 20
375.23299999999995
 10
99.602
 20
373.08399999999995
 10
99.602
 20
370.93600000000004
 10
99.602
 20
368.78700000000003
 10
99.602
 20
366.639
 10
99.602
 20
364.491
 10
99.602
 20
362.342
 10
99.602
 20
360.19399999999996
 10
99.602
 20
355.89700000000005
 10
99.602
 20
353.74800000000005
 10
99.602
 20
351.6
 10
99.602
 20
349.451
 10
99.602
 20
347.303
 10
99.602
 20
343.006
 10
99.602
 20
340.85799999999995
 10
99.602
 20
338.70899999999995
 10
99.602
 20
336.56100000000004
 10
99.602
 20
334.41200000000003
 10
99.602
 20
332.264
 10
99.602
 20
330.115
 10
99.602
 20
325.81899999999996
 10
99.602
 20
323.66999999999996
 10
99.602
 20
321.52200000000005
 10
99.602
 20
317.225
 10
99.602
 20
315.076
 10
99.602
 20
312.928
 10
99.602
 20
310.779
 10
99.602
 20
308.631
 10
99.602
 20
304.33399999999995
 10
99.602
 20
302.18600000000004
 10
99.602
 20
300.03700000000003
 10
99.602
 20
297.889
 10
99.602
 20
295.74
 10
99.602
 20
291.44399999999996
 10
99.602
 20
289.29499999999996
 10
99.602
 20
287.14700000000005
 10
99.602
 20
284.99800000000005
 10
99.602
 20
282.85
 10
99.602
 20
274.256
 10
99.602
 20
272.10799999999995
 10
99.602
 20
267.81100000000004
 10
99.602
 20
265.66200000000003
 10
99.602
 20
263.514
 10
99.602
 20
261.365
 10
99.602
 20
254.91999999999996
 10
99.602
 20
252.77200000000005
 10
99.602
 20
250.62300000000005
 10
99.602
 20
248.47500000000002
 10
99.602
 20
246.32600000000002
 10
99.602
 20
244.178
 10
99.602
 20
242.029
 10
99.602
 20
239.88099999999997
 10
99.602
 20
231.28700000000003
 10
99.602
 20
229.139
 10
99.602
 20
222.69299999999998
 10
99.602
 20
220.54499999999996
 10
99.602
 20
218.39599999999996
 10
99.602
 20
216.24800000000005
 10
99.602
 20
214.10000000000002
 10
99.602
 20
211.95100000000002
 10
99.602
 20
203.35699999999997
 10
99.602
 20
201.20899999999995
 10
99.602
 20
199.06100000000004
 10
99.602
 20
196.91200000000003
 10
99.602
 20
192.615
 10
99.602
 20
190.46699999999998
 10
99.602
 20
186.16999999999996
 10
99.602
 20
184.02099999999996
 10
99.602
 20
181.87300000000005
 10
99.602
 20
179.72500000000002
 10
99.602
 20
177.57600000000002
 10
99.602
 20
175.428
 10
99.602
 20
173.279
 10
99.602
 20
171.13099999999997
 10
99.602
 20
162.53700000000003
 10
99.602
 20
160.389
 10
99.602
 20
153.94299999999998
 10
99.602
 20
151.79499999999996
 10
99.602
 20
149.64599999999996
 10
99.602
 20
141.053
 10
99.602
 20
138.904
 10
99.602
 20
130.30999999999995
 10
99.602
 20
128.16200000000003
 10
99.602
 20
121.71699999999998
 10
99.602
 20
119.56799999999998
 10
99.602
 20
117.41999999999996
 10
99.602
 20
115.27099999999996
 10
99.602
 20
110.97400000000005
 10
99.602
 20
108.82600000000002
 10
99.602
 20
106.678
 10
99.602
 20
104.529
 10
99.602
 20
95.93499999999995
 10
99.602
 20
93.78700000000003
 10
99.602
 20
87.3420000000001
 10
99.602
 20
85.19299999999998
 10
99.602
 20
83.04500000000007
 10
99.602
 20
78.74800000000005
 10
99.602
 20
76.59899999999993
 10
99.602
 20
74.45100000000002
 10
99.602
 20
72.30199999999991
 10
99.602
 20
68.00600000000009
 10
99.602
 20
65.85699999999997
 10
99.602
 20
63.70900000000006
 10
99.602
 20
59.412000000000035
 10
99.602
 20
57.26299999999992
 10
99.602
 20
52.965999999999894
 10
99.602
 20
50.817999999999984
 10
99.602
 20
46.52099999999996
 10
99.602
 20
44.37300000000005
 10
99.602
 20
42.22399999999993
 10
99.602
 20
40.07600000000002
 10
99.602
 20
37.92699999999991
 10
99.602
 20
35.778999999999996
 10
99.602
 20
33.63000000000011
 10
99.602
 20
31.48199999999997
 10
99.602
 20
29.33400000000006
 10
99.602
 20
27.184999999999945
 10
99.602
 20
25.037000000000035
 10
99.602
 20
22.88799999999992
 10
99.602
 20
20.74000000000001
 10
99.602
 20
18.590999999999894
 10
99.602
 20
16.442999999999984
 10
99.602
 20
14.294000000000096
 10
99.602
 20
12.145999999999958
 10
99.602
 20
9.998000000000047
 10
99.65
 20
9.017000000000053
 10
99.794
 20
8.047000000000025
 10
100.033
 20
7.095000000000027
 10
100.364
 20
6.171000000000049
 10
100.783
 20
5.2840000000001055
 10
101.288
 20
4.442000000000007
 10
101.872
 20
3.6539999999999964
 10
102.531
 20
2.9269999999999072
 10
103.258
 20
2.2670000000000528
 10
104.047
 20
1.6829999999999927
 10
104.888
 20
1.178000000000111
 10
105.776
 20
0.7590000000000146
 10
106.7
 20
0.42800000000011096
 10
107.651
 20
0.19000000000005457
 10
108.622
 20
0.04600000000004911
 10
109.602
 20
-0.0019999999999527063
 10
111.852
 20
-0.0019999999999527063
 10
114.102
 20
-0.0019999999999527063
 10
116.352
 20
-0.0019999999999527063
 10
118.602
 20
-0.0019999999999527063
 10
120.852
 20
-0.0019999999999527063
 10
123.102
 20
-0.0019999999999527063
  0
LWPOLYLINE
  5
92
330
17
100
AcDbEntity
  8
STITCH
100
AcDbPolyline
 90
1040
 70
1
 10
125.352
 20
9.998000000000047
 10
123.102
 20
9.998000000000047
 10
120.852
 20
9.998000000000047
 10
118.602
 20
9.998000000000047
 10
116.352
 20
9.998000000000047
 10
114.102
 20
9.998000000000047
 10
111.852
 20
9.998000000000047
 10
109.602
 20
9.998000000000047
 10
109.602
 20
12.145999999999958
 10
109.602
 20
14.294000000000096
 10
109.602
 20
16.442999999999984
 10
109.602
 20
18.590999999999894
 10
109.602
 20
20.74000000000001
 10
109.602
 20
22.88799999999992
 10
109.602
 20
25.037000000000035
 10
109.602
 20
27.184999999999945
 10
109.602
 20
29.33400000000006
 10
109.602
 20
31.48199999999997
 10
109.602
 20
33.63000000000011
 10
109.602
 20
35.778999999999996
 10
109.602
 20
37.92699999999991
 10
109.602
 20
40.07600000000002
 10
109.602
 20
42.22399999999993
 10
109.602
 20
44.37300000000005
 10
109.602
 20
46.52099999999996
 10
109.602
 20
48.67000000000007
 10
109.602
 20
50.817999999999984
 10
109.602
 20
52.965999999999894
 10
109.602
 20
55.11500000000001
 10
109.602
 20
57.26299999999992
 10
109.602
 20
59.412000000000035
 10
109.602
 20
61.559999999999945
 10
109.602
 20
63.70900000000006
 10
109.602
 20
65.85699999999997
 10
109.602
 20
68.00600000000009
 10
109.602
 20
70.154
 10
109.602
 20
72.30199999999991
 10
109.602
 20
74.45100000000002
 10
109.602
 20
76.59899999999993
 10
109.602
 20
78.74800000000005
 10
109.602
 20
80.89599999999996
 10
109.602
 20
83.04500000000007
 10
109.602
 20
85.19299999999998
 10
109.602
 20
87.3420000000001
 10
109.602
 20
89.49000000000001
 10
109.602
 20
91.63799999999992
 10
109.602
 20
93.78700000000003
 10
109.602
 20
95.93499999999995
 10
109.602
 20
98.08399999999995
 10
109.602
 20
100.23199999999997
 10
109.602
 20
102.38099999999997
 10
109.602
 20
104.529
 10
109.602
 20
106.678
 10
109.602
 20
108.82600000000002
 10
109.602
 20
110.97400000000005
 10
109.602
 20
113.12300000000005
 10
109.602
 20
115.27099999999996
 10
109.602
 20
117.41999999999996
 10
109.602
 20
119.56799999999998
 10
109.602
 20
121.71699999999998
 10
109.602
 20
123.86500000000001
 10
109.602
 20
126.01300000000003
 10
109.602
 20
128.16200000000003
 10
109.602
 20
130.30999999999995
 10
109.602
 20
132.45899999999995
 10
109.602
 20
134.60699999999997
 10
109.602
 20
136.75599999999997
 10
109.602
 20
138.904
 10
109.602
 20
141.053
 10
109.602
 20
143.20100000000002
 10
109.602
 20
145.34900000000005
 10
109.602
 20
147.49800000000005
 10
109.602
 20
149.64599999999996
 10
109.602
 20
151.79499999999996
 10
109.602
 20
153.94299999999998
 10
109.602
 20
156.09199999999998
 10
109.602
 20
158.24
 10
109.602
 20
160.389
 10
109.602
 20
162.53700000000003
 10
109.602
 20
164.68499999999995
 10
109.602
 20
166.83399999999995
 10
109.602
 20
168.98199999999997
 10
109.602
 20
171.13099999999997
 10
109.602
 20
173.279
 10
109.602
 20
175.428
 10
109.602
 20
177.57600000000002
 10
109.602
 20
179.72500000000002
 10
109.602
 20
181.87300000000005
 10
109.602
 20
184.02099999999996
 10
109.602
 20
186.16999999999996
 10
109.602
 20
188.31799999999998
 10
109.602
 20
190.46699999999998
 10
109.602
 20
192.615
 10
109.602
 20
194.764
 10
109.602
 20
196.91200000000003
 10
109.602
 20
199.06100000000004
 10
109.602
 20
201.20899999999995
 10
109.602
 20
203.35699999999997
 10
109.602
 20
205.50599999999997
 10
109.602
 20
207.654
 10
109.602
 20
209.803
 10
109.602
 20
211.95100000000002
 10
109.602
 20
214.10000000000002
 10
109.602
 20
216.24800000000005
 10
109.602
 20
218.39700000000005
 10
109.602
 20
220.54499999999996
 10
109.602
 20
222.69299999999998
 10
109.602
 20
224.84199999999998
 10
109.602
 20
226.99
 10
109.602
 20
229.139
 10
109.602
 20
231.28700000000003
 10
109.602
 20
233.43600000000004
 10
109.602
 20
235.58399999999995
 10
109.602
 20
237.73199999999997
 10
109.602
 20
239.88099999999997
 10
109.602
 20
242.029
 10
109.602
 20
244.178
 10
109.602
 20
246.32600000000002
 10
109.602
 20
248.47500000000002
 10
109.602
 20
250.62300000000005
 10
109.602
 20
252.77200000000005
 10
109.602
 20
254.91999999999996
 10
109.602
 20
257.068
 10
109.602
 20
259.217
 10
109.602
 20
261.365
 10
109.602
 20
263.514
 10
109.602
 20
265.66200000000003
 10
109.602
 20
267.81100000000004
 10
109.602
 20
269.95899999999995
 10
109.602
 20
272.10799999999995
 10
109.602
 20
274.256
 10
109.602
 20
276.404
 10
109.602
 20
278.553
 10
109.602
 20
280.701
 10
109.602
 20
282.85
 10
109.602
 20
284.99800000000005
 10
109.602
 20
287.14700000000005
 10
109.602
 20
289.29499999999996
 10
109.602
 20
291.44399999999996
 10
109.602
 20
293.592
 10
109.602
 20
295.74
 10
109.602
 20
297.889
 10
109.602
 20
300.03700000000003
 10
109.602
 20
302.18600000000004
 10
109.602
 20
304.33399999999995
 10
109.602
 20
306.48299999999995
 10
109.602
 20
308.631
 10
109.602
 20
310.78
 10
109.602
 20
312.928
 10
109.602
 20
315.076
 10
109.602
 20
317.225
 10
109.602
 20
319.37300000000005
 10
109.602
 20
321.52200000000005
 10
109.602
 20
323.66999999999996
 10
109.602
 20
325.81899999999996
 10
109.602
 20
327.967
 10
109.602
 20
330.115
 10
109.602
 20
332.264
 10
109.602
 20
334.41200000000003
 10
109.602
 20
336.56100000000004
 10
109.602
 20
338.70899999999995
 10
109.602
 20
340.85799999999995
 10
109.602
 20
343.006
 10
109.602
 20
345.155
 10
109.602
 20
347.303
 10
109.602
 20
349.451
 10
109.602
 20
351.6
 10
109.602
 20
353.74800000000005
 10
109.602
 20
355.89700000000005
 10
109.602
 20
358.04499999999996
 10
109.602
 20
360.19399999999996
 10
109.602
 20
362.342
 10
109.602
 20
364.491
 10
109.602
 20
366.639
 10
109.602
 20
368.78700000000003
 10
109.602
 20
370.93600000000004
 10
109.602
 20
373.08399999999995
 10
109.602
 20
375.23299999999995
 10
109.602
 20
377.381
 10
109.602
 20
379.53
 10
109.602
 20
381.678
 10
109.602
 20
383.827
 10
109.602
 20
385.975
 10
109.602
 20
388.12300000000005
 10
109.602
 20
390.27200000000005
 10
109.602
 20
392.41999999999996
 10
109.602
 20
394.56899999999996
 10
109.602
 20
396.717
 10
109.602
 20
398.866
 10
109.602
 20
401.014
 10
109.602
 20
403.163
 10
109.602
 20
405.31100000000004
 10
109.602
 20
407.45899999999995
 10
109.602
 20
409.60799999999995
 10
109.602
 20
411.756
 10
109.602
 20
413.905
 10
109.602
 20
416.053
 10
109.602
 20
418.202
 10
109.602
 20
420.35
 10
109.602
 20
422.499
 10
109.602
 20
424.64700000000005
 10
109.602
 20
426.79499999999996
 10
109.602
 20
428.94399999999996
 10
109.602
 20
431.092
 10
109.602
 20
433.241
 10
109.602
 20
435.389
 10
109.602
 20
437.538
 10
109.602
 20
439.68600000000004
 10
109.602
 20
441.83500000000004
 10
109.602
 20
443.98299999999995
 10
109.602
 20
446.131
 10
109.602
 20
448.28
 10
109.602
 20
450.428
 10
109.602
 20
452.577
 10
109.602
 20
454.725
 10
109.602
 20
456.874
 10
109.602
 20
459.02200000000005
 10
109.602
 20
461.17100000000005
 10
109.602
 20
463.31899999999996
 10
109.602
 20
465.467
 10
109.602
 20
467.616
 10
109.602
 20
469.764
 10
109.602
 20
471.913
 10
109.602
 20
474.06100000000004
 10
109.602
 20
476.21000000000004
 10
109.602
 20
478.35799999999995
 10
109.602
 20
480.50699999999995
 10
109.602
 20
482.655
 10
109.602
 20
484.803
 10
109.602
 20
486.952
 10
109.602
 20
489.1
 10
109.602
 20
491.249
 10
109.602
 20
493.39700000000005
 10
109.602
 20
495.54600000000005
 10
109.602
 20
497.69399999999996
 10
109.602
 20
499.842
 10
109.602
 20
501.991
 10
109.602
 20
504.139
 10
109.602
 20
506.288
 10
109.602
 20
508.43600000000004
 10
109.602
 20
510.58500000000004
 10
109.602
 20
512.733
 10
109.602
 20
514.882
 10
109.602
 20
517.03
 10
109.602
 20
519.178
 10
109.602
 20
521.327
 10
109.602
 20
523.475
 10
109.602
 20
525.624
 10
109.602
 20
527.772
 10
109.602
 20
529.921
 10
109.602
 20
532.069
 10
109.602
 20
534.218
 10
109.602
 20
536.366
 10
109.602
 20
538.514
 10
109.602
 20
540.663
 10
109.602
 20
542.811
 10
109.602
 20
544.96
 10
109.602
 20
547.108
 10
109.602
 20
549.257
 10
109.602
 20
551.405
 10
109.602
 20
553.553
 10
109.602
 20
555.702
 10
109.602
 20
557.85
 10
109.602
 20
559.999
 10
109.602
 20
562.147
 10
109.602
 20
564.296
 10
109.602
 20
566.444
 10
109.602
 20
568.593
 10
109.602
 20
570.741
 10
109.602
 20
572.89
 10
109.602
 20
575.038
 10
109.602
 20
577.186
 10
109.602
 20
579.335
 10
109.602
 20
581.483
 10
109.602
 20
583.632
 10
109.602
 20
585.78
 10
109.602
 20
587.929
 10
109.602
 20
590.077
 10
109.602
 20
592.225
 10
109.602
 20
594.374
 10
109.602
 20
596.522
 10
109.602
 20
598.671
 10
109.602
 20
600.819
 10
109.602
 20
602.968
 10
109.602
 20
605.116
 10
109.602
 20
607.265
 10
109.602
 20
609.413
 10
109.602
 20
611.5609999999999
 10
109.602
 20
613.71
 10
109.602
 20
615.858
 10
109.602
 20
618.0070000000001
 10
109.602
 20
620.155
 10
109.602
 20
622.304
 10
109.602
 20
624.452
 10
109.602
 20
626.601
 10
109.602
 20
628.749
 10
109.602
 20
630.8969999999999
 10
109.602
 20
633.046
 10
109.602
 20
635.194
 10
109.602
 20
637.3430000000001
 10
109.602
 20
639.491
 10
109.602
 20
641.64
 10
109.602
 20
643.788
 10
109.602
 20
645.937
 10
109.602
 20
648.085
 10
109.602
 20
650.233
 10
109.602
 20
652.3820000000001
 10
109.602
 20
654.53
 10
109.602
 20
656.679
 10
109.602
 20
658.827
 10
109.602
 20
660.976
 10
109.602
 20
663.124
 10
109.602
 20
665.273
 10
109.602
 20
667.421
 10
109.602
 20
669.569
 10
109.602
 20
671.7180000000001
 10
109.602
 20
673.866
 10
109.602
 20
676.015
 10
109.602
 20
678.163
 10
109.602
 20
680.312
 10
109.602
 20
682.46
 10
109.602
 20
684.608
 10
109.602
 20
686.7570000000001
 10
109.602
 20
688.905
 10
109.602
 20
691.054
 10
109.602
 20
693.202
 10
109.602
 20
695.351
 10
109.601
 20
697.499
 10
109.601
 20
699.648
 10
109.601
 20
701.796
 10
109.601
 20
703.944
 10
109.601
 20
706.0930000000001
 10
109.601
 20
708.241
 10
109.601
 20
710.39
 10
109.601
 20
712.538
 10
109.601
 20
714.687
 10
109.601
 20
716.835
 10
109.601
 20
718.983
 10
109.601
 20
721.1320000000001
 10
109.601
 20
723.28
 10
109.601
 20
725.429
 10
109.601
 20
727.577
 10
109.601
 20
729.726
 10
109.601
 20
731.874
 10
109.601
 20
734.023
 10
109.601
 20
736.171
 10
109.601
 20
738.319
 10
109.601
 20
740.4680000000001
 10
109.601
 20
742.616
 10
109.601
 20
744.765
 10
109.601
 20
746.913
 10
109.601
 20
749.062
 10
109.601
 20
751.21
 10
109.601
 20
753.3589999999999
 10
109.601
 20
755.5070000000001
 10
109.601
 20
757.655
 10
109.601
 20
759.804
 10
109.601
 20
761.952
 10
109.601
 20
764.101
 10
109.601
 20
766.249
 10
109.601
 20
768.398
 10
109.601
 20
770.546
 10
109.601
 20
772.6949999999999
 10
109.601
 20
774.8430000000001
 10
109.601
 20
776.991
 10
109.601
 20
779.14
 10
109.601
 20
781.288
 10
109.601
 20
783.437
 10
109.601
 20
785.585
 10
109.601
 20
787.7339999999999
 10
109.601
 20
789.8820000000001
 10
109.601
 20
792.031
 10
109.601
 20
794.179
 10
109.601
 20
796.327
 10
109.601
 20
798.476
 10
109.601
 20
800.624
 10
109.601
 20
802.773
 10
109.601
 20
804.921
 10
109.601
 20
807.0699999999999
 10
109.601
 20
809.2180000000001
 10
109.601
 20
811.366
 10
109.601
 20
813.515
 10
109.601
 20
815.663
 10
109.601
 20
817.812
 10
109.601
 20
819.96
 10
109.601
 20
822.1089999999999
 10
109.601
 20
824.2570000000001
 10
109.601
 20
826.406
 10
109.601
 20
828.554
 10
109.601
 20
830.703
 10
109.601
 20
832.851
 10
109.601
 20
834.999
 10
109.601
 20
837.148
 10
109.601
 20
839.296
 10
109.601
 20
841.4449999999999
 10
109.601
 20
843.5930000000001
 10
109.601
 20
845.742
 10
109.601
 20
847.89
 10
109.601
 20
850.038
 10
109.601
 20
852.187
 10
109.601
 20
854.335
 10
109.601
 20
856.4839999999999
 10
109.601
 20
858.6320000000001
 10
109.601
 20
860.781
 10
109.601
 20
862.929
 10
109.601
 20
865.078
 10
109.601
 20
867.226
 10
109.601
 20
869.374
 10
109.601
 20
871.523
 10
109.601
 20
873.671
 10
109.601
 20
875.8199999999999
 10
109.601
 20
877.968
 10
109.601
 20
880.117
 10
109.601
 20
882.265
 10
109.601
 20
884.414
 10
109.601
 20
886.562
 10
109.601
 20
888.71
 10
109.601
 20
890.859
 10
109.601
 20
893.0070000000001
 10
109.601
 20
895.156
 10
109.601
 20
897.304
 10
109.601
 20
899.453
 10
109.601
 20
901.601
 10
109.601
 20
903.75
 10
109.601
 20
905.898
 10
109.601
 20
908.046
 10
109.601
 20
910.1949999999999
 10
109.601
 20
912.343
 10
109.601
 20
914.492
 10
109.601
 20
916.64
 10
109.601
 20
918.789
 10
109.601
 20
920.937
 10
109.601
 20
923.086
 10
109.601
 20
925.234
 10
109.601
 20
927.3820000000001
 10
109.601
 20
929.531
 10
109.601
 20
931.679
 10
109.601
 20
933.828
 10
109.601
 20
935.976
 10
109.601
 20
938.125
 10
109.601
 20
940.273
 10
109.601
 20
942.421
 10
109.601
 20
944.5699999999999
 10
109.601
 20
946.718
 10
109.601
 20
948.867
 10
109.601
 20
951.015
 10
109.601
 20
953.164
 10
109.601
 20
955.312
 10
109.601
 20
957.461
 10
109.601
 20
959.609
 10
109.601
 20
961.758
 10
109.601
 20
963.906
 10
109.601
 20
966.054
 10
109.601
 20
968.203
 10
109.601
 20
970.351
 10
109.601
 20
972.5
 10
109.601
 20
974.648
 10
109.601
 20
976.797
 10
109.601
 20
978.9449999999999
 10
109.601
 20
981.093
 10
109.601
 20
983.242
 10
109.601
 20
985.39
 10
109.601
 20
987.539
 10
109.601
 20
989.687
 10
109.601
 20
991.836
 10
109.601
 20
993.984
 10
109.601
 20
996.133
 10
109.601
 20
998.281
 10
109.601
 20
1000.429
 10
109.601
 20
1002.578
 10
109.601
 20
1004.726
 10
109.601
 20
1006.875
 10
109.601
 20
1009.023
 10
109.601
 20
1011.172
 10
109.601
 20
1013.3199999999999
 10
109.601
 20
1015.469
 10
109.601
 20
1017.617
 10
109.601
 20
1019.765
 10
109.601
 20
1021.914
 10
109.601
 20
1024.062
 10
109.601
 20
1026.211
 10
109.601
 20
1028.359
 10
109.601
 20
1030.508
 10
109.601
 20
1032.656
 10
109.601
 20
1034.805
 10
109.601
 20
1036.953
 10
109.601
 20
1039.101
 10
109.601
 20
1041.25
 10
109.601
 20
1043.398
 10
109.601
 20
1045.547
 10
109.601
 20
1047.695
 10
109.601
 20
1049.844
 10
109.601
 20
1051.992
 10
109.601
 20
1054.141
 10
109.601
 20
1056.289
 10
109.601
 20
1058.437
 10
109.601
 20
1060.586
 10
109.601
 20
1062.734
 10
109.601
 20
1064.883
 10
109.601
 20
1067.031
 10
109.601
 20
1069.18
 10
109.601
 20
1071.328
 10
109.601
 20
1073.477
 10
109.601
 20
1075.625
 10
109.601
 20
1077.773
 10
109.601
 20
1079.922
 10
109.601
 20
1082.07
 10
109.601
 20
1084.219
 10
109.601
 20
1086.367
 10
109.601
 20
1088.516
 10
109.601
 20
1090.664
 10
109.601
 20
1092.813
 10
109.601
 20
1094.961
 10
109.601
 20
1097.109
 10
109.601
 20
1099.258
 10
109.601
 20
1101.406
 10
109.601
 20
1103.555
 10
109.601
 20
1105.703
 10
109.601
 20
1107.852
 10
109.601
 20
1110.0
 10
111.851
 20
1110.0
 10
114.101
 20
1110.0
 10
116.351
 20
1110.0
 10
118.601
 20
1110.0
 10
120.851
 20
1110.0
 10
123.101
 20
1110.0
 10
125.351
 20
1110.0
 10
127.601
 20
1110.0
 10
127.601
 20
1107.852
 10
127.601
 20
1105.703
 10
127.601
 20
1103.555
 10
127.601
 20
1101.406
 10
127.601
 20
1099.258
 10
127.601
 20
1097.109
 10
127.601
 20
1094.961
 10
127.601
 20
1092.813
 10
127.601
 20
1090.664
 10
127.601
 20
1088.516
 10
127.601
 20
1086.367
 10
127.601
 20
1084.219
 10
127.601
 20
1082.07
 10
127.601
 20
1079.922
 10
127.601
 20
1077.773
 10
127.601
 20
1075.625
 10
127.601
 20
1073.477
 10
127.601
 20
1071.328
 10
127.601
 20
1069.18
 10
127.601
 20
1067.031
 10
127.601
 20
1064.883
 10
127.601
 20
1062.734
 10
127.601
 20
1060.586
 10
127.601
 20
1058.437
 10
127.601
 20
1056.289
 10
127.601
 20
1054.141
 10
127.601
 20
1051.992
 10
127.601
 20
1049.844
 10
127.601
 20
1047.695
 10
127.601
 20
1045.547
 10
127.601
 20
1043.398
 10
127.601
 20
1041.25
 10
127.601
 20
1039.101
 10
127.601
 20
1036.953
 10
127.601
 20
1034.805
 10
127.601
 20
1032.656
 10
127.601
 20
1030.508
 10
127.601
 20
1028.359
 10
127.601
 20
1026.211
 10
127.601
 20
1024.062
 10
127.601
 20
1021.914
 10
127.601
 20
1019.765
 10
127.601
 20
1017.617
 10
127.601
 20
1015.469
 10
127.601
 20
1013.3199999999999
 10
127.601
 20
1011.172
 10
127.601
 20
1009.023
 10
127.601
 20
1006.875
 10
127.601
 20
1004.726
 10
127.601
 20
1002.578
 10
127.601
 20
1000.429
 10
127.601
 20
998.281
 10
127.601
 20
996.133
 10
127.601
 20
993.984
 10
127.601
 20
991.836
 10
127.601
 20
989.687
 10
127.601
 20
987.539
 10
127.601
 20
985.39
 10
127.601
 20
983.242
 10
127.601
 20
981.093
 10
127.601
 20
978.9449999999999
 10
127.601
 20
976.797
 10
127.601
 20
974.648
 10
127.601
 20
972.5
 10
127.601
 20
970.351
 10
127.601
 20
968.203
 10
127.601
 20
966.054
 10
127.601
 20
963.906
 10
127.601
 20
961.758
 10
127.601
 20
959.609
 10
127.601
 20
957.461
 10
127.601
 20
955.312
 10
127.601
 20
953.164
 10
127.601
 20
951.015
 10
127.601
 20
948.867
 10
127.601
 20
946.718
 10
127.601
 20
944.5699999999999
 10
127.601
 20
942.421
 10
127.601
 20
940.273
 10
127.601
 20
938.125
 10
127.601
 20
935.976
 10
127.601
 20
933.828
 10
127.601
 20
931.679
 10
127.601
 20
929.531
 10
127.601
 20
927.3820000000001
 10
127.601
 20
925.234
 10
127.601
 20
923.086
 10
127.601
 20
920.937
 10
127.601
 20
918.789
 10
127.601
 20
916.64
 10
127.601
 20
914.492
 10
127.601
 20
912.343
 10
127.601
 20
910.1949999999999
 10
127.601
 20
908.046
 10
127.601
 20
905.898
 10
127.601
 20
903.75
 10
127.601
 20
901.601
 10
127.601
 20
899.453
 10
127.601
 20
897.304
 10
127.601
 20
895.156
 10
127.601
 20
893.0070000000001
 10
127.601
 20
890.859
 10
127.601
 20
888.71
 10
127.601
 20
886.562
 10
127.601
 20
884.414
 10
127.601
 20
882.265
 10
127.601
 20
880.117
 10
127.601
 20
877.968
 10
127.601
 20
875.8199999999999
 10
127.601
 20
873.671
 10
127.601
 20
871.523
 10
127.601
 20
869.374
 10
127.601
 20
867.226
 10
127.601
 20
865.078
 10
127.601
 20
862.929
 10
127.601
 20
860.781
 10
127.601
 20
858.6320000000001
 10
127.601
 20
856.4839999999999
 10
127.601
 20
854.335
 10
127.601
 20
852.187
 10
127.601
 20
850.038
 10
127.601
 20
847.89
 10
127.601
 20
845.742
 10
127.601
 20
843.5930000000001
 10
127.601
 20
841.4449999999999
 10
127.601
 20
839.296
 10
127.601
 20
837.148
 10
127.601
 20
834.999
 10
127.601
 20
832.851
 10
127.601
 20
830.703
 10
127.601
 20
828.554
 10
127.601
 20
826.406
 10
127.601
 20
824.2570000000001
 10
127.601
 20
822.1089999999999
 10
127.601
 20
819.96
 10
127.601
 20
817.812
 10
127.601
 20
815.663
 10
127.601
 20
813.515
 10
127.601
 20
811.366
 10
127.601
 20
809.2180000000001
 10
127.601
 20
807.0699999999999
 10
127.601
 20
804.921
 10
127.601
 20
802.773
 10
127.601
 20
800.624
 10
127.601
 20
798.476
 10
127.601
 20
796.327
 10
127.601
 20
794.179
 10
127.601
 20
792.031
 10
127.601
 20
789.8820000000001
 10
127.601
 20
787.7339999999999
 10
127.601
 20
785.585
 10
127.601
 20
783.437
 10
127.601
 20
781.288
 10
127.601
 20
779.14
 10
127.601
 20
776.991
 10
127.601
 20
774.8430000000001
 10
127.601
 20
772.6949999999999
 10
127.601
 20
770.546
 10
127.601
 20
768.398
 10
127.601
 20
766.249
 10
127.601
 20
764.101
 10
127.601
 20
761.952
 10
127.601
 20
759.804
 10
127.601
 20
757.655
 10
127.601
 20
755.5070000000001
 10
127.601
 20
753.3589999999999
 10
127.601
 20
751.21
 10
127.601
 20
749.062
 10
127.601
 20
746.913
 10
127.601
 20
744.765
 10
127.601
 20
742.616
 10
127.601
 20
740.4680000000001
 10
127.601
 20
738.319
 10
127.601
 20
736.171
 10
127.601
 20
734.023
 10
127.601
 20
731.874
 10
127.601
 20
729.726
 10
127.601
 20
727.577
 10
127.601
 20
725.429
 10
127.601
 20
723.28
 10
127.601
 20
721.1320000000001
 10
127.601
 20
718.983
 10
127.601
 20
716.835
 10
127.601
 20
714.687
 10
127.601
 20
712.538
 10
127.601
 20
710.39
 10
127.602
 20
708.241
 10
127.602
 20
706.0930000000001
 10
127.602
 20
703.944
 10
127.602
 20
701.796
 10
127.602
 20
699.648
 10
127.602
 20
697.499
 10
127.602
 20
695.351
 10
127.602
 20
693.202
 10
127.602
 20
691.054
 10
127.602
 20
688.905
 10
127.602
 20
686.7570000000001
 10
127.602
 20
684.608
 10
127.602
 20
682.46
 10
127.602
 20
680.312
 10
127.602
 20
678.163
 10
127.602
 20
676.015
 10
127.602
 20
673.866
 10
127.602
 20
671.7180000000001
 10
127.602
 20
669.569
 10
127.602
 20
667.421
 10
127.602
 20
665.273
 10
127.602
 20
663.124
 10
127.602
 20
660.976
 10
127.602
 20
658.827
 10
127.602
 20
656.679
 10
127.602
 20
654.53
 10
127.602
 20
652.3820000000001
 10
127.602
 20
650.233
 10
127.602
 20
648.085
 10
127.602
 20
645.937
 10
127.602
 20
643.788
 10
127.602
 20
641.64
 10
127.602
 20
639.491
 10
127.602
 20
637.3430000000001
 10
127.602
 20
635.194
 10
127.602
 20
633.046
 10
127.602
 20
630.8969999999999
 10
127.602
 20
628.749
 10
127.602
 20
626.601
 10
127.602
 20
624.452
 10
127.602
 20
622.304
 10
127.602
 20
620.155
 10
127.602
 20
618.0070000000001
 10
127.602
 20
615.858
 10
127.602
 20
613.71
 10
127.602
 20
611.5609999999999
 10
127.602
 20
609.413
 10
127.602
 20
607.265
 10
127.602
 20
605.116
 10
127.602
 20
602.968
 10
127.602
 20
600.819
 10
127.602
 20
598.671
 10
127.602
 20
596.522
 10
127.602
 20
594.374
 10
127.602
 20
592.225
 10
127.602
 20
590.077
 10
127.602
 20
587.929
 10
127.602
 20
585.78
 10
127.602
 20
583.632
 10
127.602
 20
581.483
 10
127.602
 20
579.335
 10
127.602
 20
577.186
 10
127.602
 20
575.038
 10
127.602
 20
572.89
 10
127.602
 20
570.741
 10
127.602
 20
568.593
 10
127.602
 20
566.444
 10
127.602
 20
564.296
 10
127.602
 20
562.147
 10
127.602
 20
559.999
 10
127.602
 20
557.85
 10
127.602
 20
555.702
 10
127.602
 20
553.553
 10
127.602
 20
551.405
 10
127.602
 20
549.257
 10
127.602
 20
547.108
 10
127.602
 20
544.96
 10
127.602
 20
542.811
 10
127.602
 20
540.663
 10
127.602
 20
538.514
 10
127.602
 20
536.366
 10
127.602
 20
534.218
 10
127.602
 20
532.069
 10
127.602
 20
529.921
 10
127.602
 20
527.772
 10
127.602
 20
525.624
 10
127.602
 20
523.475
 10
127.602
 20
521.327
 10
127.602
 20
519.178
 10
127.602
 20
517.03
 10
127.602
 20
514.882
 10
127.602
 20
512.733
 10
127.602
 20
510.58500000000004
 10
127.602
 20
508.43600000000004
 10
127.602
 20
506.288
 10
127.602
 20
504.139
 10
127.602
 20
501.991
 10
127.602
 20
499.842
 10
127.602
 20
497.69399999999996
 10
127.602
 20
495.54600000000005
 10
127.602
 20
493.39700000000005
 10
127.602
 20
491.249
 10
127.602
 20
489.1
 10
127.602
 20
486.952
 10
127.602
 20
484.803
 10
127.602
 20
482.655
 10
127.602
 20
480.50699999999995
 10
127.602
 20
478.35799999999995
 10
127.602
 20
476.21000000000004
 10
127.602
 20
474.06100000000004
 10
127.602
 20
471.913
 10
127.602
 20
469.764
 10
127.602
 20
467.616
 10
127.602
 20
465.467
 10
127.602
 20
463.31899999999996
 10
127.602
 20
461.17100000000005
 10
127.602
 20
459.02200000000005
 10
127.602
 20
456.874
 10
127.602
 20
454.725
 10
127.602
 20
452.577
 10
127.602
 20
450.428
 10
127.602
 20
448.28
 10
127.602
 20
446.131
 10
127.602
 20
443.98299999999995
 10
127.602
 20
441.83500000000004
 10
127.602
 20
439.68600000000004
 10
127.602
 20
437.538
 10
127.602
 20
435.389
 10
127.602
 20
433.241
 10
127.602
 20
431.092
 10
127.602
 20
428.94399999999996
 10
127.602
 20
426.79499999999996
 10
127.602
 20
424.64700000000005
 10
127.602
 20
422.499
 10
127.602
 20
420.35
 10
127.602
 20
418.202
 10
127.602
 20
416.053
 10
127.602
 20
413.905
 10
127.602
 20
411.756
 10
127.602
 20
409.60799999999995
 10
127.602
 20
407.45899999999995
 10
127.602
 20
405.31100000000004
 10
127.602
 20
403.163
 10
127.602
 20
401.014
 10
127.602
 20
398.866
 10
127.602
 20
396.717
 10
127.602
 20
394.56899999999996
 10
127.602
 20
392.41999999999996
 10
127.602
 20
390.27200000000005
 10
127.602
 20
388.12300000000005
 10
127.602
 20
385.975
 10
127.602
 20
383.827
 10
127.602
 20
381.678
 10
127.602
 20
379.53
 10
127.602
 20
377.381
 10
127.602
 20
375.23299999999995
 10
127.602
 20
373.08399999999995
 10
127.602
 20
370.93600000000004
 10
127.602
 20
368.78700000000003
 10
127.602
 20
366.639
 10
127.602
 20
364.491
 10
127.602
 20
362.342
 10
127.602
 20
360.19399999999996
 10
127.602
 20
358.04499999999996
 10
127.602
 20
355.89700000000005
 10
127.602
 20
353.74800000000005
 10
127.602
 20
351.6
 10
127.602
 20
349.451
 10
127.602
 20
347.303
 10
127.602
 20
345.155
 10
127.602
 20
343.006
 10
127.602
 20
340.85799999999995
 10
127.602
 20
338.70899999999995
 10
127.602
 20
336.56100000000004
 10
127.602
 20
334.41200000000003
 10
127.602
 20
332.264
 10
127.602
 20
330.115
 10
127.602
 20
327.967
 10
127.602
 20
325.81899999999996
 10
127.602
 20
323.66999999999996
 10
127.602
 20
321.52200000000005
 10
127.602
 20
319.37300000000005
 10
127.602
 20
317.225
 10
127.602
 20
315.076
 10
127.602
 20
312.928
 10
127.602
 20
310.78
 10
127.602
 20
308.631
 10
127.602
 20
306.48299999999995
 10
127.602
 20
304.33399999999995
 10
127.602
 20
302.18600000000004
 10
127.602
 20
300.03700000000003
 10
127.602
 20
297.889
 10
127.602
 20
295.74
 10
127.602
 20
293.592
 10
127.602
 20
291.44399999999996
 10
127.602
 20
289.29499999999996
 10
127.602
 20
287.14700000000005
 10
127.602
 20
284.99800000000005
 10
127.602
 20
282.85
 10
127.602
 20
280.701
 10
127.602
 20
278.553
 10
127.602
 20
276.404
 10
127.602
 20
274.256
 10
127.602
 20
272.10799999999995
 10
127.602
 20
269.95899999999995
 10
127.602
 20
267.81100000000004
 10
127.602
 20
265.66200000000003
 10
127.602
 20
263.514
 10
127.602
 20
261.365
 10
127.602
 20
259.217
 10
127.602
 20
257.068
 10
127.602
 20
254.91999999999996
 10
127.602
 20
252.77200000000005
 10
127.602
 20
250.62300000000005
 10
127.602
 20
248.47500000000002
 10
127.602
 20
246.32600000000002
 10
127.602
 20
244.178
 10
127.602
 20
242.029
 10
127.602
 20
239.88099999999997
 10
127.602
 20
237.73299999999995
 10
127.602
 20
235.58399999999995
 10
127.602
 20
233.43600000000004
 10
127.602
 20
231.28700000000003
 10
127.602
 20
229.139
 10
127.602
 20
226.99
 10
127.602
 20
224.84199999999998
 10
127.602
 20
222.69299999999998
 10
127.602
 20
220.54499999999996
 10
127.602
 20
218.39700000000005
 10
127.602
 20
216.24800000000005
 10
127.602
 20
214.10000000000002
 10
127.602
 20
211.95100000000002
 10
127.602
 20
209.803
 10
127.602
 20
207.654
 10
127.602
 20
205.50599999999997
 10
127.602
 20
203.35699999999997
 10
127.602
 20
201.20899999999995
 10
127.602
 20
199.06100000000004
 10
127.602
 20
196.91200000000003
 10
127.602
 20
194.764
 10
127.602
 20
192.615
 10
127.602
 20
190.46699999999998
 10
127.602
 20
188.31799999999998
 10
127.602
 20
186.16999999999996
 10
127.602
 20
184.02099999999996
 10
127.602
 20
181.87300000000005
 10
127.602
 20
179.72500000000002
 10
127.602
 20
177.57600000000002
 10
127.602
 20
175.428
 10
127.602
 20
173.279
 10
127.602
 20
171.13099999999997
 10
127.602
 20
168.98199999999997
 10
127.602
 20
166.83399999999995
 10
127.602
 20
164.68499999999995
 10
127.602
 20
162.53700000000003
 10
127.602
 20
160.389
 10
127.602
 20
158.24
 10
127.602
 20
156.09199999999998
 10
127.602
 20
153.94299999999998
 10
127.602
 20
151.79499999999996
 10
127.602
 20
149.64599999999996
 10
127.602
 20
147.49800000000005
 10
127.602
 20
145.35000000000002
 10
127.602
 20
143.20100000000002
 10
127.602
 20
141.053
 10
127.602
 20
138.904
 10
127.602
 20
136.75599999999997
 10
127.602
 20
134.60699999999997
 10
127.602
 20
132.45899999999995
 10
127.602
 20
130.30999999999995
 10
127.602
 20
128.16200000000003
 10
127.602
 20
126.01400000000001
 10
127.602
 20
123.86500000000001
 10
127.602
 20
121.71699999999998
 10
127.602
 20
119.56799999999998
 10
127.602
 20
117.41999999999996
 10
127.602
 20
115.27099999999996
 10
127.602
 20
113.12300000000005
 10
127.602
 20
110.97400000000005
 10
127.602
 20
108.82600000000002
 10
127.602
 20
106.678
 10
127.602
 20
104.529
 10
127.602
 20
102.38099999999997
 10
127.602
 20
100.23199999999997
 10
127.602
 20
98.08399999999995
 10
127.602
 20
95.93499999999995
 10
127.602
 20
93.78700000000003
 10
127.602
 20
91.63799999999992
 10
127.602
 20
89.49000000000001
 10
127.602
 20
87.3420000000001
 10
127.602
 20
85.19299999999998
 10
127.602
 20
83.04500000000007
 10
127.602
 20
80.89599999999996
 10
127.602
 20
78.74800000000005
 10
127.602
 20
76.59899999999993
 10
127.602
 20
74.45100000000002
 10
127.602
 20
72.30199999999991
 10
127.602
 20
70.154
 10
127.602
 20
68.00600000000009
 10
127.602
 20
65.85699999999997
 10
127.602
 20
63.70900000000006
 10
127.602
 20
61.559999999999945
 10
127.602
 20
59.412000000000035
 10
127.602
 20
57.26299999999992
 10
127.602
 20
55.11500000000001
 10
127.602
 20
52.9670000000001
 10
127.602
 20
50.817999999999984
 10
127.602
 20
48.67000000000007
 10
127.602
 20
46.52099999999996
 10
127.602
 20
44.37300000000005
 10
127.602
 20
42.22399999999993
 10
127.602
 20
40.07600000000002
 10
127.602
 20
37.92699999999991
 10
127.602
 20
35.778999999999996
 10
127.602
 20
33.631000000000085
 10
127.602
 20
31.48199999999997
 10
127.602
 20
29.33400000000006
 10
127.602
 20
27.184999999999945
 10
127.602
 20
25.037000000000035
 10
127.602
 20
22.88799999999992
 10
127.602
 20
20.74000000000001
 10
127.602
 20
18.590999999999894
 10
127.602
 20
16.442999999999984
 10
127.602
 20
14.295000000000073
 10
127.602
 20
12.145999999999958
 10
127.602
 20
9.998000000000047
  0
TEXT
  5
93
330
17
100
AcDbEntity
  8
LABEL
100
AcDbText
 10
118.6015
 20
559.999
 30
0.0
 40
10.0
  1
E piece-5
 72
1
 11
118.6015
 21
559.999
 31
0.0
100
AcDbText
 73
2
  0
LWPOLYLINE
  5
94
330
17
100
AcDbEntity
  8
CUT
100
AcDbPolyline
 90
210
 70
1
 10
142.651
 20
1041.893
 10
143.222
 20
1036.248
 10
143.78900000000002
 20
1030.615
 10
144.353
 20
1024.988
 10
144.915
 20
1019.363
 10
144.919
 20
1019.331
 10
145.473
 20
1013.961
 10
146.035
 20
1008.312
 10
146.599
 20
1002.646
 10
147.189
 20
996.721
 10
147.71200000000002
 20
991.461
 10
147.858
 20
990.484
 10
148.101
 20
989.5260000000001
 10
148.436
 20
988.596
 10
148.861
 20
987.705
 10
149.373
 20
986.859
 10
149.965
 20
986.068
 10
150.633
 20
985.34
 10
151.369
 20
984.6800000000001
 10
152.167
 20
984.097
 10
153.018
 20
983.596
 10
153.915
 20
983.1800000000001
 10
154.848
 20
982.856
 10
155.809
 20
982.625
 10
161.49200000000002
 20
981.553
 10
167.323
 20
980.453
 10
173.153
 20
979.3530000000001
 10
178.982
 20
978.2529999999999
 10
179.104
 20
978.23
 10
184.933
 20
977.206
 10
190.764
 20
976.181
 10
196.594
 20
975.156
 10
202.422
 20
974.131
 10
202.661
 20
974.092
 10
208.488
 20
973.212
 10
214.31900000000002
 20
972.332
 10
220.149
 20
971.452
 10
225.976
 20
970.572
 10
226.31799999999998
 20
970.5260000000001
 10
232.145
 20
969.851
 10
237.97500000000002
 20
969.1759999999999
 10
243.805
 20
968.501
 10
249.631
 20
967.826
 10
250.05599999999998
 20
967.7860000000001
 10
255.882
 20
967.361
 10
261.712
 20
966.937
 10
267.543
 20
966.512
 10
273.368
 20
966.088
 10
273.846
 20
966.065
 10
279.672
 20
965.92
 10
285.502
 20
965.775
 10
291.332
 20
965.63
 10
297.15700000000004
 20
965.486
 10
297.654
 20
965.486
 10
303.47900000000004
 20
965.63
 10
309.31
 20
965.775
 10
315.14
 20
965.92
 10
320.96500000000003
 20
966.065
 10
321.443
 20
966.088
 10
327.269
 20
966.512
 10
333.09900000000005
 20
966.937
 10
338.93
 20
967.361
 10
344.756
 20
967.7860000000001
 10
345.18
 20
967.826
 10
351.006
 20
968.5
 10
356.836
 20
969.1759999999999
 10
362.66700000000003
 20
969.851
 10
368.494
 20
970.5260000000001
 10
368.836
 20
970.572
 10
374.663
 20
971.452
 10
380.493
 20
972.332
 10
386.323
 20
973.212
 10
392.151
 20
974.092
 10
392.39
 20
974.131
 10
398.218
 20
975.156
 10
404.048
 20
976.181
 10
409.87800000000004
 20
977.206
 10
415.707
 20
978.23
 10
415.83000000000004
 20
978.2529999999999
 10
421.659
 20
979.3530000000001
 10
427.48900000000003
 20
980.453
 10
433.31899999999996
 20
981.553
 10
439.00300000000004
 20
982.625
 10
439.96299999999997
 20
982.856
 10
440.89700000000005
 20
983.1800000000001
 10
441.793
 20
983.596
 10
442.645
 20
984.097
 10
443.442
 20
984.6800000000001
 10
444.179
 20
985.34
 10
444.846
 20
986.068
 10
445.43899999999996
 20
986.859
 10
445.95000000000005
 20
987.705
 10
446.376
 20
988.596
 10
446.711
 20
989.5260000000001
 10
446.953
 20
990.484
 10
447.09900000000005
 20
991.461
 10
447.62300000000005
 20
996.721
 10
448.212
 20
1002.646
 10
448.77599999999995
 20
1008.312
 10
449.34000000000003
 20
1013.979
 10
449.874
 20
1019.3389999999999
 10
450.432
 20
1024.956
 10
450.991
 20
1030.573
 10
451.54999999999995
 20
1036.19
 10
452.15700000000004
 20
1042.29
 10
452.20500000000004
 20
1043.46
 10
452.115
 20
1044.628
 10
451.34299999999996
 20
1050.305
 10
450.97799999999995
 20
1052.982
 10
450.827
 20
1053.8220000000001
 10
450.605
 20
1054.646
 10
450.31399999999996
 20
1055.448
 10
448.61800000000005
 20
1059.56
 10
446.91999999999996
 20
1063.675
 10
446.443
 20
1064.672
 10
445.85799999999995
 20
1065.61
 10
443.057
 20
1069.596
 10
440.254
 20
1073.585
 10
439.69899999999996
 20
1074.3029999999999
 10
439.081
 20
1074.969
 10
435.217
 20
1078.765
 10
431.351
 20
1082.564
 10
430.231
 20
1083.514
 10
426.991
 20
1085.875
 10
423.73800000000006
 20
1088.244
 10
420.496
 20
1090.607
 10
419.486
 20
1091.254
 10
415.62699999999995
 20
1093.411
 10
411.75800000000004
 20
1095.573
 10
407.898
 20
1097.731
 10
407.00199999999995
 20
1098.175
 10
402.586
 20
1100.092
 10
398.16200000000003
 20
1102.013
 10
393.745
 20
1103.931
 10
392.946
 20
1104.238
 10
388.044
 20
1105.885
 10
383.13300000000004
 20
1107.535
 10
378.23
 20
1109.182
 10
377.509
 20
1109.394
 10
372.197
 20
1110.745
 10
366.87800000000004
 20
1112.097
 10
361.56600000000003
 20
1113.447
 10
360.903
 20
1113.592
 10
355.26599999999996
 20
1114.624
 10
349.622
 20
1115.657
 10
343.985
 20
1116.689
 10
343.363
 20
1116.783
 10
337.49
 20
1117.48
 10
331.611
 20
1118.178
 10
325.738
 20
1118.876
 10
325.142
 20
1118.928
 10
320.631
 20
1119.192
 10
316.115
 20
1119.456
 10
311.598
 20
1119.719
 10
307.08799999999997
 20
1119.983
 10
306.505
 20
1120.0
 10
301.95799999999997
 20
1120.0
 10
297.406
 20
1120.0
 10
292.853
 20
1120.0
 10
288.307
 20
1120.0
 10
287.72400000000005
 20
1119.983
 10
283.21299999999997
 20
1119.719
 10
278.697
 20
1119.456
 10
274.18
 20
1119.192
 10
269.67
 20
1118.928
 10
269.074
 20
1118.876
 10
263.201
 20
1118.178
 10
257.322
 20
1117.48
 10
251.449
 20
1116.783
 10
250.827
 20
1116.689
 10
245.18900000000002
 20
1115.657
 10
239.546
 20
1114.624
 10
233.909
 20
1113.592
 10
233.246
 20
1113.447
 10
227.933
 20
1112.097
 10
222.614
 20
1110.745
 10
217.303
 20
1109.394
 10
216.582
 20
1109.182
 10
211.678
 20
1107.535
 10
206.768
 20
1105.885
 10
201.865
 20
1104.238
 10
201.067
 20
1103.931
 10
196.65
 20
1102.013
 10
192.225
 20
1100.092
 10
187.81
 20
1098.175
 10
186.914
 20
1097.731
 10
183.053
 20
1095.573
 10
179.184
 20
1093.411
 10
175.326
 20
1091.254
 10
174.316
 20
1090.607
 10
171.073
 20
1088.244
 10
167.821
 20
1085.875
 10
164.58
 20
1083.514
 10
163.46
 20
1082.564
 10
159.594
 20
1078.765
 10
155.731
 20
1074.969
 10
155.113
 20
1074.3029999999999
 10
154.558
 20
1073.585
 10
151.754
 20
1069.596
 10
148.954
 20
1065.61
 10
148.369
 20
1064.672
 10
147.891
 20
1063.674
 10
146.851
 20
1061.152
 10
144.558
 20
1055.595
 10
144.266
 20
1054.792
 10
144.044
 20
1053.967
 10
143.893
 20
1053.126
 10
143.254
 20
1048.417
 10
142.69
 20
1044.236
 10
142.602
 20
1043.066
  0
LWPOLYLINE
  5
95
330
17
100
AcDbEntity
  8
STITCH
100
AcDbPolyline
 90
136
 70
1
 10
152.601
 20
1042.899
 10
153.16400000000002
 20
1047.08
 10
153.802
 20
1051.781
 10
156.095
 20
1057.338
 10
157.136
 20
1059.861
 10
159.936
 20
1063.847
 10
162.74
 20
1067.836
 10
166.603
 20
1071.632
 10
170.469
 20
1075.431
 10
173.71
 20
1077.793
 10
176.962
 20
1080.162
 10
180.205
 20
1082.525
 10
184.063
 20
1084.682
 10
187.93200000000002
 20
1086.844
 10
191.793
 20
1089.002
 10
196.208
 20
1090.919
 10
200.633
 20
1092.841
 10
205.05
 20
1094.759
 10
209.952
 20
1096.406
 10
214.863
 20
1098.055
 10
219.76600000000002
 20
1099.703
 10
225.078
 20
1101.053
 10
230.397
 20
1102.405
 10
235.71
 20
1103.756
 10
241.347
 20
1104.788
 10
246.99
 20
1105.821
 10
252.628
 20
1106.853
 10
258.5
 20
1107.55
 10
264.38
 20
1108.248
 10
270.253
 20
1108.945
 10
274.76300000000003
 20
1109.209
 10
279.28
 20
1109.473
 10
283.796
 20
1109.736
 10
288.307
 20
1110.0
 10
292.853
 20
1110.0
 10
297.406
 20
1110.0
 10
301.95799999999997
 20
1110.0
 10
306.505
 20
1110.0
 10
311.015
 20
1109.737
 10
315.53200000000004
 20
1109.473
 10
320.048
 20
1109.209
 10
324.55899999999997
 20
1108.945
 10
330.432
 20
1108.248
 10
336.31100000000004
 20
1107.55
 10
342.18399999999997
 20
1106.853
 10
347.822
 20
1105.821
 10
353.46500000000003
 20
1104.788
 10
359.102
 20
1103.756
 10
364.414
 20
1102.405
 10
369.73400000000004
 20
1101.053
 10
375.045
 20
1099.703
 10
379.949
 20
1098.055
 10
384.85900000000004
 20
1096.406
 10
389.762
 20
1094.759
 10
394.179
 20
1092.841
 10
398.60299999999995
 20
1090.919
 10
403.019
 20
1089.002
 10
406.879
 20
1086.844
 10
410.74800000000005
 20
1084.682
 10
414.60699999999997
 20
1082.525
 10
417.84900000000005
 20
1080.162
 10
421.102
 20
1077.793
 10
424.342
 20
1075.431
 10
428.20799999999997
 20
1071.632
 10
432.072
 20
1067.836
 10
434.875
 20
1063.847
 10
437.67600000000004
 20
1059.861
 10
439.37300000000005
 20
1055.746
 10
441.07000000000005
 20
1051.634
 10
441.43399999999997
 20
1048.9569999999999
 10
442.207
 20
1043.28
 10
441.59900000000005
 20
1037.18
 10
441.04100000000005
 20
1031.563
 10
440.48199999999997
 20
1025.946
 10
439.923
 20
1020.329
 10
439.389
 20
1014.969
 10
438.82500000000005
 20
1009.303
 10
438.26200000000006
 20
1003.636
 10
437.672
 20
997.712
 10
437.149
 20
992.451
 10
431.46500000000003
 20
991.379
 10
425.635
 20
990.279
 10
419.80499999999995
 20
989.179
 10
413.976
 20
988.079
 10
408.14700000000005
 20
987.0550000000001
 10
402.31600000000003
 20
986.03
 10
396.486
 20
985.005
 10
390.658
 20
983.98
 10
384.83000000000004
 20
983.1
 10
379.0
 20
982.22
 10
373.17
 20
981.34
 10
367.343
 20
980.46
 10
361.51599999999996
 20
979.785
 10
355.68600000000004
 20
979.109
 10
349.855
 20
978.434
 10
344.029
 20
977.759
 10
338.203
 20
977.335
 10
332.373
 20
976.91
 10
326.543
 20
976.486
 10
320.717
 20
976.061
 10
314.892
 20
975.917
 10
309.06100000000004
 20
975.7719999999999
 10
303.231
 20
975.627
 10
297.406
 20
975.482
 10
291.58000000000004
 20
975.627
 10
285.75
 20
975.7719999999999
 10
279.92
 20
975.917
 10
274.095
 20
976.061
 10
268.269
 20
976.486
 10
262.439
 20
976.91
 10
256.608
 20
977.335
 10
250.782
 20
977.759
 10
244.95600000000002
 20
978.434
 10
239.126
 20
979.109
 10
233.296
 20
979.785
 10
227.469
 20
980.46
 10
221.642
 20
981.34
 10
215.812
 20
982.22
 10
209.981
 20
983.1
 10
204.15300000000002
 20
983.98
 10
198.325
 20
985.005
 10
192.495
 20
986.03
 10
186.66500000000002
 20
987.0550000000001
 10
180.836
 20
988.079
 10
175.007
 20
989.179
 10
169.17600000000002
 20
990.279
 10
163.346
 20
991.379
 10
157.663
 20
992.451
 10
157.14000000000001
 20
997.712
 10
156.55
 20
1003.636
 10
155.986
 20
1009.303
 10
155.422
 20
1014.969
 10
154.866
 20
1020.358
 10
154.304
 20
1025.984
 10
153.739
 20
1031.615
 10
153.172
 20
1037.252
  0
TEXT
  5
96
330
17
100
AcDbEntity
  8
LABEL
100
AcDbText
 10
297.4035
 20
1042.743
 30
0.0
 40
10.0
  1
B piece-2
 72
1
 11
297.4035
 21
1042.743
 31
0.0
100
AcDbText
 73
2
  0
LWPOLYLINE
  5
97
330
17
100
AcDbEntity
  8
CUT
100
AcDbPolyline
 90
210
 70
1
 10
730.422
 20
978.255
 10
736.251
 20
979.355
 10
742.082
 20
980.455
 10
747.912
 20
981.5550000000001
 10
753.595
 20
982.627
 10
754.5550000000001
 20
982.858
 10
755.489
 20
983.183
 10
756.386
 20
983.598
 10
757.237
 20
984.1
 10
758.035
 20
984.683
 10
758.771
 20
985.342
 10
759.438
 20
986.071
 10
760.031
 20
986.862
 10
760.5419999999999
 20
987.707
 10
760.968
 20
988.5989999999999
 10
761.303
 20
989.528
 10
761.545
 20
990.486
 10
761.692
 20
991.4639999999999
 10
762.2149999999999
 20
996.724
 10
762.8050000000001
 20
1002.648
 10
763.932
 20
1013.981
 10
764.466
 20
1019.341
 10
765.025
 20
1024.9569999999999
 10
765.583
 20
1030.574
 10
766.142
 20
1036.191
 10
766.749
 20
1042.291
 10
766.797
 20
1043.461
 10
766.707
 20
1044.629
 10
765.935
 20
1050.306
 10
765.5709999999999
 20
1052.984
 10
765.42
 20
1053.823
 10
765.198
 20
1054.647
 10
764.906
 20
1055.449
 10
763.21
 20
1059.561
 10
761.512
 20
1063.676
 10
761.035
 20
1064.673
 10
760.45
 20
1065.611
 10
757.649
 20
1069.597
 10
754.846
 20
1073.586
 10
754.2909999999999
 20
1074.304
 10
753.673
 20
1074.97
 10
749.81
 20
1078.766
 10
745.944
 20
1082.565
 10
744.8240000000001
 20
1083.514
 10
741.583
 20
1085.875
 10
738.3309999999999
 20
1088.245
 10
735.088
 20
1090.608
 10
734.078
 20
1091.255
 10
730.22
 20
1093.411
 10
726.351
 20
1095.574
 10
722.491
 20
1097.731
 10
721.595
 20
1098.175
 10
717.179
 20
1100.092
 10
712.755
 20
1102.014
 10
708.338
 20
1103.931
 10
707.54
 20
1104.238
 10
702.637
 20
1105.885
 10
697.727
 20
1107.535
 10
692.823
 20
1109.182
 10
692.102
 20
1109.395
 10
686.7909999999999
 20
1110.745
 10
681.472
 20
1112.097
 10
676.16
 20
1113.447
 10
675.497
 20
1113.592
 10
669.86
 20
1114.624
 10
664.216
 20
1115.657
 10
658.579
 20
1116.689
 10
657.957
 20
1116.783
 10
652.084
 20
1117.48
 10
646.2049999999999
 20
1118.178
 10
640.332
 20
1118.876
 10
639.737
 20
1118.928
 10
635.226
 20
1119.192
 10
630.71
 20
1119.456
 10
626.193
 20
1119.719
 10
621.683
 20
1119.983
 10
621.1
 20
1120.0
 10
616.553
 20
1120.0
 10
612.001
 20
1120.0
 10
607.449
 20
1120.0
 10
602.902
 20
1120.0
 10
602.319
 20
1119.983
 10
597.809
 20
1119.719
 10
593.2919999999999
 20
1119.456
 10
588.776
 20
1119.192
 10
584.265
 20
1118.928
 10
583.67
 20
1118.876
 10
577.797
 20
1118.178
 10
571.918
 20
1117.48
 10
566.045
 20
1116.783
 10
565.423
 20
1116.689
 10
559.786
 20
1115.657
 10
554.1419999999999
 20
1114.624
 10
548.505
 20
1113.592
 10
547.842
 20
1113.447
 10
542.53
 20
1112.097
 10
537.211
 20
1110.745
 10
531.9
 20
1109.395
 10
531.179
 20
1109.182
 10
526.275
 20
1107.535
 10
521.365
 20
1105.885
 10
516.462
 20
1104.238
 10
515.664
 20
1103.931
 10
511.24699999999996
 20
1102.014
 10
506.823
 20
1100.092
 10
502.407
 20
1098.175
 10
501.51099999999997
 20
1097.731
 10
497.65099999999995
 20
1095.574
 10
493.782
 20
1093.411
 10
489.923
 20
1091.255
 10
488.914
 20
1090.608
 10
485.671
 20
1088.245
 10
482.419
 20
1085.875
 10
479.178
 20
1083.514
 10
478.058
 20
1082.565
 10
474.192
 20
1078.766
 10
470.329
 20
1074.969
 10
469.711
 20
1074.304
 10
469.156
 20
1073.586
 10
466.353
 20
1069.597
 10
463.55199999999996
 20
1065.611
 10
462.967
 20
1064.673
 10
462.49
 20
1063.676
 10
461.44899999999996
 20
1061.153
 10
459.096
 20
1055.449
 10
458.804
 20
1054.647
 10
458.582
 20
1053.824
 10
458.431
 20
1052.984
 10
457.664
 20
1047.342
 10
457.29499999999996
 20
1044.629
 10
457.205
 20
1043.461
 10
457.253
 20
1042.291
 10
457.81399999999996
 20
1036.648
 10
458.378
 20
1030.981
 10
458.942
 20
1025.314
 10
459.506
 20
1019.648
 10
460.07
 20
1013.981
 10
460.63399999999996
 20
1008.315
 10
461.197
 20
1002.648
 10
461.76099999999997
 20
996.981
 10
461.763
 20
996.961
 10
462.32
 20
991.483
 10
462.46799999999996
 20
990.504
 10
462.71299999999997
 20
989.545
 10
463.051
 20
988.615
 10
463.47999999999996
 20
987.722
 10
463.995
 20
986.877
 10
464.591
 20
986.086
 10
465.262
 20
985.358
 10
466.002
 20
984.7
 10
466.803
 20
984.119
 10
467.65799999999996
 20
983.62
 10
468.558
 20
983.207
 10
469.49399999999997
 20
982.886
 10
470.45799999999997
 20
982.659
 10
476.11199999999997
 20
981.6179999999999
 10
481.905
 20
980.51
 10
487.733
 20
979.395
 10
493.55899999999997
 20
978.281
 10
493.72999999999996
 20
978.25
 10
499.562
 20
977.239
 10
505.395
 20
976.229
 10
511.179
 20
975.227
 10
516.9499999999999
 20
974.168
 10
517.225
 20
974.1220000000001
 10
523.049
 20
973.22
 10
523.085
 20
973.215
 10
528.9159999999999
 20
972.335
 10
534.746
 20
971.454
 10
540.573
 20
970.575
 10
540.915
 20
970.529
 10
546.741
 20
969.854
 10
552.572
 20
969.179
 10
558.402
 20
968.5029999999999
 10
564.228
 20
967.828
 10
564.652
 20
967.788
 10
570.478
 20
967.364
 10
576.308
 20
966.94
 10
582.138
 20
966.515
 10
587.9639999999999
 20
966.091
 10
588.442
 20
966.067
 10
594.267
 20
965.923
 10
600.097
 20
965.778
 10
605.927
 20
965.633
 10
611.7529999999999
 20
965.488
 10
612.249
 20
965.488
 10
618.074
 20
965.633
 10
623.905
 20
965.778
 10
629.735
 20
965.923
 10
635.56
 20
966.067
 10
636.038
 20
966.091
 10
641.864
 20
966.515
 10
647.694
 20
966.94
 10
653.524
 20
967.364
 10
659.35
 20
967.788
 10
659.774
 20
967.828
 10
665.6
 20
968.5029999999999
 10
671.43
 20
969.179
 10
677.261
 20
969.854
 10
683.087
 20
970.529
 10
683.429
 20
970.575
 10
689.256
 20
971.454
 10
695.086
 20
972.335
 10
700.9159999999999
 20
973.215
 10
706.7439999999999
 20
974.095
 10
706.983
 20
974.134
 10
713.03
 20
975.197
 10
718.837
 20
976.218
 10
724.644
 20
977.239
 10
730.3
 20
978.233
  0
LWPOLYLINE
  5
98
330
17
100
AcDbEntity
  8
STITCH
100
AcDbPolyline
 90
136
 70
1
 10
728.568
 20
988.082
 10
722.912
 20
987.088
 10
717.105
 20
986.067
 10
711.299
 20
985.046
 10
705.251
 20
983.983
 10
699.424
 20
983.1030000000001
 10
693.593
 20
982.223
 10
687.7629999999999
 20
981.342
 10
681.9359999999999
 20
980.463
 10
676.11
 20
979.788
 10
670.28
 20
979.112
 10
664.449
 20
978.437
 10
658.624
 20
977.762
 10
652.798
 20
977.338
 10
646.967
 20
976.913
 10
641.137
 20
976.489
 10
635.312
 20
976.064
 10
629.486
 20
975.92
 10
623.656
 20
975.775
 10
617.826
 20
975.63
 10
612.001
 20
975.485
 10
606.1759999999999
 20
975.63
 10
600.346
 20
975.775
 10
594.515
 20
975.92
 10
588.69
 20
976.064
 10
582.865
 20
976.489
 10
577.034
 20
976.913
 10
571.204
 20
977.338
 10
565.3779999999999
 20
977.762
 10
559.552
 20
978.437
 10
553.722
 20
979.112
 10
547.8919999999999
 20
979.788
 10
542.0649999999999
 20
980.463
 10
536.239
 20
981.342
 10
530.409
 20
982.223
 10
524.578
 20
983.1030000000001
 10
518.755
 20
984.004
 10
512.935
 20
985.072
 10
507.102
 20
986.082
 10
501.269
 20
987.093
 10
495.437
 20
988.1030000000001
 10
489.611
 20
989.217
 10
483.784
 20
990.332
 10
477.95599999999996
 20
991.446
 10
472.268
 20
992.4929999999999
 10
471.712
 20
997.972
 10
471.14799999999997
 20
1003.638
 10
470.584
 20
1009.3050000000001
 10
470.02
 20
1014.971
 10
469.457
 20
1020.638
 10
468.893
 20
1026.305
 10
468.329
 20
1031.971
 10
467.765
 20
1037.638
 10
467.203
 20
1043.281
 10
467.573
 20
1045.994
 10
468.34
 20
1051.636
 10
470.693
 20
1057.339
 10
471.734
 20
1059.862
 10
474.53499999999997
 20
1063.848
 10
477.33799999999997
 20
1067.837
 10
481.20099999999996
 20
1071.633
 10
485.067
 20
1075.432
 10
488.308
 20
1077.793
 10
491.56
 20
1080.163
 10
494.80199999999996
 20
1082.526
 10
498.661
 20
1084.682
 10
502.53
 20
1086.845
 10
506.39
 20
1089.002
 10
510.806
 20
1090.92
 10
515.23
 20
1092.841
 10
519.6469999999999
 20
1094.759
 10
524.549
 20
1096.406
 10
529.46
 20
1098.056
 10
534.3629999999999
 20
1099.703
 10
539.675
 20
1101.053
 10
544.994
 20
1102.405
 10
550.306
 20
1103.756
 10
555.943
 20
1104.788
 10
561.586
 20
1105.821
 10
567.2239999999999
 20
1106.853
 10
573.096
 20
1107.55
 10
578.975
 20
1108.248
 10
584.8489999999999
 20
1108.945
 10
589.3589999999999
 20
1109.209
 10
593.875
 20
1109.473
 10
598.392
 20
1109.736
 10
602.902
 20
1110.0
 10
607.449
 20
1110.0
 10
612.001
 20
1110.0
 10
616.553
 20
1110.0
 10
621.1
 20
1110.0
 10
625.61
 20
1109.736
 10
630.127
 20
1109.473
 10
634.643
 20
1109.209
 10
639.153
 20
1108.945
 10
645.027
 20
1108.248
 10
650.906
 20
1107.55
 10
656.778
 20
1106.853
 10
662.4159999999999
 20
1105.821
 10
668.059
 20
1104.788
 10
673.696
 20
1103.756
 10
679.008
 20
1102.405
 10
684.327
 20
1101.053
 10
689.639
 20
1099.703
 10
694.5419999999999
 20
1098.056
 10
699.453
 20
1096.406
 10
704.355
 20
1094.759
 10
708.7719999999999
 20
1092.841
 10
713.196
 20
1090.92
 10
717.612
 20
1089.002
 10
721.472
 20
1086.845
 10
725.341
 20
1084.682
 10
729.2
 20
1082.526
 10
732.442
 20
1080.163
 10
735.694
 20
1077.793
 10
738.935
 20
1075.432
 10
742.8009999999999
 20
1071.633
 10
746.664
 20
1067.837
 10
749.467
 20
1063.848
 10
752.268
 20
1059.862
 10
753.966
 20
1055.747
 10
755.662
 20
1051.636
 10
756.0260000000001
 20
1048.958
 10
756.799
 20
1043.281
 10
756.192
 20
1037.181
 10
755.633
 20
1031.564
 10
755.0740000000001
 20
1025.948
 10
754.515
 20
1020.331
 10
753.981
 20
1014.971
 10
753.418
 20
1009.3050000000001
 10
752.854
 20
1003.638
 10
752.264
 20
997.7139999999999
 10
751.741
 20
992.454
 10
746.058
 20
991.3820000000001
 10
740.2280000000001
 20
990.282
 10
734.3969999999999
 20
989.182
  0
TEXT
  5
99
330
17
100
AcDbEntity
  8
LABEL
100
AcDbText
 10
612.001
 20
1042.744
 30
0.0
 40
10.0
  1
C piece-3
 72
1
 11
612.001
 21
1042.744
 31
0.0
100
AcDbText
 73
2
  0
LWPOLYLINE
  5
9A
330
17
100
AcDbEntity
  8
CUT
100
AcDbPolyline
 90
175
 70
1
 10
1040.357
 20
1025.399
 10
1046.29
 20
1025.399
 10
1052.223
 20
1025.399
 10
1058.156
 20
1025.399
 10
1063.8890000000001
 20
1025.399
 10
1064.8690000000001
 20
1025.4470000000001
 10
1065.8400000000001
 20
1025.591
 10
1066.792
 20
1025.83
 10
1067.716
 20
1026.16
 10
1068.603
 20
1026.58
 10
1069.4450000000002
 20
1027.084
 10
1070.233
 20
1027.669
 10
1070.96
 20
1028.328
 10
1071.6190000000001
 20
1029.055
 10
1072.204
 20
1029.843
 10
1072.709
 20
1030.685
 10
1073.1280000000002
 20
1031.5720000000001
 10
1073.459
 20
1032.496
 10
1073.6970000000001
 20
1033.448
 10
1073.841
 20
1034.419
 10
1073.8890000000001
 20
1035.399
 10
1073.8890000000001
 20
1040.774
 10
1073.8890000000001
 20
1046.738
 10
1073.8890000000001
 20
1052.507
 10
1073.8890000000001
 20
1058.258
 10
1073.909
 20
1063.791
 10
1073.909
 20
1063.823
 10
1073.912
 20
1069.55
 10
1073.9160000000002
 20
1075.28
 10
1073.922
 20
1081.015
 10
1073.931
 20
1086.758
 10
1073.943
 20
1092.512
 10
1073.959
 20
1098.281
 10
1073.982
 20
1104.072
 10
1074.011
 20
1109.902
 10
1073.968
 20
1110.885
 10
1073.828
 20
1111.859
 10
1073.593
 20
1112.814
 10
1073.266
 20
1113.741
 10
1072.8490000000002
 20
1114.632
 10
1072.347
 20
1115.478
 10
1071.763
 20
1116.27
 10
1071.105
 20
1117.001
 10
1070.379
 20
1117.664
 10
1069.591
 20
1118.252
 10
1068.748
 20
1118.76
 10
1067.8600000000001
 20
1119.183
 10
1066.935
 20
1119.516
 10
1065.981
 20
1119.757
 10
1065.009
 20
1119.903
 10
1064.026
 20
1119.953
 10
1058.1100000000001
 20
1119.962
 10
1052.192
 20
1119.968
 10
1046.274
 20
1119.971
 10
1040.381
 20
1119.972
 10
1034.4360000000001
 20
1120.0
 10
1034.39
 20
1120.0
 10
1028.486
 20
1120.0
 10
1022.582
 20
1120.0
 10
1016.678
 20
1120.0
 10
1010.734
 20
1120.0
 10
1004.854
 20
1120.0
 10
998.973
 20
1120.0
 10
993.092
 20
1120.0
 10
987.176
 20
1120.0
 10
969.615
 20
1120.0
 10
963.723
 20
1120.0
 10
957.893
 20
1120.0
 10
952.063
 20
1120.0
 10
946.232
 20
1120.0
 10
940.354
 20
1120.0
 10
893.683
 20
1120.0
 10
887.8530000000001
 20
1120.0
 10
882.023
 20
1120.0
 10
852.716
 20
1120.0
 10
846.772
 20
1120.0
 10
840.8910000000001
 20
1120.0
 10
835.011
 20
1120.0
 10
829.13
 20
1120.0
 10
823.163
 20
1120.0
 10
817.259
 20
1120.0
 10
811.355
 20
1120.0
 10
805.451
 20
1120.0
 10
799.518
 20
1120.0
 10
793.585
 20
1120.0
 10
787.652
 20
1120.0
 10
781.919
 20
1120.0
 10
780.9390000000001
 20
1119.952
 10
779.9680000000001
 20
1119.808
 10
779.0160000000001
 20
1119.569
 10
778.092
 20
1119.239
 10
777.205
 20
1118.819
 10
776.363
 20
1118.315
 10
775.575
 20
1117.73
 10
774.8480000000001
 20
1117.071
 10
774.1890000000001
 20
1116.344
 10
773.604
 20
1115.556
 10
773.1
 20
1114.714
 10
772.6800000000001
 20
1113.827
 10
772.349
 20
1112.903
 10
772.111
 20
1111.951
 10
771.967
 20
1110.98
 10
771.919
 20
1110.0
 10
771.919
 20
1104.625
 10
771.919
 20
1098.661
 10
771.919
 20
1092.892
 10
771.919
 20
1087.141
 10
771.899
 20
1081.608
 10
771.899
 20
1081.576
 10
771.8960000000001
 20
1075.849
 10
771.892
 20
1070.119
 10
771.8860000000001
 20
1064.384
 10
771.8770000000001
 20
1058.641
 10
771.865
 20
1052.887
 10
771.849
 20
1047.118
 10
771.826
 20
1041.327
 10
771.797
 20
1035.496
 10
771.84
 20
1034.514
 10
771.98
 20
1033.54
 10
772.215
 20
1032.585
 10
772.542
 20
1031.658
 10
772.9590000000001
 20
1030.767
 10
773.462
 20
1029.921
 10
774.0450000000001
 20
1029.129
 10
774.703
 20
1028.398
 10
775.429
 20
1027.735
 10
776.2180000000001
 20
1027.147
 10
777.0600000000001
 20
1026.639
 10
777.948
 20
1026.216
 10
778.873
 20
1025.883
 10
779.827
 20
1025.642
 10
780.799
 20
1025.496
 10
781.782
 20
1025.446
 10
787.698
 20
1025.437
 10
793.616
 20
1025.431
 10
799.534
 20
1025.4279999999999
 10
805.427
 20
1025.426
 10
811.3720000000001
 20
1025.399
 10
811.418
 20
1025.399
 10
817.322
 20
1025.399
 10
823.226
 20
1025.399
 10
829.13
 20
1025.399
 10
835.0740000000001
 20
1025.399
 10
840.9540000000001
 20
1025.399
 10
846.835
 20
1025.399
 10
852.716
 20
1025.399
 10
858.6320000000001
 20
1025.399
 10
864.485
 20
1025.399
 10
870.339
 20
1025.399
 10
876.193
 20
1025.399
 10
887.915
 20
1025.399
 10
893.746
 20
1025.399
 10
899.576
 20
1025.399
 10
905.4540000000001
 20
1025.399
 10
911.271
 20
1025.399
 10
917.088
 20
1025.399
 10
922.904
 20
1025.399
 10
928.783
 20
1025.399
 10
934.599
 20
1025.399
 10
940.416
 20
1025.399
 10
946.232
 20
1025.399
 10
952.125
 20
1025.399
 10
957.955
 20
1025.399
 10
963.7850000000001
 20
1025.399
 10
969.615
 20
1025.399
 10
975.5310000000001
 20
1025.399
 10
981.385
 20
1025.399
 10
993.092
 20
1025.399
 10
999.0360000000001
 20
1025.399
 10
1004.917
 20
1025.399
 10
1010.797
 20
1025.399
 10
1016.678
 20
1025.399
 10
1022.645
 20
1025.399
 10
1028.549
 20
1025.399
 10
1034.453
 20
1025.399
  0
LWPOLYLINE
  5
9B
330
17
100
AcDbEntity
  8
STITCH
100
AcDbPolyline
 90
122
 70
1
 10
1040.357
 20
1035.399
 10
1034.453
 20
1035.399
 10
1028.549
 20
1035.399
 10
1022.645
 20
1035.399
 10
1016.678
 20
1035.399
 10
1010.797
 20
1035.399
 10
1004.917
 20
1035.399
 10
999.0360000000001
 20
1035.399
 10
993.092
 20
1035.399
 10
987.239
 20
1035.399
 10
981.385
 20
1035.399
 10
975.532
 20
1035.399
 10
969.615
 20
1035.399
 10
963.7850000000001
 20
1035.399
 10
957.955
 20
1035.399
 10
952.125
 20
1035.399
 10
946.232
 20
1035.399
 10
940.416
 20
1035.399
 10
934.599
 20
1035.399
 10
928.783
 20
1035.399
 10
922.904
 20
1035.399
 10
917.087
 20
1035.399
 10
911.271
 20
1035.399
 10
905.4540000000001
 20
1035.399
 10
899.576
 20
1035.399
 10
893.745
 20
1035.399
 10
887.915
 20
1035.399
 10
882.085
 20
1035.399
 10
876.193
 20
1035.399
 10
870.339
 20
1035.399
 10
864.485
 20
1035.399
 10
858.6320000000001
 20
1035.399
 10
852.716
 20
1035.399
 10
846.835
 20
1035.399
 10
840.9540000000001
 20
1035.399
 10
835.0740000000001
 20
1035.399
 10
829.13
 20
1035.399
 10
823.226
 20
1035.399
 10
817.322
 20
1035.399
 10
811.418
 20
1035.399
 10
805.451
 20
1035.426
 10
799.5360000000001
 20
1035.4279999999999
 10
793.6220000000001
 20
1035.431
 10
787.708
 20
1035.437
 10
781.797
 20
1035.446
 10
781.826
 20
1041.282
 10
781.8480000000001
 20
1047.085
 10
781.865
 20
1052.862
 10
781.8770000000001
 20
1058.623
 10
781.8860000000001
 20
1064.371
 10
781.892
 20
1070.11
 10
781.8960000000001
 20
1075.843
 10
781.899
 20
1081.5720000000001
 10
781.919
 20
1087.123
 10
781.919
 20
1092.892
 10
781.919
 20
1098.661
 10
781.919
 20
1104.625
 10
781.919
 20
1110.0
 10
787.652
 20
1110.0
 10
793.585
 20
1110.0
 10
799.518
 20
1110.0
 10
805.451
 20
1110.0
 10
811.355
 20
1110.0
 10
817.259
 20
1110.0
 10
823.163
 20
1110.0
 10
829.13
 20
1110.0
 10
835.011
 20
1110.0
 10
840.8910000000001
 20
1110.0
 10
846.772
 20
1110.0
 10
852.716
 20
1110.0
 10
858.5690000000001
 20
1110.0
 10
864.423
 20
1110.0
 10
870.2760000000001
 20
1110.0
 10
876.193
 20
1110.0
 10
882.023
 20
1110.0
 10
887.8530000000001
 20
1110.0
 10
893.683
 20
1110.0
 10
899.576
 20
1110.0
 10
905.392
 20
1110.0
 10
911.2090000000001
 20
1110.0
 10
917.0250000000001
 20
1110.0
 10
922.904
 20
1110.0
 10
928.721
 20
1110.0
 10
934.537
 20
1110.0
 10
940.354
 20
1110.0
 10
946.232
 20
1110.0
 10
952.063
 20
1110.0
 10
957.893
 20
1110.0
 10
963.723
 20
1110.0
 10
969.615
 20
1110.0
 10
975.469
 20
1110.0
 10
981.3230000000001
 20
1110.0
 10
987.176
 20
1110.0
 10
993.092
 20
1110.0
 10
998.973
 20
1110.0
 10
1004.854
 20
1110.0
 10
1010.734
 20
1110.0
 10
1016.678
 20
1110.0
 10
1022.582
 20
1110.0
 10
1028.486
 20
1110.0
 10
1034.39
 20
1110.0
 10
1040.357
 20
1109.972
 10
1046.272
 20
1109.971
 10
1052.1860000000001
 20
1109.968
 10
1058.1
 20
1109.962
 10
1064.011
 20
1109.953
 10
1063.982
 20
1104.117
 10
1063.96
 20
1098.314
 10
1063.943
 20
1092.536
 10
1063.931
 20
1086.776
 10
1063.922
 20
1081.028
 10
1063.9160000000002
 20
1075.289
 10
1063.912
 20
1069.556
 10
1063.909
 20
1063.827
 10
1063.8890000000001
 20
1058.276
 10
1063.8890000000001
 20
1052.507
 10
1063.8890000000001
 20
1046.738
 10
1063.8890000000001
 20
1040.774
 10
1063.8890000000001
 20
1035.399
 10
1058.156
 20
1035.399
 10
1052.223
 20
1035.399
 10
1046.29
 20
1035.399
  0
TEXT
  5
9C
330
17
100
AcDbEntity
  8
LABEL
100
AcDbText
 10
922.904
 20
1072.6995
 30
0.0
 40
10.0
  1
D piece-4
 72
1
 11
922.904
 21
1072.6995
 31
0.0
100
AcDbText
 73
2
  0
LWPOLYLINE
  5
9D
330
17
100
AcDbEntity
  8
CUT
100
AcDbPolyline
 90
194
 70
1
 10
1089.011
 20
943.5989999999999
 10
1090.261
 20
943.5989999999999
 10
1091.511
 20
943.5989999999999
 10
1092.761
 20
943.5989999999999
 10
1094.011
 20
943.5989999999999
 10
1095.261
 20
943.5989999999999
 10
1096.511
 20
943.5989999999999
 10
1097.761
 20
943.5989999999999
 10
1099.011
 20
943.5989999999999
 10
1100.261
 20
943.5989999999999
 10
1101.511
 20
943.5989999999999
 10
1102.761
 20
943.5989999999999
 10
1104.011
 20
943.5989999999999
 10
1105.261
 20
943.5989999999999
 10
1106.511
 20
943.5989999999999
 10
1107.761
 20
943.5989999999999
 10
1109.011
 20
943.5989999999999
 10
1109.991
 20
943.6469999999999
 10
1110.962
 20
943.7909999999999
 10
1111.914
 20
944.029
 10
1112.838
 20
944.36
 10
1113.725
 20
944.78
 10
1114.567
 20
945.284
 10
1115.355
 20
945.869
 10
1116.0819999999999
 20
946.528
 10
1116.741
 20
947.255
 10
1117.326
 20
948.043
 10
1117.83
 20
948.885
 10
1118.25
 20
949.7719999999999
 10
1118.58
 20
950.696
 10
1118.819
 20
951.648
 10
1118.963
 20
952.619
 10
1119.011
 20
953.5989999999999
 10
1119.011
 20
954.821
 10
1119.011
 20
1110.0
 10
1118.963
 20
1110.98
 10
1118.819
 20
1111.951
 10
1118.58
 20
1112.903
 10
1118.25
 20
1113.827
 10
1117.83
 20
1114.714
 10
1117.326
 20
1115.556
 10
1116.741
 20
1116.344
 10
1116.0819999999999
 20
1117.071
 10
1115.355
 20
1117.73
 10
1114.567
 20
1118.315
 10
1113.725
 20
1118.819
 10
1112.838
 20
1119.239
 10
1111.914
 20
1119.569
 10
1110.962
 20
1119.808
 10
1109.991
 20
1119.952
 10
1109.011
 20
1120.0
 10
1089.011
 20
1120.0
 10
1088.031
 20
1119.952
 10
1087.06
 20
1119.808
 10
1086.108
 20
1119.569
 10
1085.184
 20
1119.239
 10
1084.297
 20
1118.819
 10
1083.455
 20
1118.315
 10
1082.667
 20
1117.73
 10
1081.94
 20
1117.071
 10
1081.281
 20
1116.344
 10
1080.696
 20
1115.556
 10
1080.192
 20
1114.714
 10
1079.772
 20
1113.827
 10
1079.442
 20
1112.903
 10
1079.203
 20
1111.951
 10
1079.059
 20
1110.98
 10
1079.011
 20
1110.0
 10
1079.011
 20
1108.778
 10
1079.011
 20
1107.556
 10
1079.011
 20
1106.334
 10
1079.011
 20
1105.112
 10
1079.011
 20
1103.891
 10
1079.011
 20
1102.669
 10
1079.011
 20
1101.447
 10
1079.011
 20
1099.003
 10
1079.011
 20
1097.781
 10
1079.011
 20
1096.559
 10
1079.011
 20
1094.116
 10
1079.011
 20
1092.894
 10
1079.011
 20
1091.672
 10
1079.011
 20
1089.228
 10
1079.011
 20
1088.006
 10
1079.011
 20
1086.784
 10
1079.011
 20
1085.562
 10
1079.011
 20
1084.34
 10
1079.011
 20
1083.119
 10
1079.011
 20
1081.897
 10
1079.011
 20
1079.453
 10
1079.011
 20
1078.231
 10
1079.011
 20
1077.009
 10
1079.011
 20
1075.787
 10
1079.011
 20
1074.565
 10
1079.011
 20
1073.343
 10
1079.011
 20
1072.122
 10
1079.011
 20
1070.9
 10
1079.011
 20
1069.6779999999999
 10
1079.011
 20
1068.456
 10
1079.011
 20
1067.234
 10
1079.011
 20
1066.012
 10
1079.011
 20
1064.79
 10
1079.011
 20
1063.568
 10
1079.011
 20
1062.347
 10
1079.011
 20
1061.125
 10
1079.011
 20
1059.903
 10
1079.011
 20
1058.681
 10
1079.011
 20
1057.459
 10
1079.011
 20
1056.237
 10
1079.011
 20
1055.015
 10
1079.011
 20
1053.7930000000001
 10
1079.011
 20
1052.571
 10
1079.011
 20
1051.35
 10
1079.011
 20
1050.128
 10
1079.011
 20
1048.906
 10
1079.011
 20
1047.684
 10
1079.011
 20
1045.24
 10
1079.011
 20
1044.018
 10
1079.011
 20
1042.796
 10
1079.011
 20
1040.353
 10
1079.011
 20
1039.131
 10
1079.011
 20
1037.909
 10
1079.011
 20
1036.687
 10
1079.011
 20
1035.465
 10
1079.011
 20
1034.243
 10
1079.011
 20
1033.021
 10
1079.011
 20
1031.799
 10
1079.011
 20
1030.578
 10
1079.011
 20
1028.134
 10
1079.011
 20
1026.912
 10
1079.011
 20
1025.69
 10
1079.011
 20
1024.468
 10
1079.011
 20
1023.246
 10
1079.011
 20
1020.802
 10
1079.011
 20
1019.581
 10
1079.011
 20
1018.359
 10
1079.011
 20
1017.137
 10
1079.011
 20
1015.915
 10
1079.011
 20
1014.693
 10
1079.011
 20
1013.471
 10
1079.011
 20
1011.027
 10
1079.011
 20
1009.806
 10
1079.011
 20
1008.5840000000001
 10
1079.011
 20
1007.362
 10
1079.011
 20
1006.14
 10
1079.011
 20
1003.696
 10
1079.011
 20
1002.474
 10
1079.011
 20
1001.252
 10
1079.011
 20
1000.03
 10
1079.011
 20
998.809
 10
1079.011
 20
996.365
 10
1079.011
 20
995.143
 10
1079.011
 20
993.921
 10
1079.011
 20
992.699
 10
1079.011
 20
989.033
 10
1079.011
 20
986.59
 10
1079.011
 20
985.3679999999999
 10
1079.011
 20
984.146
 10
1079.011
 20
982.924
 10
1079.011
 20
981.702
 10
1079.011
 20
980.48
 10
1079.011
 20
979.258
 10
1079.011
 20
975.593
 10
1079.011
 20
974.371
 10
1079.011
 20
973.149
 10
1079.011
 20
971.927
 10
1079.011
 20
969.483
 10
1079.011
 20
968.261
 10
1079.011
 20
967.04
 10
1079.011
 20
965.818
 10
1079.011
 20
964.596
 10
1079.011
 20
963.374
 10
1079.011
 20
962.152
 10
1079.011
 20
960.9300000000001
 10
1079.011
 20
959.708
 10
1079.011
 20
958.486
 10
1079.011
 20
957.264
 10
1079.011
 20
956.043
 10
1079.011
 20
954.821
 10
1079.011
 20
953.5989999999999
 10
1079.059
 20
952.619
 10
1079.203
 20
951.648
 10
1079.442
 20
950.696
 10
1079.772
 20
949.7719999999999
 10
1080.192
 20
948.885
 10
1080.696
 20
948.043
 10
1081.281
 20
947.255
 10
1081.94
 20
946.528
 10
1082.667
 20
945.869
 10
1083.455
 20
945.284
 10
1084.297
 20
944.78
 10
1085.184
 20
944.36
 10
1086.108
 20
944.029
 10
1087.06
 20
943.7909999999999
 10
1088.031
 20
943.6469999999999
  0
LWPOLYLINE
  5
9E
330
17
100
AcDbEntity
  8
STITCH
100
AcDbPolyline
 90
288
 70
1
 10
1089.011
 20
953.5989999999999
 10
1089.011
 20
954.821
 10
1089.011
 20
956.043
 10
1089.011
 20
957.264
 10
1089.011
 20
958.486
 10
1089.011
 20
959.708
 10
1089.011
 20
960.9300000000001
 10
1089.011
 20
962.152
 10
1089.011
 20
963.374
 10
1089.011
 20
964.596
 10
1089.011
 20
965.818
 10
1089.011
 20
967.04
 10
1089.011
 20
968.261
 10
1089.011
 20
969.483
 10
1089.011
 20
970.705
 10
1089.011
 20
971.927
 10
1089.011
 20
973.149
 10
1089.011
 20
974.371
 10
1089.011
 20
975.593
 10
1089.011
 20
976.815
 10
1089.011
 20
978.037
 10
1089.011
 20
979.258
 10
1089.011
 20
980.48
 10
1089.011
 20
981.702
 10
1089.011
 20
982.924
 10
1089.011
 20
984.146
 10
1089.011
 20
985.3679999999999
 10
1089.011
 20
986.59
 10
1089.011
 20
987.812
 10
1089.011
 20
989.033
 10
1089.011
 20
990.255
 10
1089.011
 20
991.477
 10
1089.011
 20
992.699
 10
1089.011
 20
993.921
 10
1089.011
 20
995.143
 10
1089.011
 20
996.365
 10
1089.011
 20
997.587
 10
1089.011
 20
998.809
 10
1089.011
 20
1000.03
 10
1089.011
 20
1001.252
 10
1089.011
 20
1002.474
 10
1089.011
 20
1003.696
 10
1089.011
 20
1004.918
 10
1089.011
 20
1006.14
 10
1089.011
 20
1007.362
 10
1089.011
 20
1008.5840000000001
 10
1089.011
 20
1009.806
 10
1089.011
 20
1011.027
 10
1089.011
 20
1012.249
 10
1089.011
 20
1013.471
 10
1089.011
 20
1014.693
 10
1089.011
 20
1015.915
 10
1089.011
 20
1017.137
 10
1089.011
 20
1018.359
 10
1089.011
 20
1019.581
 10
1089.011
 20
1020.802
 10
1089.011
 20
1022.024
 10
1089.011
 20
1023.246
 10
1089.011
 20
1024.468
 10
1089.011
 20
1025.69
 10
1089.011
 20
1026.912
 10
1089.011
 20
1028.134
 10
1089.011
 20
1029.356
 10
1089.011
 20
1030.578
 10
1089.011
 20
1031.799
 10
1089.011
 20
1033.021
 10
1089.011
 20
1034.243
 10
1089.011
 20
1035.465
 10
1089.011
 20
1036.687
 10
1089.011
 20
1037.909
 10
1089.011
 20
1039.131
 10
1089.011
 20
1040.353
 10
1089.011
 20
1041.574
 10
1089.011
 20
1042.796
 10
1089.011
 20
1044.018
 10
1089.011
 20
1045.24
 10
1089.011
 20
1046.462
 10
1089.011
 20
1047.684
 10
1089.011
 20
1048.906
 10
1089.011
 20
1050.128
 10
1089.011
 20
1051.35
 10
1089.011
 20
1052.571
 10
1089.011
 20
1053.7930000000001
 10
1089.011
 20
1055.015
 10
1089.011
 20
1056.237
 10
1089.011
 20
1057.459
 10
1089.011
 20
1058.681
 10
1089.011
 20
1059.903
 10
1089.011
 20
1061.125
 10
1089.011
 20
1062.347
 10
1089.011
 20
1063.568
 10
1089.011
 20
1064.79
 10
1089.011
 20
1066.012
 10
1089.011
 20
1067.234
 10
1089.011
 20
1068.456
 10
1089.011
 20
1069.6779999999999
 10
1089.011
 20
1070.9
 10
1089.011
 20
1072.122
 10
1089.011
 20
1073.343
 10
1089.011
 20
1074.565
 10
1089.011
 20
1075.787
 10
1089.011
 20
1077.009
 10
1089.011
 20
1078.231
 10
1089.011
 20
1079.453
 10
1089.011
 20
1080.675
 10
1089.011
 20
1081.897
 10
1089.011
 20
1083.119
 10
1089.011
 20
1084.34
 10
1089.011
 20
1085.562
 10
1089.011
 20
1086.784
 10
1089.011
 20
1088.006
 10
1089.011
 20
1089.228
 10
1089.011
 20
1090.45
 10
1089.011
 20
1091.672
 10
1089.011
 20
1092.894
 10
1089.011
 20
1094.116
 10
1089.011
 20
1095.337
 10
1089.011
 20
1096.559
 10
1089.011
 20
1097.781
 10
1089.011
 20
1099.003
 10
1089.011
 20
1100.225
 10
1089.011
 20
1101.447
 10
1089.011
 20
1102.669
 10
1089.011
 20
1103.891
 10
1089.011
 20
1105.112
 10
1089.011
 20
1106.334
 10
1089.011
 20
1107.556
 10
1089.011
 20
1108.778
 10
1089.011
 20
1110.0
 10
1090.261
 20
1110.0
 10
1091.511
 20
1110.0
 10
1092.761
 20
1110.0
 10
1094.011
 20
1110.0
 10
1095.261
 20
1110.0
 10
1096.511
 20
1110.0
 10
1097.761
 20
1110.0
 10
1099.011
 20
1110.0
 10
1100.261
 20
1110.0
 10
1101.511
 20
1110.0
 10
1102.761
 20
1110.0
 10
1104.011
 20
1110.0
 10
1105.261
 20
1110.0
 10
1106.511
 20
1110.0
 10
1107.761
 20
1110.0
 10
1109.011
 20
1110.0
 10
1109.011
 20
1108.778
 10
1109.011
 20
1107.556
 10
1109.011
 20
1106.334
 10
1109.011
 20
1105.112
 10
1109.011
 20
1103.891
 10
1109.011
 20
1102.669
 10
1109.011
 20
1101.447
 10
1109.011
 20
1100.225
 10
1109.011
 20
1099.003
 10
1109.011
 20
1097.781
 10
1109.011
 20
1096.559
 10
1109.011
 20
1095.337
 10
1109.011
 20
1094.116
 10
1109.011
 20
1092.894
 10
1109.011
 20
1091.672
 10
1109.011
 20
1090.45
 10
1109.011
 20
1089.228
 10
1109.011
 20
1088.006
 10
1109.011
 20
1086.784
 10
1109.011
 20
1085.562
 10
1109.011
 20
1084.34
 10
1109.011
 20
1083.119
 10
1109.011
 20
1081.897
 10
1109.011
 20
1080.675
 10
1109.011
 20
1079.453
 10
1109.011
 20
1078.231
 10
1109.011
 20
1077.009
 10
1109.011
 20
1075.787
 10
1109.011
 20
1074.565
 10
1109.011
 20
1073.343
 10
1109.011
 20
1072.122
 10
1109.011
 20
1070.9
 10
1109.011
 20
1069.6779999999999
 10
1109.011
 20
1068.456
 10
1109.011
 20
1067.234
 10
1109.011
 20
1066.012
 10
1109.011
 20
1064.79
 10
1109.011
 20
1063.568
 10
1109.011
 20
1062.347
 10
1109.011
 20
1061.125
 10
1109.011
 20
1059.903
 10
1109.011
 20
1058.681
 10
1109.011
 20
1057.459
 10
1109.011
 20
1056.237
 10
1109.011
 20
1055.015
 10
1109.011
 20
1053.7930000000001
 10
1109.011
 20
1052.571
 10
1109.011
 20
1051.35
 10
1109.011
 20
1050.128
 10
1109.011
 20
1048.906
 10
1109.011
 20
1047.684
 10
1109.011
 20
1046.462
 10
1109.011
 20
1045.24
 10
1109.011
 20
1044.018
 10
1109.011
 20
1042.796
 10
1109.011
 20
1041.574
 10
1109.011
 20
1040.353
 10
1109.011
 20
1039.131
 10
1109.011
 20
1037.909
 10
1109.011
 20
1036.687
 10
1109.011
 20
1035.465
 10
1109.011
 20
1034.243
 10
1109.011
 20
1033.021
 10
1109.011
 20
1031.799
 10
1109.011
 20
1030.578
 10
1109.011
 20
1029.356
 10
1109.011
 20
1028.134
 10
1109.011
 20
1026.912
 10
1109.011
 20
1025.69
 10
1109.011
 20
1024.468
 10
1109.011
 20
1023.246
 10
1109.011
 20
1022.024
 10
1109.011
 20
1020.802
 10
1109.011
 20
1019.581
 10
1109.011
 20
1018.359
 10
1109.011
 20
1017.137
 10
1109.011
 20
1015.915
 10
1109.011
 20
1014.693
 10
1109.011
 20
1013.471
 10
1109.011
 20
1012.249
 10
1109.011
 20
1011.027
 10
1109.011
 20
1009.806
 10
1109.011
 20
1008.5840000000001
 10
1109.011
 20
1007.362
 10
1109.011
 20
1006.14
 10
1109.011
 20
1004.918
 10
1109.011
 20
1003.696
 10
1109.011
 20
1002.474
 10
1109.011
 20
1001.252
 10
1109.011
 20
1000.03
 10
1109.011
 20
998.809
 10
1109.011
 20
997.587
 10
1109.011
 20
996.365
 10
1109.011
 20
995.143
 10
1109.011
 20
993.921
 10
1109.011
 20
992.699
 10
1109.011
 20
991.477
 10
1109.011
 20
990.255
 10
1109.011
 20
989.033
 10
1109.011
 20
987.812
 10
1109.011
 20
986.59
 10
1109.011
 20
985.3679999999999
 10
1109.011
 20
984.146
 10
1109.011
 20
982.924
 10
1109.011
 20
981.702
 10
1109.011
 20
980.48
 10
1109.011
 20
979.258
 10
1109.011
 20
978.037
 10
1109.011
 20
976.815
 10
1109.011
 20
975.593
 10
1109.011
 20
974.371
 10
1109.011
 20
973.149
 10
1109.011
 20
971.927
 10
1109.011
 20
970.705
 10
1109.011
 20
969.483
 10
1109.011
 20
968.261
 10
1109.011
 20
967.04
 10
1109.011
 20
965.818
 10
1109.011
 20
964.596
 10
1109.011
 20
963.374
 10
1109.011
 20
962.152
 10
1109.011
 20
960.9300000000001
 10
1109.011
 20
959.708
 10
1109.011
 20
958.486
 10
1109.011
 20
957.264
 10
1109.011
 20
956.043
 10
1109.011
 20
954.821
 10
1109.011
 20
953.5989999999999
 10
1107.761
 20
953.5989999999999
 10
1106.511
 20
953.5989999999999
 10
1105.261
 20
953.5989999999999
 10
1104.011
 20
953.5989999999999
 10
1102.761
 20
953.5989999999999
 10
1101.511
 20
953.5989999999999
 10
1100.261
 20
953.5989999999999
 10
1099.011
 20
953.5989999999999
 10
1097.761
 20
953.5989999999999
 10
1096.511
 20
953.5989999999999
 10
1095.261
 20
953.5989999999999
 10
1094.011
 20
953.5989999999999
 10
1092.761
 20
953.5989999999999
 10
1091.511
 20
953.5989999999999
 10
1090.261
 20
953.5989999999999
  0
TEXT
  5
9F
330
17
100
AcDbEntity
  8
LABEL
100
AcDbText
 10
1099.011
 20
1031.7995
 30
0.0
 40
10.0
  1
F piece-6
 72
1
 11
1099.011
 21
1031.7995
 31
0.0
100
AcDbText
 73
2
  0
ENDSEC
  0
SECTION
  2
OBJECTS
  0
DICTIONARY
  5
A
330
0
100
AcDbDictionary
281
1
  3
ACAD_COLOR
350
B
  3
ACAD_GROUP
350
C
  3
ACAD_LAYOUT
350
D
  3
ACAD_MATERIAL
350
E
  3
ACAD_MLEADERSTYLE
350
F
  3
ACAD_MLINESTYLE
350
10
  3
ACAD_PLOTSETTINGS
350
11
  3
ACAD_PLOTSTYLENAME
350
12
  3
ACAD_SCALELIST
350
14
  3
ACAD_TABLESTYLE
350
15
  3
ACAD_VISUALSTYLE
350
16
  3
EZDXF_META
350
2D
  0
DICTIONARY
  5
B
330
A
100
AcDbDictionary
281
1
  0
DICTIONARY
  5
C
330
A
100
AcDbDictionary
281
1
  0
DICTIONARY
  5
D
330
A
100
AcDbDictionary
281
1
  3
Model
350
1A
  3
Layout1
350
1E
  0
DICTIONARY
  5
E
330
A
100
AcDbDictionary
281
1
  3
ByBlock
350
1F
  3
ByLayer
350
20
  3
Global
350
21
  0
DICTIONARY
  5
F
330
A
100
AcDbDictionary
281
1
  3
Standard
350
2C
  0
DICTIONARY
  5
10
330
A
100
AcDbDictionary
281
1
  3
Standard
350
22
  0
DICTIONARY
  5
11
330
A
100
AcDbDictionary
281
1
  0
ACDBDICTIONARYWDFLT
  5
12
330
A
100
AcDbDictionary
281
1
  3
Normal
350
13
100
AcDbDictionaryWithDefault
340
13
  0
ACDBPLACEHOLDER
  5
13
330
12
  0
DICTIONARY
  5
14
330
A
100
AcDbDictionary
281
1
  0
DICTIONARY
  5
15
330
A
100
AcDbDictionary
281
1
  0
DICTIONARY
  5
16
330
A
100
AcDbDictionary
281
1
  3
2dWireframe
350
5A
  3
Basic
350
5B
  3
Brighten
350
5C
  3
ColorChange
350
5D
  3
Conceptual
350
5E
  3
Dim
350
5F
  3
EdgeColorOff
350
60
  3
Facepattern
350
61
  3
Flat
350
62
  3
FlatWithEdges
350
63
  3
Gouraud
350
64
  3
GouraudWithEdges
350
65
  3
Hidden
350
66
  3
JitterOff
350
67
  3
Linepattern
350
68
  3
Modeling
350
69
  3
OverhangOff
350
6A
  3
Realistic
350
6B
  3
Shaded
350
6C
  3
Shaded with edges
350
6D
  3
Shades of Gray
350
6E
  3
Sketchy
350
6F
  3
Thicken
350
70
  3
Wireframe
350
71
  3
X-Ray
350
72
  0
LAYOUT
  5
1A
330
D
100
AcDbPlotSettings
  1

  4
A3
  6

 40
7.5
 41
20.0
 42
7.5
 43
20.0
 44
420.0
 45
297.0
 46
0.0
 47
0.0
 48
0.0
 49
0.0
140
0.0
141
0.0
142
1.0
143
1.0
 70
1024
 72
1
 73
0
 74
5
  7

 75
16
 76
0
 77
2
 78
300
147
1.0
148
0.0
149
0.0
100
AcDbLayout
  1
Model
 70
1
 71
0
 10
0.0
 20
0.0
 11
420.0
 21
297.0
 12
0.0
 22
0.0
 32
0.0
 14
1e+20
 24
1e+20
 34
1e+20
 15
-1e+20
 25
-1e+20
 35
-1e+20
146
0.0
 13
0.0
 23
0.0
 33
0.0
 16
1.0
 26
0.0
 36
0.0
 17
0.0
 27
1.0
 37
0.0
 76
1
330
17
  0
LAYOUT
  5
1E
330
D
100
AcDbPlotSettings
  1

  4
A3
  6

 40
7.5
 41
20.0
 42
7.5
 43
20.0
 44
420.0
 45
297.0
 46
0.0
 47
0.0
 48
0.0
 49
0.0
140
0.0
141
0.0
142
1.0
143
1.0
 70
0
 72
1
 73
0
 74
5
  7

 75
16
 76
0
 77
2
 78
300
147
1.0
148
0.0
149
0.0
100
AcDbLayout
  1
Layout1
 70
1
 71
1
 10
0.0
 20
0.0
 11
420.0
 21
297.0
 12
0.0
 22
0.0
 32
0.0
 14
1e+20
 24
1e+20
 34
1e+20
 15
-1e+20
 25
-1e+20
 35
-1e+20
146
0.0
 13
0.0
 23
0.0
 33
0.0
 16
1.0
 26
0.0
 36
0.0
 17
0.0
 27
1.0
 37
0.0
 76
1
330
1B
  0
MATERIAL
  5
1F
102
{ACAD_REACTORS
330
E
102
}
330
E
100
AcDbMaterial
  1
ByBlock
  2

 70
0
 40
1.0
 71
1
 41
1.0
 91
-1023410177
 42
1.0
 72
1
  3

 73
1
 74
1
 75
1
 44
0.5
 73
0
 45
1.0
 46
1.0
 77
1
  4

 78
1
 79
1
170
1
 48
1.0
171
1
  6

172
1
173
1
174
1
140
1.0
141
1.0
175
1
  7

176
1
177
1
178
1
143
1.0
179
1
  8

270
1
271
1
272
1
145
1.0
146
1.0
273
1
  9

274
1
275
1
276
1
 42
1.0
 72
1
  3

 73
1
 74
1
 75
1
 94
63
  0
MATERIAL
  5
20
102
{ACAD_REACTORS
330
E
102
}
330
E
100
AcDbMaterial
  1
ByLayer
  2

 70
0
 40
1.0
 71
1
 41
1.0
 91
-1023410177
 42
1.0
 72
1
  3

 73
1
 74
1
 75
1
 44
0.5
 73
0
 45
1.0
 46
1.0
 77
1
  4

 78
1
 79
1
170
1
 48
1.0
171
1
  6

172
1
173
1
174
1
140
1.0
141
1.0
175
1
  7

176
1
177
1
178
1
143
1.0
179
1
  8

270
1
271
1
272
1
145
1.0
146
1.0
273
1
  9

274
1
275
1
276
1
 42
1.0
 72
1
  3

 73
1
 74
1
 75
1
 94
63
  0
MATERIAL
  5
21
102
{ACAD_REACTORS
330
E
102
}
330
E
100
AcDbMaterial
  1
Global
  2

 70
0
 40
1.0
 71
1
 41
1.0
 91
-1023410177
 42
1.0
 72
1
  3

 73
1
 74
1
 75
1
 44
0.5
 73
0
 45
1.0
 46
1.0
 77
1
  4

 78
1
 79
1
170
1
 48
1.0
171
1
  6

172
1
173
1
174
1
140
1.0
141
1.0
175
1
  7

176
1
177
1
178
1
143
1.0
179
1
  8

270
1
271
1
272
1
145
1.0
146
1.0
273
1
  9

274
1
275
1
276
1
 42
1.0
 72
1
  3

 73
1
 74
1
 75
1
 94
63
  0
MLINESTYLE
  5
22
102
{ACAD_REACTORS
330
10
102
}
330
10
100
AcDbMlineStyle
  2
Standard
 70
0
  3

 62
256
 51
90.0
 52
90.0
 71
2
 49
0.5
 62
256
  6
BYLAYER
 49
-0.5
 62
256
  6
BYLAYER
  0
MLEADERSTYLE
  5
2C
102
{ACAD_REACTORS
330
F
102
}
330
F
100
AcDbMLeaderStyle
179
2
170
2
171
1
172
0
 90
2
 40
0.0
 41
0.0
173
1
 91
-1056964608
 92
-2
290
1
 42
2.0
291
1
 43
8.0
  3
Standard
 44
4.0
300

342
29
174
1
175
1
176
0
178
1
 93
-1056964608
 45
4.0
292
0
297
0
 46
4.0
 94
-1056964608
 47
1.0
 49
1.0
140
1.0
294
1
141
0.0
177
0
142
1.0
295
0
296
0
143
3.75
271
0
272
9
273
9
  0
DICTIONARY
  5
2D
330
A
100
AcDbDictionary
280
1
281
1
  3
CREATED_BY_EZDXF
350
2E
  3
WRITTEN_BY_EZDXF
350
A2
  0
DICTIONARYVAR
  5
2E
330
2D
100
DictionaryVariables
280
0
  1
1.4.4 @ 2026-07-26T20:00:46.930702+00:00
  0
VISUALSTYLE
  5
5A
102
{ACAD_REACTORS
330
16
102
}
330
16
100
AcDbVisualStyle
  2
2dWireframe
 70
4
 90
0
 40
0.6
 62
7
290
0
291
0
  0
VISUALSTYLE
  5
5B
102
{ACAD_REACTORS
330
16
102
}
330
16
100
AcDbVisualStyle
  2
Basic
 70
7
 90
1
 40
0.6
 62
7
290
0
291
1
  0
VISUALSTYLE
  5
5C
102
{ACAD_REACTORS
330
16
102
}
330
16
100
AcDbVisualStyle
  2
Brighten
 70
12
 90
2
 40
0.6
 62
7
290
0
291
1
  0
VISUALSTYLE
  5
5D
102
{ACAD_REACTORS
330
16
102
}
330
16
100
AcDbVisualStyle
  2
ColorChange
 70
16
 90
2
 40
0.6
 62
8
290
0
291
1
  0
VISUALSTYLE
  5
5E
102
{ACAD_REACTORS
330
16
102
}
330
16
100
AcDbVisualStyle
  2
Conceptual
 70
9
 90
3
 40
0.6
 62
7
290
0
291
0
  0
VISUALSTYLE
  5
5F
102
{ACAD_REACTORS
330
16
102
}
330
16
100
AcDbVisualStyle
  2
Dim
 70
11
 90
2
 40
0.6
 62
7
290
0
291
1
  0
VISUALSTYLE
  5
60
102
{ACAD_REACTORS
330
16
102
}
330
16
100
AcDbVisualStyle
  2
EdgeColorOff
 70
22
 90
2
 40
0.6
 62
7
290
0
291
1
  0
VISUALSTYLE
  5
61
102
{ACAD_REACTORS
330
16
102
}
330
16
100
AcDbVisualStyle
  2
Facepattern
 70
15
 90
2
 40
0.6
 62
7
290
0
291
1
  0
VISUALSTYLE
  5
62
102
{ACAD_REACTORS
330
16
102
}
330
16
100
AcDbVisualStyle
  2
Flat
 70
0
 90
2
 40
0.6
 62
7
290
0
291
1
  0
VISUALSTYLE
  5
63
102
{ACAD_REACTORS
330
16
102
}
330
16
100
AcDbVisualStyle
  2
FlatWithEdges
 70
1
 90
2
 40
0.6
 62
7
290
0
291
1
  0
VISUALSTYLE
  5
64
102
{ACAD_REACTORS
330
16
102
}
330
16
100
AcDbVisualStyle
  2
Gouraud
 70
2
 90
2
 40
0.6
 62
7
290
0
291
1
  0
VISUALSTYLE
  5
65
102
{ACAD_REACTORS
330
16
102
}
330
16
100
AcDbVisualStyle
  2
GouraudWithEdges
 70
3
 90
2
 40
0.6
 62
7
290
0
291
1
  0
VISUALSTYLE
  5
66
102
{ACAD_REACTORS
330
16
102
}
330
16
100
AcDbVisualStyle
  2
Hidden
 70
6
 90
1
 40
0.6
 62
7
290
0
291
0
  0
VISUALSTYLE
  5
67
102
{ACAD_REACTORS
330
16
102
}
330
16
100
AcDbVisualStyle
  2
JitterOff
 70
20
 90
2
 40
0.6
 62
7
290
0
291
1
  0
VISUALSTYLE
  5
68
102
{ACAD_REACTORS
330
16
102
}
330
16
100
AcDbVisualStyle
  2
Linepattern
 70
14
 90
2
 40
0.6
 62
7
290
0
291
1
  0
VISUALSTYLE
  5
69
102
{ACAD_REACTORS
330
16
102
}
330
16
100
AcDbVisualStyle
  2
Modeling
 70
10
 90
2
 40
0.6
 62
7
290
0
291
0
  0
VISUALSTYLE
  5
6A
102
{ACAD_REACTORS
330
16
102
}
330
16
100
AcDbVisualStyle
  2
OverhangOff
 70
21
 90
2
 40
0.6
 62
7
290
0
291
1
  0
VISUALSTYLE
  5
6B
102
{ACAD_REACTORS
330
16
102
}
330
16
100
AcDbVisualStyle
  2
Realistic
 70
8
 90
2
 40
0.6
 62
7
290
0
291
0
  0
VISUALSTYLE
  5
6C
102
{ACAD_REACTORS
330
16
102
}
330
16
100
AcDbVisualStyle
  2
Shaded
 70
27
 90
2
 40
0.6
 62
7
290
0
291
0
  0
VISUALSTYLE
  5
6D
102
{ACAD_REACTORS
330
16
102
}
330
16
100
AcDbVisualStyle
  2
Shaded with edges
 70
26
 90
2
 40
0.6
 62
7
290
0
291
0
  0
VISUALSTYLE
  5
6E
102
{ACAD_REACTORS
330
16
102
}
330
16
100
AcDbVisualStyle
  2
Shades of Gray
 70
23
 90
2
 40
0.6
 62
7
290
0
291
0
  0
VISUALSTYLE
  5
6F
102
{ACAD_REACTORS
330
16
102
}
330
16
100
AcDbVisualStyle
  2
Sketchy
 70
24
 90
1
 40
0.6
 62
7
290
0
291
0
  0
VISUALSTYLE
  5
70
102
{ACAD_REACTORS
330
16
102
}
330
16
100
AcDbVisualStyle
  2
Thicken
 70
13
 90
2
 40
0.6
 62
7
290
0
291
1
  0
VISUALSTYLE
  5
71
102
{ACAD_REACTORS
330
16
102
}
330
16
100
AcDbVisualStyle
  2
Wireframe
 70
5
 90
0
 40
0.6
 62
7
290
0
291
0
  0
VISUALSTYLE
  5
72
102
{ACAD_REACTORS
330
16
102
}
330
16
100
AcDbVisualStyle
  2
X-Ray
 70
25
 90
2
 40
0.5
 62
7
290
0
291
0
  0
DICTIONARYVAR
  5
A2
330
2D
100
DictionaryVariables
280
0
  1
1.4.4 @ 2026-07-26T20:00:46.948903+00:00
  0
ENDSEC
  0
EOF
