  0
SECTION
  2
HEADER
  9
$ACADVER
  1
AC1024
  9
$ACADMAINTVER
 70
6
  9
$DWGCODEPAGE
  3
ANSI_1252
  9
$LASTSAVEDBY
  1
ezdxf
  9
$INSBASE
 10
0.0
 20
0.0
 30
0.0
  9
$EXTMIN
 10
1e+20
 20
1e+20
 30
1e+20
  9
$EXTMAX
 10
-1e+20
 20
-1e+20
 30
-1e+20
  9
$LIMMIN
 10
0.0
 20
0.0
  9
$LIMMAX
 10
420.0
 20
297.0
  9
$ORTHOMODE
 70
0
  9
$REGENMODE
 70
1
  9
$FILLMODE
 70
1
  9
$QTEXTMODE
 70
0
  9
$MIRRTEXT
 70
1
  9
$LTSCALE
 40
1.0
  9
$ATTMODE
 70
1
  9
$TEXTSIZE
 40
2.5
  9
$TRACEWID
 40
1.0
  9
$TEXTSTYLE
  7
OpenSans
  9
$CLAYER
  8
0
  9
$CELTYPE
  6
ByLayer
  9
$CECOLOR
 62
256
  9
$CELTSCALE
 40
1.0
  9
$DISPSILH
 70
0
  9
$DIMSCALE
 40
1.0
  9
$DIMASZ
 40
0.175
  9
$DIMEXO
 40
0.125
  9
$DIMDLI
 40
3.75
  9
$DIMRND
 40
0.0
  9
$DIMDLE
 40
0.0
  9
$DIMEXE
 40
0.375
  9
$DIMTP
 40
0.0
  9
$DIMTM
 40
0.0
  9
$DIMTXT
 40
0.25
  9
$DIMCEN
 40
2.5
  9
$DIMTSZ
 40
0.0
  9
$DIMTOL
 70
0
  9
$DIMLIM
 70
0
  9
$DIMTIH
 70
0
  9
$DIMTOH
 70
0
  9
$DIMSE1
 70
0
  9
$DIMSE2
 70
0
  9
$DIMTAD
 70
1
  9
$DIMZIN
 70
12
  9
$DIMBLK
  1
ARCHTICK
  9
$DIMASO
 70
1
  9
$DIMSHO
 70
1
  9
$DIMPOST
  1

  9
$DIMAPOST
  1

  9
$DIMALT
 70
0
  9
$DIMALTD
 70
3
  9
$DIMALTF
 40
0.03937007874
  9
$DIMLFAC
 40
100.0
  9
$DIMTOFL
 70
1
  9
$DIMTVP
 40
0.0
  9
$DIMTIX
 70
0
  9
$DIMSOXD
 70
0
  9
$DIMSAH
 70
0
  9
$DIMBLK1
  1

  9
$DIMBLK2
  1

  9
$DIMSTYLE
  2
EZDXF
  9
$DIMCLRD
 70
0
  9
$DIMCLRE
 70
0
  9
$DIMCLRT
 70
0
  9
$DIMTFAC
 40
0.5
  9
$DIMGAP
 40
0.1
  9
$DIMJUST
 70
0
  9
$DIMSD1
 70
0
  9
$DIMSD2
 70
0
  9
$DIMTOLJ
 70
0
  9
$DIMTZIN
 70
8
  9
$DIMALTZ
 70
0
  9
$DIMALTTZ
 70
0
  9
$DIMUPT
 70
1
  9
$DIMDEC
 70
2
  9
$DIMTDEC
 70
2
  9
$DIMALTU
 70
2
  9
$DIMALTTD
 70
3
  9
$DIMTXSTY
  7
OpenSansCondensed-Light
  9
$DIMAUNIT
 70
0
  9
$DIMADEC
 70
2
  9
$DIMALTRND
 40
0.0
  9
$DIMAZIN
 70
3
  9
$DIMDSEP
 70
46
  9
$DIMATFIT
 70
3
  9
$DIMFRAC
 70
0
  9
$DIMLDRBLK
  1

  9
$DIMLUNIT
 70
2
  9
$DIMLWD
 70
-2
  9
$DIMLWE
 70
-2
  9
$DIMTMOVE
 70
2
  9
$DIMFXL
 40
1.0
  9
$DIMFXLON
 70
0
  9
$DIMJOGANG
 40
0.785398163397
  9
$DIMTFILL
 70
0
  9
$DIMTFILLCLR
 70
0
  9
$DIMARCSYM
 70
0
  9
$DIMLTYPE
  6

  9
$DIMLTEX1
  6

  9
$DIMLTEX2
  6

  9
$DIMTXTDIRECTION
 70
0
  9
$LUNITS
 70
2
  9
$LUPREC
 70
4
  9
$SKETCHINC
 40
1.0
  9
$FILLETRAD
 40
10.0
  9
$AUNITS
 70
0
  9
$AUPREC
 70
2
  9
$MENU
  1
.
  9
$ELEVATION
 40
0.0
  9
$PELEVATION
 40
0.0
  9
$THICKNESS
 40
0.0
  9
$LIMCHECK
 70
0
  9
$CHAMFERA
 40
0.0
  9
$CHAMFERB
 40
0.0
  9
$CHAMFERC
 40
0.0
  9
$CHAMFERD
 40
0.0
  9
$SKPOLY
 70
0
  9
$TDCREATE
 40
2461248.6949074073
  9
$TDUCREATE
 40
2458532.153996898
  9
$TDUPDATE
 40
2461248.6949074073
  9
$TDUUPDATE
 40
2458532.1544311
  9
$TDINDWG
 40
0.0
  9
$TDUSRTIMER
 40
0.0
  9
$USRTIMER
 70
1
  9
$ANGBASE
 50
0.0
  9
$ANGDIR
 70
0
  9
$PDMODE
 70
0
  9
$PDSIZE
 40
0.0
  9
$PLINEWID
 40
0.0
  9
$SPLFRAME
 70
0
  9
$SPLINETYPE
 70
6
  9
$SPLINESEGS
 70
8
  9
$HANDSEED
  5
A6
  9
$SURFTAB1
 70
6
  9
$SURFTAB2
 70
6
  9
$SURFTYPE
 70
6
  9
$SURFU
 70
6
  9
$SURFV
 70
6
  9
$UCSBASE
  2

  9
$UCSNAME
  2

  9
$UCSORG
 10
0.0
 20
0.0
 30
0.0
  9
$UCSXDIR
 10
1.0
 20
0.0
 30
0.0
  9
$UCSYDIR
 10
0.0
 20
1.0
 30
0.0
  9
$UCSORTHOREF
  2

  9
$UCSORTHOVIEW
 70
0
  9
$UCSORGTOP
 10
0.0
 20
0.0
 30
0.0
  9
$UCSORGBOTTOM
 10
0.0
 20
0.0
 30
0.0
  9
$UCSORGLEFT
 10
0.0
 20
0.0
 30
0.0
  9
$UCSORGRIGHT
 10
0.0
 20
0.0
 30
0.0
  9
$UCSORGFRONT
 10
0.0
 20
0.0
 30
0.0
  9
$UCSORGBACK
 10
0.0
 20
0.0
 30
0.0
  9
$PUCSBASE
  2

  9
$PUCSNAME
  2

  9
$PUCSORG
 10
0.0
 20
0.0
 30
0.0
  9
$PUCSXDIR
 10
1.0
 20
0.0
 30
0.0
  9
$PUCSYDIR
 10
0.0
 20
1.0
 30
0.0
  9
$PUCSORTHOREF
  2

  9
$PUCSORTHOVIEW
 70
0
  9
$PUCSORGTOP
 10
0.0
 20
0.0
 30
0.0
  9
$PUCSORGBOTTOM
 10
0.0
 20
0.0
 30
0.0
  9
$PUCSORGLEFT
 10
0.0
 20
0.0
 30
0.0
  9
$PUCSORGRIGHT
 10
0.0
 20
0.0
 30
0.0
  9
$PUCSORGFRONT
 10
0.0
 20
0.0
 30
0.0
  9
$PUCSORGBACK
 10
0.0
 20
0.0
 30
0.0
  9
$USERI1
 70
0
  9
$USERI2
 70
0
  9
$USERI3
 70
0
  9
$USERI4
 70
0
  9
$USERI5
 70
0
  9
$USERR1
 40
0.0
  9
$USERR2
 40
0.0
  9
$USERR3
 40
0.0
  9
$USERR4
 40
0.0
  9
$USERR5
 40
0.0
  9
$WORLDVIEW
 70
1
  9
$SHADEDGE
 70
3
  9
$SHADEDIF
 70
70
  9
$TILEMODE
 70
1
  9
$MAXACTVP
 70
64
  9
$PINSBASE
 10
0.0
 20
0.0
 30
0.0
  9
$PLIMCHECK
 70
0
  9
$PEXTMIN
 10
1e+20
 20
1e+20
 30
1e+20
  9
$PEXTMAX
 10
-1e+20
 20
-1e+20
 30
-1e+20
  9
$PLIMMIN
 10
0.0
 20
0.0
  9
$PLIMMAX
 10
420.0
 20
297.0
  9
$UNITMODE
 70
0
  9
$VISRETAIN
 70
1
  9
$PLINEGEN
 70
0
  9
$PSLTSCALE
 70
1
  9
$TREEDEPTH
 70
3020
  9
$CMLSTYLE
  2
Standard
  9
$CMLJUST
 70
0
  9
$CMLSCALE
 40
20.0
  9
$PROXYGRAPHICS
 70
1
  9
$MEASUREMENT
 70
1
  9
$CELWEIGHT
370
-1
  9
$ENDCAPS
280
0
  9
$JOINSTYLE
280
0
  9
$LWDISPLAY
290
0
  9
$INSUNITS
 70
4
  9
$HYPERLINKBASE
  1

  9
$STYLESHEET
  1

  9
$XEDIT
290
1
  9
$CEPSNTYPE
380
0
  9
$PSTYLEMODE
290
1
  9
$FINGERPRINTGUID
  2
{609519BF-EC91-4A1B-904D-580B6E6E6CBE}
  9
$VERSIONGUID
  2
{E08EF43F-A9B6-4848-85EA-2926CF2B1C1F}
  9
$EXTNAMES
290
1
  9
$PSVPSCALE
 40
0.0
  9
$OLESTARTUP
290
0
  9
$SORTENTS
280
127
  9
$INDEXCTL
280
0
  9
$HIDETEXT
280
1
  9
$XCLIPFRAME
280
1
  9
$HALOGAP
280
0
  9
$OBSCOLOR
 70
257
  9
$OBSLTYPE
280
0
  9
$INTERSECTIONDISPLAY
280
0
  9
$INTERSECTIONCOLOR
 70
257
  9
$DIMASSOC
280
2
  9
$PROJECTNAME
  1

  9
$CAMERADISPLAY
290
0
  9
$LENSLENGTH
 40
50.0
  9
$CAMERAHEIGHT
 40
0.0
  9
$STEPSPERSEC
 40
24.0
  9
$STEPSIZE
 40
100.0
  9
$3DDWFPREC
 40
2.0
  9
$PSOLWIDTH
 40
0.005
  9
$PSOLHEIGHT
 40
0.08
  9
$LOFTANG1
 40
1.570796326795
  9
$LOFTANG2
 40
1.570796326795
  9
$LOFTMAG1
 40
0.0
  9
$LOFTMAG2
 40
0.0
  9
$LOFTPARAM
 70
7
  9
$LOFTNORMALS
280
1
  9
$LATITUDE
 40
37.795
  9
$LONGITUDE
 40
-122.394
  9
$NORTHDIRECTION
 40
0.0
  9
$TIMEZONE
 70
-8000
  9
$LIGHTGLYPHDISPLAY
280
1
  9
$TILEMODELIGHTSYNCH
280
1
  9
$CMATERIAL
347
20
  9
$SOLIDHIST
280
0
  9
$SHOWHIST
280
1
  9
$DWFFRAME
280
2
  9
$DGNFRAME
280
2
  9
$REALWORLDSCALE
290
1
  9
$INTERFERECOLOR
 62
256
  9
$CSHADOW
280
0
  9
$SHADOWPLANELOCATION
 40
0.0
  0
ENDSEC
  0
SECTION
  2
CLASSES
  0
CLASS
  1
ACDBDICTIONARYWDFLT
  2
AcDbDictionaryWithDefault
  3
ObjectDBX Classes
 90
0
 91
0
280
0
281
0
  0
CLASS
  1
SUN
  2
AcDbSun
  3
SCENEOE
 90
1153
 91
0
280
0
281
0
  0
CLASS
  1
VISUALSTYLE
  2
AcDbVisualStyle
  3
ObjectDBX Classes
 90
4095
 91
0
280
0
281
0
  0
CLASS
  1
MATERIAL
  2
AcDbMaterial
  3
ObjectDBX Classes
 90
1153
 91
0
280
0
281
0
  0
CLASS
  1
SCALE
  2
AcDbScale
  3
ObjectDBX Classes
 90
1153
 91
0
280
0
281
0
  0
CLASS
  1
TABLESTYLE
  2
AcDbTableStyle
  3
ObjectDBX Classes
 90
4095
 91
0
280
0
281
0
  0
CLASS
  1
MLEADERSTYLE
  2
AcDbMLeaderStyle
  3
ACDB_MLEADERSTYLE_CLASS
 90
4095
 91
0
280
0
281
0
  0
CLASS
  1
DICTIONARYVAR
  2
AcDbDictionaryVar
  3
ObjectDBX Classes
 90
0
 91
0
280
0
281
0
  0
CLASS
  1
CELLSTYLEMAP
  2
AcDbCellStyleMap
  3
ObjectDBX Classes
 90
1152
 91
0
280
0
281
0
  0
CLASS
  1
MENTALRAYRENDERSETTINGS
  2
AcDbMentalRayRenderSettings
  3
SCENEOE
 90
1024
 91
0
280
0
281
0
  0
CLASS
  1
ACDBDETAILVIEWSTYLE
  2
AcDbDetailViewStyle
  3
ObjectDBX Classes
 90
1025
 91
0
280
0
281
0
  0
CLASS
  1
ACDBSECTIONVIEWSTYLE
  2
AcDbSectionViewStyle
  3
ObjectDBX Classes
 90
1025
 91
0
280
0
281
0
  0
CLASS
  1
RASTERVARIABLES
  2
AcDbRasterVariables
  3
ISM
 90
0
 91
0
280
0
281
0
  0
CLASS
  1
LAYOUT
  2
AcDbLayout
  3
ObjectDBX Classes
 90
0
 91
0
280
0
281
0
  0
CLASS
  1
ACDBPLACEHOLDER
  2
AcDbPlaceHolder
  3
ObjectDBX Classes
 90
0
 91
0
280
0
281
0
  0
ENDSEC
  0
SECTION
  2
TABLES
  0
TABLE
  2
VPORT
  5
8
330
0
100
AcDbSymbolTable
 70
1
  0
VPORT
  5
23
330
8
100
AcDbSymbolTableRecord
100
AcDbViewportTableRecord
  2
*Active
 70
0
 10
0.0
 20
0.0
 11
1.0
 21
1.0
 12
0.0
 22
0.0
 13
0.0
 23
0.0
 14
0.5
 24
0.5
 15
0.5
 25
0.5
 16
0.0
 26
0.0
 36
1.0
 17
0.0
 27
0.0
 37
0.0
 40
1000.0
 41
1.34
 42
50.0
 43
0.0
 44
0.0
 50
0.0
 51
0.0
 71
0
 72
1000
 73
1
 74
3
 75
0
 76
0
 77
0
 78
0
281
0
 65
0
146
0.0
  0
ENDTAB
  0
TABLE
  2
LTYPE
  5
2
330
0
100
AcDbSymbolTable
 70
21
  0
LTYPE
  5
24
330
2
100
AcDbSymbolTableRecord
100
AcDbLinetypeTableRecord
  2
ByBlock
 70
0
  3

 72
65
 73
0
 40
0.0
  0
LTYPE
  5
25
330
2
100
AcDbSymbolTableRecord
100
AcDbLinetypeTableRecord
  2
ByLayer
 70
0
  3

 72
65
 73
0
 40
0.0
  0
LTYPE
  5
26
330
2
100
AcDbSymbolTableRecord
100
AcDbLinetypeTableRecord
  2
Continuous
 70
0
  3

 72
65
 73
0
 40
0.0
  0
LTYPE
  5
2F
330
2
100
AcDbSymbolTableRecord
100
AcDbLinetypeTableRecord
  2
CENTER
 70
0
  3
Center ____ _ ____ _ ____ _ ____ _ ____ _ ____
 72
65
 73
4
 40
5.08
 49
3.175
 74
0
 49
-0.635
 74
0
 49
0.635
 74
0
 49
-0.635
 74
0
  0
LTYPE
  5
30
330
2
100
AcDbSymbolTableRecord
100
AcDbLinetypeTableRecord
  2
CENTERX2
 70
0
  3
Center (2x) ________  __  ________  __  ________
 72
65
 73
4
 40
8.89
 49
6.35
 74
0
 49
-0.635
 74
0
 49
1.27
 74
0
 49
-0.635
 74
0
  0
LTYPE
  5
31
330
2
100
AcDbSymbolTableRecord
100
AcDbLinetypeTableRecord
  2
CENTER2
 70
0
  3
Center (.5x) ____ _ ____ _ ____ _ ____ _ ____
 72
65
 73
4
 40
2.54
 49
1.587
 74
0
 49
-0.318
 74
0
 49
0.318
 74
0
 49
-0.318
 74
0
  0
LTYPE
  5
32
330
2
100
AcDbSymbolTableRecord
100
AcDbLinetypeTableRecord
  2
DASHED
 70
0
  3
Dashed __ __ __ __ __ __ __ __ __ __ __ __ __ _
 72
65
 73
2
 40
1.524
 49
1.27
 74
0
 49
-0.254
 74
0
  0
LTYPE
  5
33
330
2
100
AcDbSymbolTableRecord
100
AcDbLinetypeTableRecord
  2
DASHEDX2
 70
0
  3
Dashed (2x) ____  ____  ____  ____  ____  ____
 72
65
 73
2
 40
3.048
 49
2.54
 74
0
 49
-0.508
 74
0
  0
LTYPE
  5
34
330
2
100
AcDbSymbolTableRecord
100
AcDbLinetypeTableRecord
  2
DASHED2
 70
0
  3
Dashed (.5x) _ _ _ _ _ _ _ _ _ _ _ _ _ _
 72
65
 73
2
 40
0.762
 49
0.635
 74
0
 49
-0.127
 74
0
  0
LTYPE
  5
35
330
2
100
AcDbSymbolTableRecord
100
AcDbLinetypeTableRecord
  2
PHANTOM
 70
0
  3
Phantom ______  __  __  ______  __  __  ______
 72
65
 73
6
 40
6.35
 49
3.175
 74
0
 49
-0.635
 74
0
 49
0.635
 74
0
 49
-0.635
 74
0
 49
0.635
 74
0
 49
-0.635
 74
0
  0
LTYPE
  5
36
330
2
100
AcDbSymbolTableRecord
100
AcDbLinetypeTableRecord
  2
PHANTOMX2
 70
0
  3
Phantom (2x)____________    ____    ____    ____________
 72
65
 73
6
 40
10.795
 49
6.35
 74
0
 49
-0.635
 74
0
 49
1.27
 74
0
 49
-0.635
 74
0
 49
1.27
 74
0
 49
-0.635
 74
0
  0
LTYPE
  5
37
330
2
100
AcDbSymbolTableRecord
100
AcDbLinetypeTableRecord
  2
PHANTOM2
 70
0
  3
Phantom (.5x) ___ _ _ ___ _ _ ___ _ _ ___ _ _ ___
 72
65
 73
6
 40
3.175
 49
1.587
 74
0
 49
-0.318
 74
0
 49
0.318
 74
0
 49
-0.318
 74
0
 49
0.318
 74
0
 49
-0.318
 74
0
  0
LTYPE
  5
38
330
2
100
AcDbSymbolTableRecord
100
AcDbLinetypeTableRecord
  2
DASHDOT
 70
0
  3
Dash dot __ . __ . __ . __ . __ . __ . __ . __
 72
65
 73
4
 40
3.556
 49
2.54
 74
0
 49
-0.508
 74
0
 49
0.0
 74
0
 49
-0.508
 74
0
  0
LTYPE
  5
39
330
2
100
AcDbSymbolTableRecord
100
AcDbLinetypeTableRecord
  2
DASHDOTX2
 70
0
  3
Dash dot (2x) ____  .  ____  .  ____  .  ____
 72
65
 73
4
 40
6.096
 49
5.08
 74
0
 49
-0.508
 74
0
 49
0.0
 74
0
 49
-0.508
 74
0
  0
LTYPE
  5
3A
330
2
100
AcDbSymbolTableRecord
100
AcDbLinetypeTableRecord
  2
DASHDOT2
 70
0
  3
Dash dot (.5x) _ . _ . _ . _ . _ . _ . _ . _
 72
65
 73
4
 40
1.778
 49
1.27
 74
0
 49
-0.254
 74
0
 49
0.0
 74
0
 49
-0.254
 74
0
  0
LTYPE
  5
3B
330
2
100
AcDbSymbolTableRecord
100
AcDbLinetypeTableRecord
  2
DOT
 70
0
  3
Dot .  .  .  .  .  .  .  .  .  .  .  .  .  .  .  .
 72
65
 73
2
 40
0.508
 49
0.0
 74
0
 49
-0.508
 74
0
  0
LTYPE
  5
3C
330
2
100
AcDbSymbolTableRecord
100
AcDbLinetypeTableRecord
  2
DOTX2
 70
0
  3
Dot (2x) .    .    .    .    .    .    .    . 
 72
65
 73
2
 40
1.016
 49
0.0
 74
0
 49
-1.016
 74
0
  0
LTYPE
  5
3D
330
2
100
AcDbSymbolTableRecord
100
AcDbLinetypeTableRecord
  2
DOT2
 70
0
  3
Dot (.5) . . . . . . . . . . . . . . . . . . . 
 72
65
 73
2
 40
0.254
 49
0.0
 74
0
 49
-0.254
 74
0
  0
LTYPE
  5
3E
330
2
100
AcDbSymbolTableRecord
100
AcDbLinetypeTableRecord
  2
DIVIDE
 70
0
  3
Divide __ . . __ . . __ . . __ . . __ . . __
 72
65
 73
6
 40
4.064
 49
2.54
 74
0
 49
-0.508
 74
0
 49
0.0
 74
0
 49
-0.508
 74
0
 49
0.0
 74
0
 49
-0.508
 74
0
  0
LTYPE
  5
3F
330
2
100
AcDbSymbolTableRecord
100
AcDbLinetypeTableRecord
  2
DIVIDEX2
 70
0
  3
Divide (2x) ____  . .  ____  . .  ____  . .  ____
 72
65
 73
6
 40
6.604
 49
5.08
 74
0
 49
-0.508
 74
0
 49
0.0
 74
0
 49
-0.508
 74
0
 49
0.0
 74
0
 49
-0.508
 74
0
  0
LTYPE
  5
40
330
2
100
AcDbSymbolTableRecord
100
AcDbLinetypeTableRecord
  2
DIVIDE2
 70
0
  3
Divide(.5x) _ . _ . _ . _ . _ . _ . _ . _
 72
65
 73
6
 40
2.032
 49
1.27
 74
0
 49
-0.254
 74
0
 49
0.0
 74
0
 49
-0.254
 74
0
 49
0.0
 74
0
 49
-0.254
 74
0
  0
ENDTAB
  0
TABLE
  2
LAYER
  5
1
330
0
100
AcDbSymbolTable
 70
5
  0
LAYER
  5
27
330
1
100
AcDbSymbolTableRecord
100
AcDbLayerTableRecord
  2
0
 70
0
 62
7
  6
Continuous
370
-3
390
13
347
21
  0
LAYER
  5
28
330
1
100
AcDbSymbolTableRecord
100
AcDbLayerTableRecord
  2
Defpoints
 70
0
 62
7
  6
Continuous
290
0
370
-3
390
13
347
21
  0
LAYER
  5
8A
330
1
100
AcDbSymbolTableRecord
100
AcDbLayerTableRecord
  2
CUT
 70
0
 62
7
  6
Continuous
370
-3
390
13
347
21
  0
LAYER
  5
8B
330
1
100
AcDbSymbolTableRecord
100
AcDbLayerTableRecord
  2
STITCH
 70
0
 62
1
  6
DASHED
370
-3
390
13
347
21
  0
LAYER
  5
8C
330
1
100
AcDbSymbolTableRecord
100
AcDbLayerTableRecord
  2
LABEL
 70
0
 62
3
  6
Continuous
370
-3
390
13
347
21
  0
ENDTAB
  0
TABLE
  2
STYLE
  5
5
330
0
100
AcDbSymbolTable
 70
26
  0
STYLE
  5
29
330
5
100
AcDbSymbolTableRecord
100
AcDbTextStyleTableRecord
  2
Standard
 70
0
 40
0.0
 41
1.0
 50
0.0
 71
0
 42
2.5
  3
txt
  4

  0
STYLE
  5
41
330
5
100
AcDbSymbolTableRecord
100
AcDbTextStyleTableRecord
  2
OpenSans-Light
 70
0
 40
0.0
 41
1.0
 50
0.0
 71
0
 42
2.5
  3
OpenSans-Light.ttf
  4

  0
STYLE
  5
42
330
5
100
AcDbSymbolTableRecord
100
AcDbTextStyleTableRecord
  2
OpenSans-Light-Italic
 70
0
 40
0.0
 41
1.0
 50
0.0
 71
0
 42
2.5
  3
OpenSans-LightItalic.ttf
  4

  0
STYLE
  5
43
330
5
100
AcDbSymbolTableRecord
100
AcDbTextStyleTableRecord
  2
OpenSans
 70
0
 40
0.0
 41
1.0
 50
0.0
 71
0
 42
2.5
  3
OpenSans-Regular.ttf
  4

  0
STYLE
  5
44
330
5
100
AcDbSymbolTableRecord
100
AcDbTextStyleTableRecord
  2
OpenSans-Italic
 70
0
 40
0.0
 41
1.0
 50
0.0
 71
0
 42
2.5
  3
OpenSans-Italic.ttf
  4

  0
STYLE
  5
45
330
5
100
AcDbSymbolTableRecord
100
AcDbTextStyleTableRecord
  2
OpenSans-SemiBold
 70
0
 40
0.0
 41
1.0
 50
0.0
 71
0
 42
2.5
  3
OpenSans-SemiBold.ttf
  4

  0
STYLE
  5
46
330
5
100
AcDbSymbolTableRecord
100
AcDbTextStyleTableRecord
  2
OpenSans-SemiBoldItalic
 70
0
 40
0.0
 41
1.0
 50
0.0
 71
0
 42
2.5
  3
OpenSans-SemiBoldItalic.ttf
  4

  0
STYLE
  5
47
330
5
100
AcDbSymbolTableRecord
100
AcDbTextStyleTableRecord
  2
OpenSans-Bold
 70
0
 40
0.0
 41
1.0
 50
0.0
 71
0
 42
2.5
  3
OpenSans-Bold.ttf
  4

  0
STYLE
  5
48
330
5
100
AcDbSymbolTableRecord
100
AcDbTextStyleTableRecord
  2
OpenSans-BoldItalic
 70
0
 40
0.0
 41
1.0
 50
0.0
 71
0
 42
2.5
  3
OpenSans-BoldItalic.ttf
  4

  0
STYLE
  5
49
330
5
100
AcDbSymbolTableRecord
100
AcDbTextStyleTableRecord
  2
OpenSans-ExtraBold
 70
0
 40
0.0
 41
1.0
 50
0.0
 71
0
 42
2.5
  3
OpenSans-ExtraBold.ttf
  4

  0
STYLE
  5
4A
330
5
100
AcDbSymbolTableRecord
100
AcDbTextStyleTableRecord
  2
OpenSans-ExtraBoldItalic
 70
0
 40
0.0
 41
1.0
 50
0.0
 71
0
 42
2.5
  3
OpenSans-ExtraBoldItalic.ttf
  4

  0
STYLE
  5
4B
330
5
100
AcDbSymbolTableRecord
100
AcDbTextStyleTableRecord
  2
OpenSansCondensed-Bold
 70
0
 40
0.0
 41
1.0
 50
0.0
 71
0
 42
2.5
  3
OpenSansCondensed-Bold.ttf
  4

  0
STYLE
  5
4C
330
5
100
AcDbSymbolTableRecord
100
AcDbTextStyleTableRecord
  2
OpenSansCondensed-Light
 70
0
 40
0.0
 41
1.0
 50
0.0
 71
0
 42
2.5
  3
OpenSansCondensed-Light.ttf
  4

  0
STYLE
  5
4D
330
5
100
AcDbSymbolTableRecord
100
AcDbTextStyleTableRecord
  2
OpenSansCondensed-Italic
 70
0
 40
0.0
 41
1.0
 50
0.0
 71
0
 42
2.5
  3
OpenSansCondensed-LightItalic.ttf
  4

  0
STYLE
  5
4E
330
5
100
AcDbSymbolTableRecord
100
AcDbTextStyleTableRecord
  2
LiberationSans
 70
0
 40
0.0
 41
1.0
 50
0.0
 71
0
 42
2.5
  3
LiberationSans-Regular.ttf
  4

  0
STYLE
  5
4F
330
5
100
AcDbSymbolTableRecord
100
AcDbTextStyleTableRecord
  2
LiberationSans-Bold
 70
0
 40
0.0
 41
1.0
 50
0.0
 71
0
 42
2.5
  3
LiberationSans-Bold.ttf
  4

  0
STYLE
  5
50
330
5
100
AcDbSymbolTableRecord
100
AcDbTextStyleTableRecord
  2
LiberationSans-BoldItalic
 70
0
 40
0.0
 41
1.0
 50
0.0
 71
0
 42
2.5
  3
LiberationSans-BoldItalic.ttf
  4

  0
STYLE
  5
51
330
5
100
AcDbSymbolTableRecord
100
AcDbTextStyleTableRecord
  2
LiberationSans-Italic
 70
0
 40
0.0
 41
1.0
 50
0.0
 71
0
 42
2.5
  3
LiberationSans-Italic.ttf
  4

  0
STYLE
  5
52
330
5
100
AcDbSymbolTableRecord
100
AcDbTextStyleTableRecord
  2
LiberationSerif
 70
0
 40
0.0
 41
1.0
 50
0.0
 71
0
 42
2.5
  3
LiberationSerif-Regular.ttf
  4

  0
STYLE
  5
53
330
5
100
AcDbSymbolTableRecord
100
AcDbTextStyleTableRecord
  2
LiberationSerif-Bold
 70
0
 40
0.0
 41
1.0
 50
0.0
 71
0
 42
2.5
  3
LiberationSerif-Bold.ttf
  4

  0
STYLE
  5
54
330
5
100
AcDbSymbolTableRecord
100
AcDbTextStyleTableRecord
  2
LiberationSerif-BoldItalic
 70
0
 40
0.0
 41
1.0
 50
0.0
 71
0
 42
2.5
  3
LiberationSerif-BoldItalic.ttf
  4

  0
STYLE
  5
55
330
5
100
AcDbSymbolTableRecord
100
AcDbTextStyleTableRecord
  2
LiberationSerif-Italic
 70
0
 40
0.0
 41
1.0
 50
0.0
 71
0
 42
2.5
  3
LiberationSerif-Italic.ttf
  4

  0
STYLE
  5
56
330
5
100
AcDbSymbolTableRecord
100
AcDbTextStyleTableRecord
  2
LiberationMono
 70
0
 40
0.0
 41
1.0
 50
0.0
 71
0
 42
2.5
  3
LiberationMono-Regular.ttf
  4

  0
STYLE
  5
57
330
5
100
AcDbSymbolTableRecord
100
AcDbTextStyleTableRecord
  2
LiberationMono-Bold
 70
0
 40
0.0
 41
1.0
 50
0.0
 71
0
 42
2.5
  3
LiberationMono-Bold.ttf
  4

  0
STYLE
  5
58
330
5
100
AcDbSymbolTableRecord
100
AcDbTextStyleTableRecord
  2
LiberationMono-BoldItalic
 70
0
 40
0.0
 41
1.0
 50
0.0
 71
0
 42
2.5
  3
LiberationMono-BoldItalic.ttf
  4

  0
STYLE
  5
59
330
5
100
AcDbSymbolTableRecord
100
AcDbTextStyleTableRecord
  2
LiberationMono-Italic
 70
0
 40
0.0
 41
1.0
 50
0.0
 71
0
 42
2.5
  3
LiberationMono-Italic.ttf
  4

  0
ENDTAB
  0
TABLE
  2
VIEW
  5
7
330
0
100
AcDbSymbolTable
 70
0
  0
ENDTAB
  0
TABLE
  2
UCS
  5
6
330
0
100
AcDbSymbolTable
 70
0
  0
ENDTAB
  0
TABLE
  2
APPID
  5
3
330
0
100
AcDbSymbolTable
 70
3
  0
APPID
  5
2A
330
3
100
AcDbSymbolTableRecord
100
AcDbRegAppTableRecord
  2
ACAD
 70
0
  0
APPID
  5
A3
330
3
100
AcDbSymbolTableRecord
100
AcDbRegAppTableRecord
  2
HATCHBACKGROUNDCOLOR
 70
0
  0
APPID
  5
A4
330
3
100
AcDbSymbolTableRecord
100
AcDbRegAppTableRecord
  2
EZDXF
 70
0
  0
ENDTAB
  0
TABLE
  2
DIMSTYLE
  5
4
330
0
100
AcDbSymbolTable
 70
12
100
AcDbDimStyleTable
  0
DIMSTYLE
105
2B
330
4
100
AcDbSymbolTableRecord
100
AcDbDimStyleTableRecord
  2
Standard
 70
0
 40
1.0
 41
2.5
 42
0.625
 43
3.75
 44
1.25
 45
0.0
 46
0.0
 47
0.0
 48
0.0
 49
2.5
140
2.5
141
2.5
142
0.0
143
0.03937007874
144
1.0
145
0.0
146
1.0
147
0.625
148
0.0
 69
0
 70
0
 71
0
 72
0
 73
0
 74
0
 75
0
 76
0
 77
1
 78
8
 79
3
170
0
171
3
172
1
173
0
174
0
175
0
176
0
177
0
178
0
179
2
271
2
272
2
273
2
274
3
275
0
276
0
277
2
278
44
279
0
280
0
281
0
282
0
283
0
284
8
285
0
286
0
288
0
289
3
290
0
371
-2
372
-2
  0
DIMSTYLE
105
73
330
4
100
AcDbSymbolTableRecord
100
AcDbDimStyleTableRecord
  2
EZDXF
 70
0
 40
1.0
 41
0.175
 42
0.125
 43
3.75
 44
0.375
 45
0.0
 46
0.0
 47
0.0
 48
0.0
 49
2.5
140
0.25
141
2.5
142
0.0
143
0.03937007874
144
100.0
145
0.0
146
0.5
147
0.1
148
0.0
 69
0
 70
0
 71
0
 72
0
 73
0
 74
0
 75
0
 76
0
 77
1
 78
12
 79
3
170
0
171
3
172
1
173
0
174
0
175
0
176
0
177
0
178
0
179
2
271
2
272
2
273
2
274
3
275
0
276
0
277
2
278
46
279
2
280
0
281
0
282
0
283
0
284
8
285
0
286
0
288
1
289
3
290
0
340
4C
342
74
371
-2
372
-2
  0
DIMSTYLE
105
7C
330
4
100
AcDbSymbolTableRecord
100
AcDbDimStyleTableRecord
  2
EZ_M_100_H25_CM
 70
0
 40
1.0
 41
0.25
 42
0.125
 43
3.75
 44
0.375
 45
0.0
 46
0.0
 47
0.0
 48
0.0
 49
2.5
140
0.25
141
2.5
142
0.125
143
0.03937007874
144
100.0
145
0.0
146
0.5
147
0.1
148
0.0
 69
0
 70
0
 71
0
 72
0
 73
0
 74
0
 75
0
 76
0
 77
1
 78
12
 79
3
170
0
171
3
172
1
173
0
174
0
175
0
176
0
177
0
178
0
179
2
271
2
272
2
273
2
274
3
275
0
276
0
277
2
278
46
279
2
280
0
281
0
282
0
283
0
284
8
285
0
286
0
288
1
289
3
290
0
340
4C
371
-2
372
-2
  0
DIMSTYLE
105
7D
330
4
100
AcDbSymbolTableRecord
100
AcDbDimStyleTableRecord
  2
EZ_M_50_H25_CM
 70
0
 40
1.0
 41
0.125
 42
0.0625
 43
3.75
 44
0.1875
 45
0.0
 46
0.0
 47
0.0
 48
0.0
 49
2.5
140
0.125
141
2.5
142
0.0625
143
0.03937007874
144
100.0
145
0.0
146
0.5
147
0.05
148
0.0
 69
0
 70
0
 71
0
 72
0
 73
0
 74
0
 75
0
 76
0
 77
1
 78
12
 79
3
170
0
171
3
172
1
173
0
174
0
175
0
176
0
177
0
178
0
179
2
271
2
272
2
273
2
274
3
275
0
276
0
277
2
278
46
279
2
280
0
281
0
282
0
283
0
284
8
285
0
286
0
288
1
289
3
290
0
340
4C
371
-2
372
-2
  0
DIMSTYLE
105
7E
330
4
100
AcDbSymbolTableRecord
100
AcDbDimStyleTableRecord
  2
EZ_M_25_H25_CM
 70
0
 40
1.0
 41
0.0625
 42
0.03125
 43
3.75
 44
0.09375
 45
0.0
 46
0.0
 47
0.0
 48
0.0
 49
2.5
140
0.0625
141
2.5
142
0.03125
143
0.03937007874
144
100.0
145
0.0
146
0.5
147
0.025
148
0.0
 69
0
 70
0
 71
0
 72
0
 73
0
 74
0
 75
0
 76
0
 77
1
 78
12
 79
3
170
0
171
3
172
1
173
0
174
0
175
0
176
0
177
0
178
0
179
2
271
2
272
2
273
2
274
3
275
0
276
0
277
2
278
46
279
2
280
0
281
0
282
0
283
0
284
8
285
0
286
0
288
1
289
3
290
0
340
4C
371
-2
372
-2
  0
DIMSTYLE
105
7F
330
4
100
AcDbSymbolTableRecord
100
AcDbDimStyleTableRecord
  2
EZ_M_20_H25_CM
 70
0
 40
1.0
 41
0.05
 42
0.025
 43
3.75
 44
0.07500000000000001
 45
0.0
 46
0.0
 47
0.0
 48
0.0
 49
2.5
140
0.05
141
2.5
142
0.025
143
0.03937007874
144
100.0
145
0.0
146
0.5
147
0.020000000000000004
148
0.0
 69
0
 70
0
 71
0
 72
0
 73
0
 74
0
 75
0
 76
0
 77
1
 78
12
 79
3
170
0
171
3
172
1
173
0
174
0
175
0
176
0
177
0
178
0
179
2
271
2
272
2
273
2
274
3
275
0
276
0
277
2
278
46
279
2
280
0
281
0
282
0
283
0
284
8
285
0
286
0
288
1
289
3
290
0
340
4C
371
-2
372
-2
  0
DIMSTYLE
105
80
330
4
100
AcDbSymbolTableRecord
100
AcDbDimStyleTableRecord
  2
EZ_M_10_H25_CM
 70
0
 40
1.0
 41
0.025
 42
0.0125
 43
3.75
 44
0.037500000000000006
 45
0.0
 46
0.0
 47
0.0
 48
0.0
 49
2.5
140
0.025
141
2.5
142
0.0125
143
0.03937007874
144
100.0
145
0.0
146
0.5
147
0.010000000000000002
148
0.0
 69
0
 70
0
 71
0
 72
0
 73
0
 74
0
 75
0
 76
0
 77
1
 78
12
 79
3
170
0
171
3
172
1
173
0
174
0
175
0
176
0
177
0
178
0
179
2
271
2
272
2
273
2
274
3
275
0
276
0
277
2
278
46
279
2
280
0
281
0
282
0
283
0
284
8
285
0
286
0
288
1
289
3
290
0
340
4C
371
-2
372
-2
  0
DIMSTYLE
105
81
330
4
100
AcDbSymbolTableRecord
100
AcDbDimStyleTableRecord
  2
EZ_M_5_H25_CM
 70
0
 40
1.0
 41
0.0125
 42
0.00625
 43
3.75
 44
0.018750000000000003
 45
0.0
 46
0.0
 47
0.0
 48
0.0
 49
2.5
140
0.0125
141
2.5
142
0.00625
143
0.03937007874
144
100.0
145
0.0
146
0.5
147
0.005000000000000001
148
0.0
 69
0
 70
0
 71
0
 72
0
 73
0
 74
0
 75
0
 76
0
 77
1
 78
12
 79
3
170
0
171
3
172
1
173
0
174
0
175
0
176
0
177
0
178
0
179
2
271
2
272
2
273
2
274
3
275
0
276
0
277
2
278
46
279
2
280
0
281
0
282
0
283
0
284
8
285
0
286
0
288
1
289
3
290
0
340
4C
371
-2
372
-2
  0
DIMSTYLE
105
82
330
4
100
AcDbSymbolTableRecord
100
AcDbDimStyleTableRecord
  2
EZ_M_1_H25_CM
 70
0
 40
1.0
 41
0.0025
 42
0.00125
 43
3.75
 44
0.00375
 45
0.0
 46
0.0
 47
0.0
 48
0.0
 49
2.5
140
0.0025
141
2.5
142
0.00125
143
0.03937007874
144
100.0
145
0.0
146
0.5
147
0.001
148
0.0
 69
0
 70
0
 71
0
 72
0
 73
0
 74
0
 75
0
 76
0
 77
1
 78
12
 79
3
170
0
171
3
172
1
173
0
174
0
175
0
176
0
177
0
178
0
179
2
271
2
272
2
273
2
274
3
275
0
276
0
277
2
278
46
279
2
280
0
281
0
282
0
283
0
284
8
285
0
286
0
288
1
289
3
290
0
340
4C
371
-2
372
-2
  0
DIMSTYLE
105
83
330
4
100
AcDbSymbolTableRecord
100
AcDbDimStyleTableRecord
  2
EZ_RADIUS
 70
0
 40
1.0
 41
0.25
 42
0.125
 43
3.75
 44
0.375
 45
0.0
 46
0.0
 47
0.0
 48
0.0
 49
2.5
140
0.25
141
0.0
142
0.0
143
0.03937007874
144
100.0
145
0.0
146
0.5
147
0.1
148
0.0
 69
0
 70
0
 71
0
 72
0
 73
0
 74
0
 75
0
 76
0
 77
1
 78
12
 79
3
170
0
171
3
172
0
173
0
174
0
175
0
176
0
177
0
178
0
179
2
271
2
272
2
273
2
274
3
275
0
276
0
277
2
278
46
279
1
280
0
281
0
282
0
283
0
284
8
285
0
286
0
288
1
289
3
290
0
340
4C
342
84
371
-2
372
-2
  0
DIMSTYLE
105
88
330
4
100
AcDbSymbolTableRecord
100
AcDbDimStyleTableRecord
  2
EZ_RADIUS_INSIDE
 70
0
 40
1.0
 41
0.25
 42
0.125
 43
3.75
 44
0.375
 45
0.0
 46
0.0
 47
0.0
 48
0.0
 49
2.5
140
0.25
141
0.0
142
0.0
143
0.03937007874
144
100.0
145
0.0
146
0.5
147
0.1
148
0.0
 69
0
 70
0
 71
0
 72
0
 73
0
 74
0
 75
0
 76
0
 77
0
 78
12
 79
3
170
0
171
3
172
0
173
0
174
1
175
0
176
0
177
0
178
0
179
2
271
2
272
2
273
2
274
3
275
0
276
0
277
2
278
46
279
0
280
0
281
0
282
0
283
0
284
8
285
0
286
0
288
1
289
0
290
0
340
4C
342
84
371
-2
372
-2
  0
DIMSTYLE
105
89
330
4
100
AcDbSymbolTableRecord
100
AcDbDimStyleTableRecord
  2
EZ_CURVED
 70
0
 40
1.0
 41
0.25
 42
0.125
 43
3.75
 44
0.375
 45
0.0
 46
0.0
 47
0.0
 48
0.0
 49
2.5
140
0.25
141
2.5
142
0.0
143
0.03937007874
144
100.0
145
0.0
146
0.5
147
0.1
148
0.0
 69
0
 70
0
 71
0
 72
0
 73
0
 74
0
 75
0
 76
0
 77
1
 78
12
 79
2
 90
2
170
0
171
3
172
1
173
0
174
0
175
0
176
0
177
0
178
0
179
2
271
2
272
2
273
2
274
3
275
0
276
0
277
2
278
46
279
2
280
0
281
0
282
0
283
0
284
8
285
0
286
0
288
1
289
3
290
0
340
4C
371
-2
372
-2
  0
ENDTAB
  0
TABLE
  2
BLOCK_RECORD
  5
9
330
0
100
AcDbSymbolTable
 70
5
  0
BLOCK_RECORD
  5
17
330
9
100
AcDbSymbolTableRecord
100
AcDbBlockTableRecord
  2
*Model_Space
340
1A
 70
0
280
1
281
0
  0
BLOCK_RECORD
  5
1B
330
9
100
AcDbSymbolTableRecord
100
AcDbBlockTableRecord
  2
*Paper_Space
340
1E
 70
0
280
1
281
0
  0
BLOCK_RECORD
  5
74
330
9
100
AcDbSymbolTableRecord
100
AcDbBlockTableRecord
  2
_ARCHTICK
340
0
 70
0
280
1
281
0
  0
BLOCK_RECORD
  5
78
330
9
100
AcDbSymbolTableRecord
100
AcDbBlockTableRecord
  2
_CLOSEDFILLED
340
0
 70
0
280
1
281
0
  0
BLOCK_RECORD
  5
84
330
9
100
AcDbSymbolTableRecord
100
AcDbBlockTableRecord
  2
_CLOSEDBLANK
340
0
 70
0
280
1
281
0
  0
ENDTAB
  0
ENDSEC
  0
SECTION
  2
BLOCKS
  0
BLOCK
  5
18
330
17
100
AcDbEntity
  8
0
100
AcDbBlockBegin
  2
*Model_Space
 70
0
 10
0.0
 20
0.0
 30
0.0
  3
*Model_Space
  1

  0
ENDBLK
  5
19
330
17
100
AcDbEntity
  8
0
100
AcDbBlockEnd
  0
BLOCK
  5
1C
330
1B
100
AcDbEntity
  8
0
100
AcDbBlockBegin
  2
*Paper_Space
 70
0
 10
0.0
 20
0.0
 30
0.0
  3
*Paper_Space
  1

  0
ENDBLK
  5
1D
330
1B
100
AcDbEntity
  8
0
100
AcDbBlockEnd
  0
BLOCK
  5
75
330
74
100
AcDbEntity
  8
0
100
AcDbBlockBegin
  2
_ARCHTICK
 70
0
 10
0.0
 20
0.0
 30
0.0
  3
_ARCHTICK
  1

  0
LWPOLYLINE
  5
77
330
74
100
AcDbEntity
  8
0
  6
BYBLOCK
 62
0
100
AcDbPolyline
 90
2
 70
0
 43
0.15
 10
-0.5
 20
-0.5
 10
0.5
 20
0.5
  0
ENDBLK
  5
76
330
74
100
AcDbEntity
  8
0
100
AcDbBlockEnd
  0
BLOCK
  5
79
330
78
100
AcDbEntity
  8
0
100
AcDbBlockBegin
  2
_CLOSEDFILLED
 70
0
 10
0.0
 20
0.0
 30
0.0
  3
_CLOSEDFILLED
  1

  0
SOLID
  5
7B
330
78
100
AcDbEntity
  8
0
  6
BYBLOCK
 62
0
100
AcDbTrace
 10
-1.0
 20
0.16439898372402537
 30
0.0
 11
0.0
 21
0.0
 31
0.0
 12
-1.0
 22
-0.16439898372402537
 32
0.0
 13
-1.0
 23
-0.16439898372402537
 33
0.0
  0
ENDBLK
  5
7A
330
78
100
AcDbEntity
  8
0
100
AcDbBlockEnd
  0
BLOCK
  5
85
330
84
100
AcDbEntity
  8
0
100
AcDbBlockBegin
  2
_CLOSEDBLANK
 70
0
 10
0.0
 20
0.0
 30
0.0
  3
_CLOSEDBLANK
  1

  0
LWPOLYLINE
  5
87
330
84
100
AcDbEntity
  8
0
  6
BYBLOCK
 62
0
100
AcDbPolyline
 90
3
 70
1
 10
-1.0
 20
0.16439898372402537
 10
0.0
 20
0.0
 10
-1.0
 20
-0.16439898372402537
  0
ENDBLK
  5
86
330
84
100
AcDbEntity
  8
0
100
AcDbBlockEnd
  0
ENDSEC
  0
SECTION
  2
ENTITIES
  0
LWPOLYLINE
  5
8D
330
17
100
AcDbEntity
  8
LABEL
100
AcDbPolyline
 90
4
 70
1
 10
0.0
 20
394.8
 10
1371.6
 20
394.8
 10
1371.6
 20
0.0
 10
0.0
 20
0.0
  0
LWPOLYLINE
  5
8E
330
17
100
AcDbEntity
  8
CUT
100
AcDbPolyline
 90
134
 70
1
 10
10.0
 20
55.0
 10
348.973
 20
55.0
 10
359.6
 20
55.0
 10
360.58
 20
55.048
 10
361.551
 20
55.19200000000001
 10
362.503
 20
55.43099999999998
 10
363.427
 20
55.761000000000024
 10
364.314
 20
56.18099999999998
 10
365.156
 20
56.685
 10
365.944
 20
57.27000000000004
 10
366.671
 20
57.92900000000003
 10
367.33
 20
58.656000000000006
 10
367.915
 20
59.44400000000002
 10
368.419
 20
60.286
 10
368.839
 20
61.173
 10
369.17
 20
62.09700000000004
 10
369.408
 20
63.049000000000035
 10
369.552
 20
64.02000000000004
 10
369.6
 20
65.0
 10
369.6
 20
75.0
 10
369.6
 20
85.0
 10
369.6
 20
94.89699999999999
 10
369.6
 20
105.0
 10
369.6
 20
114.89699999999999
 10
369.6
 20
125.0
 10
369.6
 20
134.897
 10
369.6
 20
145.0
 10
369.6
 20
154.89700000000002
 10
369.6
 20
165.0
 10
369.6
 20
174.89700000000002
 10
369.6
 20
194.89700000000002
 10
369.6
 20
205.0
 10
369.6
 20
214.89700000000002
 10
369.6
 20
225.0
 10
369.6
 20
234.89700000000002
 10
369.6
 20
254.89700000000002
 10
369.6
 20
265.0
 10
369.6
 20
274.897
 10
369.6
 20
285.0
 10
369.6
 20
294.897
 10
369.6
 20
305.0
 10
369.6
 20
314.897
 10
369.6
 20
364.999
 10
369.603
 20
374.898
 10
369.603
 20
384.797
 10
369.555
 20
385.777
 10
369.411
 20
386.748
 10
369.172
 20
387.7
 10
368.842
 20
388.624
 10
368.422
 20
389.511
 10
367.918
 20
390.353
 10
367.333
 20
391.141
 10
366.67400000000004
 20
391.868
 10
365.947
 20
392.527
 10
365.159
 20
393.112
 10
364.317
 20
393.616
 10
363.43
 20
394.036
 10
362.50600000000003
 20
394.366
 10
361.55400000000003
 20
394.605
 10
360.583
 20
394.749
 10
359.603
 20
394.797
 10
349.98
 20
394.797
 10
340.357
 20
394.798
 10
330.536
 20
394.8
 10
301.467
 20
394.8
 10
291.647
 20
394.8
 10
68.13400000000001
 20
394.8
 10
58.31400000000002
 20
394.8
 10
29.245000000000005
 20
394.8
 10
19.32800000000003
 20
394.8
 10
10.0
 20
394.8
 10
9.019999999999982
 20
394.752
 10
8.049000000000035
 20
394.608
 10
7.097000000000037
 20
394.369
 10
6.173000000000002
 20
394.039
 10
5.286000000000001
 20
393.619
 10
4.444000000000017
 20
393.115
 10
3.656000000000006
 20
392.53000000000003
 10
2.9290000000000305
 20
391.87100000000004
 10
2.269999999999982
 20
391.144
 10
1.6850000000000023
 20
390.356
 10
1.1809999999999832
 20
389.514
 10
0.7610000000000241
 20
388.627
 10
0.4309999999999832
 20
387.70300000000003
 10
0.19200000000000728
 20
386.75100000000003
 10
0.04800000000000182
 20
385.78000000000003
 10
0.0
 20
384.8
 10
0.0
 20
375.0
 10
0.0
 20
365.0
 10
0.0
 20
355.103
 10
0.0
 20
345.0
 10
0.0
 20
335.103
 10
0.0
 20
325.0
 10
0.0
 20
315.103
 10
0.0
 20
305.0
 10
0.0
 20
295.103
 10
0.0
 20
285.0
 10
0.0
 20
275.103
 10
0.0
 20
265.0
 10
0.0
 20
255.103
 10
0.0
 20
245.0
 10
0.0
 20
235.103
 10
0.0
 20
225.0
 10
0.0
 20
215.103
 10
0.0
 20
205.0
 10
0.0
 20
195.103
 10
0.0
 20
185.0
 10
0.0
 20
175.103
 10
0.0
 20
165.0
 10
0.0
 20
155.103
 10
0.0
 20
145.0
 10
0.0
 20
135.103
 10
0.0
 20
125.0
 10
0.0
 20
115.10300000000001
 10
0.0
 20
105.0
 10
0.0
 20
95.10300000000001
 10
0.0
 20
85.0
 10
0.0
 20
75.10300000000001
 10
0.0
 20
65.0
 10
0.04800000000000182
 20
64.02000000000004
 10
0.19200000000000728
 20
63.049000000000035
 10
0.4309999999999832
 20
62.09700000000004
 10
0.7610000000000241
 20
61.173
 10
1.1809999999999832
 20
60.286
 10
1.6850000000000023
 20
59.44400000000002
 10
2.269999999999982
 20
58.656000000000006
 10
2.9290000000000305
 20
57.92900000000003
 10
3.656000000000006
 20
57.27000000000004
 10
4.444000000000017
 20
56.685
 10
5.286000000000001
 20
56.18099999999998
 10
6.173000000000002
 20
55.761000000000024
 10
7.097000000000037
 20
55.43099999999998
 10
8.049000000000035
 20
55.19200000000001
 10
9.019999999999982
 20
55.048
  0
LWPOLYLINE
  5
8F
330
17
100
AcDbEntity
  8
STITCH
100
AcDbPolyline
 90
133
 70
1
 10
19.52199999999999
 20
65.0
 10
10.0
 20
65.0
 10
10.0
 20
75.10300000000001
 10
10.0
 20
85.0
 10
10.0
 20
95.10300000000001
 10
10.0
 20
105.0
 10
10.0
 20
115.10300000000001
 10
10.0
 20
125.0
 10
10.0
 20
135.103
 10
10.0
 20
145.0
 10
10.0
 20
155.103
 10
10.0
 20
165.0
 10
10.0
 20
175.103
 10
10.0
 20
185.0
 10
10.0
 20
195.103
 10
10.0
 20
205.0
 10
10.0
 20
215.103
 10
10.0
 20
225.0
 10
10.0
 20
235.103
 10
10.0
 20
245.0
 10
10.0
 20
255.103
 10
10.0
 20
265.0
 10
10.0
 20
275.103
 10
10.0
 20
285.0
 10
10.0
 20
295.103
 10
10.0
 20
305.0
 10
10.0
 20
315.103
 10
10.0
 20
325.0
 10
10.0
 20
335.103
 10
10.0
 20
345.0
 10
10.0
 20
355.103
 10
10.0
 20
365.0
 10
10.0
 20
375.0
 10
10.0
 20
384.8
 10
19.32800000000003
 20
384.8
 10
29.245000000000005
 20
384.8
 10
38.870000000000005
 20
384.8
 10
48.68900000000002
 20
384.8
 10
58.31400000000002
 20
384.8
 10
68.13299999999998
 20
384.8
 10
77.75799999999998
 20
384.8
 10
87.57800000000003
 20
384.8
 10
97.20300000000003
 20
384.8
 10
107.02199999999999
 20
384.8
 10
116.64700000000002
 20
384.8
 10
126.46700000000001
 20
384.8
 10
136.092
 20
384.8
 10
145.911
 20
384.8
 10
155.536
 20
384.8
 10
165.356
 20
384.8
 10
174.981
 20
384.8
 10
184.8
 20
384.8
 10
194.425
 20
384.8
 10
204.245
 20
384.8
 10
213.87
 20
384.8
 10
223.68900000000002
 20
384.8
 10
233.31400000000002
 20
384.8
 10
243.13400000000001
 20
384.8
 10
252.758
 20
384.8
 10
262.578
 20
384.8
 10
272.203
 20
384.8
 10
282.022
 20
384.8
 10
291.647
 20
384.8
 10
301.467
 20
384.8
 10
311.092
 20
384.8
 10
320.911
 20
384.8
 10
330.536
 20
384.8
 10
340.356
 20
384.798
 10
349.98
 20
384.797
 10
359.603
 20
384.797
 10
359.603
 20
374.898
 10
359.6
 20
365.0
 10
359.6
 20
354.897
 10
359.6
 20
345.0
 10
359.6
 20
334.897
 10
359.6
 20
325.0
 10
359.6
 20
314.897
 10
359.6
 20
305.0
 10
359.6
 20
294.897
 10
359.6
 20
285.0
 10
359.6
 20
274.897
 10
359.6
 20
265.0
 10
359.6
 20
254.89700000000002
 10
359.6
 20
245.0
 10
359.6
 20
234.89700000000002
 10
359.6
 20
225.0
 10
359.6
 20
214.89700000000002
 10
359.6
 20
205.0
 10
359.6
 20
194.89700000000002
 10
359.6
 20
185.0
 10
359.6
 20
174.89700000000002
 10
359.6
 20
165.0
 10
359.6
 20
154.89700000000002
 10
359.6
 20
145.0
 10
359.6
 20
134.897
 10
359.6
 20
125.0
 10
359.6
 20
114.89699999999999
 10
359.6
 20
105.0
 10
359.6
 20
94.89699999999999
 10
359.6
 20
85.0
 10
359.6
 20
75.0
 10
359.6
 20
65.0
 10
348.973
 20
65.0
 10
338.345
 20
65.0
 10
327.718
 20
65.0
 10
317.09000000000003
 20
65.0
 10
306.463
 20
65.0
 10
295.836
 20
65.0
 10
285.208
 20
65.0
 10
274.581
 20
65.0
 10
263.953
 20
65.0
 10
253.32600000000002
 20
65.0
 10
242.698
 20
65.0
 10
232.071
 20
65.0
 10
221.44400000000002
 20
65.0
 10
210.816
 20
65.0
 10
200.18900000000002
 20
65.0
 10
189.561
 20
65.0
 10
178.934
 20
65.0
 10
168.306
 20
65.0
 10
157.679
 20
65.0
 10
147.05200000000002
 20
65.0
 10
136.424
 20
65.0
 10
125.797
 20
65.0
 10
115.16900000000001
 20
65.0
 10
104.54200000000003
 20
65.0
 10
93.91399999999999
 20
65.0
 10
83.28700000000003
 20
65.0
 10
72.66000000000003
 20
65.0
 10
62.03199999999998
 20
65.0
 10
51.40500000000003
 20
65.0
 10
40.77699999999999
 20
65.0
 10
30.150000000000034
 20
65.0
  0
TEXT
  5
90
330
17
100
AcDbEntity
  8
LABEL
100
AcDbText
 10
184.8015
 20
224.9
 30
0.0
 40
10.0
  1
A piece-1
 72
1
 11
184.8015
 21
224.9
 31
0.0
100
AcDbText
 73
2
  0
LWPOLYLINE
  5
91
330
17
100
AcDbEntity
  8
CUT
100
AcDbPolyline
 90
161
 70
1
 10
650.292
 20
55.0
 10
724.684
 20
55.0
 10
724.9
 20
55.00200000000001
 10
734.422
 20
55.20800000000003
 10
735.3870000000001
 20
55.27600000000001
 10
736.342
 20
55.436000000000035
 10
737.2760000000001
 20
55.68900000000002
 10
738.182
 20
56.03000000000003
 10
739.0500000000001
 20
56.456999999999994
 10
739.873
 20
56.966999999999985
 10
740.643
 20
57.553
 10
741.3530000000001
 20
58.21100000000001
 10
741.996
 20
58.935
 10
742.565
 20
59.716999999999985
 10
743.057
 20
60.55099999999999
 10
743.465
 20
61.42900000000003
 10
743.787
 20
62.341999999999985
 10
744.019
 20
63.281000000000006
 10
744.159
 20
64.23900000000003
 10
744.206
 20
65.20600000000002
 10
744.206
 20
125.0
 10
744.206
 20
135.103
 10
744.206
 20
145.0
 10
744.206
 20
155.103
 10
744.206
 20
175.103
 10
744.206
 20
185.0
 10
744.206
 20
195.103
 10
744.206
 20
205.0
 10
744.206
 20
215.103
 10
744.206
 20
225.0
 10
744.206
 20
235.103
 10
744.206
 20
245.0
 10
744.206
 20
255.103
 10
744.206
 20
265.0
 10
744.206
 20
275.103
 10
744.206
 20
285.0
 10
744.206
 20
325.0
 10
744.206
 20
335.103
 10
744.206
 20
345.0
 10
744.206
 20
355.103
 10
744.206
 20
365.0
 10
744.206
 20
375.0
 10
744.206
 20
384.8
 10
744.158
 20
385.78000000000003
 10
744.014
 20
386.75100000000003
 10
743.775
 20
387.70300000000003
 10
743.445
 20
388.627
 10
743.025
 20
389.514
 10
742.5210000000001
 20
390.356
 10
741.936
 20
391.144
 10
741.277
 20
391.87100000000004
 10
740.5500000000001
 20
392.53000000000003
 10
739.7620000000001
 20
393.115
 10
738.9200000000001
 20
393.619
 10
738.033
 20
394.039
 10
737.109
 20
394.369
 10
736.157
 20
394.608
 10
735.186
 20
394.752
 10
734.206
 20
394.8
 10
724.878
 20
394.8
 10
714.962
 20
394.8
 10
705.337
 20
394.8
 10
695.517
 20
394.8
 10
685.892
 20
394.8
 10
676.073
 20
394.8
 10
666.448
 20
394.8
 10
656.628
 20
394.8
 10
647.003
 20
394.8
 10
637.184
 20
394.8
 10
627.559
 20
394.8
 10
617.739
 20
394.8
 10
598.2950000000001
 20
394.8
 10
588.6700000000001
 20
394.8
 10
578.85
 20
394.8
 10
569.225
 20
394.8
 10
559.406
 20
394.8
 10
549.781
 20
394.8
 10
539.962
 20
394.8
 10
530.337
 20
394.8
 10
520.517
 20
394.8
 10
510.89200000000005
 20
394.8
 10
501.073
 20
394.8
 10
491.448
 20
394.8
 10
481.62800000000004
 20
394.8
 10
472.00300000000004
 20
394.8
 10
462.184
 20
394.8
 10
452.559
 20
394.8
 10
442.73900000000003
 20
394.8
 10
433.11400000000003
 20
394.8
 10
423.295
 20
394.8
 10
413.66700000000003
 20
394.8
 10
403.849
 20
394.798
 10
394.226
 20
394.798
 10
384.603
 20
394.797
 10
383.623
 20
394.749
 10
382.65200000000004
 20
394.605
 10
381.70000000000005
 20
394.367
 10
380.776
 20
394.036
 10
379.889
 20
393.616
 10
379.047
 20
393.112
 10
378.259
 20
392.527
 10
377.53200000000004
 20
391.868
 10
376.873
 20
391.141
 10
376.288
 20
390.353
 10
375.784
 20
389.511
 10
375.36400000000003
 20
388.624
 10
375.034
 20
387.7
 10
374.795
 20
386.748
 10
374.651
 20
385.777
 10
374.603
 20
384.797
 10
374.603
 20
374.896
 10
374.606
 20
364.999
 10
374.606
 20
354.897
 10
374.606
 20
345.0
 10
374.606
 20
334.897
 10
374.606
 20
325.0
 10
374.606
 20
314.897
 10
374.606
 20
305.0
 10
374.606
 20
294.897
 10
374.606
 20
285.0
 10
374.606
 20
274.897
 10
374.606
 20
265.0
 10
374.606
 20
254.89700000000002
 10
374.606
 20
245.0
 10
374.606
 20
234.89700000000002
 10
374.606
 20
225.0
 10
374.606
 20
214.89700000000002
 10
374.606
 20
205.0
 10
374.606
 20
194.89700000000002
 10
374.606
 20
185.0
 10
374.606
 20
174.89700000000002
 10
374.606
 20
165.0
 10
374.606
 20
154.89700000000002
 10
374.606
 20
145.0
 10
374.606
 20
134.897
 10
374.606
 20
125.0
 10
374.606
 20
114.89699999999999
 10
374.606
 20
105.0
 10
374.606
 20
94.89699999999999
 10
374.606
 20
85.0
 10
374.606
 20
75.0
 10
374.606
 20
65.0
 10
374.654
 20
64.02000000000004
 10
374.798
 20
63.049000000000035
 10
375.036
 20
62.09700000000004
 10
375.367
 20
61.173
 10
375.78700000000003
 20
60.286
 10
376.291
 20
59.44400000000002
 10
376.87600000000003
 20
58.656000000000006
 10
377.535
 20
57.92900000000003
 10
378.262
 20
57.27000000000004
 10
379.05
 20
56.685
 10
379.892
 20
56.18099999999998
 10
380.779
 20
55.761000000000024
 10
381.70300000000003
 20
55.43099999999998
 10
382.65500000000003
 20
55.19200000000001
 10
383.62600000000003
 20
55.048
 10
384.606
 20
55.0
 10
458.998
 20
55.0
 10
480.25300000000004
 20
55.0
 10
629.037
 20
55.0
  0
LWPOLYLINE
  5
92
330
17
100
AcDbEntity
  8
STITCH
100
AcDbPolyline
 90
133
 70
1
 10
714.056
 20
65.0
 10
703.429
 20
65.0
 10
692.801
 20
65.0
 10
682.174
 20
65.0
 10
671.546
 20
65.0
 10
660.919
 20
65.0
 10
650.292
 20
65.0
 10
639.664
 20
65.0
 10
629.037
 20
65.0
 10
618.409
 20
65.0
 10
607.782
 20
65.0
 10
597.154
 20
65.0
 10
586.527
 20
65.0
 10
575.9
 20
65.0
 10
565.272
 20
65.0
 10
554.645
 20
65.0
 10
544.017
 20
65.0
 10
533.39
 20
65.0
 10
522.7620000000001
 20
65.0
 10
512.135
 20
65.0
 10
501.50800000000004
 20
65.0
 10
490.88
 20
65.0
 10
480.25300000000004
 20
65.0
 10
469.625
 20
65.0
 10
458.998
 20
65.0
 10
448.37
 20
65.0
 10
437.743
 20
65.0
 10
427.11600000000004
 20
65.0
 10
416.488
 20
65.0
 10
405.861
 20
65.0
 10
395.233
 20
65.0
 10
384.606
 20
65.0
 10
384.606
 20
75.0
 10
384.606
 20
85.0
 10
384.606
 20
94.89699999999999
 10
384.606
 20
105.0
 10
384.606
 20
114.89699999999999
 10
384.606
 20
125.0
 10
384.606
 20
134.897
 10
384.606
 20
145.0
 10
384.606
 20
154.89700000000002
 10
384.606
 20
165.0
 10
384.606
 20
174.89700000000002
 10
384.606
 20
185.0
 10
384.606
 20
194.89700000000002
 10
384.606
 20
205.0
 10
384.606
 20
214.89700000000002
 10
384.606
 20
225.0
 10
384.606
 20
234.89700000000002
 10
384.606
 20
245.0
 10
384.606
 20
254.89700000000002
 10
384.606
 20
265.0
 10
384.606
 20
274.897
 10
384.606
 20
285.0
 10
384.606
 20
294.897
 10
384.606
 20
305.0
 10
384.606
 20
314.897
 10
384.606
 20
325.0
 10
384.606
 20
334.897
 10
384.606
 20
345.0
 10
384.606
 20
354.897
 10
384.606
 20
365.0
 10
384.603
 20
374.898
 10
384.603
 20
384.797
 10
394.22700000000003
 20
384.798
 10
403.85
 20
384.798
 10
413.67
 20
384.8
 10
423.295
 20
384.8
 10
433.11400000000003
 20
384.8
 10
442.73900000000003
 20
384.8
 10
452.559
 20
384.8
 10
462.184
 20
384.8
 10
472.00300000000004
 20
384.8
 10
481.62800000000004
 20
384.8
 10
491.448
 20
384.8
 10
501.073
 20
384.8
 10
510.89200000000005
 20
384.8
 10
520.517
 20
384.8
 10
530.337
 20
384.8
 10
539.962
 20
384.8
 10
549.781
 20
384.8
 10
559.406
 20
384.8
 10
569.225
 20
384.8
 10
578.85
 20
384.8
 10
588.6700000000001
 20
384.8
 10
598.2950000000001
 20
384.8
 10
608.114
 20
384.8
 10
617.739
 20
384.8
 10
627.559
 20
384.8
 10
637.184
 20
384.8
 10
647.003
 20
384.8
 10
656.628
 20
384.8
 10
666.448
 20
384.8
 10
676.073
 20
384.8
 10
685.892
 20
384.8
 10
695.517
 20
384.8
 10
705.337
 20
384.8
 10
714.962
 20
384.8
 10
724.878
 20
384.8
 10
734.206
 20
384.8
 10
734.206
 20
375.0
 10
734.206
 20
365.0
 10
734.206
 20
355.103
 10
734.206
 20
345.0
 10
734.206
 20
335.103
 10
734.206
 20
325.0
 10
734.206
 20
315.103
 10
734.206
 20
305.0
 10
734.206
 20
295.103
 10
734.206
 20
285.0
 10
734.206
 20
275.103
 10
734.206
 20
265.0
 10
734.206
 20
255.103
 10
734.206
 20
245.0
 10
734.206
 20
235.103
 10
734.206
 20
225.0
 10
734.206
 20
215.103
 10
734.206
 20
205.0
 10
734.206
 20
195.103
 10
734.206
 20
185.0
 10
734.206
 20
175.103
 10
734.206
 20
165.0
 10
734.206
 20
155.103
 10
734.206
 20
145.0
 10
734.206
 20
135.103
 10
734.206
 20
125.0
 10
734.206
 20
115.10300000000001
 10
734.206
 20
105.0
 10
734.206
 20
95.10300000000001
 10
734.206
 20
85.0
 10
734.206
 20
75.10300000000001
 10
734.206
 20
65.20600000000002
 10
724.684
 20
65.0
  0
TEXT
  5
93
330
17
100
AcDbEntity
  8
LABEL
100
AcDbText
 10
559.4045
 20
224.9
 30
0.0
 40
10.0
  1
B piece-2
 72
1
 11
559.4045
 21
224.9
 31
0.0
100
AcDbText
 73
2
  0
LWPOLYLINE
  5
94
330
17
100
AcDbEntity
  8
CUT
100
AcDbPolyline
 90
138
 70
1
 10
778.4519999999999
 20
394.798
 10
768.829
 20
394.797
 10
759.2059999999999
 20
394.797
 10
758.2259999999999
 20
394.749
 10
757.2549999999999
 20
394.605
 10
756.3029999999999
 20
394.366
 10
755.3789999999999
 20
394.036
 10
754.492
 20
393.616
 10
753.6499999999999
 20
393.112
 10
752.8619999999999
 20
392.527
 10
752.1349999999999
 20
391.868
 10
751.4759999999999
 20
391.141
 10
750.8909999999998
 20
390.353
 10
750.387
 20
389.511
 10
749.9669999999999
 20
388.624
 10
749.637
 20
387.7
 10
749.3979999999999
 20
386.748
 10
749.2539999999999
 20
385.777
 10
749.2059999999999
 20
384.797
 10
749.2069999999999
 20
374.896
 10
749.2089999999998
 20
364.999
 10
749.2089999999998
 20
354.897
 10
749.2089999999998
 20
265.20000000000005
 10
749.2569999999998
 20
264.22
 10
749.4009999999998
 20
263.249
 10
749.6399999999999
 20
262.297
 10
749.9699999999999
 20
261.37300000000005
 10
750.3899999999999
 20
260.486
 10
750.8939999999999
 20
259.644
 10
751.4789999999998
 20
258.856
 10
752.1379999999999
 20
258.129
 10
752.8649999999999
 20
257.47
 10
753.6529999999999
 20
256.885
 10
754.4949999999999
 20
256.381
 10
755.3819999999998
 20
255.961
 10
756.3059999999999
 20
255.631
 10
757.2579999999999
 20
255.39200000000002
 10
758.2289999999998
 20
255.24800000000002
 10
759.2089999999998
 20
255.20000000000002
 10
768.5369999999999
 20
255.20000000000002
 10
788.079
 20
255.20000000000002
 10
797.8979999999999
 20
255.20000000000002
 10
817.3419999999999
 20
255.20000000000002
 10
826.9669999999999
 20
255.20000000000002
 10
836.7869999999999
 20
255.20000000000002
 10
846.4119999999999
 20
255.20000000000002
 10
856.2309999999999
 20
255.20000000000002
 10
865.8559999999999
 20
255.20000000000002
 10
875.6759999999999
 20
255.20000000000002
 10
885.3009999999999
 20
255.20000000000002
 10
895.1199999999999
 20
255.20000000000002
 10
904.7449999999999
 20
255.20000000000002
 10
914.5649999999998
 20
255.20000000000002
 10
924.1899999999998
 20
255.20000000000002
 10
943.6339999999999
 20
255.20000000000002
 10
953.454
 20
255.20000000000002
 10
963.079
 20
255.20000000000002
 10
972.8979999999999
 20
255.20000000000002
 10
982.5229999999999
 20
255.20000000000002
 10
1001.9669999999999
 20
255.20000000000002
 10
1011.7869999999999
 20
255.20000000000002
 10
1050.676
 20
255.20000000000002
 10
1060.301
 20
255.20000000000002
 10
1070.12
 20
255.20000000000002
 10
1079.7479999999998
 20
255.20000000000002
 10
1089.5659999999998
 20
255.202
 10
1099.1889999999999
 20
255.202
 10
1108.812
 20
255.203
 10
1109.792
 20
255.251
 10
1110.763
 20
255.395
 10
1111.715
 20
255.633
 10
1112.639
 20
255.964
 10
1113.5259999999998
 20
256.384
 10
1114.368
 20
256.88800000000003
 10
1115.156
 20
257.473
 10
1115.8829999999998
 20
258.132
 10
1116.542
 20
258.85900000000004
 10
1117.127
 20
259.64700000000005
 10
1117.6309999999999
 20
260.48900000000003
 10
1118.051
 20
261.376
 10
1118.3809999999999
 20
262.3
 10
1118.62
 20
263.252
 10
1118.764
 20
264.223
 10
1118.812
 20
265.203
 10
1118.812
 20
275.10400000000004
 10
1118.809
 20
285.001
 10
1118.809
 20
365.0
 10
1118.809
 20
375.0
 10
1118.809
 20
384.8
 10
1118.761
 20
385.78000000000003
 10
1118.617
 20
386.75100000000003
 10
1118.378
 20
387.70300000000003
 10
1118.048
 20
388.627
 10
1117.628
 20
389.514
 10
1117.1239999999998
 20
390.356
 10
1116.539
 20
391.144
 10
1115.8799999999999
 20
391.87100000000004
 10
1115.1529999999998
 20
392.53000000000003
 10
1114.365
 20
393.115
 10
1113.523
 20
393.619
 10
1112.636
 20
394.039
 10
1111.712
 20
394.369
 10
1110.76
 20
394.608
 10
1109.789
 20
394.752
 10
1108.809
 20
394.8
 10
1099.481
 20
394.8
 10
1089.5649999999998
 20
394.8
 10
1079.9399999999998
 20
394.8
 10
1070.12
 20
394.8
 10
1060.495
 20
394.8
 10
1050.676
 20
394.8
 10
1041.051
 20
394.8
 10
1031.231
 20
394.8
 10
1021.6059999999999
 20
394.8
 10
1011.7869999999999
 20
394.8
 10
1002.1619999999999
 20
394.8
 10
992.3419999999999
 20
394.8
 10
982.7169999999999
 20
394.8
 10
972.8979999999999
 20
394.8
 10
963.2729999999999
 20
394.8
 10
953.454
 20
394.8
 10
943.829
 20
394.8
 10
934.0089999999999
 20
394.8
 10
924.3839999999999
 20
394.8
 10
914.5649999999998
 20
394.8
 10
904.9399999999998
 20
394.8
 10
895.1199999999999
 20
394.8
 10
885.4949999999999
 20
394.8
 10
875.6759999999999
 20
394.8
 10
866.0509999999999
 20
394.8
 10
856.2309999999999
 20
394.8
 10
846.6059999999999
 20
394.8
 10
836.7869999999999
 20
394.8
 10
827.1619999999999
 20
394.8
 10
817.3419999999999
 20
394.8
 10
807.7169999999999
 20
394.8
 10
797.8979999999999
 20
394.8
 10
788.271
 20
394.8
  0
LWPOLYLINE
  5
95
330
17
100
AcDbEntity
  8
STITCH
100
AcDbPolyline
 90
96
 70
1
 10
778.454
 20
384.798
 10
788.2729999999999
 20
384.8
 10
797.8979999999999
 20
384.8
 10
807.7169999999999
 20
384.8
 10
817.3419999999999
 20
384.8
 10
827.1619999999999
 20
384.8
 10
836.7869999999999
 20
384.8
 10
846.6059999999999
 20
384.8
 10
856.2309999999999
 20
384.8
 10
866.0509999999999
 20
384.8
 10
875.6759999999999
 20
384.8
 10
885.4949999999999
 20
384.8
 10
895.1199999999999
 20
384.8
 10
904.9399999999998
 20
384.8
 10
914.5649999999998
 20
384.8
 10
924.3839999999999
 20
384.8
 10
934.0089999999999
 20
384.8
 10
943.829
 20
384.8
 10
953.454
 20
384.8
 10
963.2729999999999
 20
384.8
 10
972.8979999999999
 20
384.8
 10
982.7169999999999
 20
384.8
 10
992.3419999999999
 20
384.8
 10
1002.1619999999999
 20
384.8
 10
1011.7869999999999
 20
384.8
 10
1021.6059999999999
 20
384.8
 10
1031.231
 20
384.8
 10
1041.051
 20
384.8
 10
1050.676
 20
384.8
 10
1060.495
 20
384.8
 10
1070.12
 20
384.8
 10
1079.9399999999998
 20
384.8
 10
1089.5649999999998
 20
384.8
 10
1099.481
 20
384.8
 10
1108.809
 20
384.8
 10
1108.809
 20
375.0
 10
1108.809
 20
365.0
 10
1108.809
 20
355.103
 10
1108.809
 20
345.0
 10
1108.809
 20
335.103
 10
1108.809
 20
325.0
 10
1108.809
 20
315.103
 10
1108.809
 20
305.0
 10
1108.809
 20
295.103
 10
1108.809
 20
285.0
 10
1108.812
 20
275.10200000000003
 10
1108.812
 20
265.203
 10
1099.1879999999999
 20
265.202
 10
1089.5649999999998
 20
265.202
 10
1079.745
 20
265.20000000000005
 10
1070.12
 20
265.20000000000005
 10
1060.301
 20
265.20000000000005
 10
1050.676
 20
265.20000000000005
 10
1040.856
 20
265.20000000000005
 10
1031.231
 20
265.20000000000005
 10
1021.4119999999999
 20
265.20000000000005
 10
1011.7869999999999
 20
265.20000000000005
 10
1001.9669999999999
 20
265.20000000000005
 10
992.3419999999999
 20
265.20000000000005
 10
982.5229999999999
 20
265.20000000000005
 10
972.8979999999999
 20
265.20000000000005
 10
963.079
 20
265.20000000000005
 10
953.454
 20
265.20000000000005
 10
943.6339999999999
 20
265.20000000000005
 10
934.0089999999999
 20
265.20000000000005
 10
924.1899999999998
 20
265.20000000000005
 10
914.5649999999998
 20
265.20000000000005
 10
904.7449999999999
 20
265.20000000000005
 10
895.1199999999999
 20
265.20000000000005
 10
885.3009999999999
 20
265.20000000000005
 10
875.6759999999999
 20
265.20000000000005
 10
865.8559999999999
 20
265.20000000000005
 10
856.2309999999999
 20
265.20000000000005
 10
846.4119999999999
 20
265.20000000000005
 10
836.7869999999999
 20
265.20000000000005
 10
826.9669999999999
 20
265.20000000000005
 10
817.3419999999999
 20
265.20000000000005
 10
807.5229999999999
 20
265.20000000000005
 10
797.8979999999999
 20
265.20000000000005
 10
788.078
 20
265.20000000000005
 10
778.454
 20
265.20000000000005
 10
768.5369999999999
 20
265.20000000000005
 10
759.2089999999998
 20
265.20000000000005
 10
759.2089999999998
 20
275.0
 10
759.2089999999998
 20
285.0
 10
759.2089999999998
 20
294.897
 10
759.2089999999998
 20
305.0
 10
759.2089999999998
 20
314.897
 10
759.2089999999998
 20
325.0
 10
759.2089999999998
 20
334.897
 10
759.2089999999998
 20
345.0
 10
759.2089999999998
 20
354.897
 10
759.2089999999998
 20
365.0
 10
759.2069999999999
 20
374.898
 10
759.2059999999999
 20
384.797
 10
768.8299999999999
 20
384.797
  0
TEXT
  5
96
330
17
100
AcDbEntity
  8
LABEL
100
AcDbText
 10
934.0089999999999
 20
325.0
 30
0.0
 40
10.0
  1
C piece-3
 72
1
 11
934.0089999999999
 21
325.0
 31
0.0
100
AcDbText
 73
2
  0
LWPOLYLINE
  5
97
330
17
100
AcDbEntity
  8
CUT
100
AcDbPolyline
 90
83
 70
1
 10
1089.006
 20
120.60000000000002
 10
1089.006
 20
240.20000000000002
 10
1088.958
 20
241.18
 10
1088.814
 20
242.151
 10
1088.575
 20
243.103
 10
1088.2450000000001
 20
244.02700000000002
 10
1087.825
 20
244.91400000000002
 10
1087.3210000000001
 20
245.75600000000003
 10
1086.736
 20
246.544
 10
1086.077
 20
247.27100000000002
 10
1085.3500000000001
 20
247.93
 10
1084.5620000000001
 20
248.51500000000001
 10
1083.72
 20
249.019
 10
1082.833
 20
249.43900000000002
 10
1081.909
 20
249.769
 10
1080.957
 20
250.008
 10
1079.986
 20
250.15200000000002
 10
1079.006
 20
250.20000000000002
 10
1059.006
 20
250.20000000000002
 10
1049.106
 20
250.20000000000002
 10
1039.006
 20
250.20000000000002
 10
1009.1060000000001
 20
250.20000000000002
 10
999.0060000000001
 20
250.20000000000002
 10
989.1060000000001
 20
250.20000000000002
 10
949.1060000000001
 20
250.20000000000002
 10
939.0060000000001
 20
250.20000000000002
 10
929.1060000000001
 20
250.20000000000002
 10
919.0060000000001
 20
250.20000000000002
 10
909.1060000000001
 20
250.20000000000002
 10
899.0060000000001
 20
250.20000000000002
 10
889.1060000000001
 20
250.20000000000002
 10
839.0060000000001
 20
250.20000000000002
 10
829.1060000000001
 20
250.20000000000002
 10
759.2060000000001
 20
250.20000000000002
 10
758.2260000000001
 20
250.15200000000002
 10
757.2550000000001
 20
250.008
 10
756.3030000000001
 20
249.769
 10
755.3790000000001
 20
249.43900000000002
 10
754.4920000000001
 20
249.019
 10
753.6500000000001
 20
248.51500000000001
 10
752.8620000000001
 20
247.93
 10
752.1350000000001
 20
247.27100000000002
 10
751.4760000000001
 20
246.544
 10
750.8910000000001
 20
245.75600000000003
 10
750.3870000000001
 20
244.91400000000002
 10
749.9670000000001
 20
244.02700000000002
 10
749.6370000000001
 20
243.103
 10
749.3980000000001
 20
242.151
 10
749.2540000000001
 20
241.18
 10
749.2060000000001
 20
240.20000000000002
 10
749.2060000000001
 20
120.60000000000002
 10
749.2540000000001
 20
119.62
 10
749.3980000000001
 20
118.64900000000006
 10
749.6370000000001
 20
117.69700000000006
 10
749.9670000000001
 20
116.77300000000002
 10
750.3870000000001
 20
115.88600000000002
 10
750.8910000000001
 20
115.04400000000004
 10
751.4760000000001
 20
114.25600000000003
 10
752.1350000000001
 20
113.52900000000005
 10
752.8620000000001
 20
112.87
 10
753.6500000000001
 20
112.28500000000003
 10
754.4920000000001
 20
111.781
 10
755.3790000000001
 20
111.36100000000005
 10
756.3030000000001
 20
111.031
 10
757.2550000000001
 20
110.79200000000003
 10
758.2260000000001
 20
110.64800000000002
 10
759.2060000000001
 20
110.60000000000002
 10
1079.006
 20
110.60000000000002
 10
1079.986
 20
110.64800000000002
 10
1080.957
 20
110.79200000000003
 10
1081.909
 20
111.031
 10
1082.833
 20
111.36100000000005
 10
1083.72
 20
111.781
 10
1084.5620000000001
 20
112.28500000000003
 10
1085.3500000000001
 20
112.87
 10
1086.077
 20
113.52900000000005
 10
1086.736
 20
114.25600000000003
 10
1087.3210000000001
 20
115.04400000000004
 10
1087.825
 20
115.88600000000002
 10
1088.2450000000001
 20
116.77300000000002
 10
1088.575
 20
117.69700000000006
 10
1088.814
 20
118.64900000000006
 10
1088.958
 20
119.62
  0
LWPOLYLINE
  5
98
330
17
100
AcDbEntity
  8
STITCH
100
AcDbPolyline
 90
85
 70
1
 10
1079.006
 20
130.40000000000003
 10
1079.006
 20
120.60000000000002
 10
1068.9060000000002
 20
120.60000000000002
 10
1059.006
 20
120.60000000000002
 10
1048.9060000000002
 20
120.60000000000002
 10
1039.006
 20
120.60000000000002
 10
1028.9060000000002
 20
120.60000000000002
 10
1019.0060000000001
 20
120.60000000000002
 10
1008.9060000000001
 20
120.60000000000002
 10
999.0060000000001
 20
120.60000000000002
 10
988.9060000000001
 20
120.60000000000002
 10
979.0060000000001
 20
120.60000000000002
 10
968.9060000000001
 20
120.60000000000002
 10
959.0060000000001
 20
120.60000000000002
 10
948.9060000000001
 20
120.60000000000002
 10
939.0060000000001
 20
120.60000000000002
 10
928.9060000000001
 20
120.60000000000002
 10
919.0060000000001
 20
120.60000000000002
 10
908.9060000000001
 20
120.60000000000002
 10
899.0060000000001
 20
120.60000000000002
 10
888.9060000000001
 20
120.60000000000002
 10
879.0060000000001
 20
120.60000000000002
 10
868.9060000000001
 20
120.60000000000002
 10
859.0060000000001
 20
120.60000000000002
 10
848.9060000000001
 20
120.60000000000002
 10
839.0060000000001
 20
120.60000000000002
 10
828.9060000000001
 20
120.60000000000002
 10
819.0060000000001
 20
120.60000000000002
 10
808.9060000000001
 20
120.60000000000002
 10
799.0060000000001
 20
120.60000000000002
 10
788.9060000000001
 20
120.60000000000002
 10
779.0060000000001
 20
120.60000000000002
 10
768.806
 20
120.60000000000002
 10
759.2060000000001
 20
120.60000000000002
 10
759.2060000000001
 20
130.40000000000003
 10
759.2060000000001
 20
140.40000000000003
 10
759.2060000000001
 20
150.3
 10
759.2060000000001
 20
160.40000000000003
 10
759.2060000000001
 20
170.3
 10
759.2060000000001
 20
180.40000000000003
 10
759.2060000000001
 20
190.3
 10
759.2060000000001
 20
200.40000000000003
 10
759.2060000000001
 20
210.3
 10
759.2060000000001
 20
220.4
 10
759.2060000000001
 20
230.3
 10
759.2060000000001
 20
240.20000000000002
 10
769.1060000000001
 20
240.20000000000002
 10
779.0060000000001
 20
240.20000000000002
 10
789.1060000000001
 20
240.20000000000002
 10
799.0060000000001
 20
240.20000000000002
 10
809.1060000000001
 20
240.20000000000002
 10
819.0060000000001
 20
240.20000000000002
 10
829.1060000000001
 20
240.20000000000002
 10
839.0060000000001
 20
240.20000000000002
 10
849.1060000000001
 20
240.20000000000002
 10
859.0060000000001
 20
240.20000000000002
 10
869.1060000000001
 20
240.20000000000002
 10
879.0060000000001
 20
240.20000000000002
 10
889.1060000000001
 20
240.20000000000002
 10
899.0060000000001
 20
240.20000000000002
 10
909.1060000000001
 20
240.20000000000002
 10
919.0060000000001
 20
240.20000000000002
 10
929.1060000000001
 20
240.20000000000002
 10
939.0060000000001
 20
240.20000000000002
 10
949.1060000000001
 20
240.20000000000002
 10
959.0060000000001
 20
240.20000000000002
 10
969.1060000000001
 20
240.20000000000002
 10
979.0060000000001
 20
240.20000000000002
 10
989.1060000000001
 20
240.20000000000002
 10
999.0060000000001
 20
240.20000000000002
 10
1009.1060000000001
 20
240.20000000000002
 10
1019.0060000000001
 20
240.20000000000002
 10
1029.106
 20
240.20000000000002
 10
1039.006
 20
240.20000000000002
 10
1049.106
 20
240.20000000000002
 10
1059.006
 20
240.20000000000002
 10
1069.2060000000001
 20
240.20000000000002
 10
1079.006
 20
240.20000000000002
 10
1079.006
 20
226.47500000000002
 10
1079.006
 20
212.75
 10
1079.006
 20
199.02500000000003
 10
1079.006
 20
185.3
 10
1079.006
 20
171.57500000000002
 10
1079.006
 20
157.85000000000002
 10
1079.006
 20
144.125
  0
TEXT
  5
99
330
17
100
AcDbEntity
  8
LABEL
100
AcDbText
 10
919.1060000000001
 20
180.40000000000003
 30
0.0
 40
10.0
  1
D piece-4
 72
1
 11
919.1060000000001
 21
180.40000000000003
 31
0.0
100
AcDbText
 73
2
  0
LWPOLYLINE
  5
9A
330
17
100
AcDbEntity
  8
CUT
100
AcDbPolyline
 90
120
 70
1
 10
1253.4119999999998
 20
394.8
 10
1143.6119999999999
 20
394.8
 10
1143.408
 20
394.798
 10
1133.608
 20
394.598
 10
1132.6419999999998
 20
394.531
 10
1131.686
 20
394.37100000000004
 10
1130.751
 20
394.12
 10
1129.8439999999998
 20
393.779
 10
1128.975
 20
393.35200000000003
 10
1128.1509999999998
 20
392.843
 10
1127.3799999999999
 20
392.257
 10
1126.6689999999999
 20
391.599
 10
1126.0259999999998
 20
390.875
 10
1125.455
 20
390.092
 10
1124.963
 20
389.25800000000004
 10
1124.5539999999999
 20
388.38
 10
1124.232
 20
387.466
 10
1123.9989999999998
 20
386.526
 10
1123.859
 20
385.567
 10
1123.812
 20
384.6
 10
1123.812
 20
374.7
 10
1123.812
 20
364.8
 10
1123.812
 20
354.7
 10
1123.812
 20
344.8
 10
1123.812
 20
334.7
 10
1123.812
 20
324.8
 10
1123.812
 20
304.8
 10
1123.812
 20
294.70000000000005
 10
1123.812
 20
284.8
 10
1123.812
 20
264.8
 10
1123.812
 20
254.70000000000002
 10
1123.812
 20
244.8
 10
1123.812
 20
184.8
 10
1123.812
 20
174.70000000000002
 10
1123.812
 20
164.8
 10
1123.812
 20
144.8
 10
1123.812
 20
134.7
 10
1123.812
 20
124.80000000000001
 10
1123.812
 20
114.69999999999999
 10
1123.812
 20
104.80000000000001
 10
1123.812
 20
94.69999999999999
 10
1123.812
 20
84.80000000000001
 10
1123.812
 20
65.0
 10
1123.86
 20
64.02000000000004
 10
1124.004
 20
63.049000000000035
 10
1124.243
 20
62.09700000000004
 10
1124.5729999999999
 20
61.173
 10
1124.993
 20
60.286
 10
1125.4969999999998
 20
59.44400000000002
 10
1126.0819999999999
 20
58.656000000000006
 10
1126.741
 20
57.92900000000003
 10
1127.4679999999998
 20
57.27000000000004
 10
1128.2559999999999
 20
56.685
 10
1129.098
 20
56.18099999999998
 10
1129.985
 20
55.761000000000024
 10
1130.9089999999999
 20
55.43099999999998
 10
1131.8609999999999
 20
55.19200000000001
 10
1132.8319999999999
 20
55.048
 10
1133.812
 20
55.0
 10
1253.4119999999998
 20
55.0
 10
1254.3919999999998
 20
55.048
 10
1255.3629999999998
 20
55.19200000000001
 10
1256.3149999999998
 20
55.43099999999998
 10
1257.2389999999998
 20
55.761000000000024
 10
1258.126
 20
56.18099999999998
 10
1258.9679999999998
 20
56.685
 10
1259.7559999999999
 20
57.27000000000004
 10
1260.483
 20
57.92900000000003
 10
1261.1419999999998
 20
58.656000000000006
 10
1261.7269999999999
 20
59.44400000000002
 10
1262.231
 20
60.286
 10
1262.6509999999998
 20
61.173
 10
1262.981
 20
62.09700000000004
 10
1263.2199999999998
 20
63.049000000000035
 10
1263.3639999999998
 20
64.02000000000004
 10
1263.4119999999998
 20
65.0
 10
1263.4119999999998
 20
74.90000000000003
 10
1263.4119999999998
 20
84.80000000000001
 10
1263.4119999999998
 20
94.90000000000003
 10
1263.4119999999998
 20
104.80000000000001
 10
1263.4119999999998
 20
114.90000000000003
 10
1263.4119999999998
 20
124.80000000000001
 10
1263.4119999999998
 20
134.90000000000003
 10
1263.4119999999998
 20
144.8
 10
1263.4119999999998
 20
154.9
 10
1263.4119999999998
 20
164.8
 10
1263.4119999999998
 20
174.9
 10
1263.4119999999998
 20
184.8
 10
1263.4119999999998
 20
204.8
 10
1263.4119999999998
 20
214.9
 10
1263.4119999999998
 20
224.8
 10
1263.4119999999998
 20
234.9
 10
1263.4119999999998
 20
244.8
 10
1263.4119999999998
 20
254.9
 10
1263.4119999999998
 20
264.8
 10
1263.4119999999998
 20
274.9
 10
1263.4119999999998
 20
294.9
 10
1263.4119999999998
 20
304.8
 10
1263.4119999999998
 20
314.9
 10
1263.4119999999998
 20
324.8
 10
1263.4119999999998
 20
334.90000000000003
 10
1263.4119999999998
 20
354.90000000000003
 10
1263.4119999999998
 20
364.8
 10
1263.4119999999998
 20
375.0
 10
1263.4119999999998
 20
384.8
 10
1263.3639999999998
 20
385.78000000000003
 10
1263.2199999999998
 20
386.75100000000003
 10
1262.981
 20
387.70300000000003
 10
1262.6509999999998
 20
388.627
 10
1262.231
 20
389.514
 10
1261.7269999999999
 20
390.356
 10
1261.1419999999998
 20
391.144
 10
1260.483
 20
391.87100000000004
 10
1259.7559999999999
 20
392.53000000000003
 10
1258.9679999999998
 20
393.115
 10
1258.126
 20
393.619
 10
1257.2389999999998
 20
394.039
 10
1256.3149999999998
 20
394.369
 10
1255.3629999999998
 20
394.608
 10
1254.3919999999998
 20
394.752
  0
LWPOLYLINE
  5
9B
330
17
100
AcDbEntity
  8
STITCH
100
AcDbPolyline
 90
85
 70
1
 10
1253.4119999999998
 20
384.8
 10
1253.4119999999998
 20
375.0
 10
1253.4119999999998
 20
364.8
 10
1253.4119999999998
 20
354.90000000000003
 10
1253.4119999999998
 20
344.8
 10
1253.4119999999998
 20
334.90000000000003
 10
1253.4119999999998
 20
324.8
 10
1253.4119999999998
 20
314.9
 10
1253.4119999999998
 20
304.8
 10
1253.4119999999998
 20
294.9
 10
1253.4119999999998
 20
284.8
 10
1253.4119999999998
 20
274.9
 10
1253.4119999999998
 20
264.8
 10
1253.4119999999998
 20
254.9
 10
1253.4119999999998
 20
244.8
 10
1253.4119999999998
 20
234.9
 10
1253.4119999999998
 20
224.8
 10
1253.4119999999998
 20
214.9
 10
1253.4119999999998
 20
204.8
 10
1253.4119999999998
 20
194.9
 10
1253.4119999999998
 20
184.8
 10
1253.4119999999998
 20
174.9
 10
1253.4119999999998
 20
164.8
 10
1253.4119999999998
 20
154.9
 10
1253.4119999999998
 20
144.8
 10
1253.4119999999998
 20
134.90000000000003
 10
1253.4119999999998
 20
124.80000000000001
 10
1253.4119999999998
 20
114.90000000000003
 10
1253.4119999999998
 20
104.80000000000001
 10
1253.4119999999998
 20
94.90000000000003
 10
1253.4119999999998
 20
84.80000000000001
 10
1253.4119999999998
 20
74.90000000000003
 10
1253.4119999999998
 20
65.0
 10
1243.512
 20
65.0
 10
1233.6119999999999
 20
65.0
 10
1223.512
 20
65.0
 10
1213.6119999999999
 20
65.0
 10
1203.512
 20
65.0
 10
1193.6119999999999
 20
65.0
 10
1183.512
 20
65.0
 10
1173.6119999999999
 20
65.0
 10
1163.512
 20
65.0
 10
1153.6119999999999
 20
65.0
 10
1143.4119999999998
 20
65.0
 10
1133.812
 20
65.0
 10
1133.812
 20
74.80000000000001
 10
1133.812
 20
84.80000000000001
 10
1133.812
 20
94.69999999999999
 10
1133.812
 20
104.80000000000001
 10
1133.812
 20
114.69999999999999
 10
1133.812
 20
124.80000000000001
 10
1133.812
 20
134.7
 10
1133.812
 20
144.8
 10
1133.812
 20
154.70000000000002
 10
1133.812
 20
164.8
 10
1133.812
 20
174.70000000000002
 10
1133.812
 20
184.8
 10
1133.812
 20
194.70000000000002
 10
1133.812
 20
204.8
 10
1133.812
 20
214.70000000000002
 10
1133.812
 20
224.8
 10
1133.812
 20
234.70000000000002
 10
1133.812
 20
244.8
 10
1133.812
 20
254.70000000000002
 10
1133.812
 20
264.8
 10
1133.812
 20
274.70000000000005
 10
1133.812
 20
284.8
 10
1133.812
 20
294.70000000000005
 10
1133.812
 20
304.8
 10
1133.812
 20
314.70000000000005
 10
1133.812
 20
324.8
 10
1133.812
 20
334.7
 10
1133.812
 20
344.8
 10
1133.812
 20
354.7
 10
1133.812
 20
364.8
 10
1133.812
 20
374.7
 10
1133.812
 20
384.6
 10
1143.6119999999999
 20
384.8
 10
1157.337
 20
384.8
 10
1171.062
 20
384.8
 10
1184.7869999999998
 20
384.8
 10
1198.512
 20
384.8
 10
1212.2369999999999
 20
384.8
 10
1225.962
 20
384.8
 10
1239.687
 20
384.8
  0
TEXT
  5
9C
330
17
100
AcDbEntity
  8
LABEL
100
AcDbText
 10
1193.6119999999999
 20
224.9
 30
0.0
 40
10.0
  1
E piece-5
 72
1
 11
1193.6119999999999
 21
224.9
 31
0.0
100
AcDbText
 73
2
  0
LWPOLYLINE
  5
9D
330
17
100
AcDbEntity
  8
CUT
100
AcDbPolyline
 90
334
 70
1
 10
12.148000000000025
 20
50.0
 10
10.0
 20
50.0
 10
9.019999999999982
 20
49.952
 10
8.048999999999978
 20
49.80799999999999
 10
7.09699999999998
 20
49.56900000000002
 10
6.173000000000002
 20
49.238999999999976
 10
5.2859999999999445
 20
48.81900000000002
 10
4.44399999999996
 20
48.315
 10
3.655999999999949
 20
47.73000000000002
 10
2.9289999999999736
 20
47.071000000000026
 10
2.269999999999982
 20
46.343999999999994
 10
1.6849999999999454
 20
45.55599999999998
 10
1.18100000000004
 20
44.714
 10
0.7609999999999673
 20
43.827
 10
0.43100000000004
 20
42.90300000000002
 10
0.19200000000000728
 20
41.95100000000002
 10
0.04800000000000182
 20
40.98000000000002
 10
0.0
 20
40.0
 10
0.0
 20
38.125
 10
0.0
 20
36.25
 10
0.0
 20
34.375
 10
0.0
 20
32.5
 10
0.0
 20
30.625
 10
0.0
 20
28.75
 10
0.0
 20
26.875
 10
0.0
 20
25.0
 10
0.0
 20
23.125
 10
0.0
 20
21.25
 10
0.0
 20
19.375
 10
0.0
 20
17.5
 10
0.0
 20
15.625
 10
0.0
 20
13.75
 10
0.0
 20
11.875
 10
0.0
 20
10.0
 10
0.04800000000000182
 20
9.019999999999982
 10
0.19200000000000728
 20
8.048999999999978
 10
0.43100000000004
 20
7.09699999999998
 10
0.7609999999999673
 20
6.173000000000002
 10
1.18100000000004
 20
5.286000000000001
 10
1.6849999999999454
 20
4.444000000000017
 10
2.269999999999982
 20
3.656000000000006
 10
2.9289999999999736
 20
2.9290000000000305
 10
3.655999999999949
 20
2.269999999999982
 10
4.44399999999996
 20
1.6850000000000023
 10
5.2859999999999445
 20
1.1809999999999832
 10
6.173000000000002
 20
0.7610000000000241
 10
7.09699999999998
 20
0.4309999999999832
 10
8.048999999999978
 20
0.19200000000000728
 10
9.019999999999982
 20
0.04800000000000182
 10
10.0
 20
0.0
 10
42.226999999999975
 20
0.0
 10
44.375
 20
0.0
 10
46.523000000000025
 20
0.0
 10
145.35199999999998
 20
0.0
 10
147.5
 20
0.0
 10
149.64800000000002
 20
0.0
 10
248.47699999999998
 20
0.0
 10
250.625
 20
0.0
 10
252.77300000000002
 20
0.0
 10
317.227
 20
0.0
 10
321.523
 20
0.0
 10
420.352
 20
0.0
 10
422.5
 20
0.0
 10
424.648
 20
0.0
 10
523.477
 20
0.0
 10
525.625
 20
0.0
 10
527.773
 20
0.0
 10
560.0
 20
0.0
 10
560.98
 20
0.04800000000000182
 10
561.951
 20
0.19200000000000728
 10
562.903
 20
0.4309999999999832
 10
563.827
 20
0.7610000000000241
 10
564.714
 20
1.1809999999999832
 10
565.556
 20
1.6850000000000023
 10
566.344
 20
2.269999999999982
 10
567.071
 20
2.9290000000000305
 10
567.73
 20
3.656000000000006
 10
568.315
 20
4.444000000000017
 10
568.819
 20
5.286000000000001
 10
569.239
 20
6.173000000000002
 10
569.569
 20
7.09699999999998
 10
569.808
 20
8.048999999999978
 10
569.952
 20
9.019999999999982
 10
570.0
 20
10.0
 10
570.0
 20
40.0
 10
569.952
 20
40.98000000000002
 10
569.808
 20
41.95100000000002
 10
569.569
 20
42.90300000000002
 10
569.239
 20
43.827
 10
568.819
 20
44.714
 10
568.315
 20
45.55599999999998
 10
567.73
 20
46.343999999999994
 10
567.071
 20
47.071000000000026
 10
566.344
 20
47.73000000000002
 10
565.556
 20
48.315
 10
564.714
 20
48.81900000000002
 10
563.827
 20
49.238999999999976
 10
562.903
 20
49.56900000000002
 10
561.951
 20
49.80799999999999
 10
560.98
 20
49.952
 10
560.0
 20
50.0
 10
557.852
 20
50.0
 10
555.703
 20
50.0
 10
553.555
 20
50.0
 10
551.406
 20
50.0
 10
547.109
 20
50.0
 10
544.961
 20
50.0
 10
540.664
 20
50.0
 10
538.516
 20
50.0
 10
536.367
 20
50.0
 10
534.219
 20
50.0
 10
532.07
 20
50.0
 10
529.922
 20
50.0
 10
525.625
 20
50.0
 10
523.477
 20
50.0
 10
519.18
 20
50.0
 10
517.031
 20
50.0
 10
512.734
 20
50.0
 10
510.586
 20
50.0
 10
508.437
 20
50.0
 10
506.289
 20
50.0
 10
504.141
 20
50.0
 10
499.844
 20
50.0
 10
497.695
 20
50.0
 10
495.547
 20
50.0
 10
493.398
 20
50.0
 10
491.25
 20
50.0
 10
489.102
 20
50.0
 10
486.953
 20
50.0
 10
484.805
 20
50.0
 10
482.656
 20
50.0
 10
480.508
 20
50.0
 10
478.359
 20
50.0
 10
476.211
 20
50.0
 10
474.063
 20
50.0
 10
471.914
 20
50.0
 10
469.766
 20
50.0
 10
467.617
 20
50.0
 10
465.469
 20
50.0
 10
463.32
 20
50.0
 10
461.172
 20
50.0
 10
459.023
 20
50.0
 10
456.875
 20
50.0
 10
454.727
 20
50.0
 10
452.578
 20
50.0
 10
450.43
 20
50.0
 10
448.281
 20
50.0
 10
446.133
 20
50.0
 10
443.984
 20
50.0
 10
441.836
 20
50.0
 10
439.687
 20
50.0
 10
437.539
 20
50.0
 10
435.39099999999996
 20
50.0
 10
433.24199999999996
 20
50.0
 10
431.094
 20
50.0
 10
428.945
 20
50.0
 10
426.797
 20
50.0
 10
424.648
 20
50.0
 10
422.5
 20
50.0
 10
420.352
 20
50.0
 10
418.203
 20
50.0
 10
413.906
 20
50.0
 10
411.75800000000004
 20
50.0
 10
409.60900000000004
 20
50.0
 10
407.461
 20
50.0
 10
405.312
 20
50.0
 10
403.164
 20
50.0
 10
401.01599999999996
 20
50.0
 10
398.86699999999996
 20
50.0
 10
396.719
 20
50.0
 10
394.57
 20
50.0
 10
392.422
 20
50.0
 10
388.125
 20
50.0
 10
385.977
 20
50.0
 10
383.828
 20
50.0
 10
381.68
 20
50.0
 10
379.531
 20
50.0
 10
377.38300000000004
 20
50.0
 10
375.23400000000004
 20
50.0
 10
373.086
 20
50.0
 10
370.938
 20
50.0
 10
368.789
 20
50.0
 10
366.64099999999996
 20
50.0
 10
362.344
 20
50.0
 10
360.195
 20
50.0
 10
358.047
 20
50.0
 10
355.898
 20
50.0
 10
353.75
 20
50.0
 10
351.602
 20
50.0
 10
349.453
 20
50.0
 10
347.305
 20
50.0
 10
345.156
 20
50.0
 10
338.711
 20
50.0
 10
336.562
 20
50.0
 10
334.414
 20
50.0
 10
332.26599999999996
 20
50.0
 10
330.11699999999996
 20
50.0
 10
327.969
 20
50.0
 10
325.82
 20
50.0
 10
323.672
 20
50.0
 10
321.523
 20
50.0
 10
319.375
 20
50.0
 10
315.078
 20
50.0
 10
312.93
 20
50.0
 10
310.781
 20
50.0
 10
306.484
 20
50.0
 10
304.336
 20
50.0
 10
302.187
 20
50.0
 10
300.039
 20
50.0
 10
297.891
 20
50.0
 10
293.594
 20
50.0
 10
291.445
 20
50.0
 10
289.297
 20
50.0
 10
287.148
 20
50.0
 10
285.0
 20
50.0
 10
282.852
 20
50.0
 10
280.703
 20
50.0
 10
278.555
 20
50.0
 10
276.406
 20
50.0
 10
274.258
 20
50.0
 10
272.109
 20
50.0
 10
269.961
 20
50.0
 10
267.812
 20
50.0
 10
265.664
 20
50.0
 10
263.516
 20
50.0
 10
261.367
 20
50.0
 10
259.219
 20
50.0
 10
257.07
 20
50.0
 10
254.92200000000003
 20
50.0
 10
252.77300000000002
 20
50.0
 10
250.625
 20
50.0
 10
248.47699999999998
 20
50.0
 10
246.32799999999997
 20
50.0
 10
244.18
 20
50.0
 10
242.031
 20
50.0
 10
239.88299999999998
 20
50.0
 10
237.73399999999998
 20
50.0
 10
235.586
 20
50.0
 10
233.437
 20
50.0
 10
231.289
 20
50.0
 10
229.14100000000002
 20
50.0
 10
226.99200000000002
 20
50.0
 10
224.844
 20
50.0
 10
222.695
 20
50.0
 10
220.54700000000003
 20
50.0
 10
218.39800000000002
 20
50.0
 10
216.25
 20
50.0
 10
214.10199999999998
 20
50.0
 10
211.95299999999997
 20
50.0
 10
209.805
 20
50.0
 10
207.656
 20
50.0
 10
205.50799999999998
 20
50.0
 10
203.35899999999998
 20
50.0
 10
201.211
 20
50.0
 10
196.914
 20
50.0
 10
192.61700000000002
 20
50.0
 10
190.469
 20
50.0
 10
188.32
 20
50.0
 10
186.17200000000003
 20
50.0
 10
184.02300000000002
 20
50.0
 10
181.875
 20
50.0
 10
177.57799999999997
 20
50.0
 10
175.43
 20
50.0
 10
173.281
 20
50.0
 10
171.13299999999998
 20
50.0
 10
168.98399999999998
 20
50.0
 10
166.836
 20
50.0
 10
162.539
 20
50.0
 10
160.39100000000002
 20
50.0
 10
158.24200000000002
 20
50.0
 10
153.945
 20
50.0
 10
151.79700000000003
 20
50.0
 10
149.64800000000002
 20
50.0
 10
147.5
 20
50.0
 10
145.35199999999998
 20
50.0
 10
143.20299999999997
 20
50.0
 10
141.055
 20
50.0
 10
138.906
 20
50.0
 10
136.75799999999998
 20
50.0
 10
134.60899999999998
 20
50.0
 10
132.461
 20
50.0
 10
128.164
 20
50.0
 10
126.01600000000002
 20
50.0
 10
123.86700000000002
 20
50.0
 10
121.719
 20
50.0
 10
119.57
 20
50.0
 10
117.42200000000003
 20
50.0
 10
115.27300000000002
 20
50.0
 10
113.125
 20
50.0
 10
110.97699999999998
 20
50.0
 10
108.82799999999997
 20
50.0
 10
106.68
 20
50.0
 10
102.38299999999998
 20
50.0
 10
100.23399999999998
 20
50.0
 10
98.08600000000001
 20
50.0
 10
95.93700000000001
 20
50.0
 10
93.78899999999999
 20
50.0
 10
91.64100000000002
 20
50.0
 10
89.49200000000002
 20
50.0
 10
87.344
 20
50.0
 10
85.195
 20
50.0
 10
83.04700000000003
 20
50.0
 10
80.89800000000002
 20
50.0
 10
78.75
 20
50.0
 10
76.60199999999998
 20
50.0
 10
74.45299999999997
 20
50.0
 10
72.305
 20
50.0
 10
70.156
 20
50.0
 10
68.00799999999998
 20
50.0
 10
65.85899999999998
 20
50.0
 10
63.71100000000001
 20
50.0
 10
61.56200000000001
 20
50.0
 10
59.41399999999999
 20
50.0
 10
57.26599999999996
 20
50.0
 10
55.11699999999996
 20
50.0
 10
52.96900000000005
 20
50.0
 10
50.82000000000005
 20
50.0
 10
48.672000000000025
 20
50.0
 10
46.523000000000025
 20
50.0
 10
44.375
 20
50.0
 10
42.226999999999975
 20
50.0
 10
40.077999999999975
 20
50.0
 10
37.92999999999995
 20
50.0
 10
35.78099999999995
 20
50.0
 10
33.63300000000004
 20
50.0
 10
31.484000000000037
 20
50.0
 10
29.336000000000013
 20
50.0
 10
27.187000000000012
 20
50.0
 10
25.038999999999987
 20
50.0
 10
22.890999999999963
 20
50.0
 10
20.741999999999962
 20
50.0
 10
18.59400000000005
 20
50.0
 10
16.44500000000005
 20
50.0
 10
14.297000000000025
 20
50.0
  0
LWPOLYLINE
  5
9E
330
17
100
AcDbEntity
  8
STITCH
100
AcDbPolyline
 90
544
 70
1
 10
12.148000000000025
 20
40.0
 10
14.297000000000025
 20
40.0
 10
16.44500000000005
 20
40.0
 10
18.59400000000005
 20
40.0
 10
20.741999999999962
 20
40.0
 10
22.890999999999963
 20
40.0
 10
25.038999999999987
 20
40.0
 10
27.187000000000012
 20
40.0
 10
29.336000000000013
 20
40.0
 10
31.484000000000037
 20
40.0
 10
33.63300000000004
 20
40.0
 10
35.78099999999995
 20
40.0
 10
37.92999999999995
 20
40.0
 10
40.077999999999975
 20
40.0
 10
42.226999999999975
 20
40.0
 10
44.375
 20
40.0
 10
46.523000000000025
 20
40.0
 10
48.672000000000025
 20
40.0
 10
50.82000000000005
 20
40.0
 10
52.96900000000005
 20
40.0
 10
55.11699999999996
 20
40.0
 10
57.26599999999996
 20
40.0
 10
59.41399999999999
 20
40.0
 10
61.56200000000001
 20
40.0
 10
63.71100000000001
 20
40.0
 10
65.85899999999998
 20
40.0
 10
68.00799999999998
 20
40.0
 10
70.156
 20
40.0
 10
72.305
 20
40.0
 10
74.45299999999997
 20
40.0
 10
76.60199999999998
 20
40.0
 10
78.75
 20
40.0
 10
80.89800000000002
 20
40.0
 10
83.04700000000003
 20
40.0
 10
85.195
 20
40.0
 10
87.344
 20
40.0
 10
89.49200000000002
 20
40.0
 10
91.64100000000002
 20
40.0
 10
93.78899999999999
 20
40.0
 10
95.93700000000001
 20
40.0
 10
98.08600000000001
 20
40.0
 10
100.23399999999998
 20
40.0
 10
102.38299999999998
 20
40.0
 10
104.531
 20
40.0
 10
106.68
 20
40.0
 10
108.82799999999997
 20
40.0
 10
110.97699999999998
 20
40.0
 10
113.125
 20
40.0
 10
115.27300000000002
 20
40.0
 10
117.42200000000003
 20
40.0
 10
119.57
 20
40.0
 10
121.719
 20
40.0
 10
123.86700000000002
 20
40.0
 10
126.01600000000002
 20
40.0
 10
128.164
 20
40.0
 10
130.312
 20
40.0
 10
132.461
 20
40.0
 10
134.60899999999998
 20
40.0
 10
136.75799999999998
 20
40.0
 10
138.906
 20
40.0
 10
141.055
 20
40.0
 10
143.20299999999997
 20
40.0
 10
145.35199999999998
 20
40.0
 10
147.5
 20
40.0
 10
149.64800000000002
 20
40.0
 10
151.79700000000003
 20
40.0
 10
153.945
 20
40.0
 10
156.094
 20
40.0
 10
158.24200000000002
 20
40.0
 10
160.39100000000002
 20
40.0
 10
162.539
 20
40.0
 10
164.687
 20
40.0
 10
166.836
 20
40.0
 10
168.98399999999998
 20
40.0
 10
171.13299999999998
 20
40.0
 10
173.281
 20
40.0
 10
175.43
 20
40.0
 10
177.57799999999997
 20
40.0
 10
179.72699999999998
 20
40.0
 10
181.875
 20
40.0
 10
184.02300000000002
 20
40.0
 10
186.17200000000003
 20
40.0
 10
188.32
 20
40.0
 10
190.469
 20
40.0
 10
192.61700000000002
 20
40.0
 10
194.76600000000002
 20
40.0
 10
196.914
 20
40.0
 10
199.062
 20
40.0
 10
201.211
 20
40.0
 10
203.35899999999998
 20
40.0
 10
205.50799999999998
 20
40.0
 10
207.656
 20
40.0
 10
209.805
 20
40.0
 10
211.95299999999997
 20
40.0
 10
214.10199999999998
 20
40.0
 10
216.25
 20
40.0
 10
218.39800000000002
 20
40.0
 10
220.54700000000003
 20
40.0
 10
222.695
 20
40.0
 10
224.844
 20
40.0
 10
226.99200000000002
 20
40.0
 10
229.14100000000002
 20
40.0
 10
231.289
 20
40.0
 10
233.437
 20
40.0
 10
235.586
 20
40.0
 10
237.73399999999998
 20
40.0
 10
239.88299999999998
 20
40.0
 10
242.031
 20
40.0
 10
244.18
 20
40.0
 10
246.32799999999997
 20
40.0
 10
248.47699999999998
 20
40.0
 10
250.625
 20
40.0
 10
252.77300000000002
 20
40.0
 10
254.92200000000003
 20
40.0
 10
257.07
 20
40.0
 10
259.219
 20
40.0
 10
261.367
 20
40.0
 10
263.516
 20
40.0
 10
265.664
 20
40.0
 10
267.812
 20
40.0
 10
269.961
 20
40.0
 10
272.109
 20
40.0
 10
274.258
 20
40.0
 10
276.406
 20
40.0
 10
278.555
 20
40.0
 10
280.703
 20
40.0
 10
282.852
 20
40.0
 10
285.0
 20
40.0
 10
287.148
 20
40.0
 10
289.297
 20
40.0
 10
291.445
 20
40.0
 10
293.594
 20
40.0
 10
295.742
 20
40.0
 10
297.891
 20
40.0
 10
300.039
 20
40.0
 10
302.187
 20
40.0
 10
304.336
 20
40.0
 10
306.484
 20
40.0
 10
308.633
 20
40.0
 10
310.781
 20
40.0
 10
312.93
 20
40.0
 10
315.078
 20
40.0
 10
317.227
 20
40.0
 10
319.375
 20
40.0
 10
321.523
 20
40.0
 10
323.672
 20
40.0
 10
325.82
 20
40.0
 10
327.969
 20
40.0
 10
330.11699999999996
 20
40.0
 10
332.26599999999996
 20
40.0
 10
334.414
 20
40.0
 10
336.562
 20
40.0
 10
338.711
 20
40.0
 10
340.85900000000004
 20
40.0
 10
343.00800000000004
 20
40.0
 10
345.156
 20
40.0
 10
347.305
 20
40.0
 10
349.453
 20
40.0
 10
351.602
 20
40.0
 10
353.75
 20
40.0
 10
355.898
 20
40.0
 10
358.047
 20
40.0
 10
360.195
 20
40.0
 10
362.344
 20
40.0
 10
364.49199999999996
 20
40.0
 10
366.64099999999996
 20
40.0
 10
368.789
 20
40.0
 10
370.938
 20
40.0
 10
373.086
 20
40.0
 10
375.23400000000004
 20
40.0
 10
377.38300000000004
 20
40.0
 10
379.531
 20
40.0
 10
381.68
 20
40.0
 10
383.828
 20
40.0
 10
385.977
 20
40.0
 10
388.125
 20
40.0
 10
390.273
 20
40.0
 10
392.422
 20
40.0
 10
394.57
 20
40.0
 10
396.719
 20
40.0
 10
398.86699999999996
 20
40.0
 10
401.01599999999996
 20
40.0
 10
403.164
 20
40.0
 10
405.312
 20
40.0
 10
407.461
 20
40.0
 10
409.60900000000004
 20
40.0
 10
411.75800000000004
 20
40.0
 10
413.906
 20
40.0
 10
416.055
 20
40.0
 10
418.203
 20
40.0
 10
420.352
 20
40.0
 10
422.5
 20
40.0
 10
424.648
 20
40.0
 10
426.797
 20
40.0
 10
428.945
 20
40.0
 10
431.094
 20
40.0
 10
433.24199999999996
 20
40.0
 10
435.39099999999996
 20
40.0
 10
437.539
 20
40.0
 10
439.687
 20
40.0
 10
441.836
 20
40.0
 10
443.984
 20
40.0
 10
446.133
 20
40.0
 10
448.281
 20
40.0
 10
450.43
 20
40.0
 10
452.578
 20
40.0
 10
454.727
 20
40.0
 10
456.875
 20
40.0
 10
459.023
 20
40.0
 10
461.172
 20
40.0
 10
463.32
 20
40.0
 10
465.469
 20
40.0
 10
467.617
 20
40.0
 10
469.766
 20
40.0
 10
471.914
 20
40.0
 10
474.063
 20
40.0
 10
476.211
 20
40.0
 10
478.359
 20
40.0
 10
480.508
 20
40.0
 10
482.656
 20
40.0
 10
484.805
 20
40.0
 10
486.953
 20
40.0
 10
489.102
 20
40.0
 10
491.25
 20
40.0
 10
493.398
 20
40.0
 10
495.547
 20
40.0
 10
497.695
 20
40.0
 10
499.844
 20
40.0
 10
501.992
 20
40.0
 10
504.141
 20
40.0
 10
506.289
 20
40.0
 10
508.437
 20
40.0
 10
510.586
 20
40.0
 10
512.734
 20
40.0
 10
514.883
 20
40.0
 10
517.031
 20
40.0
 10
519.18
 20
40.0
 10
521.328
 20
40.0
 10
523.477
 20
40.0
 10
525.625
 20
40.0
 10
527.773
 20
40.0
 10
529.922
 20
40.0
 10
532.07
 20
40.0
 10
534.219
 20
40.0
 10
536.367
 20
40.0
 10
538.516
 20
40.0
 10
540.664
 20
40.0
 10
542.812
 20
40.0
 10
544.961
 20
40.0
 10
547.109
 20
40.0
 10
549.258
 20
40.0
 10
551.406
 20
40.0
 10
553.555
 20
40.0
 10
555.703
 20
40.0
 10
557.852
 20
40.0
 10
560.0
 20
40.0
 10
560.0
 20
38.125
 10
560.0
 20
36.25
 10
560.0
 20
34.375
 10
560.0
 20
32.5
 10
560.0
 20
30.625
 10
560.0
 20
28.75
 10
560.0
 20
26.875
 10
560.0
 20
25.0
 10
560.0
 20
23.125
 10
560.0
 20
21.25
 10
560.0
 20
19.375
 10
560.0
 20
17.5
 10
560.0
 20
15.625
 10
560.0
 20
13.75
 10
560.0
 20
11.875
 10
560.0
 20
10.0
 10
557.852
 20
10.0
 10
555.703
 20
10.0
 10
553.555
 20
10.0
 10
551.406
 20
10.0
 10
549.258
 20
10.0
 10
547.109
 20
10.0
 10
544.961
 20
10.0
 10
542.812
 20
10.0
 10
540.664
 20
10.0
 10
538.516
 20
10.0
 10
536.367
 20
10.0
 10
534.219
 20
10.0
 10
532.07
 20
10.0
 10
529.922
 20
10.0
 10
527.773
 20
10.0
 10
525.625
 20
10.0
 10
523.477
 20
10.0
 10
521.328
 20
10.0
 10
519.18
 20
10.0
 10
517.031
 20
10.0
 10
514.883
 20
10.0
 10
512.734
 20
10.0
 10
510.586
 20
10.0
 10
508.437
 20
10.0
 10
506.289
 20
10.0
 10
504.141
 20
10.0
 10
501.992
 20
10.0
 10
499.844
 20
10.0
 10
497.695
 20
10.0
 10
495.547
 20
10.0
 10
493.398
 20
10.0
 10
491.25
 20
10.0
 10
489.102
 20
10.0
 10
486.953
 20
10.0
 10
484.805
 20
10.0
 10
482.656
 20
10.0
 10
480.508
 20
10.0
 10
478.359
 20
10.0
 10
476.211
 20
10.0
 10
474.063
 20
10.0
 10
471.914
 20
10.0
 10
469.766
 20
10.0
 10
467.617
 20
10.0
 10
465.469
 20
10.0
 10
463.32
 20
10.0
 10
461.172
 20
10.0
 10
459.023
 20
10.0
 10
456.875
 20
10.0
 10
454.727
 20
10.0
 10
452.578
 20
10.0
 10
450.43
 20
10.0
 10
448.281
 20
10.0
 10
446.133
 20
10.0
 10
443.984
 20
10.0
 10
441.836
 20
10.0
 10
439.687
 20
10.0
 10
437.539
 20
10.0
 10
435.39099999999996
 20
10.0
 10
433.24199999999996
 20
10.0
 10
431.094
 20
10.0
 10
428.945
 20
10.0
 10
426.797
 20
10.0
 10
424.648
 20
10.0
 10
422.5
 20
10.0
 10
420.352
 20
10.0
 10
418.203
 20
10.0
 10
416.055
 20
10.0
 10
413.906
 20
10.0
 10
411.75800000000004
 20
10.0
 10
409.60900000000004
 20
10.0
 10
407.461
 20
10.0
 10
405.312
 20
10.0
 10
403.164
 20
10.0
 10
401.01599999999996
 20
10.0
 10
398.86699999999996
 20
10.0
 10
396.719
 20
10.0
 10
394.57
 20
10.0
 10
392.422
 20
10.0
 10
390.273
 20
10.0
 10
388.125
 20
10.0
 10
385.977
 20
10.0
 10
383.828
 20
10.0
 10
381.68
 20
10.0
 10
379.531
 20
10.0
 10
377.38300000000004
 20
10.0
 10
375.23400000000004
 20
10.0
 10
373.086
 20
10.0
 10
370.938
 20
10.0
 10
368.789
 20
10.0
 10
366.64099999999996
 20
10.0
 10
364.49199999999996
 20
10.0
 10
362.344
 20
10.0
 10
360.195
 20
10.0
 10
358.047
 20
10.0
 10
355.898
 20
10.0
 10
353.75
 20
10.0
 10
351.602
 20
10.0
 10
349.453
 20
10.0
 10
347.305
 20
10.0
 10
345.156
 20
10.0
 10
343.00800000000004
 20
10.0
 10
340.85900000000004
 20
10.0
 10
338.711
 20
10.0
 10
336.562
 20
10.0
 10
334.414
 20
10.0
 10
332.26599999999996
 20
10.0
 10
330.11699999999996
 20
10.0
 10
327.969
 20
10.0
 10
325.82
 20
10.0
 10
323.672
 20
10.0
 10
321.523
 20
10.0
 10
319.375
 20
10.0
 10
317.227
 20
10.0
 10
315.078
 20
10.0
 10
312.93
 20
10.0
 10
310.781
 20
10.0
 10
308.633
 20
10.0
 10
306.484
 20
10.0
 10
304.336
 20
10.0
 10
302.187
 20
10.0
 10
300.039
 20
10.0
 10
297.891
 20
10.0
 10
295.742
 20
10.0
 10
293.594
 20
10.0
 10
291.445
 20
10.0
 10
289.297
 20
10.0
 10
287.148
 20
10.0
 10
285.0
 20
10.0
 10
282.852
 20
10.0
 10
280.703
 20
10.0
 10
278.555
 20
10.0
 10
276.406
 20
10.0
 10
274.258
 20
10.0
 10
272.109
 20
10.0
 10
269.961
 20
10.0
 10
267.812
 20
10.0
 10
265.664
 20
10.0
 10
263.516
 20
10.0
 10
261.367
 20
10.0
 10
259.219
 20
10.0
 10
257.07
 20
10.0
 10
254.92200000000003
 20
10.0
 10
252.77300000000002
 20
10.0
 10
250.625
 20
10.0
 10
248.47699999999998
 20
10.0
 10
246.32799999999997
 20
10.0
 10
244.18
 20
10.0
 10
242.031
 20
10.0
 10
239.88299999999998
 20
10.0
 10
237.73399999999998
 20
10.0
 10
235.586
 20
10.0
 10
233.437
 20
10.0
 10
231.289
 20
10.0
 10
229.14100000000002
 20
10.0
 10
226.99200000000002
 20
10.0
 10
224.844
 20
10.0
 10
222.695
 20
10.0
 10
220.54700000000003
 20
10.0
 10
218.39800000000002
 20
10.0
 10
216.25
 20
10.0
 10
214.10199999999998
 20
10.0
 10
211.95299999999997
 20
10.0
 10
209.805
 20
10.0
 10
207.656
 20
10.0
 10
205.50799999999998
 20
10.0
 10
203.35899999999998
 20
10.0
 10
201.211
 20
10.0
 10
199.062
 20
10.0
 10
196.914
 20
10.0
 10
194.76600000000002
 20
10.0
 10
192.61700000000002
 20
10.0
 10
190.469
 20
10.0
 10
188.32
 20
10.0
 10
186.17200000000003
 20
10.0
 10
184.02300000000002
 20
10.0
 10
181.875
 20
10.0
 10
179.72699999999998
 20
10.0
 10
177.57799999999997
 20
10.0
 10
175.43
 20
10.0
 10
173.281
 20
10.0
 10
171.13299999999998
 20
10.0
 10
168.98399999999998
 20
10.0
 10
166.836
 20
10.0
 10
164.687
 20
10.0
 10
162.539
 20
10.0
 10
160.39100000000002
 20
10.0
 10
158.24200000000002
 20
10.0
 10
156.094
 20
10.0
 10
153.945
 20
10.0
 10
151.79700000000003
 20
10.0
 10
149.64800000000002
 20
10.0
 10
147.5
 20
10.0
 10
145.35199999999998
 20
10.0
 10
143.20299999999997
 20
10.0
 10
141.055
 20
10.0
 10
138.906
 20
10.0
 10
136.75799999999998
 20
10.0
 10
134.60899999999998
 20
10.0
 10
132.461
 20
10.0
 10
130.312
 20
10.0
 10
128.164
 20
10.0
 10
126.01600000000002
 20
10.0
 10
123.86700000000002
 20
10.0
 10
121.719
 20
10.0
 10
119.57
 20
10.0
 10
117.42200000000003
 20
10.0
 10
115.27300000000002
 20
10.0
 10
113.125
 20
10.0
 10
110.97699999999998
 20
10.0
 10
108.82799999999997
 20
10.0
 10
106.68
 20
10.0
 10
104.531
 20
10.0
 10
102.38299999999998
 20
10.0
 10
100.23399999999998
 20
10.0
 10
98.08600000000001
 20
10.0
 10
95.93700000000001
 20
10.0
 10
93.78899999999999
 20
10.0
 10
91.64100000000002
 20
10.0
 10
89.49200000000002
 20
10.0
 10
87.344
 20
10.0
 10
85.195
 20
10.0
 10
83.04700000000003
 20
10.0
 10
80.89800000000002
 20
10.0
 10
78.75
 20
10.0
 10
76.60199999999998
 20
10.0
 10
74.45299999999997
 20
10.0
 10
72.305
 20
10.0
 10
70.156
 20
10.0
 10
68.00799999999998
 20
10.0
 10
65.85899999999998
 20
10.0
 10
63.71100000000001
 20
10.0
 10
61.56200000000001
 20
10.0
 10
59.41399999999999
 20
10.0
 10
57.26599999999996
 20
10.0
 10
55.11699999999996
 20
10.0
 10
52.96900000000005
 20
10.0
 10
50.82000000000005
 20
10.0
 10
48.672000000000025
 20
10.0
 10
46.523000000000025
 20
10.0
 10
44.375
 20
10.0
 10
42.226999999999975
 20
10.0
 10
40.077999999999975
 20
10.0
 10
37.92999999999995
 20
10.0
 10
35.78099999999995
 20
10.0
 10
33.63300000000004
 20
10.0
 10
31.484000000000037
 20
10.0
 10
29.336000000000013
 20
10.0
 10
27.187000000000012
 20
10.0
 10
25.038999999999987
 20
10.0
 10
22.890999999999963
 20
10.0
 10
20.741999999999962
 20
10.0
 10
18.59400000000005
 20
10.0
 10
16.44500000000005
 20
10.0
 10
14.297000000000025
 20
10.0
 10
12.148000000000025
 20
10.0
 10
10.0
 20
10.0
 10
10.0
 20
11.875
 10
10.0
 20
13.75
 10
10.0
 20
15.625
 10
10.0
 20
17.5
 10
10.0
 20
19.375
 10
10.0
 20
21.25
 10
10.0
 20
23.125
 10
10.0
 20
25.0
 10
10.0
 20
26.875
 10
10.0
 20
28.75
 10
10.0
 20
30.625
 10
10.0
 20
32.5
 10
10.0
 20
34.375
 10
10.0
 20
36.25
 10
10.0
 20
38.125
 10
10.0
 20
40.0
  0
TEXT
  5
9F
330
17
100
AcDbEntity
  8
LABEL
100
AcDbText
 10
285.0
 20
25.0
 30
0.0
 40
10.0
  1
F piece-6
 72
1
 11
285.0
 21
25.0
 31
0.0
100
AcDbText
 73
2
  0
LWPOLYLINE
  5
A0
330
17
100
AcDbEntity
  8
CUT
100
AcDbPolyline
 90
308
 70
1
 10
1102.773
 20
0.0
 10
1135.0
 20
0.0
 10
1135.98
 20
0.04800000000000182
 10
1136.951
 20
0.19200000000000728
 10
1137.903
 20
0.4309999999999832
 10
1138.827
 20
0.7610000000000241
 10
1139.714
 20
1.1809999999999832
 10
1140.556
 20
1.6850000000000023
 10
1141.344
 20
2.269999999999982
 10
1142.071
 20
2.9290000000000305
 10
1142.73
 20
3.656000000000006
 10
1143.315
 20
4.444000000000017
 10
1143.819
 20
5.286000000000001
 10
1144.239
 20
6.173000000000002
 10
1144.569
 20
7.09699999999998
 10
1144.808
 20
8.048999999999978
 10
1144.952
 20
9.019999999999982
 10
1145.0
 20
10.0
 10
1145.0
 20
40.0
 10
1144.952
 20
40.98000000000002
 10
1144.808
 20
41.95100000000002
 10
1144.569
 20
42.90300000000002
 10
1144.239
 20
43.827
 10
1143.819
 20
44.714
 10
1143.315
 20
45.55599999999998
 10
1142.73
 20
46.343999999999994
 10
1142.071
 20
47.071000000000026
 10
1141.344
 20
47.73000000000002
 10
1140.556
 20
48.315
 10
1139.714
 20
48.81900000000002
 10
1138.827
 20
49.238999999999976
 10
1137.903
 20
49.56900000000002
 10
1136.951
 20
49.80799999999999
 10
1135.98
 20
49.952
 10
1135.0
 20
50.0
 10
1132.852
 20
50.0
 10
1130.703
 20
50.0
 10
1128.555
 20
50.0
 10
1126.406
 20
50.0
 10
1124.258
 20
50.0
 10
1122.109
 20
50.0
 10
1119.961
 20
50.0
 10
1117.812
 20
50.0
 10
1113.516
 20
50.0
 10
1111.367
 20
50.0
 10
1109.219
 20
50.0
 10
1107.07
 20
50.0
 10
1104.922
 20
50.0
 10
1102.773
 20
50.0
 10
1100.625
 20
50.0
 10
1094.18
 20
50.0
 10
1092.031
 20
50.0
 10
1087.734
 20
50.0
 10
1085.586
 20
50.0
 10
1083.438
 20
50.0
 10
1081.289
 20
50.0
 10
1079.141
 20
50.0
 10
1076.992
 20
50.0
 10
1074.844
 20
50.0
 10
1070.547
 20
50.0
 10
1068.398
 20
50.0
 10
1066.25
 20
50.0
 10
1064.102
 20
50.0
 10
1061.953
 20
50.0
 10
1059.805
 20
50.0
 10
1057.656
 20
50.0
 10
1055.508
 20
50.0
 10
1053.359
 20
50.0
 10
1051.211
 20
50.0
 10
1049.063
 20
50.0
 10
1046.914
 20
50.0
 10
1044.766
 20
50.0
 10
1042.617
 20
50.0
 10
1040.469
 20
50.0
 10
1038.32
 20
50.0
 10
1036.172
 20
50.0
 10
1034.023
 20
50.0
 10
1031.875
 20
50.0
 10
1029.727
 20
50.0
 10
1027.578
 20
50.0
 10
1025.43
 20
50.0
 10
1023.281
 20
50.0
 10
1021.133
 20
50.0
 10
1018.984
 20
50.0
 10
1016.836
 20
50.0
 10
1014.688
 20
50.0
 10
1012.539
 20
50.0
 10
1010.391
 20
50.0
 10
1008.242
 20
50.0
 10
1006.094
 20
50.0
 10
1003.9449999999999
 20
50.0
 10
1001.797
 20
50.0
 10
999.648
 20
50.0
 10
993.203
 20
50.0
 10
991.0550000000001
 20
50.0
 10
986.758
 20
50.0
 10
984.609
 20
50.0
 10
982.461
 20
50.0
 10
980.313
 20
50.0
 10
978.164
 20
50.0
 10
976.016
 20
50.0
 10
973.867
 20
50.0
 10
967.422
 20
50.0
 10
965.273
 20
50.0
 10
960.977
 20
50.0
 10
958.828
 20
50.0
 10
956.6800000000001
 20
50.0
 10
954.531
 20
50.0
 10
952.383
 20
50.0
 10
950.234
 20
50.0
 10
948.086
 20
50.0
 10
945.938
 20
50.0
 10
943.789
 20
50.0
 10
941.641
 20
50.0
 10
939.492
 20
50.0
 10
935.1949999999999
 20
50.0
 10
933.047
 20
50.0
 10
930.898
 20
50.0
 10
928.75
 20
50.0
 10
926.602
 20
50.0
 10
924.453
 20
50.0
 10
922.3050000000001
 20
50.0
 10
915.859
 20
50.0
 10
913.711
 20
50.0
 10
911.563
 20
50.0
 10
909.414
 20
50.0
 10
907.266
 20
50.0
 10
905.117
 20
50.0
 10
902.969
 20
50.0
 10
900.8199999999999
 20
50.0
 10
898.672
 20
50.0
 10
896.523
 20
50.0
 10
892.227
 20
50.0
 10
890.078
 20
50.0
 10
887.9300000000001
 20
50.0
 10
883.633
 20
50.0
 10
881.4839999999999
 20
50.0
 10
879.336
 20
50.0
 10
877.188
 20
50.0
 10
875.039
 20
50.0
 10
872.8910000000001
 20
50.0
 10
868.594
 20
50.0
 10
866.4449999999999
 20
50.0
 10
857.852
 20
50.0
 10
855.703
 20
50.0
 10
853.5550000000001
 20
50.0
 10
851.406
 20
50.0
 10
849.258
 20
50.0
 10
847.1089999999999
 20
50.0
 10
844.961
 20
50.0
 10
842.813
 20
50.0
 10
840.664
 20
50.0
 10
838.5160000000001
 20
50.0
 10
836.367
 20
50.0
 10
827.773
 20
50.0
 10
825.625
 20
50.0
 10
823.477
 20
50.0
 10
821.328
 20
50.0
 10
814.883
 20
50.0
 10
812.7339999999999
 20
50.0
 10
810.586
 20
50.0
 10
808.438
 20
50.0
 10
806.289
 20
50.0
 10
801.992
 20
50.0
 10
799.844
 20
50.0
 10
797.6949999999999
 20
50.0
 10
795.547
 20
50.0
 10
791.25
 20
50.0
 10
789.102
 20
50.0
 10
786.953
 20
50.0
 10
784.8050000000001
 20
50.0
 10
776.211
 20
50.0
 10
774.063
 20
50.0
 10
771.914
 20
50.0
 10
769.7660000000001
 20
50.0
 10
763.3199999999999
 20
50.0
 10
761.172
 20
50.0
 10
759.023
 20
50.0
 10
756.875
 20
50.0
 10
754.727
 20
50.0
 10
750.4300000000001
 20
50.0
 10
748.281
 20
50.0
 10
746.133
 20
50.0
 10
743.9839999999999
 20
50.0
 10
737.539
 20
50.0
 10
735.3910000000001
 20
50.0
 10
733.242
 20
50.0
 10
724.648
 20
50.0
 10
722.5
 20
50.0
 10
720.352
 20
50.0
 10
718.203
 20
50.0
 10
716.0550000000001
 20
50.0
 10
713.906
 20
50.0
 10
709.6089999999999
 20
50.0
 10
707.461
 20
50.0
 10
703.164
 20
50.0
 10
701.0160000000001
 20
50.0
 10
698.867
 20
50.0
 10
696.719
 20
50.0
 10
694.5699999999999
 20
50.0
 10
692.422
 20
50.0
 10
690.273
 20
50.0
 10
688.125
 20
50.0
 10
683.828
 20
50.0
 10
681.6800000000001
 20
50.0
 10
677.383
 20
50.0
 10
675.2339999999999
 20
50.0
 10
673.086
 20
50.0
 10
670.938
 20
50.0
 10
668.789
 20
50.0
 10
666.6410000000001
 20
50.0
 10
664.492
 20
50.0
 10
662.344
 20
50.0
 10
658.047
 20
50.0
 10
655.898
 20
50.0
 10
653.75
 20
50.0
 10
651.602
 20
50.0
 10
649.453
 20
50.0
 10
647.3050000000001
 20
50.0
 10
645.156
 20
50.0
 10
643.008
 20
50.0
 10
640.8589999999999
 20
50.0
 10
638.711
 20
50.0
 10
636.563
 20
50.0
 10
634.414
 20
50.0
 10
630.117
 20
50.0
 10
627.969
 20
50.0
 10
625.82
 20
50.0
 10
623.672
 20
50.0
 10
621.523
 20
50.0
 10
619.375
 20
50.0
 10
617.227
 20
50.0
 10
615.078
 20
50.0
 10
612.93
 20
50.0
 10
610.781
 20
50.0
 10
606.484
 20
50.0
 10
604.336
 20
50.0
 10
600.039
 20
50.0
 10
597.891
 20
50.0
 10
595.742
 20
50.0
 10
593.594
 20
50.0
 10
589.297
 20
50.0
 10
587.148
 20
50.0
 10
585.0
 20
50.0
 10
584.02
 20
49.952
 10
583.049
 20
49.80799999999999
 10
582.097
 20
49.56900000000002
 10
581.173
 20
49.238999999999976
 10
580.286
 20
48.81900000000002
 10
579.444
 20
48.315
 10
578.656
 20
47.73000000000002
 10
577.929
 20
47.071000000000026
 10
577.27
 20
46.343999999999994
 10
576.685
 20
45.55599999999998
 10
576.181
 20
44.714
 10
575.761
 20
43.827
 10
575.431
 20
42.90300000000002
 10
575.192
 20
41.95100000000002
 10
575.048
 20
40.98000000000002
 10
575.0
 20
40.0
 10
575.0
 20
38.125
 10
575.0
 20
36.25
 10
575.0
 20
34.375
 10
575.0
 20
32.5
 10
575.0
 20
30.625
 10
575.0
 20
28.75
 10
575.0
 20
26.875
 10
575.0
 20
23.125
 10
575.0
 20
21.25
 10
575.0
 20
19.375
 10
575.0
 20
17.5
 10
575.0
 20
15.625
 10
575.0
 20
13.75
 10
575.0
 20
11.875
 10
575.0
 20
10.0
 10
575.048
 20
9.019999999999982
 10
575.192
 20
8.048999999999978
 10
575.431
 20
7.09699999999998
 10
575.761
 20
6.173000000000002
 10
576.181
 20
5.286000000000001
 10
576.685
 20
4.444000000000017
 10
577.27
 20
3.656000000000006
 10
577.929
 20
2.9290000000000305
 10
578.656
 20
2.269999999999982
 10
579.444
 20
1.6850000000000023
 10
580.286
 20
1.1809999999999832
 10
581.173
 20
0.7610000000000241
 10
582.097
 20
0.4309999999999832
 10
583.049
 20
0.19200000000000728
 10
584.02
 20
0.04800000000000182
 10
585.0
 20
0.0
 10
617.227
 20
0.0
 10
619.375
 20
0.0
 10
621.523
 20
0.0
 10
720.352
 20
0.0
 10
722.5
 20
0.0
 10
724.648
 20
0.0
 10
823.477
 20
0.0
 10
825.625
 20
0.0
 10
827.773
 20
0.0
 10
892.227
 20
0.0
 10
894.375
 20
0.0
 10
896.523
 20
0.0
 10
995.352
 20
0.0
 10
997.5
 20
0.0
 10
999.648
 20
0.0
 10
1098.477
 20
0.0
 10
1100.625
 20
0.0
  0
LWPOLYLINE
  5
A1
330
17
100
AcDbEntity
  8
STITCH
100
AcDbPolyline
 90
544
 70
1
 10
1132.852
 20
10.0
 10
1130.703
 20
10.0
 10
1128.555
 20
10.0
 10
1126.406
 20
10.0
 10
1124.258
 20
10.0
 10
1122.109
 20
10.0
 10
1119.961
 20
10.0
 10
1117.812
 20
10.0
 10
1115.664
 20
10.0
 10
1113.516
 20
10.0
 10
1111.367
 20
10.0
 10
1109.219
 20
10.0
 10
1107.07
 20
10.0
 10
1104.922
 20
10.0
 10
1102.773
 20
10.0
 10
1100.625
 20
10.0
 10
1098.477
 20
10.0
 10
1096.328
 20
10.0
 10
1094.18
 20
10.0
 10
1092.031
 20
10.0
 10
1089.883
 20
10.0
 10
1087.734
 20
10.0
 10
1085.586
 20
10.0
 10
1083.438
 20
10.0
 10
1081.289
 20
10.0
 10
1079.141
 20
10.0
 10
1076.992
 20
10.0
 10
1074.844
 20
10.0
 10
1072.695
 20
10.0
 10
1070.547
 20
10.0
 10
1068.398
 20
10.0
 10
1066.25
 20
10.0
 10
1064.102
 20
10.0
 10
1061.953
 20
10.0
 10
1059.805
 20
10.0
 10
1057.656
 20
10.0
 10
1055.508
 20
10.0
 10
1053.359
 20
10.0
 10
1051.211
 20
10.0
 10
1049.063
 20
10.0
 10
1046.914
 20
10.0
 10
1044.766
 20
10.0
 10
1042.617
 20
10.0
 10
1040.469
 20
10.0
 10
1038.32
 20
10.0
 10
1036.172
 20
10.0
 10
1034.023
 20
10.0
 10
1031.875
 20
10.0
 10
1029.727
 20
10.0
 10
1027.578
 20
10.0
 10
1025.43
 20
10.0
 10
1023.281
 20
10.0
 10
1021.133
 20
10.0
 10
1018.984
 20
10.0
 10
1016.836
 20
10.0
 10
1014.688
 20
10.0
 10
1012.539
 20
10.0
 10
1010.391
 20
10.0
 10
1008.242
 20
10.0
 10
1006.094
 20
10.0
 10
1003.9449999999999
 20
10.0
 10
1001.797
 20
10.0
 10
999.648
 20
10.0
 10
997.5
 20
10.0
 10
995.352
 20
10.0
 10
993.203
 20
10.0
 10
991.0550000000001
 20
10.0
 10
988.906
 20
10.0
 10
986.758
 20
10.0
 10
984.609
 20
10.0
 10
982.461
 20
10.0
 10
980.313
 20
10.0
 10
978.164
 20
10.0
 10
976.016
 20
10.0
 10
973.867
 20
10.0
 10
971.719
 20
10.0
 10
969.5699999999999
 20
10.0
 10
967.422
 20
10.0
 10
965.273
 20
10.0
 10
963.125
 20
10.0
 10
960.977
 20
10.0
 10
958.828
 20
10.0
 10
956.6800000000001
 20
10.0
 10
954.531
 20
10.0
 10
952.383
 20
10.0
 10
950.234
 20
10.0
 10
948.086
 20
10.0
 10
945.938
 20
10.0
 10
943.789
 20
10.0
 10
941.641
 20
10.0
 10
939.492
 20
10.0
 10
937.344
 20
10.0
 10
935.1949999999999
 20
10.0
 10
933.047
 20
10.0
 10
930.898
 20
10.0
 10
928.75
 20
10.0
 10
926.602
 20
10.0
 10
924.453
 20
10.0
 10
922.3050000000001
 20
10.0
 10
920.156
 20
10.0
 10
918.008
 20
10.0
 10
915.859
 20
10.0
 10
913.711
 20
10.0
 10
911.563
 20
10.0
 10
909.414
 20
10.0
 10
907.266
 20
10.0
 10
905.117
 20
10.0
 10
902.969
 20
10.0
 10
900.8199999999999
 20
10.0
 10
898.672
 20
10.0
 10
896.523
 20
10.0
 10
894.375
 20
10.0
 10
892.227
 20
10.0
 10
890.078
 20
10.0
 10
887.9300000000001
 20
10.0
 10
885.781
 20
10.0
 10
883.633
 20
10.0
 10
881.4839999999999
 20
10.0
 10
879.336
 20
10.0
 10
877.188
 20
10.0
 10
875.039
 20
10.0
 10
872.8910000000001
 20
10.0
 10
870.742
 20
10.0
 10
868.594
 20
10.0
 10
866.4449999999999
 20
10.0
 10
864.297
 20
10.0
 10
862.148
 20
10.0
 10
860.0
 20
10.0
 10
857.852
 20
10.0
 10
855.703
 20
10.0
 10
853.5550000000001
 20
10.0
 10
851.406
 20
10.0
 10
849.258
 20
10.0
 10
847.1089999999999
 20
10.0
 10
844.961
 20
10.0
 10
842.813
 20
10.0
 10
840.664
 20
10.0
 10
838.5160000000001
 20
10.0
 10
836.367
 20
10.0
 10
834.219
 20
10.0
 10
832.0699999999999
 20
10.0
 10
829.922
 20
10.0
 10
827.773
 20
10.0
 10
825.625
 20
10.0
 10
823.477
 20
10.0
 10
821.328
 20
10.0
 10
819.1800000000001
 20
10.0
 10
817.031
 20
10.0
 10
814.883
 20
10.0
 10
812.7339999999999
 20
10.0
 10
810.586
 20
10.0
 10
808.438
 20
10.0
 10
806.289
 20
10.0
 10
804.1410000000001
 20
10.0
 10
801.992
 20
10.0
 10
799.844
 20
10.0
 10
797.6949999999999
 20
10.0
 10
795.547
 20
10.0
 10
793.398
 20
10.0
 10
791.25
 20
10.0
 10
789.102
 20
10.0
 10
786.953
 20
10.0
 10
784.8050000000001
 20
10.0
 10
782.656
 20
10.0
 10
780.508
 20
10.0
 10
778.3589999999999
 20
10.0
 10
776.211
 20
10.0
 10
774.063
 20
10.0
 10
771.914
 20
10.0
 10
769.7660000000001
 20
10.0
 10
767.617
 20
10.0
 10
765.469
 20
10.0
 10
763.3199999999999
 20
10.0
 10
761.172
 20
10.0
 10
759.023
 20
10.0
 10
756.875
 20
10.0
 10
754.727
 20
10.0
 10
752.578
 20
10.0
 10
750.4300000000001
 20
10.0
 10
748.281
 20
10.0
 10
746.133
 20
10.0
 10
743.9839999999999
 20
10.0
 10
741.836
 20
10.0
 10
739.688
 20
10.0
 10
737.539
 20
10.0
 10
735.3910000000001
 20
10.0
 10
733.242
 20
10.0
 10
731.094
 20
10.0
 10
728.9449999999999
 20
10.0
 10
726.797
 20
10.0
 10
724.648
 20
10.0
 10
722.5
 20
10.0
 10
720.352
 20
10.0
 10
718.203
 20
10.0
 10
716.0550000000001
 20
10.0
 10
713.906
 20
10.0
 10
711.758
 20
10.0
 10
709.6089999999999
 20
10.0
 10
707.461
 20
10.0
 10
705.313
 20
10.0
 10
703.164
 20
10.0
 10
701.0160000000001
 20
10.0
 10
698.867
 20
10.0
 10
696.719
 20
10.0
 10
694.5699999999999
 20
10.0
 10
692.422
 20
10.0
 10
690.273
 20
10.0
 10
688.125
 20
10.0
 10
685.977
 20
10.0
 10
683.828
 20
10.0
 10
681.6800000000001
 20
10.0
 10
679.531
 20
10.0
 10
677.383
 20
10.0
 10
675.2339999999999
 20
10.0
 10
673.086
 20
10.0
 10
670.938
 20
10.0
 10
668.789
 20
10.0
 10
666.6410000000001
 20
10.0
 10
664.492
 20
10.0
 10
662.344
 20
10.0
 10
660.1949999999999
 20
10.0
 10
658.047
 20
10.0
 10
655.898
 20
10.0
 10
653.75
 20
10.0
 10
651.602
 20
10.0
 10
649.453
 20
10.0
 10
647.3050000000001
 20
10.0
 10
645.156
 20
10.0
 10
643.008
 20
10.0
 10
640.8589999999999
 20
10.0
 10
638.711
 20
10.0
 10
636.563
 20
10.0
 10
634.414
 20
10.0
 10
632.266
 20
10.0
 10
630.117
 20
10.0
 10
627.969
 20
10.0
 10
625.82
 20
10.0
 10
623.672
 20
10.0
 10
621.523
 20
10.0
 10
619.375
 20
10.0
 10
617.227
 20
10.0
 10
615.078
 20
10.0
 10
612.93
 20
10.0
 10
610.781
 20
10.0
 10
608.633
 20
10.0
 10
606.484
 20
10.0
 10
604.336
 20
10.0
 10
602.188
 20
10.0
 10
600.039
 20
10.0
 10
597.891
 20
10.0
 10
595.742
 20
10.0
 10
593.594
 20
10.0
 10
591.445
 20
10.0
 10
589.297
 20
10.0
 10
587.148
 20
10.0
 10
585.0
 20
10.0
 10
585.0
 20
11.875
 10
585.0
 20
13.75
 10
585.0
 20
15.625
 10
585.0
 20
17.5
 10
585.0
 20
19.375
 10
585.0
 20
21.25
 10
585.0
 20
23.125
 10
585.0
 20
25.0
 10
585.0
 20
26.875
 10
585.0
 20
28.75
 10
585.0
 20
30.625
 10
585.0
 20
32.5
 10
585.0
 20
34.375
 10
585.0
 20
36.25
 10
585.0
 20
38.125
 10
585.0
 20
40.0
 10
587.148
 20
40.0
 10
589.297
 20
40.0
 10
591.445
 20
40.0
 10
593.594
 20
40.0
 10
595.742
 20
40.0
 10
597.891
 20
40.0
 10
600.039
 20
40.0
 10
602.188
 20
40.0
 10
604.336
 20
40.0
 10
606.484
 20
40.0
 10
608.633
 20
40.0
 10
610.781
 20
40.0
 10
612.93
 20
40.0
 10
615.078
 20
40.0
 10
617.227
 20
40.0
 10
619.375
 20
40.0
 10
621.523
 20
40.0
 10
623.672
 20
40.0
 10
625.82
 20
40.0
 10
627.969
 20
40.0
 10
630.117
 20
40.0
 10
632.266
 20
40.0
 10
634.414
 20
40.0
 10
636.563
 20
40.0
 10
638.711
 20
40.0
 10
640.8589999999999
 20
40.0
 10
643.008
 20
40.0
 10
645.156
 20
40.0
 10
647.3050000000001
 20
40.0
 10
649.453
 20
40.0
 10
651.602
 20
40.0
 10
653.75
 20
40.0
 10
655.898
 20
40.0
 10
658.047
 20
40.0
 10
660.1949999999999
 20
40.0
 10
662.344
 20
40.0
 10
664.492
 20
40.0
 10
666.6410000000001
 20
40.0
 10
668.789
 20
40.0
 10
670.938
 20
40.0
 10
673.086
 20
40.0
 10
675.2339999999999
 20
40.0
 10
677.383
 20
40.0
 10
679.531
 20
40.0
 10
681.6800000000001
 20
40.0
 10
683.828
 20
40.0
 10
685.977
 20
40.0
 10
688.125
 20
40.0
 10
690.273
 20
40.0
 10
692.422
 20
40.0
 10
694.5699999999999
 20
40.0
 10
696.719
 20
40.0
 10
698.867
 20
40.0
 10
701.0160000000001
 20
40.0
 10
703.164
 20
40.0
 10
705.313
 20
40.0
 10
707.461
 20
40.0
 10
709.6089999999999
 20
40.0
 10
711.758
 20
40.0
 10
713.906
 20
40.0
 10
716.0550000000001
 20
40.0
 10
718.203
 20
40.0
 10
720.352
 20
40.0
 10
722.5
 20
40.0
 10
724.648
 20
40.0
 10
726.797
 20
40.0
 10
728.9449999999999
 20
40.0
 10
731.094
 20
40.0
 10
733.242
 20
40.0
 10
735.3910000000001
 20
40.0
 10
737.539
 20
40.0
 10
739.688
 20
40.0
 10
741.836
 20
40.0
 10
743.9839999999999
 20
40.0
 10
746.133
 20
40.0
 10
748.281
 20
40.0
 10
750.4300000000001
 20
40.0
 10
752.578
 20
40.0
 10
754.727
 20
40.0
 10
756.875
 20
40.0
 10
759.023
 20
40.0
 10
761.172
 20
40.0
 10
763.3199999999999
 20
40.0
 10
765.469
 20
40.0
 10
767.617
 20
40.0
 10
769.7660000000001
 20
40.0
 10
771.914
 20
40.0
 10
774.063
 20
40.0
 10
776.211
 20
40.0
 10
778.3589999999999
 20
40.0
 10
780.508
 20
40.0
 10
782.656
 20
40.0
 10
784.8050000000001
 20
40.0
 10
786.953
 20
40.0
 10
789.102
 20
40.0
 10
791.25
 20
40.0
 10
793.398
 20
40.0
 10
795.547
 20
40.0
 10
797.6949999999999
 20
40.0
 10
799.844
 20
40.0
 10
801.992
 20
40.0
 10
804.1410000000001
 20
40.0
 10
806.289
 20
40.0
 10
808.438
 20
40.0
 10
810.586
 20
40.0
 10
812.7339999999999
 20
40.0
 10
814.883
 20
40.0
 10
817.031
 20
40.0
 10
819.1800000000001
 20
40.0
 10
821.328
 20
40.0
 10
823.477
 20
40.0
 10
825.625
 20
40.0
 10
827.773
 20
40.0
 10
829.922
 20
40.0
 10
832.0699999999999
 20
40.0
 10
834.219
 20
40.0
 10
836.367
 20
40.0
 10
838.5160000000001
 20
40.0
 10
840.664
 20
40.0
 10
842.813
 20
40.0
 10
844.961
 20
40.0
 10
847.1089999999999
 20
40.0
 10
849.258
 20
40.0
 10
851.406
 20
40.0
 10
853.5550000000001
 20
40.0
 10
855.703
 20
40.0
 10
857.852
 20
40.0
 10
860.0
 20
40.0
 10
862.148
 20
40.0
 10
864.297
 20
40.0
 10
866.4449999999999
 20
40.0
 10
868.594
 20
40.0
 10
870.742
 20
40.0
 10
872.8910000000001
 20
40.0
 10
875.039
 20
40.0
 10
877.188
 20
40.0
 10
879.336
 20
40.0
 10
881.4839999999999
 20
40.0
 10
883.633
 20
40.0
 10
885.781
 20
40.0
 10
887.9300000000001
 20
40.0
 10
890.078
 20
40.0
 10
892.227
 20
40.0
 10
894.375
 20
40.0
 10
896.523
 20
40.0
 10
898.672
 20
40.0
 10
900.8199999999999
 20
40.0
 10
902.969
 20
40.0
 10
905.117
 20
40.0
 10
907.266
 20
40.0
 10
909.414
 20
40.0
 10
911.563
 20
40.0
 10
913.711
 20
40.0
 10
915.859
 20
40.0
 10
918.008
 20
40.0
 10
920.156
 20
40.0
 10
922.3050000000001
 20
40.0
 10
924.453
 20
40.0
 10
926.602
 20
40.0
 10
928.75
 20
40.0
 10
930.898
 20
40.0
 10
933.047
 20
40.0
 10
935.1949999999999
 20
40.0
 10
937.344
 20
40.0
 10
939.492
 20
40.0
 10
941.641
 20
40.0
 10
943.789
 20
40.0
 10
945.938
 20
40.0
 10
948.086
 20
40.0
 10
950.234
 20
40.0
 10
952.383
 20
40.0
 10
954.531
 20
40.0
 10
956.6800000000001
 20
40.0
 10
958.828
 20
40.0
 10
960.977
 20
40.0
 10
963.125
 20
40.0
 10
965.273
 20
40.0
 10
967.422
 20
40.0
 10
969.5699999999999
 20
40.0
 10
971.719
 20
40.0
 10
973.867
 20
40.0
 10
976.016
 20
40.0
 10
978.164
 20
40.0
 10
980.313
 20
40.0
 10
982.461
 20
40.0
 10
984.609
 20
40.0
 10
986.758
 20
40.0
 10
988.906
 20
40.0
 10
991.0550000000001
 20
40.0
 10
993.203
 20
40.0
 10
995.352
 20
40.0
 10
997.5
 20
40.0
 10
999.648
 20
40.0
 10
1001.797
 20
40.0
 10
1003.9449999999999
 20
40.0
 10
1006.094
 20
40.0
 10
1008.242
 20
40.0
 10
1010.391
 20
40.0
 10
1012.539
 20
40.0
 10
1014.688
 20
40.0
 10
1016.836
 20
40.0
 10
1018.984
 20
40.0
 10
1021.133
 20
40.0
 10
1023.281
 20
40.0
 10
1025.43
 20
40.0
 10
1027.578
 20
40.0
 10
1029.727
 20
40.0
 10
1031.875
 20
40.0
 10
1034.023
 20
40.0
 10
1036.172
 20
40.0
 10
1038.32
 20
40.0
 10
1040.469
 20
40.0
 10
1042.617
 20
40.0
 10
1044.766
 20
40.0
 10
1046.914
 20
40.0
 10
1049.063
 20
40.0
 10
1051.211
 20
40.0
 10
1053.359
 20
40.0
 10
1055.508
 20
40.0
 10
1057.656
 20
40.0
 10
1059.805
 20
40.0
 10
1061.953
 20
40.0
 10
1064.102
 20
40.0
 10
1066.25
 20
40.0
 10
1068.398
 20
40.0
 10
1070.547
 20
40.0
 10
1072.695
 20
40.0
 10
1074.844
 20
40.0
 10
1076.992
 20
40.0
 10
1079.141
 20
40.0
 10
1081.289
 20
40.0
 10
1083.438
 20
40.0
 10
1085.586
 20
40.0
 10
1087.734
 20
40.0
 10
1089.883
 20
40.0
 10
1092.031
 20
40.0
 10
1094.18
 20
40.0
 10
1096.328
 20
40.0
 10
1098.477
 20
40.0
 10
1100.625
 20
40.0
 10
1102.773
 20
40.0
 10
1104.922
 20
40.0
 10
1107.07
 20
40.0
 10
1109.219
 20
40.0
 10
1111.367
 20
40.0
 10
1113.516
 20
40.0
 10
1115.664
 20
40.0
 10
1117.812
 20
40.0
 10
1119.961
 20
40.0
 10
1122.109
 20
40.0
 10
1124.258
 20
40.0
 10
1126.406
 20
40.0
 10
1128.555
 20
40.0
 10
1130.703
 20
40.0
 10
1132.852
 20
40.0
 10
1135.0
 20
40.0
 10
1135.0
 20
38.125
 10
1135.0
 20
36.25
 10
1135.0
 20
34.375
 10
1135.0
 20
32.5
 10
1135.0
 20
30.625
 10
1135.0
 20
28.75
 10
1135.0
 20
26.875
 10
1135.0
 20
25.0
 10
1135.0
 20
23.125
 10
1135.0
 20
21.25
 10
1135.0
 20
19.375
 10
1135.0
 20
17.5
 10
1135.0
 20
15.625
 10
1135.0
 20
13.75
 10
1135.0
 20
11.875
 10
1135.0
 20
10.0
  0
TEXT
  5
A2
330
17
100
AcDbEntity
  8
LABEL
100
AcDbText
 10
860.0
 20
25.0
 30
0.0
 40
10.0
  1
G piece-7
 72
1
 11
860.0
 21
25.0
 31
0.0
100
AcDbText
 73
2
  0
ENDSEC
  0
SECTION
  2
OBJECTS
  0
DICTIONARY
  5
A
330
0
100
AcDbDictionary
281
1
  3
ACAD_COLOR
350
B
  3
ACAD_GROUP
350
C
  3
ACAD_LAYOUT
350
D
  3
ACAD_MATERIAL
350
E
  3
ACAD_MLEADERSTYLE
350
F
  3
ACAD_MLINESTYLE
350
10
  3
ACAD_PLOTSETTINGS
350
11
  3
ACAD_PLOTSTYLENAME
350
12
  3
ACAD_SCALELIST
350
14
  3
ACAD_TABLESTYLE
350
15
  3
ACAD_VISUALSTYLE
350
16
  3
EZDXF_META
350
2D
  0
DICTIONARY
  5
B
330
A
100
AcDbDictionary
281
1
  0
DICTIONARY
  5
C
330
A
100
AcDbDictionary
281
1
  0
DICTIONARY
  5
D
330
A
100
AcDbDictionary
281
1
  3
Model
350
1A
  3
Layout1
350
1E
  0
DICTIONARY
  5
E
330
A
100
AcDbDictionary
281
1
  3
ByBlock
350
1F
  3
ByLayer
350
20
  3
Global
350
21
  0
DICTIONARY
  5
F
330
A
100
AcDbDictionary
281
1
  3
Standard
350
2C
  0
DICTIONARY
  5
10
330
A
100
AcDbDictionary
281
1
  3
Standard
350
22
  0
DICTIONARY
  5
11
330
A
100
AcDbDictionary
281
1
  0
ACDBDICTIONARYWDFLT
  5
12
330
A
100
AcDbDictionary
281
1
  3
Normal
350
13
100
AcDbDictionaryWithDefault
340
13
  0
ACDBPLACEHOLDER
  5
13
330
12
  0
DICTIONARY
  5
14
330
A
100
AcDbDictionary
281
1
  0
DICTIONARY
  5
15
330
A
100
AcDbDictionary
281
1
  0
DICTIONARY
  5
16
330
A
100
AcDbDictionary
281
1
  3
2dWireframe
350
5A
  3
Basic
350
5B
  3
Brighten
350
5C
  3
ColorChange
350
5D
  3
Conceptual
350
5E
  3
Dim
350
5F
  3
EdgeColorOff
350
60
  3
Facepattern
350
61
  3
Flat
350
62
  3
FlatWithEdges
350
63
  3
Gouraud
350
64
  3
GouraudWithEdges
350
65
  3
Hidden
350
66
  3
JitterOff
350
67
  3
Linepattern
350
68
  3
Modeling
350
69
  3
OverhangOff
350
6A
  3
Realistic
350
6B
  3
Shaded
350
6C
  3
Shaded with edges
350
6D
  3
Shades of Gray
350
6E
  3
Sketchy
350
6F
  3
Thicken
350
70
  3
Wireframe
350
71
  3
X-Ray
350
72
  0
LAYOUT
  5
1A
330
D
100
AcDbPlotSettings
  1

  4
A3
  6

 40
7.5
 41
20.0
 42
7.5
 43
20.0
 44
420.0
 45
297.0
 46
0.0
 47
0.0
 48
0.0
 49
0.0
140
0.0
141
0.0
142
1.0
143
1.0
 70
1024
 72
1
 73
0
 74
5
  7

 75
16
 76
0
 77
2
 78
300
147
1.0
148
0.0
149
0.0
100
AcDbLayout
  1
Model
 70
1
 71
0
 10
0.0
 20
0.0
 11
420.0
 21
297.0
 12
0.0
 22
0.0
 32
0.0
 14
1e+20
 24
1e+20
 34
1e+20
 15
-1e+20
 25
-1e+20
 35
-1e+20
146
0.0
 13
0.0
 23
0.0
 33
0.0
 16
1.0
 26
0.0
 36
0.0
 17
0.0
 27
1.0
 37
0.0
 76
1
330
17
  0
LAYOUT
  5
1E
330
D
100
AcDbPlotSettings
  1

  4
A3
  6

 40
7.5
 41
20.0
 42
7.5
 43
20.0
 44
420.0
 45
297.0
 46
0.0
 47
0.0
 48
0.0
 49
0.0
140
0.0
141
0.0
142
1.0
143
1.0
 70
0
 72
1
 73
0
 74
5
  7

 75
16
 76
0
 77
2
 78
300
147
1.0
148
0.0
149
0.0
100
AcDbLayout
  1
Layout1
 70
1
 71
1
 10
0.0
 20
0.0
 11
420.0
 21
297.0
 12
0.0
 22
0.0
 32
0.0
 14
1e+20
 24
1e+20
 34
1e+20
 15
-1e+20
 25
-1e+20
 35
-1e+20
146
0.0
 13
0.0
 23
0.0
 33
0.0
 16
1.0
 26
0.0
 36
0.0
 17
0.0
 27
1.0
 37
0.0
 76
1
330
1B
  0
MATERIAL
  5
1F
102
{ACAD_REACTORS
330
E
102
}
330
E
100
AcDbMaterial
  1
ByBlock
  2

 70
0
 40
1.0
 71
1
 41
1.0
 91
-1023410177
 42
1.0
 72
1
  3

 73
1
 74
1
 75
1
 44
0.5
 73
0
 45
1.0
 46
1.0
 77
1
  4

 78
1
 79
1
170
1
 48
1.0
171
1
  6

172
1
173
1
174
1
140
1.0
141
1.0
175
1
  7

176
1
177
1
178
1
143
1.0
179
1
  8

270
1
271
1
272
1
145
1.0
146
1.0
273
1
  9

274
1
275
1
276
1
 42
1.0
 72
1
  3

 73
1
 74
1
 75
1
 94
63
  0
MATERIAL
  5
20
102
{ACAD_REACTORS
330
E
102
}
330
E
100
AcDbMaterial
  1
ByLayer
  2

 70
0
 40
1.0
 71
1
 41
1.0
 91
-1023410177
 42
1.0
 72
1
  3

 73
1
 74
1
 75
1
 44
0.5
 73
0
 45
1.0
 46
1.0
 77
1
  4

 78
1
 79
1
170
1
 48
1.0
171
1
  6

172
1
173
1
174
1
140
1.0
141
1.0
175
1
  7

176
1
177
1
178
1
143
1.0
179
1
  8

270
1
271
1
272
1
145
1.0
146
1.0
273
1
  9

274
1
275
1
276
1
 42
1.0
 72
1
  3

 73
1
 74
1
 75
1
 94
63
  0
MATERIAL
  5
21
102
{ACAD_REACTORS
330
E
102
}
330
E
100
AcDbMaterial
  1
Global
  2

 70
0
 40
1.0
 71
1
 41
1.0
 91
-1023410177
 42
1.0
 72
1
  3

 73
1
 74
1
 75
1
 44
0.5
 73
0
 45
1.0
 46
1.0
 77
1
  4

 78
1
 79
1
170
1
 48
1.0
171
1
  6

172
1
173
1
174
1
140
1.0
141
1.0
175
1
  7

176
1
177
1
178
1
143
1.0
179
1
  8

270
1
271
1
272
1
145
1.0
146
1.0
273
1
  9

274
1
275
1
276
1
 42
1.0
 72
1
  3

 73
1
 74
1
 75
1
 94
63
  0
MLINESTYLE
  5
22
102
{ACAD_REACTORS
330
10
102
}
330
10
100
AcDbMlineStyle
  2
Standard
 70
0
  3

 62
256
 51
90.0
 52
90.0
 71
2
 49
0.5
 62
256
  6
BYLAYER
 49
-0.5
 62
256
  6
BYLAYER
  0
MLEADERSTYLE
  5
2C
102
{ACAD_REACTORS
330
F
102
}
330
F
100
AcDbMLeaderStyle
179
2
170
2
171
1
172
0
 90
2
 40
0.0
 41
0.0
173
1
 91
-1056964608
 92
-2
290
1
 42
2.0
291
1
 43
8.0
  3
Standard
 44
4.0
300

342
29
174
1
175
1
176
0
178
1
 93
-1056964608
 45
4.0
292
0
297
0
 46
4.0
 94
-1056964608
 47
1.0
 49
1.0
140
1.0
294
1
141
0.0
177
0
142
1.0
295
0
296
0
143
3.75
271
0
272
9
273
9
  0
DICTIONARY
  5
2D
330
A
100
AcDbDictionary
280
1
281
1
  3
CREATED_BY_EZDXF
350
2E
  3
WRITTEN_BY_EZDXF
350
A5
  0
DICTIONARYVAR
  5
2E
330
2D
100
DictionaryVariables
280
0
  1
1.4.4 @ 2026-07-26T20:40:40.693029+00:00
  0
VISUALSTYLE
  5
5A
102
{ACAD_REACTORS
330
16
102
}
330
16
100
AcDbVisualStyle
  2
2dWireframe
 70
4
 90
0
 40
0.6
 62
7
290
0
291
0
  0
VISUALSTYLE
  5
5B
102
{ACAD_REACTORS
330
16
102
}
330
16
100
AcDbVisualStyle
  2
Basic
 70
7
 90
1
 40
0.6
 62
7
290
0
291
1
  0
VISUALSTYLE
  5
5C
102
{ACAD_REACTORS
330
16
102
}
330
16
100
AcDbVisualStyle
  2
Brighten
 70
12
 90
2
 40
0.6
 62
7
290
0
291
1
  0
VISUALSTYLE
  5
5D
102
{ACAD_REACTORS
330
16
102
}
330
16
100
AcDbVisualStyle
  2
ColorChange
 70
16
 90
2
 40
0.6
 62
8
290
0
291
1
  0
VISUALSTYLE
  5
5E
102
{ACAD_REACTORS
330
16
102
}
330
16
100
AcDbVisualStyle
  2
Conceptual
 70
9
 90
3
 40
0.6
 62
7
290
0
291
0
  0
VISUALSTYLE
  5
5F
102
{ACAD_REACTORS
330
16
102
}
330
16
100
AcDbVisualStyle
  2
Dim
 70
11
 90
2
 40
0.6
 62
7
290
0
291
1
  0
VISUALSTYLE
  5
60
102
{ACAD_REACTORS
330
16
102
}
330
16
100
AcDbVisualStyle
  2
EdgeColorOff
 70
22
 90
2
 40
0.6
 62
7
290
0
291
1
  0
VISUALSTYLE
  5
61
102
{ACAD_REACTORS
330
16
102
}
330
16
100
AcDbVisualStyle
  2
Facepattern
 70
15
 90
2
 40
0.6
 62
7
290
0
291
1
  0
VISUALSTYLE
  5
62
102
{ACAD_REACTORS
330
16
102
}
330
16
100
AcDbVisualStyle
  2
Flat
 70
0
 90
2
 40
0.6
 62
7
290
0
291
1
  0
VISUALSTYLE
  5
63
102
{ACAD_REACTORS
330
16
102
}
330
16
100
AcDbVisualStyle
  2
FlatWithEdges
 70
1
 90
2
 40
0.6
 62
7
290
0
291
1
  0
VISUALSTYLE
  5
64
102
{ACAD_REACTORS
330
16
102
}
330
16
100
AcDbVisualStyle
  2
Gouraud
 70
2
 90
2
 40
0.6
 62
7
290
0
291
1
  0
VISUALSTYLE
  5
65
102
{ACAD_REACTORS
330
16
102
}
330
16
100
AcDbVisualStyle
  2
GouraudWithEdges
 70
3
 90
2
 40
0.6
 62
7
290
0
291
1
  0
VISUALSTYLE
  5
66
102
{ACAD_REACTORS
330
16
102
}
330
16
100
AcDbVisualStyle
  2
Hidden
 70
6
 90
1
 40
0.6
 62
7
290
0
291
0
  0
VISUALSTYLE
  5
67
102
{ACAD_REACTORS
330
16
102
}
330
16
100
AcDbVisualStyle
  2
JitterOff
 70
20
 90
2
 40
0.6
 62
7
290
0
291
1
  0
VISUALSTYLE
  5
68
102
{ACAD_REACTORS
330
16
102
}
330
16
100
AcDbVisualStyle
  2
Linepattern
 70
14
 90
2
 40
0.6
 62
7
290
0
291
1
  0
VISUALSTYLE
  5
69
102
{ACAD_REACTORS
330
16
102
}
330
16
100
AcDbVisualStyle
  2
Modeling
 70
10
 90
2
 40
0.6
 62
7
290
0
291
0
  0
VISUALSTYLE
  5
6A
102
{ACAD_REACTORS
330
16
102
}
330
16
100
AcDbVisualStyle
  2
OverhangOff
 70
21
 90
2
 40
0.6
 62
7
290
0
291
1
  0
VISUALSTYLE
  5
6B
102
{ACAD_REACTORS
330
16
102
}
330
16
100
AcDbVisualStyle
  2
Realistic
 70
8
 90
2
 40
0.6
 62
7
290
0
291
0
  0
VISUALSTYLE
  5
6C
102
{ACAD_REACTORS
330
16
102
}
330
16
100
AcDbVisualStyle
  2
Shaded
 70
27
 90
2
 40
0.6
 62
7
290
0
291
0
  0
VISUALSTYLE
  5
6D
102
{ACAD_REACTORS
330
16
102
}
330
16
100
AcDbVisualStyle
  2
Shaded with edges
 70
26
 90
2
 40
0.6
 62
7
290
0
291
0
  0
VISUALSTYLE
  5
6E
102
{ACAD_REACTORS
330
16
102
}
330
16
100
AcDbVisualStyle
  2
Shades of Gray
 70
23
 90
2
 40
0.6
 62
7
290
0
291
0
  0
VISUALSTYLE
  5
6F
102
{ACAD_REACTORS
330
16
102
}
330
16
100
AcDbVisualStyle
  2
Sketchy
 70
24
 90
1
 40
0.6
 62
7
290
0
291
0
  0
VISUALSTYLE
  5
70
102
{ACAD_REACTORS
330
16
102
}
330
16
100
AcDbVisualStyle
  2
Thicken
 70
13
 90
2
 40
0.6
 62
7
290
0
291
1
  0
VISUALSTYLE
  5
71
102
{ACAD_REACTORS
330
16
102
}
330
16
100
AcDbVisualStyle
  2
Wireframe
 70
5
 90
0
 40
0.6
 62
7
290
0
291
0
  0
VISUALSTYLE
  5
72
102
{ACAD_REACTORS
330
16
102
}
330
16
100
AcDbVisualStyle
  2
X-Ray
 70
25
 90
2
 40
0.5
 62
7
290
0
291
0
  0
DICTIONARYVAR
  5
A5
330
2D
100
DictionaryVariables
280
0
  1
1.4.4 @ 2026-07-26T20:40:40.707947+00:00
  0
ENDSEC
  0
EOF
