<svg xmlns="http://www.w3.org/2000/svg" width="1371.6mm" height="394.8mm" viewBox="0 0 1371.600 394.800">
<!-- DRAFT — unverified SVG, generated 2026-07-26 by 3D-Fabric pipeline. AI drafts, engineers seal. -->
<title>FeltCheckTote nested @ 54 in</title>

<rect x="0" y="0" width="1371.600" height="394.800" fill="none" stroke="#0a84ff" stroke-width="1" stroke-dasharray="8 4"/>
<g id="piece-1-c1" class="piece" transform="translate(369.603 0.000) rotate(90)">
<title>piece-1</title>
<polygon points="339.800,359.603 339.800,20.630 339.800,10.003 339.752,9.023 339.608,8.052 339.369,7.100 339.039,6.176 338.619,5.289 338.115,4.447 337.530,3.659 336.871,2.932 336.144,2.273 335.356,1.688 334.514,1.184 333.627,0.764 332.703,0.433 331.751,0.195 330.780,0.051 329.800,0.003 319.800,0.003 309.800,0.003 299.903,0.003 289.800,0.003 279.903,0.003 269.800,0.003 259.903,0.003 249.800,0.003 239.903,0.003 229.800,0.003 219.903,0.003 199.903,0.003 189.800,0.003 179.903,0.003 169.800,0.003 159.903,0.003 139.903,0.003 129.800,0.003 119.903,0.003 109.800,0.003 99.903,0.003 89.800,0.003 79.903,0.003 29.801,0.003 19.902,0.000 10.003,0.000 9.023,0.048 8.052,0.192 7.100,0.431 6.176,0.761 5.289,1.181 4.447,1.685 3.659,2.270 2.932,2.929 2.273,3.656 1.688,4.444 1.184,5.286 0.764,6.173 0.434,7.097 0.195,8.049 0.051,9.020 0.003,10.000 0.003,19.623 0.002,29.246 0.000,39.067 0.000,68.136 0.000,77.956 0.000,301.469 0.000,311.289 0.000,340.358 0.000,350.275 0.000,359.603 0.048,360.583 0.192,361.554 0.431,362.506 0.761,363.430 1.181,364.317 1.685,365.159 2.270,365.947 2.929,366.674 3.656,367.333 4.444,367.918 5.286,368.422 6.173,368.842 7.097,369.172 8.049,369.411 9.020,369.555 10.000,369.603 19.800,369.603 29.800,369.603 39.697,369.603 49.800,369.603 59.697,369.603 69.800,369.603 79.697,369.603 89.800,369.603 99.697,369.603 109.800,369.603 119.697,369.603 129.800,369.603 139.697,369.603 149.800,369.603 159.697,369.603 169.800,369.603 179.697,369.603 189.800,369.603 199.697,369.603 209.800,369.603 219.697,369.603 229.800,369.603 239.697,369.603 249.800,369.603 259.697,369.603 269.800,369.603 279.697,369.603 289.800,369.603 299.697,369.603 309.800,369.603 319.697,369.603 329.800,369.603 330.780,369.555 331.751,369.411 332.703,369.172 333.627,368.842 334.514,368.422 335.356,367.918 336.144,367.333 336.871,366.674 337.530,365.947 338.115,365.159 338.619,364.317 339.039,363.430 339.369,362.506 339.608,361.554 339.752,360.583" fill="none" stroke="#111" stroke-width="0.5"/>
<polygon points="329.800,350.081 329.800,359.603 319.697,359.603 309.800,359.603 299.697,359.603 289.800,359.603 279.697,359.603 269.800,359.603 259.697,359.603 249.800,359.603 239.697,359.603 229.800,359.603 219.697,359.603 209.800,359.603 199.697,359.603 189.800,359.603 179.697,359.603 169.800,359.603 159.697,359.603 149.800,359.603 139.697,359.603 129.800,359.603 119.697,359.603 109.800,359.603 99.697,359.603 89.800,359.603 79.697,359.603 69.800,359.603 59.697,359.603 49.800,359.603 39.697,359.603 29.800,359.603 19.800,359.603 10.000,359.603 10.000,350.275 10.000,340.358 10.000,330.733 10.000,320.914 10.000,311.289 10.000,301.470 10.000,291.845 10.000,282.025 10.000,272.400 10.000,262.581 10.000,252.956 10.000,243.136 10.000,233.511 10.000,223.692 10.000,214.067 10.000,204.247 10.000,194.622 10.000,184.803 10.000,175.178 10.000,165.358 10.000,155.733 10.000,145.914 10.000,136.289 10.000,126.469 10.000,116.845 10.000,107.025 10.000,97.400 10.000,87.581 10.000,77.956 10.000,68.136 10.000,58.511 10.000,48.692 10.000,39.067 10.002,29.247 10.003,19.623 10.003,10.000 19.902,10.000 29.800,10.003 39.903,10.003 49.800,10.003 59.903,10.003 69.800,10.003 79.903,10.003 89.800,10.003 99.903,10.003 109.800,10.003 119.903,10.003 129.800,10.003 139.903,10.003 149.800,10.003 159.903,10.003 169.800,10.003 179.903,10.003 189.800,10.003 199.903,10.003 209.800,10.003 219.903,10.003 229.800,10.003 239.903,10.003 249.800,10.003 259.903,10.003 269.800,10.003 279.903,10.003 289.800,10.003 299.903,10.003 309.800,10.003 319.800,10.003 329.800,10.003 329.800,20.630 329.800,31.258 329.800,41.885 329.800,52.513 329.800,63.140 329.800,73.767 329.800,84.395 329.800,95.022 329.800,105.650 329.800,116.277 329.800,126.905 329.800,137.532 329.800,148.159 329.800,158.787 329.800,169.414 329.800,180.042 329.800,190.669 329.800,201.297 329.800,211.924 329.800,222.551 329.800,233.179 329.800,243.806 329.800,254.434 329.800,265.061 329.800,275.689 329.800,286.316 329.800,296.943 329.800,307.571 329.800,318.198 329.800,328.826 329.800,339.453" fill="none" stroke="#c33" stroke-width="0.35" stroke-dasharray="4 2"/>
<text x="169.9" y="184.8" font-size="14.0" text-anchor="middle" font-family="sans-serif">A<tspan x="169.9" dy="14.0" font-size="6.3">piece-1</tspan></text>
</g>
<g id="piece-2-c1" class="piece" transform="translate(744.206 0.000) rotate(90)">
<title>piece-2</title>
<polygon points="339.800,93.914 339.800,19.522 339.798,19.306 339.592,9.784 339.524,8.819 339.364,7.864 339.111,6.930 338.770,6.024 338.343,5.156 337.833,4.333 337.247,3.563 336.589,2.853 335.865,2.210 335.083,1.641 334.249,1.149 333.371,0.741 332.458,0.419 331.519,0.187 330.561,0.047 329.594,0.000 269.800,0.000 259.697,0.000 249.800,0.000 239.697,0.000 219.697,0.000 209.800,0.000 199.697,0.000 189.800,0.000 179.697,0.000 169.800,0.000 159.697,0.000 149.800,0.000 139.697,0.000 129.800,0.000 119.697,0.000 109.800,0.000 69.800,0.000 59.697,0.000 49.800,0.000 39.697,0.000 29.800,0.000 19.800,0.000 10.000,0.000 9.020,0.048 8.049,0.192 7.097,0.431 6.173,0.761 5.286,1.181 4.444,1.685 3.656,2.270 2.929,2.929 2.270,3.656 1.685,4.444 1.181,5.286 0.761,6.173 0.431,7.097 0.192,8.049 0.048,9.020 0.000,10.000 0.000,19.328 0.000,29.244 0.000,38.869 0.000,48.689 0.000,58.314 0.000,68.133 0.000,77.758 0.000,87.578 0.000,97.203 0.000,107.022 0.000,116.647 0.000,126.467 0.000,145.911 0.000,155.536 0.000,165.356 0.000,174.981 0.000,184.800 0.000,194.425 0.000,204.244 0.000,213.869 0.000,223.689 0.000,233.314 0.000,243.133 0.000,252.758 0.000,262.578 0.000,272.203 0.000,282.022 0.000,291.647 0.000,301.467 0.000,311.092 0.000,320.911 0.000,330.539 0.002,340.357 0.002,349.980 0.003,359.603 0.051,360.583 0.195,361.554 0.433,362.506 0.764,363.430 1.184,364.317 1.688,365.159 2.273,365.947 2.932,366.674 3.659,367.333 4.447,367.918 5.289,368.422 6.176,368.842 7.100,369.172 8.052,369.411 9.023,369.555 10.003,369.603 19.904,369.603 29.801,369.600 39.903,369.600 49.800,369.600 59.903,369.600 69.800,369.600 79.903,369.600 89.800,369.600 99.903,369.600 109.800,369.600 119.903,369.600 129.800,369.600 139.903,369.600 149.800,369.600 159.903,369.600 169.800,369.600 179.903,369.600 189.800,369.600 199.903,369.600 209.800,369.600 219.903,369.600 229.800,369.600 239.903,369.600 249.800,369.600 259.903,369.600 269.800,369.600 279.903,369.600 289.800,369.600 299.903,369.600 309.800,369.600 319.800,369.600 329.800,369.600 330.780,369.552 331.751,369.408 332.703,369.170 333.627,368.839 334.514,368.419 335.356,367.915 336.144,367.330 336.871,366.671 337.530,365.944 338.115,365.156 338.619,364.314 339.039,363.427 339.369,362.503 339.608,361.551 339.752,360.580 339.800,359.600 339.800,285.208 339.800,263.953 339.800,115.169" fill="none" stroke="#111" stroke-width="0.5"/>
<polygon points="329.800,30.150 329.800,40.777 329.800,51.405 329.800,62.032 329.800,72.660 329.800,83.287 329.800,93.914 329.800,104.542 329.800,115.169 329.800,125.797 329.800,136.424 329.800,147.052 329.800,157.679 329.800,168.306 329.800,178.934 329.800,189.561 329.800,200.189 329.800,210.816 329.800,221.444 329.800,232.071 329.800,242.698 329.800,253.326 329.800,263.953 329.800,274.581 329.800,285.208 329.800,295.836 329.800,306.463 329.800,317.090 329.800,327.718 329.800,338.345 329.800,348.973 329.800,359.600 319.800,359.600 309.800,359.600 299.903,359.600 289.800,359.600 279.903,359.600 269.800,359.600 259.903,359.600 249.800,359.600 239.903,359.600 229.800,359.600 219.903,359.600 209.800,359.600 199.903,359.600 189.800,359.600 179.903,359.600 169.800,359.600 159.903,359.600 149.800,359.600 139.903,359.600 129.800,359.600 119.903,359.600 109.800,359.600 99.903,359.600 89.800,359.600 79.903,359.600 69.800,359.600 59.903,359.600 49.800,359.600 39.903,359.600 29.800,359.600 19.902,359.603 10.003,359.603 10.002,349.979 10.002,340.356 10.000,330.536 10.000,320.911 10.000,311.092 10.000,301.467 10.000,291.647 10.000,282.022 10.000,272.203 10.000,262.578 10.000,252.758 10.000,243.133 10.000,233.314 10.000,223.689 10.000,213.869 10.000,204.244 10.000,194.425 10.000,184.800 10.000,174.981 10.000,165.356 10.000,155.536 10.000,145.911 10.000,136.092 10.000,126.467 10.000,116.647 10.000,107.022 10.000,97.203 10.000,87.578 10.000,77.758 10.000,68.133 10.000,58.314 10.000,48.689 10.000,38.869 10.000,29.244 10.000,19.328 10.000,10.000 19.800,10.000 29.800,10.000 39.697,10.000 49.800,10.000 59.697,10.000 69.800,10.000 79.697,10.000 89.800,10.000 99.697,10.000 109.800,10.000 119.697,10.000 129.800,10.000 139.697,10.000 149.800,10.000 159.697,10.000 169.800,10.000 179.697,10.000 189.800,10.000 199.697,10.000 209.800,10.000 219.697,10.000 229.800,10.000 239.697,10.000 249.800,10.000 259.697,10.000 269.800,10.000 279.697,10.000 289.800,10.000 299.697,10.000 309.800,10.000 319.697,10.000 329.594,10.000 329.800,19.522" fill="none" stroke="#c33" stroke-width="0.35" stroke-dasharray="4 2"/>
<text x="169.9" y="184.8" font-size="14.0" text-anchor="middle" font-family="sans-serif">B<tspan x="169.9" dy="14.0" font-size="6.3">piece-2</tspan></text>
</g>
<g id="piece-3-c1" class="piece" transform="translate(1118.812 0.000) rotate(90)">
<title>piece-3</title>
<polygon points="0.002,340.360 0.003,349.983 0.003,359.606 0.051,360.586 0.195,361.557 0.434,362.509 0.764,363.433 1.184,364.320 1.688,365.162 2.273,365.950 2.932,366.677 3.659,367.336 4.447,367.921 5.289,368.425 6.176,368.845 7.100,369.175 8.052,369.414 9.023,369.558 10.003,369.606 19.904,369.605 29.801,369.603 39.903,369.603 129.600,369.603 130.580,369.555 131.551,369.411 132.503,369.172 133.427,368.842 134.314,368.422 135.156,367.918 135.944,367.333 136.671,366.674 137.330,365.947 137.915,365.159 138.419,364.317 138.839,363.430 139.169,362.506 139.408,361.554 139.552,360.583 139.600,359.603 139.600,350.275 139.600,330.733 139.600,320.914 139.600,301.470 139.600,291.845 139.600,282.025 139.600,272.400 139.600,262.581 139.600,252.956 139.600,243.136 139.600,233.511 139.600,223.692 139.600,214.067 139.600,204.247 139.600,194.622 139.600,175.178 139.600,165.358 139.600,155.733 139.600,145.914 139.600,136.289 139.600,116.845 139.600,107.025 139.600,68.136 139.600,58.511 139.600,48.692 139.600,39.064 139.598,29.246 139.598,19.623 139.597,10.000 139.549,9.020 139.405,8.049 139.167,7.097 138.836,6.173 138.416,5.286 137.912,4.444 137.327,3.656 136.668,2.929 135.941,2.270 135.153,1.685 134.311,1.181 133.424,0.761 132.500,0.431 131.548,0.192 130.577,0.048 129.597,0.000 119.696,0.000 109.799,0.003 29.800,0.003 19.800,0.003 10.000,0.003 9.020,0.051 8.049,0.195 7.097,0.434 6.173,0.764 5.286,1.184 4.444,1.688 3.656,2.273 2.929,2.932 2.270,3.659 1.685,4.447 1.181,5.289 0.761,6.176 0.431,7.100 0.192,8.052 0.048,9.023 0.000,10.003 0.000,19.331 0.000,29.247 0.000,38.872 0.000,48.692 0.000,58.317 0.000,68.136 0.000,77.761 0.000,87.581 0.000,97.206 0.000,107.025 0.000,116.650 0.000,126.470 0.000,136.095 0.000,145.914 0.000,155.539 0.000,165.358 0.000,174.983 0.000,184.803 0.000,194.428 0.000,204.247 0.000,213.872 0.000,223.692 0.000,233.317 0.000,243.136 0.000,252.761 0.000,262.581 0.000,272.206 0.000,282.025 0.000,291.650 0.000,301.470 0.000,311.095 0.000,320.914 0.000,330.541" fill="none" stroke="#111" stroke-width="0.5"/>
<polygon points="10.002,340.358 10.000,330.539 10.000,320.914 10.000,311.095 10.000,301.470 10.000,291.650 10.000,282.025 10.000,272.206 10.000,262.581 10.000,252.761 10.000,243.136 10.000,233.317 10.000,223.692 10.000,213.872 10.000,204.247 10.000,194.428 10.000,184.803 10.000,174.983 10.000,165.358 10.000,155.539 10.000,145.914 10.000,136.095 10.000,126.470 10.000,116.650 10.000,107.025 10.000,97.206 10.000,87.581 10.000,77.761 10.000,68.136 10.000,58.317 10.000,48.692 10.000,38.872 10.000,29.247 10.000,19.331 10.000,10.003 19.800,10.003 29.800,10.003 39.697,10.003 49.800,10.003 59.697,10.003 69.800,10.003 79.697,10.003 89.800,10.003 99.697,10.003 109.800,10.003 119.698,10.000 129.597,10.000 129.598,19.624 129.598,29.247 129.600,39.067 129.600,48.692 129.600,58.511 129.600,68.136 129.600,77.956 129.600,87.581 129.600,97.400 129.600,107.025 129.600,116.845 129.600,126.470 129.600,136.289 129.600,145.914 129.600,155.733 129.600,165.358 129.600,175.178 129.600,184.803 129.600,194.622 129.600,204.247 129.600,214.067 129.600,223.692 129.600,233.511 129.600,243.136 129.600,252.956 129.600,262.581 129.600,272.400 129.600,282.025 129.600,291.845 129.600,301.470 129.600,311.289 129.600,320.914 129.600,330.734 129.600,340.358 129.600,350.275 129.600,359.603 119.800,359.603 109.800,359.603 99.903,359.603 89.800,359.603 79.903,359.603 69.800,359.603 59.903,359.603 49.800,359.603 39.903,359.603 29.800,359.603 19.902,359.605 10.003,359.606 10.003,349.982" fill="none" stroke="#c33" stroke-width="0.35" stroke-dasharray="4 2"/>
<text x="69.8" y="184.8" font-size="14.0" text-anchor="middle" font-family="sans-serif">C<tspan x="69.8" dy="14.0" font-size="6.3">piece-3</tspan></text>
</g>
<g id="piece-4-c1" class="piece" transform="translate(1089.006 144.600) rotate(90)">
<title>piece-4</title>
<polygon points="129.600,0.000 10.000,0.000 9.020,0.048 8.049,0.192 7.097,0.431 6.173,0.761 5.286,1.181 4.444,1.685 3.656,2.270 2.929,2.929 2.270,3.656 1.685,4.444 1.181,5.286 0.761,6.173 0.431,7.097 0.192,8.049 0.048,9.020 0.000,10.000 0.000,30.000 0.000,39.900 0.000,50.000 0.000,79.900 0.000,90.000 0.000,99.900 0.000,139.900 0.000,150.000 0.000,159.900 0.000,170.000 0.000,179.900 0.000,190.000 0.000,199.900 0.000,250.000 0.000,259.900 0.000,329.800 0.048,330.780 0.192,331.751 0.431,332.703 0.761,333.627 1.181,334.514 1.685,335.356 2.270,336.144 2.929,336.871 3.656,337.530 4.444,338.115 5.286,338.619 6.173,339.039 7.097,339.369 8.049,339.608 9.020,339.752 10.000,339.800 129.600,339.800 130.580,339.752 131.551,339.608 132.503,339.369 133.427,339.039 134.314,338.619 135.156,338.115 135.944,337.530 136.671,336.871 137.330,336.144 137.915,335.356 138.419,334.514 138.839,333.627 139.169,332.703 139.408,331.751 139.552,330.780 139.600,329.800 139.600,10.000 139.552,9.020 139.408,8.049 139.169,7.097 138.839,6.173 138.419,5.286 137.915,4.444 137.330,3.656 136.671,2.929 135.944,2.270 135.156,1.685 134.314,1.181 133.427,0.761 132.503,0.431 131.551,0.192 130.580,0.048" fill="none" stroke="#111" stroke-width="0.5"/>
<polygon points="119.800,10.000 129.600,10.000 129.600,20.100 129.600,30.000 129.600,40.100 129.600,50.000 129.600,60.100 129.600,70.000 129.600,80.100 129.600,90.000 129.600,100.100 129.600,110.000 129.600,120.100 129.600,130.000 129.600,140.100 129.600,150.000 129.600,160.100 129.600,170.000 129.600,180.100 129.600,190.000 129.600,200.100 129.600,210.000 129.600,220.100 129.600,230.000 129.600,240.100 129.600,250.000 129.600,260.100 129.600,270.000 129.600,280.100 129.600,290.000 129.600,300.100 129.600,310.000 129.600,320.200 129.600,329.800 119.800,329.800 109.800,329.800 99.900,329.800 89.800,329.800 79.900,329.800 69.800,329.800 59.900,329.800 49.800,329.800 39.900,329.800 29.800,329.800 19.900,329.800 10.000,329.800 10.000,319.900 10.000,310.000 10.000,299.900 10.000,290.000 10.000,279.900 10.000,270.000 10.000,259.900 10.000,250.000 10.000,239.900 10.000,230.000 10.000,219.900 10.000,210.000 10.000,199.900 10.000,190.000 10.000,179.900 10.000,170.000 10.000,159.900 10.000,150.000 10.000,139.900 10.000,130.000 10.000,119.900 10.000,110.000 10.000,99.900 10.000,90.000 10.000,79.900 10.000,70.000 10.000,59.900 10.000,50.000 10.000,39.900 10.000,30.000 10.000,19.800 10.000,10.000 23.725,10.000 37.450,10.000 51.175,10.000 64.900,10.000 78.625,10.000 92.350,10.000 106.075,10.000" fill="none" stroke="#c33" stroke-width="0.35" stroke-dasharray="4 2"/>
<text x="69.8" y="169.9" font-size="14.0" text-anchor="middle" font-family="sans-serif">D<tspan x="69.8" dy="14.0" font-size="6.3">piece-4</tspan></text>
</g>
<g id="piece-5-c1" class="piece" transform="translate(1123.812 0.000) rotate(0)">
<title>piece-5</title>
<polygon points="129.600,0.000 19.800,0.000 19.596,0.002 9.796,0.202 8.830,0.269 7.874,0.429 6.939,0.680 6.032,1.021 5.163,1.448 4.339,1.957 3.568,2.543 2.857,3.201 2.214,3.925 1.643,4.708 1.151,5.542 0.742,6.420 0.420,7.334 0.187,8.274 0.047,9.233 0.000,10.200 0.000,20.100 0.000,30.000 0.000,40.100 0.000,50.000 0.000,60.100 0.000,70.000 0.000,90.000 0.000,100.100 0.000,110.000 0.000,130.000 0.000,140.100 0.000,150.000 0.000,210.000 0.000,220.100 0.000,230.000 0.000,250.000 0.000,260.100 0.000,270.000 0.000,280.100 0.000,290.000 0.000,300.100 0.000,310.000 0.000,329.800 0.048,330.780 0.192,331.751 0.431,332.703 0.761,333.627 1.181,334.514 1.685,335.356 2.270,336.144 2.929,336.871 3.656,337.530 4.444,338.115 5.286,338.619 6.173,339.039 7.097,339.369 8.049,339.608 9.020,339.752 10.000,339.800 129.600,339.800 130.580,339.752 131.551,339.608 132.503,339.369 133.427,339.039 134.314,338.619 135.156,338.115 135.944,337.530 136.671,336.871 137.330,336.144 137.915,335.356 138.419,334.514 138.839,333.627 139.169,332.703 139.408,331.751 139.552,330.780 139.600,329.800 139.600,319.900 139.600,310.000 139.600,299.900 139.600,290.000 139.600,279.900 139.600,270.000 139.600,259.900 139.600,250.000 139.600,239.900 139.600,230.000 139.600,219.900 139.600,210.000 139.600,190.000 139.600,179.900 139.600,170.000 139.600,159.900 139.600,150.000 139.600,139.900 139.600,130.000 139.600,119.900 139.600,99.900 139.600,90.000 139.600,79.900 139.600,70.000 139.600,59.900 139.600,39.900 139.600,30.000 139.600,19.800 139.600,10.000 139.552,9.020 139.408,8.049 139.169,7.097 138.839,6.173 138.419,5.286 137.915,4.444 137.330,3.656 136.671,2.929 135.944,2.270 135.156,1.685 134.314,1.181 133.427,0.761 132.503,0.431 131.551,0.192 130.580,0.048" fill="none" stroke="#111" stroke-width="0.5"/>
<polygon points="129.600,10.000 129.600,19.800 129.600,30.000 129.600,39.900 129.600,50.000 129.600,59.900 129.600,70.000 129.600,79.900 129.600,90.000 129.600,99.900 129.600,110.000 129.600,119.900 129.600,130.000 129.600,139.900 129.600,150.000 129.600,159.900 129.600,170.000 129.600,179.900 129.600,190.000 129.600,199.900 129.600,210.000 129.600,219.900 129.600,230.000 129.600,239.900 129.600,250.000 129.600,259.900 129.600,270.000 129.600,279.900 129.600,290.000 129.600,299.900 129.600,310.000 129.600,319.900 129.600,329.800 119.700,329.800 109.800,329.800 99.700,329.800 89.800,329.800 79.700,329.800 69.800,329.800 59.700,329.800 49.800,329.800 39.700,329.800 29.800,329.800 19.600,329.800 10.000,329.800 10.000,320.000 10.000,310.000 10.000,300.100 10.000,290.000 10.000,280.100 10.000,270.000 10.000,260.100 10.000,250.000 10.000,240.100 10.000,230.000 10.000,220.100 10.000,210.000 10.000,200.100 10.000,190.000 10.000,180.100 10.000,170.000 10.000,160.100 10.000,150.000 10.000,140.100 10.000,130.000 10.000,120.100 10.000,110.000 10.000,100.100 10.000,90.000 10.000,80.100 10.000,70.000 10.000,60.100 10.000,50.000 10.000,40.100 10.000,30.000 10.000,20.100 10.000,10.200 19.800,10.000 33.525,10.000 47.250,10.000 60.975,10.000 74.700,10.000 88.425,10.000 102.150,10.000 115.875,10.000" fill="none" stroke="#c33" stroke-width="0.35" stroke-dasharray="4 2"/>
<text x="69.8" y="169.9" font-size="14.0" text-anchor="middle" font-family="sans-serif">E<tspan x="69.8" dy="14.0" font-size="6.3">piece-5</tspan></text>
</g>
<g id="piece-6-c1" class="piece" transform="translate(570.000 344.800) rotate(90)">
<title>piece-6</title>
<polygon points="0.000,557.852 0.000,560.000 0.048,560.980 0.192,561.951 0.431,562.903 0.761,563.827 1.181,564.714 1.685,565.556 2.270,566.344 2.929,567.071 3.656,567.730 4.444,568.315 5.286,568.819 6.173,569.239 7.097,569.569 8.049,569.808 9.020,569.952 10.000,570.000 11.875,570.000 13.750,570.000 15.625,570.000 17.500,570.000 19.375,570.000 21.250,570.000 23.125,570.000 25.000,570.000 26.875,570.000 28.750,570.000 30.625,570.000 32.500,570.000 34.375,570.000 36.250,570.000 38.125,570.000 40.000,570.000 40.980,569.952 41.951,569.808 42.903,569.569 43.827,569.239 44.714,568.819 45.556,568.315 46.344,567.730 47.071,567.071 47.730,566.344 48.315,565.556 48.819,564.714 49.239,563.827 49.569,562.903 49.808,561.951 49.952,560.980 50.000,560.000 50.000,527.773 50.000,525.625 50.000,523.477 50.000,424.648 50.000,422.500 50.000,420.352 50.000,321.523 50.000,319.375 50.000,317.227 50.000,252.773 50.000,248.477 50.000,149.648 50.000,147.500 50.000,145.352 50.000,46.523 50.000,44.375 50.000,42.227 50.000,10.000 49.952,9.020 49.808,8.049 49.569,7.097 49.239,6.173 48.819,5.286 48.315,4.444 47.730,3.656 47.071,2.929 46.344,2.270 45.556,1.685 44.714,1.181 43.827,0.761 42.903,0.431 41.951,0.192 40.980,0.048 40.000,0.000 10.000,0.000 9.020,0.048 8.049,0.192 7.097,0.431 6.173,0.761 5.286,1.181 4.444,1.685 3.656,2.270 2.929,2.929 2.270,3.656 1.685,4.444 1.181,5.286 0.761,6.173 0.431,7.097 0.192,8.049 0.048,9.020 0.000,10.000 0.000,12.148 0.000,14.297 0.000,16.445 0.000,18.594 0.000,22.891 0.000,25.039 0.000,29.336 0.000,31.484 0.000,33.633 0.000,35.781 0.000,37.930 0.000,40.078 0.000,44.375 0.000,46.523 0.000,50.820 0.000,52.969 0.000,57.266 0.000,59.414 0.000,61.563 0.000,63.711 0.000,65.859 0.000,70.156 0.000,72.305 0.000,74.453 0.000,76.602 0.000,78.750 0.000,80.898 0.000,83.047 0.000,85.195 0.000,87.344 0.000,89.492 0.000,91.641 0.000,93.789 0.000,95.937 0.000,98.086 0.000,100.234 0.000,102.383 0.000,104.531 0.000,106.680 0.000,108.828 0.000,110.977 0.000,113.125 0.000,115.273 0.000,117.422 0.000,119.570 0.000,121.719 0.000,123.867 0.000,126.016 0.000,128.164 0.000,130.313 0.000,132.461 0.000,134.609 0.000,136.758 0.000,138.906 0.000,141.055 0.000,143.203 0.000,145.352 0.000,147.500 0.000,149.648 0.000,151.797 0.000,156.094 0.000,158.242 0.000,160.391 0.000,162.539 0.000,164.688 0.000,166.836 0.000,168.984 0.000,171.133 0.000,173.281 0.000,175.430 0.000,177.578 0.000,181.875 0.000,184.023 0.000,186.172 0.000,188.320 0.000,190.469 0.000,192.617 0.000,194.766 0.000,196.914 0.000,199.062 0.000,201.211 0.000,203.359 0.000,207.656 0.000,209.805 0.000,211.953 0.000,214.102 0.000,216.250 0.000,218.398 0.000,220.547 0.000,222.695 0.000,224.844 0.000,231.289 0.000,233.438 0.000,235.586 0.000,237.734 0.000,239.883 0.000,242.031 0.000,244.180 0.000,246.328 0.000,248.477 0.000,250.625 0.000,254.922 0.000,257.070 0.000,259.219 0.000,263.516 0.000,265.664 0.000,267.813 0.000,269.961 0.000,272.109 0.000,276.406 0.000,278.555 0.000,280.703 0.000,282.852 0.000,285.000 0.000,287.148 0.000,289.297 0.000,291.445 0.000,293.594 0.000,295.742 0.000,297.891 0.000,300.039 0.000,302.188 0.000,304.336 0.000,306.484 0.000,308.633 0.000,310.781 0.000,312.930 0.000,315.078 0.000,317.227 0.000,319.375 0.000,321.523 0.000,323.672 0.000,325.820 0.000,327.969 0.000,330.117 0.000,332.266 0.000,334.414 0.000,336.563 0.000,338.711 0.000,340.859 0.000,343.008 0.000,345.156 0.000,347.305 0.000,349.453 0.000,351.602 0.000,353.750 0.000,355.898 0.000,358.047 0.000,360.195 0.000,362.344 0.000,364.492 0.000,366.641 0.000,368.789 0.000,373.086 0.000,377.383 0.000,379.531 0.000,381.680 0.000,383.828 0.000,385.977 0.000,388.125 0.000,392.422 0.000,394.570 0.000,396.719 0.000,398.867 0.000,401.016 0.000,403.164 0.000,407.461 0.000,409.609 0.000,411.758 0.000,416.055 0.000,418.203 0.000,420.352 0.000,422.500 0.000,424.648 0.000,426.797 0.000,428.945 0.000,431.094 0.000,433.242 0.000,435.391 0.000,437.539 0.000,441.836 0.000,443.984 0.000,446.133 0.000,448.281 0.000,450.430 0.000,452.578 0.000,454.727 0.000,456.875 0.000,459.023 0.000,461.172 0.000,463.320 0.000,467.617 0.000,469.766 0.000,471.914 0.000,474.063 0.000,476.211 0.000,478.359 0.000,480.508 0.000,482.656 0.000,484.805 0.000,486.953 0.000,489.102 0.000,491.250 0.000,493.398 0.000,495.547 0.000,497.695 0.000,499.844 0.000,501.992 0.000,504.141 0.000,506.289 0.000,508.438 0.000,510.586 0.000,512.734 0.000,514.883 0.000,517.031 0.000,519.180 0.000,521.328 0.000,523.477 0.000,525.625 0.000,527.773 0.000,529.922 0.000,532.070 0.000,534.219 0.000,536.367 0.000,538.516 0.000,540.664 0.000,542.813 0.000,544.961 0.000,547.109 0.000,549.258 0.000,551.406 0.000,553.555 0.000,555.703" fill="none" stroke="#111" stroke-width="0.5"/>
<polygon points="10.000,557.852 10.000,555.703 10.000,553.555 10.000,551.406 10.000,549.258 10.000,547.109 10.000,544.961 10.000,542.813 10.000,540.664 10.000,538.516 10.000,536.367 10.000,534.219 10.000,532.070 10.000,529.922 10.000,527.773 10.000,525.625 10.000,523.477 10.000,521.328 10.000,519.180 10.000,517.031 10.000,514.883 10.000,512.734 10.000,510.586 10.000,508.438 10.000,506.289 10.000,504.141 10.000,501.992 10.000,499.844 10.000,497.695 10.000,495.547 10.000,493.398 10.000,491.250 10.000,489.102 10.000,486.953 10.000,484.805 10.000,482.656 10.000,480.508 10.000,478.359 10.000,476.211 10.000,474.063 10.000,471.914 10.000,469.766 10.000,467.617 10.000,465.469 10.000,463.320 10.000,461.172 10.000,459.023 10.000,456.875 10.000,454.727 10.000,452.578 10.000,450.430 10.000,448.281 10.000,446.133 10.000,443.984 10.000,441.836 10.000,439.688 10.000,437.539 10.000,435.391 10.000,433.242 10.000,431.094 10.000,428.945 10.000,426.797 10.000,424.648 10.000,422.500 10.000,420.352 10.000,418.203 10.000,416.055 10.000,413.906 10.000,411.758 10.000,409.609 10.000,407.461 10.000,405.313 10.000,403.164 10.000,401.016 10.000,398.867 10.000,396.719 10.000,394.570 10.000,392.422 10.000,390.273 10.000,388.125 10.000,385.977 10.000,383.828 10.000,381.680 10.000,379.531 10.000,377.383 10.000,375.234 10.000,373.086 10.000,370.938 10.000,368.789 10.000,366.641 10.000,364.492 10.000,362.344 10.000,360.195 10.000,358.047 10.000,355.898 10.000,353.750 10.000,351.602 10.000,349.453 10.000,347.305 10.000,345.156 10.000,343.008 10.000,340.859 10.000,338.711 10.000,336.563 10.000,334.414 10.000,332.266 10.000,330.117 10.000,327.969 10.000,325.820 10.000,323.672 10.000,321.523 10.000,319.375 10.000,317.227 10.000,315.078 10.000,312.930 10.000,310.781 10.000,308.633 10.000,306.484 10.000,304.336 10.000,302.188 10.000,300.039 10.000,297.891 10.000,295.742 10.000,293.594 10.000,291.445 10.000,289.297 10.000,287.148 10.000,285.000 10.000,282.852 10.000,280.703 10.000,278.555 10.000,276.406 10.000,274.258 10.000,272.109 10.000,269.961 10.000,267.813 10.000,265.664 10.000,263.516 10.000,261.367 10.000,259.219 10.000,257.070 10.000,254.922 10.000,252.773 10.000,250.625 10.000,248.477 10.000,246.328 10.000,244.180 10.000,242.031 10.000,239.883 10.000,237.734 10.000,235.586 10.000,233.438 10.000,231.289 10.000,229.141 10.000,226.992 10.000,224.844 10.000,222.695 10.000,220.547 10.000,218.398 10.000,216.250 10.000,214.102 10.000,211.953 10.000,209.805 10.000,207.656 10.000,205.508 10.000,203.359 10.000,201.211 10.000,199.062 10.000,196.914 10.000,194.766 10.000,192.617 10.000,190.469 10.000,188.320 10.000,186.172 10.000,184.023 10.000,181.875 10.000,179.727 10.000,177.578 10.000,175.430 10.000,173.281 10.000,171.133 10.000,168.984 10.000,166.836 10.000,164.688 10.000,162.539 10.000,160.391 10.000,158.242 10.000,156.094 10.000,153.945 10.000,151.797 10.000,149.648 10.000,147.500 10.000,145.352 10.000,143.203 10.000,141.055 10.000,138.906 10.000,136.758 10.000,134.609 10.000,132.461 10.000,130.313 10.000,128.164 10.000,126.016 10.000,123.867 10.000,121.719 10.000,119.570 10.000,117.422 10.000,115.273 10.000,113.125 10.000,110.977 10.000,108.828 10.000,106.680 10.000,104.531 10.000,102.383 10.000,100.234 10.000,98.086 10.000,95.937 10.000,93.789 10.000,91.641 10.000,89.492 10.000,87.344 10.000,85.195 10.000,83.047 10.000,80.898 10.000,78.750 10.000,76.602 10.000,74.453 10.000,72.305 10.000,70.156 10.000,68.008 10.000,65.859 10.000,63.711 10.000,61.563 10.000,59.414 10.000,57.266 10.000,55.117 10.000,52.969 10.000,50.820 10.000,48.672 10.000,46.523 10.000,44.375 10.000,42.227 10.000,40.078 10.000,37.930 10.000,35.781 10.000,33.633 10.000,31.484 10.000,29.336 10.000,27.188 10.000,25.039 10.000,22.891 10.000,20.742 10.000,18.594 10.000,16.445 10.000,14.297 10.000,12.148 10.000,10.000 11.875,10.000 13.750,10.000 15.625,10.000 17.500,10.000 19.375,10.000 21.250,10.000 23.125,10.000 25.000,10.000 26.875,10.000 28.750,10.000 30.625,10.000 32.500,10.000 34.375,10.000 36.250,10.000 38.125,10.000 40.000,10.000 40.000,12.148 40.000,14.297 40.000,16.445 40.000,18.594 40.000,20.742 40.000,22.891 40.000,25.039 40.000,27.188 40.000,29.336 40.000,31.484 40.000,33.633 40.000,35.781 40.000,37.930 40.000,40.078 40.000,42.227 40.000,44.375 40.000,46.523 40.000,48.672 40.000,50.820 40.000,52.969 40.000,55.117 40.000,57.266 40.000,59.414 40.000,61.563 40.000,63.711 40.000,65.859 40.000,68.008 40.000,70.156 40.000,72.305 40.000,74.453 40.000,76.602 40.000,78.750 40.000,80.898 40.000,83.047 40.000,85.195 40.000,87.344 40.000,89.492 40.000,91.641 40.000,93.789 40.000,95.937 40.000,98.086 40.000,100.234 40.000,102.383 40.000,104.531 40.000,106.680 40.000,108.828 40.000,110.977 40.000,113.125 40.000,115.273 40.000,117.422 40.000,119.570 40.000,121.719 40.000,123.867 40.000,126.016 40.000,128.164 40.000,130.313 40.000,132.461 40.000,134.609 40.000,136.758 40.000,138.906 40.000,141.055 40.000,143.203 40.000,145.352 40.000,147.500 40.000,149.648 40.000,151.797 40.000,153.945 40.000,156.094 40.000,158.242 40.000,160.391 40.000,162.539 40.000,164.688 40.000,166.836 40.000,168.984 40.000,171.133 40.000,173.281 40.000,175.430 40.000,177.578 40.000,179.727 40.000,181.875 40.000,184.023 40.000,186.172 40.000,188.320 40.000,190.469 40.000,192.617 40.000,194.766 40.000,196.914 40.000,199.062 40.000,201.211 40.000,203.359 40.000,205.508 40.000,207.656 40.000,209.805 40.000,211.953 40.000,214.102 40.000,216.250 40.000,218.398 40.000,220.547 40.000,222.695 40.000,224.844 40.000,226.992 40.000,229.141 40.000,231.289 40.000,233.438 40.000,235.586 40.000,237.734 40.000,239.883 40.000,242.031 40.000,244.180 40.000,246.328 40.000,248.477 40.000,250.625 40.000,252.773 40.000,254.922 40.000,257.070 40.000,259.219 40.000,261.367 40.000,263.516 40.000,265.664 40.000,267.813 40.000,269.961 40.000,272.109 40.000,274.258 40.000,276.406 40.000,278.555 40.000,280.703 40.000,282.852 40.000,285.000 40.000,287.148 40.000,289.297 40.000,291.445 40.000,293.594 40.000,295.742 40.000,297.891 40.000,300.039 40.000,302.188 40.000,304.336 40.000,306.484 40.000,308.633 40.000,310.781 40.000,312.930 40.000,315.078 40.000,317.227 40.000,319.375 40.000,321.523 40.000,323.672 40.000,325.820 40.000,327.969 40.000,330.117 40.000,332.266 40.000,334.414 40.000,336.563 40.000,338.711 40.000,340.859 40.000,343.008 40.000,345.156 40.000,347.305 40.000,349.453 40.000,351.602 40.000,353.750 40.000,355.898 40.000,358.047 40.000,360.195 40.000,362.344 40.000,364.492 40.000,366.641 40.000,368.789 40.000,370.938 40.000,373.086 40.000,375.234 40.000,377.383 40.000,379.531 40.000,381.680 40.000,383.828 40.000,385.977 40.000,388.125 40.000,390.273 40.000,392.422 40.000,394.570 40.000,396.719 40.000,398.867 40.000,401.016 40.000,403.164 40.000,405.313 40.000,407.461 40.000,409.609 40.000,411.758 40.000,413.906 40.000,416.055 40.000,418.203 40.000,420.352 40.000,422.500 40.000,424.648 40.000,426.797 40.000,428.945 40.000,431.094 40.000,433.242 40.000,435.391 40.000,437.539 40.000,439.688 40.000,441.836 40.000,443.984 40.000,446.133 40.000,448.281 40.000,450.430 40.000,452.578 40.000,454.727 40.000,456.875 40.000,459.023 40.000,461.172 40.000,463.320 40.000,465.469 40.000,467.617 40.000,469.766 40.000,471.914 40.000,474.063 40.000,476.211 40.000,478.359 40.000,480.508 40.000,482.656 40.000,484.805 40.000,486.953 40.000,489.102 40.000,491.250 40.000,493.398 40.000,495.547 40.000,497.695 40.000,499.844 40.000,501.992 40.000,504.141 40.000,506.289 40.000,508.438 40.000,510.586 40.000,512.734 40.000,514.883 40.000,517.031 40.000,519.180 40.000,521.328 40.000,523.477 40.000,525.625 40.000,527.773 40.000,529.922 40.000,532.070 40.000,534.219 40.000,536.367 40.000,538.516 40.000,540.664 40.000,542.813 40.000,544.961 40.000,547.109 40.000,549.258 40.000,551.406 40.000,553.555 40.000,555.703 40.000,557.852 40.000,560.000 38.125,560.000 36.250,560.000 34.375,560.000 32.500,560.000 30.625,560.000 28.750,560.000 26.875,560.000 25.000,560.000 23.125,560.000 21.250,560.000 19.375,560.000 17.500,560.000 15.625,560.000 13.750,560.000 11.875,560.000 10.000,560.000" fill="none" stroke="#c33" stroke-width="0.35" stroke-dasharray="4 2"/>
<text x="25.0" y="285.0" font-size="14.0" text-anchor="middle" font-family="sans-serif">F<tspan x="25.0" dy="14.0" font-size="6.3">piece-6</tspan></text>
</g>
<g id="piece-7-c1" class="piece" transform="translate(1145.000 344.800) rotate(90)">
<title>piece-7</title>
<polygon points="50.000,42.227 50.000,10.000 49.952,9.020 49.808,8.049 49.569,7.097 49.239,6.173 48.819,5.286 48.315,4.444 47.730,3.656 47.071,2.929 46.344,2.270 45.556,1.685 44.714,1.181 43.827,0.761 42.903,0.431 41.951,0.192 40.980,0.048 40.000,0.000 10.000,0.000 9.020,0.048 8.049,0.192 7.097,0.431 6.173,0.761 5.286,1.181 4.444,1.685 3.656,2.270 2.929,2.929 2.270,3.656 1.685,4.444 1.181,5.286 0.761,6.173 0.431,7.097 0.192,8.049 0.048,9.020 0.000,10.000 0.000,12.148 0.000,14.297 0.000,16.445 0.000,18.594 0.000,20.742 0.000,22.891 0.000,25.039 0.000,27.188 0.000,31.484 0.000,33.633 0.000,35.781 0.000,37.930 0.000,40.078 0.000,42.227 0.000,44.375 0.000,50.820 0.000,52.969 0.000,57.266 0.000,59.414 0.000,61.562 0.000,63.711 0.000,65.859 0.000,68.008 0.000,70.156 0.000,74.453 0.000,76.602 0.000,78.750 0.000,80.898 0.000,83.047 0.000,85.195 0.000,87.344 0.000,89.492 0.000,91.641 0.000,93.789 0.000,95.937 0.000,98.086 0.000,100.234 0.000,102.383 0.000,104.531 0.000,106.680 0.000,108.828 0.000,110.977 0.000,113.125 0.000,115.273 0.000,117.422 0.000,119.570 0.000,121.719 0.000,123.867 0.000,126.016 0.000,128.164 0.000,130.312 0.000,132.461 0.000,134.609 0.000,136.758 0.000,138.906 0.000,141.055 0.000,143.203 0.000,145.352 0.000,151.797 0.000,153.945 0.000,158.242 0.000,160.391 0.000,162.539 0.000,164.687 0.000,166.836 0.000,168.984 0.000,171.133 0.000,177.578 0.000,179.727 0.000,184.023 0.000,186.172 0.000,188.320 0.000,190.469 0.000,192.617 0.000,194.766 0.000,196.914 0.000,199.062 0.000,201.211 0.000,203.359 0.000,205.508 0.000,209.805 0.000,211.953 0.000,214.102 0.000,216.250 0.000,218.398 0.000,220.547 0.000,222.695 0.000,229.141 0.000,231.289 0.000,233.437 0.000,235.586 0.000,237.734 0.000,239.883 0.000,242.031 0.000,244.180 0.000,246.328 0.000,248.477 0.000,252.773 0.000,254.922 0.000,257.070 0.000,261.367 0.000,263.516 0.000,265.664 0.000,267.812 0.000,269.961 0.000,272.109 0.000,276.406 0.000,278.555 0.000,287.148 0.000,289.297 0.000,291.445 0.000,293.594 0.000,295.742 0.000,297.891 0.000,300.039 0.000,302.187 0.000,304.336 0.000,306.484 0.000,308.633 0.000,317.227 0.000,319.375 0.000,321.523 0.000,323.672 0.000,330.117 0.000,332.266 0.000,334.414 0.000,336.562 0.000,338.711 0.000,343.008 0.000,345.156 0.000,347.305 0.000,349.453 0.000,353.750 0.000,355.898 0.000,358.047 0.000,360.195 0.000,368.789 0.000,370.937 0.000,373.086 0.000,375.234 0.000,381.680 0.000,383.828 0.000,385.977 0.000,388.125 0.000,390.273 0.000,394.570 0.000,396.719 0.000,398.867 0.000,401.016 0.000,407.461 0.000,409.609 0.000,411.758 0.000,420.352 0.000,422.500 0.000,424.648 0.000,426.797 0.000,428.945 0.000,431.094 0.000,435.391 0.000,437.539 0.000,441.836 0.000,443.984 0.000,446.133 0.000,448.281 0.000,450.430 0.000,452.578 0.000,454.727 0.000,456.875 0.000,461.172 0.000,463.320 0.000,467.617 0.000,469.766 0.000,471.914 0.000,474.062 0.000,476.211 0.000,478.359 0.000,480.508 0.000,482.656 0.000,486.953 0.000,489.102 0.000,491.250 0.000,493.398 0.000,495.547 0.000,497.695 0.000,499.844 0.000,501.992 0.000,504.141 0.000,506.289 0.000,508.437 0.000,510.586 0.000,514.883 0.000,517.031 0.000,519.180 0.000,521.328 0.000,523.477 0.000,525.625 0.000,527.773 0.000,529.922 0.000,532.070 0.000,534.219 0.000,538.516 0.000,540.664 0.000,544.961 0.000,547.109 0.000,549.258 0.000,551.406 0.000,555.703 0.000,557.852 0.000,560.000 0.048,560.980 0.192,561.951 0.431,562.903 0.761,563.827 1.181,564.714 1.685,565.556 2.270,566.344 2.929,567.071 3.656,567.730 4.444,568.315 5.286,568.819 6.173,569.239 7.097,569.569 8.049,569.808 9.020,569.952 10.000,570.000 11.875,570.000 13.750,570.000 15.625,570.000 17.500,570.000 19.375,570.000 21.250,570.000 23.125,570.000 26.875,570.000 28.750,570.000 30.625,570.000 32.500,570.000 34.375,570.000 36.250,570.000 38.125,570.000 40.000,570.000 40.980,569.952 41.951,569.808 42.903,569.569 43.827,569.239 44.714,568.819 45.556,568.315 46.344,567.730 47.071,567.071 47.730,566.344 48.315,565.556 48.819,564.714 49.239,563.827 49.569,562.903 49.808,561.951 49.952,560.980 50.000,560.000 50.000,527.773 50.000,525.625 50.000,523.477 50.000,424.648 50.000,422.500 50.000,420.352 50.000,321.523 50.000,319.375 50.000,317.227 50.000,252.773 50.000,250.625 50.000,248.477 50.000,149.648 50.000,147.500 50.000,145.352 50.000,46.523 50.000,44.375" fill="none" stroke="#111" stroke-width="0.5"/>
<polygon points="40.000,12.148 40.000,14.297 40.000,16.445 40.000,18.594 40.000,20.742 40.000,22.891 40.000,25.039 40.000,27.188 40.000,29.336 40.000,31.484 40.000,33.633 40.000,35.781 40.000,37.930 40.000,40.078 40.000,42.227 40.000,44.375 40.000,46.523 40.000,48.672 40.000,50.820 40.000,52.969 40.000,55.117 40.000,57.266 40.000,59.414 40.000,61.562 40.000,63.711 40.000,65.859 40.000,68.008 40.000,70.156 40.000,72.305 40.000,74.453 40.000,76.602 40.000,78.750 40.000,80.898 40.000,83.047 40.000,85.195 40.000,87.344 40.000,89.492 40.000,91.641 40.000,93.789 40.000,95.937 40.000,98.086 40.000,100.234 40.000,102.383 40.000,104.531 40.000,106.680 40.000,108.828 40.000,110.977 40.000,113.125 40.000,115.273 40.000,117.422 40.000,119.570 40.000,121.719 40.000,123.867 40.000,126.016 40.000,128.164 40.000,130.312 40.000,132.461 40.000,134.609 40.000,136.758 40.000,138.906 40.000,141.055 40.000,143.203 40.000,145.352 40.000,147.500 40.000,149.648 40.000,151.797 40.000,153.945 40.000,156.094 40.000,158.242 40.000,160.391 40.000,162.539 40.000,164.687 40.000,166.836 40.000,168.984 40.000,171.133 40.000,173.281 40.000,175.430 40.000,177.578 40.000,179.727 40.000,181.875 40.000,184.023 40.000,186.172 40.000,188.320 40.000,190.469 40.000,192.617 40.000,194.766 40.000,196.914 40.000,199.062 40.000,201.211 40.000,203.359 40.000,205.508 40.000,207.656 40.000,209.805 40.000,211.953 40.000,214.102 40.000,216.250 40.000,218.398 40.000,220.547 40.000,222.695 40.000,224.844 40.000,226.992 40.000,229.141 40.000,231.289 40.000,233.437 40.000,235.586 40.000,237.734 40.000,239.883 40.000,242.031 40.000,244.180 40.000,246.328 40.000,248.477 40.000,250.625 40.000,252.773 40.000,254.922 40.000,257.070 40.000,259.219 40.000,261.367 40.000,263.516 40.000,265.664 40.000,267.812 40.000,269.961 40.000,272.109 40.000,274.258 40.000,276.406 40.000,278.555 40.000,280.703 40.000,282.852 40.000,285.000 40.000,287.148 40.000,289.297 40.000,291.445 40.000,293.594 40.000,295.742 40.000,297.891 40.000,300.039 40.000,302.187 40.000,304.336 40.000,306.484 40.000,308.633 40.000,310.781 40.000,312.930 40.000,315.078 40.000,317.227 40.000,319.375 40.000,321.523 40.000,323.672 40.000,325.820 40.000,327.969 40.000,330.117 40.000,332.266 40.000,334.414 40.000,336.562 40.000,338.711 40.000,340.859 40.000,343.008 40.000,345.156 40.000,347.305 40.000,349.453 40.000,351.602 40.000,353.750 40.000,355.898 40.000,358.047 40.000,360.195 40.000,362.344 40.000,364.492 40.000,366.641 40.000,368.789 40.000,370.937 40.000,373.086 40.000,375.234 40.000,377.383 40.000,379.531 40.000,381.680 40.000,383.828 40.000,385.977 40.000,388.125 40.000,390.273 40.000,392.422 40.000,394.570 40.000,396.719 40.000,398.867 40.000,401.016 40.000,403.164 40.000,405.312 40.000,407.461 40.000,409.609 40.000,411.758 40.000,413.906 40.000,416.055 40.000,418.203 40.000,420.352 40.000,422.500 40.000,424.648 40.000,426.797 40.000,428.945 40.000,431.094 40.000,433.242 40.000,435.391 40.000,437.539 40.000,439.687 40.000,441.836 40.000,443.984 40.000,446.133 40.000,448.281 40.000,450.430 40.000,452.578 40.000,454.727 40.000,456.875 40.000,459.023 40.000,461.172 40.000,463.320 40.000,465.469 40.000,467.617 40.000,469.766 40.000,471.914 40.000,474.062 40.000,476.211 40.000,478.359 40.000,480.508 40.000,482.656 40.000,484.805 40.000,486.953 40.000,489.102 40.000,491.250 40.000,493.398 40.000,495.547 40.000,497.695 40.000,499.844 40.000,501.992 40.000,504.141 40.000,506.289 40.000,508.437 40.000,510.586 40.000,512.734 40.000,514.883 40.000,517.031 40.000,519.180 40.000,521.328 40.000,523.477 40.000,525.625 40.000,527.773 40.000,529.922 40.000,532.070 40.000,534.219 40.000,536.367 40.000,538.516 40.000,540.664 40.000,542.812 40.000,544.961 40.000,547.109 40.000,549.258 40.000,551.406 40.000,553.555 40.000,555.703 40.000,557.852 40.000,560.000 38.125,560.000 36.250,560.000 34.375,560.000 32.500,560.000 30.625,560.000 28.750,560.000 26.875,560.000 25.000,560.000 23.125,560.000 21.250,560.000 19.375,560.000 17.500,560.000 15.625,560.000 13.750,560.000 11.875,560.000 10.000,560.000 10.000,557.852 10.000,555.703 10.000,553.555 10.000,551.406 10.000,549.258 10.000,547.109 10.000,544.961 10.000,542.812 10.000,540.664 10.000,538.516 10.000,536.367 10.000,534.219 10.000,532.070 10.000,529.922 10.000,527.773 10.000,525.625 10.000,523.477 10.000,521.328 10.000,519.180 10.000,517.031 10.000,514.883 10.000,512.734 10.000,510.586 10.000,508.437 10.000,506.289 10.000,504.141 10.000,501.992 10.000,499.844 10.000,497.695 10.000,495.547 10.000,493.398 10.000,491.250 10.000,489.102 10.000,486.953 10.000,484.805 10.000,482.656 10.000,480.508 10.000,478.359 10.000,476.211 10.000,474.062 10.000,471.914 10.000,469.766 10.000,467.617 10.000,465.469 10.000,463.320 10.000,461.172 10.000,459.023 10.000,456.875 10.000,454.727 10.000,452.578 10.000,450.430 10.000,448.281 10.000,446.133 10.000,443.984 10.000,441.836 10.000,439.687 10.000,437.539 10.000,435.391 10.000,433.242 10.000,431.094 10.000,428.945 10.000,426.797 10.000,424.648 10.000,422.500 10.000,420.352 10.000,418.203 10.000,416.055 10.000,413.906 10.000,411.758 10.000,409.609 10.000,407.461 10.000,405.312 10.000,403.164 10.000,401.016 10.000,398.867 10.000,396.719 10.000,394.570 10.000,392.422 10.000,390.273 10.000,388.125 10.000,385.977 10.000,383.828 10.000,381.680 10.000,379.531 10.000,377.383 10.000,375.234 10.000,373.086 10.000,370.937 10.000,368.789 10.000,366.641 10.000,364.492 10.000,362.344 10.000,360.195 10.000,358.047 10.000,355.898 10.000,353.750 10.000,351.602 10.000,349.453 10.000,347.305 10.000,345.156 10.000,343.008 10.000,340.859 10.000,338.711 10.000,336.562 10.000,334.414 10.000,332.266 10.000,330.117 10.000,327.969 10.000,325.820 10.000,323.672 10.000,321.523 10.000,319.375 10.000,317.227 10.000,315.078 10.000,312.930 10.000,310.781 10.000,308.633 10.000,306.484 10.000,304.336 10.000,302.187 10.000,300.039 10.000,297.891 10.000,295.742 10.000,293.594 10.000,291.445 10.000,289.297 10.000,287.148 10.000,285.000 10.000,282.852 10.000,280.703 10.000,278.555 10.000,276.406 10.000,274.258 10.000,272.109 10.000,269.961 10.000,267.812 10.000,265.664 10.000,263.516 10.000,261.367 10.000,259.219 10.000,257.070 10.000,254.922 10.000,252.773 10.000,250.625 10.000,248.477 10.000,246.328 10.000,244.180 10.000,242.031 10.000,239.883 10.000,237.734 10.000,235.586 10.000,233.437 10.000,231.289 10.000,229.141 10.000,226.992 10.000,224.844 10.000,222.695 10.000,220.547 10.000,218.398 10.000,216.250 10.000,214.102 10.000,211.953 10.000,209.805 10.000,207.656 10.000,205.508 10.000,203.359 10.000,201.211 10.000,199.062 10.000,196.914 10.000,194.766 10.000,192.617 10.000,190.469 10.000,188.320 10.000,186.172 10.000,184.023 10.000,181.875 10.000,179.727 10.000,177.578 10.000,175.430 10.000,173.281 10.000,171.133 10.000,168.984 10.000,166.836 10.000,164.687 10.000,162.539 10.000,160.391 10.000,158.242 10.000,156.094 10.000,153.945 10.000,151.797 10.000,149.648 10.000,147.500 10.000,145.352 10.000,143.203 10.000,141.055 10.000,138.906 10.000,136.758 10.000,134.609 10.000,132.461 10.000,130.312 10.000,128.164 10.000,126.016 10.000,123.867 10.000,121.719 10.000,119.570 10.000,117.422 10.000,115.273 10.000,113.125 10.000,110.977 10.000,108.828 10.000,106.680 10.000,104.531 10.000,102.383 10.000,100.234 10.000,98.086 10.000,95.937 10.000,93.789 10.000,91.641 10.000,89.492 10.000,87.344 10.000,85.195 10.000,83.047 10.000,80.898 10.000,78.750 10.000,76.602 10.000,74.453 10.000,72.305 10.000,70.156 10.000,68.008 10.000,65.859 10.000,63.711 10.000,61.562 10.000,59.414 10.000,57.266 10.000,55.117 10.000,52.969 10.000,50.820 10.000,48.672 10.000,46.523 10.000,44.375 10.000,42.227 10.000,40.078 10.000,37.930 10.000,35.781 10.000,33.633 10.000,31.484 10.000,29.336 10.000,27.188 10.000,25.039 10.000,22.891 10.000,20.742 10.000,18.594 10.000,16.445 10.000,14.297 10.000,12.148 10.000,10.000 11.875,10.000 13.750,10.000 15.625,10.000 17.500,10.000 19.375,10.000 21.250,10.000 23.125,10.000 25.000,10.000 26.875,10.000 28.750,10.000 30.625,10.000 32.500,10.000 34.375,10.000 36.250,10.000 38.125,10.000 40.000,10.000" fill="none" stroke="#c33" stroke-width="0.35" stroke-dasharray="4 2"/>
<text x="25.0" y="285.0" font-size="14.0" text-anchor="middle" font-family="sans-serif">G<tspan x="25.0" dy="14.0" font-size="6.3">piece-7</tspan></text>
</g>
</svg>
