  0
SECTION
  2
HEADER
  9
$ACADVER
  1
AC1024
  9
$ACADMAINTVER
 70
6
  9
$DWGCODEPAGE
  3
ANSI_1252
  9
$LASTSAVEDBY
  1
ezdxf
  9
$INSBASE
 10
0.0
 20
0.0
 30
0.0
  9
$EXTMIN
 10
1e+20
 20
1e+20
 30
1e+20
  9
$EXTMAX
 10
-1e+20
 20
-1e+20
 30
-1e+20
  9
$LIMMIN
 10
0.0
 20
0.0
  9
$LIMMAX
 10
420.0
 20
297.0
  9
$ORTHOMODE
 70
0
  9
$REGENMODE
 70
1
  9
$FILLMODE
 70
1
  9
$QTEXTMODE
 70
0
  9
$MIRRTEXT
 70
1
  9
$LTSCALE
 40
1.0
  9
$ATTMODE
 70
1
  9
$TEXTSIZE
 40
2.5
  9
$TRACEWID
 40
1.0
  9
$TEXTSTYLE
  7
OpenSans
  9
$CLAYER
  8
0
  9
$CELTYPE
  6
ByLayer
  9
$CECOLOR
 62
256
  9
$CELTSCALE
 40
1.0
  9
$DISPSILH
 70
0
  9
$DIMSCALE
 40
1.0
  9
$DIMASZ
 40
0.175
  9
$DIMEXO
 40
0.125
  9
$DIMDLI
 40
3.75
  9
$DIMRND
 40
0.0
  9
$DIMDLE
 40
0.0
  9
$DIMEXE
 40
0.375
  9
$DIMTP
 40
0.0
  9
$DIMTM
 40
0.0
  9
$DIMTXT
 40
0.25
  9
$DIMCEN
 40
2.5
  9
$DIMTSZ
 40
0.0
  9
$DIMTOL
 70
0
  9
$DIMLIM
 70
0
  9
$DIMTIH
 70
0
  9
$DIMTOH
 70
0
  9
$DIMSE1
 70
0
  9
$DIMSE2
 70
0
  9
$DIMTAD
 70
1
  9
$DIMZIN
 70
12
  9
$DIMBLK
  1
ARCHTICK
  9
$DIMASO
 70
1
  9
$DIMSHO
 70
1
  9
$DIMPOST
  1

  9
$DIMAPOST
  1

  9
$DIMALT
 70
0
  9
$DIMALTD
 70
3
  9
$DIMALTF
 40
0.03937007874
  9
$DIMLFAC
 40
100.0
  9
$DIMTOFL
 70
1
  9
$DIMTVP
 40
0.0
  9
$DIMTIX
 70
0
  9
$DIMSOXD
 70
0
  9
$DIMSAH
 70
0
  9
$DIMBLK1
  1

  9
$DIMBLK2
  1

  9
$DIMSTYLE
  2
EZDXF
  9
$DIMCLRD
 70
0
  9
$DIMCLRE
 70
0
  9
$DIMCLRT
 70
0
  9
$DIMTFAC
 40
0.5
  9
$DIMGAP
 40
0.1
  9
$DIMJUST
 70
0
  9
$DIMSD1
 70
0
  9
$DIMSD2
 70
0
  9
$DIMTOLJ
 70
0
  9
$DIMTZIN
 70
8
  9
$DIMALTZ
 70
0
  9
$DIMALTTZ
 70
0
  9
$DIMUPT
 70
1
  9
$DIMDEC
 70
2
  9
$DIMTDEC
 70
2
  9
$DIMALTU
 70
2
  9
$DIMALTTD
 70
3
  9
$DIMTXSTY
  7
OpenSansCondensed-Light
  9
$DIMAUNIT
 70
0
  9
$DIMADEC
 70
2
  9
$DIMALTRND
 40
0.0
  9
$DIMAZIN
 70
3
  9
$DIMDSEP
 70
46
  9
$DIMATFIT
 70
3
  9
$DIMFRAC
 70
0
  9
$DIMLDRBLK
  1

  9
$DIMLUNIT
 70
2
  9
$DIMLWD
 70
-2
  9
$DIMLWE
 70
-2
  9
$DIMTMOVE
 70
2
  9
$DIMFXL
 40
1.0
  9
$DIMFXLON
 70
0
  9
$DIMJOGANG
 40
0.785398163397
  9
$DIMTFILL
 70
0
  9
$DIMTFILLCLR
 70
0
  9
$DIMARCSYM
 70
0
  9
$DIMLTYPE
  6

  9
$DIMLTEX1
  6

  9
$DIMLTEX2
  6

  9
$DIMTXTDIRECTION
 70
0
  9
$LUNITS
 70
2
  9
$LUPREC
 70
4
  9
$SKETCHINC
 40
1.0
  9
$FILLETRAD
 40
10.0
  9
$AUNITS
 70
0
  9
$AUPREC
 70
2
  9
$MENU
  1
.
  9
$ELEVATION
 40
0.0
  9
$PELEVATION
 40
0.0
  9
$THICKNESS
 40
0.0
  9
$LIMCHECK
 70
0
  9
$CHAMFERA
 40
0.0
  9
$CHAMFERB
 40
0.0
  9
$CHAMFERC
 40
0.0
  9
$CHAMFERD
 40
0.0
  9
$SKPOLY
 70
0
  9
$TDCREATE
 40
2461248.6183680557
  9
$TDUCREATE
 40
2458532.153996898
  9
$TDUPDATE
 40
2461248.6183680557
  9
$TDUUPDATE
 40
2458532.1544311
  9
$TDINDWG
 40
0.0
  9
$TDUSRTIMER
 40
0.0
  9
$USRTIMER
 70
1
  9
$ANGBASE
 50
0.0
  9
$ANGDIR
 70
0
  9
$PDMODE
 70
0
  9
$PDSIZE
 40
0.0
  9
$PLINEWID
 40
0.0
  9
$SPLFRAME
 70
0
  9
$SPLINETYPE
 70
6
  9
$SPLINESEGS
 70
8
  9
$HANDSEED
  5
A2
  9
$SURFTAB1
 70
6
  9
$SURFTAB2
 70
6
  9
$SURFTYPE
 70
6
  9
$SURFU
 70
6
  9
$SURFV
 70
6
  9
$UCSBASE
  2

  9
$UCSNAME
  2

  9
$UCSORG
 10
0.0
 20
0.0
 30
0.0
  9
$UCSXDIR
 10
1.0
 20
0.0
 30
0.0
  9
$UCSYDIR
 10
0.0
 20
1.0
 30
0.0
  9
$UCSORTHOREF
  2

  9
$UCSORTHOVIEW
 70
0
  9
$UCSORGTOP
 10
0.0
 20
0.0
 30
0.0
  9
$UCSORGBOTTOM
 10
0.0
 20
0.0
 30
0.0
  9
$UCSORGLEFT
 10
0.0
 20
0.0
 30
0.0
  9
$UCSORGRIGHT
 10
0.0
 20
0.0
 30
0.0
  9
$UCSORGFRONT
 10
0.0
 20
0.0
 30
0.0
  9
$UCSORGBACK
 10
0.0
 20
0.0
 30
0.0
  9
$PUCSBASE
  2

  9
$PUCSNAME
  2

  9
$PUCSORG
 10
0.0
 20
0.0
 30
0.0
  9
$PUCSXDIR
 10
1.0
 20
0.0
 30
0.0
  9
$PUCSYDIR
 10
0.0
 20
1.0
 30
0.0
  9
$PUCSORTHOREF
  2

  9
$PUCSORTHOVIEW
 70
0
  9
$PUCSORGTOP
 10
0.0
 20
0.0
 30
0.0
  9
$PUCSORGBOTTOM
 10
0.0
 20
0.0
 30
0.0
  9
$PUCSORGLEFT
 10
0.0
 20
0.0
 30
0.0
  9
$PUCSORGRIGHT
 10
0.0
 20
0.0
 30
0.0
  9
$PUCSORGFRONT
 10
0.0
 20
0.0
 30
0.0
  9
$PUCSORGBACK
 10
0.0
 20
0.0
 30
0.0
  9
$USERI1
 70
0
  9
$USERI2
 70
0
  9
$USERI3
 70
0
  9
$USERI4
 70
0
  9
$USERI5
 70
0
  9
$USERR1
 40
0.0
  9
$USERR2
 40
0.0
  9
$USERR3
 40
0.0
  9
$USERR4
 40
0.0
  9
$USERR5
 40
0.0
  9
$WORLDVIEW
 70
1
  9
$SHADEDGE
 70
3
  9
$SHADEDIF
 70
70
  9
$TILEMODE
 70
1
  9
$MAXACTVP
 70
64
  9
$PINSBASE
 10
0.0
 20
0.0
 30
0.0
  9
$PLIMCHECK
 70
0
  9
$PEXTMIN
 10
1e+20
 20
1e+20
 30
1e+20
  9
$PEXTMAX
 10
-1e+20
 20
-1e+20
 30
-1e+20
  9
$PLIMMIN
 10
0.0
 20
0.0
  9
$PLIMMAX
 10
420.0
 20
297.0
  9
$UNITMODE
 70
0
  9
$VISRETAIN
 70
1
  9
$PLINEGEN
 70
0
  9
$PSLTSCALE
 70
1
  9
$TREEDEPTH
 70
3020
  9
$CMLSTYLE
  2
Standard
  9
$CMLJUST
 70
0
  9
$CMLSCALE
 40
20.0
  9
$PROXYGRAPHICS
 70
1
  9
$MEASUREMENT
 70
1
  9
$CELWEIGHT
370
-1
  9
$ENDCAPS
280
0
  9
$JOINSTYLE
280
0
  9
$LWDISPLAY
290
0
  9
$INSUNITS
 70
4
  9
$HYPERLINKBASE
  1

  9
$STYLESHEET
  1

  9
$XEDIT
290
1
  9
$CEPSNTYPE
380
0
  9
$PSTYLEMODE
290
1
  9
$FINGERPRINTGUID
  2
{B14D99AE-D836-414B-AE19-74B26A26C6F6}
  9
$VERSIONGUID
  2
{44B7187F-A2B4-4A37-9B80-A10CCA70AA05}
  9
$EXTNAMES
290
1
  9
$PSVPSCALE
 40
0.0
  9
$OLESTARTUP
290
0
  9
$SORTENTS
280
127
  9
$INDEXCTL
280
0
  9
$HIDETEXT
280
1
  9
$XCLIPFRAME
280
1
  9
$HALOGAP
280
0
  9
$OBSCOLOR
 70
257
  9
$OBSLTYPE
280
0
  9
$INTERSECTIONDISPLAY
280
0
  9
$INTERSECTIONCOLOR
 70
257
  9
$DIMASSOC
280
2
  9
$PROJECTNAME
  1

  9
$CAMERADISPLAY
290
0
  9
$LENSLENGTH
 40
50.0
  9
$CAMERAHEIGHT
 40
0.0
  9
$STEPSPERSEC
 40
24.0
  9
$STEPSIZE
 40
100.0
  9
$3DDWFPREC
 40
2.0
  9
$PSOLWIDTH
 40
0.005
  9
$PSOLHEIGHT
 40
0.08
  9
$LOFTANG1
 40
1.570796326795
  9
$LOFTANG2
 40
1.570796326795
  9
$LOFTMAG1
 40
0.0
  9
$LOFTMAG2
 40
0.0
  9
$LOFTPARAM
 70
7
  9
$LOFTNORMALS
280
1
  9
$LATITUDE
 40
37.795
  9
$LONGITUDE
 40
-122.394
  9
$NORTHDIRECTION
 40
0.0
  9
$TIMEZONE
 70
-8000
  9
$LIGHTGLYPHDISPLAY
280
1
  9
$TILEMODELIGHTSYNCH
280
1
  9
$CMATERIAL
347
20
  9
$SOLIDHIST
280
0
  9
$SHOWHIST
280
1
  9
$DWFFRAME
280
2
  9
$DGNFRAME
280
2
  9
$REALWORLDSCALE
290
1
  9
$INTERFERECOLOR
 62
256
  9
$CSHADOW
280
0
  9
$SHADOWPLANELOCATION
 40
0.0
  0
ENDSEC
  0
SECTION
  2
CLASSES
  0
CLASS
  1
ACDBDICTIONARYWDFLT
  2
AcDbDictionaryWithDefault
  3
ObjectDBX Classes
 90
0
 91
0
280
0
281
0
  0
CLASS
  1
SUN
  2
AcDbSun
  3
SCENEOE
 90
1153
 91
0
280
0
281
0
  0
CLASS
  1
VISUALSTYLE
  2
AcDbVisualStyle
  3
ObjectDBX Classes
 90
4095
 91
0
280
0
281
0
  0
CLASS
  1
MATERIAL
  2
AcDbMaterial
  3
ObjectDBX Classes
 90
1153
 91
0
280
0
281
0
  0
CLASS
  1
SCALE
  2
AcDbScale
  3
ObjectDBX Classes
 90
1153
 91
0
280
0
281
0
  0
CLASS
  1
TABLESTYLE
  2
AcDbTableStyle
  3
ObjectDBX Classes
 90
4095
 91
0
280
0
281
0
  0
CLASS
  1
MLEADERSTYLE
  2
AcDbMLeaderStyle
  3
ACDB_MLEADERSTYLE_CLASS
 90
4095
 91
0
280
0
281
0
  0
CLASS
  1
DICTIONARYVAR
  2
AcDbDictionaryVar
  3
ObjectDBX Classes
 90
0
 91
0
280
0
281
0
  0
CLASS
  1
CELLSTYLEMAP
  2
AcDbCellStyleMap
  3
ObjectDBX Classes
 90
1152
 91
0
280
0
281
0
  0
CLASS
  1
MENTALRAYRENDERSETTINGS
  2
AcDbMentalRayRenderSettings
  3
SCENEOE
 90
1024
 91
0
280
0
281
0
  0
CLASS
  1
ACDBDETAILVIEWSTYLE
  2
AcDbDetailViewStyle
  3
ObjectDBX Classes
 90
1025
 91
0
280
0
281
0
  0
CLASS
  1
ACDBSECTIONVIEWSTYLE
  2
AcDbSectionViewStyle
  3
ObjectDBX Classes
 90
1025
 91
0
280
0
281
0
  0
CLASS
  1
RASTERVARIABLES
  2
AcDbRasterVariables
  3
ISM
 90
0
 91
0
280
0
281
0
  0
CLASS
  1
LAYOUT
  2
AcDbLayout
  3
ObjectDBX Classes
 90
0
 91
0
280
0
281
0
  0
CLASS
  1
ACDBPLACEHOLDER
  2
AcDbPlaceHolder
  3
ObjectDBX Classes
 90
0
 91
0
280
0
281
0
  0
ENDSEC
  0
SECTION
  2
TABLES
  0
TABLE
  2
VPORT
  5
8
330
0
100
AcDbSymbolTable
 70
1
  0
VPORT
  5
23
330
8
100
AcDbSymbolTableRecord
100
AcDbViewportTableRecord
  2
*Active
 70
0
 10
0.0
 20
0.0
 11
1.0
 21
1.0
 12
0.0
 22
0.0
 13
0.0
 23
0.0
 14
0.5
 24
0.5
 15
0.5
 25
0.5
 16
0.0
 26
0.0
 36
1.0
 17
0.0
 27
0.0
 37
0.0
 40
1000.0
 41
1.34
 42
50.0
 43
0.0
 44
0.0
 50
0.0
 51
0.0
 71
0
 72
1000
 73
1
 74
3
 75
0
 76
0
 77
0
 78
0
281
0
 65
0
146
0.0
  0
ENDTAB
  0
TABLE
  2
LTYPE
  5
2
330
0
100
AcDbSymbolTable
 70
21
  0
LTYPE
  5
24
330
2
100
AcDbSymbolTableRecord
100
AcDbLinetypeTableRecord
  2
ByBlock
 70
0
  3

 72
65
 73
0
 40
0.0
  0
LTYPE
  5
25
330
2
100
AcDbSymbolTableRecord
100
AcDbLinetypeTableRecord
  2
ByLayer
 70
0
  3

 72
65
 73
0
 40
0.0
  0
LTYPE
  5
26
330
2
100
AcDbSymbolTableRecord
100
AcDbLinetypeTableRecord
  2
Continuous
 70
0
  3

 72
65
 73
0
 40
0.0
  0
LTYPE
  5
2F
330
2
100
AcDbSymbolTableRecord
100
AcDbLinetypeTableRecord
  2
CENTER
 70
0
  3
Center ____ _ ____ _ ____ _ ____ _ ____ _ ____
 72
65
 73
4
 40
5.08
 49
3.175
 74
0
 49
-0.635
 74
0
 49
0.635
 74
0
 49
-0.635
 74
0
  0
LTYPE
  5
30
330
2
100
AcDbSymbolTableRecord
100
AcDbLinetypeTableRecord
  2
CENTERX2
 70
0
  3
Center (2x) ________  __  ________  __  ________
 72
65
 73
4
 40
8.89
 49
6.35
 74
0
 49
-0.635
 74
0
 49
1.27
 74
0
 49
-0.635
 74
0
  0
LTYPE
  5
31
330
2
100
AcDbSymbolTableRecord
100
AcDbLinetypeTableRecord
  2
CENTER2
 70
0
  3
Center (.5x) ____ _ ____ _ ____ _ ____ _ ____
 72
65
 73
4
 40
2.54
 49
1.587
 74
0
 49
-0.318
 74
0
 49
0.318
 74
0
 49
-0.318
 74
0
  0
LTYPE
  5
32
330
2
100
AcDbSymbolTableRecord
100
AcDbLinetypeTableRecord
  2
DASHED
 70
0
  3
Dashed __ __ __ __ __ __ __ __ __ __ __ __ __ _
 72
65
 73
2
 40
1.524
 49
1.27
 74
0
 49
-0.254
 74
0
  0
LTYPE
  5
33
330
2
100
AcDbSymbolTableRecord
100
AcDbLinetypeTableRecord
  2
DASHEDX2
 70
0
  3
Dashed (2x) ____  ____  ____  ____  ____  ____
 72
65
 73
2
 40
3.048
 49
2.54
 74
0
 49
-0.508
 74
0
  0
LTYPE
  5
34
330
2
100
AcDbSymbolTableRecord
100
AcDbLinetypeTableRecord
  2
DASHED2
 70
0
  3
Dashed (.5x) _ _ _ _ _ _ _ _ _ _ _ _ _ _
 72
65
 73
2
 40
0.762
 49
0.635
 74
0
 49
-0.127
 74
0
  0
LTYPE
  5
35
330
2
100
AcDbSymbolTableRecord
100
AcDbLinetypeTableRecord
  2
PHANTOM
 70
0
  3
Phantom ______  __  __  ______  __  __  ______
 72
65
 73
6
 40
6.35
 49
3.175
 74
0
 49
-0.635
 74
0
 49
0.635
 74
0
 49
-0.635
 74
0
 49
0.635
 74
0
 49
-0.635
 74
0
  0
LTYPE
  5
36
330
2
100
AcDbSymbolTableRecord
100
AcDbLinetypeTableRecord
  2
PHANTOMX2
 70
0
  3
Phantom (2x)____________    ____    ____    ____________
 72
65
 73
6
 40
10.795
 49
6.35
 74
0
 49
-0.635
 74
0
 49
1.27
 74
0
 49
-0.635
 74
0
 49
1.27
 74
0
 49
-0.635
 74
0
  0
LTYPE
  5
37
330
2
100
AcDbSymbolTableRecord
100
AcDbLinetypeTableRecord
  2
PHANTOM2
 70
0
  3
Phantom (.5x) ___ _ _ ___ _ _ ___ _ _ ___ _ _ ___
 72
65
 73
6
 40
3.175
 49
1.587
 74
0
 49
-0.318
 74
0
 49
0.318
 74
0
 49
-0.318
 74
0
 49
0.318
 74
0
 49
-0.318
 74
0
  0
LTYPE
  5
38
330
2
100
AcDbSymbolTableRecord
100
AcDbLinetypeTableRecord
  2
DASHDOT
 70
0
  3
Dash dot __ . __ . __ . __ . __ . __ . __ . __
 72
65
 73
4
 40
3.556
 49
2.54
 74
0
 49
-0.508
 74
0
 49
0.0
 74
0
 49
-0.508
 74
0
  0
LTYPE
  5
39
330
2
100
AcDbSymbolTableRecord
100
AcDbLinetypeTableRecord
  2
DASHDOTX2
 70
0
  3
Dash dot (2x) ____  .  ____  .  ____  .  ____
 72
65
 73
4
 40
6.096
 49
5.08
 74
0
 49
-0.508
 74
0
 49
0.0
 74
0
 49
-0.508
 74
0
  0
LTYPE
  5
3A
330
2
100
AcDbSymbolTableRecord
100
AcDbLinetypeTableRecord
  2
DASHDOT2
 70
0
  3
Dash dot (.5x) _ . _ . _ . _ . _ . _ . _ . _
 72
65
 73
4
 40
1.778
 49
1.27
 74
0
 49
-0.254
 74
0
 49
0.0
 74
0
 49
-0.254
 74
0
  0
LTYPE
  5
3B
330
2
100
AcDbSymbolTableRecord
100
AcDbLinetypeTableRecord
  2
DOT
 70
0
  3
Dot .  .  .  .  .  .  .  .  .  .  .  .  .  .  .  .
 72
65
 73
2
 40
0.508
 49
0.0
 74
0
 49
-0.508
 74
0
  0
LTYPE
  5
3C
330
2
100
AcDbSymbolTableRecord
100
AcDbLinetypeTableRecord
  2
DOTX2
 70
0
  3
Dot (2x) .    .    .    .    .    .    .    . 
 72
65
 73
2
 40
1.016
 49
0.0
 74
0
 49
-1.016
 74
0
  0
LTYPE
  5
3D
330
2
100
AcDbSymbolTableRecord
100
AcDbLinetypeTableRecord
  2
DOT2
 70
0
  3
Dot (.5) . . . . . . . . . . . . . . . . . . . 
 72
65
 73
2
 40
0.254
 49
0.0
 74
0
 49
-0.254
 74
0
  0
LTYPE
  5
3E
330
2
100
AcDbSymbolTableRecord
100
AcDbLinetypeTableRecord
  2
DIVIDE
 70
0
  3
Divide __ . . __ . . __ . . __ . . __ . . __
 72
65
 73
6
 40
4.064
 49
2.54
 74
0
 49
-0.508
 74
0
 49
0.0
 74
0
 49
-0.508
 74
0
 49
0.0
 74
0
 49
-0.508
 74
0
  0
LTYPE
  5
3F
330
2
100
AcDbSymbolTableRecord
100
AcDbLinetypeTableRecord
  2
DIVIDEX2
 70
0
  3
Divide (2x) ____  . .  ____  . .  ____  . .  ____
 72
65
 73
6
 40
6.604
 49
5.08
 74
0
 49
-0.508
 74
0
 49
0.0
 74
0
 49
-0.508
 74
0
 49
0.0
 74
0
 49
-0.508
 74
0
  0
LTYPE
  5
40
330
2
100
AcDbSymbolTableRecord
100
AcDbLinetypeTableRecord
  2
DIVIDE2
 70
0
  3
Divide(.5x) _ . _ . _ . _ . _ . _ . _ . _
 72
65
 73
6
 40
2.032
 49
1.27
 74
0
 49
-0.254
 74
0
 49
0.0
 74
0
 49
-0.254
 74
0
 49
0.0
 74
0
 49
-0.254
 74
0
  0
ENDTAB
  0
TABLE
  2
LAYER
  5
1
330
0
100
AcDbSymbolTable
 70
5
  0
LAYER
  5
27
330
1
100
AcDbSymbolTableRecord
100
AcDbLayerTableRecord
  2
0
 70
0
 62
7
  6
Continuous
370
-3
390
13
347
21
  0
LAYER
  5
28
330
1
100
AcDbSymbolTableRecord
100
AcDbLayerTableRecord
  2
Defpoints
 70
0
 62
7
  6
Continuous
290
0
370
-3
390
13
347
21
  0
LAYER
  5
8A
330
1
100
AcDbSymbolTableRecord
100
AcDbLayerTableRecord
  2
CUT
 70
0
 62
7
  6
Continuous
370
-3
390
13
347
21
  0
LAYER
  5
8B
330
1
100
AcDbSymbolTableRecord
100
AcDbLayerTableRecord
  2
STITCH
 70
0
 62
1
  6
DASHED
370
-3
390
13
347
21
  0
LAYER
  5
8C
330
1
100
AcDbSymbolTableRecord
100
AcDbLayerTableRecord
  2
LABEL
 70
0
 62
3
  6
Continuous
370
-3
390
13
347
21
  0
ENDTAB
  0
TABLE
  2
STYLE
  5
5
330
0
100
AcDbSymbolTable
 70
26
  0
STYLE
  5
29
330
5
100
AcDbSymbolTableRecord
100
AcDbTextStyleTableRecord
  2
Standard
 70
0
 40
0.0
 41
1.0
 50
0.0
 71
0
 42
2.5
  3
txt
  4

  0
STYLE
  5
41
330
5
100
AcDbSymbolTableRecord
100
AcDbTextStyleTableRecord
  2
OpenSans-Light
 70
0
 40
0.0
 41
1.0
 50
0.0
 71
0
 42
2.5
  3
OpenSans-Light.ttf
  4

  0
STYLE
  5
42
330
5
100
AcDbSymbolTableRecord
100
AcDbTextStyleTableRecord
  2
OpenSans-Light-Italic
 70
0
 40
0.0
 41
1.0
 50
0.0
 71
0
 42
2.5
  3
OpenSans-LightItalic.ttf
  4

  0
STYLE
  5
43
330
5
100
AcDbSymbolTableRecord
100
AcDbTextStyleTableRecord
  2
OpenSans
 70
0
 40
0.0
 41
1.0
 50
0.0
 71
0
 42
2.5
  3
OpenSans-Regular.ttf
  4

  0
STYLE
  5
44
330
5
100
AcDbSymbolTableRecord
100
AcDbTextStyleTableRecord
  2
OpenSans-Italic
 70
0
 40
0.0
 41
1.0
 50
0.0
 71
0
 42
2.5
  3
OpenSans-Italic.ttf
  4

  0
STYLE
  5
45
330
5
100
AcDbSymbolTableRecord
100
AcDbTextStyleTableRecord
  2
OpenSans-SemiBold
 70
0
 40
0.0
 41
1.0
 50
0.0
 71
0
 42
2.5
  3
OpenSans-SemiBold.ttf
  4

  0
STYLE
  5
46
330
5
100
AcDbSymbolTableRecord
100
AcDbTextStyleTableRecord
  2
OpenSans-SemiBoldItalic
 70
0
 40
0.0
 41
1.0
 50
0.0
 71
0
 42
2.5
  3
OpenSans-SemiBoldItalic.ttf
  4

  0
STYLE
  5
47
330
5
100
AcDbSymbolTableRecord
100
AcDbTextStyleTableRecord
  2
OpenSans-Bold
 70
0
 40
0.0
 41
1.0
 50
0.0
 71
0
 42
2.5
  3
OpenSans-Bold.ttf
  4

  0
STYLE
  5
48
330
5
100
AcDbSymbolTableRecord
100
AcDbTextStyleTableRecord
  2
OpenSans-BoldItalic
 70
0
 40
0.0
 41
1.0
 50
0.0
 71
0
 42
2.5
  3
OpenSans-BoldItalic.ttf
  4

  0
STYLE
  5
49
330
5
100
AcDbSymbolTableRecord
100
AcDbTextStyleTableRecord
  2
OpenSans-ExtraBold
 70
0
 40
0.0
 41
1.0
 50
0.0
 71
0
 42
2.5
  3
OpenSans-ExtraBold.ttf
  4

  0
STYLE
  5
4A
330
5
100
AcDbSymbolTableRecord
100
AcDbTextStyleTableRecord
  2
OpenSans-ExtraBoldItalic
 70
0
 40
0.0
 41
1.0
 50
0.0
 71
0
 42
2.5
  3
OpenSans-ExtraBoldItalic.ttf
  4

  0
STYLE
  5
4B
330
5
100
AcDbSymbolTableRecord
100
AcDbTextStyleTableRecord
  2
OpenSansCondensed-Bold
 70
0
 40
0.0
 41
1.0
 50
0.0
 71
0
 42
2.5
  3
OpenSansCondensed-Bold.ttf
  4

  0
STYLE
  5
4C
330
5
100
AcDbSymbolTableRecord
100
AcDbTextStyleTableRecord
  2
OpenSansCondensed-Light
 70
0
 40
0.0
 41
1.0
 50
0.0
 71
0
 42
2.5
  3
OpenSansCondensed-Light.ttf
  4

  0
STYLE
  5
4D
330
5
100
AcDbSymbolTableRecord
100
AcDbTextStyleTableRecord
  2
OpenSansCondensed-Italic
 70
0
 40
0.0
 41
1.0
 50
0.0
 71
0
 42
2.5
  3
OpenSansCondensed-LightItalic.ttf
  4

  0
STYLE
  5
4E
330
5
100
AcDbSymbolTableRecord
100
AcDbTextStyleTableRecord
  2
LiberationSans
 70
0
 40
0.0
 41
1.0
 50
0.0
 71
0
 42
2.5
  3
LiberationSans-Regular.ttf
  4

  0
STYLE
  5
4F
330
5
100
AcDbSymbolTableRecord
100
AcDbTextStyleTableRecord
  2
LiberationSans-Bold
 70
0
 40
0.0
 41
1.0
 50
0.0
 71
0
 42
2.5
  3
LiberationSans-Bold.ttf
  4

  0
STYLE
  5
50
330
5
100
AcDbSymbolTableRecord
100
AcDbTextStyleTableRecord
  2
LiberationSans-BoldItalic
 70
0
 40
0.0
 41
1.0
 50
0.0
 71
0
 42
2.5
  3
LiberationSans-BoldItalic.ttf
  4

  0
STYLE
  5
51
330
5
100
AcDbSymbolTableRecord
100
AcDbTextStyleTableRecord
  2
LiberationSans-Italic
 70
0
 40
0.0
 41
1.0
 50
0.0
 71
0
 42
2.5
  3
LiberationSans-Italic.ttf
  4

  0
STYLE
  5
52
330
5
100
AcDbSymbolTableRecord
100
AcDbTextStyleTableRecord
  2
LiberationSerif
 70
0
 40
0.0
 41
1.0
 50
0.0
 71
0
 42
2.5
  3
LiberationSerif-Regular.ttf
  4

  0
STYLE
  5
53
330
5
100
AcDbSymbolTableRecord
100
AcDbTextStyleTableRecord
  2
LiberationSerif-Bold
 70
0
 40
0.0
 41
1.0
 50
0.0
 71
0
 42
2.5
  3
LiberationSerif-Bold.ttf
  4

  0
STYLE
  5
54
330
5
100
AcDbSymbolTableRecord
100
AcDbTextStyleTableRecord
  2
LiberationSerif-BoldItalic
 70
0
 40
0.0
 41
1.0
 50
0.0
 71
0
 42
2.5
  3
LiberationSerif-BoldItalic.ttf
  4

  0
STYLE
  5
55
330
5
100
AcDbSymbolTableRecord
100
AcDbTextStyleTableRecord
  2
LiberationSerif-Italic
 70
0
 40
0.0
 41
1.0
 50
0.0
 71
0
 42
2.5
  3
LiberationSerif-Italic.ttf
  4

  0
STYLE
  5
56
330
5
100
AcDbSymbolTableRecord
100
AcDbTextStyleTableRecord
  2
LiberationMono
 70
0
 40
0.0
 41
1.0
 50
0.0
 71
0
 42
2.5
  3
LiberationMono-Regular.ttf
  4

  0
STYLE
  5
57
330
5
100
AcDbSymbolTableRecord
100
AcDbTextStyleTableRecord
  2
LiberationMono-Bold
 70
0
 40
0.0
 41
1.0
 50
0.0
 71
0
 42
2.5
  3
LiberationMono-Bold.ttf
  4

  0
STYLE
  5
58
330
5
100
AcDbSymbolTableRecord
100
AcDbTextStyleTableRecord
  2
LiberationMono-BoldItalic
 70
0
 40
0.0
 41
1.0
 50
0.0
 71
0
 42
2.5
  3
LiberationMono-BoldItalic.ttf
  4

  0
STYLE
  5
59
330
5
100
AcDbSymbolTableRecord
100
AcDbTextStyleTableRecord
  2
LiberationMono-Italic
 70
0
 40
0.0
 41
1.0
 50
0.0
 71
0
 42
2.5
  3
LiberationMono-Italic.ttf
  4

  0
ENDTAB
  0
TABLE
  2
VIEW
  5
7
330
0
100
AcDbSymbolTable
 70
0
  0
ENDTAB
  0
TABLE
  2
UCS
  5
6
330
0
100
AcDbSymbolTable
 70
0
  0
ENDTAB
  0
TABLE
  2
APPID
  5
3
330
0
100
AcDbSymbolTable
 70
3
  0
APPID
  5
2A
330
3
100
AcDbSymbolTableRecord
100
AcDbRegAppTableRecord
  2
ACAD
 70
0
  0
APPID
  5
9F
330
3
100
AcDbSymbolTableRecord
100
AcDbRegAppTableRecord
  2
HATCHBACKGROUNDCOLOR
 70
0
  0
APPID
  5
A0
330
3
100
AcDbSymbolTableRecord
100
AcDbRegAppTableRecord
  2
EZDXF
 70
0
  0
ENDTAB
  0
TABLE
  2
DIMSTYLE
  5
4
330
0
100
AcDbSymbolTable
 70
12
100
AcDbDimStyleTable
  0
DIMSTYLE
105
2B
330
4
100
AcDbSymbolTableRecord
100
AcDbDimStyleTableRecord
  2
Standard
 70
0
 40
1.0
 41
2.5
 42
0.625
 43
3.75
 44
1.25
 45
0.0
 46
0.0
 47
0.0
 48
0.0
 49
2.5
140
2.5
141
2.5
142
0.0
143
0.03937007874
144
1.0
145
0.0
146
1.0
147
0.625
148
0.0
 69
0
 70
0
 71
0
 72
0
 73
0
 74
0
 75
0
 76
0
 77
1
 78
8
 79
3
170
0
171
3
172
1
173
0
174
0
175
0
176
0
177
0
178
0
179
2
271
2
272
2
273
2
274
3
275
0
276
0
277
2
278
44
279
0
280
0
281
0
282
0
283
0
284
8
285
0
286
0
288
0
289
3
290
0
371
-2
372
-2
  0
DIMSTYLE
105
73
330
4
100
AcDbSymbolTableRecord
100
AcDbDimStyleTableRecord
  2
EZDXF
 70
0
 40
1.0
 41
0.175
 42
0.125
 43
3.75
 44
0.375
 45
0.0
 46
0.0
 47
0.0
 48
0.0
 49
2.5
140
0.25
141
2.5
142
0.0
143
0.03937007874
144
100.0
145
0.0
146
0.5
147
0.1
148
0.0
 69
0
 70
0
 71
0
 72
0
 73
0
 74
0
 75
0
 76
0
 77
1
 78
12
 79
3
170
0
171
3
172
1
173
0
174
0
175
0
176
0
177
0
178
0
179
2
271
2
272
2
273
2
274
3
275
0
276
0
277
2
278
46
279
2
280
0
281
0
282
0
283
0
284
8
285
0
286
0
288
1
289
3
290
0
340
4C
342
74
371
-2
372
-2
  0
DIMSTYLE
105
7C
330
4
100
AcDbSymbolTableRecord
100
AcDbDimStyleTableRecord
  2
EZ_M_100_H25_CM
 70
0
 40
1.0
 41
0.25
 42
0.125
 43
3.75
 44
0.375
 45
0.0
 46
0.0
 47
0.0
 48
0.0
 49
2.5
140
0.25
141
2.5
142
0.125
143
0.03937007874
144
100.0
145
0.0
146
0.5
147
0.1
148
0.0
 69
0
 70
0
 71
0
 72
0
 73
0
 74
0
 75
0
 76
0
 77
1
 78
12
 79
3
170
0
171
3
172
1
173
0
174
0
175
0
176
0
177
0
178
0
179
2
271
2
272
2
273
2
274
3
275
0
276
0
277
2
278
46
279
2
280
0
281
0
282
0
283
0
284
8
285
0
286
0
288
1
289
3
290
0
340
4C
371
-2
372
-2
  0
DIMSTYLE
105
7D
330
4
100
AcDbSymbolTableRecord
100
AcDbDimStyleTableRecord
  2
EZ_M_50_H25_CM
 70
0
 40
1.0
 41
0.125
 42
0.0625
 43
3.75
 44
0.1875
 45
0.0
 46
0.0
 47
0.0
 48
0.0
 49
2.5
140
0.125
141
2.5
142
0.0625
143
0.03937007874
144
100.0
145
0.0
146
0.5
147
0.05
148
0.0
 69
0
 70
0
 71
0
 72
0
 73
0
 74
0
 75
0
 76
0
 77
1
 78
12
 79
3
170
0
171
3
172
1
173
0
174
0
175
0
176
0
177
0
178
0
179
2
271
2
272
2
273
2
274
3
275
0
276
0
277
2
278
46
279
2
280
0
281
0
282
0
283
0
284
8
285
0
286
0
288
1
289
3
290
0
340
4C
371
-2
372
-2
  0
DIMSTYLE
105
7E
330
4
100
AcDbSymbolTableRecord
100
AcDbDimStyleTableRecord
  2
EZ_M_25_H25_CM
 70
0
 40
1.0
 41
0.0625
 42
0.03125
 43
3.75
 44
0.09375
 45
0.0
 46
0.0
 47
0.0
 48
0.0
 49
2.5
140
0.0625
141
2.5
142
0.03125
143
0.03937007874
144
100.0
145
0.0
146
0.5
147
0.025
148
0.0
 69
0
 70
0
 71
0
 72
0
 73
0
 74
0
 75
0
 76
0
 77
1
 78
12
 79
3
170
0
171
3
172
1
173
0
174
0
175
0
176
0
177
0
178
0
179
2
271
2
272
2
273
2
274
3
275
0
276
0
277
2
278
46
279
2
280
0
281
0
282
0
283
0
284
8
285
0
286
0
288
1
289
3
290
0
340
4C
371
-2
372
-2
  0
DIMSTYLE
105
7F
330
4
100
AcDbSymbolTableRecord
100
AcDbDimStyleTableRecord
  2
EZ_M_20_H25_CM
 70
0
 40
1.0
 41
0.05
 42
0.025
 43
3.75
 44
0.07500000000000001
 45
0.0
 46
0.0
 47
0.0
 48
0.0
 49
2.5
140
0.05
141
2.5
142
0.025
143
0.03937007874
144
100.0
145
0.0
146
0.5
147
0.020000000000000004
148
0.0
 69
0
 70
0
 71
0
 72
0
 73
0
 74
0
 75
0
 76
0
 77
1
 78
12
 79
3
170
0
171
3
172
1
173
0
174
0
175
0
176
0
177
0
178
0
179
2
271
2
272
2
273
2
274
3
275
0
276
0
277
2
278
46
279
2
280
0
281
0
282
0
283
0
284
8
285
0
286
0
288
1
289
3
290
0
340
4C
371
-2
372
-2
  0
DIMSTYLE
105
80
330
4
100
AcDbSymbolTableRecord
100
AcDbDimStyleTableRecord
  2
EZ_M_10_H25_CM
 70
0
 40
1.0
 41
0.025
 42
0.0125
 43
3.75
 44
0.037500000000000006
 45
0.0
 46
0.0
 47
0.0
 48
0.0
 49
2.5
140
0.025
141
2.5
142
0.0125
143
0.03937007874
144
100.0
145
0.0
146
0.5
147
0.010000000000000002
148
0.0
 69
0
 70
0
 71
0
 72
0
 73
0
 74
0
 75
0
 76
0
 77
1
 78
12
 79
3
170
0
171
3
172
1
173
0
174
0
175
0
176
0
177
0
178
0
179
2
271
2
272
2
273
2
274
3
275
0
276
0
277
2
278
46
279
2
280
0
281
0
282
0
283
0
284
8
285
0
286
0
288
1
289
3
290
0
340
4C
371
-2
372
-2
  0
DIMSTYLE
105
81
330
4
100
AcDbSymbolTableRecord
100
AcDbDimStyleTableRecord
  2
EZ_M_5_H25_CM
 70
0
 40
1.0
 41
0.0125
 42
0.00625
 43
3.75
 44
0.018750000000000003
 45
0.0
 46
0.0
 47
0.0
 48
0.0
 49
2.5
140
0.0125
141
2.5
142
0.00625
143
0.03937007874
144
100.0
145
0.0
146
0.5
147
0.005000000000000001
148
0.0
 69
0
 70
0
 71
0
 72
0
 73
0
 74
0
 75
0
 76
0
 77
1
 78
12
 79
3
170
0
171
3
172
1
173
0
174
0
175
0
176
0
177
0
178
0
179
2
271
2
272
2
273
2
274
3
275
0
276
0
277
2
278
46
279
2
280
0
281
0
282
0
283
0
284
8
285
0
286
0
288
1
289
3
290
0
340
4C
371
-2
372
-2
  0
DIMSTYLE
105
82
330
4
100
AcDbSymbolTableRecord
100
AcDbDimStyleTableRecord
  2
EZ_M_1_H25_CM
 70
0
 40
1.0
 41
0.0025
 42
0.00125
 43
3.75
 44
0.00375
 45
0.0
 46
0.0
 47
0.0
 48
0.0
 49
2.5
140
0.0025
141
2.5
142
0.00125
143
0.03937007874
144
100.0
145
0.0
146
0.5
147
0.001
148
0.0
 69
0
 70
0
 71
0
 72
0
 73
0
 74
0
 75
0
 76
0
 77
1
 78
12
 79
3
170
0
171
3
172
1
173
0
174
0
175
0
176
0
177
0
178
0
179
2
271
2
272
2
273
2
274
3
275
0
276
0
277
2
278
46
279
2
280
0
281
0
282
0
283
0
284
8
285
0
286
0
288
1
289
3
290
0
340
4C
371
-2
372
-2
  0
DIMSTYLE
105
83
330
4
100
AcDbSymbolTableRecord
100
AcDbDimStyleTableRecord
  2
EZ_RADIUS
 70
0
 40
1.0
 41
0.25
 42
0.125
 43
3.75
 44
0.375
 45
0.0
 46
0.0
 47
0.0
 48
0.0
 49
2.5
140
0.25
141
0.0
142
0.0
143
0.03937007874
144
100.0
145
0.0
146
0.5
147
0.1
148
0.0
 69
0
 70
0
 71
0
 72
0
 73
0
 74
0
 75
0
 76
0
 77
1
 78
12
 79
3
170
0
171
3
172
0
173
0
174
0
175
0
176
0
177
0
178
0
179
2
271
2
272
2
273
2
274
3
275
0
276
0
277
2
278
46
279
1
280
0
281
0
282
0
283
0
284
8
285
0
286
0
288
1
289
3
290
0
340
4C
342
84
371
-2
372
-2
  0
DIMSTYLE
105
88
330
4
100
AcDbSymbolTableRecord
100
AcDbDimStyleTableRecord
  2
EZ_RADIUS_INSIDE
 70
0
 40
1.0
 41
0.25
 42
0.125
 43
3.75
 44
0.375
 45
0.0
 46
0.0
 47
0.0
 48
0.0
 49
2.5
140
0.25
141
0.0
142
0.0
143
0.03937007874
144
100.0
145
0.0
146
0.5
147
0.1
148
0.0
 69
0
 70
0
 71
0
 72
0
 73
0
 74
0
 75
0
 76
0
 77
0
 78
12
 79
3
170
0
171
3
172
0
173
0
174
1
175
0
176
0
177
0
178
0
179
2
271
2
272
2
273
2
274
3
275
0
276
0
277
2
278
46
279
0
280
0
281
0
282
0
283
0
284
8
285
0
286
0
288
1
289
0
290
0
340
4C
342
84
371
-2
372
-2
  0
DIMSTYLE
105
89
330
4
100
AcDbSymbolTableRecord
100
AcDbDimStyleTableRecord
  2
EZ_CURVED
 70
0
 40
1.0
 41
0.25
 42
0.125
 43
3.75
 44
0.375
 45
0.0
 46
0.0
 47
0.0
 48
0.0
 49
2.5
140
0.25
141
2.5
142
0.0
143
0.03937007874
144
100.0
145
0.0
146
0.5
147
0.1
148
0.0
 69
0
 70
0
 71
0
 72
0
 73
0
 74
0
 75
0
 76
0
 77
1
 78
12
 79
2
 90
2
170
0
171
3
172
1
173
0
174
0
175
0
176
0
177
0
178
0
179
2
271
2
272
2
273
2
274
3
275
0
276
0
277
2
278
46
279
2
280
0
281
0
282
0
283
0
284
8
285
0
286
0
288
1
289
3
290
0
340
4C
371
-2
372
-2
  0
ENDTAB
  0
TABLE
  2
BLOCK_RECORD
  5
9
330
0
100
AcDbSymbolTable
 70
5
  0
BLOCK_RECORD
  5
17
330
9
100
AcDbSymbolTableRecord
100
AcDbBlockTableRecord
  2
*Model_Space
340
1A
 70
0
280
1
281
0
  0
BLOCK_RECORD
  5
1B
330
9
100
AcDbSymbolTableRecord
100
AcDbBlockTableRecord
  2
*Paper_Space
340
1E
 70
0
280
1
281
0
  0
BLOCK_RECORD
  5
74
330
9
100
AcDbSymbolTableRecord
100
AcDbBlockTableRecord
  2
_ARCHTICK
340
0
 70
0
280
1
281
0
  0
BLOCK_RECORD
  5
78
330
9
100
AcDbSymbolTableRecord
100
AcDbBlockTableRecord
  2
_CLOSEDFILLED
340
0
 70
0
280
1
281
0
  0
BLOCK_RECORD
  5
84
330
9
100
AcDbSymbolTableRecord
100
AcDbBlockTableRecord
  2
_CLOSEDBLANK
340
0
 70
0
280
1
281
0
  0
ENDTAB
  0
ENDSEC
  0
SECTION
  2
BLOCKS
  0
BLOCK
  5
18
330
17
100
AcDbEntity
  8
0
100
AcDbBlockBegin
  2
*Model_Space
 70
0
 10
0.0
 20
0.0
 30
0.0
  3
*Model_Space
  1

  0
ENDBLK
  5
19
330
17
100
AcDbEntity
  8
0
100
AcDbBlockEnd
  0
BLOCK
  5
1C
330
1B
100
AcDbEntity
  8
0
100
AcDbBlockBegin
  2
*Paper_Space
 70
0
 10
0.0
 20
0.0
 30
0.0
  3
*Paper_Space
  1

  0
ENDBLK
  5
1D
330
1B
100
AcDbEntity
  8
0
100
AcDbBlockEnd
  0
BLOCK
  5
75
330
74
100
AcDbEntity
  8
0
100
AcDbBlockBegin
  2
_ARCHTICK
 70
0
 10
0.0
 20
0.0
 30
0.0
  3
_ARCHTICK
  1

  0
LWPOLYLINE
  5
77
330
74
100
AcDbEntity
  8
0
  6
BYBLOCK
 62
0
100
AcDbPolyline
 90
2
 70
0
 43
0.15
 10
-0.5
 20
-0.5
 10
0.5
 20
0.5
  0
ENDBLK
  5
76
330
74
100
AcDbEntity
  8
0
100
AcDbBlockEnd
  0
BLOCK
  5
79
330
78
100
AcDbEntity
  8
0
100
AcDbBlockBegin
  2
_CLOSEDFILLED
 70
0
 10
0.0
 20
0.0
 30
0.0
  3
_CLOSEDFILLED
  1

  0
SOLID
  5
7B
330
78
100
AcDbEntity
  8
0
  6
BYBLOCK
 62
0
100
AcDbTrace
 10
-1.0
 20
0.16439898372402537
 30
0.0
 11
0.0
 21
0.0
 31
0.0
 12
-1.0
 22
-0.16439898372402537
 32
0.0
 13
-1.0
 23
-0.16439898372402537
 33
0.0
  0
ENDBLK
  5
7A
330
78
100
AcDbEntity
  8
0
100
AcDbBlockEnd
  0
BLOCK
  5
85
330
84
100
AcDbEntity
  8
0
100
AcDbBlockBegin
  2
_CLOSEDBLANK
 70
0
 10
0.0
 20
0.0
 30
0.0
  3
_CLOSEDBLANK
  1

  0
LWPOLYLINE
  5
87
330
84
100
AcDbEntity
  8
0
  6
BYBLOCK
 62
0
100
AcDbPolyline
 90
3
 70
1
 10
-1.0
 20
0.16439898372402537
 10
0.0
 20
0.0
 10
-1.0
 20
-0.16439898372402537
  0
ENDBLK
  5
86
330
84
100
AcDbEntity
  8
0
100
AcDbBlockEnd
  0
ENDSEC
  0
SECTION
  2
ENTITIES
  0
LWPOLYLINE
  5
8D
330
17
100
AcDbEntity
  8
CUT
100
AcDbPolyline
 90
237
 70
1
 10
20.003
 20
1395.366
 10
20.002
 20
1389.687
 10
20.002
 20
1385.435
 10
20.001
 20
1381.205
 10
20.001
 20
1376.7199999999998
 10
20.001
 20
1372.2579999999998
 10
20.001
 20
1367.3509999999999
 10
20.0
 20
1362.471
 10
20.0
 20
1357.021
 10
20.0
 20
1351.6
 10
20.0
 20
1347.5549999999998
 10
20.0
 20
1343.541
 10
20.0
 20
1339.5279999999998
 10
20.0
 20
1335.072
 10
20.0
 20
1330.6509999999998
 10
20.0
 20
1326.2309999999998
 10
20.0
 20
1321.3809999999999
 10
20.0
 20
1316.57
 10
20.0
 20
1311.759
 10
20.0
 20
1306.551
 10
20.0
 20
1301.385
 10
20.0
 20
1296.2179999999998
 10
20.0
 20
1290.701
 10
20.0
 20
1285.2269999999999
 10
20.0
 20
1279.753
 10
20.0
 20
1273.985
 10
20.0
 20
1268.263
 10
20.0
 20
1262.541
 10
20.0
 20
1256.589
 10
20.0
 20
1250.685
 10
20.0
 20
1244.78
 10
20.0
 20
1240.2199999999998
 10
20.0
 20
1235.7069999999999
 10
20.0
 20
1231.195
 10
20.0
 20
1226.683
 10
20.0
 20
1222.0939999999998
 10
20.0
 20
1217.5539999999999
 10
20.0
 20
1213.014
 10
20.0
 20
1208.474
 10
20.0
 20
1203.913
 10
20.0
 20
1199.4009999999998
 10
20.0
 20
1194.889
 10
20.0
 20
1190.377
 10
20.0
 20
1184.425
 10
20.0
 20
1178.52
 10
20.0
 20
1172.616
 10
20.0
 20
1166.848
 10
20.0
 20
1161.126
 10
20.0
 20
1155.404
 10
20.0
 20
1149.886
 10
20.0
 20
1144.413
 10
20.0
 20
1138.9389999999999
 10
20.0
 20
1133.7309999999998
 10
20.0
 20
1128.5649999999998
 10
20.0
 20
1123.398
 10
20.0
 20
1118.5479999999998
 10
20.0
 20
1113.7369999999999
 10
20.0
 20
1108.926
 10
20.0
 20
1104.4699999999998
 10
20.0
 20
1100.05
 10
20.0
 20
1095.629
 10
20.0
 20
1091.5839999999998
 10
20.0
 20
1087.57
 10
20.0
 20
1083.5569999999998
 10
20.0
 20
1078.107
 10
20.0
 20
1072.687
 10
20.0
 20
1067.78
 10
20.0
 20
1062.899
 10
20.0
 20
1058.4139999999998
 10
20.0
 20
1053.9519999999998
 10
20.0
 20
1049.701
 10
20.0
 20
1045.471
 10
20.0
 20
1039.777
 10
20.0
 20
1034.0819999999999
 10
20.0
 20
1028.387
 10
20.0
 20
1022.6919999999999
 10
20.0
 20
1016.9979999999998
 10
20.0
 20
1011.3029999999999
 10
20.0
 20
1005.608
 10
20.0
 20
999.7159999999999
 10
20.0
 20
994.4189999999999
 10
20.048
 20
993.4389999999999
 10
20.192
 20
992.4679999999998
 10
20.431
 20
991.5159999999998
 10
20.761
 20
990.5919999999999
 10
21.181
 20
989.7049999999999
 10
21.685
 20
988.8629999999998
 10
22.27
 20
988.0749999999998
 10
22.929
 20
987.348
 10
23.656
 20
986.6889999999999
 10
24.444
 20
986.1039999999999
 10
25.286
 20
985.5999999999999
 10
26.173000000000002
 20
985.1799999999998
 10
27.097
 20
984.8489999999999
 10
28.049
 20
984.6109999999999
 10
29.02
 20
984.4669999999999
 10
30.0
 20
984.4189999999999
 10
35.569
 20
984.4189999999999
 10
41.339
 20
984.4189999999999
 10
47.108000000000004
 20
984.4189999999999
 10
52.877
 20
984.4189999999999
 10
58.647
 20
984.4189999999999
 10
64.416
 20
984.4189999999999
 10
70.185
 20
984.4189999999999
 10
75.935
 20
984.4189999999999
 10
81.505
 20
984.3969999999999
 10
81.539
 20
984.3969999999999
 10
87.289
 20
984.395
 10
93.04
 20
984.3899999999999
 10
98.795
 20
984.3839999999999
 10
104.557
 20
984.3739999999999
 10
105.538
 20
984.4209999999998
 10
106.509
 20
984.5629999999999
 10
107.462
 20
984.8
 10
108.387
 20
985.1289999999999
 10
109.275
 20
985.5479999999999
 10
110.117
 20
986.0509999999999
 10
110.907
 20
986.6349999999999
 10
111.635
 20
987.2929999999999
 10
112.295
 20
988.0189999999999
 10
112.881
 20
988.8069999999999
 10
113.387
 20
989.6479999999999
 10
113.808
 20
990.5349999999999
 10
114.14
 20
991.4589999999998
 10
114.379
 20
992.4109999999998
 10
114.525
 20
993.3819999999998
 10
114.574
 20
994.3619999999999
 10
114.581
 20
1000.0389999999999
 10
114.586
 20
1005.7159999999999
 10
114.589
 20
1011.3939999999999
 10
114.592
 20
1017.0729999999999
 10
114.594
 20
1022.752
 10
114.596
 20
1028.4319999999998
 10
114.597
 20
1034.1109999999999
 10
114.598
 20
1039.791
 10
114.599
 20
1045.4699999999998
 10
114.599
 20
1049.722
 10
114.6
 20
1053.9519999999998
 10
114.6
 20
1058.437
 10
114.6
 20
1062.899
 10
114.601
 20
1067.806
 10
114.601
 20
1072.687
 10
114.601
 20
1078.136
 10
114.601
 20
1083.5569999999998
 10
114.601
 20
1087.6019999999999
 10
114.601
 20
1091.616
 10
114.601
 20
1095.629
 10
114.601
 20
1100.085
 10
114.601
 20
1104.5059999999999
 10
114.601
 20
1108.926
 10
114.601
 20
1113.7759999999998
 10
114.601
 20
1118.587
 10
114.601
 20
1123.398
 10
114.601
 20
1166.8939999999998
 10
114.601
 20
1172.616
 10
114.601
 20
1178.568
 10
114.601
 20
1184.472
 10
114.601
 20
1190.377
 10
114.601
 20
1194.937
 10
114.601
 20
1250.732
 10
114.601
 20
1256.637
 10
114.601
 20
1262.541
 10
114.601
 20
1268.309
 10
114.601
 20
1274.031
 10
114.601
 20
1279.753
 10
114.601
 20
1285.271
 10
114.601
 20
1290.744
 10
114.601
 20
1296.2179999999998
 10
114.601
 20
1301.426
 10
114.601
 20
1306.5929999999998
 10
114.601
 20
1311.759
 10
114.601
 20
1316.609
 10
114.601
 20
1321.4199999999998
 10
114.601
 20
1326.2309999999998
 10
114.601
 20
1330.687
 10
114.601
 20
1335.107
 10
114.601
 20
1339.5279999999998
 10
114.601
 20
1343.5739999999998
 10
114.601
 20
1347.587
 10
114.601
 20
1351.6
 10
114.601
 20
1385.456
 10
114.601
 20
1389.686
 10
114.601
 20
1395.3799999999999
 10
114.601
 20
1401.0749999999998
 10
114.601
 20
1406.77
 10
114.601
 20
1412.465
 10
114.601
 20
1418.1589999999999
 10
114.601
 20
1423.8539999999998
 10
114.601
 20
1429.549
 10
114.601
 20
1435.4409999999998
 10
114.601
 20
1440.7379999999998
 10
114.553
 20
1441.7179999999998
 10
114.409
 20
1442.6889999999999
 10
114.17
 20
1443.6409999999998
 10
113.84
 20
1444.5649999999998
 10
113.42
 20
1445.452
 10
112.916
 20
1446.2939999999999
 10
112.331
 20
1447.0819999999999
 10
111.672
 20
1447.809
 10
110.945
 20
1448.4679999999998
 10
110.157
 20
1449.0529999999999
 10
109.315
 20
1449.5569999999998
 10
108.428
 20
1449.9769999999999
 10
107.504
 20
1450.308
 10
106.552
 20
1450.5459999999998
 10
105.581
 20
1450.6899999999998
 10
104.601
 20
1450.7379999999998
 10
58.666
 20
1450.7379999999998
 10
53.096
 20
1450.76
 10
53.063
 20
1450.76
 10
47.312
 20
1450.762
 10
41.561
 20
1450.7669999999998
 10
35.806
 20
1450.773
 10
30.044
 20
1450.783
 10
29.063000000000002
 20
1450.7359999999999
 10
28.092
 20
1450.5939999999998
 10
27.139
 20
1450.357
 10
26.215
 20
1450.0279999999998
 10
25.326
 20
1449.609
 10
24.484
 20
1449.106
 10
23.694
 20
1448.522
 10
22.966
 20
1447.8639999999998
 10
22.306
 20
1447.138
 10
21.72
 20
1446.35
 10
21.214
 20
1445.509
 10
20.793
 20
1444.6219999999998
 10
20.461
 20
1443.6979999999999
 10
20.222
 20
1442.7459999999999
 10
20.076
 20
1441.7749999999999
 10
20.027
 20
1440.7949999999998
 10
20.02
 20
1435.118
 10
20.015
 20
1429.4409999999998
 10
20.012
 20
1423.763
 10
20.009
 20
1418.0839999999998
 10
20.007
 20
1412.405
 10
20.005
 20
1406.725
 10
20.004
 20
1401.0459999999998
  0
LWPOLYLINE
  5
8E
330
17
100
AcDbEntity
  8
STITCH
100
AcDbPolyline
 90
202
 70
1
 10
30.003
 20
1395.3649999999998
 10
30.003999999999998
 20
1401.0439999999999
 10
30.005000000000003
 20
1406.723
 10
30.006999999999998
 20
1412.4019999999998
 10
30.009
 20
1418.08
 10
30.012
 20
1423.7579999999998
 10
30.015
 20
1429.434
 10
30.02
 20
1435.11
 10
30.027
 20
1440.783
 10
35.792
 20
1440.773
 10
41.551
 20
1440.7669999999998
 10
47.306
 20
1440.762
 10
53.058
 20
1440.76
 10
58.647
 20
1440.7379999999998
 10
64.416
 20
1440.7379999999998
 10
70.185
 20
1440.7379999999998
 10
75.95400000000001
 20
1440.7379999999998
 10
81.72399999999999
 20
1440.7379999999998
 10
87.493
 20
1440.7379999999998
 10
93.262
 20
1440.7379999999998
 10
99.032
 20
1440.7379999999998
 10
104.601
 20
1440.7379999999998
 10
104.601
 20
1435.4409999999998
 10
104.601
 20
1429.549
 10
104.601
 20
1423.8539999999998
 10
104.601
 20
1418.1589999999999
 10
104.601
 20
1412.465
 10
104.601
 20
1406.77
 10
104.601
 20
1401.0749999999998
 10
104.601
 20
1395.3799999999999
 10
104.601
 20
1389.686
 10
104.601
 20
1385.456
 10
104.601
 20
1381.205
 10
104.601
 20
1376.743
 10
104.601
 20
1372.2579999999998
 10
104.601
 20
1367.377
 10
104.601
 20
1362.4699999999998
 10
104.601
 20
1357.05
 10
104.601
 20
1351.6
 10
104.601
 20
1347.587
 10
104.601
 20
1343.5739999999998
 10
104.601
 20
1339.5279999999998
 10
104.601
 20
1335.107
 10
104.601
 20
1330.687
 10
104.601
 20
1326.2309999999998
 10
104.601
 20
1321.4199999999998
 10
104.601
 20
1316.609
 10
104.601
 20
1311.759
 10
104.601
 20
1306.5929999999998
 10
104.601
 20
1301.426
 10
104.601
 20
1296.2179999999998
 10
104.601
 20
1290.744
 10
104.601
 20
1285.271
 10
104.601
 20
1279.753
 10
104.601
 20
1274.031
 10
104.601
 20
1268.309
 10
104.601
 20
1262.541
 10
104.601
 20
1256.637
 10
104.601
 20
1250.732
 10
104.601
 20
1244.78
 10
104.601
 20
1240.268
 10
104.601
 20
1235.7559999999999
 10
104.601
 20
1231.244
 10
104.601
 20
1226.683
 10
104.601
 20
1222.143
 10
104.601
 20
1217.6029999999998
 10
104.601
 20
1213.0629999999999
 10
104.601
 20
1208.474
 10
104.601
 20
1203.962
 10
104.601
 20
1199.4499999999998
 10
104.601
 20
1194.937
 10
104.601
 20
1190.377
 10
104.601
 20
1184.472
 10
104.601
 20
1178.568
 10
104.601
 20
1172.616
 10
104.601
 20
1166.8939999999998
 10
104.601
 20
1161.172
 10
104.601
 20
1155.404
 10
104.601
 20
1149.9299999999998
 10
104.601
 20
1144.456
 10
104.601
 20
1138.9389999999999
 10
104.601
 20
1133.772
 10
104.601
 20
1128.6059999999998
 10
104.601
 20
1123.398
 10
104.601
 20
1118.587
 10
104.601
 20
1113.7759999999998
 10
104.601
 20
1108.926
 10
104.601
 20
1104.5059999999999
 10
104.601
 20
1100.085
 10
104.601
 20
1095.629
 10
104.601
 20
1091.616
 10
104.601
 20
1087.6019999999999
 10
104.601
 20
1083.5569999999998
 10
104.601
 20
1078.136
 10
104.601
 20
1072.687
 10
104.601
 20
1067.806
 10
104.6
 20
1062.899
 10
104.6
 20
1058.4379999999999
 10
104.6
 20
1053.9519999999998
 10
104.599
 20
1049.723
 10
104.599
 20
1045.471
 10
104.598
 20
1039.792
 10
104.597
 20
1034.1129999999998
 10
104.596
 20
1028.434
 10
104.594
 20
1022.7549999999999
 10
104.592
 20
1017.0769999999999
 10
104.589
 20
1011.3989999999999
 10
104.586
 20
1005.723
 10
104.581
 20
1000.0469999999999
 10
104.574
 20
994.3739999999999
 10
98.809
 20
994.3839999999999
 10
93.05
 20
994.3899999999999
 10
87.295
 20
994.395
 10
81.543
 20
994.3969999999999
 10
75.955
 20
994.4189999999999
 10
70.185
 20
994.4189999999999
 10
64.416
 20
994.4189999999999
 10
58.647
 20
994.4189999999999
 10
52.877
 20
994.4189999999999
 10
47.108000000000004
 20
994.4189999999999
 10
41.339
 20
994.4189999999999
 10
35.569
 20
994.4189999999999
 10
30.0
 20
994.4189999999999
 10
30.0
 20
999.7159999999999
 10
30.0
 20
1005.608
 10
30.0
 20
1011.3029999999999
 10
30.0
 20
1016.9979999999998
 10
30.0
 20
1022.6919999999999
 10
30.0
 20
1028.387
 10
30.0
 20
1034.0819999999999
 10
30.0
 20
1039.777
 10
30.0
 20
1045.471
 10
30.0
 20
1049.701
 10
30.0
 20
1053.9519999999998
 10
30.0
 20
1058.4139999999998
 10
30.0
 20
1062.899
 10
30.0
 20
1067.78
 10
30.0
 20
1072.687
 10
30.0
 20
1078.107
 10
30.0
 20
1083.5569999999998
 10
30.0
 20
1087.57
 10
30.0
 20
1091.5839999999998
 10
30.0
 20
1095.629
 10
30.0
 20
1100.05
 10
30.0
 20
1104.4699999999998
 10
30.0
 20
1108.926
 10
30.0
 20
1113.7369999999999
 10
30.0
 20
1118.5479999999998
 10
30.0
 20
1123.398
 10
30.0
 20
1128.5649999999998
 10
30.0
 20
1133.7309999999998
 10
30.0
 20
1138.9389999999999
 10
30.0
 20
1144.413
 10
30.0
 20
1149.886
 10
30.0
 20
1155.404
 10
30.0
 20
1161.126
 10
30.0
 20
1166.848
 10
30.0
 20
1172.616
 10
30.0
 20
1178.52
 10
30.0
 20
1184.425
 10
30.0
 20
1190.377
 10
30.0
 20
1194.889
 10
30.0
 20
1199.4009999999998
 10
30.0
 20
1203.913
 10
30.0
 20
1208.474
 10
30.0
 20
1213.014
 10
30.0
 20
1217.5539999999999
 10
30.0
 20
1222.0939999999998
 10
30.0
 20
1226.683
 10
30.0
 20
1231.195
 10
30.0
 20
1235.7069999999999
 10
30.0
 20
1240.2199999999998
 10
30.0
 20
1244.78
 10
30.0
 20
1250.685
 10
30.0
 20
1256.589
 10
30.0
 20
1262.541
 10
30.0
 20
1268.263
 10
30.0
 20
1273.985
 10
30.0
 20
1279.753
 10
30.0
 20
1285.2269999999999
 10
30.0
 20
1290.701
 10
30.0
 20
1296.2179999999998
 10
30.0
 20
1301.385
 10
30.0
 20
1306.551
 10
30.0
 20
1311.759
 10
30.0
 20
1316.57
 10
30.0
 20
1321.3809999999999
 10
30.0
 20
1326.2309999999998
 10
30.0
 20
1330.6509999999998
 10
30.0
 20
1335.072
 10
30.0
 20
1339.5279999999998
 10
30.0
 20
1343.541
 10
30.0
 20
1347.5549999999998
 10
30.0
 20
1351.6
 10
30.0
 20
1357.021
 10
30.0
 20
1362.4699999999998
 10
30.000999999999998
 20
1367.3509999999999
 10
30.000999999999998
 20
1372.2579999999998
 10
30.000999999999998
 20
1376.7189999999998
 10
30.000999999999998
 20
1381.205
 10
30.002000000000002
 20
1385.434
 10
30.002000000000002
 20
1389.686
  0
TEXT
  5
8F
330
17
100
AcDbEntity
  8
LABEL
100
AcDbText
 10
67.3005
 20
1217.5784999999998
 30
0.0
 40
10.0
  1
A piece-1
 72
1
 11
67.3005
 21
1217.5784999999998
 31
0.0
100
AcDbText
 73
2
  0
LWPOLYLINE
  5
90
330
17
100
AcDbEntity
  8
CUT
100
AcDbPolyline
 90
210
 70
1
 10
134.65
 20
1372.676
 10
135.221
 20
1367.031
 10
135.788
 20
1361.398
 10
136.352
 20
1355.771
 10
136.914
 20
1350.146
 10
136.918
 20
1350.1139999999998
 10
137.472
 20
1344.744
 10
138.034
 20
1339.0949999999998
 10
138.598
 20
1333.4289999999999
 10
139.188
 20
1327.504
 10
139.711
 20
1322.244
 10
139.857
 20
1321.2669999999998
 10
140.1
 20
1320.309
 10
140.435
 20
1319.379
 10
140.86
 20
1318.4879999999998
 10
141.37199999999999
 20
1317.6419999999998
 10
141.964
 20
1316.8509999999999
 10
142.632
 20
1316.1229999999998
 10
143.368
 20
1315.463
 10
144.166
 20
1314.8799999999999
 10
145.017
 20
1314.379
 10
145.914
 20
1313.963
 10
146.847
 20
1313.639
 10
147.808
 20
1313.408
 10
153.49099999999999
 20
1312.3359999999998
 10
159.322
 20
1311.2359999999999
 10
165.152
 20
1310.136
 10
170.981
 20
1309.0359999999998
 10
171.103
 20
1309.013
 10
176.93200000000002
 20
1307.9889999999998
 10
182.763
 20
1306.964
 10
188.593
 20
1305.9389999999999
 10
194.421
 20
1304.914
 10
194.66
 20
1304.875
 10
200.487
 20
1303.995
 10
206.31799999999998
 20
1303.1149999999998
 10
212.148
 20
1302.235
 10
217.975
 20
1301.355
 10
218.317
 20
1301.309
 10
224.144
 20
1300.634
 10
229.974
 20
1299.9589999999998
 10
235.804
 20
1299.283
 10
241.63
 20
1298.609
 10
242.055
 20
1298.569
 10
247.881
 20
1298.1439999999998
 10
253.711
 20
1297.7199999999998
 10
259.54200000000003
 20
1297.2949999999998
 10
265.36699999999996
 20
1296.8709999999999
 10
265.845
 20
1296.848
 10
271.671
 20
1296.703
 10
277.501
 20
1296.558
 10
283.331
 20
1296.413
 10
289.156
 20
1296.2689999999998
 10
289.653
 20
1296.2689999999998
 10
295.478
 20
1296.413
 10
301.30899999999997
 20
1296.558
 10
307.139
 20
1296.703
 10
312.964
 20
1296.848
 10
313.442
 20
1296.8709999999999
 10
319.26800000000003
 20
1297.2949999999998
 10
325.098
 20
1297.7199999999998
 10
330.929
 20
1298.1439999999998
 10
336.755
 20
1298.569
 10
337.179
 20
1298.609
 10
343.005
 20
1299.283
 10
348.83500000000004
 20
1299.9589999999998
 10
354.666
 20
1300.634
 10
360.493
 20
1301.309
 10
360.83500000000004
 20
1301.355
 10
366.66200000000003
 20
1302.235
 10
372.49199999999996
 20
1303.1149999999998
 10
378.322
 20
1303.995
 10
384.15
 20
1304.875
 10
384.389
 20
1304.914
 10
390.217
 20
1305.9389999999999
 10
396.047
 20
1306.964
 10
401.877
 20
1307.9889999999998
 10
407.706
 20
1309.013
 10
407.829
 20
1309.0359999999998
 10
413.658
 20
1310.136
 10
419.488
 20
1311.2359999999999
 10
425.318
 20
1312.3359999999998
 10
431.002
 20
1313.408
 10
431.962
 20
1313.639
 10
432.896
 20
1313.963
 10
433.792
 20
1314.379
 10
434.644
 20
1314.8799999999999
 10
435.441
 20
1315.463
 10
436.178
 20
1316.1229999999998
 10
436.845
 20
1316.8509999999999
 10
437.438
 20
1317.6419999999998
 10
437.949
 20
1318.4879999999998
 10
438.375
 20
1319.379
 10
438.71
 20
1320.309
 10
438.952
 20
1321.2669999999998
 10
439.098
 20
1322.244
 10
439.622
 20
1327.504
 10
440.211
 20
1333.4289999999999
 10
440.775
 20
1339.096
 10
441.339
 20
1344.762
 10
441.872
 20
1350.1219999999998
 10
442.431
 20
1355.7389999999998
 10
442.99
 20
1361.356
 10
443.549
 20
1366.973
 10
444.156
 20
1373.0729999999999
 10
444.204
 20
1374.243
 10
444.114
 20
1375.4109999999998
 10
443.342
 20
1381.088
 10
442.977
 20
1383.7659999999998
 10
442.826
 20
1384.605
 10
442.604
 20
1385.4289999999999
 10
442.313
 20
1386.231
 10
440.617
 20
1390.3429999999998
 10
438.919
 20
1394.4569999999999
 10
438.442
 20
1395.455
 10
437.85699999999997
 20
1396.3929999999998
 10
435.056
 20
1400.379
 10
432.253
 20
1404.368
 10
431.698
 20
1405.087
 10
431.08
 20
1405.752
 10
427.216
 20
1409.548
 10
423.35
 20
1413.347
 10
422.23
 20
1414.2969999999998
 10
418.99
 20
1416.658
 10
415.737
 20
1419.0269999999998
 10
412.495
 20
1421.3899999999999
 10
411.485
 20
1422.0369999999998
 10
407.626
 20
1424.194
 10
403.757
 20
1426.356
 10
399.897
 20
1428.514
 10
399.001
 20
1428.9579999999999
 10
394.585
 20
1430.875
 10
390.161
 20
1432.7959999999998
 10
385.744
 20
1434.714
 10
384.945
 20
1435.021
 10
380.043
 20
1436.668
 10
375.132
 20
1438.318
 10
370.229
 20
1439.965
 10
369.50800000000004
 20
1440.177
 10
364.196
 20
1441.5279999999998
 10
358.877
 20
1442.8799999999999
 10
353.565
 20
1444.2299999999998
 10
352.902
 20
1444.375
 10
347.265
 20
1445.407
 10
341.621
 20
1446.4399999999998
 10
335.98400000000004
 20
1447.472
 10
335.36199999999997
 20
1447.5659999999998
 10
329.48900000000003
 20
1448.263
 10
323.61
 20
1448.961
 10
317.73699999999997
 20
1449.6589999999999
 10
317.14099999999996
 20
1449.711
 10
312.631
 20
1449.975
 10
308.11400000000003
 20
1450.2389999999998
 10
303.598
 20
1450.502
 10
299.087
 20
1450.7659999999998
 10
298.504
 20
1450.783
 10
293.957
 20
1450.783
 10
289.405
 20
1450.783
 10
284.852
 20
1450.783
 10
280.30600000000004
 20
1450.783
 10
279.723
 20
1450.7659999999998
 10
275.212
 20
1450.502
 10
270.696
 20
1450.2389999999998
 10
266.179
 20
1449.975
 10
261.669
 20
1449.711
 10
261.073
 20
1449.6589999999999
 10
255.2
 20
1448.961
 10
249.32
 20
1448.263
 10
243.44799999999998
 20
1447.5659999999998
 10
242.826
 20
1447.472
 10
237.188
 20
1446.4399999999998
 10
231.54500000000002
 20
1445.407
 10
225.90800000000002
 20
1444.375
 10
225.245
 20
1444.2299999999998
 10
219.93200000000002
 20
1442.8799999999999
 10
214.613
 20
1441.5279999999998
 10
209.302
 20
1440.177
 10
208.58100000000002
 20
1439.965
 10
203.677
 20
1438.318
 10
198.767
 20
1436.668
 10
193.864
 20
1435.021
 10
193.066
 20
1434.714
 10
188.649
 20
1432.7959999999998
 10
184.224
 20
1430.875
 10
179.809
 20
1428.9579999999999
 10
178.913
 20
1428.514
 10
175.052
 20
1426.356
 10
171.183
 20
1424.194
 10
167.325
 20
1422.0369999999998
 10
166.315
 20
1421.3899999999999
 10
163.072
 20
1419.0269999999998
 10
159.82
 20
1416.658
 10
156.579
 20
1414.2969999999998
 10
155.459
 20
1413.347
 10
151.593
 20
1409.548
 10
147.73
 20
1405.752
 10
147.112
 20
1405.0859999999998
 10
146.556
 20
1404.368
 10
143.753
 20
1400.379
 10
140.953
 20
1396.3929999999998
 10
140.368
 20
1395.455
 10
139.89
 20
1394.4569999999999
 10
138.85
 20
1391.935
 10
136.557
 20
1386.378
 10
136.265
 20
1385.5749999999998
 10
136.043
 20
1384.75
 10
135.892
 20
1383.9089999999999
 10
135.253
 20
1379.1999999999998
 10
134.689
 20
1375.019
 10
134.601
 20
1373.849
  0
LWPOLYLINE
  5
91
330
17
100
AcDbEntity
  8
STITCH
100
AcDbPolyline
 90
136
 70
1
 10
144.6
 20
1373.6819999999998
 10
145.163
 20
1377.8629999999998
 10
145.802
 20
1382.5639999999999
 10
148.094
 20
1388.1209999999999
 10
149.135
 20
1390.6439999999998
 10
151.935
 20
1394.6299999999999
 10
154.739
 20
1398.619
 10
158.602
 20
1402.415
 10
162.468
 20
1406.214
 10
165.709
 20
1408.5759999999998
 10
168.961
 20
1410.945
 10
172.204
 20
1413.308
 10
176.062
 20
1415.465
 10
179.93099999999998
 20
1417.627
 10
183.792
 20
1419.7849999999999
 10
188.207
 20
1421.702
 10
192.632
 20
1423.6239999999998
 10
197.049
 20
1425.542
 10
201.951
 20
1427.1889999999999
 10
206.862
 20
1428.838
 10
211.765
 20
1430.4859999999999
 10
217.077
 20
1431.8359999999998
 10
222.39600000000002
 20
1433.1879999999999
 10
227.709
 20
1434.539
 10
233.346
 20
1435.571
 10
238.989
 20
1436.6039999999998
 10
244.627
 20
1437.636
 10
250.499
 20
1438.3329999999999
 10
256.379
 20
1439.031
 10
262.252
 20
1439.7279999999998
 10
266.762
 20
1439.992
 10
271.279
 20
1440.2559999999999
 10
275.79499999999996
 20
1440.519
 10
280.30600000000004
 20
1440.783
 10
284.852
 20
1440.783
 10
289.405
 20
1440.783
 10
293.957
 20
1440.783
 10
298.504
 20
1440.783
 10
303.014
 20
1440.519
 10
307.531
 20
1440.2559999999999
 10
312.047
 20
1439.992
 10
316.558
 20
1439.7279999999998
 10
322.43100000000004
 20
1439.031
 10
328.31
 20
1438.3329999999999
 10
334.183
 20
1437.636
 10
339.821
 20
1436.6039999999998
 10
345.464
 20
1435.571
 10
351.101
 20
1434.539
 10
356.413
 20
1433.1879999999999
 10
361.733
 20
1431.8359999999998
 10
367.044
 20
1430.4859999999999
 10
371.948
 20
1428.838
 10
376.858
 20
1427.1889999999999
 10
381.76099999999997
 20
1425.542
 10
386.178
 20
1423.6239999999998
 10
390.602
 20
1421.702
 10
395.018
 20
1419.7849999999999
 10
398.878
 20
1417.627
 10
402.747
 20
1415.465
 10
406.606
 20
1413.308
 10
409.848
 20
1410.945
 10
413.101
 20
1408.5759999999998
 10
416.341
 20
1406.214
 10
420.208
 20
1402.415
 10
424.071
 20
1398.619
 10
426.874
 20
1394.6299999999999
 10
429.675
 20
1390.6439999999998
 10
431.372
 20
1386.529
 10
433.069
 20
1382.417
 10
433.433
 20
1379.7399999999998
 10
434.205
 20
1374.0629999999999
 10
433.598
 20
1367.963
 10
433.04
 20
1362.346
 10
432.481
 20
1356.7289999999998
 10
431.922
 20
1351.1119999999999
 10
431.388
 20
1345.752
 10
430.824
 20
1340.0859999999998
 10
430.261
 20
1334.4189999999999
 10
429.671
 20
1328.495
 10
429.148
 20
1323.234
 10
423.464
 20
1322.1619999999998
 10
417.634
 20
1321.062
 10
411.804
 20
1319.962
 10
405.975
 20
1318.8619999999999
 10
400.146
 20
1317.838
 10
394.315
 20
1316.8129999999999
 10
388.485
 20
1315.788
 10
382.65700000000004
 20
1314.763
 10
376.829
 20
1313.8829999999998
 10
370.999
 20
1313.003
 10
365.169
 20
1312.1229999999998
 10
359.342
 20
1311.243
 10
353.515
 20
1310.568
 10
347.685
 20
1309.8919999999998
 10
341.854
 20
1309.2169999999999
 10
336.028
 20
1308.542
 10
330.202
 20
1308.118
 10
324.37199999999996
 20
1307.693
 10
318.54200000000003
 20
1307.2689999999998
 10
312.716
 20
1306.8439999999998
 10
306.89099999999996
 20
1306.6999999999998
 10
301.06
 20
1306.5549999999998
 10
295.23
 20
1306.4099999999999
 10
289.405
 20
1306.2649999999999
 10
283.579
 20
1306.4099999999999
 10
277.749
 20
1306.5549999999998
 10
271.919
 20
1306.6999999999998
 10
266.09299999999996
 20
1306.8439999999998
 10
260.26800000000003
 20
1307.2689999999998
 10
254.438
 20
1307.693
 10
248.607
 20
1308.118
 10
242.781
 20
1308.542
 10
236.95499999999998
 20
1309.2169999999999
 10
231.125
 20
1309.8919999999998
 10
225.29500000000002
 20
1310.568
 10
219.46800000000002
 20
1311.243
 10
213.64100000000002
 20
1312.1229999999998
 10
207.81099999999998
 20
1313.003
 10
201.98000000000002
 20
1313.8829999999998
 10
196.152
 20
1314.763
 10
190.324
 20
1315.788
 10
184.494
 20
1316.8129999999999
 10
178.664
 20
1317.838
 10
172.835
 20
1318.8619999999999
 10
167.006
 20
1319.962
 10
161.176
 20
1321.062
 10
155.345
 20
1322.1619999999998
 10
149.662
 20
1323.234
 10
149.139
 20
1328.495
 10
148.549
 20
1334.4189999999999
 10
147.985
 20
1340.0859999999998
 10
147.421
 20
1345.752
 10
146.865
 20
1351.1409999999998
 10
146.303
 20
1356.7669999999998
 10
145.738
 20
1362.398
 10
145.171
 20
1368.0349999999999
  0
TEXT
  5
92
330
17
100
AcDbEntity
  8
LABEL
100
AcDbText
 10
289.40250000000003
 20
1373.5259999999998
 30
0.0
 40
10.0
  1
B piece-2
 72
1
 11
289.40250000000003
 21
1373.5259999999998
 31
0.0
100
AcDbText
 73
2
  0
LWPOLYLINE
  5
93
330
17
100
AcDbEntity
  8
CUT
100
AcDbPolyline
 90
211
 70
1
 10
737.421
 20
1309.038
 10
743.25
 20
1310.138
 10
749.081
 20
1311.2379999999998
 10
754.9110000000001
 20
1312.338
 10
760.594
 20
1313.4099999999999
 10
761.5550000000001
 20
1313.6409999999998
 10
762.488
 20
1313.966
 10
763.385
 20
1314.3809999999999
 10
764.236
 20
1314.8829999999998
 10
765.034
 20
1315.466
 10
765.77
 20
1316.125
 10
766.437
 20
1316.8539999999998
 10
767.03
 20
1317.645
 10
767.5409999999999
 20
1318.4899999999998
 10
767.967
 20
1319.3819999999998
 10
768.302
 20
1320.311
 10
768.544
 20
1321.2689999999998
 10
768.691
 20
1322.2469999999998
 10
769.2139999999999
 20
1327.5069999999998
 10
769.8040000000001
 20
1333.4309999999998
 10
770.367
 20
1339.098
 10
770.931
 20
1344.764
 10
771.465
 20
1350.1239999999998
 10
772.024
 20
1355.7399999999998
 10
772.582
 20
1361.357
 10
773.1410000000001
 20
1366.974
 10
773.748
 20
1373.0739999999998
 10
773.796
 20
1374.244
 10
773.706
 20
1375.4119999999998
 10
772.934
 20
1381.089
 10
772.5699999999999
 20
1383.7669999999998
 10
772.419
 20
1384.606
 10
772.197
 20
1385.4299999999998
 10
771.905
 20
1386.232
 10
770.2090000000001
 20
1390.3439999999998
 10
768.511
 20
1394.4589999999998
 10
768.034
 20
1395.456
 10
767.4490000000001
 20
1396.3939999999998
 10
764.648
 20
1400.3799999999999
 10
761.845
 20
1404.369
 10
761.29
 20
1405.087
 10
760.672
 20
1405.752
 10
756.809
 20
1409.549
 10
752.943
 20
1413.348
 10
751.8230000000001
 20
1414.2969999999998
 10
748.582
 20
1416.658
 10
745.3299999999999
 20
1419.0279999999998
 10
742.087
 20
1421.3909999999998
 10
741.078
 20
1422.038
 10
737.219
 20
1424.194
 10
733.35
 20
1426.357
 10
729.49
 20
1428.514
 10
728.594
 20
1428.9579999999999
 10
724.178
 20
1430.875
 10
719.754
 20
1432.7969999999998
 10
715.337
 20
1434.714
 10
714.539
 20
1435.021
 10
709.636
 20
1436.668
 10
704.726
 20
1438.318
 10
699.822
 20
1439.965
 10
699.101
 20
1440.1779999999999
 10
693.79
 20
1441.5279999999998
 10
688.471
 20
1442.8799999999999
 10
683.159
 20
1444.2299999999998
 10
682.496
 20
1444.375
 10
676.859
 20
1445.407
 10
671.215
 20
1446.4399999999998
 10
665.578
 20
1447.472
 10
664.956
 20
1447.5659999999998
 10
659.083
 20
1448.263
 10
653.204
 20
1448.961
 10
647.331
 20
1449.6589999999999
 10
646.736
 20
1449.711
 10
642.225
 20
1449.975
 10
637.7090000000001
 20
1450.2389999999998
 10
633.192
 20
1450.502
 10
628.682
 20
1450.7659999999998
 10
628.099
 20
1450.783
 10
623.552
 20
1450.783
 10
619.0
 20
1450.783
 10
614.448
 20
1450.783
 10
609.9010000000001
 20
1450.783
 10
609.318
 20
1450.7659999999998
 10
604.808
 20
1450.502
 10
600.2909999999999
 20
1450.2389999999998
 10
595.775
 20
1449.975
 10
591.264
 20
1449.711
 10
590.669
 20
1449.6589999999999
 10
584.796
 20
1448.961
 10
578.916
 20
1448.263
 10
573.044
 20
1447.5659999999998
 10
572.422
 20
1447.472
 10
566.784
 20
1446.4399999999998
 10
561.141
 20
1445.407
 10
555.504
 20
1444.375
 10
554.841
 20
1444.2299999999998
 10
549.529
 20
1442.8799999999999
 10
544.21
 20
1441.5279999999998
 10
538.899
 20
1440.1779999999999
 10
538.178
 20
1439.965
 10
533.274
 20
1438.318
 10
528.364
 20
1436.668
 10
523.461
 20
1435.021
 10
522.663
 20
1434.714
 10
518.246
 20
1432.7969999999998
 10
513.822
 20
1430.875
 10
509.406
 20
1428.9579999999999
 10
508.51
 20
1428.514
 10
504.65
 20
1426.357
 10
500.781
 20
1424.194
 10
496.922
 20
1422.0369999999998
 10
495.913
 20
1421.3909999999998
 10
492.67
 20
1419.0279999999998
 10
489.418
 20
1416.658
 10
486.177
 20
1414.2969999999998
 10
485.057
 20
1413.348
 10
481.19100000000003
 20
1409.549
 10
477.32800000000003
 20
1405.752
 10
476.71000000000004
 20
1405.087
 10
476.15500000000003
 20
1404.369
 10
473.35200000000003
 20
1400.3799999999999
 10
470.551
 20
1396.3939999999998
 10
469.966
 20
1395.456
 10
469.48900000000003
 20
1394.4589999999998
 10
468.448
 20
1391.936
 10
466.095
 20
1386.232
 10
465.803
 20
1385.4299999999998
 10
465.581
 20
1384.607
 10
465.43
 20
1383.7669999999998
 10
464.663
 20
1378.125
 10
464.294
 20
1375.4119999999998
 10
464.204
 20
1374.244
 10
464.252
 20
1373.0739999999998
 10
464.813
 20
1367.4309999999998
 10
465.377
 20
1361.764
 10
465.94100000000003
 20
1356.097
 10
466.505
 20
1350.4309999999998
 10
467.069
 20
1344.764
 10
467.633
 20
1339.098
 10
468.196
 20
1333.4309999999998
 10
468.76
 20
1327.764
 10
468.762
 20
1327.744
 10
469.319
 20
1322.2659999999998
 10
469.467
 20
1321.2869999999998
 10
469.712
 20
1320.328
 10
470.05
 20
1319.398
 10
470.479
 20
1318.5049999999999
 10
470.994
 20
1317.6599999999999
 10
471.59000000000003
 20
1316.869
 10
472.261
 20
1316.1409999999998
 10
473.00100000000003
 20
1315.483
 10
473.802
 20
1314.9019999999998
 10
474.657
 20
1314.4029999999998
 10
475.557
 20
1313.9899999999998
 10
476.493
 20
1313.6689999999999
 10
477.457
 20
1313.442
 10
483.11
 20
1312.4009999999998
 10
488.904
 20
1311.293
 10
494.732
 20
1310.1779999999999
 10
500.558
 20
1309.0639999999999
 10
500.729
 20
1309.033
 10
506.56100000000004
 20
1308.022
 10
512.394
 20
1307.012
 10
518.178
 20
1306.01
 10
523.949
 20
1304.951
 10
524.224
 20
1304.905
 10
530.048
 20
1304.003
 10
530.085
 20
1303.9979999999998
 10
535.915
 20
1303.118
 10
541.745
 20
1302.2369999999999
 10
547.572
 20
1301.358
 10
547.914
 20
1301.312
 10
553.74
 20
1300.637
 10
559.571
 20
1299.962
 10
565.4010000000001
 20
1299.2859999999998
 10
571.227
 20
1298.6109999999999
 10
571.6510000000001
 20
1298.571
 10
577.477
 20
1298.147
 10
583.307
 20
1297.723
 10
589.1370000000001
 20
1297.2979999999998
 10
594.963
 20
1296.8739999999998
 10
595.441
 20
1296.85
 10
601.2660000000001
 20
1296.706
 10
607.096
 20
1296.561
 10
612.926
 20
1296.416
 10
618.752
 20
1296.271
 10
619.248
 20
1296.271
 10
625.073
 20
1296.416
 10
630.904
 20
1296.561
 10
636.734
 20
1296.706
 10
642.559
 20
1296.85
 10
643.037
 20
1296.8739999999998
 10
648.863
 20
1297.2979999999998
 10
654.693
 20
1297.723
 10
660.523
 20
1298.147
 10
666.349
 20
1298.571
 10
666.773
 20
1298.6109999999999
 10
672.599
 20
1299.2859999999998
 10
678.429
 20
1299.962
 10
684.26
 20
1300.637
 10
690.086
 20
1301.312
 10
690.428
 20
1301.358
 10
696.255
 20
1302.2369999999999
 10
702.085
 20
1303.118
 10
707.915
 20
1303.9979999999998
 10
713.7429999999999
 20
1304.878
 10
713.982
 20
1304.917
 10
720.029
 20
1305.98
 10
725.836
 20
1307.001
 10
731.643
 20
1308.022
 10
737.299
 20
1309.0159999999998
  0
LWPOLYLINE
  5
94
330
17
100
AcDbEntity
  8
STITCH
100
AcDbPolyline
 90
136
 70
1
 10
735.567
 20
1318.8649999999998
 10
729.9110000000001
 20
1317.8709999999999
 10
724.104
 20
1316.85
 10
718.298
 20
1315.829
 10
712.25
 20
1314.7659999999998
 10
706.423
 20
1313.886
 10
700.592
 20
1313.0059999999999
 10
694.762
 20
1312.125
 10
688.935
 20
1311.2459999999999
 10
683.109
 20
1310.571
 10
677.279
 20
1309.895
 10
671.448
 20
1309.2199999999998
 10
665.623
 20
1308.5449999999998
 10
659.797
 20
1308.1209999999999
 10
653.966
 20
1307.696
 10
648.136
 20
1307.272
 10
642.311
 20
1306.847
 10
636.485
 20
1306.703
 10
630.655
 20
1306.558
 10
624.825
 20
1306.413
 10
619.0
 20
1306.268
 10
613.175
 20
1306.413
 10
607.345
 20
1306.558
 10
601.514
 20
1306.703
 10
595.6890000000001
 20
1306.847
 10
589.864
 20
1307.272
 10
584.033
 20
1307.696
 10
578.203
 20
1308.1209999999999
 10
572.377
 20
1308.5449999999998
 10
566.552
 20
1309.2199999999998
 10
560.721
 20
1309.895
 10
554.891
 20
1310.571
 10
549.064
 20
1311.2459999999999
 10
543.238
 20
1312.125
 10
537.408
 20
1313.0059999999999
 10
531.577
 20
1313.886
 10
525.754
 20
1314.7869999999998
 10
519.934
 20
1315.855
 10
514.101
 20
1316.8649999999998
 10
508.26800000000003
 20
1317.876
 10
502.43600000000004
 20
1318.886
 10
496.61
 20
1320.0
 10
490.783
 20
1321.1149999999998
 10
484.955
 20
1322.2289999999998
 10
479.267
 20
1323.2759999999998
 10
478.711
 20
1328.7549999999999
 10
478.147
 20
1334.4209999999998
 10
477.583
 20
1340.088
 10
477.019
 20
1345.754
 10
476.456
 20
1351.4209999999998
 10
475.892
 20
1357.088
 10
475.32800000000003
 20
1362.754
 10
474.764
 20
1368.4209999999998
 10
474.202
 20
1374.0639999999999
 10
474.572
 20
1376.7769999999998
 10
475.339
 20
1382.4189999999999
 10
477.692
 20
1388.1219999999998
 10
478.733
 20
1390.645
 10
481.534
 20
1394.6309999999999
 10
484.337
 20
1398.62
 10
488.2
 20
1402.416
 10
492.06600000000003
 20
1406.215
 10
495.307
 20
1408.5759999999998
 10
498.559
 20
1410.946
 10
501.801
 20
1413.309
 10
505.66
 20
1415.465
 10
509.529
 20
1417.628
 10
513.389
 20
1419.7849999999999
 10
517.8050000000001
 20
1421.703
 10
522.229
 20
1423.6239999999998
 10
526.646
 20
1425.542
 10
531.548
 20
1427.1889999999999
 10
536.4590000000001
 20
1428.838
 10
541.362
 20
1430.4859999999999
 10
546.674
 20
1431.8359999999998
 10
551.993
 20
1433.1879999999999
 10
557.3050000000001
 20
1434.539
 10
562.942
 20
1435.571
 10
568.585
 20
1436.6039999999998
 10
574.223
 20
1437.636
 10
580.095
 20
1438.3329999999999
 10
585.974
 20
1439.031
 10
591.848
 20
1439.7279999999998
 10
596.358
 20
1439.992
 10
600.874
 20
1440.2559999999999
 10
605.3910000000001
 20
1440.519
 10
609.9010000000001
 20
1440.783
 10
614.448
 20
1440.783
 10
619.0
 20
1440.783
 10
623.552
 20
1440.783
 10
628.099
 20
1440.783
 10
632.609
 20
1440.519
 10
637.126
 20
1440.2559999999999
 10
641.642
 20
1439.992
 10
646.152
 20
1439.7279999999998
 10
652.0260000000001
 20
1439.031
 10
657.905
 20
1438.3329999999999
 10
663.777
 20
1437.636
 10
669.415
 20
1436.6039999999998
 10
675.058
 20
1435.571
 10
680.695
 20
1434.539
 10
686.0070000000001
 20
1433.1879999999999
 10
691.326
 20
1431.8359999999998
 10
696.638
 20
1430.4859999999999
 10
701.5409999999999
 20
1428.839
 10
706.452
 20
1427.1889999999999
 10
711.354
 20
1425.542
 10
715.771
 20
1423.6239999999998
 10
720.195
 20
1421.703
 10
724.611
 20
1419.7849999999999
 10
728.471
 20
1417.628
 10
732.34
 20
1415.465
 10
736.1990000000001
 20
1413.309
 10
739.441
 20
1410.946
 10
742.693
 20
1408.5759999999998
 10
745.934
 20
1406.215
 10
749.8
 20
1402.416
 10
753.663
 20
1398.62
 10
756.466
 20
1394.6309999999999
 10
759.267
 20
1390.645
 10
760.965
 20
1386.53
 10
762.6610000000001
 20
1382.4189999999999
 10
763.0250000000001
 20
1379.741
 10
763.798
 20
1374.0639999999999
 10
763.191
 20
1367.964
 10
762.6320000000001
 20
1362.347
 10
762.0730000000001
 20
1356.731
 10
761.514
 20
1351.1139999999998
 10
760.98
 20
1345.754
 10
760.417
 20
1340.088
 10
759.8530000000001
 20
1334.4209999999998
 10
759.263
 20
1328.4969999999998
 10
758.74
 20
1323.2369999999999
 10
753.057
 20
1322.165
 10
747.2270000000001
 20
1321.0649999999998
 10
741.396
 20
1319.965
  0
TEXT
  5
95
330
17
100
AcDbEntity
  8
LABEL
100
AcDbText
 10
619.0
 20
1373.5269999999998
 30
0.0
 40
10.0
  1
C piece-3
 72
1
 11
619.0
 21
1373.5269999999998
 31
0.0
100
AcDbText
 73
2
  0
LWPOLYLINE
  5
96
330
17
100
AcDbEntity
  8
CUT
100
AcDbPolyline
 90
153
 70
1
 10
1062.356
 20
1356.1819999999998
 10
1068.289
 20
1356.1819999999998
 10
1074.222
 20
1356.1819999999998
 10
1085.888
 20
1356.1819999999998
 10
1086.868
 20
1356.23
 10
1087.839
 20
1356.3739999999998
 10
1088.7910000000002
 20
1356.6119999999999
 10
1089.7150000000001
 20
1356.943
 10
1090.602
 20
1357.3629999999998
 10
1091.444
 20
1357.867
 10
1092.232
 20
1358.452
 10
1092.959
 20
1359.1109999999999
 10
1093.618
 20
1359.838
 10
1094.203
 20
1360.626
 10
1094.708
 20
1361.4679999999998
 10
1095.127
 20
1362.355
 10
1095.458
 20
1363.279
 10
1095.696
 20
1364.231
 10
1095.8400000000001
 20
1365.202
 10
1095.888
 20
1366.1819999999998
 10
1095.888
 20
1371.5569999999998
 10
1095.888
 20
1377.521
 10
1095.888
 20
1383.29
 10
1095.888
 20
1389.041
 10
1095.9080000000001
 20
1394.5739999999998
 10
1095.9080000000001
 20
1394.605
 10
1095.911
 20
1400.3329999999999
 10
1095.915
 20
1406.0629999999999
 10
1095.921
 20
1411.798
 10
1095.93
 20
1417.541
 10
1095.942
 20
1423.2949999999998
 10
1095.958
 20
1429.0639999999999
 10
1095.981
 20
1434.855
 10
1096.01
 20
1440.685
 10
1095.967
 20
1441.668
 10
1095.827
 20
1442.6419999999998
 10
1095.592
 20
1443.597
 10
1095.265
 20
1444.524
 10
1094.848
 20
1445.415
 10
1094.345
 20
1446.261
 10
1093.7620000000002
 20
1447.0529999999999
 10
1093.104
 20
1447.7839999999999
 10
1092.3780000000002
 20
1448.447
 10
1091.589
 20
1449.0349999999999
 10
1090.747
 20
1449.543
 10
1089.859
 20
1449.966
 10
1088.934
 20
1450.299
 10
1087.98
 20
1450.54
 10
1087.008
 20
1450.686
 10
1086.025
 20
1450.7359999999999
 10
1080.109
 20
1450.745
 10
1074.191
 20
1450.751
 10
1068.2730000000001
 20
1450.754
 10
1062.38
 20
1450.7549999999999
 10
1056.435
 20
1450.783
 10
1056.3890000000001
 20
1450.783
 10
1050.4850000000001
 20
1450.783
 10
1044.5810000000001
 20
1450.783
 10
1032.7330000000002
 20
1450.783
 10
1026.853
 20
1450.783
 10
1020.972
 20
1450.783
 10
1015.091
 20
1450.783
 10
1009.1750000000001
 20
1450.783
 10
1003.3220000000001
 20
1450.783
 10
997.4680000000001
 20
1450.783
 10
991.614
 20
1450.783
 10
985.722
 20
1450.783
 10
979.892
 20
1450.783
 10
974.062
 20
1450.783
 10
968.231
 20
1450.783
 10
962.3530000000001
 20
1450.783
 10
956.5360000000001
 20
1450.783
 10
950.72
 20
1450.783
 10
944.903
 20
1450.783
 10
939.0240000000001
 20
1450.783
 10
933.2080000000001
 20
1450.783
 10
927.3910000000001
 20
1450.783
 10
921.575
 20
1450.783
 10
915.682
 20
1450.783
 10
909.8520000000001
 20
1450.783
 10
904.022
 20
1450.783
 10
874.715
 20
1450.783
 10
868.7710000000001
 20
1450.783
 10
862.8900000000001
 20
1450.783
 10
857.01
 20
1450.783
 10
851.129
 20
1450.783
 10
845.162
 20
1450.783
 10
839.258
 20
1450.783
 10
833.354
 20
1450.783
 10
827.45
 20
1450.783
 10
821.517
 20
1450.783
 10
815.5840000000001
 20
1450.783
 10
809.6510000000001
 20
1450.783
 10
803.918
 20
1450.783
 10
802.9380000000001
 20
1450.735
 10
801.9670000000001
 20
1450.591
 10
801.0150000000001
 20
1450.3519999999999
 10
800.091
 20
1450.022
 10
799.2040000000001
 20
1449.6019999999999
 10
798.3620000000001
 20
1449.098
 10
797.5740000000001
 20
1448.513
 10
796.8470000000001
 20
1447.8539999999998
 10
796.1880000000001
 20
1447.127
 10
795.6030000000001
 20
1446.339
 10
795.099
 20
1445.4969999999998
 10
794.6790000000001
 20
1444.61
 10
794.3480000000001
 20
1443.686
 10
794.11
 20
1442.734
 10
793.966
 20
1441.763
 10
793.918
 20
1440.783
 10
793.918
 20
1435.408
 10
793.918
 20
1429.444
 10
793.918
 20
1423.675
 10
793.918
 20
1417.924
 10
793.898
 20
1412.3909999999998
 10
793.898
 20
1412.359
 10
793.8950000000001
 20
1406.6319999999998
 10
793.8910000000001
 20
1400.9019999999998
 10
793.8850000000001
 20
1395.167
 10
793.8760000000001
 20
1389.424
 10
793.864
 20
1383.6699999999998
 10
793.8480000000001
 20
1377.9009999999998
 10
793.825
 20
1372.11
 10
793.796
 20
1366.279
 10
793.839
 20
1365.2969999999998
 10
793.979
 20
1364.3229999999999
 10
794.214
 20
1363.368
 10
794.541
 20
1362.4409999999998
 10
794.9580000000001
 20
1361.55
 10
795.461
 20
1360.704
 10
796.0440000000001
 20
1359.9119999999998
 10
796.702
 20
1359.1809999999998
 10
797.428
 20
1358.5179999999998
 10
798.2170000000001
 20
1357.9299999999998
 10
799.0590000000001
 20
1357.4219999999998
 10
799.947
 20
1356.9989999999998
 10
800.8720000000001
 20
1356.666
 10
801.826
 20
1356.425
 10
802.798
 20
1356.279
 10
803.7810000000001
 20
1356.2289999999998
 10
809.697
 20
1356.2199999999998
 10
815.615
 20
1356.214
 10
821.533
 20
1356.2109999999998
 10
827.426
 20
1356.2089999999998
 10
833.3710000000001
 20
1356.1819999999998
 10
833.417
 20
1356.1819999999998
 10
909.914
 20
1356.1819999999998
 10
915.745
 20
1356.1819999999998
 10
1015.091
 20
1356.1819999999998
 10
1021.0350000000001
 20
1356.1819999999998
 10
1026.9160000000002
 20
1356.1819999999998
 10
1032.796
 20
1356.1819999999998
 10
1056.452
 20
1356.1819999999998
  0
LWPOLYLINE
  5
97
330
17
100
AcDbEntity
  8
STITCH
100
AcDbPolyline
 90
122
 70
1
 10
1062.356
 20
1366.1819999999998
 10
1056.452
 20
1366.1819999999998
 10
1050.548
 20
1366.1819999999998
 10
1044.644
 20
1366.1819999999998
 10
1038.6770000000001
 20
1366.1819999999998
 10
1032.796
 20
1366.1819999999998
 10
1026.9160000000002
 20
1366.1819999999998
 10
1021.0350000000001
 20
1366.1819999999998
 10
1015.091
 20
1366.1819999999998
 10
1009.238
 20
1366.1819999999998
 10
1003.384
 20
1366.1819999999998
 10
997.5300000000001
 20
1366.1819999999998
 10
991.614
 20
1366.1819999999998
 10
985.7840000000001
 20
1366.1819999999998
 10
979.9540000000001
 20
1366.1819999999998
 10
974.124
 20
1366.1819999999998
 10
968.231
 20
1366.1819999999998
 10
962.4150000000001
 20
1366.1819999999998
 10
956.5980000000001
 20
1366.1819999999998
 10
950.782
 20
1366.1819999999998
 10
944.903
 20
1366.1819999999998
 10
939.086
 20
1366.1819999999998
 10
933.27
 20
1366.1819999999998
 10
927.4530000000001
 20
1366.1819999999998
 10
921.575
 20
1366.1819999999998
 10
915.745
 20
1366.1819999999998
 10
909.914
 20
1366.1819999999998
 10
904.0840000000001
 20
1366.1819999999998
 10
898.192
 20
1366.1819999999998
 10
892.3380000000001
 20
1366.1819999999998
 10
886.484
 20
1366.1819999999998
 10
880.6310000000001
 20
1366.1819999999998
 10
874.715
 20
1366.1819999999998
 10
868.8340000000001
 20
1366.1819999999998
 10
862.9530000000001
 20
1366.1819999999998
 10
857.0730000000001
 20
1366.1819999999998
 10
851.129
 20
1366.1819999999998
 10
845.225
 20
1366.1819999999998
 10
839.321
 20
1366.1819999999998
 10
833.417
 20
1366.1819999999998
 10
827.45
 20
1366.2089999999998
 10
821.5350000000001
 20
1366.2109999999998
 10
815.6210000000001
 20
1366.214
 10
809.707
 20
1366.2199999999998
 10
803.796
 20
1366.2289999999998
 10
803.825
 20
1372.0649999999998
 10
803.8470000000001
 20
1377.868
 10
803.864
 20
1383.645
 10
803.8760000000001
 20
1389.406
 10
803.8850000000001
 20
1395.154
 10
803.8910000000001
 20
1400.8929999999998
 10
803.8950000000001
 20
1406.626
 10
803.898
 20
1412.355
 10
803.918
 20
1417.906
 10
803.918
 20
1423.675
 10
803.918
 20
1429.444
 10
803.918
 20
1435.408
 10
803.918
 20
1440.783
 10
809.6510000000001
 20
1440.783
 10
815.5840000000001
 20
1440.783
 10
821.517
 20
1440.783
 10
827.45
 20
1440.783
 10
833.354
 20
1440.783
 10
839.258
 20
1440.783
 10
845.162
 20
1440.783
 10
851.129
 20
1440.783
 10
857.01
 20
1440.783
 10
862.8900000000001
 20
1440.783
 10
868.7710000000001
 20
1440.783
 10
874.715
 20
1440.783
 10
880.5680000000001
 20
1440.783
 10
886.422
 20
1440.783
 10
892.2750000000001
 20
1440.783
 10
898.192
 20
1440.783
 10
904.022
 20
1440.783
 10
909.8520000000001
 20
1440.783
 10
915.682
 20
1440.783
 10
921.575
 20
1440.783
 10
927.3910000000001
 20
1440.783
 10
933.2080000000001
 20
1440.783
 10
939.0240000000001
 20
1440.783
 10
944.903
 20
1440.783
 10
950.72
 20
1440.783
 10
956.5360000000001
 20
1440.783
 10
962.3530000000001
 20
1440.783
 10
968.231
 20
1440.783
 10
974.062
 20
1440.783
 10
979.892
 20
1440.783
 10
985.722
 20
1440.783
 10
991.614
 20
1440.783
 10
997.4680000000001
 20
1440.783
 10
1003.3220000000001
 20
1440.783
 10
1009.1750000000001
 20
1440.783
 10
1015.091
 20
1440.783
 10
1020.972
 20
1440.783
 10
1026.853
 20
1440.783
 10
1032.7330000000002
 20
1440.783
 10
1038.6770000000001
 20
1440.783
 10
1044.5810000000001
 20
1440.783
 10
1050.4850000000001
 20
1440.783
 10
1056.3890000000001
 20
1440.783
 10
1062.356
 20
1440.7549999999999
 10
1068.2710000000002
 20
1440.754
 10
1074.185
 20
1440.751
 10
1080.0990000000002
 20
1440.745
 10
1086.01
 20
1440.7359999999999
 10
1085.981
 20
1434.8999999999999
 10
1085.959
 20
1429.097
 10
1085.942
 20
1423.319
 10
1085.93
 20
1417.559
 10
1085.921
 20
1411.811
 10
1085.915
 20
1406.072
 10
1085.911
 20
1400.339
 10
1085.9080000000001
 20
1394.61
 10
1085.888
 20
1389.059
 10
1085.888
 20
1383.29
 10
1085.888
 20
1377.521
 10
1085.888
 20
1371.5569999999998
 10
1085.888
 20
1366.1819999999998
 10
1080.155
 20
1366.1819999999998
 10
1074.222
 20
1366.1819999999998
 10
1068.289
 20
1366.1819999999998
  0
TEXT
  5
98
330
17
100
AcDbEntity
  8
LABEL
100
AcDbText
 10
944.903
 20
1403.4824999999998
 30
0.0
 40
10.0
  1
D piece-4
 72
1
 11
944.903
 21
1403.4824999999998
 31
0.0
100
AcDbText
 73
2
  0
LWPOLYLINE
  5
99
330
17
100
AcDbEntity
  8
CUT
100
AcDbPolyline
 90
985
 70
1
 10
1141.761
 20
330.7829999999999
 10
1144.011
 20
330.7829999999999
 10
1144.991
 20
330.8309999999999
 10
1145.962
 20
330.9749999999999
 10
1146.914
 20
331.21399999999994
 10
1147.838
 20
331.54399999999987
 10
1148.725
 20
331.96399999999994
 10
1149.567
 20
332.46799999999985
 10
1150.355
 20
333.0529999999999
 10
1151.0819999999999
 20
333.712
 10
1151.741
 20
334.43899999999985
 10
1152.326
 20
335.22699999999986
 10
1152.831
 20
336.06899999999996
 10
1153.25
 20
336.9559999999999
 10
1153.581
 20
337.8799999999999
 10
1153.819
 20
338.8319999999999
 10
1153.963
 20
339.8029999999999
 10
1154.011
 20
340.7829999999999
 10
1154.011
 20
342.9319999999998
 10
1154.011
 20
345.0799999999999
 10
1154.011
 20
347.22799999999984
 10
1154.011
 20
349.37699999999995
 10
1154.011
 20
351.52499999999986
 10
1154.011
 20
353.674
 10
1154.011
 20
357.971
 10
1154.011
 20
360.1189999999999
 10
1154.011
 20
362.2679999999998
 10
1154.011
 20
364.41599999999994
 10
1154.011
 20
366.56399999999985
 10
1154.011
 20
368.71299999999997
 10
1154.011
 20
370.8609999999999
 10
1154.011
 20
373.01
 10
1154.011
 20
375.1579999999999
 10
1154.011
 20
377.3069999999998
 10
1154.011
 20
379.4549999999999
 10
1154.011
 20
381.60299999999984
 10
1154.011
 20
383.75199999999995
 10
1154.011
 20
385.89999999999986
 10
1154.011
 20
388.049
 10
1154.011
 20
390.1969999999999
 10
1154.011
 20
392.346
 10
1154.011
 20
396.6429999999998
 10
1154.011
 20
398.79099999999994
 10
1154.011
 20
400.93899999999985
 10
1154.011
 20
403.08799999999997
 10
1154.011
 20
405.2359999999999
 10
1154.011
 20
407.385
 10
1154.011
 20
409.5329999999999
 10
1154.011
 20
411.6819999999998
 10
1154.011
 20
413.8299999999999
 10
1154.011
 20
415.97799999999984
 10
1154.011
 20
418.12699999999995
 10
1154.011
 20
420.27499999999986
 10
1154.011
 20
422.424
 10
1154.011
 20
424.5719999999999
 10
1154.011
 20
426.721
 10
1154.011
 20
431.01800000000003
 10
1154.011
 20
433.16599999999994
 10
1154.011
 20
435.31399999999985
 10
1154.011
 20
437.46299999999974
 10
1154.011
 20
439.6109999999999
 10
1154.011
 20
441.75999999999976
 10
1154.011
 20
448.2049999999999
 10
1154.011
 20
450.35299999999995
 10
1154.011
 20
452.50199999999995
 10
1154.011
 20
454.64999999999986
 10
1154.011
 20
456.79899999999986
 10
1154.011
 20
458.9469999999999
 10
1154.011
 20
463.2439999999999
 10
1154.011
 20
467.54099999999994
 10
1154.011
 20
469.68899999999985
 10
1154.011
 20
473.9859999999999
 10
1154.011
 20
476.1349999999999
 10
1154.011
 20
478.2829999999999
 10
1154.011
 20
480.4319999999999
 10
1154.011
 20
482.5799999999999
 10
1154.011
 20
484.72799999999995
 10
1154.011
 20
486.87699999999995
 10
1154.011
 20
489.02499999999986
 10
1154.011
 20
493.3219999999999
 10
1154.011
 20
495.4709999999999
 10
1154.011
 20
499.7679999999999
 10
1154.011
 20
501.91599999999994
 10
1154.011
 20
504.06399999999985
 10
1154.011
 20
506.21299999999985
 10
1154.011
 20
508.3609999999999
 10
1154.011
 20
510.5099999999999
 10
1154.011
 20
512.6579999999999
 10
1154.011
 20
514.8069999999999
 10
1154.011
 20
516.9549999999999
 10
1154.011
 20
519.103
 10
1154.011
 20
521.252
 10
1154.011
 20
523.3999999999999
 10
1154.011
 20
525.5489999999999
 10
1154.011
 20
527.6969999999999
 10
1154.011
 20
529.8459999999999
 10
1154.011
 20
534.1429999999999
 10
1154.011
 20
536.2909999999999
 10
1154.011
 20
538.4389999999999
 10
1154.011
 20
540.5879999999999
 10
1154.011
 20
542.7359999999999
 10
1154.011
 20
544.8849999999999
 10
1154.011
 20
547.0329999999999
 10
1154.011
 20
549.1819999999999
 10
1154.011
 20
551.3299999999999
 10
1154.011
 20
553.478
 10
1154.011
 20
557.7749999999999
 10
1154.011
 20
559.9239999999999
 10
1154.011
 20
562.0719999999999
 10
1154.011
 20
564.2209999999999
 10
1154.011
 20
568.5179999999999
 10
1154.011
 20
570.6659999999999
 10
1154.011
 20
574.9629999999999
 10
1154.011
 20
577.1109999999999
 10
1154.011
 20
579.2599999999999
 10
1154.011
 20
583.5569999999999
 10
1154.011
 20
585.7049999999999
 10
1154.011
 20
587.853
 10
1154.011
 20
592.1499999999999
 10
1154.011
 20
594.2989999999999
 10
1154.011
 20
596.4469999999999
 10
1154.011
 20
602.8919999999999
 10
1154.011
 20
605.0409999999999
 10
1154.011
 20
607.1889999999999
 10
1154.011
 20
609.3379999999999
 10
1154.011
 20
611.4859999999999
 10
1154.011
 20
613.6349999999999
 10
1154.011
 20
615.7829999999999
 10
1154.011
 20
617.9319999999999
 10
1154.011
 20
620.0799999999999
 10
1154.011
 20
622.228
 10
1154.011
 20
624.377
 10
1154.011
 20
626.5249999999999
 10
1154.011
 20
628.6739999999999
 10
1154.011
 20
630.8219999999999
 10
1154.011
 20
632.9709999999999
 10
1154.011
 20
635.1189999999999
 10
1154.011
 20
637.2669999999999
 10
1154.011
 20
639.4159999999999
 10
1154.011
 20
641.5639999999999
 10
1154.011
 20
643.7129999999999
 10
1154.011
 20
645.8609999999999
 10
1154.011
 20
648.0099999999999
 10
1154.011
 20
650.1579999999999
 10
1154.011
 20
652.3069999999999
 10
1154.011
 20
654.4549999999999
 10
1154.011
 20
656.603
 10
1154.011
 20
658.752
 10
1154.011
 20
660.8999999999999
 10
1154.011
 20
663.0489999999999
 10
1154.011
 20
665.1969999999999
 10
1154.011
 20
667.3459999999999
 10
1154.011
 20
669.4939999999999
 10
1154.011
 20
671.6419999999999
 10
1154.011
 20
673.7909999999999
 10
1154.011
 20
678.0879999999999
 10
1154.011
 20
680.2359999999999
 10
1154.011
 20
682.3849999999999
 10
1154.011
 20
684.5329999999999
 10
1154.011
 20
686.6819999999999
 10
1154.011
 20
688.8299999999999
 10
1154.011
 20
690.978
 10
1154.011
 20
693.127
 10
1154.011
 20
695.2749999999999
 10
1154.011
 20
697.4239999999999
 10
1154.011
 20
699.5719999999999
 10
1154.011
 20
701.7209999999999
 10
1154.011
 20
703.8689999999999
 10
1154.011
 20
706.0169999999999
 10
1154.011
 20
708.1659999999999
 10
1154.011
 20
710.3139999999999
 10
1154.011
 20
712.4629999999999
 10
1154.011
 20
714.6109999999999
 10
1154.011
 20
716.7599999999999
 10
1154.011
 20
718.9079999999999
 10
1154.011
 20
721.0569999999999
 10
1154.011
 20
723.2049999999999
 10
1154.011
 20
725.353
 10
1154.011
 20
727.502
 10
1154.011
 20
729.6499999999999
 10
1154.011
 20
731.7989999999999
 10
1154.011
 20
733.9469999999999
 10
1154.011
 20
736.0959999999999
 10
1154.011
 20
738.2439999999999
 10
1154.011
 20
740.3919999999999
 10
1154.011
 20
742.5409999999999
 10
1154.011
 20
746.8379999999999
 10
1154.011
 20
748.9859999999999
 10
1154.011
 20
751.1349999999999
 10
1154.011
 20
753.2829999999999
 10
1154.011
 20
755.4319999999999
 10
1154.011
 20
757.5799999999999
 10
1154.011
 20
759.728
 10
1154.011
 20
761.877
 10
1154.011
 20
764.0249999999999
 10
1154.011
 20
766.1739999999999
 10
1154.011
 20
768.3219999999999
 10
1154.011
 20
770.4709999999999
 10
1154.011
 20
772.6189999999999
 10
1154.011
 20
774.7679999999999
 10
1154.011
 20
776.9159999999999
 10
1154.011
 20
779.0639999999999
 10
1154.011
 20
781.2129999999999
 10
1154.011
 20
783.3609999999999
 10
1154.011
 20
785.5099999999999
 10
1154.011
 20
787.6579999999999
 10
1154.011
 20
789.8069999999999
 10
1154.011
 20
791.9549999999999
 10
1154.011
 20
794.103
 10
1154.011
 20
796.252
 10
1154.011
 20
798.3999999999999
 10
1154.011
 20
800.5489999999999
 10
1154.011
 20
802.6969999999999
 10
1154.011
 20
804.8459999999999
 10
1154.011
 20
806.9939999999999
 10
1154.011
 20
809.1429999999999
 10
1154.011
 20
811.2909999999999
 10
1154.011
 20
815.5879999999999
 10
1154.011
 20
817.7359999999999
 10
1154.011
 20
819.8849999999999
 10
1154.011
 20
824.1819999999999
 10
1154.011
 20
826.3299999999999
 10
1154.011
 20
828.478
 10
1154.011
 20
830.627
 10
1154.011
 20
832.7749999999999
 10
1154.011
 20
834.9239999999999
 10
1154.011
 20
837.0719999999999
 10
1154.011
 20
839.2209999999999
 10
1154.011
 20
841.3689999999999
 10
1154.011
 20
843.5169999999999
 10
1154.011
 20
845.6659999999999
 10
1154.011
 20
847.8139999999999
 10
1154.011
 20
849.9629999999999
 10
1154.011
 20
852.1109999999999
 10
1154.011
 20
854.2599999999999
 10
1154.011
 20
856.4079999999999
 10
1154.011
 20
858.5559999999999
 10
1154.011
 20
860.7049999999999
 10
1154.011
 20
862.853
 10
1154.011
 20
865.002
 10
1154.011
 20
867.1499999999999
 10
1154.011
 20
869.2989999999999
 10
1154.011
 20
871.4469999999999
 10
1154.011
 20
873.5959999999999
 10
1154.011
 20
875.7439999999999
 10
1154.011
 20
880.0409999999999
 10
1154.011
 20
882.1889999999999
 10
1154.011
 20
884.3379999999999
 10
1154.011
 20
886.4859999999999
 10
1154.011
 20
888.6349999999999
 10
1154.011
 20
890.7829999999999
 10
1154.011
 20
892.9319999999999
 10
1154.011
 20
895.0799999999999
 10
1154.011
 20
899.377
 10
1154.011
 20
901.5249999999999
 10
1154.011
 20
903.6739999999999
 10
1154.011
 20
905.8219999999999
 10
1154.011
 20
907.9709999999999
 10
1154.011
 20
910.1189999999999
 10
1154.011
 20
912.2669999999999
 10
1154.011
 20
914.4159999999999
 10
1154.011
 20
916.5639999999999
 10
1154.011
 20
918.7129999999999
 10
1154.011
 20
920.8609999999999
 10
1154.011
 20
925.1579999999999
 10
1154.011
 20
927.3059999999999
 10
1154.011
 20
929.4549999999999
 10
1154.011
 20
931.603
 10
1154.011
 20
935.8999999999999
 10
1154.011
 20
938.0489999999999
 10
1154.011
 20
940.1969999999999
 10
1154.011
 20
942.3459999999999
 10
1154.011
 20
944.4939999999999
 10
1154.011
 20
946.6419999999998
 10
1154.011
 20
948.7909999999999
 10
1154.011
 20
953.088
 10
1154.011
 20
955.2359999999999
 10
1154.011
 20
961.6809999999999
 10
1154.011
 20
963.8299999999999
 10
1154.011
 20
965.9779999999998
 10
1154.011
 20
970.2749999999999
 10
1154.011
 20
972.424
 10
1154.011
 20
974.5719999999999
 10
1154.011
 20
976.7209999999999
 10
1154.011
 20
978.8689999999999
 10
1154.011
 20
981.0169999999998
 10
1154.011
 20
983.1659999999999
 10
1154.011
 20
985.3139999999999
 10
1154.011
 20
987.463
 10
1154.011
 20
989.6109999999999
 10
1154.011
 20
993.9079999999999
 10
1154.011
 20
996.0559999999999
 10
1154.011
 20
998.2049999999999
 10
1154.011
 20
1000.3529999999998
 10
1154.011
 20
1002.502
 10
1154.011
 20
1004.6499999999999
 10
1154.011
 20
1006.799
 10
1154.011
 20
1008.9469999999999
 10
1154.011
 20
1011.0959999999999
 10
1154.01
 20
1013.2439999999999
 10
1154.01
 20
1015.3919999999998
 10
1154.01
 20
1017.5409999999999
 10
1154.01
 20
1019.6889999999999
 10
1154.01
 20
1021.838
 10
1154.01
 20
1023.9859999999999
 10
1154.01
 20
1028.283
 10
1154.01
 20
1030.431
 10
1154.01
 20
1032.58
 10
1154.01
 20
1034.7279999999998
 10
1154.01
 20
1036.877
 10
1154.01
 20
1039.0249999999999
 10
1154.01
 20
1041.174
 10
1154.01
 20
1043.322
 10
1154.01
 20
1045.471
 10
1154.01
 20
1049.7669999999998
 10
1154.01
 20
1051.916
 10
1154.01
 20
1054.0639999999999
 10
1154.01
 20
1056.213
 10
1154.01
 20
1058.3609999999999
 10
1154.01
 20
1060.5099999999998
 10
1154.01
 20
1062.658
 10
1154.01
 20
1066.955
 10
1154.01
 20
1069.1029999999998
 10
1154.01
 20
1071.252
 10
1154.01
 20
1073.3999999999999
 10
1154.01
 20
1075.549
 10
1154.01
 20
1077.697
 10
1154.01
 20
1079.846
 10
1154.01
 20
1084.1419999999998
 10
1154.01
 20
1086.291
 10
1154.01
 20
1088.4389999999999
 10
1154.01
 20
1090.588
 10
1154.01
 20
1092.7359999999999
 10
1154.01
 20
1094.8849999999998
 10
1154.01
 20
1097.033
 10
1154.01
 20
1099.181
 10
1154.01
 20
1101.33
 10
1154.01
 20
1103.4779999999998
 10
1154.01
 20
1105.627
 10
1154.01
 20
1107.7749999999999
 10
1154.01
 20
1109.924
 10
1154.01
 20
1112.072
 10
1154.01
 20
1114.221
 10
1154.01
 20
1116.369
 10
1154.01
 20
1118.5169999999998
 10
1154.01
 20
1120.666
 10
1154.01
 20
1122.8139999999999
 10
1154.01
 20
1124.963
 10
1154.01
 20
1127.1109999999999
 10
1154.01
 20
1131.408
 10
1154.01
 20
1133.556
 10
1154.01
 20
1135.705
 10
1154.01
 20
1137.8529999999998
 10
1154.01
 20
1140.002
 10
1154.01
 20
1142.1499999999999
 10
1154.01
 20
1144.299
 10
1154.01
 20
1146.447
 10
1154.01
 20
1148.596
 10
1154.01
 20
1150.744
 10
1154.01
 20
1152.8919999999998
 10
1154.01
 20
1155.041
 10
1154.01
 20
1157.1889999999999
 10
1154.01
 20
1159.338
 10
1154.01
 20
1161.4859999999999
 10
1154.01
 20
1165.783
 10
1154.01
 20
1167.931
 10
1154.01
 20
1170.08
 10
1154.01
 20
1172.2279999999998
 10
1154.01
 20
1174.377
 10
1154.01
 20
1176.5249999999999
 10
1154.01
 20
1178.674
 10
1154.01
 20
1180.822
 10
1154.01
 20
1182.971
 10
1154.01
 20
1185.119
 10
1154.01
 20
1187.2669999999998
 10
1154.01
 20
1189.416
 10
1154.01
 20
1191.5639999999999
 10
1154.01
 20
1193.713
 10
1154.01
 20
1195.8609999999999
 10
1154.01
 20
1198.0099999999998
 10
1154.01
 20
1200.158
 10
1154.01
 20
1204.455
 10
1154.01
 20
1206.6029999999998
 10
1154.01
 20
1208.752
 10
1154.01
 20
1210.8999999999999
 10
1154.01
 20
1213.049
 10
1154.01
 20
1215.197
 10
1154.01
 20
1217.346
 10
1154.01
 20
1221.6419999999998
 10
1154.01
 20
1223.791
 10
1154.01
 20
1225.9389999999999
 10
1154.01
 20
1228.088
 10
1154.01
 20
1230.2359999999999
 10
1154.01
 20
1232.385
 10
1154.01
 20
1238.83
 10
1154.01
 20
1240.9779999999998
 10
1154.01
 20
1243.127
 10
1154.01
 20
1245.2749999999999
 10
1154.01
 20
1247.424
 10
1154.01
 20
1249.572
 10
1154.01
 20
1256.0169999999998
 10
1154.01
 20
1258.166
 10
1154.01
 20
1260.3139999999999
 10
1154.01
 20
1262.463
 10
1154.01
 20
1264.6109999999999
 10
1154.01
 20
1266.76
 10
1154.01
 20
1273.205
 10
1154.01
 20
1275.3529999999998
 10
1154.01
 20
1277.502
 10
1154.01
 20
1279.6499999999999
 10
1154.01
 20
1281.799
 10
1154.01
 20
1283.947
 10
1154.01
 20
1290.3919999999998
 10
1154.01
 20
1292.541
 10
1154.01
 20
1298.9859999999999
 10
1154.01
 20
1301.135
 10
1154.01
 20
1305.4309999999998
 10
1154.01
 20
1307.58
 10
1154.01
 20
1309.7279999999998
 10
1154.01
 20
1318.322
 10
1154.01
 20
1320.4699999999998
 10
1154.01
 20
1324.7669999999998
 10
1154.01
 20
1326.916
 10
1154.01
 20
1329.0639999999999
 10
1154.01
 20
1331.213
 10
1154.01
 20
1333.3609999999999
 10
1154.01
 20
1335.51
 10
1154.01
 20
1337.658
 10
1154.01
 20
1341.955
 10
1154.01
 20
1344.1029999999998
 10
1154.01
 20
1346.252
 10
1154.01
 20
1348.3999999999999
 10
1154.01
 20
1350.549
 10
1154.01
 20
1352.697
 10
1154.01
 20
1354.8449999999998
 10
1154.01
 20
1359.1419999999998
 10
1154.01
 20
1361.291
 10
1154.01
 20
1363.4389999999999
 10
1154.01
 20
1365.588
 10
1154.01
 20
1367.7359999999999
 10
1154.01
 20
1369.885
 10
1154.01
 20
1372.033
 10
1154.01
 20
1376.33
 10
1154.01
 20
1378.4779999999998
 10
1154.01
 20
1380.627
 10
1154.01
 20
1382.7749999999999
 10
1154.01
 20
1384.924
 10
1154.01
 20
1387.072
 10
1154.01
 20
1389.2199999999998
 10
1154.01
 20
1393.5169999999998
 10
1154.01
 20
1395.666
 10
1154.01
 20
1397.8139999999999
 10
1154.01
 20
1399.963
 10
1154.01
 20
1402.1109999999999
 10
1154.01
 20
1404.26
 10
1154.01
 20
1406.408
 10
1154.01
 20
1410.705
 10
1154.01
 20
1412.8529999999998
 10
1154.01
 20
1417.1499999999999
 10
1154.01
 20
1419.299
 10
1154.01
 20
1421.447
 10
1154.01
 20
1423.596
 10
1154.01
 20
1425.744
 10
1154.01
 20
1427.8919999999998
 10
1154.01
 20
1430.041
 10
1154.01
 20
1432.1889999999999
 10
1154.01
 20
1434.338
 10
1154.01
 20
1436.4859999999999
 10
1154.01
 20
1438.635
 10
1154.01
 20
1440.783
 10
1153.962
 20
1441.763
 10
1153.818
 20
1442.734
 10
1153.579
 20
1443.686
 10
1153.249
 20
1444.61
 10
1152.829
 20
1445.4969999999998
 10
1152.325
 20
1446.339
 10
1151.74
 20
1447.127
 10
1151.081
 20
1447.8539999999998
 10
1150.354
 20
1448.513
 10
1149.566
 20
1449.098
 10
1148.724
 20
1449.6019999999999
 10
1147.837
 20
1450.022
 10
1146.913
 20
1450.3519999999999
 10
1145.961
 20
1450.591
 10
1144.99
 20
1450.735
 10
1144.01
 20
1450.783
 10
1128.26
 20
1450.783
 10
1126.01
 20
1450.783
 10
1125.03
 20
1450.735
 10
1124.059
 20
1450.591
 10
1123.107
 20
1450.3519999999999
 10
1122.183
 20
1450.022
 10
1121.296
 20
1449.6019999999999
 10
1120.454
 20
1449.098
 10
1119.666
 20
1448.513
 10
1118.939
 20
1447.8539999999998
 10
1118.28
 20
1447.127
 10
1117.695
 20
1446.339
 10
1117.191
 20
1445.4969999999998
 10
1116.771
 20
1444.61
 10
1116.441
 20
1443.686
 10
1116.202
 20
1442.734
 10
1116.058
 20
1441.763
 10
1116.01
 20
1440.783
 10
1116.01
 20
1438.635
 10
1116.01
 20
1436.4859999999999
 10
1116.01
 20
1434.338
 10
1116.01
 20
1432.1889999999999
 10
1116.01
 20
1430.041
 10
1116.01
 20
1427.8919999999998
 10
1116.01
 20
1425.744
 10
1116.01
 20
1423.5949999999998
 10
1116.01
 20
1421.447
 10
1116.01
 20
1419.299
 10
1116.01
 20
1417.1499999999999
 10
1116.01
 20
1412.8529999999998
 10
1116.01
 20
1410.705
 10
1116.01
 20
1406.408
 10
1116.01
 20
1404.26
 10
1116.01
 20
1402.1109999999999
 10
1116.01
 20
1399.963
 10
1116.01
 20
1397.8139999999999
 10
1116.01
 20
1395.666
 10
1116.01
 20
1393.5169999999998
 10
1116.01
 20
1391.369
 10
1116.01
 20
1389.2199999999998
 10
1116.01
 20
1387.072
 10
1116.01
 20
1384.924
 10
1116.01
 20
1382.7749999999999
 10
1116.01
 20
1380.627
 10
1116.01
 20
1378.4779999999998
 10
1116.01
 20
1376.33
 10
1116.01
 20
1372.033
 10
1116.01
 20
1369.885
 10
1116.01
 20
1367.7359999999999
 10
1116.01
 20
1365.588
 10
1116.01
 20
1363.4389999999999
 10
1116.01
 20
1361.291
 10
1116.01
 20
1359.1419999999998
 10
1116.01
 20
1356.994
 10
1116.01
 20
1354.8449999999998
 10
1116.01
 20
1352.697
 10
1116.01
 20
1350.549
 10
1116.01
 20
1348.3999999999999
 10
1116.01
 20
1346.252
 10
1116.01
 20
1344.1029999999998
 10
1116.01
 20
1341.955
 10
1116.01
 20
1339.8059999999998
 10
1116.01
 20
1337.658
 10
1116.01
 20
1335.51
 10
1116.01
 20
1333.3609999999999
 10
1116.01
 20
1331.213
 10
1116.01
 20
1329.0639999999999
 10
1116.01
 20
1326.916
 10
1116.01
 20
1324.7669999999998
 10
1116.01
 20
1320.4699999999998
 10
1116.01
 20
1318.322
 10
1116.01
 20
1316.174
 10
1116.01
 20
1314.0249999999999
 10
1116.01
 20
1311.877
 10
1116.01
 20
1309.7279999999998
 10
1116.01
 20
1307.58
 10
1116.01
 20
1305.4309999999998
 10
1116.01
 20
1303.283
 10
1116.01
 20
1298.9859999999999
 10
1116.01
 20
1296.838
 10
1116.01
 20
1292.541
 10
1116.01
 20
1290.3919999999998
 10
1116.01
 20
1288.244
 10
1116.01
 20
1286.0949999999998
 10
1116.01
 20
1283.947
 10
1116.01
 20
1281.799
 10
1116.01
 20
1279.6499999999999
 10
1116.01
 20
1277.502
 10
1116.01
 20
1275.3529999999998
 10
1116.01
 20
1273.205
 10
1116.01
 20
1271.0559999999998
 10
1116.01
 20
1268.908
 10
1116.01
 20
1264.6109999999999
 10
1116.01
 20
1262.463
 10
1116.01
 20
1258.166
 10
1116.01
 20
1256.0169999999998
 10
1116.01
 20
1253.869
 10
1116.01
 20
1251.7199999999998
 10
1116.01
 20
1247.424
 10
1116.01
 20
1245.2749999999999
 10
1116.01
 20
1240.9779999999998
 10
1116.01
 20
1238.83
 10
1116.01
 20
1236.6809999999998
 10
1116.01
 20
1234.533
 10
1116.01
 20
1232.385
 10
1116.01
 20
1230.2359999999999
 10
1116.01
 20
1228.088
 10
1116.01
 20
1225.9389999999999
 10
1116.01
 20
1223.791
 10
1116.01
 20
1221.6419999999998
 10
1116.01
 20
1219.494
 10
1116.01
 20
1217.3449999999998
 10
1116.01
 20
1213.049
 10
1116.01
 20
1210.8999999999999
 10
1116.01
 20
1206.6029999999998
 10
1116.01
 20
1204.455
 10
1116.01
 20
1202.306
 10
1116.01
 20
1200.158
 10
1116.01
 20
1198.0099999999998
 10
1116.01
 20
1195.8609999999999
 10
1116.01
 20
1193.713
 10
1116.01
 20
1191.5639999999999
 10
1116.01
 20
1189.416
 10
1116.01
 20
1187.2669999999998
 10
1116.01
 20
1185.119
 10
1116.01
 20
1182.9699999999998
 10
1116.01
 20
1178.674
 10
1116.01
 20
1176.5249999999999
 10
1116.01
 20
1172.2279999999998
 10
1116.01
 20
1170.08
 10
1116.01
 20
1163.6349999999998
 10
1116.01
 20
1161.4859999999999
 10
1116.01
 20
1159.338
 10
1116.01
 20
1157.1889999999999
 10
1116.01
 20
1155.041
 10
1116.01
 20
1152.8919999999998
 10
1116.01
 20
1148.5949999999998
 10
1116.01
 20
1146.447
 10
1116.01
 20
1144.299
 10
1116.01
 20
1142.1499999999999
 10
1116.01
 20
1140.002
 10
1116.01
 20
1137.8529999999998
 10
1116.01
 20
1135.705
 10
1116.01
 20
1133.556
 10
1116.01
 20
1127.1109999999999
 10
1116.01
 20
1124.963
 10
1116.01
 20
1122.8139999999999
 10
1116.01
 20
1120.666
 10
1116.01
 20
1118.5169999999998
 10
1116.01
 20
1114.2199999999998
 10
1116.01
 20
1112.072
 10
1116.01
 20
1109.924
 10
1116.01
 20
1107.7749999999999
 10
1116.01
 20
1105.627
 10
1116.01
 20
1103.4779999999998
 10
1116.01
 20
1101.33
 10
1116.01
 20
1099.181
 10
1116.01
 20
1097.033
 10
1116.01
 20
1092.7359999999999
 10
1116.01
 20
1090.588
 10
1116.01
 20
1088.4389999999999
 10
1116.01
 20
1086.291
 10
1116.01
 20
1084.1419999999998
 10
1116.01
 20
1077.697
 10
1116.01
 20
1075.549
 10
1116.01
 20
1073.3999999999999
 10
1116.01
 20
1071.252
 10
1116.01
 20
1069.1029999999998
 10
1116.01
 20
1066.955
 10
1116.01
 20
1062.658
 10
1116.01
 20
1060.509
 10
1116.01
 20
1058.3609999999999
 10
1116.01
 20
1056.213
 10
1116.01
 20
1054.0639999999999
 10
1116.01
 20
1051.916
 10
1116.01
 20
1049.7669999999998
 10
1116.01
 20
1047.619
 10
1116.01
 20
1041.174
 10
1116.01
 20
1039.0249999999999
 10
1116.01
 20
1034.7279999999998
 10
1116.01
 20
1032.58
 10
1116.01
 20
1030.431
 10
1116.01
 20
1028.283
 10
1116.01
 20
1026.1349999999998
 10
1116.01
 20
1023.9859999999999
 10
1116.01
 20
1021.838
 10
1116.01
 20
1019.6889999999999
 10
1116.011
 20
1017.5409999999999
 10
1116.011
 20
1015.3919999999998
 10
1116.011
 20
1013.2439999999999
 10
1116.011
 20
1011.0959999999999
 10
1116.011
 20
1008.9469999999999
 10
1116.011
 20
1006.799
 10
1116.011
 20
1004.6499999999999
 10
1116.011
 20
1000.3529999999998
 10
1116.011
 20
998.2049999999999
 10
1116.011
 20
991.7599999999999
 10
1116.011
 20
989.6109999999999
 10
1116.011
 20
987.463
 10
1116.011
 20
985.3139999999999
 10
1116.011
 20
983.1659999999999
 10
1116.011
 20
981.0169999999998
 10
1116.011
 20
978.8689999999999
 10
1116.011
 20
976.7209999999999
 10
1116.011
 20
974.5719999999999
 10
1116.011
 20
972.424
 10
1116.011
 20
970.2749999999999
 10
1116.011
 20
968.127
 10
1116.011
 20
965.9779999999998
 10
1116.011
 20
963.8299999999999
 10
1116.011
 20
961.6809999999999
 10
1116.011
 20
955.2359999999999
 10
1116.011
 20
953.088
 10
1116.011
 20
948.7909999999999
 10
1116.011
 20
946.6419999999998
 10
1116.011
 20
942.3459999999999
 10
1116.011
 20
940.1969999999999
 10
1116.011
 20
938.0489999999999
 10
1116.011
 20
935.8999999999999
 10
1116.011
 20
933.752
 10
1116.011
 20
931.603
 10
1116.011
 20
929.4549999999999
 10
1116.011
 20
927.3059999999999
 10
1116.011
 20
925.1579999999999
 10
1116.011
 20
920.8609999999999
 10
1116.011
 20
918.7129999999999
 10
1116.011
 20
916.5639999999999
 10
1116.011
 20
914.4159999999999
 10
1116.011
 20
912.2669999999999
 10
1116.011
 20
910.1189999999999
 10
1116.011
 20
907.9699999999999
 10
1116.011
 20
905.8219999999999
 10
1116.011
 20
903.6739999999999
 10
1116.011
 20
901.5249999999999
 10
1116.011
 20
899.377
 10
1116.011
 20
897.228
 10
1116.011
 20
895.0799999999999
 10
1116.011
 20
892.9309999999999
 10
1116.011
 20
890.7829999999999
 10
1116.011
 20
888.6349999999999
 10
1116.011
 20
886.4859999999999
 10
1116.011
 20
884.3379999999999
 10
1116.011
 20
882.1889999999999
 10
1116.011
 20
880.0409999999999
 10
1116.011
 20
877.8919999999999
 10
1116.011
 20
875.7439999999999
 10
1116.011
 20
873.5949999999999
 10
1116.011
 20
871.4469999999999
 10
1116.011
 20
869.2989999999999
 10
1116.011
 20
867.1499999999999
 10
1116.011
 20
865.002
 10
1116.011
 20
862.853
 10
1116.011
 20
860.7049999999999
 10
1116.011
 20
858.5559999999999
 10
1116.011
 20
856.4079999999999
 10
1116.011
 20
854.2599999999999
 10
1116.011
 20
852.1109999999999
 10
1116.011
 20
849.9629999999999
 10
1116.011
 20
847.8139999999999
 10
1116.011
 20
845.6659999999999
 10
1116.011
 20
843.5169999999999
 10
1116.011
 20
841.3689999999999
 10
1116.011
 20
839.2199999999999
 10
1116.011
 20
837.0719999999999
 10
1116.011
 20
834.9239999999999
 10
1116.011
 20
832.7749999999999
 10
1116.011
 20
830.627
 10
1116.011
 20
828.478
 10
1116.011
 20
826.3299999999999
 10
1116.011
 20
824.1809999999999
 10
1116.011
 20
822.0329999999999
 10
1116.011
 20
819.8849999999999
 10
1116.011
 20
817.7359999999999
 10
1116.011
 20
815.5879999999999
 10
1116.011
 20
813.4389999999999
 10
1116.011
 20
811.2909999999999
 10
1116.011
 20
809.1419999999999
 10
1116.011
 20
806.9939999999999
 10
1116.011
 20
804.8459999999999
 10
1116.011
 20
802.6969999999999
 10
1116.011
 20
800.5489999999999
 10
1116.011
 20
798.3999999999999
 10
1116.011
 20
796.252
 10
1116.011
 20
794.103
 10
1116.011
 20
791.9549999999999
 10
1116.011
 20
789.8059999999999
 10
1116.011
 20
787.6579999999999
 10
1116.011
 20
785.5099999999999
 10
1116.011
 20
783.3609999999999
 10
1116.011
 20
781.2129999999999
 10
1116.011
 20
779.0639999999999
 10
1116.011
 20
776.9159999999999
 10
1116.011
 20
774.7669999999999
 10
1116.011
 20
772.6189999999999
 10
1116.011
 20
770.4709999999999
 10
1116.011
 20
768.3219999999999
 10
1116.011
 20
766.1739999999999
 10
1116.011
 20
764.0249999999999
 10
1116.011
 20
761.877
 10
1116.011
 20
759.728
 10
1116.011
 20
757.5799999999999
 10
1116.011
 20
755.4309999999999
 10
1116.011
 20
753.2829999999999
 10
1116.011
 20
751.1349999999999
 10
1116.011
 20
748.9859999999999
 10
1116.011
 20
746.8379999999999
 10
1116.011
 20
744.6889999999999
 10
1116.011
 20
742.5409999999999
 10
1116.011
 20
740.3919999999999
 10
1116.011
 20
738.2439999999999
 10
1116.011
 20
736.0959999999999
 10
1116.011
 20
733.9469999999999
 10
1116.011
 20
731.7989999999999
 10
1116.011
 20
729.6499999999999
 10
1116.011
 20
727.502
 10
1116.011
 20
725.353
 10
1116.011
 20
723.2049999999999
 10
1116.011
 20
721.0559999999999
 10
1116.011
 20
718.9079999999999
 10
1116.011
 20
716.7599999999999
 10
1116.011
 20
714.6109999999999
 10
1116.011
 20
712.4629999999999
 10
1116.011
 20
710.3139999999999
 10
1116.011
 20
708.1659999999999
 10
1116.011
 20
706.0169999999999
 10
1116.011
 20
703.8689999999999
 10
1116.011
 20
701.7209999999999
 10
1116.011
 20
699.5719999999999
 10
1116.011
 20
697.4239999999999
 10
1116.011
 20
695.2749999999999
 10
1116.011
 20
693.127
 10
1116.011
 20
690.978
 10
1116.011
 20
688.8299999999999
 10
1116.011
 20
686.6809999999999
 10
1116.011
 20
684.5329999999999
 10
1116.011
 20
682.3849999999999
 10
1116.011
 20
680.2359999999999
 10
1116.011
 20
678.0879999999999
 10
1116.011
 20
675.9389999999999
 10
1116.011
 20
673.7909999999999
 10
1116.011
 20
671.6419999999999
 10
1116.011
 20
669.4939999999999
 10
1116.011
 20
667.3459999999999
 10
1116.011
 20
665.1969999999999
 10
1116.011
 20
663.0489999999999
 10
1116.011
 20
660.8999999999999
 10
1116.011
 20
658.752
 10
1116.011
 20
656.603
 10
1116.011
 20
654.4549999999999
 10
1116.011
 20
652.3059999999999
 10
1116.011
 20
650.1579999999999
 10
1116.011
 20
648.0099999999999
 10
1116.011
 20
645.8609999999999
 10
1116.011
 20
643.7129999999999
 10
1116.011
 20
641.5639999999999
 10
1116.011
 20
639.4159999999999
 10
1116.011
 20
637.2669999999999
 10
1116.011
 20
635.1189999999999
 10
1116.011
 20
632.9699999999999
 10
1116.011
 20
630.8219999999999
 10
1116.011
 20
628.6739999999999
 10
1116.011
 20
626.5249999999999
 10
1116.011
 20
624.377
 10
1116.011
 20
622.228
 10
1116.011
 20
620.0799999999999
 10
1116.011
 20
617.9309999999999
 10
1116.011
 20
615.7829999999999
 10
1116.011
 20
613.6349999999999
 10
1116.011
 20
611.4859999999999
 10
1116.011
 20
607.1889999999999
 10
1116.011
 20
605.0409999999999
 10
1116.011
 20
600.7439999999999
 10
1116.011
 20
598.5959999999999
 10
1116.011
 20
594.2989999999999
 10
1116.011
 20
592.1499999999999
 10
1116.011
 20
587.853
 10
1116.011
 20
585.7049999999999
 10
1116.011
 20
583.5559999999999
 10
1116.011
 20
581.4079999999999
 10
1116.011
 20
579.2599999999999
 10
1116.011
 20
577.1109999999999
 10
1116.011
 20
574.9629999999999
 10
1116.011
 20
572.8139999999999
 10
1116.011
 20
570.6659999999999
 10
1116.011
 20
568.5169999999999
 10
1116.011
 20
566.3689999999999
 10
1116.011
 20
564.2209999999999
 10
1116.011
 20
559.9239999999999
 10
1116.011
 20
557.7749999999999
 10
1116.011
 20
553.478
 10
1116.011
 20
551.3299999999999
 10
1116.011
 20
547.0329999999999
 10
1116.011
 20
544.8849999999999
 10
1116.011
 20
542.7359999999999
 10
1116.011
 20
540.5879999999999
 10
1116.011
 20
538.4389999999999
 10
1116.011
 20
536.2909999999999
 10
1116.011
 20
534.1419999999999
 10
1116.011
 20
531.9939999999999
 10
1116.011
 20
529.8459999999999
 10
1116.011
 20
525.5489999999999
 10
1116.011
 20
523.3999999999999
 10
1116.011
 20
521.252
 10
1116.011
 20
519.103
 10
1116.011
 20
516.9549999999999
 10
1116.011
 20
514.8059999999999
 10
1116.011
 20
510.5099999999999
 10
1116.011
 20
508.3609999999999
 10
1116.011
 20
506.21299999999985
 10
1116.011
 20
501.91599999999994
 10
1116.011
 20
499.76699999999994
 10
1116.011
 20
497.6189999999999
 10
1116.011
 20
495.4709999999999
 10
1116.011
 20
493.3219999999999
 10
1116.011
 20
491.17399999999986
 10
1116.011
 20
489.02499999999986
 10
1116.011
 20
486.87699999999995
 10
1116.011
 20
484.72799999999995
 10
1116.011
 20
482.5799999999999
 10
1116.011
 20
480.4309999999999
 10
1116.011
 20
478.2829999999999
 10
1116.011
 20
473.9859999999999
 10
1116.011
 20
471.83799999999985
 10
1116.011
 20
469.68899999999985
 10
1116.011
 20
467.54099999999994
 10
1116.011
 20
465.39199999999994
 10
1116.011
 20
463.2439999999999
 10
1116.011
 20
458.9469999999999
 10
1116.011
 20
456.79899999999986
 10
1116.011
 20
454.64999999999986
 10
1116.011
 20
452.50199999999995
 10
1116.011
 20
450.35299999999995
 10
1116.011
 20
448.2049999999999
 10
1116.011
 20
446.0569999999998
 10
1116.011
 20
443.9079999999999
 10
1116.011
 20
439.6109999999999
 10
1116.011
 20
437.46299999999974
 10
1116.011
 20
435.31399999999985
 10
1116.011
 20
433.16599999999994
 10
1116.011
 20
431.0169999999998
 10
1116.011
 20
428.8689999999999
 10
1116.011
 20
424.5719999999999
 10
1116.011
 20
422.424
 10
1116.011
 20
420.27499999999986
 10
1116.011
 20
418.12699999999995
 10
1116.011
 20
415.97799999999984
 10
1116.011
 20
413.8299999999999
 10
1116.011
 20
411.6819999999998
 10
1116.011
 20
409.5329999999999
 10
1116.011
 20
407.385
 10
1116.011
 20
405.2359999999999
 10
1116.011
 20
403.08799999999997
 10
1116.011
 20
400.93899999999985
 10
1116.011
 20
398.79099999999994
 10
1116.011
 20
396.6419999999998
 10
1116.011
 20
394.4939999999999
 10
1116.011
 20
392.346
 10
1116.011
 20
390.1969999999999
 10
1116.011
 20
388.049
 10
1116.011
 20
385.89999999999986
 10
1116.011
 20
381.60299999999984
 10
1116.011
 20
379.4549999999999
 10
1116.011
 20
377.3069999999998
 10
1116.011
 20
375.1579999999999
 10
1116.011
 20
373.01
 10
1116.011
 20
370.8609999999999
 10
1116.011
 20
368.71299999999997
 10
1116.011
 20
366.56399999999985
 10
1116.011
 20
364.41599999999994
 10
1116.011
 20
362.2669999999998
 10
1116.011
 20
360.1189999999999
 10
1116.011
 20
357.971
 10
1116.011
 20
353.674
 10
1116.011
 20
351.52499999999986
 10
1116.011
 20
347.22799999999984
 10
1116.011
 20
345.0799999999999
 10
1116.011
 20
342.9319999999998
 10
1116.011
 20
340.7829999999999
 10
1116.059
 20
339.8029999999999
 10
1116.203
 20
338.8319999999999
 10
1116.442
 20
337.8799999999999
 10
1116.773
 20
336.9559999999999
 10
1117.192
 20
336.06899999999996
 10
1117.697
 20
335.22699999999986
 10
1118.281
 20
334.43899999999985
 10
1118.94
 20
333.712
 10
1119.667
 20
333.0529999999999
 10
1120.456
 20
332.46799999999985
 10
1121.297
 20
331.96399999999994
 10
1122.184
 20
331.54399999999987
 10
1123.108
 20
331.21399999999994
 10
1124.06
 20
330.9749999999999
 10
1125.031
 20
330.8309999999999
 10
1126.011
 20
330.7829999999999
 10
1128.261
 20
330.7829999999999
 10
1130.511
 20
330.7829999999999
 10
1135.011
 20
330.7829999999999
 10
1137.261
 20
330.7829999999999
 10
1139.511
 20
330.7829999999999
  0
LWPOLYLINE
  5
9A
330
17
100
AcDbEntity
  8
STITCH
100
AcDbPolyline
 90
1040
 70
1
 10
1141.761
 20
340.7829999999999
 10
1139.511
 20
340.7829999999999
 10
1137.261
 20
340.7829999999999
 10
1135.011
 20
340.7829999999999
 10
1132.761
 20
340.7829999999999
 10
1130.511
 20
340.7829999999999
 10
1128.261
 20
340.7829999999999
 10
1126.011
 20
340.7829999999999
 10
1126.011
 20
342.9319999999998
 10
1126.011
 20
345.0799999999999
 10
1126.011
 20
347.22799999999984
 10
1126.011
 20
349.37699999999995
 10
1126.011
 20
351.52499999999986
 10
1126.011
 20
353.674
 10
1126.011
 20
355.8219999999999
 10
1126.011
 20
357.971
 10
1126.011
 20
360.1189999999999
 10
1126.011
 20
362.2669999999998
 10
1126.011
 20
364.41599999999994
 10
1126.011
 20
366.56399999999985
 10
1126.011
 20
368.71299999999997
 10
1126.011
 20
370.8609999999999
 10
1126.011
 20
373.01
 10
1126.011
 20
375.1579999999999
 10
1126.011
 20
377.3069999999998
 10
1126.011
 20
379.4549999999999
 10
1126.011
 20
381.60299999999984
 10
1126.011
 20
383.75199999999995
 10
1126.011
 20
385.89999999999986
 10
1126.011
 20
388.049
 10
1126.011
 20
390.1969999999999
 10
1126.011
 20
392.346
 10
1126.011
 20
394.4939999999999
 10
1126.011
 20
396.6419999999998
 10
1126.011
 20
398.79099999999994
 10
1126.011
 20
400.93899999999985
 10
1126.011
 20
403.08799999999997
 10
1126.011
 20
405.2359999999999
 10
1126.011
 20
407.385
 10
1126.011
 20
409.5329999999999
 10
1126.011
 20
411.6819999999998
 10
1126.011
 20
413.8299999999999
 10
1126.011
 20
415.97799999999984
 10
1126.011
 20
418.12699999999995
 10
1126.011
 20
420.27499999999986
 10
1126.011
 20
422.424
 10
1126.011
 20
424.5719999999999
 10
1126.011
 20
426.721
 10
1126.011
 20
428.8689999999999
 10
1126.011
 20
431.0169999999998
 10
1126.011
 20
433.16599999999994
 10
1126.011
 20
435.31399999999985
 10
1126.011
 20
437.46299999999974
 10
1126.011
 20
439.6109999999999
 10
1126.011
 20
441.75999999999976
 10
1126.011
 20
443.9079999999999
 10
1126.011
 20
446.0569999999998
 10
1126.011
 20
448.2049999999999
 10
1126.011
 20
450.35299999999995
 10
1126.011
 20
452.50199999999995
 10
1126.011
 20
454.64999999999986
 10
1126.011
 20
456.79899999999986
 10
1126.011
 20
458.9469999999999
 10
1126.011
 20
461.0959999999999
 10
1126.011
 20
463.2439999999999
 10
1126.011
 20
465.39199999999994
 10
1126.011
 20
467.54099999999994
 10
1126.011
 20
469.68899999999985
 10
1126.011
 20
471.83799999999985
 10
1126.011
 20
473.9859999999999
 10
1126.011
 20
476.1349999999999
 10
1126.011
 20
478.2829999999999
 10
1126.011
 20
480.4319999999999
 10
1126.011
 20
482.5799999999999
 10
1126.011
 20
484.72799999999995
 10
1126.011
 20
486.87699999999995
 10
1126.011
 20
489.02499999999986
 10
1126.011
 20
491.17399999999986
 10
1126.011
 20
493.3219999999999
 10
1126.011
 20
495.4709999999999
 10
1126.011
 20
497.6189999999999
 10
1126.011
 20
499.76699999999994
 10
1126.011
 20
501.91599999999994
 10
1126.011
 20
504.06399999999985
 10
1126.011
 20
506.21299999999985
 10
1126.011
 20
508.3609999999999
 10
1126.011
 20
510.5099999999999
 10
1126.011
 20
512.6579999999999
 10
1126.011
 20
514.8069999999999
 10
1126.011
 20
516.9549999999999
 10
1126.011
 20
519.103
 10
1126.011
 20
521.252
 10
1126.011
 20
523.3999999999999
 10
1126.011
 20
525.5489999999999
 10
1126.011
 20
527.6969999999999
 10
1126.011
 20
529.8459999999999
 10
1126.011
 20
531.9939999999999
 10
1126.011
 20
534.1419999999999
 10
1126.011
 20
536.2909999999999
 10
1126.011
 20
538.4389999999999
 10
1126.011
 20
540.5879999999999
 10
1126.011
 20
542.7359999999999
 10
1126.011
 20
544.8849999999999
 10
1126.011
 20
547.0329999999999
 10
1126.011
 20
549.1809999999999
 10
1126.011
 20
551.3299999999999
 10
1126.011
 20
553.478
 10
1126.011
 20
555.627
 10
1126.011
 20
557.7749999999999
 10
1126.011
 20
559.9239999999999
 10
1126.011
 20
562.0719999999999
 10
1126.011
 20
564.2209999999999
 10
1126.011
 20
566.3689999999999
 10
1126.011
 20
568.5169999999999
 10
1126.011
 20
570.6659999999999
 10
1126.011
 20
572.8139999999999
 10
1126.011
 20
574.9629999999999
 10
1126.011
 20
577.1109999999999
 10
1126.011
 20
579.2599999999999
 10
1126.011
 20
581.4079999999999
 10
1126.011
 20
583.5559999999999
 10
1126.011
 20
585.7049999999999
 10
1126.011
 20
587.853
 10
1126.011
 20
590.002
 10
1126.011
 20
592.1499999999999
 10
1126.011
 20
594.2989999999999
 10
1126.011
 20
596.4469999999999
 10
1126.011
 20
598.5959999999999
 10
1126.011
 20
600.7439999999999
 10
1126.011
 20
602.8919999999999
 10
1126.011
 20
605.0409999999999
 10
1126.011
 20
607.1889999999999
 10
1126.011
 20
609.3379999999999
 10
1126.011
 20
611.4859999999999
 10
1126.011
 20
613.6349999999999
 10
1126.011
 20
615.7829999999999
 10
1126.011
 20
617.9309999999999
 10
1126.011
 20
620.0799999999999
 10
1126.011
 20
622.228
 10
1126.011
 20
624.377
 10
1126.011
 20
626.5249999999999
 10
1126.011
 20
628.6739999999999
 10
1126.011
 20
630.8219999999999
 10
1126.011
 20
632.9709999999999
 10
1126.011
 20
635.1189999999999
 10
1126.011
 20
637.2669999999999
 10
1126.011
 20
639.4159999999999
 10
1126.011
 20
641.5639999999999
 10
1126.011
 20
643.7129999999999
 10
1126.011
 20
645.8609999999999
 10
1126.011
 20
648.0099999999999
 10
1126.011
 20
650.1579999999999
 10
1126.011
 20
652.3059999999999
 10
1126.011
 20
654.4549999999999
 10
1126.011
 20
656.603
 10
1126.011
 20
658.752
 10
1126.011
 20
660.8999999999999
 10
1126.011
 20
663.0489999999999
 10
1126.011
 20
665.1969999999999
 10
1126.011
 20
667.3459999999999
 10
1126.011
 20
669.4939999999999
 10
1126.011
 20
671.6419999999999
 10
1126.011
 20
673.7909999999999
 10
1126.011
 20
675.9389999999999
 10
1126.011
 20
678.0879999999999
 10
1126.011
 20
680.2359999999999
 10
1126.011
 20
682.3849999999999
 10
1126.011
 20
684.5329999999999
 10
1126.011
 20
686.6809999999999
 10
1126.011
 20
688.8299999999999
 10
1126.011
 20
690.978
 10
1126.011
 20
693.127
 10
1126.011
 20
695.2749999999999
 10
1126.011
 20
697.4239999999999
 10
1126.011
 20
699.5719999999999
 10
1126.011
 20
701.7209999999999
 10
1126.011
 20
703.8689999999999
 10
1126.011
 20
706.0169999999999
 10
1126.011
 20
708.1659999999999
 10
1126.011
 20
710.3139999999999
 10
1126.011
 20
712.4629999999999
 10
1126.011
 20
714.6109999999999
 10
1126.011
 20
716.7599999999999
 10
1126.011
 20
718.9079999999999
 10
1126.011
 20
721.0559999999999
 10
1126.011
 20
723.2049999999999
 10
1126.011
 20
725.353
 10
1126.011
 20
727.502
 10
1126.011
 20
729.6499999999999
 10
1126.011
 20
731.7989999999999
 10
1126.011
 20
733.9469999999999
 10
1126.011
 20
736.0959999999999
 10
1126.011
 20
738.2439999999999
 10
1126.011
 20
740.3919999999999
 10
1126.011
 20
742.5409999999999
 10
1126.011
 20
744.6889999999999
 10
1126.011
 20
746.8379999999999
 10
1126.011
 20
748.9859999999999
 10
1126.011
 20
751.1349999999999
 10
1126.011
 20
753.2829999999999
 10
1126.011
 20
755.4309999999999
 10
1126.011
 20
757.5799999999999
 10
1126.011
 20
759.728
 10
1126.011
 20
761.877
 10
1126.011
 20
764.0249999999999
 10
1126.011
 20
766.1739999999999
 10
1126.011
 20
768.3219999999999
 10
1126.011
 20
770.4709999999999
 10
1126.011
 20
772.6189999999999
 10
1126.011
 20
774.7669999999999
 10
1126.011
 20
776.9159999999999
 10
1126.011
 20
779.0639999999999
 10
1126.011
 20
781.2129999999999
 10
1126.011
 20
783.3609999999999
 10
1126.011
 20
785.5099999999999
 10
1126.011
 20
787.6579999999999
 10
1126.011
 20
789.8059999999999
 10
1126.011
 20
791.9549999999999
 10
1126.011
 20
794.103
 10
1126.011
 20
796.252
 10
1126.011
 20
798.3999999999999
 10
1126.011
 20
800.5489999999999
 10
1126.011
 20
802.6969999999999
 10
1126.011
 20
804.8459999999999
 10
1126.011
 20
806.9939999999999
 10
1126.011
 20
809.1419999999999
 10
1126.011
 20
811.2909999999999
 10
1126.011
 20
813.4389999999999
 10
1126.011
 20
815.5879999999999
 10
1126.011
 20
817.7359999999999
 10
1126.011
 20
819.8849999999999
 10
1126.011
 20
822.0329999999999
 10
1126.011
 20
824.1809999999999
 10
1126.011
 20
826.3299999999999
 10
1126.011
 20
828.478
 10
1126.011
 20
830.627
 10
1126.011
 20
832.7749999999999
 10
1126.011
 20
834.9239999999999
 10
1126.011
 20
837.0719999999999
 10
1126.011
 20
839.2199999999999
 10
1126.011
 20
841.3689999999999
 10
1126.011
 20
843.5169999999999
 10
1126.011
 20
845.6659999999999
 10
1126.011
 20
847.8139999999999
 10
1126.011
 20
849.9629999999999
 10
1126.011
 20
852.1109999999999
 10
1126.011
 20
854.2599999999999
 10
1126.011
 20
856.4079999999999
 10
1126.011
 20
858.5559999999999
 10
1126.011
 20
860.7049999999999
 10
1126.011
 20
862.853
 10
1126.011
 20
865.002
 10
1126.011
 20
867.1499999999999
 10
1126.011
 20
869.2989999999999
 10
1126.011
 20
871.4469999999999
 10
1126.011
 20
873.5949999999999
 10
1126.011
 20
875.7439999999999
 10
1126.011
 20
877.8919999999999
 10
1126.011
 20
880.0409999999999
 10
1126.011
 20
882.1889999999999
 10
1126.011
 20
884.3379999999999
 10
1126.011
 20
886.4859999999999
 10
1126.011
 20
888.6349999999999
 10
1126.011
 20
890.7829999999999
 10
1126.011
 20
892.9309999999999
 10
1126.011
 20
895.0799999999999
 10
1126.011
 20
897.228
 10
1126.011
 20
899.377
 10
1126.011
 20
901.5249999999999
 10
1126.011
 20
903.6739999999999
 10
1126.011
 20
905.8219999999999
 10
1126.011
 20
907.9709999999999
 10
1126.011
 20
910.1189999999999
 10
1126.011
 20
912.2669999999999
 10
1126.011
 20
914.4159999999999
 10
1126.011
 20
916.5639999999999
 10
1126.011
 20
918.7129999999999
 10
1126.011
 20
920.8609999999999
 10
1126.011
 20
923.0099999999999
 10
1126.011
 20
925.1579999999999
 10
1126.011
 20
927.3059999999999
 10
1126.011
 20
929.4549999999999
 10
1126.011
 20
931.603
 10
1126.011
 20
933.752
 10
1126.011
 20
935.8999999999999
 10
1126.011
 20
938.0489999999999
 10
1126.011
 20
940.1969999999999
 10
1126.011
 20
942.3459999999999
 10
1126.011
 20
944.4939999999999
 10
1126.011
 20
946.6419999999998
 10
1126.011
 20
948.7909999999999
 10
1126.011
 20
950.9389999999999
 10
1126.011
 20
953.088
 10
1126.011
 20
955.2359999999999
 10
1126.011
 20
957.3849999999999
 10
1126.011
 20
959.5329999999999
 10
1126.011
 20
961.6809999999999
 10
1126.011
 20
963.8299999999999
 10
1126.011
 20
965.9779999999998
 10
1126.011
 20
968.127
 10
1126.011
 20
970.2749999999999
 10
1126.011
 20
972.424
 10
1126.011
 20
974.5719999999999
 10
1126.011
 20
976.7209999999999
 10
1126.011
 20
978.8689999999999
 10
1126.011
 20
981.0169999999998
 10
1126.011
 20
983.1659999999999
 10
1126.011
 20
985.3139999999999
 10
1126.011
 20
987.463
 10
1126.011
 20
989.6109999999999
 10
1126.011
 20
991.7599999999999
 10
1126.011
 20
993.9079999999999
 10
1126.011
 20
996.0559999999999
 10
1126.011
 20
998.2049999999999
 10
1126.011
 20
1000.3529999999998
 10
1126.011
 20
1002.502
 10
1126.011
 20
1004.6499999999999
 10
1126.011
 20
1006.799
 10
1126.011
 20
1008.9469999999999
 10
1126.011
 20
1011.0959999999999
 10
1126.011
 20
1013.2439999999999
 10
1126.011
 20
1015.3919999999998
 10
1126.011
 20
1017.5409999999999
 10
1126.01
 20
1019.6889999999999
 10
1126.01
 20
1021.838
 10
1126.01
 20
1023.9859999999999
 10
1126.01
 20
1026.1349999999998
 10
1126.01
 20
1028.283
 10
1126.01
 20
1030.431
 10
1126.01
 20
1032.58
 10
1126.01
 20
1034.7279999999998
 10
1126.01
 20
1036.877
 10
1126.01
 20
1039.0249999999999
 10
1126.01
 20
1041.174
 10
1126.01
 20
1043.322
 10
1126.01
 20
1045.4699999999998
 10
1126.01
 20
1047.619
 10
1126.01
 20
1049.7669999999998
 10
1126.01
 20
1051.916
 10
1126.01
 20
1054.0639999999999
 10
1126.01
 20
1056.213
 10
1126.01
 20
1058.3609999999999
 10
1126.01
 20
1060.509
 10
1126.01
 20
1062.658
 10
1126.01
 20
1064.806
 10
1126.01
 20
1066.955
 10
1126.01
 20
1069.1029999999998
 10
1126.01
 20
1071.252
 10
1126.01
 20
1073.3999999999999
 10
1126.01
 20
1075.549
 10
1126.01
 20
1077.697
 10
1126.01
 20
1079.8449999999998
 10
1126.01
 20
1081.994
 10
1126.01
 20
1084.1419999999998
 10
1126.01
 20
1086.291
 10
1126.01
 20
1088.4389999999999
 10
1126.01
 20
1090.588
 10
1126.01
 20
1092.7359999999999
 10
1126.01
 20
1094.884
 10
1126.01
 20
1097.033
 10
1126.01
 20
1099.181
 10
1126.01
 20
1101.33
 10
1126.01
 20
1103.4779999999998
 10
1126.01
 20
1105.627
 10
1126.01
 20
1107.7749999999999
 10
1126.01
 20
1109.924
 10
1126.01
 20
1112.072
 10
1126.01
 20
1114.2199999999998
 10
1126.01
 20
1116.369
 10
1126.01
 20
1118.5169999999998
 10
1126.01
 20
1120.666
 10
1126.01
 20
1122.8139999999999
 10
1126.01
 20
1124.963
 10
1126.01
 20
1127.1109999999999
 10
1126.01
 20
1129.2599999999998
 10
1126.01
 20
1131.408
 10
1126.01
 20
1133.556
 10
1126.01
 20
1135.705
 10
1126.01
 20
1137.8529999999998
 10
1126.01
 20
1140.002
 10
1126.01
 20
1142.1499999999999
 10
1126.01
 20
1144.299
 10
1126.01
 20
1146.447
 10
1126.01
 20
1148.5949999999998
 10
1126.01
 20
1150.744
 10
1126.01
 20
1152.8919999999998
 10
1126.01
 20
1155.041
 10
1126.01
 20
1157.1889999999999
 10
1126.01
 20
1159.338
 10
1126.01
 20
1161.4859999999999
 10
1126.01
 20
1163.6349999999998
 10
1126.01
 20
1165.783
 10
1126.01
 20
1167.931
 10
1126.01
 20
1170.08
 10
1126.01
 20
1172.2279999999998
 10
1126.01
 20
1174.377
 10
1126.01
 20
1176.5249999999999
 10
1126.01
 20
1178.674
 10
1126.01
 20
1180.822
 10
1126.01
 20
1182.9699999999998
 10
1126.01
 20
1185.119
 10
1126.01
 20
1187.2669999999998
 10
1126.01
 20
1189.416
 10
1126.01
 20
1191.5639999999999
 10
1126.01
 20
1193.713
 10
1126.01
 20
1195.8609999999999
 10
1126.01
 20
1198.0099999999998
 10
1126.01
 20
1200.158
 10
1126.01
 20
1202.306
 10
1126.01
 20
1204.455
 10
1126.01
 20
1206.6029999999998
 10
1126.01
 20
1208.752
 10
1126.01
 20
1210.8999999999999
 10
1126.01
 20
1213.049
 10
1126.01
 20
1215.197
 10
1126.01
 20
1217.3449999999998
 10
1126.01
 20
1219.494
 10
1126.01
 20
1221.6419999999998
 10
1126.01
 20
1223.791
 10
1126.01
 20
1225.9389999999999
 10
1126.01
 20
1228.088
 10
1126.01
 20
1230.2359999999999
 10
1126.01
 20
1232.385
 10
1126.01
 20
1234.533
 10
1126.01
 20
1236.6809999999998
 10
1126.01
 20
1238.83
 10
1126.01
 20
1240.9779999999998
 10
1126.01
 20
1243.127
 10
1126.01
 20
1245.2749999999999
 10
1126.01
 20
1247.424
 10
1126.01
 20
1249.572
 10
1126.01
 20
1251.7199999999998
 10
1126.01
 20
1253.869
 10
1126.01
 20
1256.0169999999998
 10
1126.01
 20
1258.166
 10
1126.01
 20
1260.3139999999999
 10
1126.01
 20
1262.463
 10
1126.01
 20
1264.6109999999999
 10
1126.01
 20
1266.76
 10
1126.01
 20
1268.908
 10
1126.01
 20
1271.0559999999998
 10
1126.01
 20
1273.205
 10
1126.01
 20
1275.3529999999998
 10
1126.01
 20
1277.502
 10
1126.01
 20
1279.6499999999999
 10
1126.01
 20
1281.799
 10
1126.01
 20
1283.947
 10
1126.01
 20
1286.0949999999998
 10
1126.01
 20
1288.244
 10
1126.01
 20
1290.3919999999998
 10
1126.01
 20
1292.541
 10
1126.01
 20
1294.6889999999999
 10
1126.01
 20
1296.838
 10
1126.01
 20
1298.9859999999999
 10
1126.01
 20
1301.135
 10
1126.01
 20
1303.283
 10
1126.01
 20
1305.4309999999998
 10
1126.01
 20
1307.58
 10
1126.01
 20
1309.7279999999998
 10
1126.01
 20
1311.877
 10
1126.01
 20
1314.0249999999999
 10
1126.01
 20
1316.174
 10
1126.01
 20
1318.322
 10
1126.01
 20
1320.4699999999998
 10
1126.01
 20
1322.619
 10
1126.01
 20
1324.7669999999998
 10
1126.01
 20
1326.916
 10
1126.01
 20
1329.0639999999999
 10
1126.01
 20
1331.213
 10
1126.01
 20
1333.3609999999999
 10
1126.01
 20
1335.51
 10
1126.01
 20
1337.658
 10
1126.01
 20
1339.8059999999998
 10
1126.01
 20
1341.955
 10
1126.01
 20
1344.1029999999998
 10
1126.01
 20
1346.252
 10
1126.01
 20
1348.3999999999999
 10
1126.01
 20
1350.549
 10
1126.01
 20
1352.697
 10
1126.01
 20
1354.8449999999998
 10
1126.01
 20
1356.994
 10
1126.01
 20
1359.1419999999998
 10
1126.01
 20
1361.291
 10
1126.01
 20
1363.4389999999999
 10
1126.01
 20
1365.588
 10
1126.01
 20
1367.7359999999999
 10
1126.01
 20
1369.885
 10
1126.01
 20
1372.033
 10
1126.01
 20
1374.1809999999998
 10
1126.01
 20
1376.33
 10
1126.01
 20
1378.4779999999998
 10
1126.01
 20
1380.627
 10
1126.01
 20
1382.7749999999999
 10
1126.01
 20
1384.924
 10
1126.01
 20
1387.072
 10
1126.01
 20
1389.2199999999998
 10
1126.01
 20
1391.369
 10
1126.01
 20
1393.5169999999998
 10
1126.01
 20
1395.666
 10
1126.01
 20
1397.8139999999999
 10
1126.01
 20
1399.963
 10
1126.01
 20
1402.1109999999999
 10
1126.01
 20
1404.26
 10
1126.01
 20
1406.408
 10
1126.01
 20
1408.5559999999998
 10
1126.01
 20
1410.705
 10
1126.01
 20
1412.8529999999998
 10
1126.01
 20
1415.002
 10
1126.01
 20
1417.1499999999999
 10
1126.01
 20
1419.299
 10
1126.01
 20
1421.447
 10
1126.01
 20
1423.5949999999998
 10
1126.01
 20
1425.744
 10
1126.01
 20
1427.8919999999998
 10
1126.01
 20
1430.041
 10
1126.01
 20
1432.1889999999999
 10
1126.01
 20
1434.338
 10
1126.01
 20
1436.4859999999999
 10
1126.01
 20
1438.635
 10
1126.01
 20
1440.783
 10
1128.26
 20
1440.783
 10
1130.51
 20
1440.783
 10
1132.76
 20
1440.783
 10
1135.01
 20
1440.783
 10
1137.26
 20
1440.783
 10
1139.51
 20
1440.783
 10
1141.76
 20
1440.783
 10
1144.01
 20
1440.783
 10
1144.01
 20
1438.635
 10
1144.01
 20
1436.4859999999999
 10
1144.01
 20
1434.338
 10
1144.01
 20
1432.1889999999999
 10
1144.01
 20
1430.041
 10
1144.01
 20
1427.8919999999998
 10
1144.01
 20
1425.744
 10
1144.01
 20
1423.5949999999998
 10
1144.01
 20
1421.447
 10
1144.01
 20
1419.299
 10
1144.01
 20
1417.1499999999999
 10
1144.01
 20
1415.002
 10
1144.01
 20
1412.8529999999998
 10
1144.01
 20
1410.705
 10
1144.01
 20
1408.5559999999998
 10
1144.01
 20
1406.408
 10
1144.01
 20
1404.26
 10
1144.01
 20
1402.1109999999999
 10
1144.01
 20
1399.963
 10
1144.01
 20
1397.8139999999999
 10
1144.01
 20
1395.666
 10
1144.01
 20
1393.5169999999998
 10
1144.01
 20
1391.369
 10
1144.01
 20
1389.2199999999998
 10
1144.01
 20
1387.072
 10
1144.01
 20
1384.924
 10
1144.01
 20
1382.7749999999999
 10
1144.01
 20
1380.627
 10
1144.01
 20
1378.4779999999998
 10
1144.01
 20
1376.33
 10
1144.01
 20
1374.1809999999998
 10
1144.01
 20
1372.033
 10
1144.01
 20
1369.885
 10
1144.01
 20
1367.7359999999999
 10
1144.01
 20
1365.588
 10
1144.01
 20
1363.4389999999999
 10
1144.01
 20
1361.291
 10
1144.01
 20
1359.1419999999998
 10
1144.01
 20
1356.994
 10
1144.01
 20
1354.8449999999998
 10
1144.01
 20
1352.697
 10
1144.01
 20
1350.549
 10
1144.01
 20
1348.3999999999999
 10
1144.01
 20
1346.252
 10
1144.01
 20
1344.1029999999998
 10
1144.01
 20
1341.955
 10
1144.01
 20
1339.8059999999998
 10
1144.01
 20
1337.658
 10
1144.01
 20
1335.51
 10
1144.01
 20
1333.3609999999999
 10
1144.01
 20
1331.213
 10
1144.01
 20
1329.0639999999999
 10
1144.01
 20
1326.916
 10
1144.01
 20
1324.7669999999998
 10
1144.01
 20
1322.619
 10
1144.01
 20
1320.4699999999998
 10
1144.01
 20
1318.322
 10
1144.01
 20
1316.174
 10
1144.01
 20
1314.0249999999999
 10
1144.01
 20
1311.877
 10
1144.01
 20
1309.7279999999998
 10
1144.01
 20
1307.58
 10
1144.01
 20
1305.4309999999998
 10
1144.01
 20
1303.283
 10
1144.01
 20
1301.135
 10
1144.01
 20
1298.9859999999999
 10
1144.01
 20
1296.838
 10
1144.01
 20
1294.6889999999999
 10
1144.01
 20
1292.541
 10
1144.01
 20
1290.3919999999998
 10
1144.01
 20
1288.244
 10
1144.01
 20
1286.096
 10
1144.01
 20
1283.947
 10
1144.01
 20
1281.799
 10
1144.01
 20
1279.6499999999999
 10
1144.01
 20
1277.502
 10
1144.01
 20
1275.3529999999998
 10
1144.01
 20
1273.205
 10
1144.01
 20
1271.0569999999998
 10
1144.01
 20
1268.908
 10
1144.01
 20
1266.76
 10
1144.01
 20
1264.6109999999999
 10
1144.01
 20
1262.463
 10
1144.01
 20
1260.3139999999999
 10
1144.01
 20
1258.166
 10
1144.01
 20
1256.0169999999998
 10
1144.01
 20
1253.869
 10
1144.01
 20
1251.721
 10
1144.01
 20
1249.572
 10
1144.01
 20
1247.424
 10
1144.01
 20
1245.2749999999999
 10
1144.01
 20
1243.127
 10
1144.01
 20
1240.9779999999998
 10
1144.01
 20
1238.83
 10
1144.01
 20
1236.6819999999998
 10
1144.01
 20
1234.533
 10
1144.01
 20
1232.385
 10
1144.01
 20
1230.2359999999999
 10
1144.01
 20
1228.088
 10
1144.01
 20
1225.9389999999999
 10
1144.01
 20
1223.791
 10
1144.01
 20
1221.6419999999998
 10
1144.01
 20
1219.494
 10
1144.01
 20
1217.346
 10
1144.01
 20
1215.197
 10
1144.01
 20
1213.049
 10
1144.01
 20
1210.8999999999999
 10
1144.01
 20
1208.752
 10
1144.01
 20
1206.6029999999998
 10
1144.01
 20
1204.455
 10
1144.01
 20
1202.306
 10
1144.01
 20
1200.158
 10
1144.01
 20
1198.0099999999998
 10
1144.01
 20
1195.8609999999999
 10
1144.01
 20
1193.713
 10
1144.01
 20
1191.5639999999999
 10
1144.01
 20
1189.416
 10
1144.01
 20
1187.2669999999998
 10
1144.01
 20
1185.119
 10
1144.01
 20
1182.971
 10
1144.01
 20
1180.822
 10
1144.01
 20
1178.674
 10
1144.01
 20
1176.5249999999999
 10
1144.01
 20
1174.377
 10
1144.01
 20
1172.2279999999998
 10
1144.01
 20
1170.08
 10
1144.01
 20
1167.931
 10
1144.01
 20
1165.783
 10
1144.01
 20
1163.6349999999998
 10
1144.01
 20
1161.4859999999999
 10
1144.01
 20
1159.338
 10
1144.01
 20
1157.1889999999999
 10
1144.01
 20
1155.041
 10
1144.01
 20
1152.8919999999998
 10
1144.01
 20
1150.744
 10
1144.01
 20
1148.596
 10
1144.01
 20
1146.447
 10
1144.01
 20
1144.299
 10
1144.01
 20
1142.1499999999999
 10
1144.01
 20
1140.002
 10
1144.01
 20
1137.8529999999998
 10
1144.01
 20
1135.705
 10
1144.01
 20
1133.556
 10
1144.01
 20
1131.408
 10
1144.01
 20
1129.2599999999998
 10
1144.01
 20
1127.1109999999999
 10
1144.01
 20
1124.963
 10
1144.01
 20
1122.8139999999999
 10
1144.01
 20
1120.666
 10
1144.01
 20
1118.5169999999998
 10
1144.01
 20
1116.369
 10
1144.01
 20
1114.221
 10
1144.01
 20
1112.072
 10
1144.01
 20
1109.924
 10
1144.01
 20
1107.7749999999999
 10
1144.01
 20
1105.627
 10
1144.01
 20
1103.4779999999998
 10
1144.01
 20
1101.33
 10
1144.01
 20
1099.181
 10
1144.01
 20
1097.033
 10
1144.01
 20
1094.8849999999998
 10
1144.01
 20
1092.7359999999999
 10
1144.01
 20
1090.588
 10
1144.01
 20
1088.4389999999999
 10
1144.01
 20
1086.291
 10
1144.01
 20
1084.1419999999998
 10
1144.01
 20
1081.994
 10
1144.01
 20
1079.846
 10
1144.01
 20
1077.697
 10
1144.01
 20
1075.549
 10
1144.01
 20
1073.3999999999999
 10
1144.01
 20
1071.252
 10
1144.01
 20
1069.1029999999998
 10
1144.01
 20
1066.955
 10
1144.01
 20
1064.806
 10
1144.01
 20
1062.658
 10
1144.01
 20
1060.5099999999998
 10
1144.01
 20
1058.3609999999999
 10
1144.01
 20
1056.213
 10
1144.01
 20
1054.0639999999999
 10
1144.01
 20
1051.916
 10
1144.01
 20
1049.7669999999998
 10
1144.01
 20
1047.619
 10
1144.01
 20
1045.471
 10
1144.01
 20
1043.322
 10
1144.01
 20
1041.174
 10
1144.01
 20
1039.0249999999999
 10
1144.01
 20
1036.877
 10
1144.01
 20
1034.7279999999998
 10
1144.01
 20
1032.58
 10
1144.01
 20
1030.431
 10
1144.01
 20
1028.283
 10
1144.01
 20
1026.1349999999998
 10
1144.01
 20
1023.9859999999999
 10
1144.01
 20
1021.838
 10
1144.01
 20
1019.6889999999999
 10
1144.01
 20
1017.5409999999999
 10
1144.01
 20
1015.3919999999998
 10
1144.01
 20
1013.2439999999999
 10
1144.011
 20
1011.0959999999999
 10
1144.011
 20
1008.9469999999999
 10
1144.011
 20
1006.799
 10
1144.011
 20
1004.6499999999999
 10
1144.011
 20
1002.502
 10
1144.011
 20
1000.3529999999998
 10
1144.011
 20
998.2049999999999
 10
1144.011
 20
996.0559999999999
 10
1144.011
 20
993.9079999999999
 10
1144.011
 20
991.7599999999999
 10
1144.011
 20
989.6109999999999
 10
1144.011
 20
987.463
 10
1144.011
 20
985.3139999999999
 10
1144.011
 20
983.1659999999999
 10
1144.011
 20
981.0169999999998
 10
1144.011
 20
978.8689999999999
 10
1144.011
 20
976.7209999999999
 10
1144.011
 20
974.5719999999999
 10
1144.011
 20
972.424
 10
1144.011
 20
970.2749999999999
 10
1144.011
 20
968.127
 10
1144.011
 20
965.9779999999998
 10
1144.011
 20
963.8299999999999
 10
1144.011
 20
961.6809999999999
 10
1144.011
 20
959.5329999999999
 10
1144.011
 20
957.3849999999999
 10
1144.011
 20
955.2359999999999
 10
1144.011
 20
953.088
 10
1144.011
 20
950.9389999999999
 10
1144.011
 20
948.7909999999999
 10
1144.011
 20
946.6419999999998
 10
1144.011
 20
944.4939999999999
 10
1144.011
 20
942.3459999999999
 10
1144.011
 20
940.1969999999999
 10
1144.011
 20
938.0489999999999
 10
1144.011
 20
935.8999999999999
 10
1144.011
 20
933.752
 10
1144.011
 20
931.603
 10
1144.011
 20
929.4549999999999
 10
1144.011
 20
927.3059999999999
 10
1144.011
 20
925.1579999999999
 10
1144.011
 20
923.0099999999999
 10
1144.011
 20
920.8609999999999
 10
1144.011
 20
918.7129999999999
 10
1144.011
 20
916.5639999999999
 10
1144.011
 20
914.4159999999999
 10
1144.011
 20
912.2669999999999
 10
1144.011
 20
910.1189999999999
 10
1144.011
 20
907.9709999999999
 10
1144.011
 20
905.8219999999999
 10
1144.011
 20
903.6739999999999
 10
1144.011
 20
901.5249999999999
 10
1144.011
 20
899.377
 10
1144.011
 20
897.228
 10
1144.011
 20
895.0799999999999
 10
1144.011
 20
892.9309999999999
 10
1144.011
 20
890.7829999999999
 10
1144.011
 20
888.6349999999999
 10
1144.011
 20
886.4859999999999
 10
1144.011
 20
884.3379999999999
 10
1144.011
 20
882.1889999999999
 10
1144.011
 20
880.0409999999999
 10
1144.011
 20
877.8919999999999
 10
1144.011
 20
875.7439999999999
 10
1144.011
 20
873.5959999999999
 10
1144.011
 20
871.4469999999999
 10
1144.011
 20
869.2989999999999
 10
1144.011
 20
867.1499999999999
 10
1144.011
 20
865.002
 10
1144.011
 20
862.853
 10
1144.011
 20
860.7049999999999
 10
1144.011
 20
858.5559999999999
 10
1144.011
 20
856.4079999999999
 10
1144.011
 20
854.2599999999999
 10
1144.011
 20
852.1109999999999
 10
1144.011
 20
849.9629999999999
 10
1144.011
 20
847.8139999999999
 10
1144.011
 20
845.6659999999999
 10
1144.011
 20
843.5169999999999
 10
1144.011
 20
841.3689999999999
 10
1144.011
 20
839.2209999999999
 10
1144.011
 20
837.0719999999999
 10
1144.011
 20
834.9239999999999
 10
1144.011
 20
832.7749999999999
 10
1144.011
 20
830.627
 10
1144.011
 20
828.478
 10
1144.011
 20
826.3299999999999
 10
1144.011
 20
824.1819999999999
 10
1144.011
 20
822.0329999999999
 10
1144.011
 20
819.8849999999999
 10
1144.011
 20
817.7359999999999
 10
1144.011
 20
815.5879999999999
 10
1144.011
 20
813.4389999999999
 10
1144.011
 20
811.2909999999999
 10
1144.011
 20
809.1419999999999
 10
1144.011
 20
806.9939999999999
 10
1144.011
 20
804.8459999999999
 10
1144.011
 20
802.6969999999999
 10
1144.011
 20
800.5489999999999
 10
1144.011
 20
798.3999999999999
 10
1144.011
 20
796.252
 10
1144.011
 20
794.103
 10
1144.011
 20
791.9549999999999
 10
1144.011
 20
789.8069999999999
 10
1144.011
 20
787.6579999999999
 10
1144.011
 20
785.5099999999999
 10
1144.011
 20
783.3609999999999
 10
1144.011
 20
781.2129999999999
 10
1144.011
 20
779.0639999999999
 10
1144.011
 20
776.9159999999999
 10
1144.011
 20
774.7669999999999
 10
1144.011
 20
772.6189999999999
 10
1144.011
 20
770.4709999999999
 10
1144.011
 20
768.3219999999999
 10
1144.011
 20
766.1739999999999
 10
1144.011
 20
764.0249999999999
 10
1144.011
 20
761.877
 10
1144.011
 20
759.728
 10
1144.011
 20
757.5799999999999
 10
1144.011
 20
755.4319999999999
 10
1144.011
 20
753.2829999999999
 10
1144.011
 20
751.1349999999999
 10
1144.011
 20
748.9859999999999
 10
1144.011
 20
746.8379999999999
 10
1144.011
 20
744.6889999999999
 10
1144.011
 20
742.5409999999999
 10
1144.011
 20
740.3919999999999
 10
1144.011
 20
738.2439999999999
 10
1144.011
 20
736.0959999999999
 10
1144.011
 20
733.9469999999999
 10
1144.011
 20
731.7989999999999
 10
1144.011
 20
729.6499999999999
 10
1144.011
 20
727.502
 10
1144.011
 20
725.353
 10
1144.011
 20
723.2049999999999
 10
1144.011
 20
721.0569999999999
 10
1144.011
 20
718.9079999999999
 10
1144.011
 20
716.7599999999999
 10
1144.011
 20
714.6109999999999
 10
1144.011
 20
712.4629999999999
 10
1144.011
 20
710.3139999999999
 10
1144.011
 20
708.1659999999999
 10
1144.011
 20
706.0169999999999
 10
1144.011
 20
703.8689999999999
 10
1144.011
 20
701.7209999999999
 10
1144.011
 20
699.5719999999999
 10
1144.011
 20
697.4239999999999
 10
1144.011
 20
695.2749999999999
 10
1144.011
 20
693.127
 10
1144.011
 20
690.978
 10
1144.011
 20
688.8299999999999
 10
1144.011
 20
686.6819999999999
 10
1144.011
 20
684.5329999999999
 10
1144.011
 20
682.3849999999999
 10
1144.011
 20
680.2359999999999
 10
1144.011
 20
678.0879999999999
 10
1144.011
 20
675.9389999999999
 10
1144.011
 20
673.7909999999999
 10
1144.011
 20
671.6419999999999
 10
1144.011
 20
669.4939999999999
 10
1144.011
 20
667.3459999999999
 10
1144.011
 20
665.1969999999999
 10
1144.011
 20
663.0489999999999
 10
1144.011
 20
660.8999999999999
 10
1144.011
 20
658.752
 10
1144.011
 20
656.603
 10
1144.011
 20
654.4549999999999
 10
1144.011
 20
652.3059999999999
 10
1144.011
 20
650.1579999999999
 10
1144.011
 20
648.0099999999999
 10
1144.011
 20
645.8609999999999
 10
1144.011
 20
643.7129999999999
 10
1144.011
 20
641.5639999999999
 10
1144.011
 20
639.4159999999999
 10
1144.011
 20
637.2669999999999
 10
1144.011
 20
635.1189999999999
 10
1144.011
 20
632.9709999999999
 10
1144.011
 20
630.8219999999999
 10
1144.011
 20
628.6739999999999
 10
1144.011
 20
626.5249999999999
 10
1144.011
 20
624.377
 10
1144.011
 20
622.228
 10
1144.011
 20
620.0799999999999
 10
1144.011
 20
617.9319999999999
 10
1144.011
 20
615.7829999999999
 10
1144.011
 20
613.6349999999999
 10
1144.011
 20
611.4859999999999
 10
1144.011
 20
609.3379999999999
 10
1144.011
 20
607.1889999999999
 10
1144.011
 20
605.0409999999999
 10
1144.011
 20
602.8919999999999
 10
1144.011
 20
600.7439999999999
 10
1144.011
 20
598.5959999999999
 10
1144.011
 20
596.4469999999999
 10
1144.011
 20
594.2989999999999
 10
1144.011
 20
592.1499999999999
 10
1144.011
 20
590.002
 10
1144.011
 20
587.853
 10
1144.011
 20
585.7049999999999
 10
1144.011
 20
583.5569999999999
 10
1144.011
 20
581.4079999999999
 10
1144.011
 20
579.2599999999999
 10
1144.011
 20
577.1109999999999
 10
1144.011
 20
574.9629999999999
 10
1144.011
 20
572.8139999999999
 10
1144.011
 20
570.6659999999999
 10
1144.011
 20
568.5169999999999
 10
1144.011
 20
566.3689999999999
 10
1144.011
 20
564.2209999999999
 10
1144.011
 20
562.0719999999999
 10
1144.011
 20
559.9239999999999
 10
1144.011
 20
557.7749999999999
 10
1144.011
 20
555.627
 10
1144.011
 20
553.478
 10
1144.011
 20
551.3299999999999
 10
1144.011
 20
549.1819999999999
 10
1144.011
 20
547.0329999999999
 10
1144.011
 20
544.8849999999999
 10
1144.011
 20
542.7359999999999
 10
1144.011
 20
540.5879999999999
 10
1144.011
 20
538.4389999999999
 10
1144.011
 20
536.2909999999999
 10
1144.011
 20
534.1419999999999
 10
1144.011
 20
531.9939999999999
 10
1144.011
 20
529.8459999999999
 10
1144.011
 20
527.6969999999999
 10
1144.011
 20
525.5489999999999
 10
1144.011
 20
523.3999999999999
 10
1144.011
 20
521.252
 10
1144.011
 20
519.103
 10
1144.011
 20
516.9549999999999
 10
1144.011
 20
514.8069999999999
 10
1144.011
 20
512.6579999999999
 10
1144.011
 20
510.5099999999999
 10
1144.011
 20
508.3609999999999
 10
1144.011
 20
506.21299999999985
 10
1144.011
 20
504.06399999999985
 10
1144.011
 20
501.91599999999994
 10
1144.011
 20
499.7679999999999
 10
1144.011
 20
497.6189999999999
 10
1144.011
 20
495.4709999999999
 10
1144.011
 20
493.3219999999999
 10
1144.011
 20
491.17399999999986
 10
1144.011
 20
489.02499999999986
 10
1144.011
 20
486.87699999999995
 10
1144.011
 20
484.72799999999995
 10
1144.011
 20
482.5799999999999
 10
1144.011
 20
480.4319999999999
 10
1144.011
 20
478.2829999999999
 10
1144.011
 20
476.1349999999999
 10
1144.011
 20
473.9859999999999
 10
1144.011
 20
471.83799999999985
 10
1144.011
 20
469.68899999999985
 10
1144.011
 20
467.54099999999994
 10
1144.011
 20
465.3929999999999
 10
1144.011
 20
463.2439999999999
 10
1144.011
 20
461.0959999999999
 10
1144.011
 20
458.9469999999999
 10
1144.011
 20
456.79899999999986
 10
1144.011
 20
454.64999999999986
 10
1144.011
 20
452.50199999999995
 10
1144.011
 20
450.35299999999995
 10
1144.011
 20
448.2049999999999
 10
1144.011
 20
446.0569999999998
 10
1144.011
 20
443.9079999999999
 10
1144.011
 20
441.75999999999976
 10
1144.011
 20
439.6109999999999
 10
1144.011
 20
437.46299999999974
 10
1144.011
 20
435.31399999999985
 10
1144.011
 20
433.16599999999994
 10
1144.011
 20
431.01800000000003
 10
1144.011
 20
428.8689999999999
 10
1144.011
 20
426.721
 10
1144.011
 20
424.5719999999999
 10
1144.011
 20
422.424
 10
1144.011
 20
420.27499999999986
 10
1144.011
 20
418.12699999999995
 10
1144.011
 20
415.97799999999984
 10
1144.011
 20
413.8299999999999
 10
1144.011
 20
411.6819999999998
 10
1144.011
 20
409.5329999999999
 10
1144.011
 20
407.385
 10
1144.011
 20
405.2359999999999
 10
1144.011
 20
403.08799999999997
 10
1144.011
 20
400.93899999999985
 10
1144.011
 20
398.79099999999994
 10
1144.011
 20
396.6429999999998
 10
1144.011
 20
394.4939999999999
 10
1144.011
 20
392.346
 10
1144.011
 20
390.1969999999999
 10
1144.011
 20
388.049
 10
1144.011
 20
385.89999999999986
 10
1144.011
 20
383.75199999999995
 10
1144.011
 20
381.60299999999984
 10
1144.011
 20
379.4549999999999
 10
1144.011
 20
377.3069999999998
 10
1144.011
 20
375.1579999999999
 10
1144.011
 20
373.01
 10
1144.011
 20
370.8609999999999
 10
1144.011
 20
368.71299999999997
 10
1144.011
 20
366.56399999999985
 10
1144.011
 20
364.41599999999994
 10
1144.011
 20
362.2679999999998
 10
1144.011
 20
360.1189999999999
 10
1144.011
 20
357.971
 10
1144.011
 20
355.8219999999999
 10
1144.011
 20
353.674
 10
1144.011
 20
351.52499999999986
 10
1144.011
 20
349.37699999999995
 10
1144.011
 20
347.22799999999984
 10
1144.011
 20
345.0799999999999
 10
1144.011
 20
342.9319999999998
 10
1144.011
 20
340.7829999999999
  0
TEXT
  5
9B
330
17
100
AcDbEntity
  8
LABEL
100
AcDbText
 10
1135.0105
 20
890.7829999999999
 30
0.0
 40
10.0
  1
E piece-5
 72
1
 11
1135.0105
 21
890.7829999999999
 31
0.0
100
AcDbText
 73
2
  0
LWPOLYLINE
  5
9C
330
17
100
AcDbEntity
  8
CUT
100
AcDbPolyline
 90
314
 70
1
 10
50.0
 20
310.7829999999999
 10
30.0
 20
310.7829999999999
 10
29.02
 20
310.7349999999999
 10
28.049
 20
310.5909999999999
 10
27.097
 20
310.35199999999986
 10
26.173000000000002
 20
310.02199999999993
 10
25.286
 20
309.60199999999986
 10
24.444
 20
309.09799999999996
 10
23.656
 20
308.5129999999999
 10
22.929
 20
307.8539999999998
 10
22.27
 20
307.12699999999995
 10
21.685
 20
306.33899999999994
 10
21.181
 20
305.49699999999984
 10
20.761
 20
304.6099999999999
 10
20.431
 20
303.6859999999999
 10
20.192
 20
302.7339999999999
 10
20.048
 20
301.7629999999999
 10
20.0
 20
300.7829999999999
 10
20.0
 20
299.7249999999999
 10
20.0
 20
298.6679999999999
 10
20.0
 20
297.6099999999999
 10
20.0
 20
295.4939999999999
 10
20.0
 20
294.4369999999999
 10
20.0
 20
293.3789999999999
 10
20.0
 20
292.3209999999999
 10
20.0
 20
290.2059999999999
 10
20.0
 20
289.1479999999999
 10
20.0
 20
287.0319999999999
 10
20.0
 20
285.9749999999999
 10
20.0
 20
284.9169999999999
 10
20.0
 20
283.8589999999999
 10
20.0
 20
282.80099999999993
 10
20.0
 20
281.7439999999999
 10
20.0
 20
280.6859999999999
 10
20.0
 20
278.56999999999994
 10
20.0
 20
277.5129999999999
 10
20.0
 20
276.4549999999999
 10
20.0
 20
275.39699999999993
 10
20.0
 20
274.33899999999994
 10
20.0
 20
273.2819999999999
 10
20.0
 20
272.22399999999993
 10
20.0
 20
271.16599999999994
 10
20.0
 20
270.10799999999995
 10
20.0
 20
269.05099999999993
 10
20.0
 20
267.99299999999994
 10
20.0
 20
266.93499999999995
 10
20.0
 20
265.87699999999995
 10
20.0
 20
264.81999999999994
 10
20.0
 20
263.76199999999994
 10
20.0
 20
262.70399999999995
 10
20.0
 20
261.64599999999996
 10
20.0
 20
260.58899999999994
 10
20.0
 20
258.47299999999996
 10
20.0
 20
257.41499999999996
 10
20.0
 20
253.18399999999997
 10
20.0
 20
252.12699999999995
 10
20.0
 20
251.06899999999996
 10
20.0
 20
248.95399999999995
 10
20.0
 20
247.89599999999996
 10
20.0
 20
245.77999999999997
 10
20.0
 20
244.72299999999996
 10
20.0
 20
243.66499999999996
 10
20.0
 20
241.54899999999998
 10
20.0
 20
240.49199999999996
 10
20.0
 20
239.43399999999997
 10
20.0
 20
238.37599999999998
 10
20.0
 20
237.31799999999998
 10
20.0
 20
236.26099999999997
 10
20.0
 20
235.20299999999997
 10
20.0
 20
234.14499999999998
 10
20.0
 20
232.02999999999997
 10
20.0
 20
230.97199999999998
 10
20.0
 20
229.914
 10
20.0
 20
227.79899999999998
 10
20.0
 20
226.74099999999999
 10
20.0
 20
225.683
 10
20.0
 20
224.625
 10
20.0
 20
223.56799999999998
 10
20.0
 20
222.51
 10
20.0
 20
221.452
 10
20.0
 20
219.337
 10
20.0
 20
218.279
 10
20.0
 20
217.221
 10
20.0
 20
214.048
 10
20.0
 20
212.98999999999978
 10
20.0
 20
211.9319999999998
 10
20.0
 20
210.875
 10
20.0
 20
209.817
 10
20.0
 20
208.75900000000001
 10
20.0
 20
207.70100000000002
 10
20.0
 20
206.644
 10
20.0
 20
204.5279999999998
 10
20.0
 20
203.4699999999998
 10
20.0
 20
201.35500000000002
 10
20.0
 20
200.2969999999998
 10
20.0
 20
199.23999999999978
 10
20.0
 20
198.1819999999998
 10
20.0
 20
197.1239999999998
 10
20.0
 20
195.00900000000001
 10
20.0
 20
193.95100000000002
 10
20.0
 20
190.7779999999998
 10
20.0
 20
189.7199999999998
 10
20.0
 20
188.6619999999998
 10
20.0
 20
187.60399999999981
 10
20.0
 20
185.4889999999998
 10
20.0
 20
184.4309999999998
 10
20.0
 20
183.37299999999982
 10
20.0
 20
182.3159999999998
 10
20.0
 20
181.2579999999998
 10
20.0
 20
180.19999999999982
 10
20.0
 20
177.02699999999982
 10
20.0
 20
175.96899999999982
 10
20.0
 20
174.91099999999983
 10
20.0
 20
172.79599999999982
 10
20.0
 20
171.73799999999983
 10
20.0
 20
170.67999999999984
 10
20.0
 20
169.62299999999982
 10
20.0
 20
168.56499999999983
 10
20.0
 20
167.50699999999983
 10
20.0
 20
166.44899999999984
 10
20.0
 20
164.33399999999983
 10
20.0
 20
163.27599999999984
 10
20.0
 20
162.21799999999985
 10
20.0
 20
161.16099999999983
 10
20.0
 20
160.10299999999984
 10
20.0
 20
159.04499999999985
 10
20.0
 20
157.98699999999985
 10
20.0
 20
156.92999999999984
 10
20.0
 20
155.87199999999984
 10
20.0
 20
154.81399999999985
 10
20.0
 20
153.75599999999986
 10
20.0
 20
151.64099999999985
 10
20.0
 20
150.58299999999986
 10
20.0
 20
149.52499999999986
 10
20.0
 20
148.46799999999985
 10
20.0
 20
147.40999999999985
 10
20.0
 20
146.35199999999986
 10
20.0
 20
145.29499999999985
 10
20.0
 20
144.23699999999985
 10
20.0
 20
143.17899999999986
 10
20.0
 20
142.12099999999987
 10
20.0
 20
141.06399999999985
 10
20.0
 20
140.00599999999986
 10
20.0
 20
138.94799999999987
 10
20.0
 20
137.88999999999987
 10
20.0
 20
136.83299999999986
 10
20.0
 20
135.77499999999986
 10
20.0
 20
134.71699999999987
 10
20.0
 20
133.65899999999988
 10
20.0
 20
132.60199999999986
 10
20.0
 20
131.54399999999987
 10
20.0
 20
130.48599999999988
 10
20.0
 20
128.37099999999987
 10
20.0
 20
127.31299999999987
 10
20.0
 20
126.25499999999988
 10
20.0
 20
125.19699999999989
 10
20.0
 20
124.13999999999987
 10
20.0
 20
123.08199999999988
 10
20.0
 20
122.02399999999989
 10
20.0
 20
120.9659999999999
 10
20.0
 20
119.90899999999988
 10
20.0
 20
118.85099999999989
 10
20.0
 20
117.79299999999989
 10
20.0
 20
115.67799999999988
 10
20.0
 20
114.61999999999989
 10
20.0
 20
113.5619999999999
 10
20.0
 20
112.5039999999999
 10
20.0
 20
111.44699999999989
 10
20.0
 20
110.3889999999999
 10
20.0
 20
109.3309999999999
 10
20.0
 20
108.27299999999991
 10
20.0
 20
107.2159999999999
 10
20.0
 20
106.1579999999999
 10
20.0
 20
105.09999999999991
 10
20.0
 20
104.04199999999992
 10
20.0
 20
102.9849999999999
 10
20.0
 20
101.92699999999991
 10
20.0
 20
100.86899999999991
 10
20.0
 20
99.8119999999999
 10
20.0
 20
98.7539999999999
 10
20.0
 20
97.69599999999991
 10
20.0
 20
96.63799999999992
 10
20.0
 20
95.5809999999999
 10
20.0
 20
94.52299999999991
 10
20.0
 20
93.46499999999992
 10
20.0
 20
92.40699999999993
 10
20.0
 20
91.34999999999991
 10
20.0
 20
90.29199999999992
 10
20.0
 20
89.23399999999992
 10
20.0
 20
88.17599999999993
 10
20.0
 20
87.11899999999991
 10
20.0
 20
86.06099999999992
 10
20.0
 20
85.00299999999993
 10
20.0
 20
83.94499999999994
 10
20.0
 20
82.88799999999992
 10
20.0
 20
81.82999999999993
 10
20.0
 20
80.77199999999993
 10
20.0
 20
79.71399999999994
 10
20.0
 20
78.65699999999993
 10
20.0
 20
77.59899999999993
 10
20.0
 20
76.54099999999994
 10
20.0
 20
75.48299999999995
 10
20.0
 20
74.42599999999993
 10
20.0
 20
73.36799999999994
 10
20.0
 20
72.30999999999995
 10
20.0
 20
71.25199999999995
 10
20.0
 20
70.19499999999994
 10
20.0
 20
69.13699999999994
 10
20.0
 20
68.07899999999995
 10
20.0
 20
67.02099999999996
 10
20.0
 20
65.96399999999994
 10
20.0
 20
64.90599999999995
 10
20.0
 20
63.847999999999956
 10
20.0
 20
62.789999999999964
 10
20.0
 20
60.674999999999955
 10
20.0
 20
59.61699999999996
 10
20.0
 20
57.50199999999995
 10
20.0
 20
56.44399999999996
 10
20.0
 20
55.38599999999997
 10
20.0
 20
54.327999999999975
 10
20.0
 20
53.27099999999996
 10
20.0
 20
51.15499999999997
 10
20.0
 20
50.097999999999956
 10
20.0
 20
47.98199999999997
 10
20.0
 20
46.92399999999998
 10
20.0
 20
45.86699999999996
 10
20.0
 20
44.80899999999997
 10
20.0
 20
43.750999999999976
 10
20.0
 20
42.692999999999984
 10
20.0
 20
41.63599999999997
 10
20.0
 20
40.577999999999975
 10
20.0
 20
38.46199999999999
 10
20.0
 20
37.40499999999997
 10
20.0
 20
36.34699999999998
 10
20.0
 20
35.28899999999976
 10
20.0
 20
34.23099999999977
 10
20.0
 20
33.17399999999998
 10
20.0
 20
32.115999999999985
 10
20.0
 20
31.057999999999993
 10
20.0
 20
30.0
 10
20.048
 20
29.019999999999982
 10
20.192
 20
28.048999999999978
 10
20.431
 20
27.097999999999956
 10
20.761
 20
26.173999999999978
 10
21.181
 20
25.28599999999983
 10
21.685
 20
24.444999999999936
 10
22.27
 20
23.65599999999995
 10
22.929
 20
22.92899999999986
 10
23.656
 20
22.269999999999982
 10
24.444
 20
21.685999999999922
 10
25.286
 20
21.18100000000004
 10
26.173000000000002
 20
20.761999999999944
 10
27.097
 20
20.43100000000004
 10
28.049
 20
20.192999999999984
 10
29.02
 20
20.048999999999978
 10
30.0
 20
20.0
 10
31.25
 20
20.0
 10
32.5
 20
20.0
 10
33.75
 20
20.0
 10
35.0
 20
20.0
 10
36.25
 20
20.0
 10
37.5
 20
20.0
 10
38.75
 20
20.0
 10
40.0
 20
20.0
 10
41.25
 20
20.0
 10
42.5
 20
20.0
 10
43.75
 20
20.0
 10
45.0
 20
20.0
 10
46.25
 20
20.0
 10
47.5
 20
20.0
 10
48.75
 20
20.0
 10
50.0
 20
20.0
 10
50.980000000000004
 20
20.048999999999978
 10
51.951
 20
20.192999999999984
 10
52.903
 20
20.43100000000004
 10
53.827
 20
20.761999999999944
 10
54.714
 20
21.18100000000004
 10
55.556
 20
21.685999999999922
 10
56.344
 20
22.269999999999982
 10
57.071
 20
22.92899999999986
 10
57.73
 20
23.65599999999995
 10
58.315
 20
24.444999999999936
 10
58.819
 20
25.28599999999983
 10
59.239
 20
26.173999999999978
 10
59.569
 20
27.097999999999956
 10
59.808
 20
28.048999999999978
 10
59.952
 20
29.019999999999982
 10
60.0
 20
30.0
 10
60.0
 20
31.057999999999993
 10
60.0
 20
96.63799999999992
 10
60.0
 20
97.69599999999991
 10
60.0
 20
98.7539999999999
 10
60.0
 20
164.33399999999983
 10
60.0
 20
166.44899999999984
 10
60.0
 20
232.02999999999997
 10
60.0
 20
233.087
 10
60.0
 20
234.14499999999998
 10
60.0
 20
299.7249999999999
 10
60.0
 20
300.7829999999999
 10
59.952
 20
301.7629999999999
 10
59.808
 20
302.7339999999999
 10
59.569
 20
303.6859999999999
 10
59.239
 20
304.6099999999999
 10
58.819
 20
305.49699999999984
 10
58.315
 20
306.33899999999994
 10
57.73
 20
307.12699999999995
 10
57.071
 20
307.8539999999998
 10
56.344
 20
308.5129999999999
 10
55.556
 20
309.09799999999996
 10
54.714
 20
309.60199999999986
 10
53.827
 20
310.02199999999993
 10
52.903
 20
310.35199999999986
 10
51.951
 20
310.5909999999999
 10
50.980000000000004
 20
310.7349999999999
  0
LWPOLYLINE
  5
9D
330
17
100
AcDbEntity
  8
STITCH
100
AcDbPolyline
 90
544
 70
1
 10
50.0
 20
300.7829999999999
 10
50.0
 20
299.7249999999999
 10
50.0
 20
298.6679999999999
 10
50.0
 20
297.6099999999999
 10
50.0
 20
296.5519999999999
 10
50.0
 20
295.4939999999999
 10
50.0
 20
294.4369999999999
 10
50.0
 20
293.3789999999999
 10
50.0
 20
292.3209999999999
 10
50.0
 20
291.2629999999999
 10
50.0
 20
290.2059999999999
 10
50.0
 20
289.1479999999999
 10
50.0
 20
288.0899999999999
 10
50.0
 20
287.0319999999999
 10
50.0
 20
285.9749999999999
 10
50.0
 20
284.9169999999999
 10
50.0
 20
283.8589999999999
 10
50.0
 20
282.80099999999993
 10
50.0
 20
281.7439999999999
 10
50.0
 20
280.6859999999999
 10
50.0
 20
279.62799999999993
 10
50.0
 20
278.56999999999994
 10
50.0
 20
277.5129999999999
 10
50.0
 20
276.4549999999999
 10
50.0
 20
275.39699999999993
 10
50.0
 20
274.33899999999994
 10
50.0
 20
273.2819999999999
 10
50.0
 20
272.22399999999993
 10
50.0
 20
271.16599999999994
 10
50.0
 20
270.10799999999995
 10
50.0
 20
269.05099999999993
 10
50.0
 20
267.99299999999994
 10
50.0
 20
266.93499999999995
 10
50.0
 20
265.87699999999995
 10
50.0
 20
264.81999999999994
 10
50.0
 20
263.76199999999994
 10
50.0
 20
262.70399999999995
 10
50.0
 20
261.64599999999996
 10
50.0
 20
260.58899999999994
 10
50.0
 20
259.53099999999995
 10
50.0
 20
258.47299999999996
 10
50.0
 20
257.41499999999996
 10
50.0
 20
256.35799999999995
 10
50.0
 20
255.29999999999995
 10
50.0
 20
254.24199999999996
 10
50.0
 20
253.18399999999997
 10
50.0
 20
252.12699999999995
 10
50.0
 20
251.06899999999996
 10
50.0
 20
250.01099999999997
 10
50.0
 20
248.95399999999995
 10
50.0
 20
247.89599999999996
 10
50.0
 20
246.83799999999997
 10
50.0
 20
245.77999999999997
 10
50.0
 20
244.72299999999996
 10
50.0
 20
243.66499999999996
 10
50.0
 20
242.60699999999997
 10
50.0
 20
241.54899999999998
 10
50.0
 20
240.49199999999996
 10
50.0
 20
239.43399999999997
 10
50.0
 20
238.37599999999998
 10
50.0
 20
237.31799999999998
 10
50.0
 20
236.26099999999997
 10
50.0
 20
235.20299999999997
 10
50.0
 20
234.14499999999998
 10
50.0
 20
233.087
 10
50.0
 20
232.02999999999997
 10
50.0
 20
230.97199999999998
 10
50.0
 20
229.914
 10
50.0
 20
228.856
 10
50.0
 20
227.79899999999998
 10
50.0
 20
226.74099999999999
 10
50.0
 20
225.683
 10
50.0
 20
224.625
 10
50.0
 20
223.56799999999998
 10
50.0
 20
222.51
 10
50.0
 20
221.452
 10
50.0
 20
220.394
 10
50.0
 20
219.337
 10
50.0
 20
218.279
 10
50.0
 20
217.221
 10
50.0
 20
216.163
 10
50.0
 20
215.106
 10
50.0
 20
214.048
 10
50.0
 20
212.98999999999978
 10
50.0
 20
211.9319999999998
 10
50.0
 20
210.875
 10
50.0
 20
209.817
 10
50.0
 20
208.75900000000001
 10
50.0
 20
207.70100000000002
 10
50.0
 20
206.644
 10
50.0
 20
205.58599999999979
 10
50.0
 20
204.5279999999998
 10
50.0
 20
203.4699999999998
 10
50.0
 20
202.413
 10
50.0
 20
201.35500000000002
 10
50.0
 20
200.2969999999998
 10
50.0
 20
199.23999999999978
 10
50.0
 20
198.1819999999998
 10
50.0
 20
197.1239999999998
 10
50.0
 20
196.0659999999998
 10
50.0
 20
195.00900000000001
 10
50.0
 20
193.95100000000002
 10
50.0
 20
192.8929999999998
 10
50.0
 20
191.8349999999998
 10
50.0
 20
190.7779999999998
 10
50.0
 20
189.7199999999998
 10
50.0
 20
188.6619999999998
 10
50.0
 20
187.60399999999981
 10
50.0
 20
186.5469999999998
 10
50.0
 20
185.4889999999998
 10
50.0
 20
184.4309999999998
 10
50.0
 20
183.37299999999982
 10
50.0
 20
182.3159999999998
 10
50.0
 20
181.2579999999998
 10
50.0
 20
180.19999999999982
 10
50.0
 20
179.14199999999983
 10
50.0
 20
178.0849999999998
 10
50.0
 20
177.02699999999982
 10
50.0
 20
175.96899999999982
 10
50.0
 20
174.91099999999983
 10
50.0
 20
173.85399999999981
 10
50.0
 20
172.79599999999982
 10
50.0
 20
171.73799999999983
 10
50.0
 20
170.67999999999984
 10
50.0
 20
169.62299999999982
 10
50.0
 20
168.56499999999983
 10
50.0
 20
167.50699999999983
 10
50.0
 20
166.44899999999984
 10
50.0
 20
165.39199999999983
 10
50.0
 20
164.33399999999983
 10
50.0
 20
163.27599999999984
 10
50.0
 20
162.21799999999985
 10
50.0
 20
161.16099999999983
 10
50.0
 20
160.10299999999984
 10
50.0
 20
159.04499999999985
 10
50.0
 20
157.98699999999985
 10
50.0
 20
156.92999999999984
 10
50.0
 20
155.87199999999984
 10
50.0
 20
154.81399999999985
 10
50.0
 20
153.75599999999986
 10
50.0
 20
152.69899999999984
 10
50.0
 20
151.64099999999985
 10
50.0
 20
150.58299999999986
 10
50.0
 20
149.52599999999984
 10
50.0
 20
148.46799999999985
 10
50.0
 20
147.40999999999985
 10
50.0
 20
146.35199999999986
 10
50.0
 20
145.29499999999985
 10
50.0
 20
144.23699999999985
 10
50.0
 20
143.17899999999986
 10
50.0
 20
142.12099999999987
 10
50.0
 20
141.06399999999985
 10
50.0
 20
140.00599999999986
 10
50.0
 20
138.94799999999987
 10
50.0
 20
137.88999999999987
 10
50.0
 20
136.83299999999986
 10
50.0
 20
135.77499999999986
 10
50.0
 20
134.71699999999987
 10
50.0
 20
133.65899999999988
 10
50.0
 20
132.60199999999986
 10
50.0
 20
131.54399999999987
 10
50.0
 20
130.48599999999988
 10
50.0
 20
129.42799999999988
 10
50.0
 20
128.37099999999987
 10
50.0
 20
127.31299999999987
 10
50.0
 20
126.25499999999988
 10
50.0
 20
125.19699999999989
 10
50.0
 20
124.13999999999987
 10
50.0
 20
123.08199999999988
 10
50.0
 20
122.02399999999989
 10
50.0
 20
120.9659999999999
 10
50.0
 20
119.90899999999988
 10
50.0
 20
118.85099999999989
 10
50.0
 20
117.79299999999989
 10
50.0
 20
116.7349999999999
 10
50.0
 20
115.67799999999988
 10
50.0
 20
114.61999999999989
 10
50.0
 20
113.5619999999999
 10
50.0
 20
112.5039999999999
 10
50.0
 20
111.44699999999989
 10
50.0
 20
110.3889999999999
 10
50.0
 20
109.3309999999999
 10
50.0
 20
108.27299999999991
 10
50.0
 20
107.2159999999999
 10
50.0
 20
106.1579999999999
 10
50.0
 20
105.09999999999991
 10
50.0
 20
104.04199999999992
 10
50.0
 20
102.9849999999999
 10
50.0
 20
101.92699999999991
 10
50.0
 20
100.86899999999991
 10
50.0
 20
99.8119999999999
 10
50.0
 20
98.7539999999999
 10
50.0
 20
97.69599999999991
 10
50.0
 20
96.63799999999992
 10
50.0
 20
95.5809999999999
 10
50.0
 20
94.52299999999991
 10
50.0
 20
93.46499999999992
 10
50.0
 20
92.40699999999993
 10
50.0
 20
91.34999999999991
 10
50.0
 20
90.29199999999992
 10
50.0
 20
89.23399999999992
 10
50.0
 20
88.17599999999993
 10
50.0
 20
87.11899999999991
 10
50.0
 20
86.06099999999992
 10
50.0
 20
85.00299999999993
 10
50.0
 20
83.94499999999994
 10
50.0
 20
82.88799999999992
 10
50.0
 20
81.82999999999993
 10
50.0
 20
80.77199999999993
 10
50.0
 20
79.71399999999994
 10
50.0
 20
78.65699999999993
 10
50.0
 20
77.59899999999993
 10
50.0
 20
76.54099999999994
 10
50.0
 20
75.48299999999995
 10
50.0
 20
74.42599999999993
 10
50.0
 20
73.36799999999994
 10
50.0
 20
72.30999999999995
 10
50.0
 20
71.25199999999995
 10
50.0
 20
70.19499999999994
 10
50.0
 20
69.13699999999994
 10
50.0
 20
68.07899999999995
 10
50.0
 20
67.02099999999996
 10
50.0
 20
65.96399999999994
 10
50.0
 20
64.90599999999995
 10
50.0
 20
63.847999999999956
 10
50.0
 20
62.789999999999964
 10
50.0
 20
61.73299999999995
 10
50.0
 20
60.674999999999955
 10
50.0
 20
59.61699999999996
 10
50.0
 20
58.55899999999997
 10
50.0
 20
57.50199999999995
 10
50.0
 20
56.44399999999996
 10
50.0
 20
55.38599999999997
 10
50.0
 20
54.327999999999975
 10
50.0
 20
53.27099999999996
 10
50.0
 20
52.212999999999965
 10
50.0
 20
51.15499999999997
 10
50.0
 20
50.097999999999956
 10
50.0
 20
49.039999999999964
 10
50.0
 20
47.98199999999997
 10
50.0
 20
46.92399999999998
 10
50.0
 20
45.86699999999996
 10
50.0
 20
44.80899999999997
 10
50.0
 20
43.750999999999976
 10
50.0
 20
42.692999999999984
 10
50.0
 20
41.63599999999997
 10
50.0
 20
40.577999999999975
 10
50.0
 20
39.51999999999998
 10
50.0
 20
38.46199999999999
 10
50.0
 20
37.40499999999997
 10
50.0
 20
36.34699999999998
 10
50.0
 20
35.28899999999976
 10
50.0
 20
34.23099999999977
 10
50.0
 20
33.17399999999998
 10
50.0
 20
32.115999999999985
 10
50.0
 20
31.057999999999993
 10
50.0
 20
30.0
 10
48.75
 20
30.0
 10
47.5
 20
30.0
 10
46.25
 20
30.0
 10
45.0
 20
30.0
 10
43.75
 20
30.0
 10
42.5
 20
30.0
 10
41.25
 20
30.0
 10
40.0
 20
30.0
 10
38.75
 20
30.0
 10
37.5
 20
30.0
 10
36.25
 20
30.0
 10
35.0
 20
30.0
 10
33.75
 20
30.0
 10
32.5
 20
30.0
 10
31.25
 20
30.0
 10
30.0
 20
30.0
 10
30.0
 20
31.057999999999993
 10
30.0
 20
32.115999999999985
 10
30.0
 20
33.17399999999998
 10
30.0
 20
34.23099999999977
 10
30.0
 20
35.28899999999976
 10
30.0
 20
36.34699999999998
 10
30.0
 20
37.40499999999997
 10
30.0
 20
38.46199999999999
 10
30.0
 20
39.51999999999998
 10
30.0
 20
40.577999999999975
 10
30.0
 20
41.63599999999997
 10
30.0
 20
42.692999999999984
 10
30.0
 20
43.750999999999976
 10
30.0
 20
44.80899999999997
 10
30.0
 20
45.86699999999996
 10
30.0
 20
46.92399999999998
 10
30.0
 20
47.98199999999997
 10
30.0
 20
49.039999999999964
 10
30.0
 20
50.097999999999956
 10
30.0
 20
51.15499999999997
 10
30.0
 20
52.212999999999965
 10
30.0
 20
53.27099999999996
 10
30.0
 20
54.327999999999975
 10
30.0
 20
55.38599999999997
 10
30.0
 20
56.44399999999996
 10
30.0
 20
57.50199999999995
 10
30.0
 20
58.55899999999997
 10
30.0
 20
59.61699999999996
 10
30.0
 20
60.674999999999955
 10
30.0
 20
61.73299999999995
 10
30.0
 20
62.789999999999964
 10
30.0
 20
63.847999999999956
 10
30.0
 20
64.90599999999995
 10
30.0
 20
65.96399999999994
 10
30.0
 20
67.02099999999996
 10
30.0
 20
68.07899999999995
 10
30.0
 20
69.13699999999994
 10
30.0
 20
70.19499999999994
 10
30.0
 20
71.25199999999995
 10
30.0
 20
72.30999999999995
 10
30.0
 20
73.36799999999994
 10
30.0
 20
74.42599999999993
 10
30.0
 20
75.48299999999995
 10
30.0
 20
76.54099999999994
 10
30.0
 20
77.59899999999993
 10
30.0
 20
78.65699999999993
 10
30.0
 20
79.71399999999994
 10
30.0
 20
80.77199999999993
 10
30.0
 20
81.82999999999993
 10
30.0
 20
82.88799999999992
 10
30.0
 20
83.94499999999994
 10
30.0
 20
85.00299999999993
 10
30.0
 20
86.06099999999992
 10
30.0
 20
87.11899999999991
 10
30.0
 20
88.17599999999993
 10
30.0
 20
89.23399999999992
 10
30.0
 20
90.29199999999992
 10
30.0
 20
91.34999999999991
 10
30.0
 20
92.40699999999993
 10
30.0
 20
93.46499999999992
 10
30.0
 20
94.52299999999991
 10
30.0
 20
95.5809999999999
 10
30.0
 20
96.63799999999992
 10
30.0
 20
97.69599999999991
 10
30.0
 20
98.7539999999999
 10
30.0
 20
99.8119999999999
 10
30.0
 20
100.86899999999991
 10
30.0
 20
101.92699999999991
 10
30.0
 20
102.9849999999999
 10
30.0
 20
104.04199999999992
 10
30.0
 20
105.09999999999991
 10
30.0
 20
106.1579999999999
 10
30.0
 20
107.2159999999999
 10
30.0
 20
108.27299999999991
 10
30.0
 20
109.3309999999999
 10
30.0
 20
110.3889999999999
 10
30.0
 20
111.44699999999989
 10
30.0
 20
112.5039999999999
 10
30.0
 20
113.5619999999999
 10
30.0
 20
114.61999999999989
 10
30.0
 20
115.67799999999988
 10
30.0
 20
116.7349999999999
 10
30.0
 20
117.79299999999989
 10
30.0
 20
118.85099999999989
 10
30.0
 20
119.90899999999988
 10
30.0
 20
120.9659999999999
 10
30.0
 20
122.02399999999989
 10
30.0
 20
123.08199999999988
 10
30.0
 20
124.13999999999987
 10
30.0
 20
125.19699999999989
 10
30.0
 20
126.25499999999988
 10
30.0
 20
127.31299999999987
 10
30.0
 20
128.37099999999987
 10
30.0
 20
129.42799999999988
 10
30.0
 20
130.48599999999988
 10
30.0
 20
131.54399999999987
 10
30.0
 20
132.60199999999986
 10
30.0
 20
133.65899999999988
 10
30.0
 20
134.71699999999987
 10
30.0
 20
135.77499999999986
 10
30.0
 20
136.83299999999986
 10
30.0
 20
137.88999999999987
 10
30.0
 20
138.94799999999987
 10
30.0
 20
140.00599999999986
 10
30.0
 20
141.06399999999985
 10
30.0
 20
142.12099999999987
 10
30.0
 20
143.17899999999986
 10
30.0
 20
144.23699999999985
 10
30.0
 20
145.29499999999985
 10
30.0
 20
146.35199999999986
 10
30.0
 20
147.40999999999985
 10
30.0
 20
148.46799999999985
 10
30.0
 20
149.52499999999986
 10
30.0
 20
150.58299999999986
 10
30.0
 20
151.64099999999985
 10
30.0
 20
152.69899999999984
 10
30.0
 20
153.75599999999986
 10
30.0
 20
154.81399999999985
 10
30.0
 20
155.87199999999984
 10
30.0
 20
156.92999999999984
 10
30.0
 20
157.98699999999985
 10
30.0
 20
159.04499999999985
 10
30.0
 20
160.10299999999984
 10
30.0
 20
161.16099999999983
 10
30.0
 20
162.21799999999985
 10
30.0
 20
163.27599999999984
 10
30.0
 20
164.33399999999983
 10
30.0
 20
165.39199999999983
 10
30.0
 20
166.44899999999984
 10
30.0
 20
167.50699999999983
 10
30.0
 20
168.56499999999983
 10
30.0
 20
169.62299999999982
 10
30.0
 20
170.67999999999984
 10
30.0
 20
171.73799999999983
 10
30.0
 20
172.79599999999982
 10
30.0
 20
173.85399999999981
 10
30.0
 20
174.91099999999983
 10
30.0
 20
175.96899999999982
 10
30.0
 20
177.02699999999982
 10
30.0
 20
178.0849999999998
 10
30.0
 20
179.14199999999983
 10
30.0
 20
180.19999999999982
 10
30.0
 20
181.2579999999998
 10
30.0
 20
182.3159999999998
 10
30.0
 20
183.37299999999982
 10
30.0
 20
184.4309999999998
 10
30.0
 20
185.4889999999998
 10
30.0
 20
186.5469999999998
 10
30.0
 20
187.60399999999981
 10
30.0
 20
188.6619999999998
 10
30.0
 20
189.7199999999998
 10
30.0
 20
190.7779999999998
 10
30.0
 20
191.8349999999998
 10
30.0
 20
192.8929999999998
 10
30.0
 20
193.95100000000002
 10
30.0
 20
195.00900000000001
 10
30.0
 20
196.0659999999998
 10
30.0
 20
197.1239999999998
 10
30.0
 20
198.1819999999998
 10
30.0
 20
199.23999999999978
 10
30.0
 20
200.2969999999998
 10
30.0
 20
201.35500000000002
 10
30.0
 20
202.413
 10
30.0
 20
203.4699999999998
 10
30.0
 20
204.5279999999998
 10
30.0
 20
205.58599999999979
 10
30.0
 20
206.644
 10
30.0
 20
207.70100000000002
 10
30.0
 20
208.75900000000001
 10
30.0
 20
209.817
 10
30.0
 20
210.875
 10
30.0
 20
211.9319999999998
 10
30.0
 20
212.98999999999978
 10
30.0
 20
214.048
 10
30.0
 20
215.106
 10
30.0
 20
216.163
 10
30.0
 20
217.221
 10
30.0
 20
218.279
 10
30.0
 20
219.337
 10
30.0
 20
220.394
 10
30.0
 20
221.452
 10
30.0
 20
222.51
 10
30.0
 20
223.56799999999998
 10
30.0
 20
224.625
 10
30.0
 20
225.683
 10
30.0
 20
226.74099999999999
 10
30.0
 20
227.79899999999998
 10
30.0
 20
228.856
 10
30.0
 20
229.914
 10
30.0
 20
230.97199999999998
 10
30.0
 20
232.02999999999997
 10
30.0
 20
233.087
 10
30.0
 20
234.14499999999998
 10
30.0
 20
235.20299999999997
 10
30.0
 20
236.26099999999997
 10
30.0
 20
237.31799999999998
 10
30.0
 20
238.37599999999998
 10
30.0
 20
239.43399999999997
 10
30.0
 20
240.49199999999996
 10
30.0
 20
241.54899999999998
 10
30.0
 20
242.60699999999997
 10
30.0
 20
243.66499999999996
 10
30.0
 20
244.72299999999996
 10
30.0
 20
245.77999999999997
 10
30.0
 20
246.83799999999997
 10
30.0
 20
247.89599999999996
 10
30.0
 20
248.95399999999995
 10
30.0
 20
250.01099999999997
 10
30.0
 20
251.06899999999996
 10
30.0
 20
252.12699999999995
 10
30.0
 20
253.18399999999997
 10
30.0
 20
254.24199999999996
 10
30.0
 20
255.29999999999995
 10
30.0
 20
256.35799999999995
 10
30.0
 20
257.41499999999996
 10
30.0
 20
258.47299999999996
 10
30.0
 20
259.53099999999995
 10
30.0
 20
260.58899999999994
 10
30.0
 20
261.64599999999996
 10
30.0
 20
262.70399999999995
 10
30.0
 20
263.76199999999994
 10
30.0
 20
264.81999999999994
 10
30.0
 20
265.87699999999995
 10
30.0
 20
266.93499999999995
 10
30.0
 20
267.99299999999994
 10
30.0
 20
269.05099999999993
 10
30.0
 20
270.10799999999995
 10
30.0
 20
271.16599999999994
 10
30.0
 20
272.22399999999993
 10
30.0
 20
273.2819999999999
 10
30.0
 20
274.33899999999994
 10
30.0
 20
275.39699999999993
 10
30.0
 20
276.4549999999999
 10
30.0
 20
277.5129999999999
 10
30.0
 20
278.56999999999994
 10
30.0
 20
279.62799999999993
 10
30.0
 20
280.6859999999999
 10
30.0
 20
281.7439999999999
 10
30.0
 20
282.80099999999993
 10
30.0
 20
283.8589999999999
 10
30.0
 20
284.9169999999999
 10
30.0
 20
285.9749999999999
 10
30.0
 20
287.0319999999999
 10
30.0
 20
288.0899999999999
 10
30.0
 20
289.1479999999999
 10
30.0
 20
290.2059999999999
 10
30.0
 20
291.2629999999999
 10
30.0
 20
292.3209999999999
 10
30.0
 20
293.3789999999999
 10
30.0
 20
294.4369999999999
 10
30.0
 20
295.4939999999999
 10
30.0
 20
296.5519999999999
 10
30.0
 20
297.6099999999999
 10
30.0
 20
298.6679999999999
 10
30.0
 20
299.7249999999999
 10
30.0
 20
300.7829999999999
 10
31.25
 20
300.7829999999999
 10
32.5
 20
300.7829999999999
 10
33.75
 20
300.7829999999999
 10
35.0
 20
300.7829999999999
 10
36.25
 20
300.7829999999999
 10
37.5
 20
300.7829999999999
 10
38.75
 20
300.7829999999999
 10
40.0
 20
300.7829999999999
 10
41.25
 20
300.7829999999999
 10
42.5
 20
300.7829999999999
 10
43.75
 20
300.7829999999999
 10
45.0
 20
300.7829999999999
 10
46.25
 20
300.7829999999999
 10
47.5
 20
300.7829999999999
 10
48.75
 20
300.7829999999999
  0
TEXT
  5
9E
330
17
100
AcDbEntity
  8
LABEL
100
AcDbText
 10
40.0
 20
165.39149999999995
 30
0.0
 40
10.0
  1
F piece-6
 72
1
 11
40.0
 21
165.39149999999995
 31
0.0
100
AcDbText
 73
2
  0
ENDSEC
  0
SECTION
  2
OBJECTS
  0
DICTIONARY
  5
A
330
0
100
AcDbDictionary
281
1
  3
ACAD_COLOR
350
B
  3
ACAD_GROUP
350
C
  3
ACAD_LAYOUT
350
D
  3
ACAD_MATERIAL
350
E
  3
ACAD_MLEADERSTYLE
350
F
  3
ACAD_MLINESTYLE
350
10
  3
ACAD_PLOTSETTINGS
350
11
  3
ACAD_PLOTSTYLENAME
350
12
  3
ACAD_SCALELIST
350
14
  3
ACAD_TABLESTYLE
350
15
  3
ACAD_VISUALSTYLE
350
16
  3
EZDXF_META
350
2D
  0
DICTIONARY
  5
B
330
A
100
AcDbDictionary
281
1
  0
DICTIONARY
  5
C
330
A
100
AcDbDictionary
281
1
  0
DICTIONARY
  5
D
330
A
100
AcDbDictionary
281
1
  3
Model
350
1A
  3
Layout1
350
1E
  0
DICTIONARY
  5
E
330
A
100
AcDbDictionary
281
1
  3
ByBlock
350
1F
  3
ByLayer
350
20
  3
Global
350
21
  0
DICTIONARY
  5
F
330
A
100
AcDbDictionary
281
1
  3
Standard
350
2C
  0
DICTIONARY
  5
10
330
A
100
AcDbDictionary
281
1
  3
Standard
350
22
  0
DICTIONARY
  5
11
330
A
100
AcDbDictionary
281
1
  0
ACDBDICTIONARYWDFLT
  5
12
330
A
100
AcDbDictionary
281
1
  3
Normal
350
13
100
AcDbDictionaryWithDefault
340
13
  0
ACDBPLACEHOLDER
  5
13
330
12
  0
DICTIONARY
  5
14
330
A
100
AcDbDictionary
281
1
  0
DICTIONARY
  5
15
330
A
100
AcDbDictionary
281
1
  0
DICTIONARY
  5
16
330
A
100
AcDbDictionary
281
1
  3
2dWireframe
350
5A
  3
Basic
350
5B
  3
Brighten
350
5C
  3
ColorChange
350
5D
  3
Conceptual
350
5E
  3
Dim
350
5F
  3
EdgeColorOff
350
60
  3
Facepattern
350
61
  3
Flat
350
62
  3
FlatWithEdges
350
63
  3
Gouraud
350
64
  3
GouraudWithEdges
350
65
  3
Hidden
350
66
  3
JitterOff
350
67
  3
Linepattern
350
68
  3
Modeling
350
69
  3
OverhangOff
350
6A
  3
Realistic
350
6B
  3
Shaded
350
6C
  3
Shaded with edges
350
6D
  3
Shades of Gray
350
6E
  3
Sketchy
350
6F
  3
Thicken
350
70
  3
Wireframe
350
71
  3
X-Ray
350
72
  0
LAYOUT
  5
1A
330
D
100
AcDbPlotSettings
  1

  4
A3
  6

 40
7.5
 41
20.0
 42
7.5
 43
20.0
 44
420.0
 45
297.0
 46
0.0
 47
0.0
 48
0.0
 49
0.0
140
0.0
141
0.0
142
1.0
143
1.0
 70
1024
 72
1
 73
0
 74
5
  7

 75
16
 76
0
 77
2
 78
300
147
1.0
148
0.0
149
0.0
100
AcDbLayout
  1
Model
 70
1
 71
0
 10
0.0
 20
0.0
 11
420.0
 21
297.0
 12
0.0
 22
0.0
 32
0.0
 14
1e+20
 24
1e+20
 34
1e+20
 15
-1e+20
 25
-1e+20
 35
-1e+20
146
0.0
 13
0.0
 23
0.0
 33
0.0
 16
1.0
 26
0.0
 36
0.0
 17
0.0
 27
1.0
 37
0.0
 76
1
330
17
  0
LAYOUT
  5
1E
330
D
100
AcDbPlotSettings
  1

  4
A3
  6

 40
7.5
 41
20.0
 42
7.5
 43
20.0
 44
420.0
 45
297.0
 46
0.0
 47
0.0
 48
0.0
 49
0.0
140
0.0
141
0.0
142
1.0
143
1.0
 70
0
 72
1
 73
0
 74
5
  7

 75
16
 76
0
 77
2
 78
300
147
1.0
148
0.0
149
0.0
100
AcDbLayout
  1
Layout1
 70
1
 71
1
 10
0.0
 20
0.0
 11
420.0
 21
297.0
 12
0.0
 22
0.0
 32
0.0
 14
1e+20
 24
1e+20
 34
1e+20
 15
-1e+20
 25
-1e+20
 35
-1e+20
146
0.0
 13
0.0
 23
0.0
 33
0.0
 16
1.0
 26
0.0
 36
0.0
 17
0.0
 27
1.0
 37
0.0
 76
1
330
1B
  0
MATERIAL
  5
1F
102
{ACAD_REACTORS
330
E
102
}
330
E
100
AcDbMaterial
  1
ByBlock
  2

 70
0
 40
1.0
 71
1
 41
1.0
 91
-1023410177
 42
1.0
 72
1
  3

 73
1
 74
1
 75
1
 44
0.5
 73
0
 45
1.0
 46
1.0
 77
1
  4

 78
1
 79
1
170
1
 48
1.0
171
1
  6

172
1
173
1
174
1
140
1.0
141
1.0
175
1
  7

176
1
177
1
178
1
143
1.0
179
1
  8

270
1
271
1
272
1
145
1.0
146
1.0
273
1
  9

274
1
275
1
276
1
 42
1.0
 72
1
  3

 73
1
 74
1
 75
1
 94
63
  0
MATERIAL
  5
20
102
{ACAD_REACTORS
330
E
102
}
330
E
100
AcDbMaterial
  1
ByLayer
  2

 70
0
 40
1.0
 71
1
 41
1.0
 91
-1023410177
 42
1.0
 72
1
  3

 73
1
 74
1
 75
1
 44
0.5
 73
0
 45
1.0
 46
1.0
 77
1
  4

 78
1
 79
1
170
1
 48
1.0
171
1
  6

172
1
173
1
174
1
140
1.0
141
1.0
175
1
  7

176
1
177
1
178
1
143
1.0
179
1
  8

270
1
271
1
272
1
145
1.0
146
1.0
273
1
  9

274
1
275
1
276
1
 42
1.0
 72
1
  3

 73
1
 74
1
 75
1
 94
63
  0
MATERIAL
  5
21
102
{ACAD_REACTORS
330
E
102
}
330
E
100
AcDbMaterial
  1
Global
  2

 70
0
 40
1.0
 71
1
 41
1.0
 91
-1023410177
 42
1.0
 72
1
  3

 73
1
 74
1
 75
1
 44
0.5
 73
0
 45
1.0
 46
1.0
 77
1
  4

 78
1
 79
1
170
1
 48
1.0
171
1
  6

172
1
173
1
174
1
140
1.0
141
1.0
175
1
  7

176
1
177
1
178
1
143
1.0
179
1
  8

270
1
271
1
272
1
145
1.0
146
1.0
273
1
  9

274
1
275
1
276
1
 42
1.0
 72
1
  3

 73
1
 74
1
 75
1
 94
63
  0
MLINESTYLE
  5
22
102
{ACAD_REACTORS
330
10
102
}
330
10
100
AcDbMlineStyle
  2
Standard
 70
0
  3

 62
256
 51
90.0
 52
90.0
 71
2
 49
0.5
 62
256
  6
BYLAYER
 49
-0.5
 62
256
  6
BYLAYER
  0
MLEADERSTYLE
  5
2C
102
{ACAD_REACTORS
330
F
102
}
330
F
100
AcDbMLeaderStyle
179
2
170
2
171
1
172
0
 90
2
 40
0.0
 41
0.0
173
1
 91
-1056964608
 92
-2
290
1
 42
2.0
291
1
 43
8.0
  3
Standard
 44
4.0
300

342
29
174
1
175
1
176
0
178
1
 93
-1056964608
 45
4.0
292
0
297
0
 46
4.0
 94
-1056964608
 47
1.0
 49
1.0
140
1.0
294
1
141
0.0
177
0
142
1.0
295
0
296
0
143
3.75
271
0
272
9
273
9
  0
DICTIONARY
  5
2D
330
A
100
AcDbDictionary
280
1
281
1
  3
CREATED_BY_EZDXF
350
2E
  3
WRITTEN_BY_EZDXF
350
A1
  0
DICTIONARYVAR
  5
2E
330
2D
100
DictionaryVariables
280
0
  1
1.4.4 @ 2026-07-26T18:50:27.867110+00:00
  0
VISUALSTYLE
  5
5A
102
{ACAD_REACTORS
330
16
102
}
330
16
100
AcDbVisualStyle
  2
2dWireframe
 70
4
 90
0
 40
0.6
 62
7
290
0
291
0
  0
VISUALSTYLE
  5
5B
102
{ACAD_REACTORS
330
16
102
}
330
16
100
AcDbVisualStyle
  2
Basic
 70
7
 90
1
 40
0.6
 62
7
290
0
291
1
  0
VISUALSTYLE
  5
5C
102
{ACAD_REACTORS
330
16
102
}
330
16
100
AcDbVisualStyle
  2
Brighten
 70
12
 90
2
 40
0.6
 62
7
290
0
291
1
  0
VISUALSTYLE
  5
5D
102
{ACAD_REACTORS
330
16
102
}
330
16
100
AcDbVisualStyle
  2
ColorChange
 70
16
 90
2
 40
0.6
 62
8
290
0
291
1
  0
VISUALSTYLE
  5
5E
102
{ACAD_REACTORS
330
16
102
}
330
16
100
AcDbVisualStyle
  2
Conceptual
 70
9
 90
3
 40
0.6
 62
7
290
0
291
0
  0
VISUALSTYLE
  5
5F
102
{ACAD_REACTORS
330
16
102
}
330
16
100
AcDbVisualStyle
  2
Dim
 70
11
 90
2
 40
0.6
 62
7
290
0
291
1
  0
VISUALSTYLE
  5
60
102
{ACAD_REACTORS
330
16
102
}
330
16
100
AcDbVisualStyle
  2
EdgeColorOff
 70
22
 90
2
 40
0.6
 62
7
290
0
291
1
  0
VISUALSTYLE
  5
61
102
{ACAD_REACTORS
330
16
102
}
330
16
100
AcDbVisualStyle
  2
Facepattern
 70
15
 90
2
 40
0.6
 62
7
290
0
291
1
  0
VISUALSTYLE
  5
62
102
{ACAD_REACTORS
330
16
102
}
330
16
100
AcDbVisualStyle
  2
Flat
 70
0
 90
2
 40
0.6
 62
7
290
0
291
1
  0
VISUALSTYLE
  5
63
102
{ACAD_REACTORS
330
16
102
}
330
16
100
AcDbVisualStyle
  2
FlatWithEdges
 70
1
 90
2
 40
0.6
 62
7
290
0
291
1
  0
VISUALSTYLE
  5
64
102
{ACAD_REACTORS
330
16
102
}
330
16
100
AcDbVisualStyle
  2
Gouraud
 70
2
 90
2
 40
0.6
 62
7
290
0
291
1
  0
VISUALSTYLE
  5
65
102
{ACAD_REACTORS
330
16
102
}
330
16
100
AcDbVisualStyle
  2
GouraudWithEdges
 70
3
 90
2
 40
0.6
 62
7
290
0
291
1
  0
VISUALSTYLE
  5
66
102
{ACAD_REACTORS
330
16
102
}
330
16
100
AcDbVisualStyle
  2
Hidden
 70
6
 90
1
 40
0.6
 62
7
290
0
291
0
  0
VISUALSTYLE
  5
67
102
{ACAD_REACTORS
330
16
102
}
330
16
100
AcDbVisualStyle
  2
JitterOff
 70
20
 90
2
 40
0.6
 62
7
290
0
291
1
  0
VISUALSTYLE
  5
68
102
{ACAD_REACTORS
330
16
102
}
330
16
100
AcDbVisualStyle
  2
Linepattern
 70
14
 90
2
 40
0.6
 62
7
290
0
291
1
  0
VISUALSTYLE
  5
69
102
{ACAD_REACTORS
330
16
102
}
330
16
100
AcDbVisualStyle
  2
Modeling
 70
10
 90
2
 40
0.6
 62
7
290
0
291
0
  0
VISUALSTYLE
  5
6A
102
{ACAD_REACTORS
330
16
102
}
330
16
100
AcDbVisualStyle
  2
OverhangOff
 70
21
 90
2
 40
0.6
 62
7
290
0
291
1
  0
VISUALSTYLE
  5
6B
102
{ACAD_REACTORS
330
16
102
}
330
16
100
AcDbVisualStyle
  2
Realistic
 70
8
 90
2
 40
0.6
 62
7
290
0
291
0
  0
VISUALSTYLE
  5
6C
102
{ACAD_REACTORS
330
16
102
}
330
16
100
AcDbVisualStyle
  2
Shaded
 70
27
 90
2
 40
0.6
 62
7
290
0
291
0
  0
VISUALSTYLE
  5
6D
102
{ACAD_REACTORS
330
16
102
}
330
16
100
AcDbVisualStyle
  2
Shaded with edges
 70
26
 90
2
 40
0.6
 62
7
290
0
291
0
  0
VISUALSTYLE
  5
6E
102
{ACAD_REACTORS
330
16
102
}
330
16
100
AcDbVisualStyle
  2
Shades of Gray
 70
23
 90
2
 40
0.6
 62
7
290
0
291
0
  0
VISUALSTYLE
  5
6F
102
{ACAD_REACTORS
330
16
102
}
330
16
100
AcDbVisualStyle
  2
Sketchy
 70
24
 90
1
 40
0.6
 62
7
290
0
291
0
  0
VISUALSTYLE
  5
70
102
{ACAD_REACTORS
330
16
102
}
330
16
100
AcDbVisualStyle
  2
Thicken
 70
13
 90
2
 40
0.6
 62
7
290
0
291
1
  0
VISUALSTYLE
  5
71
102
{ACAD_REACTORS
330
16
102
}
330
16
100
AcDbVisualStyle
  2
Wireframe
 70
5
 90
0
 40
0.6
 62
7
290
0
291
0
  0
VISUALSTYLE
  5
72
102
{ACAD_REACTORS
330
16
102
}
330
16
100
AcDbVisualStyle
  2
X-Ray
 70
25
 90
2
 40
0.5
 62
7
290
0
291
0
  0
DICTIONARYVAR
  5
A1
330
2D
100
DictionaryVariables
280
0
  1
1.4.4 @ 2026-07-26T18:50:27.883074+00:00
  0
ENDSEC
  0
EOF
