  0
SECTION
  2
HEADER
  9
$ACADVER
  1
AC1024
  9
$ACADMAINTVER
 70
6
  9
$DWGCODEPAGE
  3
ANSI_1252
  9
$LASTSAVEDBY
  1
ezdxf
  9
$INSBASE
 10
0.0
 20
0.0
 30
0.0
  9
$EXTMIN
 10
1e+20
 20
1e+20
 30
1e+20
  9
$EXTMAX
 10
-1e+20
 20
-1e+20
 30
-1e+20
  9
$LIMMIN
 10
0.0
 20
0.0
  9
$LIMMAX
 10
420.0
 20
297.0
  9
$ORTHOMODE
 70
0
  9
$REGENMODE
 70
1
  9
$FILLMODE
 70
1
  9
$QTEXTMODE
 70
0
  9
$MIRRTEXT
 70
1
  9
$LTSCALE
 40
1.0
  9
$ATTMODE
 70
1
  9
$TEXTSIZE
 40
2.5
  9
$TRACEWID
 40
1.0
  9
$TEXTSTYLE
  7
OpenSans
  9
$CLAYER
  8
0
  9
$CELTYPE
  6
ByLayer
  9
$CECOLOR
 62
256
  9
$CELTSCALE
 40
1.0
  9
$DISPSILH
 70
0
  9
$DIMSCALE
 40
1.0
  9
$DIMASZ
 40
0.175
  9
$DIMEXO
 40
0.125
  9
$DIMDLI
 40
3.75
  9
$DIMRND
 40
0.0
  9
$DIMDLE
 40
0.0
  9
$DIMEXE
 40
0.375
  9
$DIMTP
 40
0.0
  9
$DIMTM
 40
0.0
  9
$DIMTXT
 40
0.25
  9
$DIMCEN
 40
2.5
  9
$DIMTSZ
 40
0.0
  9
$DIMTOL
 70
0
  9
$DIMLIM
 70
0
  9
$DIMTIH
 70
0
  9
$DIMTOH
 70
0
  9
$DIMSE1
 70
0
  9
$DIMSE2
 70
0
  9
$DIMTAD
 70
1
  9
$DIMZIN
 70
12
  9
$DIMBLK
  1
ARCHTICK
  9
$DIMASO
 70
1
  9
$DIMSHO
 70
1
  9
$DIMPOST
  1

  9
$DIMAPOST
  1

  9
$DIMALT
 70
0
  9
$DIMALTD
 70
3
  9
$DIMALTF
 40
0.03937007874
  9
$DIMLFAC
 40
100.0
  9
$DIMTOFL
 70
1
  9
$DIMTVP
 40
0.0
  9
$DIMTIX
 70
0
  9
$DIMSOXD
 70
0
  9
$DIMSAH
 70
0
  9
$DIMBLK1
  1

  9
$DIMBLK2
  1

  9
$DIMSTYLE
  2
EZDXF
  9
$DIMCLRD
 70
0
  9
$DIMCLRE
 70
0
  9
$DIMCLRT
 70
0
  9
$DIMTFAC
 40
0.5
  9
$DIMGAP
 40
0.1
  9
$DIMJUST
 70
0
  9
$DIMSD1
 70
0
  9
$DIMSD2
 70
0
  9
$DIMTOLJ
 70
0
  9
$DIMTZIN
 70
8
  9
$DIMALTZ
 70
0
  9
$DIMALTTZ
 70
0
  9
$DIMUPT
 70
1
  9
$DIMDEC
 70
2
  9
$DIMTDEC
 70
2
  9
$DIMALTU
 70
2
  9
$DIMALTTD
 70
3
  9
$DIMTXSTY
  7
OpenSansCondensed-Light
  9
$DIMAUNIT
 70
0
  9
$DIMADEC
 70
2
  9
$DIMALTRND
 40
0.0
  9
$DIMAZIN
 70
3
  9
$DIMDSEP
 70
46
  9
$DIMATFIT
 70
3
  9
$DIMFRAC
 70
0
  9
$DIMLDRBLK
  1

  9
$DIMLUNIT
 70
2
  9
$DIMLWD
 70
-2
  9
$DIMLWE
 70
-2
  9
$DIMTMOVE
 70
2
  9
$DIMFXL
 40
1.0
  9
$DIMFXLON
 70
0
  9
$DIMJOGANG
 40
0.785398163397
  9
$DIMTFILL
 70
0
  9
$DIMTFILLCLR
 70
0
  9
$DIMARCSYM
 70
0
  9
$DIMLTYPE
  6

  9
$DIMLTEX1
  6

  9
$DIMLTEX2
  6

  9
$DIMTXTDIRECTION
 70
0
  9
$LUNITS
 70
2
  9
$LUPREC
 70
4
  9
$SKETCHINC
 40
1.0
  9
$FILLETRAD
 40
10.0
  9
$AUNITS
 70
0
  9
$AUPREC
 70
2
  9
$MENU
  1
.
  9
$ELEVATION
 40
0.0
  9
$PELEVATION
 40
0.0
  9
$THICKNESS
 40
0.0
  9
$LIMCHECK
 70
0
  9
$CHAMFERA
 40
0.0
  9
$CHAMFERB
 40
0.0
  9
$CHAMFERC
 40
0.0
  9
$CHAMFERD
 40
0.0
  9
$SKPOLY
 70
0
  9
$TDCREATE
 40
2461248.6671990743
  9
$TDUCREATE
 40
2458532.153996898
  9
$TDUPDATE
 40
2461248.6671990743
  9
$TDUUPDATE
 40
2458532.1544311
  9
$TDINDWG
 40
0.0
  9
$TDUSRTIMER
 40
0.0
  9
$USRTIMER
 70
1
  9
$ANGBASE
 50
0.0
  9
$ANGDIR
 70
0
  9
$PDMODE
 70
0
  9
$PDSIZE
 40
0.0
  9
$PLINEWID
 40
0.0
  9
$SPLFRAME
 70
0
  9
$SPLINETYPE
 70
6
  9
$SPLINESEGS
 70
8
  9
$HANDSEED
  5
A2
  9
$SURFTAB1
 70
6
  9
$SURFTAB2
 70
6
  9
$SURFTYPE
 70
6
  9
$SURFU
 70
6
  9
$SURFV
 70
6
  9
$UCSBASE
  2

  9
$UCSNAME
  2

  9
$UCSORG
 10
0.0
 20
0.0
 30
0.0
  9
$UCSXDIR
 10
1.0
 20
0.0
 30
0.0
  9
$UCSYDIR
 10
0.0
 20
1.0
 30
0.0
  9
$UCSORTHOREF
  2

  9
$UCSORTHOVIEW
 70
0
  9
$UCSORGTOP
 10
0.0
 20
0.0
 30
0.0
  9
$UCSORGBOTTOM
 10
0.0
 20
0.0
 30
0.0
  9
$UCSORGLEFT
 10
0.0
 20
0.0
 30
0.0
  9
$UCSORGRIGHT
 10
0.0
 20
0.0
 30
0.0
  9
$UCSORGFRONT
 10
0.0
 20
0.0
 30
0.0
  9
$UCSORGBACK
 10
0.0
 20
0.0
 30
0.0
  9
$PUCSBASE
  2

  9
$PUCSNAME
  2

  9
$PUCSORG
 10
0.0
 20
0.0
 30
0.0
  9
$PUCSXDIR
 10
1.0
 20
0.0
 30
0.0
  9
$PUCSYDIR
 10
0.0
 20
1.0
 30
0.0
  9
$PUCSORTHOREF
  2

  9
$PUCSORTHOVIEW
 70
0
  9
$PUCSORGTOP
 10
0.0
 20
0.0
 30
0.0
  9
$PUCSORGBOTTOM
 10
0.0
 20
0.0
 30
0.0
  9
$PUCSORGLEFT
 10
0.0
 20
0.0
 30
0.0
  9
$PUCSORGRIGHT
 10
0.0
 20
0.0
 30
0.0
  9
$PUCSORGFRONT
 10
0.0
 20
0.0
 30
0.0
  9
$PUCSORGBACK
 10
0.0
 20
0.0
 30
0.0
  9
$USERI1
 70
0
  9
$USERI2
 70
0
  9
$USERI3
 70
0
  9
$USERI4
 70
0
  9
$USERI5
 70
0
  9
$USERR1
 40
0.0
  9
$USERR2
 40
0.0
  9
$USERR3
 40
0.0
  9
$USERR4
 40
0.0
  9
$USERR5
 40
0.0
  9
$WORLDVIEW
 70
1
  9
$SHADEDGE
 70
3
  9
$SHADEDIF
 70
70
  9
$TILEMODE
 70
1
  9
$MAXACTVP
 70
64
  9
$PINSBASE
 10
0.0
 20
0.0
 30
0.0
  9
$PLIMCHECK
 70
0
  9
$PEXTMIN
 10
1e+20
 20
1e+20
 30
1e+20
  9
$PEXTMAX
 10
-1e+20
 20
-1e+20
 30
-1e+20
  9
$PLIMMIN
 10
0.0
 20
0.0
  9
$PLIMMAX
 10
420.0
 20
297.0
  9
$UNITMODE
 70
0
  9
$VISRETAIN
 70
1
  9
$PLINEGEN
 70
0
  9
$PSLTSCALE
 70
1
  9
$TREEDEPTH
 70
3020
  9
$CMLSTYLE
  2
Standard
  9
$CMLJUST
 70
0
  9
$CMLSCALE
 40
20.0
  9
$PROXYGRAPHICS
 70
1
  9
$MEASUREMENT
 70
1
  9
$CELWEIGHT
370
-1
  9
$ENDCAPS
280
0
  9
$JOINSTYLE
280
0
  9
$LWDISPLAY
290
0
  9
$INSUNITS
 70
4
  9
$HYPERLINKBASE
  1

  9
$STYLESHEET
  1

  9
$XEDIT
290
1
  9
$CEPSNTYPE
380
0
  9
$PSTYLEMODE
290
1
  9
$FINGERPRINTGUID
  2
{FBC6B070-C904-40BF-9F91-5C2070E86D89}
  9
$VERSIONGUID
  2
{1932A074-D2B4-4A19-B8E7-585E0779D66B}
  9
$EXTNAMES
290
1
  9
$PSVPSCALE
 40
0.0
  9
$OLESTARTUP
290
0
  9
$SORTENTS
280
127
  9
$INDEXCTL
280
0
  9
$HIDETEXT
280
1
  9
$XCLIPFRAME
280
1
  9
$HALOGAP
280
0
  9
$OBSCOLOR
 70
257
  9
$OBSLTYPE
280
0
  9
$INTERSECTIONDISPLAY
280
0
  9
$INTERSECTIONCOLOR
 70
257
  9
$DIMASSOC
280
2
  9
$PROJECTNAME
  1

  9
$CAMERADISPLAY
290
0
  9
$LENSLENGTH
 40
50.0
  9
$CAMERAHEIGHT
 40
0.0
  9
$STEPSPERSEC
 40
24.0
  9
$STEPSIZE
 40
100.0
  9
$3DDWFPREC
 40
2.0
  9
$PSOLWIDTH
 40
0.005
  9
$PSOLHEIGHT
 40
0.08
  9
$LOFTANG1
 40
1.570796326795
  9
$LOFTANG2
 40
1.570796326795
  9
$LOFTMAG1
 40
0.0
  9
$LOFTMAG2
 40
0.0
  9
$LOFTPARAM
 70
7
  9
$LOFTNORMALS
280
1
  9
$LATITUDE
 40
37.795
  9
$LONGITUDE
 40
-122.394
  9
$NORTHDIRECTION
 40
0.0
  9
$TIMEZONE
 70
-8000
  9
$LIGHTGLYPHDISPLAY
280
1
  9
$TILEMODELIGHTSYNCH
280
1
  9
$CMATERIAL
347
20
  9
$SOLIDHIST
280
0
  9
$SHOWHIST
280
1
  9
$DWFFRAME
280
2
  9
$DGNFRAME
280
2
  9
$REALWORLDSCALE
290
1
  9
$INTERFERECOLOR
 62
256
  9
$CSHADOW
280
0
  9
$SHADOWPLANELOCATION
 40
0.0
  0
ENDSEC
  0
SECTION
  2
CLASSES
  0
CLASS
  1
ACDBDICTIONARYWDFLT
  2
AcDbDictionaryWithDefault
  3
ObjectDBX Classes
 90
0
 91
0
280
0
281
0
  0
CLASS
  1
SUN
  2
AcDbSun
  3
SCENEOE
 90
1153
 91
0
280
0
281
0
  0
CLASS
  1
VISUALSTYLE
  2
AcDbVisualStyle
  3
ObjectDBX Classes
 90
4095
 91
0
280
0
281
0
  0
CLASS
  1
MATERIAL
  2
AcDbMaterial
  3
ObjectDBX Classes
 90
1153
 91
0
280
0
281
0
  0
CLASS
  1
SCALE
  2
AcDbScale
  3
ObjectDBX Classes
 90
1153
 91
0
280
0
281
0
  0
CLASS
  1
TABLESTYLE
  2
AcDbTableStyle
  3
ObjectDBX Classes
 90
4095
 91
0
280
0
281
0
  0
CLASS
  1
MLEADERSTYLE
  2
AcDbMLeaderStyle
  3
ACDB_MLEADERSTYLE_CLASS
 90
4095
 91
0
280
0
281
0
  0
CLASS
  1
DICTIONARYVAR
  2
AcDbDictionaryVar
  3
ObjectDBX Classes
 90
0
 91
0
280
0
281
0
  0
CLASS
  1
CELLSTYLEMAP
  2
AcDbCellStyleMap
  3
ObjectDBX Classes
 90
1152
 91
0
280
0
281
0
  0
CLASS
  1
MENTALRAYRENDERSETTINGS
  2
AcDbMentalRayRenderSettings
  3
SCENEOE
 90
1024
 91
0
280
0
281
0
  0
CLASS
  1
ACDBDETAILVIEWSTYLE
  2
AcDbDetailViewStyle
  3
ObjectDBX Classes
 90
1025
 91
0
280
0
281
0
  0
CLASS
  1
ACDBSECTIONVIEWSTYLE
  2
AcDbSectionViewStyle
  3
ObjectDBX Classes
 90
1025
 91
0
280
0
281
0
  0
CLASS
  1
RASTERVARIABLES
  2
AcDbRasterVariables
  3
ISM
 90
0
 91
0
280
0
281
0
  0
CLASS
  1
LAYOUT
  2
AcDbLayout
  3
ObjectDBX Classes
 90
0
 91
0
280
0
281
0
  0
CLASS
  1
ACDBPLACEHOLDER
  2
AcDbPlaceHolder
  3
ObjectDBX Classes
 90
0
 91
0
280
0
281
0
  0
ENDSEC
  0
SECTION
  2
TABLES
  0
TABLE
  2
VPORT
  5
8
330
0
100
AcDbSymbolTable
 70
1
  0
VPORT
  5
23
330
8
100
AcDbSymbolTableRecord
100
AcDbViewportTableRecord
  2
*Active
 70
0
 10
0.0
 20
0.0
 11
1.0
 21
1.0
 12
0.0
 22
0.0
 13
0.0
 23
0.0
 14
0.5
 24
0.5
 15
0.5
 25
0.5
 16
0.0
 26
0.0
 36
1.0
 17
0.0
 27
0.0
 37
0.0
 40
1000.0
 41
1.34
 42
50.0
 43
0.0
 44
0.0
 50
0.0
 51
0.0
 71
0
 72
1000
 73
1
 74
3
 75
0
 76
0
 77
0
 78
0
281
0
 65
0
146
0.0
  0
ENDTAB
  0
TABLE
  2
LTYPE
  5
2
330
0
100
AcDbSymbolTable
 70
21
  0
LTYPE
  5
24
330
2
100
AcDbSymbolTableRecord
100
AcDbLinetypeTableRecord
  2
ByBlock
 70
0
  3

 72
65
 73
0
 40
0.0
  0
LTYPE
  5
25
330
2
100
AcDbSymbolTableRecord
100
AcDbLinetypeTableRecord
  2
ByLayer
 70
0
  3

 72
65
 73
0
 40
0.0
  0
LTYPE
  5
26
330
2
100
AcDbSymbolTableRecord
100
AcDbLinetypeTableRecord
  2
Continuous
 70
0
  3

 72
65
 73
0
 40
0.0
  0
LTYPE
  5
2F
330
2
100
AcDbSymbolTableRecord
100
AcDbLinetypeTableRecord
  2
CENTER
 70
0
  3
Center ____ _ ____ _ ____ _ ____ _ ____ _ ____
 72
65
 73
4
 40
5.08
 49
3.175
 74
0
 49
-0.635
 74
0
 49
0.635
 74
0
 49
-0.635
 74
0
  0
LTYPE
  5
30
330
2
100
AcDbSymbolTableRecord
100
AcDbLinetypeTableRecord
  2
CENTERX2
 70
0
  3
Center (2x) ________  __  ________  __  ________
 72
65
 73
4
 40
8.89
 49
6.35
 74
0
 49
-0.635
 74
0
 49
1.27
 74
0
 49
-0.635
 74
0
  0
LTYPE
  5
31
330
2
100
AcDbSymbolTableRecord
100
AcDbLinetypeTableRecord
  2
CENTER2
 70
0
  3
Center (.5x) ____ _ ____ _ ____ _ ____ _ ____
 72
65
 73
4
 40
2.54
 49
1.587
 74
0
 49
-0.318
 74
0
 49
0.318
 74
0
 49
-0.318
 74
0
  0
LTYPE
  5
32
330
2
100
AcDbSymbolTableRecord
100
AcDbLinetypeTableRecord
  2
DASHED
 70
0
  3
Dashed __ __ __ __ __ __ __ __ __ __ __ __ __ _
 72
65
 73
2
 40
1.524
 49
1.27
 74
0
 49
-0.254
 74
0
  0
LTYPE
  5
33
330
2
100
AcDbSymbolTableRecord
100
AcDbLinetypeTableRecord
  2
DASHEDX2
 70
0
  3
Dashed (2x) ____  ____  ____  ____  ____  ____
 72
65
 73
2
 40
3.048
 49
2.54
 74
0
 49
-0.508
 74
0
  0
LTYPE
  5
34
330
2
100
AcDbSymbolTableRecord
100
AcDbLinetypeTableRecord
  2
DASHED2
 70
0
  3
Dashed (.5x) _ _ _ _ _ _ _ _ _ _ _ _ _ _
 72
65
 73
2
 40
0.762
 49
0.635
 74
0
 49
-0.127
 74
0
  0
LTYPE
  5
35
330
2
100
AcDbSymbolTableRecord
100
AcDbLinetypeTableRecord
  2
PHANTOM
 70
0
  3
Phantom ______  __  __  ______  __  __  ______
 72
65
 73
6
 40
6.35
 49
3.175
 74
0
 49
-0.635
 74
0
 49
0.635
 74
0
 49
-0.635
 74
0
 49
0.635
 74
0
 49
-0.635
 74
0
  0
LTYPE
  5
36
330
2
100
AcDbSymbolTableRecord
100
AcDbLinetypeTableRecord
  2
PHANTOMX2
 70
0
  3
Phantom (2x)____________    ____    ____    ____________
 72
65
 73
6
 40
10.795
 49
6.35
 74
0
 49
-0.635
 74
0
 49
1.27
 74
0
 49
-0.635
 74
0
 49
1.27
 74
0
 49
-0.635
 74
0
  0
LTYPE
  5
37
330
2
100
AcDbSymbolTableRecord
100
AcDbLinetypeTableRecord
  2
PHANTOM2
 70
0
  3
Phantom (.5x) ___ _ _ ___ _ _ ___ _ _ ___ _ _ ___
 72
65
 73
6
 40
3.175
 49
1.587
 74
0
 49
-0.318
 74
0
 49
0.318
 74
0
 49
-0.318
 74
0
 49
0.318
 74
0
 49
-0.318
 74
0
  0
LTYPE
  5
38
330
2
100
AcDbSymbolTableRecord
100
AcDbLinetypeTableRecord
  2
DASHDOT
 70
0
  3
Dash dot __ . __ . __ . __ . __ . __ . __ . __
 72
65
 73
4
 40
3.556
 49
2.54
 74
0
 49
-0.508
 74
0
 49
0.0
 74
0
 49
-0.508
 74
0
  0
LTYPE
  5
39
330
2
100
AcDbSymbolTableRecord
100
AcDbLinetypeTableRecord
  2
DASHDOTX2
 70
0
  3
Dash dot (2x) ____  .  ____  .  ____  .  ____
 72
65
 73
4
 40
6.096
 49
5.08
 74
0
 49
-0.508
 74
0
 49
0.0
 74
0
 49
-0.508
 74
0
  0
LTYPE
  5
3A
330
2
100
AcDbSymbolTableRecord
100
AcDbLinetypeTableRecord
  2
DASHDOT2
 70
0
  3
Dash dot (.5x) _ . _ . _ . _ . _ . _ . _ . _
 72
65
 73
4
 40
1.778
 49
1.27
 74
0
 49
-0.254
 74
0
 49
0.0
 74
0
 49
-0.254
 74
0
  0
LTYPE
  5
3B
330
2
100
AcDbSymbolTableRecord
100
AcDbLinetypeTableRecord
  2
DOT
 70
0
  3
Dot .  .  .  .  .  .  .  .  .  .  .  .  .  .  .  .
 72
65
 73
2
 40
0.508
 49
0.0
 74
0
 49
-0.508
 74
0
  0
LTYPE
  5
3C
330
2
100
AcDbSymbolTableRecord
100
AcDbLinetypeTableRecord
  2
DOTX2
 70
0
  3
Dot (2x) .    .    .    .    .    .    .    . 
 72
65
 73
2
 40
1.016
 49
0.0
 74
0
 49
-1.016
 74
0
  0
LTYPE
  5
3D
330
2
100
AcDbSymbolTableRecord
100
AcDbLinetypeTableRecord
  2
DOT2
 70
0
  3
Dot (.5) . . . . . . . . . . . . . . . . . . . 
 72
65
 73
2
 40
0.254
 49
0.0
 74
0
 49
-0.254
 74
0
  0
LTYPE
  5
3E
330
2
100
AcDbSymbolTableRecord
100
AcDbLinetypeTableRecord
  2
DIVIDE
 70
0
  3
Divide __ . . __ . . __ . . __ . . __ . . __
 72
65
 73
6
 40
4.064
 49
2.54
 74
0
 49
-0.508
 74
0
 49
0.0
 74
0
 49
-0.508
 74
0
 49
0.0
 74
0
 49
-0.508
 74
0
  0
LTYPE
  5
3F
330
2
100
AcDbSymbolTableRecord
100
AcDbLinetypeTableRecord
  2
DIVIDEX2
 70
0
  3
Divide (2x) ____  . .  ____  . .  ____  . .  ____
 72
65
 73
6
 40
6.604
 49
5.08
 74
0
 49
-0.508
 74
0
 49
0.0
 74
0
 49
-0.508
 74
0
 49
0.0
 74
0
 49
-0.508
 74
0
  0
LTYPE
  5
40
330
2
100
AcDbSymbolTableRecord
100
AcDbLinetypeTableRecord
  2
DIVIDE2
 70
0
  3
Divide(.5x) _ . _ . _ . _ . _ . _ . _ . _
 72
65
 73
6
 40
2.032
 49
1.27
 74
0
 49
-0.254
 74
0
 49
0.0
 74
0
 49
-0.254
 74
0
 49
0.0
 74
0
 49
-0.254
 74
0
  0
ENDTAB
  0
TABLE
  2
LAYER
  5
1
330
0
100
AcDbSymbolTable
 70
5
  0
LAYER
  5
27
330
1
100
AcDbSymbolTableRecord
100
AcDbLayerTableRecord
  2
0
 70
0
 62
7
  6
Continuous
370
-3
390
13
347
21
  0
LAYER
  5
28
330
1
100
AcDbSymbolTableRecord
100
AcDbLayerTableRecord
  2
Defpoints
 70
0
 62
7
  6
Continuous
290
0
370
-3
390
13
347
21
  0
LAYER
  5
8A
330
1
100
AcDbSymbolTableRecord
100
AcDbLayerTableRecord
  2
CUT
 70
0
 62
7
  6
Continuous
370
-3
390
13
347
21
  0
LAYER
  5
8B
330
1
100
AcDbSymbolTableRecord
100
AcDbLayerTableRecord
  2
STITCH
 70
0
 62
1
  6
DASHED
370
-3
390
13
347
21
  0
LAYER
  5
8C
330
1
100
AcDbSymbolTableRecord
100
AcDbLayerTableRecord
  2
LABEL
 70
0
 62
3
  6
Continuous
370
-3
390
13
347
21
  0
ENDTAB
  0
TABLE
  2
STYLE
  5
5
330
0
100
AcDbSymbolTable
 70
26
  0
STYLE
  5
29
330
5
100
AcDbSymbolTableRecord
100
AcDbTextStyleTableRecord
  2
Standard
 70
0
 40
0.0
 41
1.0
 50
0.0
 71
0
 42
2.5
  3
txt
  4

  0
STYLE
  5
41
330
5
100
AcDbSymbolTableRecord
100
AcDbTextStyleTableRecord
  2
OpenSans-Light
 70
0
 40
0.0
 41
1.0
 50
0.0
 71
0
 42
2.5
  3
OpenSans-Light.ttf
  4

  0
STYLE
  5
42
330
5
100
AcDbSymbolTableRecord
100
AcDbTextStyleTableRecord
  2
OpenSans-Light-Italic
 70
0
 40
0.0
 41
1.0
 50
0.0
 71
0
 42
2.5
  3
OpenSans-LightItalic.ttf
  4

  0
STYLE
  5
43
330
5
100
AcDbSymbolTableRecord
100
AcDbTextStyleTableRecord
  2
OpenSans
 70
0
 40
0.0
 41
1.0
 50
0.0
 71
0
 42
2.5
  3
OpenSans-Regular.ttf
  4

  0
STYLE
  5
44
330
5
100
AcDbSymbolTableRecord
100
AcDbTextStyleTableRecord
  2
OpenSans-Italic
 70
0
 40
0.0
 41
1.0
 50
0.0
 71
0
 42
2.5
  3
OpenSans-Italic.ttf
  4

  0
STYLE
  5
45
330
5
100
AcDbSymbolTableRecord
100
AcDbTextStyleTableRecord
  2
OpenSans-SemiBold
 70
0
 40
0.0
 41
1.0
 50
0.0
 71
0
 42
2.5
  3
OpenSans-SemiBold.ttf
  4

  0
STYLE
  5
46
330
5
100
AcDbSymbolTableRecord
100
AcDbTextStyleTableRecord
  2
OpenSans-SemiBoldItalic
 70
0
 40
0.0
 41
1.0
 50
0.0
 71
0
 42
2.5
  3
OpenSans-SemiBoldItalic.ttf
  4

  0
STYLE
  5
47
330
5
100
AcDbSymbolTableRecord
100
AcDbTextStyleTableRecord
  2
OpenSans-Bold
 70
0
 40
0.0
 41
1.0
 50
0.0
 71
0
 42
2.5
  3
OpenSans-Bold.ttf
  4

  0
STYLE
  5
48
330
5
100
AcDbSymbolTableRecord
100
AcDbTextStyleTableRecord
  2
OpenSans-BoldItalic
 70
0
 40
0.0
 41
1.0
 50
0.0
 71
0
 42
2.5
  3
OpenSans-BoldItalic.ttf
  4

  0
STYLE
  5
49
330
5
100
AcDbSymbolTableRecord
100
AcDbTextStyleTableRecord
  2
OpenSans-ExtraBold
 70
0
 40
0.0
 41
1.0
 50
0.0
 71
0
 42
2.5
  3
OpenSans-ExtraBold.ttf
  4

  0
STYLE
  5
4A
330
5
100
AcDbSymbolTableRecord
100
AcDbTextStyleTableRecord
  2
OpenSans-ExtraBoldItalic
 70
0
 40
0.0
 41
1.0
 50
0.0
 71
0
 42
2.5
  3
OpenSans-ExtraBoldItalic.ttf
  4

  0
STYLE
  5
4B
330
5
100
AcDbSymbolTableRecord
100
AcDbTextStyleTableRecord
  2
OpenSansCondensed-Bold
 70
0
 40
0.0
 41
1.0
 50
0.0
 71
0
 42
2.5
  3
OpenSansCondensed-Bold.ttf
  4

  0
STYLE
  5
4C
330
5
100
AcDbSymbolTableRecord
100
AcDbTextStyleTableRecord
  2
OpenSansCondensed-Light
 70
0
 40
0.0
 41
1.0
 50
0.0
 71
0
 42
2.5
  3
OpenSansCondensed-Light.ttf
  4

  0
STYLE
  5
4D
330
5
100
AcDbSymbolTableRecord
100
AcDbTextStyleTableRecord
  2
OpenSansCondensed-Italic
 70
0
 40
0.0
 41
1.0
 50
0.0
 71
0
 42
2.5
  3
OpenSansCondensed-LightItalic.ttf
  4

  0
STYLE
  5
4E
330
5
100
AcDbSymbolTableRecord
100
AcDbTextStyleTableRecord
  2
LiberationSans
 70
0
 40
0.0
 41
1.0
 50
0.0
 71
0
 42
2.5
  3
LiberationSans-Regular.ttf
  4

  0
STYLE
  5
4F
330
5
100
AcDbSymbolTableRecord
100
AcDbTextStyleTableRecord
  2
LiberationSans-Bold
 70
0
 40
0.0
 41
1.0
 50
0.0
 71
0
 42
2.5
  3
LiberationSans-Bold.ttf
  4

  0
STYLE
  5
50
330
5
100
AcDbSymbolTableRecord
100
AcDbTextStyleTableRecord
  2
LiberationSans-BoldItalic
 70
0
 40
0.0
 41
1.0
 50
0.0
 71
0
 42
2.5
  3
LiberationSans-BoldItalic.ttf
  4

  0
STYLE
  5
51
330
5
100
AcDbSymbolTableRecord
100
AcDbTextStyleTableRecord
  2
LiberationSans-Italic
 70
0
 40
0.0
 41
1.0
 50
0.0
 71
0
 42
2.5
  3
LiberationSans-Italic.ttf
  4

  0
STYLE
  5
52
330
5
100
AcDbSymbolTableRecord
100
AcDbTextStyleTableRecord
  2
LiberationSerif
 70
0
 40
0.0
 41
1.0
 50
0.0
 71
0
 42
2.5
  3
LiberationSerif-Regular.ttf
  4

  0
STYLE
  5
53
330
5
100
AcDbSymbolTableRecord
100
AcDbTextStyleTableRecord
  2
LiberationSerif-Bold
 70
0
 40
0.0
 41
1.0
 50
0.0
 71
0
 42
2.5
  3
LiberationSerif-Bold.ttf
  4

  0
STYLE
  5
54
330
5
100
AcDbSymbolTableRecord
100
AcDbTextStyleTableRecord
  2
LiberationSerif-BoldItalic
 70
0
 40
0.0
 41
1.0
 50
0.0
 71
0
 42
2.5
  3
LiberationSerif-BoldItalic.ttf
  4

  0
STYLE
  5
55
330
5
100
AcDbSymbolTableRecord
100
AcDbTextStyleTableRecord
  2
LiberationSerif-Italic
 70
0
 40
0.0
 41
1.0
 50
0.0
 71
0
 42
2.5
  3
LiberationSerif-Italic.ttf
  4

  0
STYLE
  5
56
330
5
100
AcDbSymbolTableRecord
100
AcDbTextStyleTableRecord
  2
LiberationMono
 70
0
 40
0.0
 41
1.0
 50
0.0
 71
0
 42
2.5
  3
LiberationMono-Regular.ttf
  4

  0
STYLE
  5
57
330
5
100
AcDbSymbolTableRecord
100
AcDbTextStyleTableRecord
  2
LiberationMono-Bold
 70
0
 40
0.0
 41
1.0
 50
0.0
 71
0
 42
2.5
  3
LiberationMono-Bold.ttf
  4

  0
STYLE
  5
58
330
5
100
AcDbSymbolTableRecord
100
AcDbTextStyleTableRecord
  2
LiberationMono-BoldItalic
 70
0
 40
0.0
 41
1.0
 50
0.0
 71
0
 42
2.5
  3
LiberationMono-BoldItalic.ttf
  4

  0
STYLE
  5
59
330
5
100
AcDbSymbolTableRecord
100
AcDbTextStyleTableRecord
  2
LiberationMono-Italic
 70
0
 40
0.0
 41
1.0
 50
0.0
 71
0
 42
2.5
  3
LiberationMono-Italic.ttf
  4

  0
ENDTAB
  0
TABLE
  2
VIEW
  5
7
330
0
100
AcDbSymbolTable
 70
0
  0
ENDTAB
  0
TABLE
  2
UCS
  5
6
330
0
100
AcDbSymbolTable
 70
0
  0
ENDTAB
  0
TABLE
  2
APPID
  5
3
330
0
100
AcDbSymbolTable
 70
3
  0
APPID
  5
2A
330
3
100
AcDbSymbolTableRecord
100
AcDbRegAppTableRecord
  2
ACAD
 70
0
  0
APPID
  5
9F
330
3
100
AcDbSymbolTableRecord
100
AcDbRegAppTableRecord
  2
HATCHBACKGROUNDCOLOR
 70
0
  0
APPID
  5
A0
330
3
100
AcDbSymbolTableRecord
100
AcDbRegAppTableRecord
  2
EZDXF
 70
0
  0
ENDTAB
  0
TABLE
  2
DIMSTYLE
  5
4
330
0
100
AcDbSymbolTable
 70
12
100
AcDbDimStyleTable
  0
DIMSTYLE
105
2B
330
4
100
AcDbSymbolTableRecord
100
AcDbDimStyleTableRecord
  2
Standard
 70
0
 40
1.0
 41
2.5
 42
0.625
 43
3.75
 44
1.25
 45
0.0
 46
0.0
 47
0.0
 48
0.0
 49
2.5
140
2.5
141
2.5
142
0.0
143
0.03937007874
144
1.0
145
0.0
146
1.0
147
0.625
148
0.0
 69
0
 70
0
 71
0
 72
0
 73
0
 74
0
 75
0
 76
0
 77
1
 78
8
 79
3
170
0
171
3
172
1
173
0
174
0
175
0
176
0
177
0
178
0
179
2
271
2
272
2
273
2
274
3
275
0
276
0
277
2
278
44
279
0
280
0
281
0
282
0
283
0
284
8
285
0
286
0
288
0
289
3
290
0
371
-2
372
-2
  0
DIMSTYLE
105
73
330
4
100
AcDbSymbolTableRecord
100
AcDbDimStyleTableRecord
  2
EZDXF
 70
0
 40
1.0
 41
0.175
 42
0.125
 43
3.75
 44
0.375
 45
0.0
 46
0.0
 47
0.0
 48
0.0
 49
2.5
140
0.25
141
2.5
142
0.0
143
0.03937007874
144
100.0
145
0.0
146
0.5
147
0.1
148
0.0
 69
0
 70
0
 71
0
 72
0
 73
0
 74
0
 75
0
 76
0
 77
1
 78
12
 79
3
170
0
171
3
172
1
173
0
174
0
175
0
176
0
177
0
178
0
179
2
271
2
272
2
273
2
274
3
275
0
276
0
277
2
278
46
279
2
280
0
281
0
282
0
283
0
284
8
285
0
286
0
288
1
289
3
290
0
340
4C
342
74
371
-2
372
-2
  0
DIMSTYLE
105
7C
330
4
100
AcDbSymbolTableRecord
100
AcDbDimStyleTableRecord
  2
EZ_M_100_H25_CM
 70
0
 40
1.0
 41
0.25
 42
0.125
 43
3.75
 44
0.375
 45
0.0
 46
0.0
 47
0.0
 48
0.0
 49
2.5
140
0.25
141
2.5
142
0.125
143
0.03937007874
144
100.0
145
0.0
146
0.5
147
0.1
148
0.0
 69
0
 70
0
 71
0
 72
0
 73
0
 74
0
 75
0
 76
0
 77
1
 78
12
 79
3
170
0
171
3
172
1
173
0
174
0
175
0
176
0
177
0
178
0
179
2
271
2
272
2
273
2
274
3
275
0
276
0
277
2
278
46
279
2
280
0
281
0
282
0
283
0
284
8
285
0
286
0
288
1
289
3
290
0
340
4C
371
-2
372
-2
  0
DIMSTYLE
105
7D
330
4
100
AcDbSymbolTableRecord
100
AcDbDimStyleTableRecord
  2
EZ_M_50_H25_CM
 70
0
 40
1.0
 41
0.125
 42
0.0625
 43
3.75
 44
0.1875
 45
0.0
 46
0.0
 47
0.0
 48
0.0
 49
2.5
140
0.125
141
2.5
142
0.0625
143
0.03937007874
144
100.0
145
0.0
146
0.5
147
0.05
148
0.0
 69
0
 70
0
 71
0
 72
0
 73
0
 74
0
 75
0
 76
0
 77
1
 78
12
 79
3
170
0
171
3
172
1
173
0
174
0
175
0
176
0
177
0
178
0
179
2
271
2
272
2
273
2
274
3
275
0
276
0
277
2
278
46
279
2
280
0
281
0
282
0
283
0
284
8
285
0
286
0
288
1
289
3
290
0
340
4C
371
-2
372
-2
  0
DIMSTYLE
105
7E
330
4
100
AcDbSymbolTableRecord
100
AcDbDimStyleTableRecord
  2
EZ_M_25_H25_CM
 70
0
 40
1.0
 41
0.0625
 42
0.03125
 43
3.75
 44
0.09375
 45
0.0
 46
0.0
 47
0.0
 48
0.0
 49
2.5
140
0.0625
141
2.5
142
0.03125
143
0.03937007874
144
100.0
145
0.0
146
0.5
147
0.025
148
0.0
 69
0
 70
0
 71
0
 72
0
 73
0
 74
0
 75
0
 76
0
 77
1
 78
12
 79
3
170
0
171
3
172
1
173
0
174
0
175
0
176
0
177
0
178
0
179
2
271
2
272
2
273
2
274
3
275
0
276
0
277
2
278
46
279
2
280
0
281
0
282
0
283
0
284
8
285
0
286
0
288
1
289
3
290
0
340
4C
371
-2
372
-2
  0
DIMSTYLE
105
7F
330
4
100
AcDbSymbolTableRecord
100
AcDbDimStyleTableRecord
  2
EZ_M_20_H25_CM
 70
0
 40
1.0
 41
0.05
 42
0.025
 43
3.75
 44
0.07500000000000001
 45
0.0
 46
0.0
 47
0.0
 48
0.0
 49
2.5
140
0.05
141
2.5
142
0.025
143
0.03937007874
144
100.0
145
0.0
146
0.5
147
0.020000000000000004
148
0.0
 69
0
 70
0
 71
0
 72
0
 73
0
 74
0
 75
0
 76
0
 77
1
 78
12
 79
3
170
0
171
3
172
1
173
0
174
0
175
0
176
0
177
0
178
0
179
2
271
2
272
2
273
2
274
3
275
0
276
0
277
2
278
46
279
2
280
0
281
0
282
0
283
0
284
8
285
0
286
0
288
1
289
3
290
0
340
4C
371
-2
372
-2
  0
DIMSTYLE
105
80
330
4
100
AcDbSymbolTableRecord
100
AcDbDimStyleTableRecord
  2
EZ_M_10_H25_CM
 70
0
 40
1.0
 41
0.025
 42
0.0125
 43
3.75
 44
0.037500000000000006
 45
0.0
 46
0.0
 47
0.0
 48
0.0
 49
2.5
140
0.025
141
2.5
142
0.0125
143
0.03937007874
144
100.0
145
0.0
146
0.5
147
0.010000000000000002
148
0.0
 69
0
 70
0
 71
0
 72
0
 73
0
 74
0
 75
0
 76
0
 77
1
 78
12
 79
3
170
0
171
3
172
1
173
0
174
0
175
0
176
0
177
0
178
0
179
2
271
2
272
2
273
2
274
3
275
0
276
0
277
2
278
46
279
2
280
0
281
0
282
0
283
0
284
8
285
0
286
0
288
1
289
3
290
0
340
4C
371
-2
372
-2
  0
DIMSTYLE
105
81
330
4
100
AcDbSymbolTableRecord
100
AcDbDimStyleTableRecord
  2
EZ_M_5_H25_CM
 70
0
 40
1.0
 41
0.0125
 42
0.00625
 43
3.75
 44
0.018750000000000003
 45
0.0
 46
0.0
 47
0.0
 48
0.0
 49
2.5
140
0.0125
141
2.5
142
0.00625
143
0.03937007874
144
100.0
145
0.0
146
0.5
147
0.005000000000000001
148
0.0
 69
0
 70
0
 71
0
 72
0
 73
0
 74
0
 75
0
 76
0
 77
1
 78
12
 79
3
170
0
171
3
172
1
173
0
174
0
175
0
176
0
177
0
178
0
179
2
271
2
272
2
273
2
274
3
275
0
276
0
277
2
278
46
279
2
280
0
281
0
282
0
283
0
284
8
285
0
286
0
288
1
289
3
290
0
340
4C
371
-2
372
-2
  0
DIMSTYLE
105
82
330
4
100
AcDbSymbolTableRecord
100
AcDbDimStyleTableRecord
  2
EZ_M_1_H25_CM
 70
0
 40
1.0
 41
0.0025
 42
0.00125
 43
3.75
 44
0.00375
 45
0.0
 46
0.0
 47
0.0
 48
0.0
 49
2.5
140
0.0025
141
2.5
142
0.00125
143
0.03937007874
144
100.0
145
0.0
146
0.5
147
0.001
148
0.0
 69
0
 70
0
 71
0
 72
0
 73
0
 74
0
 75
0
 76
0
 77
1
 78
12
 79
3
170
0
171
3
172
1
173
0
174
0
175
0
176
0
177
0
178
0
179
2
271
2
272
2
273
2
274
3
275
0
276
0
277
2
278
46
279
2
280
0
281
0
282
0
283
0
284
8
285
0
286
0
288
1
289
3
290
0
340
4C
371
-2
372
-2
  0
DIMSTYLE
105
83
330
4
100
AcDbSymbolTableRecord
100
AcDbDimStyleTableRecord
  2
EZ_RADIUS
 70
0
 40
1.0
 41
0.25
 42
0.125
 43
3.75
 44
0.375
 45
0.0
 46
0.0
 47
0.0
 48
0.0
 49
2.5
140
0.25
141
0.0
142
0.0
143
0.03937007874
144
100.0
145
0.0
146
0.5
147
0.1
148
0.0
 69
0
 70
0
 71
0
 72
0
 73
0
 74
0
 75
0
 76
0
 77
1
 78
12
 79
3
170
0
171
3
172
0
173
0
174
0
175
0
176
0
177
0
178
0
179
2
271
2
272
2
273
2
274
3
275
0
276
0
277
2
278
46
279
1
280
0
281
0
282
0
283
0
284
8
285
0
286
0
288
1
289
3
290
0
340
4C
342
84
371
-2
372
-2
  0
DIMSTYLE
105
88
330
4
100
AcDbSymbolTableRecord
100
AcDbDimStyleTableRecord
  2
EZ_RADIUS_INSIDE
 70
0
 40
1.0
 41
0.25
 42
0.125
 43
3.75
 44
0.375
 45
0.0
 46
0.0
 47
0.0
 48
0.0
 49
2.5
140
0.25
141
0.0
142
0.0
143
0.03937007874
144
100.0
145
0.0
146
0.5
147
0.1
148
0.0
 69
0
 70
0
 71
0
 72
0
 73
0
 74
0
 75
0
 76
0
 77
0
 78
12
 79
3
170
0
171
3
172
0
173
0
174
1
175
0
176
0
177
0
178
0
179
2
271
2
272
2
273
2
274
3
275
0
276
0
277
2
278
46
279
0
280
0
281
0
282
0
283
0
284
8
285
0
286
0
288
1
289
0
290
0
340
4C
342
84
371
-2
372
-2
  0
DIMSTYLE
105
89
330
4
100
AcDbSymbolTableRecord
100
AcDbDimStyleTableRecord
  2
EZ_CURVED
 70
0
 40
1.0
 41
0.25
 42
0.125
 43
3.75
 44
0.375
 45
0.0
 46
0.0
 47
0.0
 48
0.0
 49
2.5
140
0.25
141
2.5
142
0.0
143
0.03937007874
144
100.0
145
0.0
146
0.5
147
0.1
148
0.0
 69
0
 70
0
 71
0
 72
0
 73
0
 74
0
 75
0
 76
0
 77
1
 78
12
 79
2
 90
2
170
0
171
3
172
1
173
0
174
0
175
0
176
0
177
0
178
0
179
2
271
2
272
2
273
2
274
3
275
0
276
0
277
2
278
46
279
2
280
0
281
0
282
0
283
0
284
8
285
0
286
0
288
1
289
3
290
0
340
4C
371
-2
372
-2
  0
ENDTAB
  0
TABLE
  2
BLOCK_RECORD
  5
9
330
0
100
AcDbSymbolTable
 70
5
  0
BLOCK_RECORD
  5
17
330
9
100
AcDbSymbolTableRecord
100
AcDbBlockTableRecord
  2
*Model_Space
340
1A
 70
0
280
1
281
0
  0
BLOCK_RECORD
  5
1B
330
9
100
AcDbSymbolTableRecord
100
AcDbBlockTableRecord
  2
*Paper_Space
340
1E
 70
0
280
1
281
0
  0
BLOCK_RECORD
  5
74
330
9
100
AcDbSymbolTableRecord
100
AcDbBlockTableRecord
  2
_ARCHTICK
340
0
 70
0
280
1
281
0
  0
BLOCK_RECORD
  5
78
330
9
100
AcDbSymbolTableRecord
100
AcDbBlockTableRecord
  2
_CLOSEDFILLED
340
0
 70
0
280
1
281
0
  0
BLOCK_RECORD
  5
84
330
9
100
AcDbSymbolTableRecord
100
AcDbBlockTableRecord
  2
_CLOSEDBLANK
340
0
 70
0
280
1
281
0
  0
ENDTAB
  0
ENDSEC
  0
SECTION
  2
BLOCKS
  0
BLOCK
  5
18
330
17
100
AcDbEntity
  8
0
100
AcDbBlockBegin
  2
*Model_Space
 70
0
 10
0.0
 20
0.0
 30
0.0
  3
*Model_Space
  1

  0
ENDBLK
  5
19
330
17
100
AcDbEntity
  8
0
100
AcDbBlockEnd
  0
BLOCK
  5
1C
330
1B
100
AcDbEntity
  8
0
100
AcDbBlockBegin
  2
*Paper_Space
 70
0
 10
0.0
 20
0.0
 30
0.0
  3
*Paper_Space
  1

  0
ENDBLK
  5
1D
330
1B
100
AcDbEntity
  8
0
100
AcDbBlockEnd
  0
BLOCK
  5
75
330
74
100
AcDbEntity
  8
0
100
AcDbBlockBegin
  2
_ARCHTICK
 70
0
 10
0.0
 20
0.0
 30
0.0
  3
_ARCHTICK
  1

  0
LWPOLYLINE
  5
77
330
74
100
AcDbEntity
  8
0
  6
BYBLOCK
 62
0
100
AcDbPolyline
 90
2
 70
0
 43
0.15
 10
-0.5
 20
-0.5
 10
0.5
 20
0.5
  0
ENDBLK
  5
76
330
74
100
AcDbEntity
  8
0
100
AcDbBlockEnd
  0
BLOCK
  5
79
330
78
100
AcDbEntity
  8
0
100
AcDbBlockBegin
  2
_CLOSEDFILLED
 70
0
 10
0.0
 20
0.0
 30
0.0
  3
_CLOSEDFILLED
  1

  0
SOLID
  5
7B
330
78
100
AcDbEntity
  8
0
  6
BYBLOCK
 62
0
100
AcDbTrace
 10
-1.0
 20
0.16439898372402537
 30
0.0
 11
0.0
 21
0.0
 31
0.0
 12
-1.0
 22
-0.16439898372402537
 32
0.0
 13
-1.0
 23
-0.16439898372402537
 33
0.0
  0
ENDBLK
  5
7A
330
78
100
AcDbEntity
  8
0
100
AcDbBlockEnd
  0
BLOCK
  5
85
330
84
100
AcDbEntity
  8
0
100
AcDbBlockBegin
  2
_CLOSEDBLANK
 70
0
 10
0.0
 20
0.0
 30
0.0
  3
_CLOSEDBLANK
  1

  0
LWPOLYLINE
  5
87
330
84
100
AcDbEntity
  8
0
  6
BYBLOCK
 62
0
100
AcDbPolyline
 90
3
 70
1
 10
-1.0
 20
0.16439898372402537
 10
0.0
 20
0.0
 10
-1.0
 20
-0.16439898372402537
  0
ENDBLK
  5
86
330
84
100
AcDbEntity
  8
0
100
AcDbBlockEnd
  0
ENDSEC
  0
SECTION
  2
ENTITIES
  0
LWPOLYLINE
  5
8D
330
17
100
AcDbEntity
  8
CUT
100
AcDbPolyline
 90
234
 70
1
 10
20.003
 20
1280.986
 10
20.002
 20
1275.307
 10
20.002
 20
1271.055
 10
20.001
 20
1266.825
 10
20.001
 20
1262.34
 10
20.001
 20
1257.878
 10
20.001
 20
1252.971
 10
20.0
 20
1248.0910000000001
 10
20.0
 20
1242.641
 10
20.0
 20
1237.22
 10
20.0
 20
1233.175
 10
20.0
 20
1229.161
 10
20.0
 20
1225.1480000000001
 10
20.0
 20
1220.692
 10
20.0
 20
1216.271
 10
20.0
 20
1211.851
 10
20.0
 20
1207.001
 10
20.0
 20
1202.19
 10
20.0
 20
1197.379
 10
20.0
 20
1192.171
 10
20.0
 20
1187.004
 10
20.0
 20
1181.838
 10
20.0
 20
1176.321
 10
20.0
 20
1170.847
 10
20.0
 20
1165.373
 10
20.0
 20
1159.605
 10
20.0
 20
1153.883
 10
20.0
 20
1148.161
 10
20.0
 20
1142.209
 10
20.0
 20
1136.305
 10
20.0
 20
1130.4
 10
20.0
 20
1125.8400000000001
 10
20.0
 20
1121.327
 10
20.0
 20
1116.815
 10
20.0
 20
1112.303
 10
20.0
 20
1107.714
 10
20.0
 20
1103.174
 10
20.0
 20
1098.634
 10
20.0
 20
1094.094
 10
20.0
 20
1085.021
 10
20.0
 20
1080.509
 10
20.0
 20
1075.997
 10
20.0
 20
1070.045
 10
20.0
 20
1064.14
 10
20.0
 20
1058.236
 10
20.0
 20
1052.468
 10
20.0
 20
1046.746
 10
20.0
 20
1041.024
 10
20.0
 20
1035.506
 10
20.0
 20
1030.0320000000002
 10
20.0
 20
1024.559
 10
20.0
 20
1019.351
 10
20.0
 20
1014.184
 10
20.0
 20
1009.018
 10
20.0
 20
1004.168
 10
20.0
 20
999.357
 10
20.0
 20
994.546
 10
20.0
 20
990.09
 10
20.0
 20
985.6700000000001
 10
20.0
 20
981.249
 10
20.0
 20
977.203
 10
20.0
 20
973.19
 10
20.0
 20
969.177
 10
20.0
 20
963.7270000000001
 10
20.0
 20
958.307
 10
20.0
 20
953.4000000000001
 10
20.0
 20
948.519
 10
20.0
 20
944.034
 10
20.0
 20
939.572
 10
20.0
 20
935.3199999999999
 10
20.0
 20
931.091
 10
20.0
 20
925.397
 10
20.0
 20
919.702
 10
20.0
 20
914.0070000000001
 10
20.0
 20
908.312
 10
20.0
 20
902.6179999999999
 10
20.0
 20
896.923
 10
20.0
 20
891.2280000000001
 10
20.0
 20
885.336
 10
20.0
 20
880.039
 10
20.048
 20
879.058
 10
20.192
 20
878.088
 10
20.431
 20
877.136
 10
20.761
 20
876.212
 10
21.181
 20
875.325
 10
21.685
 20
874.483
 10
22.27
 20
873.6949999999999
 10
22.929
 20
872.9680000000001
 10
23.656
 20
872.309
 10
24.444
 20
871.724
 10
25.286
 20
871.219
 10
26.173000000000002
 20
870.8
 10
27.097
 20
870.469
 10
28.049
 20
870.231
 10
29.02
 20
870.087
 10
30.0
 20
870.039
 10
35.569
 20
870.039
 10
41.339
 20
870.039
 10
47.108000000000004
 20
870.039
 10
52.877
 20
870.039
 10
58.647
 20
870.039
 10
64.416
 20
870.039
 10
70.185
 20
870.039
 10
75.935
 20
870.039
 10
81.505
 20
870.017
 10
81.539
 20
870.017
 10
87.289
 20
870.0150000000001
 10
93.04
 20
870.01
 10
98.795
 20
870.003
 10
104.557
 20
869.994
 10
105.538
 20
870.04
 10
106.509
 20
870.183
 10
107.462
 20
870.4200000000001
 10
108.387
 20
870.749
 10
109.275
 20
871.168
 10
110.117
 20
871.671
 10
110.907
 20
872.255
 10
111.635
 20
872.913
 10
112.295
 20
873.639
 10
112.881
 20
874.427
 10
113.387
 20
875.268
 10
113.808
 20
876.155
 10
114.14
 20
877.079
 10
114.379
 20
878.031
 10
114.525
 20
879.002
 10
114.574
 20
879.982
 10
114.581
 20
885.658
 10
114.586
 20
891.336
 10
114.589
 20
897.014
 10
114.592
 20
902.693
 10
114.594
 20
908.3720000000001
 10
114.596
 20
914.052
 10
114.597
 20
919.731
 10
114.598
 20
925.4110000000001
 10
114.599
 20
931.09
 10
114.599
 20
935.3420000000001
 10
114.6
 20
939.572
 10
114.6
 20
944.057
 10
114.6
 20
948.519
 10
114.601
 20
953.426
 10
114.601
 20
958.306
 10
114.601
 20
963.7560000000001
 10
114.601
 20
969.177
 10
114.601
 20
973.222
 10
114.601
 20
977.2360000000001
 10
114.601
 20
981.249
 10
114.601
 20
985.705
 10
114.601
 20
990.126
 10
114.601
 20
994.546
 10
114.601
 20
999.396
 10
114.601
 20
1004.207
 10
114.601
 20
1014.226
 10
114.601
 20
1019.392
 10
114.601
 20
1024.559
 10
114.601
 20
1030.076
 10
114.601
 20
1035.55
 10
114.601
 20
1041.024
 10
114.601
 20
1046.792
 10
114.601
 20
1052.5140000000001
 10
114.601
 20
1058.236
 10
114.601
 20
1064.188
 10
114.601
 20
1070.092
 10
114.601
 20
1075.997
 10
114.601
 20
1080.557
 10
114.601
 20
1089.5819999999999
 10
114.601
 20
1094.094
 10
114.601
 20
1098.683
 10
114.601
 20
1107.763
 10
114.601
 20
1112.303
 10
114.601
 20
1116.864
 10
114.601
 20
1187.046
 10
114.601
 20
1192.212
 10
114.601
 20
1207.04
 10
114.601
 20
1211.851
 10
114.601
 20
1271.076
 10
114.601
 20
1275.306
 10
114.601
 20
1281.0
 10
114.601
 20
1286.695
 10
114.601
 20
1292.39
 10
114.601
 20
1315.169
 10
114.601
 20
1321.061
 10
114.601
 20
1326.358
 10
114.553
 20
1327.338
 10
114.409
 20
1328.309
 10
114.17
 20
1329.261
 10
113.84
 20
1330.185
 10
113.42
 20
1331.0720000000001
 10
112.916
 20
1331.914
 10
112.331
 20
1332.702
 10
111.672
 20
1333.429
 10
110.945
 20
1334.088
 10
110.157
 20
1334.673
 10
109.315
 20
1335.1770000000001
 10
108.428
 20
1335.597
 10
107.504
 20
1335.928
 10
106.552
 20
1336.166
 10
105.581
 20
1336.31
 10
104.601
 20
1336.358
 10
99.032
 20
1336.358
 10
93.262
 20
1336.358
 10
87.493
 20
1336.358
 10
81.72399999999999
 20
1336.358
 10
75.95400000000001
 20
1336.358
 10
64.416
 20
1336.358
 10
58.666
 20
1336.358
 10
53.096
 20
1336.38
 10
53.063
 20
1336.38
 10
47.312
 20
1336.382
 10
41.561
 20
1336.387
 10
35.806
 20
1336.393
 10
30.044
 20
1336.403
 10
29.063000000000002
 20
1336.356
 10
28.092
 20
1336.214
 10
27.139
 20
1335.977
 10
26.215
 20
1335.648
 10
25.326
 20
1335.229
 10
24.484
 20
1334.726
 10
23.694
 20
1334.142
 10
22.966
 20
1333.484
 10
22.306
 20
1332.758
 10
21.72
 20
1331.97
 10
21.214
 20
1331.129
 10
20.793
 20
1330.242
 10
20.461
 20
1329.318
 10
20.222
 20
1328.366
 10
20.076
 20
1327.395
 10
20.027
 20
1326.415
 10
20.02
 20
1320.738
 10
20.015
 20
1315.061
 10
20.012
 20
1309.383
 10
20.009
 20
1303.704
 10
20.007
 20
1298.025
 10
20.005
 20
1292.345
 10
20.004
 20
1286.666
  0
LWPOLYLINE
  5
8E
330
17
100
AcDbEntity
  8
STITCH
100
AcDbPolyline
 90
202
 70
1
 10
30.003
 20
1280.9850000000001
 10
30.003999999999998
 20
1286.664
 10
30.005000000000003
 20
1292.343
 10
30.006999999999998
 20
1298.022
 10
30.009
 20
1303.7
 10
30.012
 20
1309.378
 10
30.015
 20
1315.054
 10
30.02
 20
1320.73
 10
30.027
 20
1326.403
 10
35.792
 20
1326.393
 10
41.551
 20
1326.387
 10
47.306
 20
1326.382
 10
53.058
 20
1326.38
 10
58.647
 20
1326.358
 10
64.416
 20
1326.358
 10
70.185
 20
1326.358
 10
75.955
 20
1326.358
 10
81.72399999999999
 20
1326.358
 10
87.493
 20
1326.358
 10
93.262
 20
1326.358
 10
99.032
 20
1326.358
 10
104.601
 20
1326.358
 10
104.601
 20
1321.061
 10
104.601
 20
1315.169
 10
104.601
 20
1309.474
 10
104.601
 20
1303.779
 10
104.601
 20
1298.085
 10
104.601
 20
1292.39
 10
104.601
 20
1286.695
 10
104.601
 20
1281.0
 10
104.601
 20
1275.306
 10
104.601
 20
1271.076
 10
104.601
 20
1266.825
 10
104.601
 20
1262.363
 10
104.601
 20
1257.878
 10
104.601
 20
1252.997
 10
104.601
 20
1248.09
 10
104.601
 20
1242.67
 10
104.601
 20
1237.22
 10
104.601
 20
1233.207
 10
104.601
 20
1229.193
 10
104.601
 20
1225.1480000000001
 10
104.601
 20
1220.727
 10
104.601
 20
1216.307
 10
104.601
 20
1211.851
 10
104.601
 20
1207.04
 10
104.601
 20
1202.229
 10
104.601
 20
1197.379
 10
104.601
 20
1192.212
 10
104.601
 20
1187.046
 10
104.601
 20
1181.838
 10
104.601
 20
1176.364
 10
104.601
 20
1170.891
 10
104.601
 20
1165.373
 10
104.601
 20
1159.651
 10
104.601
 20
1153.929
 10
104.601
 20
1148.161
 10
104.601
 20
1142.257
 10
104.601
 20
1136.352
 10
104.601
 20
1130.4
 10
104.601
 20
1125.888
 10
104.601
 20
1121.376
 10
104.601
 20
1116.864
 10
104.601
 20
1112.303
 10
104.601
 20
1107.763
 10
104.601
 20
1103.223
 10
104.601
 20
1098.682
 10
104.601
 20
1094.094
 10
104.601
 20
1089.5819999999999
 10
104.601
 20
1085.069
 10
104.601
 20
1080.557
 10
104.601
 20
1075.997
 10
104.601
 20
1070.092
 10
104.601
 20
1064.188
 10
104.601
 20
1058.236
 10
104.601
 20
1052.5140000000001
 10
104.601
 20
1046.792
 10
104.601
 20
1041.024
 10
104.601
 20
1035.55
 10
104.601
 20
1030.076
 10
104.601
 20
1024.559
 10
104.601
 20
1019.392
 10
104.601
 20
1014.226
 10
104.601
 20
1009.018
 10
104.601
 20
1004.207
 10
104.601
 20
999.396
 10
104.601
 20
994.546
 10
104.601
 20
990.126
 10
104.601
 20
985.705
 10
104.601
 20
981.249
 10
104.601
 20
977.2360000000001
 10
104.601
 20
973.222
 10
104.601
 20
969.177
 10
104.601
 20
963.7560000000001
 10
104.601
 20
958.307
 10
104.601
 20
953.426
 10
104.6
 20
948.519
 10
104.6
 20
944.058
 10
104.6
 20
939.572
 10
104.599
 20
935.3430000000001
 10
104.599
 20
931.091
 10
104.598
 20
925.412
 10
104.597
 20
919.733
 10
104.596
 20
914.0540000000001
 10
104.594
 20
908.375
 10
104.592
 20
902.697
 10
104.589
 20
897.019
 10
104.586
 20
891.3430000000001
 10
104.581
 20
885.667
 10
104.574
 20
879.994
 10
98.809
 20
880.003
 10
93.05
 20
880.01
 10
87.295
 20
880.0150000000001
 10
81.543
 20
880.017
 10
75.955
 20
880.039
 10
70.185
 20
880.039
 10
64.416
 20
880.039
 10
58.647
 20
880.039
 10
52.877
 20
880.039
 10
47.108000000000004
 20
880.039
 10
41.339
 20
880.039
 10
35.569
 20
880.039
 10
30.0
 20
880.039
 10
30.0
 20
885.336
 10
30.0
 20
891.2280000000001
 10
30.0
 20
896.923
 10
30.0
 20
902.6179999999999
 10
30.0
 20
908.312
 10
30.0
 20
914.0070000000001
 10
30.0
 20
919.702
 10
30.0
 20
925.397
 10
30.0
 20
931.091
 10
30.0
 20
935.3199999999999
 10
30.0
 20
939.572
 10
30.0
 20
944.034
 10
30.0
 20
948.519
 10
30.0
 20
953.4000000000001
 10
30.0
 20
958.307
 10
30.0
 20
963.7270000000001
 10
30.0
 20
969.177
 10
30.0
 20
973.19
 10
30.0
 20
977.203
 10
30.0
 20
981.249
 10
30.0
 20
985.6700000000001
 10
30.0
 20
990.09
 10
30.0
 20
994.546
 10
30.0
 20
999.357
 10
30.0
 20
1004.168
 10
30.0
 20
1009.018
 10
30.0
 20
1014.184
 10
30.0
 20
1019.351
 10
30.0
 20
1024.559
 10
30.0
 20
1030.0320000000002
 10
30.0
 20
1035.506
 10
30.0
 20
1041.024
 10
30.0
 20
1046.746
 10
30.0
 20
1052.468
 10
30.0
 20
1058.236
 10
30.0
 20
1064.14
 10
30.0
 20
1070.045
 10
30.0
 20
1075.997
 10
30.0
 20
1080.509
 10
30.0
 20
1085.021
 10
30.0
 20
1089.533
 10
30.0
 20
1094.094
 10
30.0
 20
1098.634
 10
30.0
 20
1103.174
 10
30.0
 20
1107.714
 10
30.0
 20
1112.303
 10
30.0
 20
1116.815
 10
30.0
 20
1121.327
 10
30.0
 20
1125.8400000000001
 10
30.0
 20
1130.4
 10
30.0
 20
1136.305
 10
30.0
 20
1142.209
 10
30.0
 20
1148.161
 10
30.0
 20
1153.883
 10
30.0
 20
1159.605
 10
30.0
 20
1165.373
 10
30.0
 20
1170.847
 10
30.0
 20
1176.321
 10
30.0
 20
1181.838
 10
30.0
 20
1187.004
 10
30.0
 20
1192.171
 10
30.0
 20
1197.379
 10
30.0
 20
1202.19
 10
30.0
 20
1207.001
 10
30.0
 20
1211.851
 10
30.0
 20
1216.271
 10
30.0
 20
1220.692
 10
30.0
 20
1225.1480000000001
 10
30.0
 20
1229.161
 10
30.0
 20
1233.175
 10
30.0
 20
1237.22
 10
30.0
 20
1242.641
 10
30.0
 20
1248.09
 10
30.000999999999998
 20
1252.971
 10
30.000999999999998
 20
1257.878
 10
30.000999999999998
 20
1262.339
 10
30.000999999999998
 20
1266.825
 10
30.002000000000002
 20
1271.054
 10
30.002000000000002
 20
1275.306
  0
TEXT
  5
8F
330
17
100
AcDbEntity
  8
LABEL
100
AcDbText
 10
67.3005
 20
1103.1985
 30
0.0
 40
10.0
  1
A piece-1
 72
1
 11
67.3005
 21
1103.1985
 31
0.0
100
AcDbText
 73
2
  0
LWPOLYLINE
  5
90
330
17
100
AcDbEntity
  8
CUT
100
AcDbPolyline
 90
210
 70
1
 10
134.65
 20
1258.296
 10
135.221
 20
1252.651
 10
135.788
 20
1247.018
 10
136.352
 20
1241.391
 10
136.914
 20
1235.766
 10
136.918
 20
1235.734
 10
137.472
 20
1230.364
 10
138.034
 20
1224.7150000000001
 10
138.598
 20
1219.049
 10
139.188
 20
1213.124
 10
139.711
 20
1207.864
 10
139.857
 20
1206.887
 10
140.1
 20
1205.929
 10
140.435
 20
1204.999
 10
140.86
 20
1204.108
 10
141.37199999999999
 20
1203.262
 10
141.964
 20
1202.471
 10
142.632
 20
1201.743
 10
143.368
 20
1201.083
 10
144.166
 20
1200.5
 10
145.017
 20
1199.999
 10
145.914
 20
1199.583
 10
146.847
 20
1199.259
 10
147.808
 20
1199.028
 10
153.49099999999999
 20
1197.9560000000001
 10
159.322
 20
1196.856
 10
165.152
 20
1195.756
 10
170.981
 20
1194.656
 10
171.103
 20
1194.633
 10
176.93200000000002
 20
1193.609
 10
182.763
 20
1192.584
 10
188.593
 20
1191.559
 10
194.421
 20
1190.534
 10
194.66
 20
1190.4950000000001
 10
200.487
 20
1189.615
 10
206.31799999999998
 20
1188.7350000000001
 10
212.148
 20
1187.855
 10
217.975
 20
1186.975
 10
218.317
 20
1186.929
 10
224.144
 20
1186.254
 10
229.974
 20
1185.579
 10
235.804
 20
1184.904
 10
241.63
 20
1184.229
 10
242.055
 20
1184.189
 10
247.881
 20
1183.7640000000001
 10
253.711
 20
1183.3400000000001
 10
259.54200000000003
 20
1182.915
 10
265.36699999999996
 20
1182.491
 10
265.845
 20
1182.468
 10
271.671
 20
1182.323
 10
277.501
 20
1182.178
 10
283.331
 20
1182.033
 10
289.156
 20
1181.8890000000001
 10
289.653
 20
1181.8890000000001
 10
295.478
 20
1182.033
 10
301.30899999999997
 20
1182.178
 10
307.139
 20
1182.323
 10
312.964
 20
1182.468
 10
313.442
 20
1182.491
 10
319.26800000000003
 20
1182.915
 10
325.098
 20
1183.3400000000001
 10
330.929
 20
1183.7640000000001
 10
336.755
 20
1184.189
 10
337.179
 20
1184.229
 10
343.005
 20
1184.903
 10
348.83500000000004
 20
1185.579
 10
354.666
 20
1186.254
 10
360.493
 20
1186.929
 10
360.83500000000004
 20
1186.975
 10
366.66200000000003
 20
1187.855
 10
372.49199999999996
 20
1188.7350000000001
 10
378.322
 20
1189.615
 10
384.15
 20
1190.4950000000001
 10
384.389
 20
1190.534
 10
390.217
 20
1191.559
 10
396.047
 20
1192.584
 10
401.877
 20
1193.609
 10
407.706
 20
1194.633
 10
407.829
 20
1194.656
 10
413.658
 20
1195.756
 10
419.488
 20
1196.856
 10
425.318
 20
1197.9560000000001
 10
431.002
 20
1199.028
 10
431.962
 20
1199.259
 10
432.896
 20
1199.583
 10
433.792
 20
1199.999
 10
434.644
 20
1200.5
 10
435.441
 20
1201.083
 10
436.178
 20
1201.743
 10
436.845
 20
1202.471
 10
437.438
 20
1203.262
 10
437.949
 20
1204.108
 10
438.375
 20
1204.999
 10
438.71
 20
1205.929
 10
438.952
 20
1206.887
 10
439.098
 20
1207.864
 10
439.622
 20
1213.124
 10
440.211
 20
1219.049
 10
440.775
 20
1224.7150000000001
 10
441.339
 20
1230.382
 10
441.873
 20
1235.742
 10
442.431
 20
1241.359
 10
442.99
 20
1246.976
 10
443.549
 20
1252.593
 10
444.156
 20
1258.693
 10
444.204
 20
1259.863
 10
444.114
 20
1261.031
 10
443.342
 20
1266.708
 10
442.977
 20
1269.385
 10
442.826
 20
1270.225
 10
442.604
 20
1271.049
 10
442.313
 20
1271.851
 10
440.617
 20
1275.963
 10
438.919
 20
1280.078
 10
438.442
 20
1281.075
 10
437.85699999999997
 20
1282.013
 10
435.056
 20
1285.999
 10
432.253
 20
1289.988
 10
431.698
 20
1290.7060000000001
 10
431.08
 20
1291.372
 10
427.216
 20
1295.1680000000001
 10
423.35
 20
1298.967
 10
422.23
 20
1299.917
 10
418.99
 20
1302.278
 10
415.737
 20
1304.647
 10
412.495
 20
1307.01
 10
411.485
 20
1307.657
 10
407.626
 20
1309.814
 10
403.757
 20
1311.976
 10
399.897
 20
1314.134
 10
399.001
 20
1314.578
 10
394.585
 20
1316.4950000000001
 10
390.161
 20
1318.416
 10
385.744
 20
1320.334
 10
384.945
 20
1320.641
 10
380.043
 20
1322.288
 10
375.132
 20
1323.938
 10
370.229
 20
1325.585
 10
369.50800000000004
 20
1325.797
 10
364.196
 20
1327.148
 10
358.877
 20
1328.5
 10
353.565
 20
1329.85
 10
352.902
 20
1329.9950000000001
 10
347.265
 20
1331.027
 10
341.621
 20
1332.06
 10
335.98400000000004
 20
1333.092
 10
335.36199999999997
 20
1333.186
 10
329.48900000000003
 20
1333.883
 10
323.61
 20
1334.5810000000001
 10
317.73699999999997
 20
1335.279
 10
317.14099999999996
 20
1335.3310000000001
 10
312.63
 20
1335.595
 10
308.11400000000003
 20
1335.859
 10
303.597
 20
1336.122
 10
299.087
 20
1336.386
 10
298.504
 20
1336.403
 10
293.957
 20
1336.403
 10
289.405
 20
1336.403
 10
284.852
 20
1336.403
 10
280.30600000000004
 20
1336.403
 10
279.723
 20
1336.386
 10
275.212
 20
1336.122
 10
270.696
 20
1335.859
 10
266.179
 20
1335.595
 10
261.669
 20
1335.3310000000001
 10
261.073
 20
1335.279
 10
255.2
 20
1334.5810000000001
 10
249.321
 20
1333.883
 10
243.44799999999998
 20
1333.186
 10
242.826
 20
1333.092
 10
237.188
 20
1332.06
 10
231.54500000000002
 20
1331.027
 10
225.90800000000002
 20
1329.9950000000001
 10
225.245
 20
1329.85
 10
219.93200000000002
 20
1328.5
 10
214.613
 20
1327.148
 10
209.302
 20
1325.797
 10
208.58100000000002
 20
1325.585
 10
203.677
 20
1323.938
 10
198.767
 20
1322.288
 10
193.864
 20
1320.641
 10
193.066
 20
1320.334
 10
188.649
 20
1318.416
 10
184.224
 20
1316.4950000000001
 10
179.809
 20
1314.578
 10
178.913
 20
1314.134
 10
175.052
 20
1311.976
 10
171.183
 20
1309.814
 10
167.325
 20
1307.657
 10
166.315
 20
1307.01
 10
163.072
 20
1304.647
 10
159.82
 20
1302.278
 10
156.579
 20
1299.917
 10
155.459
 20
1298.967
 10
151.593
 20
1295.1680000000001
 10
147.73
 20
1291.372
 10
147.112
 20
1290.7060000000001
 10
146.557
 20
1289.988
 10
143.753
 20
1285.999
 10
140.953
 20
1282.013
 10
140.368
 20
1281.075
 10
139.89
 20
1280.077
 10
138.85
 20
1277.555
 10
136.557
 20
1271.998
 10
136.265
 20
1271.195
 10
136.043
 20
1270.3700000000001
 10
135.892
 20
1269.529
 10
135.253
 20
1264.82
 10
134.689
 20
1260.6390000000001
 10
134.601
 20
1259.469
  0
LWPOLYLINE
  5
91
330
17
100
AcDbEntity
  8
STITCH
100
AcDbPolyline
 90
136
 70
1
 10
144.6
 20
1259.3020000000001
 10
145.163
 20
1263.483
 10
145.801
 20
1268.184
 10
148.094
 20
1273.741
 10
149.135
 20
1276.2640000000001
 10
151.935
 20
1280.25
 10
154.739
 20
1284.239
 10
158.602
 20
1288.035
 10
162.468
 20
1291.834
 10
165.709
 20
1294.196
 10
168.961
 20
1296.565
 10
172.204
 20
1298.928
 10
176.062
 20
1301.085
 10
179.93099999999998
 20
1303.247
 10
183.792
 20
1305.405
 10
188.207
 20
1307.3220000000001
 10
192.632
 20
1309.244
 10
197.049
 20
1311.162
 10
201.951
 20
1312.809
 10
206.862
 20
1314.458
 10
211.765
 20
1316.106
 10
217.077
 20
1317.4560000000001
 10
222.39600000000002
 20
1318.808
 10
227.709
 20
1320.159
 10
233.346
 20
1321.191
 10
238.989
 20
1322.224
 10
244.627
 20
1323.256
 10
250.499
 20
1323.953
 10
256.379
 20
1324.651
 10
262.252
 20
1325.348
 10
266.762
 20
1325.612
 10
271.279
 20
1325.876
 10
275.79499999999996
 20
1326.1390000000001
 10
280.30600000000004
 20
1326.403
 10
284.852
 20
1326.403
 10
289.405
 20
1326.403
 10
293.957
 20
1326.403
 10
298.504
 20
1326.403
 10
303.014
 20
1326.14
 10
307.531
 20
1325.876
 10
312.047
 20
1325.612
 10
316.558
 20
1325.348
 10
322.43100000000004
 20
1324.651
 10
328.31
 20
1323.953
 10
334.183
 20
1323.256
 10
339.821
 20
1322.224
 10
345.464
 20
1321.191
 10
351.101
 20
1320.159
 10
356.413
 20
1318.808
 10
361.733
 20
1317.4560000000001
 10
367.044
 20
1316.106
 10
371.948
 20
1314.458
 10
376.858
 20
1312.809
 10
381.76099999999997
 20
1311.162
 10
386.178
 20
1309.244
 10
390.602
 20
1307.3220000000001
 10
395.018
 20
1305.405
 10
398.878
 20
1303.247
 10
402.747
 20
1301.085
 10
406.606
 20
1298.928
 10
409.848
 20
1296.565
 10
413.101
 20
1294.196
 10
416.341
 20
1291.834
 10
420.207
 20
1288.035
 10
424.071
 20
1284.239
 10
426.874
 20
1280.25
 10
429.675
 20
1276.2640000000001
 10
431.372
 20
1272.1490000000001
 10
433.069
 20
1268.037
 10
433.433
 20
1265.3600000000001
 10
434.206
 20
1259.683
 10
433.598
 20
1253.583
 10
433.04
 20
1247.9660000000001
 10
432.481
 20
1242.349
 10
431.922
 20
1236.732
 10
431.388
 20
1231.372
 10
430.824
 20
1225.7060000000001
 10
430.261
 20
1220.039
 10
429.671
 20
1214.115
 10
429.148
 20
1208.854
 10
423.464
 20
1207.782
 10
417.634
 20
1206.682
 10
411.804
 20
1205.582
 10
405.975
 20
1204.482
 10
400.146
 20
1203.458
 10
394.315
 20
1202.433
 10
388.485
 20
1201.408
 10
382.65700000000004
 20
1200.383
 10
376.829
 20
1199.503
 10
370.999
 20
1198.623
 10
365.169
 20
1197.743
 10
359.342
 20
1196.863
 10
353.515
 20
1196.188
 10
347.685
 20
1195.512
 10
341.854
 20
1194.837
 10
336.028
 20
1194.162
 10
330.202
 20
1193.738
 10
324.37199999999996
 20
1193.313
 10
318.54200000000003
 20
1192.8890000000001
 10
312.716
 20
1192.464
 10
306.89099999999996
 20
1192.32
 10
301.06
 20
1192.175
 10
295.23
 20
1192.03
 10
289.405
 20
1191.885
 10
283.579
 20
1192.03
 10
277.749
 20
1192.175
 10
271.919
 20
1192.32
 10
266.094
 20
1192.464
 10
260.26800000000003
 20
1192.8890000000001
 10
254.438
 20
1193.313
 10
248.607
 20
1193.738
 10
242.781
 20
1194.162
 10
236.95499999999998
 20
1194.837
 10
231.125
 20
1195.512
 10
225.29500000000002
 20
1196.188
 10
219.46800000000002
 20
1196.863
 10
213.64100000000002
 20
1197.743
 10
207.81099999999998
 20
1198.623
 10
201.98000000000002
 20
1199.503
 10
196.152
 20
1200.383
 10
190.324
 20
1201.408
 10
184.494
 20
1202.433
 10
178.664
 20
1203.458
 10
172.835
 20
1204.482
 10
167.006
 20
1205.582
 10
161.175
 20
1206.682
 10
155.345
 20
1207.782
 10
149.662
 20
1208.854
 10
149.139
 20
1214.115
 10
148.549
 20
1220.039
 10
147.985
 20
1225.7060000000001
 10
147.421
 20
1231.372
 10
146.865
 20
1236.761
 10
146.303
 20
1242.387
 10
145.738
 20
1248.018
 10
145.171
 20
1253.655
  0
TEXT
  5
92
330
17
100
AcDbEntity
  8
LABEL
100
AcDbText
 10
289.40250000000003
 20
1259.146
 30
0.0
 40
10.0
  1
B piece-2
 72
1
 11
289.40250000000003
 21
1259.146
 31
0.0
100
AcDbText
 73
2
  0
LWPOLYLINE
  5
93
330
17
100
AcDbEntity
  8
CUT
100
AcDbPolyline
 90
210
 70
1
 10
737.421
 20
1194.658
 10
743.25
 20
1195.758
 10
749.081
 20
1196.858
 10
754.9110000000001
 20
1197.958
 10
760.594
 20
1199.03
 10
761.5540000000001
 20
1199.261
 10
762.488
 20
1199.586
 10
763.385
 20
1200.001
 10
764.236
 20
1200.503
 10
765.034
 20
1201.086
 10
765.77
 20
1201.7450000000001
 10
766.437
 20
1202.474
 10
767.03
 20
1203.265
 10
767.5409999999999
 20
1204.1100000000001
 10
767.967
 20
1205.002
 10
768.302
 20
1205.931
 10
768.544
 20
1206.8890000000001
 10
768.691
 20
1207.867
 10
769.2139999999999
 20
1213.127
 10
769.8040000000001
 20
1219.051
 10
770.931
 20
1230.384
 10
771.465
 20
1235.744
 10
772.024
 20
1241.3600000000001
 10
772.582
 20
1246.977
 10
773.1410000000001
 20
1252.594
 10
773.748
 20
1258.694
 10
773.796
 20
1259.864
 10
773.706
 20
1261.032
 10
772.934
 20
1266.709
 10
772.5699999999999
 20
1269.387
 10
772.419
 20
1270.226
 10
772.197
 20
1271.05
 10
771.905
 20
1271.852
 10
770.2090000000001
 20
1275.964
 10
768.511
 20
1280.079
 10
768.034
 20
1281.076
 10
767.4490000000001
 20
1282.0140000000001
 10
764.648
 20
1286.0
 10
761.845
 20
1289.989
 10
761.29
 20
1290.707
 10
760.672
 20
1291.373
 10
756.809
 20
1295.169
 10
752.943
 20
1298.968
 10
751.8230000000001
 20
1299.917
 10
748.582
 20
1302.278
 10
745.3299999999999
 20
1304.6480000000001
 10
742.087
 20
1307.011
 10
741.077
 20
1307.658
 10
737.219
 20
1309.814
 10
733.35
 20
1311.977
 10
729.49
 20
1314.134
 10
728.594
 20
1314.578
 10
724.178
 20
1316.4950000000001
 10
719.754
 20
1318.417
 10
715.337
 20
1320.334
 10
714.539
 20
1320.641
 10
709.636
 20
1322.288
 10
704.726
 20
1323.938
 10
699.822
 20
1325.585
 10
699.101
 20
1325.798
 10
693.79
 20
1327.148
 10
688.471
 20
1328.5
 10
683.159
 20
1329.85
 10
682.496
 20
1329.9950000000001
 10
676.859
 20
1331.027
 10
671.215
 20
1332.06
 10
665.578
 20
1333.092
 10
664.956
 20
1333.186
 10
659.083
 20
1333.883
 10
653.204
 20
1334.5810000000001
 10
647.331
 20
1335.279
 10
646.736
 20
1335.3310000000001
 10
642.225
 20
1335.595
 10
637.7090000000001
 20
1335.859
 10
633.192
 20
1336.122
 10
628.682
 20
1336.386
 10
628.099
 20
1336.403
 10
623.552
 20
1336.403
 10
619.0
 20
1336.403
 10
614.448
 20
1336.403
 10
609.9010000000001
 20
1336.403
 10
609.318
 20
1336.386
 10
604.808
 20
1336.122
 10
600.2909999999999
 20
1335.859
 10
595.775
 20
1335.595
 10
591.264
 20
1335.3310000000001
 10
590.669
 20
1335.279
 10
584.796
 20
1334.5810000000001
 10
578.917
 20
1333.883
 10
573.044
 20
1333.186
 10
572.422
 20
1333.092
 10
566.785
 20
1332.06
 10
561.141
 20
1331.027
 10
555.504
 20
1329.9950000000001
 10
554.841
 20
1329.85
 10
549.529
 20
1328.5
 10
544.21
 20
1327.148
 10
538.899
 20
1325.798
 10
538.178
 20
1325.585
 10
533.274
 20
1323.938
 10
528.364
 20
1322.288
 10
523.461
 20
1320.641
 10
522.663
 20
1320.334
 10
518.246
 20
1318.417
 10
513.822
 20
1316.4950000000001
 10
509.406
 20
1314.578
 10
508.51
 20
1314.134
 10
504.65
 20
1311.977
 10
500.781
 20
1309.814
 10
496.922
 20
1307.658
 10
495.913
 20
1307.011
 10
492.67
 20
1304.6480000000001
 10
489.418
 20
1302.278
 10
486.177
 20
1299.917
 10
485.057
 20
1298.968
 10
481.19100000000003
 20
1295.169
 10
477.32800000000003
 20
1291.372
 10
476.71000000000004
 20
1290.707
 10
476.15500000000003
 20
1289.989
 10
473.35200000000003
 20
1286.0
 10
470.551
 20
1282.0140000000001
 10
469.966
 20
1281.076
 10
469.48900000000003
 20
1280.079
 10
468.448
 20
1277.556
 10
466.095
 20
1271.852
 10
465.803
 20
1271.05
 10
465.581
 20
1270.227
 10
465.43
 20
1269.387
 10
464.663
 20
1263.7450000000001
 10
464.294
 20
1261.032
 10
464.204
 20
1259.864
 10
464.252
 20
1258.694
 10
464.813
 20
1253.051
 10
465.377
 20
1247.384
 10
465.94100000000003
 20
1241.717
 10
466.505
 20
1236.051
 10
467.069
 20
1230.384
 10
467.633
 20
1224.718
 10
468.196
 20
1219.051
 10
468.76
 20
1213.384
 10
468.762
 20
1213.364
 10
469.319
 20
1207.886
 10
469.467
 20
1206.907
 10
469.712
 20
1205.948
 10
470.05
 20
1205.018
 10
470.479
 20
1204.125
 10
470.994
 20
1203.28
 10
471.59000000000003
 20
1202.489
 10
472.261
 20
1201.761
 10
473.00100000000003
 20
1201.103
 10
473.802
 20
1200.522
 10
474.657
 20
1200.0230000000001
 10
475.557
 20
1199.6100000000001
 10
476.493
 20
1199.289
 10
477.457
 20
1199.062
 10
483.111
 20
1198.021
 10
488.904
 20
1196.913
 10
494.732
 20
1195.798
 10
500.558
 20
1194.684
 10
500.729
 20
1194.653
 10
506.56100000000004
 20
1193.642
 10
512.394
 20
1192.632
 10
518.178
 20
1191.63
 10
523.949
 20
1190.571
 10
524.224
 20
1190.525
 10
530.048
 20
1189.623
 10
530.0840000000001
 20
1189.618
 10
535.915
 20
1188.738
 10
541.745
 20
1187.857
 10
547.572
 20
1186.978
 10
547.914
 20
1186.932
 10
553.74
 20
1186.257
 10
559.571
 20
1185.582
 10
565.4010000000001
 20
1184.906
 10
571.227
 20
1184.231
 10
571.6510000000001
 20
1184.191
 10
577.477
 20
1183.767
 10
583.307
 20
1183.343
 10
589.1370000000001
 20
1182.9180000000001
 10
594.963
 20
1182.4940000000001
 10
595.441
 20
1182.47
 10
601.2660000000001
 20
1182.326
 10
607.096
 20
1182.181
 10
612.926
 20
1182.036
 10
618.752
 20
1181.891
 10
619.248
 20
1181.891
 10
625.073
 20
1182.036
 10
630.904
 20
1182.181
 10
636.734
 20
1182.326
 10
642.559
 20
1182.47
 10
643.037
 20
1182.4940000000001
 10
648.863
 20
1182.9180000000001
 10
654.693
 20
1183.343
 10
660.523
 20
1183.767
 10
666.349
 20
1184.191
 10
666.773
 20
1184.231
 10
672.599
 20
1184.906
 10
678.429
 20
1185.582
 10
684.26
 20
1186.257
 10
690.086
 20
1186.932
 10
690.428
 20
1186.978
 10
696.255
 20
1187.857
 10
702.085
 20
1188.738
 10
707.915
 20
1189.618
 10
713.7429999999999
 20
1190.498
 10
713.982
 20
1190.537
 10
720.029
 20
1191.6
 10
725.836
 20
1192.621
 10
731.643
 20
1193.642
 10
737.299
 20
1194.636
  0
LWPOLYLINE
  5
94
330
17
100
AcDbEntity
  8
STITCH
100
AcDbPolyline
 90
136
 70
1
 10
735.567
 20
1204.4850000000001
 10
729.9110000000001
 20
1203.491
 10
724.104
 20
1202.47
 10
718.298
 20
1201.449
 10
712.25
 20
1200.386
 10
706.423
 20
1199.506
 10
700.592
 20
1198.626
 10
694.762
 20
1197.7450000000001
 10
688.935
 20
1196.866
 10
683.109
 20
1196.191
 10
677.279
 20
1195.515
 10
671.448
 20
1194.8400000000001
 10
665.623
 20
1194.165
 10
659.797
 20
1193.741
 10
653.966
 20
1193.316
 10
648.136
 20
1192.892
 10
642.311
 20
1192.467
 10
636.485
 20
1192.323
 10
630.655
 20
1192.178
 10
624.825
 20
1192.033
 10
619.0
 20
1191.888
 10
613.175
 20
1192.033
 10
607.345
 20
1192.178
 10
601.514
 20
1192.323
 10
595.6890000000001
 20
1192.467
 10
589.864
 20
1192.892
 10
584.033
 20
1193.316
 10
578.203
 20
1193.741
 10
572.377
 20
1194.165
 10
566.551
 20
1194.8400000000001
 10
560.721
 20
1195.515
 10
554.891
 20
1196.191
 10
549.064
 20
1196.866
 10
543.238
 20
1197.7450000000001
 10
537.408
 20
1198.626
 10
531.577
 20
1199.506
 10
525.754
 20
1200.407
 10
519.934
 20
1201.475
 10
514.101
 20
1202.4850000000001
 10
508.26800000000003
 20
1203.496
 10
502.43600000000004
 20
1204.506
 10
496.61
 20
1205.6200000000001
 10
490.783
 20
1206.7350000000001
 10
484.955
 20
1207.849
 10
479.267
 20
1208.896
 10
478.711
 20
1214.375
 10
478.147
 20
1220.041
 10
477.583
 20
1225.708
 10
477.019
 20
1231.374
 10
476.456
 20
1237.041
 10
475.892
 20
1242.708
 10
475.32800000000003
 20
1248.374
 10
474.764
 20
1254.041
 10
474.202
 20
1259.684
 10
474.572
 20
1262.397
 10
475.339
 20
1268.039
 10
477.692
 20
1273.742
 10
478.733
 20
1276.265
 10
481.534
 20
1280.251
 10
484.337
 20
1284.24
 10
488.2
 20
1288.036
 10
492.06600000000003
 20
1291.835
 10
495.307
 20
1294.196
 10
498.559
 20
1296.566
 10
501.801
 20
1298.929
 10
505.66
 20
1301.085
 10
509.529
 20
1303.248
 10
513.389
 20
1305.405
 10
517.8050000000001
 20
1307.323
 10
522.229
 20
1309.244
 10
526.646
 20
1311.162
 10
531.548
 20
1312.809
 10
536.4590000000001
 20
1314.459
 10
541.362
 20
1316.106
 10
546.674
 20
1317.4560000000001
 10
551.993
 20
1318.808
 10
557.3050000000001
 20
1320.159
 10
562.942
 20
1321.191
 10
568.585
 20
1322.224
 10
574.223
 20
1323.256
 10
580.095
 20
1323.953
 10
585.974
 20
1324.651
 10
591.848
 20
1325.348
 10
596.358
 20
1325.612
 10
600.874
 20
1325.876
 10
605.3910000000001
 20
1326.1390000000001
 10
609.9010000000001
 20
1326.403
 10
614.448
 20
1326.403
 10
619.0
 20
1326.403
 10
623.552
 20
1326.403
 10
628.099
 20
1326.403
 10
632.609
 20
1326.1390000000001
 10
637.126
 20
1325.876
 10
641.642
 20
1325.612
 10
646.152
 20
1325.348
 10
652.0260000000001
 20
1324.651
 10
657.905
 20
1323.953
 10
663.777
 20
1323.256
 10
669.415
 20
1322.224
 10
675.058
 20
1321.191
 10
680.695
 20
1320.159
 10
686.0070000000001
 20
1318.808
 10
691.326
 20
1317.4560000000001
 10
696.638
 20
1316.106
 10
701.5409999999999
 20
1314.459
 10
706.452
 20
1312.809
 10
711.354
 20
1311.162
 10
715.771
 20
1309.244
 10
720.195
 20
1307.323
 10
724.611
 20
1305.405
 10
728.471
 20
1303.248
 10
732.34
 20
1301.085
 10
736.1990000000001
 20
1298.929
 10
739.441
 20
1296.566
 10
742.693
 20
1294.196
 10
745.934
 20
1291.835
 10
749.8
 20
1288.036
 10
753.663
 20
1284.24
 10
756.466
 20
1280.251
 10
759.267
 20
1276.265
 10
760.965
 20
1272.15
 10
762.6610000000001
 20
1268.039
 10
763.0250000000001
 20
1265.361
 10
763.798
 20
1259.684
 10
763.191
 20
1253.584
 10
762.6320000000001
 20
1247.967
 10
762.0730000000001
 20
1242.351
 10
761.514
 20
1236.734
 10
760.98
 20
1231.374
 10
760.417
 20
1225.708
 10
759.8530000000001
 20
1220.041
 10
759.263
 20
1214.117
 10
758.74
 20
1208.857
 10
753.057
 20
1207.785
 10
747.2270000000001
 20
1206.685
 10
741.396
 20
1205.585
  0
TEXT
  5
95
330
17
100
AcDbEntity
  8
LABEL
100
AcDbText
 10
619.0
 20
1259.147
 30
0.0
 40
10.0
  1
C piece-3
 72
1
 11
619.0
 21
1259.147
 31
0.0
100
AcDbText
 73
2
  0
LWPOLYLINE
  5
96
330
17
100
AcDbEntity
  8
CUT
100
AcDbPolyline
 90
175
 70
1
 10
1062.356
 20
1241.8020000000001
 10
1068.289
 20
1241.8020000000001
 10
1074.222
 20
1241.8020000000001
 10
1080.155
 20
1241.8020000000001
 10
1085.888
 20
1241.8020000000001
 10
1086.868
 20
1241.85
 10
1087.839
 20
1241.994
 10
1088.7910000000002
 20
1242.233
 10
1089.7150000000001
 20
1242.563
 10
1090.602
 20
1242.983
 10
1091.444
 20
1243.487
 10
1092.232
 20
1244.0720000000001
 10
1092.959
 20
1244.731
 10
1093.618
 20
1245.458
 10
1094.203
 20
1246.246
 10
1094.708
 20
1247.088
 10
1095.127
 20
1247.975
 10
1095.458
 20
1248.8990000000001
 10
1095.696
 20
1249.851
 10
1095.8400000000001
 20
1250.8220000000001
 10
1095.888
 20
1251.8020000000001
 10
1095.888
 20
1257.1770000000001
 10
1095.888
 20
1263.141
 10
1095.888
 20
1268.91
 10
1095.888
 20
1274.661
 10
1095.9080000000001
 20
1280.194
 10
1095.9080000000001
 20
1280.226
 10
1095.911
 20
1285.953
 10
1095.915
 20
1291.683
 10
1095.921
 20
1297.4180000000001
 10
1095.93
 20
1303.161
 10
1095.942
 20
1308.915
 10
1095.958
 20
1314.684
 10
1095.981
 20
1320.475
 10
1096.01
 20
1326.305
 10
1095.967
 20
1327.288
 10
1095.827
 20
1328.262
 10
1095.592
 20
1329.217
 10
1095.265
 20
1330.144
 10
1094.848
 20
1331.035
 10
1094.346
 20
1331.881
 10
1093.7620000000002
 20
1332.673
 10
1093.104
 20
1333.404
 10
1092.3780000000002
 20
1334.067
 10
1091.5900000000001
 20
1334.655
 10
1090.747
 20
1335.163
 10
1089.859
 20
1335.586
 10
1088.934
 20
1335.919
 10
1087.98
 20
1336.16
 10
1087.008
 20
1336.306
 10
1086.025
 20
1336.356
 10
1080.109
 20
1336.365
 10
1074.191
 20
1336.371
 10
1068.2730000000001
 20
1336.374
 10
1062.38
 20
1336.375
 10
1056.435
 20
1336.403
 10
1056.3890000000001
 20
1336.403
 10
1050.4850000000001
 20
1336.403
 10
1044.5810000000001
 20
1336.403
 10
1038.6770000000001
 20
1336.403
 10
1032.7330000000002
 20
1336.403
 10
1026.853
 20
1336.403
 10
1020.972
 20
1336.403
 10
1015.091
 20
1336.403
 10
1009.1750000000001
 20
1336.403
 10
991.614
 20
1336.403
 10
985.722
 20
1336.403
 10
979.892
 20
1336.403
 10
974.062
 20
1336.403
 10
968.231
 20
1336.403
 10
962.3530000000001
 20
1336.403
 10
915.682
 20
1336.403
 10
909.8520000000001
 20
1336.403
 10
904.022
 20
1336.403
 10
874.715
 20
1336.403
 10
868.7710000000001
 20
1336.403
 10
862.8900000000001
 20
1336.403
 10
857.01
 20
1336.403
 10
851.129
 20
1336.403
 10
845.162
 20
1336.403
 10
839.258
 20
1336.403
 10
833.354
 20
1336.403
 10
827.45
 20
1336.403
 10
821.517
 20
1336.403
 10
815.5840000000001
 20
1336.403
 10
809.6510000000001
 20
1336.403
 10
803.918
 20
1336.403
 10
802.9380000000001
 20
1336.355
 10
801.9670000000001
 20
1336.211
 10
801.0150000000001
 20
1335.972
 10
800.091
 20
1335.642
 10
799.2040000000001
 20
1335.222
 10
798.3620000000001
 20
1334.718
 10
797.5740000000001
 20
1334.133
 10
796.8470000000001
 20
1333.474
 10
796.1880000000001
 20
1332.747
 10
795.6030000000001
 20
1331.959
 10
795.099
 20
1331.117
 10
794.6790000000001
 20
1330.23
 10
794.3480000000001
 20
1329.306
 10
794.11
 20
1328.354
 10
793.966
 20
1327.383
 10
793.918
 20
1326.403
 10
793.918
 20
1321.028
 10
793.918
 20
1315.064
 10
793.918
 20
1309.295
 10
793.918
 20
1303.544
 10
793.898
 20
1298.011
 10
793.898
 20
1297.979
 10
793.8950000000001
 20
1292.252
 10
793.8910000000001
 20
1286.522
 10
793.8850000000001
 20
1280.787
 10
793.8760000000001
 20
1275.044
 10
793.864
 20
1269.29
 10
793.8480000000001
 20
1263.521
 10
793.825
 20
1257.73
 10
793.796
 20
1251.8990000000001
 10
793.839
 20
1250.917
 10
793.979
 20
1249.943
 10
794.214
 20
1248.988
 10
794.541
 20
1248.061
 10
794.9580000000001
 20
1247.17
 10
795.461
 20
1246.324
 10
796.0440000000001
 20
1245.532
 10
796.702
 20
1244.801
 10
797.428
 20
1244.138
 10
798.2170000000001
 20
1243.55
 10
799.0590000000001
 20
1243.042
 10
799.947
 20
1242.619
 10
800.8720000000001
 20
1242.286
 10
801.826
 20
1242.045
 10
802.798
 20
1241.8990000000001
 10
803.7810000000001
 20
1241.849
 10
809.697
 20
1241.84
 10
815.615
 20
1241.834
 10
821.533
 20
1241.8310000000001
 10
827.426
 20
1241.829
 10
833.3710000000001
 20
1241.8020000000001
 10
833.417
 20
1241.8020000000001
 10
839.321
 20
1241.8020000000001
 10
845.225
 20
1241.8020000000001
 10
851.129
 20
1241.8020000000001
 10
857.0730000000001
 20
1241.8020000000001
 10
862.9530000000001
 20
1241.8020000000001
 10
868.8340000000001
 20
1241.8020000000001
 10
874.715
 20
1241.8020000000001
 10
880.6310000000001
 20
1241.8020000000001
 10
886.484
 20
1241.8020000000001
 10
892.3380000000001
 20
1241.8020000000001
 10
898.192
 20
1241.8020000000001
 10
909.914
 20
1241.8020000000001
 10
915.745
 20
1241.8020000000001
 10
921.575
 20
1241.8020000000001
 10
927.4530000000001
 20
1241.8020000000001
 10
933.27
 20
1241.8020000000001
 10
939.087
 20
1241.8020000000001
 10
944.903
 20
1241.8020000000001
 10
950.782
 20
1241.8020000000001
 10
956.5980000000001
 20
1241.8020000000001
 10
962.4150000000001
 20
1241.8020000000001
 10
968.231
 20
1241.8020000000001
 10
974.124
 20
1241.8020000000001
 10
979.9540000000001
 20
1241.8020000000001
 10
985.7840000000001
 20
1241.8020000000001
 10
991.614
 20
1241.8020000000001
 10
997.5300000000001
 20
1241.8020000000001
 10
1003.384
 20
1241.8020000000001
 10
1015.091
 20
1241.8020000000001
 10
1021.0350000000001
 20
1241.8020000000001
 10
1026.9160000000002
 20
1241.8020000000001
 10
1032.796
 20
1241.8020000000001
 10
1038.6770000000001
 20
1241.8020000000001
 10
1044.644
 20
1241.8020000000001
 10
1050.548
 20
1241.8020000000001
 10
1056.452
 20
1241.8020000000001
  0
LWPOLYLINE
  5
97
330
17
100
AcDbEntity
  8
STITCH
100
AcDbPolyline
 90
122
 70
1
 10
1062.356
 20
1251.8020000000001
 10
1056.452
 20
1251.8020000000001
 10
1050.548
 20
1251.8020000000001
 10
1044.644
 20
1251.8020000000001
 10
1038.6770000000001
 20
1251.8020000000001
 10
1032.796
 20
1251.8020000000001
 10
1026.9160000000002
 20
1251.8020000000001
 10
1021.0350000000001
 20
1251.8020000000001
 10
1015.091
 20
1251.8020000000001
 10
1009.238
 20
1251.8020000000001
 10
1003.384
 20
1251.8020000000001
 10
997.5310000000001
 20
1251.8020000000001
 10
991.614
 20
1251.8020000000001
 10
985.7840000000001
 20
1251.8020000000001
 10
979.9540000000001
 20
1251.8020000000001
 10
974.124
 20
1251.8020000000001
 10
968.231
 20
1251.8020000000001
 10
962.4150000000001
 20
1251.8020000000001
 10
956.5980000000001
 20
1251.8020000000001
 10
950.782
 20
1251.8020000000001
 10
944.903
 20
1251.8020000000001
 10
939.086
 20
1251.8020000000001
 10
933.27
 20
1251.8020000000001
 10
927.4530000000001
 20
1251.8020000000001
 10
921.575
 20
1251.8020000000001
 10
915.744
 20
1251.8020000000001
 10
909.914
 20
1251.8020000000001
 10
904.0840000000001
 20
1251.8020000000001
 10
898.192
 20
1251.8020000000001
 10
892.3380000000001
 20
1251.8020000000001
 10
886.484
 20
1251.8020000000001
 10
880.6310000000001
 20
1251.8020000000001
 10
874.715
 20
1251.8020000000001
 10
868.8340000000001
 20
1251.8020000000001
 10
862.9530000000001
 20
1251.8020000000001
 10
857.0730000000001
 20
1251.8020000000001
 10
851.129
 20
1251.8020000000001
 10
845.225
 20
1251.8020000000001
 10
839.321
 20
1251.8020000000001
 10
833.417
 20
1251.8020000000001
 10
827.45
 20
1251.829
 10
821.5350000000001
 20
1251.8310000000001
 10
815.6210000000001
 20
1251.834
 10
809.707
 20
1251.84
 10
803.796
 20
1251.849
 10
803.825
 20
1257.685
 10
803.8470000000001
 20
1263.488
 10
803.864
 20
1269.265
 10
803.8760000000001
 20
1275.026
 10
803.8850000000001
 20
1280.7740000000001
 10
803.8910000000001
 20
1286.513
 10
803.8950000000001
 20
1292.246
 10
803.898
 20
1297.975
 10
803.918
 20
1303.526
 10
803.918
 20
1309.295
 10
803.918
 20
1315.064
 10
803.918
 20
1321.028
 10
803.918
 20
1326.403
 10
809.6510000000001
 20
1326.403
 10
815.5840000000001
 20
1326.403
 10
821.517
 20
1326.403
 10
827.45
 20
1326.403
 10
833.354
 20
1326.403
 10
839.258
 20
1326.403
 10
845.162
 20
1326.403
 10
851.129
 20
1326.403
 10
857.01
 20
1326.403
 10
862.8900000000001
 20
1326.403
 10
868.7710000000001
 20
1326.403
 10
874.715
 20
1326.403
 10
880.5680000000001
 20
1326.403
 10
886.422
 20
1326.403
 10
892.2750000000001
 20
1326.403
 10
898.192
 20
1326.403
 10
904.022
 20
1326.403
 10
909.8520000000001
 20
1326.403
 10
915.682
 20
1326.403
 10
921.575
 20
1326.403
 10
927.3910000000001
 20
1326.403
 10
933.2080000000001
 20
1326.403
 10
939.0240000000001
 20
1326.403
 10
944.903
 20
1326.403
 10
950.72
 20
1326.403
 10
956.5360000000001
 20
1326.403
 10
962.3530000000001
 20
1326.403
 10
968.231
 20
1326.403
 10
974.062
 20
1326.403
 10
979.892
 20
1326.403
 10
985.722
 20
1326.403
 10
991.614
 20
1326.403
 10
997.4680000000001
 20
1326.403
 10
1003.3220000000001
 20
1326.403
 10
1009.1750000000001
 20
1326.403
 10
1015.091
 20
1326.403
 10
1020.972
 20
1326.403
 10
1026.853
 20
1326.403
 10
1032.7330000000002
 20
1326.403
 10
1038.6770000000001
 20
1326.403
 10
1044.5810000000001
 20
1326.403
 10
1050.4850000000001
 20
1326.403
 10
1056.3890000000001
 20
1326.403
 10
1062.356
 20
1326.375
 10
1068.2710000000002
 20
1326.374
 10
1074.185
 20
1326.371
 10
1080.0990000000002
 20
1326.365
 10
1086.01
 20
1326.356
 10
1085.981
 20
1320.52
 10
1085.959
 20
1314.717
 10
1085.942
 20
1308.939
 10
1085.93
 20
1303.179
 10
1085.921
 20
1297.431
 10
1085.915
 20
1291.692
 10
1085.911
 20
1285.959
 10
1085.9080000000001
 20
1280.23
 10
1085.888
 20
1274.679
 10
1085.888
 20
1268.91
 10
1085.888
 20
1263.141
 10
1085.888
 20
1257.1770000000001
 10
1085.888
 20
1251.8020000000001
 10
1080.155
 20
1251.8020000000001
 10
1074.222
 20
1251.8020000000001
 10
1068.289
 20
1251.8020000000001
  0
TEXT
  5
98
330
17
100
AcDbEntity
  8
LABEL
100
AcDbText
 10
944.903
 20
1289.1025
 30
0.0
 40
10.0
  1
D piece-4
 72
1
 11
944.903
 21
1289.1025
 31
0.0
100
AcDbText
 73
2
  0
LWPOLYLINE
  5
99
330
17
100
AcDbEntity
  8
CUT
100
AcDbPolyline
 90
984
 70
1
 10
1141.761
 20
216.40100000000007
 10
1144.011
 20
216.40100000000007
 10
1144.992
 20
216.44900000000007
 10
1145.962
 20
216.59300000000007
 10
1146.914
 20
216.83100000000013
 10
1147.838
 20
217.16200000000003
 10
1148.725
 20
217.58100000000013
 10
1149.567
 20
218.086
 10
1150.355
 20
218.67100000000005
 10
1151.0819999999999
 20
219.32999999999993
 10
1151.741
 20
220.05700000000002
 10
1152.326
 20
220.84500000000003
 10
1152.831
 20
221.68700000000013
 10
1153.25
 20
222.57400000000007
 10
1153.581
 20
223.49800000000005
 10
1153.819
 20
224.45000000000005
 10
1153.963
 20
225.42100000000005
 10
1154.011
 20
226.40100000000007
 10
1154.011
 20
228.54899999999998
 10
1154.011
 20
230.6980000000001
 10
1154.011
 20
232.846
 10
1154.011
 20
234.99399999999991
 10
1154.011
 20
237.14300000000003
 10
1154.011
 20
239.29099999999994
 10
1154.011
 20
241.44000000000005
 10
1154.011
 20
243.58799999999997
 10
1154.011
 20
245.73700000000008
 10
1154.011
 20
247.885
 10
1154.011
 20
250.0340000000001
 10
1154.011
 20
252.18200000000002
 10
1154.011
 20
254.32999999999993
 10
1154.011
 20
256.47900000000004
 10
1154.011
 20
258.62699999999995
 10
1154.011
 20
260.77600000000007
 10
1154.011
 20
262.924
 10
1154.011
 20
265.0730000000001
 10
1154.011
 20
267.221
 10
1154.011
 20
269.3700000000001
 10
1154.011
 20
271.51800000000003
 10
1154.011
 20
273.66599999999994
 10
1154.011
 20
275.81500000000005
 10
1154.011
 20
277.96299999999997
 10
1154.011
 20
280.1120000000001
 10
1154.011
 20
282.26
 10
1154.011
 20
284.4090000000001
 10
1154.011
 20
286.557
 10
1154.011
 20
288.7049999999999
 10
1154.011
 20
290.85400000000004
 10
1154.011
 20
293.00199999999995
 10
1154.011
 20
295.15100000000007
 10
1154.011
 20
297.299
 10
1154.011
 20
299.4480000000001
 10
1154.011
 20
301.596
 10
1154.011
 20
303.7450000000001
 10
1154.011
 20
305.89300000000003
 10
1154.011
 20
308.04099999999994
 10
1154.011
 20
310.19000000000005
 10
1154.011
 20
312.33799999999997
 10
1154.011
 20
314.48699999999985
 10
1154.011
 20
316.635
 10
1154.011
 20
318.7839999999999
 10
1154.011
 20
323.0809999999999
 10
1154.011
 20
325.22900000000004
 10
1154.011
 20
327.3770000000002
 10
1154.011
 20
329.52600000000007
 10
1154.011
 20
331.674
 10
1154.011
 20
333.823
 10
1154.011
 20
335.971
 10
1154.011
 20
338.12
 10
1154.011
 20
340.26800000000003
 10
1154.011
 20
342.41700000000003
 10
1154.011
 20
344.56500000000005
 10
1154.011
 20
346.71299999999997
 10
1154.011
 20
348.86199999999997
 10
1154.011
 20
351.01
 10
1154.011
 20
353.159
 10
1154.011
 20
355.307
 10
1154.011
 20
357.456
 10
1154.011
 20
359.60400000000004
 10
1154.011
 20
361.75300000000004
 10
1154.011
 20
363.90100000000007
 10
1154.011
 20
366.049
 10
1154.011
 20
368.198
 10
1154.011
 20
370.346
 10
1154.011
 20
372.495
 10
1154.011
 20
374.64300000000003
 10
1154.011
 20
376.79200000000003
 10
1154.011
 20
378.94000000000005
 10
1154.011
 20
381.08900000000006
 10
1154.011
 20
383.23699999999997
 10
1154.011
 20
385.385
 10
1154.011
 20
387.534
 10
1154.011
 20
389.682
 10
1154.011
 20
391.831
 10
1154.011
 20
393.97900000000004
 10
1154.011
 20
396.12800000000004
 10
1154.011
 20
398.27600000000007
 10
1154.011
 20
400.424
 10
1154.011
 20
402.573
 10
1154.011
 20
404.721
 10
1154.011
 20
406.87
 10
1154.011
 20
409.01800000000003
 10
1154.011
 20
411.16700000000003
 10
1154.011
 20
413.31500000000005
 10
1154.011
 20
415.46400000000006
 10
1154.011
 20
417.61199999999997
 10
1154.011
 20
419.76
 10
1154.011
 20
421.909
 10
1154.011
 20
424.057
 10
1154.011
 20
426.206
 10
1154.011
 20
428.35400000000004
 10
1154.011
 20
430.50300000000004
 10
1154.011
 20
432.65100000000007
 10
1154.011
 20
434.80000000000007
 10
1154.011
 20
436.948
 10
1154.011
 20
439.096
 10
1154.011
 20
441.245
 10
1154.011
 20
443.39300000000003
 10
1154.011
 20
445.54200000000003
 10
1154.011
 20
447.69000000000005
 10
1154.011
 20
449.83900000000006
 10
1154.011
 20
451.98699999999997
 10
1154.011
 20
454.13599999999997
 10
1154.011
 20
456.284
 10
1154.011
 20
458.432
 10
1154.011
 20
460.581
 10
1154.011
 20
462.72900000000004
 10
1154.011
 20
464.87800000000004
 10
1154.011
 20
467.02600000000007
 10
1154.011
 20
469.17500000000007
 10
1154.011
 20
471.323
 10
1154.011
 20
473.471
 10
1154.011
 20
475.62
 10
1154.011
 20
477.76800000000003
 10
1154.011
 20
479.91700000000003
 10
1154.011
 20
482.06500000000005
 10
1154.011
 20
486.36199999999997
 10
1154.011
 20
488.51099999999997
 10
1154.011
 20
490.659
 10
1154.011
 20
492.807
 10
1154.011
 20
494.956
 10
1154.011
 20
497.10400000000004
 10
1154.011
 20
499.25300000000004
 10
1154.011
 20
501.40100000000007
 10
1154.011
 20
503.55000000000007
 10
1154.011
 20
505.698
 10
1154.011
 20
507.847
 10
1154.011
 20
509.995
 10
1154.011
 20
512.143
 10
1154.011
 20
514.292
 10
1154.011
 20
516.44
 10
1154.011
 20
518.589
 10
1154.011
 20
520.737
 10
1154.011
 20
522.886
 10
1154.011
 20
525.034
 10
1154.011
 20
527.183
 10
1154.011
 20
529.331
 10
1154.011
 20
531.479
 10
1154.011
 20
533.628
 10
1154.011
 20
535.7760000000001
 10
1154.011
 20
537.9250000000001
 10
1154.011
 20
540.073
 10
1154.011
 20
542.222
 10
1154.011
 20
544.37
 10
1154.011
 20
546.518
 10
1154.011
 20
548.667
 10
1154.011
 20
550.815
 10
1154.011
 20
552.964
 10
1154.011
 20
555.112
 10
1154.011
 20
557.261
 10
1154.011
 20
559.409
 10
1154.011
 20
563.706
 10
1154.011
 20
565.854
 10
1154.011
 20
568.003
 10
1154.011
 20
570.1510000000001
 10
1154.011
 20
572.3000000000001
 10
1154.011
 20
574.448
 10
1154.011
 20
576.597
 10
1154.011
 20
578.745
 10
1154.011
 20
580.894
 10
1154.011
 20
583.042
 10
1154.011
 20
585.19
 10
1154.011
 20
587.339
 10
1154.011
 20
589.487
 10
1154.011
 20
591.636
 10
1154.011
 20
593.784
 10
1154.011
 20
595.933
 10
1154.011
 20
598.081
 10
1154.011
 20
600.23
 10
1154.011
 20
602.378
 10
1154.011
 20
606.6750000000001
 10
1154.011
 20
608.823
 10
1154.011
 20
610.972
 10
1154.011
 20
613.12
 10
1154.011
 20
615.269
 10
1154.011
 20
617.417
 10
1154.011
 20
619.566
 10
1154.011
 20
621.714
 10
1154.011
 20
623.862
 10
1154.011
 20
626.011
 10
1154.011
 20
628.159
 10
1154.011
 20
630.308
 10
1154.011
 20
632.456
 10
1154.011
 20
634.605
 10
1154.011
 20
636.753
 10
1154.011
 20
638.902
 10
1154.011
 20
641.0500000000001
 10
1154.011
 20
643.198
 10
1154.011
 20
645.347
 10
1154.011
 20
647.495
 10
1154.011
 20
649.644
 10
1154.011
 20
651.792
 10
1154.011
 20
653.941
 10
1154.011
 20
656.089
 10
1154.011
 20
658.238
 10
1154.011
 20
660.386
 10
1154.011
 20
662.534
 10
1154.011
 20
664.683
 10
1154.011
 20
666.831
 10
1154.011
 20
668.98
 10
1154.011
 20
671.128
 10
1154.011
 20
673.277
 10
1154.011
 20
675.4250000000001
 10
1154.011
 20
677.5740000000001
 10
1154.011
 20
679.722
 10
1154.011
 20
681.87
 10
1154.011
 20
684.019
 10
1154.011
 20
686.167
 10
1154.011
 20
688.316
 10
1154.011
 20
690.464
 10
1154.011
 20
692.613
 10
1154.011
 20
694.761
 10
1154.011
 20
696.91
 10
1154.011
 20
699.058
 10
1154.011
 20
701.206
 10
1154.011
 20
703.355
 10
1154.011
 20
705.503
 10
1154.011
 20
707.652
 10
1154.011
 20
709.8000000000001
 10
1154.011
 20
711.9490000000001
 10
1154.011
 20
714.097
 10
1154.011
 20
716.245
 10
1154.011
 20
718.394
 10
1154.011
 20
720.542
 10
1154.011
 20
722.691
 10
1154.011
 20
726.988
 10
1154.011
 20
729.136
 10
1154.011
 20
731.285
 10
1154.011
 20
733.433
 10
1154.011
 20
735.581
 10
1154.011
 20
737.73
 10
1154.011
 20
739.878
 10
1154.011
 20
742.027
 10
1154.011
 20
744.1750000000001
 10
1154.011
 20
746.3240000000001
 10
1154.011
 20
748.472
 10
1154.011
 20
750.621
 10
1154.011
 20
752.769
 10
1154.011
 20
754.917
 10
1154.011
 20
757.066
 10
1154.011
 20
759.214
 10
1154.011
 20
761.363
 10
1154.011
 20
763.511
 10
1154.011
 20
765.66
 10
1154.011
 20
769.956
 10
1154.011
 20
772.105
 10
1154.011
 20
774.253
 10
1154.011
 20
776.402
 10
1154.011
 20
778.5500000000001
 10
1154.011
 20
780.6990000000001
 10
1154.011
 20
782.847
 10
1154.011
 20
784.996
 10
1154.011
 20
787.144
 10
1154.011
 20
789.293
 10
1154.011
 20
791.441
 10
1154.011
 20
793.589
 10
1154.011
 20
795.738
 10
1154.011
 20
797.886
 10
1154.011
 20
800.035
 10
1154.011
 20
802.183
 10
1154.011
 20
804.332
 10
1154.011
 20
806.48
 10
1154.011
 20
808.628
 10
1154.011
 20
810.777
 10
1154.011
 20
812.9250000000001
 10
1154.011
 20
815.0740000000001
 10
1154.011
 20
817.222
 10
1154.011
 20
819.371
 10
1154.011
 20
821.519
 10
1154.011
 20
823.668
 10
1154.011
 20
825.816
 10
1154.011
 20
827.9639999999999
 10
1154.011
 20
830.113
 10
1154.011
 20
832.261
 10
1154.011
 20
834.4100000000001
 10
1154.011
 20
836.558
 10
1154.011
 20
838.707
 10
1154.011
 20
840.855
 10
1154.011
 20
843.004
 10
1154.011
 20
845.152
 10
1154.011
 20
847.3
 10
1154.011
 20
849.4490000000001
 10
1154.011
 20
851.597
 10
1154.011
 20
853.7460000000001
 10
1154.011
 20
855.894
 10
1154.011
 20
858.043
 10
1154.011
 20
862.34
 10
1154.011
 20
864.488
 10
1154.011
 20
866.636
 10
1154.011
 20
868.7850000000001
 10
1154.011
 20
870.933
 10
1154.011
 20
873.082
 10
1154.011
 20
875.23
 10
1154.011
 20
877.379
 10
1154.011
 20
879.527
 10
1154.011
 20
881.676
 10
1154.011
 20
883.8240000000001
 10
1154.011
 20
885.972
 10
1154.011
 20
888.1210000000001
 10
1154.011
 20
890.269
 10
1154.011
 20
892.418
 10
1154.011
 20
894.566
 10
1154.011
 20
896.715
 10
1154.011
 20
898.863
 10
1154.011
 20
901.011
 10
1154.011
 20
903.1600000000001
 10
1154.011
 20
905.308
 10
1154.011
 20
907.457
 10
1154.011
 20
909.605
 10
1154.011
 20
911.754
 10
1154.011
 20
913.902
 10
1154.011
 20
916.051
 10
1154.011
 20
918.1990000000001
 10
1154.011
 20
920.347
 10
1154.011
 20
922.4960000000001
 10
1154.011
 20
924.644
 10
1154.01
 20
926.793
 10
1154.01
 20
928.941
 10
1154.01
 20
931.09
 10
1154.01
 20
933.238
 10
1154.01
 20
935.386
 10
1154.01
 20
937.5350000000001
 10
1154.01
 20
939.683
 10
1154.01
 20
941.832
 10
1154.01
 20
943.98
 10
1154.01
 20
946.129
 10
1154.01
 20
948.277
 10
1154.01
 20
950.426
 10
1154.01
 20
952.5740000000001
 10
1154.01
 20
954.722
 10
1154.01
 20
956.8710000000001
 10
1154.01
 20
959.019
 10
1154.01
 20
961.168
 10
1154.01
 20
963.316
 10
1154.01
 20
965.465
 10
1154.01
 20
967.613
 10
1154.01
 20
969.762
 10
1154.01
 20
971.9100000000001
 10
1154.01
 20
974.058
 10
1154.01
 20
976.207
 10
1154.01
 20
978.355
 10
1154.01
 20
980.504
 10
1154.01
 20
982.652
 10
1154.01
 20
984.801
 10
1154.01
 20
986.9490000000001
 10
1154.01
 20
989.098
 10
1154.01
 20
991.2460000000001
 10
1154.01
 20
993.394
 10
1154.01
 20
995.543
 10
1154.01
 20
997.691
 10
1154.01
 20
999.84
 10
1154.01
 20
1001.988
 10
1154.01
 20
1004.137
 10
1154.01
 20
1006.2850000000001
 10
1154.01
 20
1010.582
 10
1154.01
 20
1012.73
 10
1154.01
 20
1014.879
 10
1154.01
 20
1017.027
 10
1154.01
 20
1019.176
 10
1154.01
 20
1021.3240000000001
 10
1154.01
 20
1023.473
 10
1154.01
 20
1025.621
 10
1154.01
 20
1027.77
 10
1154.01
 20
1029.9180000000001
 10
1154.01
 20
1032.066
 10
1154.01
 20
1034.2150000000001
 10
1154.01
 20
1036.363
 10
1154.01
 20
1038.512
 10
1154.01
 20
1040.66
 10
1154.01
 20
1042.809
 10
1154.01
 20
1044.9569999999999
 10
1154.01
 20
1047.106
 10
1154.01
 20
1049.254
 10
1154.01
 20
1051.402
 10
1154.01
 20
1053.551
 10
1154.01
 20
1055.699
 10
1154.01
 20
1057.848
 10
1154.01
 20
1059.996
 10
1154.01
 20
1062.145
 10
1154.01
 20
1064.2930000000001
 10
1154.01
 20
1066.442
 10
1154.01
 20
1068.5900000000001
 10
1154.01
 20
1072.887
 10
1154.01
 20
1075.035
 10
1154.01
 20
1077.184
 10
1154.01
 20
1079.3319999999999
 10
1154.01
 20
1081.481
 10
1154.01
 20
1083.629
 10
1154.01
 20
1085.777
 10
1154.01
 20
1087.926
 10
1154.01
 20
1090.074
 10
1154.01
 20
1092.223
 10
1154.01
 20
1094.371
 10
1154.01
 20
1096.52
 10
1154.01
 20
1098.6680000000001
 10
1154.01
 20
1100.817
 10
1154.01
 20
1102.9650000000001
 10
1154.01
 20
1105.113
 10
1154.01
 20
1107.262
 10
1154.01
 20
1109.41
 10
1154.01
 20
1111.559
 10
1154.01
 20
1113.707
 10
1154.01
 20
1115.856
 10
1154.01
 20
1118.004
 10
1154.01
 20
1120.153
 10
1154.01
 20
1122.301
 10
1154.01
 20
1124.449
 10
1154.01
 20
1126.598
 10
1154.01
 20
1128.746
 10
1154.01
 20
1130.895
 10
1154.01
 20
1133.0430000000001
 10
1154.01
 20
1135.192
 10
1154.01
 20
1137.3400000000001
 10
1154.01
 20
1139.489
 10
1154.01
 20
1141.637
 10
1154.01
 20
1143.785
 10
1154.01
 20
1145.934
 10
1154.01
 20
1148.082
 10
1154.01
 20
1150.231
 10
1154.01
 20
1152.379
 10
1154.01
 20
1154.528
 10
1154.01
 20
1156.676
 10
1154.01
 20
1158.825
 10
1154.01
 20
1160.973
 10
1154.01
 20
1163.121
 10
1154.01
 20
1165.27
 10
1154.01
 20
1167.4180000000001
 10
1154.01
 20
1169.567
 10
1154.01
 20
1171.7150000000001
 10
1154.01
 20
1173.864
 10
1154.01
 20
1176.012
 10
1154.01
 20
1178.161
 10
1154.01
 20
1180.309
 10
1154.01
 20
1182.457
 10
1154.01
 20
1184.606
 10
1154.01
 20
1188.903
 10
1154.01
 20
1191.051
 10
1154.01
 20
1193.2
 10
1154.01
 20
1195.348
 10
1154.01
 20
1197.497
 10
1154.01
 20
1199.645
 10
1154.01
 20
1201.7930000000001
 10
1154.01
 20
1203.942
 10
1154.01
 20
1206.0900000000001
 10
1154.01
 20
1208.239
 10
1154.01
 20
1210.387
 10
1154.01
 20
1212.536
 10
1154.01
 20
1214.684
 10
1154.01
 20
1216.832
 10
1154.01
 20
1218.981
 10
1154.01
 20
1221.129
 10
1154.01
 20
1223.278
 10
1154.01
 20
1225.426
 10
1154.01
 20
1227.575
 10
1154.01
 20
1229.723
 10
1154.01
 20
1231.872
 10
1154.01
 20
1234.02
 10
1154.01
 20
1236.169
 10
1154.01
 20
1238.317
 10
1154.01
 20
1240.465
 10
1154.01
 20
1242.614
 10
1154.01
 20
1244.762
 10
1154.01
 20
1246.911
 10
1154.01
 20
1249.059
 10
1154.01
 20
1251.208
 10
1154.01
 20
1253.356
 10
1154.01
 20
1255.504
 10
1154.01
 20
1257.653
 10
1154.01
 20
1259.801
 10
1154.01
 20
1261.95
 10
1154.01
 20
1264.098
 10
1154.01
 20
1266.247
 10
1154.01
 20
1268.395
 10
1154.01
 20
1270.544
 10
1154.01
 20
1272.692
 10
1154.01
 20
1274.84
 10
1154.01
 20
1276.989
 10
1154.01
 20
1279.137
 10
1154.01
 20
1281.286
 10
1154.01
 20
1283.434
 10
1154.01
 20
1285.583
 10
1154.01
 20
1287.731
 10
1154.01
 20
1289.88
 10
1154.01
 20
1292.028
 10
1154.01
 20
1294.176
 10
1154.01
 20
1296.325
 10
1154.01
 20
1298.473
 10
1154.01
 20
1300.622
 10
1154.01
 20
1302.77
 10
1154.01
 20
1304.919
 10
1154.01
 20
1309.2160000000001
 10
1154.01
 20
1311.364
 10
1154.01
 20
1313.512
 10
1154.01
 20
1315.661
 10
1154.01
 20
1317.809
 10
1154.01
 20
1319.958
 10
1154.01
 20
1322.106
 10
1154.01
 20
1324.255
 10
1154.01
 20
1326.403
 10
1153.962
 20
1327.383
 10
1153.818
 20
1328.354
 10
1153.579
 20
1329.306
 10
1153.249
 20
1330.23
 10
1152.829
 20
1331.117
 10
1152.325
 20
1331.959
 10
1151.74
 20
1332.747
 10
1151.081
 20
1333.474
 10
1150.354
 20
1334.133
 10
1149.566
 20
1334.718
 10
1148.724
 20
1335.222
 10
1147.837
 20
1335.642
 10
1146.913
 20
1335.972
 10
1145.961
 20
1336.211
 10
1144.99
 20
1336.355
 10
1144.01
 20
1336.403
 10
1126.01
 20
1336.403
 10
1125.03
 20
1336.355
 10
1124.059
 20
1336.211
 10
1123.107
 20
1335.972
 10
1122.183
 20
1335.642
 10
1121.296
 20
1335.222
 10
1120.454
 20
1334.718
 10
1119.666
 20
1334.133
 10
1118.939
 20
1333.474
 10
1118.28
 20
1332.747
 10
1117.695
 20
1331.959
 10
1117.191
 20
1331.117
 10
1116.771
 20
1330.23
 10
1116.441
 20
1329.306
 10
1116.202
 20
1328.354
 10
1116.058
 20
1327.383
 10
1116.01
 20
1326.403
 10
1116.01
 20
1324.255
 10
1116.01
 20
1322.106
 10
1116.01
 20
1319.958
 10
1116.01
 20
1311.364
 10
1116.01
 20
1309.2160000000001
 10
1116.01
 20
1304.919
 10
1116.01
 20
1302.77
 10
1116.01
 20
1298.473
 10
1116.01
 20
1296.325
 10
1116.01
 20
1294.176
 10
1116.01
 20
1292.028
 10
1116.01
 20
1289.88
 10
1116.01
 20
1287.731
 10
1116.01
 20
1285.583
 10
1116.01
 20
1283.434
 10
1116.01
 20
1281.286
 10
1116.01
 20
1279.137
 10
1116.01
 20
1276.989
 10
1116.01
 20
1274.84
 10
1116.01
 20
1272.692
 10
1116.01
 20
1270.544
 10
1116.01
 20
1268.395
 10
1116.01
 20
1266.247
 10
1116.01
 20
1264.098
 10
1116.01
 20
1261.95
 10
1116.01
 20
1259.801
 10
1116.01
 20
1257.653
 10
1116.01
 20
1253.356
 10
1116.01
 20
1251.208
 10
1116.01
 20
1246.911
 10
1116.01
 20
1244.762
 10
1116.01
 20
1242.614
 10
1116.01
 20
1240.465
 10
1116.01
 20
1238.317
 10
1116.01
 20
1236.1680000000001
 10
1116.01
 20
1234.02
 10
1116.01
 20
1229.723
 10
1116.01
 20
1227.575
 10
1116.01
 20
1225.426
 10
1116.01
 20
1221.129
 10
1116.01
 20
1218.981
 10
1116.01
 20
1216.832
 10
1116.01
 20
1214.684
 10
1116.01
 20
1212.536
 10
1116.01
 20
1210.387
 10
1116.01
 20
1208.239
 10
1116.01
 20
1201.7930000000001
 10
1116.01
 20
1199.645
 10
1116.01
 20
1197.496
 10
1116.01
 20
1195.348
 10
1116.01
 20
1193.2
 10
1116.01
 20
1191.051
 10
1116.01
 20
1188.903
 10
1116.01
 20
1184.606
 10
1116.01
 20
1182.457
 10
1116.01
 20
1178.161
 10
1116.01
 20
1176.012
 10
1116.01
 20
1171.7150000000001
 10
1116.01
 20
1169.567
 10
1116.01
 20
1167.4180000000001
 10
1116.01
 20
1165.27
 10
1116.01
 20
1163.121
 10
1116.01
 20
1160.973
 10
1116.01
 20
1158.824
 10
1116.01
 20
1156.676
 10
1116.01
 20
1152.379
 10
1116.01
 20
1150.231
 10
1116.01
 20
1148.082
 10
1116.01
 20
1145.934
 10
1116.01
 20
1143.785
 10
1116.01
 20
1141.637
 10
1116.01
 20
1139.489
 10
1116.01
 20
1137.3400000000001
 10
1116.01
 20
1133.0430000000001
 10
1116.01
 20
1130.895
 10
1116.01
 20
1128.746
 10
1116.01
 20
1126.598
 10
1116.01
 20
1124.449
 10
1116.01
 20
1122.301
 10
1116.01
 20
1120.153
 10
1116.01
 20
1118.004
 10
1116.01
 20
1115.856
 10
1116.01
 20
1113.707
 10
1116.01
 20
1111.559
 10
1116.01
 20
1109.41
 10
1116.01
 20
1107.262
 10
1116.01
 20
1105.113
 10
1116.01
 20
1102.9650000000001
 10
1116.01
 20
1100.817
 10
1116.01
 20
1098.6680000000001
 10
1116.01
 20
1096.52
 10
1116.01
 20
1092.223
 10
1116.01
 20
1090.074
 10
1116.01
 20
1087.926
 10
1116.01
 20
1085.777
 10
1116.01
 20
1083.629
 10
1116.01
 20
1081.481
 10
1116.01
 20
1079.3319999999999
 10
1116.01
 20
1077.184
 10
1116.01
 20
1075.035
 10
1116.01
 20
1072.887
 10
1116.01
 20
1068.5900000000001
 10
1116.01
 20
1066.441
 10
1116.01
 20
1064.2930000000001
 10
1116.01
 20
1062.145
 10
1116.01
 20
1057.848
 10
1116.01
 20
1055.699
 10
1116.01
 20
1049.254
 10
1116.01
 20
1047.106
 10
1116.01
 20
1044.9569999999999
 10
1116.01
 20
1042.809
 10
1116.01
 20
1040.66
 10
1116.01
 20
1038.512
 10
1116.01
 20
1036.363
 10
1116.01
 20
1034.2150000000001
 10
1116.01
 20
1032.066
 10
1116.01
 20
1029.9180000000001
 10
1116.01
 20
1027.769
 10
1116.01
 20
1025.621
 10
1116.01
 20
1023.473
 10
1116.01
 20
1021.3240000000001
 10
1116.01
 20
1019.176
 10
1116.01
 20
1017.027
 10
1116.01
 20
1014.879
 10
1116.01
 20
1012.73
 10
1116.01
 20
1010.582
 10
1116.01
 20
1006.2850000000001
 10
1116.01
 20
1004.137
 10
1116.01
 20
999.84
 10
1116.01
 20
997.691
 10
1116.01
 20
995.543
 10
1116.01
 20
993.394
 10
1116.01
 20
991.2460000000001
 10
1116.01
 20
989.098
 10
1116.01
 20
986.9490000000001
 10
1116.01
 20
984.801
 10
1116.01
 20
980.504
 10
1116.01
 20
978.355
 10
1116.01
 20
976.207
 10
1116.01
 20
974.058
 10
1116.01
 20
971.9100000000001
 10
1116.01
 20
969.762
 10
1116.01
 20
967.613
 10
1116.01
 20
965.465
 10
1116.01
 20
963.316
 10
1116.01
 20
961.168
 10
1116.01
 20
959.019
 10
1116.01
 20
954.722
 10
1116.01
 20
952.5740000000001
 10
1116.01
 20
948.277
 10
1116.01
 20
946.129
 10
1116.01
 20
943.98
 10
1116.01
 20
941.832
 10
1116.01
 20
939.683
 10
1116.01
 20
937.5350000000001
 10
1116.01
 20
935.386
 10
1116.01
 20
933.238
 10
1116.01
 20
928.941
 10
1116.01
 20
926.793
 10
1116.01
 20
922.4960000000001
 10
1116.01
 20
920.347
 10
1116.01
 20
918.1990000000001
 10
1116.01
 20
916.051
 10
1116.01
 20
913.902
 10
1116.011
 20
911.754
 10
1116.011
 20
909.605
 10
1116.011
 20
907.457
 10
1116.011
 20
903.1600000000001
 10
1116.011
 20
901.011
 10
1116.011
 20
898.863
 10
1116.011
 20
896.715
 10
1116.011
 20
894.566
 10
1116.011
 20
892.418
 10
1116.011
 20
890.269
 10
1116.011
 20
888.1210000000001
 10
1116.011
 20
885.972
 10
1116.011
 20
883.8240000000001
 10
1116.011
 20
881.675
 10
1116.011
 20
875.23
 10
1116.011
 20
873.082
 10
1116.011
 20
870.933
 10
1116.011
 20
868.7850000000001
 10
1116.011
 20
866.636
 10
1116.011
 20
864.488
 10
1116.011
 20
862.34
 10
1116.011
 20
860.191
 10
1116.011
 20
858.043
 10
1116.011
 20
855.894
 10
1116.011
 20
853.7460000000001
 10
1116.011
 20
851.597
 10
1116.011
 20
849.4490000000001
 10
1116.011
 20
845.152
 10
1116.011
 20
843.004
 10
1116.011
 20
840.855
 10
1116.011
 20
838.707
 10
1116.011
 20
836.558
 10
1116.011
 20
834.4100000000001
 10
1116.011
 20
832.261
 10
1116.011
 20
830.113
 10
1116.011
 20
827.9639999999999
 10
1116.011
 20
825.816
 10
1116.011
 20
823.668
 10
1116.011
 20
821.519
 10
1116.011
 20
819.371
 10
1116.011
 20
817.222
 10
1116.011
 20
815.0740000000001
 10
1116.011
 20
812.9250000000001
 10
1116.011
 20
808.628
 10
1116.011
 20
806.48
 10
1116.011
 20
804.332
 10
1116.011
 20
802.183
 10
1116.011
 20
800.035
 10
1116.011
 20
797.886
 10
1116.011
 20
795.738
 10
1116.011
 20
789.292
 10
1116.011
 20
787.144
 10
1116.011
 20
782.847
 10
1116.011
 20
780.6990000000001
 10
1116.011
 20
774.253
 10
1116.011
 20
772.105
 10
1116.011
 20
769.956
 10
1116.011
 20
765.66
 10
1116.011
 20
763.511
 10
1116.011
 20
761.363
 10
1116.011
 20
759.214
 10
1116.011
 20
757.066
 10
1116.011
 20
754.917
 10
1116.011
 20
752.769
 10
1116.011
 20
750.62
 10
1116.011
 20
748.472
 10
1116.011
 20
746.3240000000001
 10
1116.011
 20
744.1750000000001
 10
1116.011
 20
739.878
 10
1116.011
 20
737.73
 10
1116.011
 20
735.581
 10
1116.011
 20
731.285
 10
1116.011
 20
729.136
 10
1116.011
 20
726.988
 10
1116.011
 20
722.691
 10
1116.011
 20
720.542
 10
1116.011
 20
718.394
 10
1116.011
 20
714.097
 10
1116.011
 20
711.9490000000001
 10
1116.011
 20
709.8000000000001
 10
1116.011
 20
707.652
 10
1116.011
 20
705.503
 10
1116.011
 20
696.909
 10
1116.011
 20
694.761
 10
1116.011
 20
692.613
 10
1116.011
 20
688.316
 10
1116.011
 20
686.167
 10
1116.011
 20
684.019
 10
1116.011
 20
679.722
 10
1116.011
 20
677.573
 10
1116.011
 20
675.4250000000001
 10
1116.011
 20
673.277
 10
1116.011
 20
671.128
 10
1116.011
 20
668.98
 10
1116.011
 20
666.831
 10
1116.011
 20
662.534
 10
1116.011
 20
660.386
 10
1116.011
 20
658.237
 10
1116.011
 20
653.941
 10
1116.011
 20
651.792
 10
1116.011
 20
649.644
 10
1116.011
 20
645.347
 10
1116.011
 20
643.198
 10
1116.011
 20
641.0500000000001
 10
1116.011
 20
636.753
 10
1116.011
 20
634.605
 10
1116.011
 20
632.456
 10
1116.011
 20
630.308
 10
1116.011
 20
628.159
 10
1116.011
 20
623.862
 10
1116.011
 20
621.714
 10
1116.011
 20
619.566
 10
1116.011
 20
617.417
 10
1116.011
 20
615.269
 10
1116.011
 20
610.972
 10
1116.011
 20
608.823
 10
1116.011
 20
606.6750000000001
 10
1116.011
 20
602.378
 10
1116.011
 20
600.23
 10
1116.011
 20
598.081
 10
1116.011
 20
593.784
 10
1116.011
 20
591.636
 10
1116.011
 20
589.487
 10
1116.011
 20
587.339
 10
1116.011
 20
585.19
 10
1116.011
 20
583.042
 10
1116.011
 20
580.894
 10
1116.011
 20
578.745
 10
1116.011
 20
576.597
 10
1116.011
 20
572.3000000000001
 10
1116.011
 20
570.1510000000001
 10
1116.011
 20
568.003
 10
1116.011
 20
565.854
 10
1116.011
 20
563.706
 10
1116.011
 20
559.409
 10
1116.011
 20
557.261
 10
1116.011
 20
555.112
 10
1116.011
 20
552.964
 10
1116.011
 20
550.815
 10
1116.011
 20
548.667
 10
1116.011
 20
546.518
 10
1116.011
 20
542.222
 10
1116.011
 20
540.073
 10
1116.011
 20
537.9250000000001
 10
1116.011
 20
533.628
 10
1116.011
 20
531.479
 10
1116.011
 20
529.331
 10
1116.011
 20
527.182
 10
1116.011
 20
525.034
 10
1116.011
 20
520.737
 10
1116.011
 20
518.589
 10
1116.011
 20
516.44
 10
1116.011
 20
514.292
 10
1116.011
 20
512.143
 10
1116.011
 20
507.847
 10
1116.011
 20
505.698
 10
1116.011
 20
503.55000000000007
 10
1116.011
 20
501.40100000000007
 10
1116.011
 20
499.25300000000004
 10
1116.011
 20
490.659
 10
1116.011
 20
488.51099999999997
 10
1116.011
 20
484.21400000000006
 10
1116.011
 20
482.06500000000005
 10
1116.011
 20
479.91700000000003
 10
1116.011
 20
477.76800000000003
 10
1116.011
 20
471.323
 10
1116.011
 20
469.17500000000007
 10
1116.011
 20
467.02600000000007
 10
1116.011
 20
464.87800000000004
 10
1116.011
 20
462.72900000000004
 10
1116.011
 20
460.581
 10
1116.011
 20
458.432
 10
1116.011
 20
456.284
 10
1116.011
 20
447.69000000000005
 10
1116.011
 20
445.54200000000003
 10
1116.011
 20
439.096
 10
1116.011
 20
436.948
 10
1116.011
 20
434.799
 10
1116.011
 20
432.65100000000007
 10
1116.011
 20
430.50300000000004
 10
1116.011
 20
428.35400000000004
 10
1116.011
 20
419.76
 10
1116.011
 20
417.61199999999997
 10
1116.011
 20
415.46400000000006
 10
1116.011
 20
413.31500000000005
 10
1116.011
 20
409.01800000000003
 10
1116.011
 20
406.87
 10
1116.011
 20
402.573
 10
1116.011
 20
400.424
 10
1116.011
 20
398.27600000000007
 10
1116.011
 20
396.12800000000004
 10
1116.011
 20
393.97900000000004
 10
1116.011
 20
391.831
 10
1116.011
 20
389.682
 10
1116.011
 20
387.534
 10
1116.011
 20
378.94000000000005
 10
1116.011
 20
376.79200000000003
 10
1116.011
 20
370.346
 10
1116.011
 20
368.198
 10
1116.011
 20
366.049
 10
1116.011
 20
357.456
 10
1116.011
 20
355.307
 10
1116.011
 20
346.71299999999997
 10
1116.011
 20
344.56500000000005
 10
1116.011
 20
338.12
 10
1116.011
 20
335.971
 10
1116.011
 20
333.823
 10
1116.011
 20
331.674
 10
1116.011
 20
327.3770000000002
 10
1116.011
 20
325.22900000000004
 10
1116.011
 20
323.0809999999999
 10
1116.011
 20
320.932
 10
1116.011
 20
312.33799999999997
 10
1116.011
 20
310.19000000000005
 10
1116.011
 20
303.7450000000001
 10
1116.011
 20
301.596
 10
1116.011
 20
299.4480000000001
 10
1116.011
 20
295.15100000000007
 10
1116.011
 20
293.00199999999995
 10
1116.011
 20
290.85400000000004
 10
1116.011
 20
288.7049999999999
 10
1116.011
 20
284.4090000000001
 10
1116.011
 20
282.26
 10
1116.011
 20
280.1120000000001
 10
1116.011
 20
275.81500000000005
 10
1116.011
 20
273.66599999999994
 10
1116.011
 20
269.3689999999999
 10
1116.011
 20
267.221
 10
1116.011
 20
262.924
 10
1116.011
 20
260.77600000000007
 10
1116.011
 20
258.62699999999995
 10
1116.011
 20
256.47900000000004
 10
1116.011
 20
254.32999999999993
 10
1116.011
 20
252.18200000000002
 10
1116.011
 20
250.03300000000013
 10
1116.011
 20
247.885
 10
1116.011
 20
245.73700000000008
 10
1116.011
 20
243.58799999999997
 10
1116.011
 20
241.44000000000005
 10
1116.011
 20
239.29099999999994
 10
1116.011
 20
237.14300000000003
 10
1116.011
 20
234.99399999999991
 10
1116.011
 20
232.846
 10
1116.011
 20
230.69700000000012
 10
1116.011
 20
228.54899999999998
 10
1116.011
 20
226.40100000000007
 10
1116.059
 20
225.42000000000007
 10
1116.203
 20
224.45000000000005
 10
1116.442
 20
223.49800000000005
 10
1116.773
 20
222.57400000000007
 10
1117.192
 20
221.68700000000013
 10
1117.697
 20
220.84500000000003
 10
1118.281
 20
220.05700000000002
 10
1118.94
 20
219.32999999999993
 10
1119.667
 20
218.67000000000007
 10
1120.456
 20
218.086
 10
1121.297
 20
217.58100000000013
 10
1122.185
 20
217.16200000000003
 10
1123.109
 20
216.83100000000013
 10
1124.06
 20
216.59300000000007
 10
1125.031
 20
216.44900000000007
 10
1126.011
 20
216.40100000000007
 10
1128.261
 20
216.40100000000007
 10
1130.511
 20
216.40100000000007
 10
1132.761
 20
216.40100000000007
 10
1135.011
 20
216.40100000000007
 10
1137.261
 20
216.40100000000007
 10
1139.511
 20
216.40100000000007
  0
LWPOLYLINE
  5
9A
330
17
100
AcDbEntity
  8
STITCH
100
AcDbPolyline
 90
1040
 70
1
 10
1141.761
 20
226.40100000000007
 10
1139.511
 20
226.40100000000007
 10
1137.261
 20
226.40100000000007
 10
1135.011
 20
226.40100000000007
 10
1132.761
 20
226.40100000000007
 10
1130.511
 20
226.40100000000007
 10
1128.261
 20
226.40100000000007
 10
1126.011
 20
226.40100000000007
 10
1126.011
 20
228.54899999999998
 10
1126.011
 20
230.69700000000012
 10
1126.011
 20
232.846
 10
1126.011
 20
234.99399999999991
 10
1126.011
 20
237.14300000000003
 10
1126.011
 20
239.29099999999994
 10
1126.011
 20
241.44000000000005
 10
1126.011
 20
243.58799999999997
 10
1126.011
 20
245.73700000000008
 10
1126.011
 20
247.885
 10
1126.011
 20
250.03300000000013
 10
1126.011
 20
252.18200000000002
 10
1126.011
 20
254.32999999999993
 10
1126.011
 20
256.47900000000004
 10
1126.011
 20
258.62699999999995
 10
1126.011
 20
260.77600000000007
 10
1126.011
 20
262.924
 10
1126.011
 20
265.0730000000001
 10
1126.011
 20
267.221
 10
1126.011
 20
269.3689999999999
 10
1126.011
 20
271.51800000000003
 10
1126.011
 20
273.66599999999994
 10
1126.011
 20
275.81500000000005
 10
1126.011
 20
277.96299999999997
 10
1126.011
 20
280.1120000000001
 10
1126.011
 20
282.26
 10
1126.011
 20
284.4090000000001
 10
1126.011
 20
286.557
 10
1126.011
 20
288.7049999999999
 10
1126.011
 20
290.85400000000004
 10
1126.011
 20
293.00199999999995
 10
1126.011
 20
295.15100000000007
 10
1126.011
 20
297.299
 10
1126.011
 20
299.4480000000001
 10
1126.011
 20
301.596
 10
1126.011
 20
303.7450000000001
 10
1126.011
 20
305.89300000000003
 10
1126.011
 20
308.04099999999994
 10
1126.011
 20
310.19000000000005
 10
1126.011
 20
312.33799999999997
 10
1126.011
 20
314.48699999999985
 10
1126.011
 20
316.635
 10
1126.011
 20
318.7839999999999
 10
1126.011
 20
320.932
 10
1126.011
 20
323.0809999999999
 10
1126.011
 20
325.22900000000004
 10
1126.011
 20
327.3770000000002
 10
1126.011
 20
329.52600000000007
 10
1126.011
 20
331.674
 10
1126.011
 20
333.823
 10
1126.011
 20
335.971
 10
1126.011
 20
338.12
 10
1126.011
 20
340.26800000000003
 10
1126.011
 20
342.41600000000005
 10
1126.011
 20
344.56500000000005
 10
1126.011
 20
346.71299999999997
 10
1126.011
 20
348.86199999999997
 10
1126.011
 20
351.01
 10
1126.011
 20
353.159
 10
1126.011
 20
355.307
 10
1126.011
 20
357.456
 10
1126.011
 20
359.60400000000004
 10
1126.011
 20
361.75200000000007
 10
1126.011
 20
363.90100000000007
 10
1126.011
 20
366.049
 10
1126.011
 20
368.198
 10
1126.011
 20
370.346
 10
1126.011
 20
372.495
 10
1126.011
 20
374.64300000000003
 10
1126.011
 20
376.79200000000003
 10
1126.011
 20
378.94000000000005
 10
1126.011
 20
381.08799999999997
 10
1126.011
 20
383.23699999999997
 10
1126.011
 20
385.385
 10
1126.011
 20
387.534
 10
1126.011
 20
389.682
 10
1126.011
 20
391.831
 10
1126.011
 20
393.97900000000004
 10
1126.011
 20
396.12800000000004
 10
1126.011
 20
398.27600000000007
 10
1126.011
 20
400.424
 10
1126.011
 20
402.573
 10
1126.011
 20
404.721
 10
1126.011
 20
406.87
 10
1126.011
 20
409.01800000000003
 10
1126.011
 20
411.16700000000003
 10
1126.011
 20
413.31500000000005
 10
1126.011
 20
415.46400000000006
 10
1126.011
 20
417.61199999999997
 10
1126.011
 20
419.76
 10
1126.011
 20
421.909
 10
1126.011
 20
424.057
 10
1126.011
 20
426.206
 10
1126.011
 20
428.35400000000004
 10
1126.011
 20
430.50300000000004
 10
1126.011
 20
432.65100000000007
 10
1126.011
 20
434.80000000000007
 10
1126.011
 20
436.948
 10
1126.011
 20
439.096
 10
1126.011
 20
441.245
 10
1126.011
 20
443.39300000000003
 10
1126.011
 20
445.54200000000003
 10
1126.011
 20
447.69000000000005
 10
1126.011
 20
449.83900000000006
 10
1126.011
 20
451.98699999999997
 10
1126.011
 20
454.135
 10
1126.011
 20
456.284
 10
1126.011
 20
458.432
 10
1126.011
 20
460.581
 10
1126.011
 20
462.72900000000004
 10
1126.011
 20
464.87800000000004
 10
1126.011
 20
467.02600000000007
 10
1126.011
 20
469.17500000000007
 10
1126.011
 20
471.323
 10
1126.011
 20
473.471
 10
1126.011
 20
475.62
 10
1126.011
 20
477.76800000000003
 10
1126.011
 20
479.91700000000003
 10
1126.011
 20
482.06500000000005
 10
1126.011
 20
484.21400000000006
 10
1126.011
 20
486.36199999999997
 10
1126.011
 20
488.51099999999997
 10
1126.011
 20
490.659
 10
1126.011
 20
492.807
 10
1126.011
 20
494.956
 10
1126.011
 20
497.10400000000004
 10
1126.011
 20
499.25300000000004
 10
1126.011
 20
501.40100000000007
 10
1126.011
 20
503.55000000000007
 10
1126.011
 20
505.698
 10
1126.011
 20
507.847
 10
1126.011
 20
509.995
 10
1126.011
 20
512.143
 10
1126.011
 20
514.292
 10
1126.011
 20
516.44
 10
1126.011
 20
518.589
 10
1126.011
 20
520.737
 10
1126.011
 20
522.886
 10
1126.011
 20
525.034
 10
1126.011
 20
527.183
 10
1126.011
 20
529.331
 10
1126.011
 20
531.479
 10
1126.011
 20
533.628
 10
1126.011
 20
535.7760000000001
 10
1126.011
 20
537.9250000000001
 10
1126.011
 20
540.073
 10
1126.011
 20
542.222
 10
1126.011
 20
544.37
 10
1126.011
 20
546.518
 10
1126.011
 20
548.667
 10
1126.011
 20
550.815
 10
1126.011
 20
552.964
 10
1126.011
 20
555.112
 10
1126.011
 20
557.261
 10
1126.011
 20
559.409
 10
1126.011
 20
561.558
 10
1126.011
 20
563.706
 10
1126.011
 20
565.854
 10
1126.011
 20
568.003
 10
1126.011
 20
570.1510000000001
 10
1126.011
 20
572.3000000000001
 10
1126.011
 20
574.448
 10
1126.011
 20
576.597
 10
1126.011
 20
578.745
 10
1126.011
 20
580.894
 10
1126.011
 20
583.042
 10
1126.011
 20
585.19
 10
1126.011
 20
587.339
 10
1126.011
 20
589.487
 10
1126.011
 20
591.636
 10
1126.011
 20
593.784
 10
1126.011
 20
595.933
 10
1126.011
 20
598.081
 10
1126.011
 20
600.23
 10
1126.011
 20
602.378
 10
1126.011
 20
604.5260000000001
 10
1126.011
 20
606.6750000000001
 10
1126.011
 20
608.823
 10
1126.011
 20
610.972
 10
1126.011
 20
613.12
 10
1126.011
 20
615.269
 10
1126.011
 20
617.417
 10
1126.011
 20
619.566
 10
1126.011
 20
621.714
 10
1126.011
 20
623.862
 10
1126.011
 20
626.011
 10
1126.011
 20
628.159
 10
1126.011
 20
630.308
 10
1126.011
 20
632.456
 10
1126.011
 20
634.605
 10
1126.011
 20
636.753
 10
1126.011
 20
638.902
 10
1126.011
 20
641.0500000000001
 10
1126.011
 20
643.198
 10
1126.011
 20
645.347
 10
1126.011
 20
647.495
 10
1126.011
 20
649.644
 10
1126.011
 20
651.792
 10
1126.011
 20
653.941
 10
1126.011
 20
656.089
 10
1126.011
 20
658.238
 10
1126.011
 20
660.386
 10
1126.011
 20
662.534
 10
1126.011
 20
664.683
 10
1126.011
 20
666.831
 10
1126.011
 20
668.98
 10
1126.011
 20
671.128
 10
1126.011
 20
673.277
 10
1126.011
 20
675.4250000000001
 10
1126.011
 20
677.5740000000001
 10
1126.011
 20
679.722
 10
1126.011
 20
681.87
 10
1126.011
 20
684.019
 10
1126.011
 20
686.167
 10
1126.011
 20
688.316
 10
1126.011
 20
690.464
 10
1126.011
 20
692.613
 10
1126.011
 20
694.761
 10
1126.011
 20
696.91
 10
1126.011
 20
699.058
 10
1126.011
 20
701.206
 10
1126.011
 20
703.355
 10
1126.011
 20
705.503
 10
1126.011
 20
707.652
 10
1126.011
 20
709.8000000000001
 10
1126.011
 20
711.9490000000001
 10
1126.011
 20
714.097
 10
1126.011
 20
716.245
 10
1126.011
 20
718.394
 10
1126.011
 20
720.542
 10
1126.011
 20
722.691
 10
1126.011
 20
724.839
 10
1126.011
 20
726.988
 10
1126.011
 20
729.136
 10
1126.011
 20
731.285
 10
1126.011
 20
733.433
 10
1126.011
 20
735.581
 10
1126.011
 20
737.73
 10
1126.011
 20
739.878
 10
1126.011
 20
742.027
 10
1126.011
 20
744.1750000000001
 10
1126.011
 20
746.3240000000001
 10
1126.011
 20
748.472
 10
1126.011
 20
750.621
 10
1126.011
 20
752.769
 10
1126.011
 20
754.917
 10
1126.011
 20
757.066
 10
1126.011
 20
759.214
 10
1126.011
 20
761.363
 10
1126.011
 20
763.511
 10
1126.011
 20
765.66
 10
1126.011
 20
767.808
 10
1126.011
 20
769.956
 10
1126.011
 20
772.105
 10
1126.011
 20
774.253
 10
1126.011
 20
776.402
 10
1126.011
 20
778.5500000000001
 10
1126.011
 20
780.6990000000001
 10
1126.011
 20
782.847
 10
1126.011
 20
784.996
 10
1126.011
 20
787.144
 10
1126.011
 20
789.293
 10
1126.011
 20
791.441
 10
1126.011
 20
793.589
 10
1126.011
 20
795.738
 10
1126.011
 20
797.886
 10
1126.011
 20
800.035
 10
1126.011
 20
802.183
 10
1126.011
 20
804.332
 10
1126.011
 20
806.48
 10
1126.011
 20
808.628
 10
1126.011
 20
810.777
 10
1126.011
 20
812.9250000000001
 10
1126.011
 20
815.0740000000001
 10
1126.011
 20
817.222
 10
1126.011
 20
819.371
 10
1126.011
 20
821.519
 10
1126.011
 20
823.668
 10
1126.011
 20
825.816
 10
1126.011
 20
827.9639999999999
 10
1126.011
 20
830.113
 10
1126.011
 20
832.261
 10
1126.011
 20
834.4100000000001
 10
1126.011
 20
836.558
 10
1126.011
 20
838.707
 10
1126.011
 20
840.855
 10
1126.011
 20
843.004
 10
1126.011
 20
845.152
 10
1126.011
 20
847.3
 10
1126.011
 20
849.4490000000001
 10
1126.011
 20
851.597
 10
1126.011
 20
853.7460000000001
 10
1126.011
 20
855.894
 10
1126.011
 20
858.043
 10
1126.011
 20
860.191
 10
1126.011
 20
862.34
 10
1126.011
 20
864.488
 10
1126.011
 20
866.636
 10
1126.011
 20
868.7850000000001
 10
1126.011
 20
870.933
 10
1126.011
 20
873.082
 10
1126.011
 20
875.23
 10
1126.011
 20
877.379
 10
1126.011
 20
879.527
 10
1126.011
 20
881.676
 10
1126.011
 20
883.8240000000001
 10
1126.011
 20
885.972
 10
1126.011
 20
888.1210000000001
 10
1126.011
 20
890.269
 10
1126.011
 20
892.418
 10
1126.011
 20
894.566
 10
1126.011
 20
896.715
 10
1126.011
 20
898.863
 10
1126.011
 20
901.011
 10
1126.011
 20
903.1600000000001
 10
1126.011
 20
905.308
 10
1126.011
 20
907.457
 10
1126.011
 20
909.605
 10
1126.011
 20
911.754
 10
1126.01
 20
913.902
 10
1126.01
 20
916.051
 10
1126.01
 20
918.1990000000001
 10
1126.01
 20
920.347
 10
1126.01
 20
922.4960000000001
 10
1126.01
 20
924.644
 10
1126.01
 20
926.793
 10
1126.01
 20
928.941
 10
1126.01
 20
931.09
 10
1126.01
 20
933.238
 10
1126.01
 20
935.386
 10
1126.01
 20
937.5350000000001
 10
1126.01
 20
939.683
 10
1126.01
 20
941.832
 10
1126.01
 20
943.98
 10
1126.01
 20
946.129
 10
1126.01
 20
948.277
 10
1126.01
 20
950.426
 10
1126.01
 20
952.5740000000001
 10
1126.01
 20
954.722
 10
1126.01
 20
956.8710000000001
 10
1126.01
 20
959.019
 10
1126.01
 20
961.168
 10
1126.01
 20
963.316
 10
1126.01
 20
965.465
 10
1126.01
 20
967.613
 10
1126.01
 20
969.762
 10
1126.01
 20
971.9100000000001
 10
1126.01
 20
974.058
 10
1126.01
 20
976.207
 10
1126.01
 20
978.355
 10
1126.01
 20
980.504
 10
1126.01
 20
982.652
 10
1126.01
 20
984.801
 10
1126.01
 20
986.9490000000001
 10
1126.01
 20
989.098
 10
1126.01
 20
991.2460000000001
 10
1126.01
 20
993.394
 10
1126.01
 20
995.543
 10
1126.01
 20
997.691
 10
1126.01
 20
999.84
 10
1126.01
 20
1001.988
 10
1126.01
 20
1004.137
 10
1126.01
 20
1006.2850000000001
 10
1126.01
 20
1008.434
 10
1126.01
 20
1010.582
 10
1126.01
 20
1012.73
 10
1126.01
 20
1014.879
 10
1126.01
 20
1017.027
 10
1126.01
 20
1019.176
 10
1126.01
 20
1021.3240000000001
 10
1126.01
 20
1023.473
 10
1126.01
 20
1025.621
 10
1126.01
 20
1027.769
 10
1126.01
 20
1029.9180000000001
 10
1126.01
 20
1032.066
 10
1126.01
 20
1034.2150000000001
 10
1126.01
 20
1036.363
 10
1126.01
 20
1038.512
 10
1126.01
 20
1040.66
 10
1126.01
 20
1042.809
 10
1126.01
 20
1044.9569999999999
 10
1126.01
 20
1047.106
 10
1126.01
 20
1049.254
 10
1126.01
 20
1051.402
 10
1126.01
 20
1053.551
 10
1126.01
 20
1055.699
 10
1126.01
 20
1057.848
 10
1126.01
 20
1059.996
 10
1126.01
 20
1062.145
 10
1126.01
 20
1064.2930000000001
 10
1126.01
 20
1066.441
 10
1126.01
 20
1068.5900000000001
 10
1126.01
 20
1070.738
 10
1126.01
 20
1072.887
 10
1126.01
 20
1075.035
 10
1126.01
 20
1077.184
 10
1126.01
 20
1079.3319999999999
 10
1126.01
 20
1081.481
 10
1126.01
 20
1083.629
 10
1126.01
 20
1085.777
 10
1126.01
 20
1087.926
 10
1126.01
 20
1090.074
 10
1126.01
 20
1092.223
 10
1126.01
 20
1094.371
 10
1126.01
 20
1096.52
 10
1126.01
 20
1098.6680000000001
 10
1126.01
 20
1100.817
 10
1126.01
 20
1102.9650000000001
 10
1126.01
 20
1105.113
 10
1126.01
 20
1107.262
 10
1126.01
 20
1109.41
 10
1126.01
 20
1111.559
 10
1126.01
 20
1113.707
 10
1126.01
 20
1115.856
 10
1126.01
 20
1118.004
 10
1126.01
 20
1120.153
 10
1126.01
 20
1122.301
 10
1126.01
 20
1124.449
 10
1126.01
 20
1126.598
 10
1126.01
 20
1128.746
 10
1126.01
 20
1130.895
 10
1126.01
 20
1133.0430000000001
 10
1126.01
 20
1135.192
 10
1126.01
 20
1137.3400000000001
 10
1126.01
 20
1139.489
 10
1126.01
 20
1141.637
 10
1126.01
 20
1143.785
 10
1126.01
 20
1145.934
 10
1126.01
 20
1148.082
 10
1126.01
 20
1150.231
 10
1126.01
 20
1152.379
 10
1126.01
 20
1154.528
 10
1126.01
 20
1156.676
 10
1126.01
 20
1158.824
 10
1126.01
 20
1160.973
 10
1126.01
 20
1163.121
 10
1126.01
 20
1165.27
 10
1126.01
 20
1167.4180000000001
 10
1126.01
 20
1169.567
 10
1126.01
 20
1171.7150000000001
 10
1126.01
 20
1173.864
 10
1126.01
 20
1176.012
 10
1126.01
 20
1178.161
 10
1126.01
 20
1180.309
 10
1126.01
 20
1182.457
 10
1126.01
 20
1184.606
 10
1126.01
 20
1186.754
 10
1126.01
 20
1188.903
 10
1126.01
 20
1191.051
 10
1126.01
 20
1193.2
 10
1126.01
 20
1195.348
 10
1126.01
 20
1197.496
 10
1126.01
 20
1199.645
 10
1126.01
 20
1201.7930000000001
 10
1126.01
 20
1203.942
 10
1126.01
 20
1206.0900000000001
 10
1126.01
 20
1208.239
 10
1126.01
 20
1210.387
 10
1126.01
 20
1212.536
 10
1126.01
 20
1214.684
 10
1126.01
 20
1216.832
 10
1126.01
 20
1218.981
 10
1126.01
 20
1221.129
 10
1126.01
 20
1223.278
 10
1126.01
 20
1225.426
 10
1126.01
 20
1227.575
 10
1126.01
 20
1229.723
 10
1126.01
 20
1231.872
 10
1126.01
 20
1234.02
 10
1126.01
 20
1236.1680000000001
 10
1126.01
 20
1238.317
 10
1126.01
 20
1240.465
 10
1126.01
 20
1242.614
 10
1126.01
 20
1244.762
 10
1126.01
 20
1246.911
 10
1126.01
 20
1249.059
 10
1126.01
 20
1251.208
 10
1126.01
 20
1253.356
 10
1126.01
 20
1255.504
 10
1126.01
 20
1257.653
 10
1126.01
 20
1259.801
 10
1126.01
 20
1261.95
 10
1126.01
 20
1264.098
 10
1126.01
 20
1266.247
 10
1126.01
 20
1268.395
 10
1126.01
 20
1270.544
 10
1126.01
 20
1272.692
 10
1126.01
 20
1274.84
 10
1126.01
 20
1276.989
 10
1126.01
 20
1279.137
 10
1126.01
 20
1281.286
 10
1126.01
 20
1283.434
 10
1126.01
 20
1285.583
 10
1126.01
 20
1287.731
 10
1126.01
 20
1289.88
 10
1126.01
 20
1292.028
 10
1126.01
 20
1294.176
 10
1126.01
 20
1296.325
 10
1126.01
 20
1298.473
 10
1126.01
 20
1300.622
 10
1126.01
 20
1302.77
 10
1126.01
 20
1304.919
 10
1126.01
 20
1307.067
 10
1126.01
 20
1309.2160000000001
 10
1126.01
 20
1311.364
 10
1126.01
 20
1313.512
 10
1126.01
 20
1315.661
 10
1126.01
 20
1317.809
 10
1126.01
 20
1319.958
 10
1126.01
 20
1322.106
 10
1126.01
 20
1324.255
 10
1126.01
 20
1326.403
 10
1128.26
 20
1326.403
 10
1130.51
 20
1326.403
 10
1132.76
 20
1326.403
 10
1135.01
 20
1326.403
 10
1137.26
 20
1326.403
 10
1139.51
 20
1326.403
 10
1141.76
 20
1326.403
 10
1144.01
 20
1326.403
 10
1144.01
 20
1324.255
 10
1144.01
 20
1322.106
 10
1144.01
 20
1319.958
 10
1144.01
 20
1317.809
 10
1144.01
 20
1315.661
 10
1144.01
 20
1313.512
 10
1144.01
 20
1311.364
 10
1144.01
 20
1309.2160000000001
 10
1144.01
 20
1307.067
 10
1144.01
 20
1304.919
 10
1144.01
 20
1302.77
 10
1144.01
 20
1300.622
 10
1144.01
 20
1298.473
 10
1144.01
 20
1296.325
 10
1144.01
 20
1294.176
 10
1144.01
 20
1292.028
 10
1144.01
 20
1289.88
 10
1144.01
 20
1287.731
 10
1144.01
 20
1285.583
 10
1144.01
 20
1283.434
 10
1144.01
 20
1281.286
 10
1144.01
 20
1279.137
 10
1144.01
 20
1276.989
 10
1144.01
 20
1274.84
 10
1144.01
 20
1272.692
 10
1144.01
 20
1270.544
 10
1144.01
 20
1268.395
 10
1144.01
 20
1266.247
 10
1144.01
 20
1264.098
 10
1144.01
 20
1261.95
 10
1144.01
 20
1259.801
 10
1144.01
 20
1257.653
 10
1144.01
 20
1255.504
 10
1144.01
 20
1253.356
 10
1144.01
 20
1251.208
 10
1144.01
 20
1249.059
 10
1144.01
 20
1246.911
 10
1144.01
 20
1244.762
 10
1144.01
 20
1242.614
 10
1144.01
 20
1240.465
 10
1144.01
 20
1238.317
 10
1144.01
 20
1236.1680000000001
 10
1144.01
 20
1234.02
 10
1144.01
 20
1231.872
 10
1144.01
 20
1229.723
 10
1144.01
 20
1227.575
 10
1144.01
 20
1225.426
 10
1144.01
 20
1223.278
 10
1144.01
 20
1221.129
 10
1144.01
 20
1218.981
 10
1144.01
 20
1216.832
 10
1144.01
 20
1214.684
 10
1144.01
 20
1212.536
 10
1144.01
 20
1210.387
 10
1144.01
 20
1208.239
 10
1144.01
 20
1206.0900000000001
 10
1144.01
 20
1203.942
 10
1144.01
 20
1201.7930000000001
 10
1144.01
 20
1199.645
 10
1144.01
 20
1197.496
 10
1144.01
 20
1195.348
 10
1144.01
 20
1193.2
 10
1144.01
 20
1191.051
 10
1144.01
 20
1188.903
 10
1144.01
 20
1186.754
 10
1144.01
 20
1184.606
 10
1144.01
 20
1182.457
 10
1144.01
 20
1180.309
 10
1144.01
 20
1178.161
 10
1144.01
 20
1176.012
 10
1144.01
 20
1173.864
 10
1144.01
 20
1171.7150000000001
 10
1144.01
 20
1169.567
 10
1144.01
 20
1167.4180000000001
 10
1144.01
 20
1165.27
 10
1144.01
 20
1163.121
 10
1144.01
 20
1160.973
 10
1144.01
 20
1158.824
 10
1144.01
 20
1156.676
 10
1144.01
 20
1154.528
 10
1144.01
 20
1152.379
 10
1144.01
 20
1150.231
 10
1144.01
 20
1148.082
 10
1144.01
 20
1145.934
 10
1144.01
 20
1143.785
 10
1144.01
 20
1141.637
 10
1144.01
 20
1139.489
 10
1144.01
 20
1137.3400000000001
 10
1144.01
 20
1135.192
 10
1144.01
 20
1133.0430000000001
 10
1144.01
 20
1130.895
 10
1144.01
 20
1128.746
 10
1144.01
 20
1126.598
 10
1144.01
 20
1124.449
 10
1144.01
 20
1122.301
 10
1144.01
 20
1120.153
 10
1144.01
 20
1118.004
 10
1144.01
 20
1115.856
 10
1144.01
 20
1113.707
 10
1144.01
 20
1111.559
 10
1144.01
 20
1109.41
 10
1144.01
 20
1107.262
 10
1144.01
 20
1105.113
 10
1144.01
 20
1102.9650000000001
 10
1144.01
 20
1100.817
 10
1144.01
 20
1098.6680000000001
 10
1144.01
 20
1096.52
 10
1144.01
 20
1094.371
 10
1144.01
 20
1092.223
 10
1144.01
 20
1090.074
 10
1144.01
 20
1087.926
 10
1144.01
 20
1085.777
 10
1144.01
 20
1083.629
 10
1144.01
 20
1081.481
 10
1144.01
 20
1079.3319999999999
 10
1144.01
 20
1077.184
 10
1144.01
 20
1075.035
 10
1144.01
 20
1072.887
 10
1144.01
 20
1070.738
 10
1144.01
 20
1068.5900000000001
 10
1144.01
 20
1066.441
 10
1144.01
 20
1064.2930000000001
 10
1144.01
 20
1062.145
 10
1144.01
 20
1059.996
 10
1144.01
 20
1057.848
 10
1144.01
 20
1055.699
 10
1144.01
 20
1053.551
 10
1144.01
 20
1051.402
 10
1144.01
 20
1049.254
 10
1144.01
 20
1047.106
 10
1144.01
 20
1044.9569999999999
 10
1144.01
 20
1042.809
 10
1144.01
 20
1040.66
 10
1144.01
 20
1038.512
 10
1144.01
 20
1036.363
 10
1144.01
 20
1034.2150000000001
 10
1144.01
 20
1032.066
 10
1144.01
 20
1029.9180000000001
 10
1144.01
 20
1027.769
 10
1144.01
 20
1025.621
 10
1144.01
 20
1023.473
 10
1144.01
 20
1021.3240000000001
 10
1144.01
 20
1019.176
 10
1144.01
 20
1017.027
 10
1144.01
 20
1014.879
 10
1144.01
 20
1012.73
 10
1144.01
 20
1010.582
 10
1144.01
 20
1008.434
 10
1144.01
 20
1006.2850000000001
 10
1144.01
 20
1004.137
 10
1144.01
 20
1001.988
 10
1144.01
 20
999.84
 10
1144.01
 20
997.691
 10
1144.01
 20
995.543
 10
1144.01
 20
993.394
 10
1144.01
 20
991.2460000000001
 10
1144.01
 20
989.098
 10
1144.01
 20
986.9490000000001
 10
1144.01
 20
984.801
 10
1144.01
 20
982.652
 10
1144.01
 20
980.504
 10
1144.01
 20
978.355
 10
1144.01
 20
976.207
 10
1144.01
 20
974.058
 10
1144.01
 20
971.9100000000001
 10
1144.01
 20
969.762
 10
1144.01
 20
967.613
 10
1144.01
 20
965.465
 10
1144.01
 20
963.316
 10
1144.01
 20
961.168
 10
1144.01
 20
959.019
 10
1144.01
 20
956.8710000000001
 10
1144.01
 20
954.722
 10
1144.01
 20
952.5740000000001
 10
1144.01
 20
950.426
 10
1144.01
 20
948.277
 10
1144.01
 20
946.129
 10
1144.01
 20
943.98
 10
1144.01
 20
941.832
 10
1144.01
 20
939.683
 10
1144.01
 20
937.5350000000001
 10
1144.01
 20
935.386
 10
1144.01
 20
933.238
 10
1144.01
 20
931.09
 10
1144.01
 20
928.941
 10
1144.01
 20
926.793
 10
1144.011
 20
924.644
 10
1144.011
 20
922.4960000000001
 10
1144.011
 20
920.347
 10
1144.011
 20
918.1990000000001
 10
1144.011
 20
916.051
 10
1144.011
 20
913.902
 10
1144.011
 20
911.754
 10
1144.011
 20
909.605
 10
1144.011
 20
907.457
 10
1144.011
 20
905.308
 10
1144.011
 20
903.1600000000001
 10
1144.011
 20
901.011
 10
1144.011
 20
898.863
 10
1144.011
 20
896.715
 10
1144.011
 20
894.566
 10
1144.011
 20
892.418
 10
1144.011
 20
890.269
 10
1144.011
 20
888.1210000000001
 10
1144.011
 20
885.972
 10
1144.011
 20
883.8240000000001
 10
1144.011
 20
881.676
 10
1144.011
 20
879.527
 10
1144.011
 20
877.379
 10
1144.011
 20
875.23
 10
1144.011
 20
873.082
 10
1144.011
 20
870.933
 10
1144.011
 20
868.7850000000001
 10
1144.011
 20
866.636
 10
1144.011
 20
864.488
 10
1144.011
 20
862.34
 10
1144.011
 20
860.191
 10
1144.011
 20
858.043
 10
1144.011
 20
855.894
 10
1144.011
 20
853.7460000000001
 10
1144.011
 20
851.597
 10
1144.011
 20
849.4490000000001
 10
1144.011
 20
847.3
 10
1144.011
 20
845.152
 10
1144.011
 20
843.004
 10
1144.011
 20
840.855
 10
1144.011
 20
838.707
 10
1144.011
 20
836.558
 10
1144.011
 20
834.4100000000001
 10
1144.011
 20
832.261
 10
1144.011
 20
830.113
 10
1144.011
 20
827.9639999999999
 10
1144.011
 20
825.816
 10
1144.011
 20
823.668
 10
1144.011
 20
821.519
 10
1144.011
 20
819.371
 10
1144.011
 20
817.222
 10
1144.011
 20
815.0740000000001
 10
1144.011
 20
812.9250000000001
 10
1144.011
 20
810.777
 10
1144.011
 20
808.628
 10
1144.011
 20
806.48
 10
1144.011
 20
804.332
 10
1144.011
 20
802.183
 10
1144.011
 20
800.035
 10
1144.011
 20
797.886
 10
1144.011
 20
795.738
 10
1144.011
 20
793.589
 10
1144.011
 20
791.441
 10
1144.011
 20
789.293
 10
1144.011
 20
787.144
 10
1144.011
 20
784.996
 10
1144.011
 20
782.847
 10
1144.011
 20
780.6990000000001
 10
1144.011
 20
778.5500000000001
 10
1144.011
 20
776.402
 10
1144.011
 20
774.253
 10
1144.011
 20
772.105
 10
1144.011
 20
769.956
 10
1144.011
 20
767.808
 10
1144.011
 20
765.66
 10
1144.011
 20
763.511
 10
1144.011
 20
761.363
 10
1144.011
 20
759.214
 10
1144.011
 20
757.066
 10
1144.011
 20
754.917
 10
1144.011
 20
752.769
 10
1144.011
 20
750.621
 10
1144.011
 20
748.472
 10
1144.011
 20
746.3240000000001
 10
1144.011
 20
744.1750000000001
 10
1144.011
 20
742.027
 10
1144.011
 20
739.878
 10
1144.011
 20
737.73
 10
1144.011
 20
735.581
 10
1144.011
 20
733.433
 10
1144.011
 20
731.285
 10
1144.011
 20
729.136
 10
1144.011
 20
726.988
 10
1144.011
 20
724.839
 10
1144.011
 20
722.691
 10
1144.011
 20
720.542
 10
1144.011
 20
718.394
 10
1144.011
 20
716.245
 10
1144.011
 20
714.097
 10
1144.011
 20
711.9490000000001
 10
1144.011
 20
709.8000000000001
 10
1144.011
 20
707.652
 10
1144.011
 20
705.503
 10
1144.011
 20
703.355
 10
1144.011
 20
701.206
 10
1144.011
 20
699.058
 10
1144.011
 20
696.91
 10
1144.011
 20
694.761
 10
1144.011
 20
692.613
 10
1144.011
 20
690.464
 10
1144.011
 20
688.316
 10
1144.011
 20
686.167
 10
1144.011
 20
684.019
 10
1144.011
 20
681.87
 10
1144.011
 20
679.722
 10
1144.011
 20
677.5740000000001
 10
1144.011
 20
675.4250000000001
 10
1144.011
 20
673.277
 10
1144.011
 20
671.128
 10
1144.011
 20
668.98
 10
1144.011
 20
666.831
 10
1144.011
 20
664.683
 10
1144.011
 20
662.534
 10
1144.011
 20
660.386
 10
1144.011
 20
658.238
 10
1144.011
 20
656.089
 10
1144.011
 20
653.941
 10
1144.011
 20
651.792
 10
1144.011
 20
649.644
 10
1144.011
 20
647.495
 10
1144.011
 20
645.347
 10
1144.011
 20
643.198
 10
1144.011
 20
641.0500000000001
 10
1144.011
 20
638.902
 10
1144.011
 20
636.753
 10
1144.011
 20
634.605
 10
1144.011
 20
632.456
 10
1144.011
 20
630.308
 10
1144.011
 20
628.159
 10
1144.011
 20
626.011
 10
1144.011
 20
623.862
 10
1144.011
 20
621.714
 10
1144.011
 20
619.566
 10
1144.011
 20
617.417
 10
1144.011
 20
615.269
 10
1144.011
 20
613.12
 10
1144.011
 20
610.972
 10
1144.011
 20
608.823
 10
1144.011
 20
606.6750000000001
 10
1144.011
 20
604.5260000000001
 10
1144.011
 20
602.378
 10
1144.011
 20
600.23
 10
1144.011
 20
598.081
 10
1144.011
 20
595.933
 10
1144.011
 20
593.784
 10
1144.011
 20
591.636
 10
1144.011
 20
589.487
 10
1144.011
 20
587.339
 10
1144.011
 20
585.19
 10
1144.011
 20
583.042
 10
1144.011
 20
580.894
 10
1144.011
 20
578.745
 10
1144.011
 20
576.597
 10
1144.011
 20
574.448
 10
1144.011
 20
572.3000000000001
 10
1144.011
 20
570.1510000000001
 10
1144.011
 20
568.003
 10
1144.011
 20
565.854
 10
1144.011
 20
563.706
 10
1144.011
 20
561.558
 10
1144.011
 20
559.409
 10
1144.011
 20
557.261
 10
1144.011
 20
555.112
 10
1144.011
 20
552.964
 10
1144.011
 20
550.815
 10
1144.011
 20
548.667
 10
1144.011
 20
546.518
 10
1144.011
 20
544.37
 10
1144.011
 20
542.222
 10
1144.011
 20
540.073
 10
1144.011
 20
537.9250000000001
 10
1144.011
 20
535.7760000000001
 10
1144.011
 20
533.628
 10
1144.011
 20
531.479
 10
1144.011
 20
529.331
 10
1144.011
 20
527.183
 10
1144.011
 20
525.034
 10
1144.011
 20
522.886
 10
1144.011
 20
520.737
 10
1144.011
 20
518.589
 10
1144.011
 20
516.44
 10
1144.011
 20
514.292
 10
1144.011
 20
512.143
 10
1144.011
 20
509.995
 10
1144.011
 20
507.847
 10
1144.011
 20
505.698
 10
1144.011
 20
503.55000000000007
 10
1144.011
 20
501.40100000000007
 10
1144.011
 20
499.25300000000004
 10
1144.011
 20
497.10400000000004
 10
1144.011
 20
494.956
 10
1144.011
 20
492.807
 10
1144.011
 20
490.659
 10
1144.011
 20
488.51099999999997
 10
1144.011
 20
486.36199999999997
 10
1144.011
 20
484.21400000000006
 10
1144.011
 20
482.06500000000005
 10
1144.011
 20
479.91700000000003
 10
1144.011
 20
477.76800000000003
 10
1144.011
 20
475.62
 10
1144.011
 20
473.471
 10
1144.011
 20
471.323
 10
1144.011
 20
469.17500000000007
 10
1144.011
 20
467.02600000000007
 10
1144.011
 20
464.87800000000004
 10
1144.011
 20
462.72900000000004
 10
1144.011
 20
460.581
 10
1144.011
 20
458.432
 10
1144.011
 20
456.284
 10
1144.011
 20
454.13599999999997
 10
1144.011
 20
451.98699999999997
 10
1144.011
 20
449.83900000000006
 10
1144.011
 20
447.69000000000005
 10
1144.011
 20
445.54200000000003
 10
1144.011
 20
443.39300000000003
 10
1144.011
 20
441.245
 10
1144.011
 20
439.096
 10
1144.011
 20
436.948
 10
1144.011
 20
434.80000000000007
 10
1144.011
 20
432.65100000000007
 10
1144.011
 20
430.50300000000004
 10
1144.011
 20
428.35400000000004
 10
1144.011
 20
426.206
 10
1144.011
 20
424.057
 10
1144.011
 20
421.909
 10
1144.011
 20
419.76
 10
1144.011
 20
417.61199999999997
 10
1144.011
 20
415.46400000000006
 10
1144.011
 20
413.31500000000005
 10
1144.011
 20
411.16700000000003
 10
1144.011
 20
409.01800000000003
 10
1144.011
 20
406.87
 10
1144.011
 20
404.721
 10
1144.011
 20
402.573
 10
1144.011
 20
400.424
 10
1144.011
 20
398.27600000000007
 10
1144.011
 20
396.12800000000004
 10
1144.011
 20
393.97900000000004
 10
1144.011
 20
391.831
 10
1144.011
 20
389.682
 10
1144.011
 20
387.534
 10
1144.011
 20
385.385
 10
1144.011
 20
383.23699999999997
 10
1144.011
 20
381.08799999999997
 10
1144.011
 20
378.94000000000005
 10
1144.011
 20
376.79200000000003
 10
1144.011
 20
374.64300000000003
 10
1144.011
 20
372.495
 10
1144.011
 20
370.346
 10
1144.011
 20
368.198
 10
1144.011
 20
366.049
 10
1144.011
 20
363.90100000000007
 10
1144.011
 20
361.75300000000004
 10
1144.011
 20
359.60400000000004
 10
1144.011
 20
357.456
 10
1144.011
 20
355.307
 10
1144.011
 20
353.159
 10
1144.011
 20
351.01
 10
1144.011
 20
348.86199999999997
 10
1144.011
 20
346.71299999999997
 10
1144.011
 20
344.56500000000005
 10
1144.011
 20
342.41700000000003
 10
1144.011
 20
340.26800000000003
 10
1144.011
 20
338.12
 10
1144.011
 20
335.971
 10
1144.011
 20
333.823
 10
1144.011
 20
331.674
 10
1144.011
 20
329.52600000000007
 10
1144.011
 20
327.3770000000002
 10
1144.011
 20
325.22900000000004
 10
1144.011
 20
323.0809999999999
 10
1144.011
 20
320.932
 10
1144.011
 20
318.7839999999999
 10
1144.011
 20
316.635
 10
1144.011
 20
314.48699999999985
 10
1144.011
 20
312.33799999999997
 10
1144.011
 20
310.19000000000005
 10
1144.011
 20
308.04099999999994
 10
1144.011
 20
305.89300000000003
 10
1144.011
 20
303.7450000000001
 10
1144.011
 20
301.596
 10
1144.011
 20
299.4480000000001
 10
1144.011
 20
297.299
 10
1144.011
 20
295.15100000000007
 10
1144.011
 20
293.00199999999995
 10
1144.011
 20
290.85400000000004
 10
1144.011
 20
288.7049999999999
 10
1144.011
 20
286.557
 10
1144.011
 20
284.4090000000001
 10
1144.011
 20
282.26
 10
1144.011
 20
280.1120000000001
 10
1144.011
 20
277.96299999999997
 10
1144.011
 20
275.81500000000005
 10
1144.011
 20
273.66599999999994
 10
1144.011
 20
271.51800000000003
 10
1144.011
 20
269.3700000000001
 10
1144.011
 20
267.221
 10
1144.011
 20
265.0730000000001
 10
1144.011
 20
262.924
 10
1144.011
 20
260.77600000000007
 10
1144.011
 20
258.62699999999995
 10
1144.011
 20
256.47900000000004
 10
1144.011
 20
254.32999999999993
 10
1144.011
 20
252.18200000000002
 10
1144.011
 20
250.0340000000001
 10
1144.011
 20
247.885
 10
1144.011
 20
245.73700000000008
 10
1144.011
 20
243.58799999999997
 10
1144.011
 20
241.44000000000005
 10
1144.011
 20
239.29099999999994
 10
1144.011
 20
237.14300000000003
 10
1144.011
 20
234.99399999999991
 10
1144.011
 20
232.846
 10
1144.011
 20
230.6980000000001
 10
1144.011
 20
228.54899999999998
 10
1144.011
 20
226.40100000000007
  0
TEXT
  5
9B
330
17
100
AcDbEntity
  8
LABEL
100
AcDbText
 10
1135.0105
 20
776.402
 30
0.0
 40
10.0
  1
E piece-5
 72
1
 11
1135.0105
 21
776.402
 31
0.0
100
AcDbText
 73
2
  0
LWPOLYLINE
  5
9C
330
17
100
AcDbEntity
  8
CUT
100
AcDbPolyline
 90
194
 70
1
 10
30.0
 20
20.0
 10
31.25
 20
20.0
 10
32.5
 20
20.0
 10
33.75
 20
20.0
 10
35.0
 20
20.0
 10
36.25
 20
20.0
 10
37.5
 20
20.0
 10
38.75
 20
20.0
 10
40.0
 20
20.0
 10
41.25
 20
20.0
 10
42.5
 20
20.0
 10
43.75
 20
20.0
 10
45.0
 20
20.0
 10
46.25
 20
20.0
 10
47.5
 20
20.0
 10
48.75
 20
20.0
 10
50.0
 20
20.0
 10
50.980000000000004
 20
20.048000000000002
 10
51.951
 20
20.192000000000007
 10
52.903
 20
20.430000000000064
 10
53.827
 20
20.761000000000195
 10
54.714
 20
21.18100000000004
 10
55.556
 20
21.685000000000173
 10
56.344
 20
22.269999999999982
 10
57.071
 20
22.929000000000087
 10
57.73
 20
23.656000000000176
 10
58.315
 20
24.444000000000187
 10
58.819
 20
25.286000000000058
 10
59.239
 20
26.173000000000002
 10
59.569
 20
27.09699999999998
 10
59.808
 20
28.048999999999978
 10
59.952
 20
29.019999999999982
 10
60.0
 20
30.0
 10
60.0
 20
31.22199999999998
 10
60.0
 20
186.40100000000007
 10
59.952
 20
187.38100000000009
 10
59.808
 20
188.3520000000001
 10
59.569
 20
189.3040000000001
 10
59.239
 20
190.22800000000007
 10
58.819
 20
191.115
 10
58.315
 20
191.9570000000001
 10
57.73
 20
192.74500000000012
 10
57.071
 20
193.47199999999998
 10
56.344
 20
194.13100000000009
 10
55.556
 20
194.71600000000012
 10
54.714
 20
195.22000000000003
 10
53.827
 20
195.6400000000001
 10
52.903
 20
195.97000000000003
 10
51.951
 20
196.20900000000006
 10
50.980000000000004
 20
196.35300000000007
 10
50.0
 20
196.40100000000007
 10
30.0
 20
196.40100000000007
 10
29.02
 20
196.35300000000007
 10
28.049
 20
196.20900000000006
 10
27.097
 20
195.97000000000003
 10
26.173000000000002
 20
195.6400000000001
 10
25.286
 20
195.22000000000003
 10
24.444
 20
194.71600000000012
 10
23.656
 20
194.13100000000009
 10
22.929
 20
193.47199999999998
 10
22.27
 20
192.74500000000012
 10
21.685
 20
191.9570000000001
 10
21.181
 20
191.115
 10
20.761
 20
190.22800000000007
 10
20.431
 20
189.3040000000001
 10
20.192
 20
188.3520000000001
 10
20.048
 20
187.38100000000009
 10
20.0
 20
186.40100000000007
 10
20.0
 20
185.1790000000001
 10
20.0
 20
183.9570000000001
 10
20.0
 20
182.73500000000013
 10
20.0
 20
181.51300000000015
 10
20.0
 20
180.29200000000014
 10
20.0
 20
179.07000000000016
 10
20.0
 20
177.84799999999996
 10
20.0
 20
175.404
 10
20.0
 20
174.18200000000002
 10
20.0
 20
172.96000000000004
 10
20.0
 20
170.51700000000005
 10
20.0
 20
169.29500000000007
 10
20.0
 20
168.0730000000001
 10
20.0
 20
165.62900000000013
 10
20.0
 20
164.40700000000015
 10
20.0
 20
163.18500000000017
 10
20.0
 20
161.96299999999997
 10
20.0
 20
160.74099999999999
 10
20.0
 20
159.51999999999998
 10
20.0
 20
158.298
 10
20.0
 20
155.85400000000004
 10
20.0
 20
154.63200000000006
 10
20.0
 20
153.41000000000008
 10
20.0
 20
152.1880000000001
 10
20.0
 20
150.96600000000012
 10
20.0
 20
149.74400000000014
 10
20.0
 20
148.52300000000014
 10
20.0
 20
147.30100000000016
 10
20.0
 20
146.07899999999995
 10
20.0
 20
144.85699999999997
 10
20.0
 20
143.635
 10
20.0
 20
142.413
 10
20.0
 20
141.19100000000003
 10
20.0
 20
139.96900000000005
 10
20.0
 20
138.74800000000005
 10
20.0
 20
137.52600000000007
 10
20.0
 20
136.3040000000001
 10
20.0
 20
135.0820000000001
 10
20.0
 20
133.86000000000013
 10
20.0
 20
132.63800000000015
 10
20.0
 20
131.41600000000017
 10
20.0
 20
130.1940000000002
 10
20.0
 20
128.97199999999998
 10
20.0
 20
127.75099999999998
 10
20.0
 20
126.529
 10
20.0
 20
125.30700000000002
 10
20.0
 20
124.08500000000004
 10
20.0
 20
121.64100000000008
 10
20.0
 20
120.4190000000001
 10
20.0
 20
119.19700000000012
 10
20.0
 20
116.75400000000013
 10
20.0
 20
115.53200000000015
 10
20.0
 20
114.31000000000017
 10
20.0
 20
113.08799999999997
 10
20.0
 20
111.86599999999999
 10
20.0
 20
110.644
 10
20.0
 20
109.42200000000003
 10
20.0
 20
108.20000000000005
 10
20.0
 20
106.97900000000004
 10
20.0
 20
104.53500000000008
 10
20.0
 20
103.3130000000001
 10
20.0
 20
102.09100000000012
 10
20.0
 20
100.86900000000014
 10
20.0
 20
99.64700000000016
 10
20.0
 20
97.20299999999997
 10
20.0
 20
95.98199999999997
 10
20.0
 20
94.75999999999999
 10
20.0
 20
93.53800000000001
 10
20.0
 20
92.31600000000003
 10
20.0
 20
91.09400000000005
 10
20.0
 20
89.87200000000007
 10
20.0
 20
87.42800000000011
 10
20.0
 20
86.20700000000011
 10
20.0
 20
84.98500000000013
 10
20.0
 20
83.76300000000015
 10
20.0
 20
82.54100000000017
 10
20.0
 20
80.09699999999998
 10
20.0
 20
78.875
 10
20.0
 20
77.65300000000002
 10
20.0
 20
76.43100000000004
 10
20.0
 20
75.21000000000004
 10
20.0
 20
72.76600000000008
 10
20.0
 20
71.5440000000001
 10
20.0
 20
70.32200000000012
 10
20.0
 20
69.10000000000014
 10
20.0
 20
65.43399999999997
 10
20.0
 20
62.990999999999985
 10
20.0
 20
61.769000000000005
 10
20.0
 20
60.547000000000025
 10
20.0
 20
59.325000000000045
 10
20.0
 20
58.103000000000065
 10
20.0
 20
56.881000000000085
 10
20.0
 20
55.659000000000106
 10
20.0
 20
51.99400000000014
 10
20.0
 20
50.77200000000016
 10
20.0
 20
49.549999999999955
 10
20.0
 20
48.327999999999975
 10
20.0
 20
45.884000000000015
 10
20.0
 20
44.662000000000035
 10
20.0
 20
43.44100000000003
 10
20.0
 20
42.21900000000005
 10
20.0
 20
40.99700000000007
 10
20.0
 20
39.77500000000009
 10
20.0
 20
38.55300000000011
 10
20.0
 20
37.33100000000013
 10
20.0
 20
36.10900000000015
 10
20.0
 20
34.886999999999944
 10
20.0
 20
33.66500000000019
 10
20.0
 20
32.44400000000019
 10
20.0
 20
31.22199999999998
 10
20.0
 20
30.0
 10
20.048
 20
29.019999999999982
 10
20.192
 20
28.048999999999978
 10
20.431
 20
27.09699999999998
 10
20.761
 20
26.173000000000002
 10
21.181
 20
25.286000000000058
 10
21.685
 20
24.444000000000187
 10
22.27
 20
23.656000000000176
 10
22.929
 20
22.929000000000087
 10
23.656
 20
22.269999999999982
 10
24.444
 20
21.685000000000173
 10
25.286
 20
21.18100000000004
 10
26.173000000000002
 20
20.761000000000195
 10
27.097
 20
20.430000000000064
 10
28.049
 20
20.192000000000007
 10
29.02
 20
20.048000000000002
  0
LWPOLYLINE
  5
9D
330
17
100
AcDbEntity
  8
STITCH
100
AcDbPolyline
 90
288
 70
1
 10
30.0
 20
30.0
 10
30.0
 20
31.22199999999998
 10
30.0
 20
32.44400000000019
 10
30.0
 20
33.66500000000019
 10
30.0
 20
34.886999999999944
 10
30.0
 20
36.10900000000015
 10
30.0
 20
37.33100000000013
 10
30.0
 20
38.55300000000011
 10
30.0
 20
39.77500000000009
 10
30.0
 20
40.99700000000007
 10
30.0
 20
42.21900000000005
 10
30.0
 20
43.44100000000003
 10
30.0
 20
44.662000000000035
 10
30.0
 20
45.884000000000015
 10
30.0
 20
47.105999999999995
 10
30.0
 20
48.327999999999975
 10
30.0
 20
49.549999999999955
 10
30.0
 20
50.77200000000016
 10
30.0
 20
51.99400000000014
 10
30.0
 20
53.21600000000012
 10
30.0
 20
54.4380000000001
 10
30.0
 20
55.659000000000106
 10
30.0
 20
56.881000000000085
 10
30.0
 20
58.103000000000065
 10
30.0
 20
59.325000000000045
 10
30.0
 20
60.547000000000025
 10
30.0
 20
61.769000000000005
 10
30.0
 20
62.990999999999985
 10
30.0
 20
64.21299999999997
 10
30.0
 20
65.43399999999997
 10
30.0
 20
66.65600000000018
 10
30.0
 20
67.87800000000016
 10
30.0
 20
69.10000000000014
 10
30.0
 20
70.32200000000012
 10
30.0
 20
71.5440000000001
 10
30.0
 20
72.76600000000008
 10
30.0
 20
73.98800000000006
 10
30.0
 20
75.21000000000004
 10
30.0
 20
76.43100000000004
 10
30.0
 20
77.65300000000002
 10
30.0
 20
78.875
 10
30.0
 20
80.09699999999998
 10
30.0
 20
81.31900000000019
 10
30.0
 20
82.54100000000017
 10
30.0
 20
83.76300000000015
 10
30.0
 20
84.98500000000013
 10
30.0
 20
86.20700000000011
 10
30.0
 20
87.42800000000011
 10
30.0
 20
88.65000000000009
 10
30.0
 20
89.87200000000007
 10
30.0
 20
91.09400000000005
 10
30.0
 20
92.31600000000003
 10
30.0
 20
93.53800000000001
 10
30.0
 20
94.75999999999999
 10
30.0
 20
95.98199999999997
 10
30.0
 20
97.20299999999997
 10
30.0
 20
98.42499999999995
 10
30.0
 20
99.64700000000016
 10
30.0
 20
100.86900000000014
 10
30.0
 20
102.09100000000012
 10
30.0
 20
103.3130000000001
 10
30.0
 20
104.53500000000008
 10
30.0
 20
105.75700000000006
 10
30.0
 20
106.97900000000004
 10
30.0
 20
108.20000000000005
 10
30.0
 20
109.42200000000003
 10
30.0
 20
110.644
 10
30.0
 20
111.86599999999999
 10
30.0
 20
113.08799999999997
 10
30.0
 20
114.31000000000017
 10
30.0
 20
115.53200000000015
 10
30.0
 20
116.75400000000013
 10
30.0
 20
117.97500000000014
 10
30.0
 20
119.19700000000012
 10
30.0
 20
120.4190000000001
 10
30.0
 20
121.64100000000008
 10
30.0
 20
122.86300000000006
 10
30.0
 20
124.08500000000004
 10
30.0
 20
125.30700000000002
 10
30.0
 20
126.529
 10
30.0
 20
127.75099999999998
 10
30.0
 20
128.97199999999998
 10
30.0
 20
130.1940000000002
 10
30.0
 20
131.41600000000017
 10
30.0
 20
132.63800000000015
 10
30.0
 20
133.86000000000013
 10
30.0
 20
135.0820000000001
 10
30.0
 20
136.3040000000001
 10
30.0
 20
137.52600000000007
 10
30.0
 20
138.74800000000005
 10
30.0
 20
139.96900000000005
 10
30.0
 20
141.19100000000003
 10
30.0
 20
142.413
 10
30.0
 20
143.635
 10
30.0
 20
144.85699999999997
 10
30.0
 20
146.07899999999995
 10
30.0
 20
147.30100000000016
 10
30.0
 20
148.52300000000014
 10
30.0
 20
149.74400000000014
 10
30.0
 20
150.96600000000012
 10
30.0
 20
152.1880000000001
 10
30.0
 20
153.41000000000008
 10
30.0
 20
154.63200000000006
 10
30.0
 20
155.85400000000004
 10
30.0
 20
157.07600000000002
 10
30.0
 20
158.298
 10
30.0
 20
159.51999999999998
 10
30.0
 20
160.74099999999999
 10
30.0
 20
161.96299999999997
 10
30.0
 20
163.18500000000017
 10
30.0
 20
164.40700000000015
 10
30.0
 20
165.62900000000013
 10
30.0
 20
166.8510000000001
 10
30.0
 20
168.0730000000001
 10
30.0
 20
169.29500000000007
 10
30.0
 20
170.51700000000005
 10
30.0
 20
171.73800000000006
 10
30.0
 20
172.96000000000004
 10
30.0
 20
174.18200000000002
 10
30.0
 20
175.404
 10
30.0
 20
176.62599999999998
 10
30.0
 20
177.84799999999996
 10
30.0
 20
179.07000000000016
 10
30.0
 20
180.29200000000014
 10
30.0
 20
181.51300000000015
 10
30.0
 20
182.73500000000013
 10
30.0
 20
183.9570000000001
 10
30.0
 20
185.1790000000001
 10
30.0
 20
186.40100000000007
 10
31.25
 20
186.40100000000007
 10
32.5
 20
186.40100000000007
 10
33.75
 20
186.40100000000007
 10
35.0
 20
186.40100000000007
 10
36.25
 20
186.40100000000007
 10
37.5
 20
186.40100000000007
 10
38.75
 20
186.40100000000007
 10
40.0
 20
186.40100000000007
 10
41.25
 20
186.40100000000007
 10
42.5
 20
186.40100000000007
 10
43.75
 20
186.40100000000007
 10
45.0
 20
186.40100000000007
 10
46.25
 20
186.40100000000007
 10
47.5
 20
186.40100000000007
 10
48.75
 20
186.40100000000007
 10
50.0
 20
186.40100000000007
 10
50.0
 20
185.1790000000001
 10
50.0
 20
183.9570000000001
 10
50.0
 20
182.73500000000013
 10
50.0
 20
181.51300000000015
 10
50.0
 20
180.29200000000014
 10
50.0
 20
179.07000000000016
 10
50.0
 20
177.84799999999996
 10
50.0
 20
176.62599999999998
 10
50.0
 20
175.404
 10
50.0
 20
174.18200000000002
 10
50.0
 20
172.96000000000004
 10
50.0
 20
171.73800000000006
 10
50.0
 20
170.51700000000005
 10
50.0
 20
169.29500000000007
 10
50.0
 20
168.0730000000001
 10
50.0
 20
166.8510000000001
 10
50.0
 20
165.62900000000013
 10
50.0
 20
164.40700000000015
 10
50.0
 20
163.18500000000017
 10
50.0
 20
161.96299999999997
 10
50.0
 20
160.74099999999999
 10
50.0
 20
159.51999999999998
 10
50.0
 20
158.298
 10
50.0
 20
157.07600000000002
 10
50.0
 20
155.85400000000004
 10
50.0
 20
154.63200000000006
 10
50.0
 20
153.41000000000008
 10
50.0
 20
152.1880000000001
 10
50.0
 20
150.96600000000012
 10
50.0
 20
149.74400000000014
 10
50.0
 20
148.52300000000014
 10
50.0
 20
147.30100000000016
 10
50.0
 20
146.07899999999995
 10
50.0
 20
144.85699999999997
 10
50.0
 20
143.635
 10
50.0
 20
142.413
 10
50.0
 20
141.19100000000003
 10
50.0
 20
139.96900000000005
 10
50.0
 20
138.74800000000005
 10
50.0
 20
137.52600000000007
 10
50.0
 20
136.3040000000001
 10
50.0
 20
135.0820000000001
 10
50.0
 20
133.86000000000013
 10
50.0
 20
132.63800000000015
 10
50.0
 20
131.41600000000017
 10
50.0
 20
130.1940000000002
 10
50.0
 20
128.97199999999998
 10
50.0
 20
127.75099999999998
 10
50.0
 20
126.529
 10
50.0
 20
125.30700000000002
 10
50.0
 20
124.08500000000004
 10
50.0
 20
122.86300000000006
 10
50.0
 20
121.64100000000008
 10
50.0
 20
120.4190000000001
 10
50.0
 20
119.19700000000012
 10
50.0
 20
117.97500000000014
 10
50.0
 20
116.75400000000013
 10
50.0
 20
115.53200000000015
 10
50.0
 20
114.31000000000017
 10
50.0
 20
113.08799999999997
 10
50.0
 20
111.86599999999999
 10
50.0
 20
110.644
 10
50.0
 20
109.42200000000003
 10
50.0
 20
108.20000000000005
 10
50.0
 20
106.97900000000004
 10
50.0
 20
105.75700000000006
 10
50.0
 20
104.53500000000008
 10
50.0
 20
103.3130000000001
 10
50.0
 20
102.09100000000012
 10
50.0
 20
100.86900000000014
 10
50.0
 20
99.64700000000016
 10
50.0
 20
98.42499999999995
 10
50.0
 20
97.20299999999997
 10
50.0
 20
95.98199999999997
 10
50.0
 20
94.75999999999999
 10
50.0
 20
93.53800000000001
 10
50.0
 20
92.31600000000003
 10
50.0
 20
91.09400000000005
 10
50.0
 20
89.87200000000007
 10
50.0
 20
88.65000000000009
 10
50.0
 20
87.42800000000011
 10
50.0
 20
86.20700000000011
 10
50.0
 20
84.98500000000013
 10
50.0
 20
83.76300000000015
 10
50.0
 20
82.54100000000017
 10
50.0
 20
81.31900000000019
 10
50.0
 20
80.09699999999998
 10
50.0
 20
78.875
 10
50.0
 20
77.65300000000002
 10
50.0
 20
76.43100000000004
 10
50.0
 20
75.21000000000004
 10
50.0
 20
73.98800000000006
 10
50.0
 20
72.76600000000008
 10
50.0
 20
71.5440000000001
 10
50.0
 20
70.32200000000012
 10
50.0
 20
69.10000000000014
 10
50.0
 20
67.87800000000016
 10
50.0
 20
66.65600000000018
 10
50.0
 20
65.43399999999997
 10
50.0
 20
64.21299999999997
 10
50.0
 20
62.990999999999985
 10
50.0
 20
61.769000000000005
 10
50.0
 20
60.547000000000025
 10
50.0
 20
59.325000000000045
 10
50.0
 20
58.103000000000065
 10
50.0
 20
56.881000000000085
 10
50.0
 20
55.659000000000106
 10
50.0
 20
54.4380000000001
 10
50.0
 20
53.21600000000012
 10
50.0
 20
51.99400000000014
 10
50.0
 20
50.77200000000016
 10
50.0
 20
49.549999999999955
 10
50.0
 20
48.327999999999975
 10
50.0
 20
47.105999999999995
 10
50.0
 20
45.884000000000015
 10
50.0
 20
44.662000000000035
 10
50.0
 20
43.44100000000003
 10
50.0
 20
42.21900000000005
 10
50.0
 20
40.99700000000007
 10
50.0
 20
39.77500000000009
 10
50.0
 20
38.55300000000011
 10
50.0
 20
37.33100000000013
 10
50.0
 20
36.10900000000015
 10
50.0
 20
34.886999999999944
 10
50.0
 20
33.66500000000019
 10
50.0
 20
32.44400000000019
 10
50.0
 20
31.22199999999998
 10
50.0
 20
30.0
 10
48.75
 20
30.0
 10
47.5
 20
30.0
 10
46.25
 20
30.0
 10
45.0
 20
30.0
 10
43.75
 20
30.0
 10
42.5
 20
30.0
 10
41.25
 20
30.0
 10
40.0
 20
30.0
 10
38.75
 20
30.0
 10
37.5
 20
30.0
 10
36.25
 20
30.0
 10
35.0
 20
30.0
 10
33.75
 20
30.0
 10
32.5
 20
30.0
 10
31.25
 20
30.0
  0
TEXT
  5
9E
330
17
100
AcDbEntity
  8
LABEL
100
AcDbText
 10
40.0
 20
108.20050000000015
 30
0.0
 40
10.0
  1
F piece-6
 72
1
 11
40.0
 21
108.20050000000015
 31
0.0
100
AcDbText
 73
2
  0
ENDSEC
  0
SECTION
  2
OBJECTS
  0
DICTIONARY
  5
A
330
0
100
AcDbDictionary
281
1
  3
ACAD_COLOR
350
B
  3
ACAD_GROUP
350
C
  3
ACAD_LAYOUT
350
D
  3
ACAD_MATERIAL
350
E
  3
ACAD_MLEADERSTYLE
350
F
  3
ACAD_MLINESTYLE
350
10
  3
ACAD_PLOTSETTINGS
350
11
  3
ACAD_PLOTSTYLENAME
350
12
  3
ACAD_SCALELIST
350
14
  3
ACAD_TABLESTYLE
350
15
  3
ACAD_VISUALSTYLE
350
16
  3
EZDXF_META
350
2D
  0
DICTIONARY
  5
B
330
A
100
AcDbDictionary
281
1
  0
DICTIONARY
  5
C
330
A
100
AcDbDictionary
281
1
  0
DICTIONARY
  5
D
330
A
100
AcDbDictionary
281
1
  3
Model
350
1A
  3
Layout1
350
1E
  0
DICTIONARY
  5
E
330
A
100
AcDbDictionary
281
1
  3
ByBlock
350
1F
  3
ByLayer
350
20
  3
Global
350
21
  0
DICTIONARY
  5
F
330
A
100
AcDbDictionary
281
1
  3
Standard
350
2C
  0
DICTIONARY
  5
10
330
A
100
AcDbDictionary
281
1
  3
Standard
350
22
  0
DICTIONARY
  5
11
330
A
100
AcDbDictionary
281
1
  0
ACDBDICTIONARYWDFLT
  5
12
330
A
100
AcDbDictionary
281
1
  3
Normal
350
13
100
AcDbDictionaryWithDefault
340
13
  0
ACDBPLACEHOLDER
  5
13
330
12
  0
DICTIONARY
  5
14
330
A
100
AcDbDictionary
281
1
  0
DICTIONARY
  5
15
330
A
100
AcDbDictionary
281
1
  0
DICTIONARY
  5
16
330
A
100
AcDbDictionary
281
1
  3
2dWireframe
350
5A
  3
Basic
350
5B
  3
Brighten
350
5C
  3
ColorChange
350
5D
  3
Conceptual
350
5E
  3
Dim
350
5F
  3
EdgeColorOff
350
60
  3
Facepattern
350
61
  3
Flat
350
62
  3
FlatWithEdges
350
63
  3
Gouraud
350
64
  3
GouraudWithEdges
350
65
  3
Hidden
350
66
  3
JitterOff
350
67
  3
Linepattern
350
68
  3
Modeling
350
69
  3
OverhangOff
350
6A
  3
Realistic
350
6B
  3
Shaded
350
6C
  3
Shaded with edges
350
6D
  3
Shades of Gray
350
6E
  3
Sketchy
350
6F
  3
Thicken
350
70
  3
Wireframe
350
71
  3
X-Ray
350
72
  0
LAYOUT
  5
1A
330
D
100
AcDbPlotSettings
  1

  4
A3
  6

 40
7.5
 41
20.0
 42
7.5
 43
20.0
 44
420.0
 45
297.0
 46
0.0
 47
0.0
 48
0.0
 49
0.0
140
0.0
141
0.0
142
1.0
143
1.0
 70
1024
 72
1
 73
0
 74
5
  7

 75
16
 76
0
 77
2
 78
300
147
1.0
148
0.0
149
0.0
100
AcDbLayout
  1
Model
 70
1
 71
0
 10
0.0
 20
0.0
 11
420.0
 21
297.0
 12
0.0
 22
0.0
 32
0.0
 14
1e+20
 24
1e+20
 34
1e+20
 15
-1e+20
 25
-1e+20
 35
-1e+20
146
0.0
 13
0.0
 23
0.0
 33
0.0
 16
1.0
 26
0.0
 36
0.0
 17
0.0
 27
1.0
 37
0.0
 76
1
330
17
  0
LAYOUT
  5
1E
330
D
100
AcDbPlotSettings
  1

  4
A3
  6

 40
7.5
 41
20.0
 42
7.5
 43
20.0
 44
420.0
 45
297.0
 46
0.0
 47
0.0
 48
0.0
 49
0.0
140
0.0
141
0.0
142
1.0
143
1.0
 70
0
 72
1
 73
0
 74
5
  7

 75
16
 76
0
 77
2
 78
300
147
1.0
148
0.0
149
0.0
100
AcDbLayout
  1
Layout1
 70
1
 71
1
 10
0.0
 20
0.0
 11
420.0
 21
297.0
 12
0.0
 22
0.0
 32
0.0
 14
1e+20
 24
1e+20
 34
1e+20
 15
-1e+20
 25
-1e+20
 35
-1e+20
146
0.0
 13
0.0
 23
0.0
 33
0.0
 16
1.0
 26
0.0
 36
0.0
 17
0.0
 27
1.0
 37
0.0
 76
1
330
1B
  0
MATERIAL
  5
1F
102
{ACAD_REACTORS
330
E
102
}
330
E
100
AcDbMaterial
  1
ByBlock
  2

 70
0
 40
1.0
 71
1
 41
1.0
 91
-1023410177
 42
1.0
 72
1
  3

 73
1
 74
1
 75
1
 44
0.5
 73
0
 45
1.0
 46
1.0
 77
1
  4

 78
1
 79
1
170
1
 48
1.0
171
1
  6

172
1
173
1
174
1
140
1.0
141
1.0
175
1
  7

176
1
177
1
178
1
143
1.0
179
1
  8

270
1
271
1
272
1
145
1.0
146
1.0
273
1
  9

274
1
275
1
276
1
 42
1.0
 72
1
  3

 73
1
 74
1
 75
1
 94
63
  0
MATERIAL
  5
20
102
{ACAD_REACTORS
330
E
102
}
330
E
100
AcDbMaterial
  1
ByLayer
  2

 70
0
 40
1.0
 71
1
 41
1.0
 91
-1023410177
 42
1.0
 72
1
  3

 73
1
 74
1
 75
1
 44
0.5
 73
0
 45
1.0
 46
1.0
 77
1
  4

 78
1
 79
1
170
1
 48
1.0
171
1
  6

172
1
173
1
174
1
140
1.0
141
1.0
175
1
  7

176
1
177
1
178
1
143
1.0
179
1
  8

270
1
271
1
272
1
145
1.0
146
1.0
273
1
  9

274
1
275
1
276
1
 42
1.0
 72
1
  3

 73
1
 74
1
 75
1
 94
63
  0
MATERIAL
  5
21
102
{ACAD_REACTORS
330
E
102
}
330
E
100
AcDbMaterial
  1
Global
  2

 70
0
 40
1.0
 71
1
 41
1.0
 91
-1023410177
 42
1.0
 72
1
  3

 73
1
 74
1
 75
1
 44
0.5
 73
0
 45
1.0
 46
1.0
 77
1
  4

 78
1
 79
1
170
1
 48
1.0
171
1
  6

172
1
173
1
174
1
140
1.0
141
1.0
175
1
  7

176
1
177
1
178
1
143
1.0
179
1
  8

270
1
271
1
272
1
145
1.0
146
1.0
273
1
  9

274
1
275
1
276
1
 42
1.0
 72
1
  3

 73
1
 74
1
 75
1
 94
63
  0
MLINESTYLE
  5
22
102
{ACAD_REACTORS
330
10
102
}
330
10
100
AcDbMlineStyle
  2
Standard
 70
0
  3

 62
256
 51
90.0
 52
90.0
 71
2
 49
0.5
 62
256
  6
BYLAYER
 49
-0.5
 62
256
  6
BYLAYER
  0
MLEADERSTYLE
  5
2C
102
{ACAD_REACTORS
330
F
102
}
330
F
100
AcDbMLeaderStyle
179
2
170
2
171
1
172
0
 90
2
 40
0.0
 41
0.0
173
1
 91
-1056964608
 92
-2
290
1
 42
2.0
291
1
 43
8.0
  3
Standard
 44
4.0
300

342
29
174
1
175
1
176
0
178
1
 93
-1056964608
 45
4.0
292
0
297
0
 46
4.0
 94
-1056964608
 47
1.0
 49
1.0
140
1.0
294
1
141
0.0
177
0
142
1.0
295
0
296
0
143
3.75
271
0
272
9
273
9
  0
DICTIONARY
  5
2D
330
A
100
AcDbDictionary
280
1
281
1
  3
CREATED_BY_EZDXF
350
2E
  3
WRITTEN_BY_EZDXF
350
A1
  0
DICTIONARYVAR
  5
2E
330
2D
100
DictionaryVariables
280
0
  1
1.4.4 @ 2026-07-26T20:00:46.485399+00:00
  0
VISUALSTYLE
  5
5A
102
{ACAD_REACTORS
330
16
102
}
330
16
100
AcDbVisualStyle
  2
2dWireframe
 70
4
 90
0
 40
0.6
 62
7
290
0
291
0
  0
VISUALSTYLE
  5
5B
102
{ACAD_REACTORS
330
16
102
}
330
16
100
AcDbVisualStyle
  2
Basic
 70
7
 90
1
 40
0.6
 62
7
290
0
291
1
  0
VISUALSTYLE
  5
5C
102
{ACAD_REACTORS
330
16
102
}
330
16
100
AcDbVisualStyle
  2
Brighten
 70
12
 90
2
 40
0.6
 62
7
290
0
291
1
  0
VISUALSTYLE
  5
5D
102
{ACAD_REACTORS
330
16
102
}
330
16
100
AcDbVisualStyle
  2
ColorChange
 70
16
 90
2
 40
0.6
 62
8
290
0
291
1
  0
VISUALSTYLE
  5
5E
102
{ACAD_REACTORS
330
16
102
}
330
16
100
AcDbVisualStyle
  2
Conceptual
 70
9
 90
3
 40
0.6
 62
7
290
0
291
0
  0
VISUALSTYLE
  5
5F
102
{ACAD_REACTORS
330
16
102
}
330
16
100
AcDbVisualStyle
  2
Dim
 70
11
 90
2
 40
0.6
 62
7
290
0
291
1
  0
VISUALSTYLE
  5
60
102
{ACAD_REACTORS
330
16
102
}
330
16
100
AcDbVisualStyle
  2
EdgeColorOff
 70
22
 90
2
 40
0.6
 62
7
290
0
291
1
  0
VISUALSTYLE
  5
61
102
{ACAD_REACTORS
330
16
102
}
330
16
100
AcDbVisualStyle
  2
Facepattern
 70
15
 90
2
 40
0.6
 62
7
290
0
291
1
  0
VISUALSTYLE
  5
62
102
{ACAD_REACTORS
330
16
102
}
330
16
100
AcDbVisualStyle
  2
Flat
 70
0
 90
2
 40
0.6
 62
7
290
0
291
1
  0
VISUALSTYLE
  5
63
102
{ACAD_REACTORS
330
16
102
}
330
16
100
AcDbVisualStyle
  2
FlatWithEdges
 70
1
 90
2
 40
0.6
 62
7
290
0
291
1
  0
VISUALSTYLE
  5
64
102
{ACAD_REACTORS
330
16
102
}
330
16
100
AcDbVisualStyle
  2
Gouraud
 70
2
 90
2
 40
0.6
 62
7
290
0
291
1
  0
VISUALSTYLE
  5
65
102
{ACAD_REACTORS
330
16
102
}
330
16
100
AcDbVisualStyle
  2
GouraudWithEdges
 70
3
 90
2
 40
0.6
 62
7
290
0
291
1
  0
VISUALSTYLE
  5
66
102
{ACAD_REACTORS
330
16
102
}
330
16
100
AcDbVisualStyle
  2
Hidden
 70
6
 90
1
 40
0.6
 62
7
290
0
291
0
  0
VISUALSTYLE
  5
67
102
{ACAD_REACTORS
330
16
102
}
330
16
100
AcDbVisualStyle
  2
JitterOff
 70
20
 90
2
 40
0.6
 62
7
290
0
291
1
  0
VISUALSTYLE
  5
68
102
{ACAD_REACTORS
330
16
102
}
330
16
100
AcDbVisualStyle
  2
Linepattern
 70
14
 90
2
 40
0.6
 62
7
290
0
291
1
  0
VISUALSTYLE
  5
69
102
{ACAD_REACTORS
330
16
102
}
330
16
100
AcDbVisualStyle
  2
Modeling
 70
10
 90
2
 40
0.6
 62
7
290
0
291
0
  0
VISUALSTYLE
  5
6A
102
{ACAD_REACTORS
330
16
102
}
330
16
100
AcDbVisualStyle
  2
OverhangOff
 70
21
 90
2
 40
0.6
 62
7
290
0
291
1
  0
VISUALSTYLE
  5
6B
102
{ACAD_REACTORS
330
16
102
}
330
16
100
AcDbVisualStyle
  2
Realistic
 70
8
 90
2
 40
0.6
 62
7
290
0
291
0
  0
VISUALSTYLE
  5
6C
102
{ACAD_REACTORS
330
16
102
}
330
16
100
AcDbVisualStyle
  2
Shaded
 70
27
 90
2
 40
0.6
 62
7
290
0
291
0
  0
VISUALSTYLE
  5
6D
102
{ACAD_REACTORS
330
16
102
}
330
16
100
AcDbVisualStyle
  2
Shaded with edges
 70
26
 90
2
 40
0.6
 62
7
290
0
291
0
  0
VISUALSTYLE
  5
6E
102
{ACAD_REACTORS
330
16
102
}
330
16
100
AcDbVisualStyle
  2
Shades of Gray
 70
23
 90
2
 40
0.6
 62
7
290
0
291
0
  0
VISUALSTYLE
  5
6F
102
{ACAD_REACTORS
330
16
102
}
330
16
100
AcDbVisualStyle
  2
Sketchy
 70
24
 90
1
 40
0.6
 62
7
290
0
291
0
  0
VISUALSTYLE
  5
70
102
{ACAD_REACTORS
330
16
102
}
330
16
100
AcDbVisualStyle
  2
Thicken
 70
13
 90
2
 40
0.6
 62
7
290
0
291
1
  0
VISUALSTYLE
  5
71
102
{ACAD_REACTORS
330
16
102
}
330
16
100
AcDbVisualStyle
  2
Wireframe
 70
5
 90
0
 40
0.6
 62
7
290
0
291
0
  0
VISUALSTYLE
  5
72
102
{ACAD_REACTORS
330
16
102
}
330
16
100
AcDbVisualStyle
  2
X-Ray
 70
25
 90
2
 40
0.5
 62
7
290
0
291
0
  0
DICTIONARYVAR
  5
A1
330
2D
100
DictionaryVariables
280
0
  1
1.4.4 @ 2026-07-26T20:00:46.500578+00:00
  0
ENDSEC
  0
EOF
